<svg xmlns="http://www.w3.org/2000/svg" viewBox="0 0 64 64" fill="none" stroke="currentColor" stroke-width="2" stroke-linecap="round" stroke-linejoin="round">
  <!-- Brick wall -->
  <rect x="6" y="14" width="52" height="36" rx="2"/>
  <!-- Brick rows -->
  <line x1="6" y1="23" x2="58" y2="23"/>
  <line x1="6" y1="32" x2="58" y2="32"/>
  <line x1="6" y1="41" x2="58" y2="41"/>
  <!-- Brick columns row 1 -->
  <line x1="20" y1="14" x2="20" y2="23"/>
  <line x1="38" y1="14" x2="38" y2="23"/>
  <line x1="52" y1="14" x2="52" y2="23"/>
  <!-- Brick columns row 2 -->
  <line x1="14" y1="23" x2="14" y2="32"/>
  <line x1="32" y1="23" x2="32" y2="32"/>
  <line x1="46" y1="23" x2="46" y2="32"/>
  <!-- Brick columns row 3 -->
  <line x1="20" y1="32" x2="20" y2="41"/>
  <line x1="38" y1="32" x2="38" y2="41"/>
  <line x1="52" y1="32" x2="52" y2="41"/>
  <!-- Brick columns row 4 -->
  <line x1="14" y1="41" x2="14" y2="50"/>
  <line x1="32" y1="41" x2="32" y2="50"/>
  <line x1="46" y1="41" x2="46" y2="50"/>
  <!-- Shield overlay -->
  <path d="M32 20 L42 25 L42 35 C42 40 37 44 32 46 C27 44 22 40 22 35 L22 25 Z" stroke-width="2.5"/>
</svg>
