<svg xmlns="http://www.w3.org/2000/svg" viewBox="0 0 50.8 99.97" width="50.8" height="99.97"><path d="M 48.8 95.64 L 48.8 97.98 L 2 97.98 L 2 95.64 C 2 94.81 2.67 94.14 3.5 94.14 L 23.4 94.14 C 23.95 94.14 24.4 93.69 24.4 93.14 L 24.4 17.1 C 24.4 16.55 24.85 16.1 25.4 16.1 C 25.51 16.1 25.62 16.12 25.72 16.15 C 25.73 16.15 25.74 16.16 25.76 16.16 C 25.76 16.16 25.76 16.16 25.76 16.16 C 25.89 16.21 26.01 16.29 26.1 16.38 C 26.29 16.57 26.39 16.82 26.39 17.09 L 26.39 93.12 C 26.39 93.67 26.84 94.12 27.39 94.12 L 47.29 94.12 C 48.13 94.14 48.8 94.81 48.8 95.64 Z" fill="var(--icon-primary, #dae8fc)" stroke="none" stroke-width="0"/><rect x="0" y="0" width="0" height="0" fill="none" stroke="var(--icon-secondary, #6c8ebf)" stroke-width="1"/><path d="M 47.3 92.14 L 43.04 92.14 L 28.4 35.01 L 28.4 17.1 C 28.4 16.3 28.09 15.55 27.52 14.98 L 27.52 14.98 C 27.33 14.79 27.11 14.62 26.87 14.49 C 26.75 14.42 26.63 14.36 26.5 14.31 C 26.48 14.3 26.47 14.3 26.45 14.29 C 26.11 14.16 25.76 14.1 25.4 14.1 C 24.99 14.1 24.59 14.19 24.23 14.34 C 23.16 14.8 22.4 15.86 22.4 17.1 L 22.4 35.01 L 19.9 44.78 L 16.21 59.16 L 7.82 91.89 L 7.76 92.14 L 3.5 92.14 C 1.57 92.14 0 93.71 0 95.64 L 0 98.98 C 0 99.23 0.09 99.46 0.24 99.63 L 0.34 99.73 C 0.51 99.88 0.74 99.97 0.99 99.97 L 49.79 99.97 C 50.34 99.97 50.79 99.52 50.79 98.97 L 50.79 95.63 C 50.8 93.71 49.23 92.14 47.3 92.14 Z M 28.4 43.07 L 29.65 47.93 L 28.4 47.93 L 28.4 43.07 Z M 28.4 49.92 L 30.16 49.92 L 32.34 58.41 L 28.4 58.41 L 28.4 49.92 Z M 28.4 60.41 L 32.85 60.41 L 35.03 68.9 L 28.4 68.9 L 28.4 60.41 Z M 28.4 70.9 L 35.54 70.9 L 37.72 79.39 L 28.4 79.39 L 28.4 70.9 Z M 28.4 81.39 L 38.22 81.39 L 40.98 92.14 L 28.4 92.14 L 28.4 81.39 Z M 22.4 43.06 L 22.4 47.92 L 21.15 47.92 L 22.4 43.06 Z M 20.64 49.92 L 22.4 49.92 L 22.4 58.41 L 18.47 58.41 L 20.64 49.92 Z M 17.95 60.41 L 22.4 60.41 L 22.4 68.9 L 15.78 68.9 L 17.95 60.41 Z M 15.26 70.9 L 22.4 70.9 L 22.4 79.39 L 13.09 79.39 L 15.26 70.9 Z M 12.57 81.39 L 22.39 81.39 L 22.39 92.14 L 9.82 92.14 L 12.57 81.39 Z M 48.8 97.98 L 2 97.98 L 2 95.64 C 2 94.81 2.67 94.14 3.5 94.14 L 23.4 94.14 C 23.95 94.14 24.4 93.69 24.4 93.14 L 24.4 17.1 C 24.4 16.55 24.85 16.1 25.4 16.1 C 25.51 16.1 25.62 16.12 25.72 16.15 C 25.73 16.15 25.74 16.16 25.76 16.16 C 25.76 16.16 25.76 16.16 25.76 16.16 C 25.89 16.21 26.01 16.29 26.1 16.38 C 26.29 16.57 26.39 16.82 26.39 17.09 L 26.39 93.12 C 26.39 93.67 26.84 94.12 27.39 94.12 L 47.29 94.12 C 48.12 94.12 48.79 94.79 48.79 95.62 L 48.79 97.98 Z M 38.9 16.94 C 38.9 19.54 38.17 22.03 36.81 24.17 C 36.81 24.17 36.81 24.17 36.81 24.17 C 36.29 25 35.67 25.77 34.96 26.48 C 34.76 26.68 34.51 26.77 34.25 26.77 C 33.99 26.77 33.74 26.67 33.54 26.48 C 33.15 26.09 33.15 25.46 33.54 25.07 C 34.25 24.36 34.86 23.57 35.35 22.72 C 35.35 22.72 35.35 22.72 35.35 22.72 C 36.36 20.99 36.9 19.01 36.9 16.95 C 36.9 13.88 35.71 11 33.54 8.83 C 33.31 8.6 33.22 8.29 33.26 7.99 L 33.26 7.99 L 33.26 7.99 C 33.29 7.78 33.38 7.57 33.54 7.41 C 33.7 7.25 33.91 7.15 34.12 7.13 L 34.12 7.13 L 34.12 7.13 C 34.38 7.1 34.66 7.17 34.88 7.34 C 34.89 7.35 34.91 7.36 34.92 7.38 C 34.93 7.39 34.95 7.4 34.96 7.42 C 35 7.44 35.04 7.49 35.09 7.53 C 35.13 7.58 35.18 7.62 35.22 7.67 C 37.59 10.18 38.9 13.46 38.9 16.94 Z M 17.27 25.08 C 17.09 24.9 16.91 24.71 16.74 24.52 C 16.74 24.52 16.73 24.51 16.73 24.51 L 16.73 24.51 C 14.9 22.41 13.9 19.76 13.9 16.95 C 13.9 13.87 15.1 10.98 17.28 8.81 C 17.66 8.43 17.67 7.82 17.32 7.43 L 17.3 7.41 C 17.29 7.4 17.28 7.39 17.28 7.38 C 17.27 7.37 17.26 7.36 17.25 7.36 L 17.24 7.35 C 16.85 7 16.24 7.01 15.86 7.38 C 13.31 9.93 11.9 13.32 11.9 16.94 C 11.9 20.28 13.11 23.44 15.32 25.92 L 15.32 25.92 C 15.32 25.92 15.33 25.93 15.33 25.94 C 15.5 26.13 15.68 26.32 15.86 26.5 C 16.06 26.7 16.31 26.79 16.57 26.79 C 16.83 26.79 17.08 26.69 17.28 26.5 C 17.67 26.1 17.67 25.47 17.27 25.08 Z M 43.89 16.34 L 43.89 16.34 C 43.72 11.88 41.98 7.71 38.94 4.45 C 38.77 4.27 38.6 4.1 38.43 3.92 C 38.4 3.89 38.36 3.85 38.32 3.83 C 38.11 3.67 37.85 3.61 37.6 3.64 L 37.6 3.64 L 37.6 3.64 C 37.39 3.67 37.18 3.76 37.02 3.93 C 36.85 4.09 36.75 4.3 36.73 4.5 L 36.73 4.5 C 36.69 4.8 36.79 5.11 37.02 5.34 C 39.45 7.75 41.04 10.78 41.64 14.07 C 41.64 14.07 41.64 14.07 41.64 14.08 C 41.82 15.05 41.91 16.05 41.91 17.06 C 41.91 20.43 40.9 23.65 39.03 26.38 C 39.03 26.38 39.03 26.38 39.03 26.38 C 38.48 27.19 37.85 27.95 37.14 28.66 C 36.75 29.05 36.75 29.69 37.15 30.07 C 37.35 30.26 37.6 30.36 37.85 30.36 C 38.11 30.36 38.37 30.26 38.56 30.06 C 39.26 29.35 39.89 28.6 40.46 27.81 C 40.46 27.81 40.46 27.81 40.46 27.81 C 42.7 24.69 43.9 20.96 43.9 17.06 C 43.9 16.82 43.89 16.58 43.89 16.34 Z M 13.15 28.12 C 13.15 28.12 13.14 28.11 13.14 28.1 L 13.14 28.1 C 10.4 25.07 8.9 21.18 8.9 17.06 C 8.9 12.61 10.64 8.45 13.8 5.33 C 14.19 4.94 14.2 4.32 13.82 3.93 L 13.77 3.88 C 13.38 3.52 12.77 3.53 12.39 3.91 C 8.85 7.41 6.89 12.08 6.89 17.07 C 6.89 21.72 8.59 26.11 11.71 29.52 L 11.71 29.52 C 11.71 29.52 11.72 29.53 11.72 29.54 C 11.89 29.73 12.07 29.91 12.25 30.1 C 12.45 30.3 12.7 30.4 12.96 30.4 C 13.21 30.4 13.47 30.3 13.66 30.11 C 14.05 29.72 14.06 29.09 13.67 28.7 C 13.5 28.49 13.32 28.31 13.15 28.12 Z M 9.62 31.65 C 9.62 31.65 9.61 31.64 9.61 31.64 L 9.61 31.64 C 5.94 27.66 3.92 22.52 3.92 17.07 C 3.92 11.3 6.18 5.87 10.28 1.81 C 10.67 1.42 10.68 0.8 10.3 0.41 L 10.25 0.36 C 9.86 0 9.25 0.01 8.87 0.39 C 4.38 4.83 1.92 10.75 1.92 17.06 C 1.92 23.04 4.14 28.68 8.19 33.04 C 8.19 33.04 8.19 33.04 8.19 33.04 C 8.19 33.05 8.2 33.05 8.2 33.06 C 8.37 33.25 8.55 33.43 8.73 33.61 C 8.93 33.81 9.18 33.91 9.44 33.91 C 9.69 33.91 9.95 33.81 10.14 33.62 C 10.53 33.23 10.53 32.6 10.15 32.21 C 9.97 32.02 9.79 31.84 9.62 31.65 Z M 48.75 14.27 C 48.75 14.26 48.75 14.26 48.75 14.25 C 48.13 9.01 45.78 4.16 41.97 0.39 C 41.74 0.16 41.43 0.07 41.14 0.11 C 40.93 0.14 40.72 0.23 40.56 0.4 C 40.4 0.56 40.31 0.76 40.28 0.97 C 40.24 1.27 40.34 1.58 40.57 1.81 C 43.38 4.6 45.33 8.03 46.27 11.77 C 46.27 11.78 46.27 11.79 46.28 11.8 C 46.71 13.5 46.93 15.27 46.93 17.08 C 46.93 17.82 46.89 18.55 46.82 19.27 C 46.82 19.27 46.82 19.27 46.82 19.27 C 46.43 23.18 44.98 26.86 42.63 29.99 C 42.04 30.77 41.4 31.52 40.7 32.22 C 40.31 32.61 40.31 33.24 40.71 33.63 C 40.9 33.82 41.16 33.92 41.41 33.92 C 41.67 33.92 41.92 33.82 42.12 33.62 C 42.82 32.92 43.46 32.18 44.06 31.41 C 46.41 28.37 47.96 24.82 48.6 21.04 C 48.82 19.74 48.93 18.41 48.93 17.07 C 48.92 16.12 48.86 15.19 48.75 14.27 Z" fill="var(--icon-secondary, #6c8ebf)" stroke="none" stroke-width="0"/></svg>