<svg xmlns="http://www.w3.org/2000/svg" viewBox="0 0 52.97 102" width="52.97" height="102"><path d="M 44.98 101 L 7.02 101 C 3.7 101 1 98.3 1 94.98 L 1 7.02 C 1 3.7 3.7 1 7.02 1 L 44.98 1 C 48.3 1 51 3.7 51 7.02 L 51 94.98 C 51 98.3 48.3 101 44.98 101 Z" fill="var(--icon-primary, #dae8fc)" stroke="none" stroke-width="0"/><path d="M 26 7.75 C 24.98 7.75 24.16 6.92 24.16 5.91 C 24.16 4.9 24.98 4.07 26 4.07 C 27.02 4.07 27.84 4.9 27.84 5.91 C 27.84 6.92 27.02 7.75 26 7.75 Z M 15.26 27.41 L 9.26 27.41 C 8.16 27.41 7.26 26.51 7.26 25.41 L 7.26 19.41 C 7.26 18.31 8.16 17.41 9.26 17.41 L 15.26 17.41 C 16.36 17.41 17.26 18.31 17.26 19.41 L 17.26 25.41 C 17.26 26.51 16.36 27.41 15.26 27.41 Z M 29 27.41 L 23 27.41 C 21.9 27.41 21 26.51 21 25.41 L 21 19.41 C 21 18.31 21.9 17.41 23 17.41 L 29 17.41 C 30.1 17.41 31 18.31 31 19.41 L 31 25.41 C 31 26.51 30.1 27.41 29 27.41 Z M 42.74 27.41 L 36.74 27.41 C 35.64 27.41 34.74 26.51 34.74 25.41 L 34.74 19.41 C 34.74 18.31 35.64 17.41 36.74 17.41 L 42.74 17.41 C 43.84 17.41 44.74 18.31 44.74 19.41 L 44.74 25.41 C 44.74 26.51 43.84 27.41 42.74 27.41 Z M 15.26 40.61 L 9.26 40.61 C 8.16 40.61 7.26 39.71 7.26 38.61 L 7.26 32.61 C 7.26 31.51 8.16 30.61 9.26 30.61 L 15.26 30.61 C 16.36 30.61 17.26 31.51 17.26 32.61 L 17.26 38.61 C 17.26 39.71 16.36 40.61 15.26 40.61 Z M 29 40.61 L 23 40.61 C 21.9 40.61 21 39.71 21 38.61 L 21 32.61 C 21 31.51 21.9 30.61 23 30.61 L 29 30.61 C 30.1 30.61 31 31.51 31 32.61 L 31 38.61 C 31 39.71 30.1 40.61 29 40.61 Z M 42.74 40.61 L 36.74 40.61 C 35.64 40.61 34.74 39.71 34.74 38.61 L 34.74 32.61 C 34.74 31.51 35.64 30.61 36.74 30.61 L 42.74 30.61 C 43.84 30.61 44.74 31.51 44.74 32.61 L 44.74 38.61 C 44.74 39.71 43.84 40.61 42.74 40.61 Z M 15.26 53.81 L 9.26 53.81 C 8.16 53.81 7.26 52.91 7.26 51.81 L 7.26 45.81 C 7.26 44.71 8.16 43.81 9.26 43.81 L 15.26 43.81 C 16.36 43.81 17.26 44.71 17.26 45.81 L 17.26 51.81 C 17.26 52.91 16.36 53.81 15.26 53.81 Z M 29 53.81 L 23 53.81 C 21.9 53.81 21 52.91 21 51.81 L 21 45.81 C 21 44.71 21.9 43.81 23 43.81 L 29 43.81 C 30.1 43.81 31 44.71 31 45.81 L 31 51.81 C 31 52.91 30.1 53.81 29 53.81 Z M 42.74 53.81 L 36.74 53.81 C 35.64 53.81 34.74 52.91 34.74 51.81 L 34.74 45.81 C 34.74 44.71 35.64 43.81 36.74 43.81 L 42.74 43.81 C 43.84 43.81 44.74 44.71 44.74 45.81 L 44.74 51.81 C 44.74 52.91 43.84 53.81 42.74 53.81 Z M 15.26 67.01 L 9.26 67.01 C 8.16 67.01 7.26 66.11 7.26 65.01 L 7.26 59.01 C 7.26 57.91 8.16 57.01 9.26 57.01 L 15.26 57.01 C 16.36 57.01 17.26 57.91 17.26 59.01 L 17.26 65.01 C 17.26 66.11 16.36 67.01 15.26 67.01 Z M 29 67.01 L 23 67.01 C 21.9 67.01 21 66.11 21 65.01 L 21 59.01 C 21 57.91 21.9 57.01 23 57.01 L 29 57.01 C 30.1 57.01 31 57.91 31 59.01 L 31 65.01 C 31 66.11 30.1 67.01 29 67.01 Z M 52.97 33.48 L 52.97 17.21 C 52.97 16.67 52.54 16.23 52 16.21 L 52 7.02 C 52 5.08 51.21 3.33 49.94 2.06 C 48.67 0.79 46.91 0 44.98 0 L 7.02 0 C 3.15 0 0 3.15 0 7.02 L 0 94.98 C 0 96.92 0.79 98.67 2.06 99.94 C 3.33 101.21 5.09 102 7.02 102 L 44.98 102 C 48.85 102 52 98.85 52 94.98 L 52 42.95 C 52.54 42.93 52.97 42.49 52.97 41.95 L 52.97 36.67 C 52.97 36.13 52.54 35.69 52 35.67 L 52 34.47 C 52.54 34.46 52.97 34.02 52.97 33.48 Z M 50 94.98 C 50 97.75 47.75 100 44.98 100 L 7.02 100 C 4.25 100 2 97.75 2 94.98 L 2 7.02 C 2 4.25 4.25 2 7.02 2 L 44.98 2 C 47.75 2 50 4.25 50 7.02 L 50 94.98 Z" fill="var(--icon-secondary, #6c8ebf)" stroke="none" stroke-width="0"/></svg>