<svg xmlns="http://www.w3.org/2000/svg" viewBox="0 0 140 140" width="140" height="140"><path d="M 140 67.11 L 140 135 C 140 137.76 137.76 140 135 140 L 67.11 140 L 46.05 118.94 L 46.05 118.94 C 47.32 120.21 49.08 121 51.01 121 L 88.97 121 C 92.84 121 95.99 117.85 95.99 113.98 L 95.99 61.95 C 96.53 61.93 96.96 61.49 96.96 60.95 L 96.96 55.67 C 96.96 55.13 96.53 54.69 95.99 54.67 L 95.99 53.47 C 96.53 53.45 96.96 53.01 96.96 52.47 L 96.96 36.21 C 96.96 35.67 96.53 35.23 95.99 35.21 L 95.99 26.02 C 95.99 24.08 95.2 22.33 93.93 21.06 L 93.93 21.06 L 140 67.11 Z" fill="var(--icon-primary, #dae8fc)" stroke="none" stroke-width="0" opacity="0.25"/></svg>