<svg xmlns="http://www.w3.org/2000/svg" viewBox="0 0 100 99.6" width="100" height="99.6"><path d="M 27.15 59.19 C 17.33 59.19 9.37 51.23 9.37 41.42 C 9.37 33.41 14.67 26.64 21.95 24.42 C 22.27 11.43 32.9 1 45.96 1 C 56.72 1 65.83 8.08 68.88 17.83 C 69.23 17.81 69.58 17.8 69.94 17.8 C 81.37 17.8 90.63 27.06 90.63 38.49 C 90.63 49.92 81.37 59.18 69.94 59.18 L 27.15 59.18 Z M 12.73 77.88 C 6.25 77.88 1 79.76 1 82.08 L 1 94.4 C 1 96.72 6.25 98.6 12.73 98.6 C 19.21 98.6 24.46 96.72 24.46 94.4 L 24.46 82.08 C 24.46 79.76 19.21 77.88 12.73 77.88 Z M 50 77.88 C 43.52 77.88 38.27 79.76 38.27 82.08 L 38.27 94.4 C 38.27 96.72 43.52 98.6 50 98.6 C 56.48 98.6 61.73 96.72 61.73 94.4 L 61.73 82.08 C 61.73 79.76 56.48 77.88 50 77.88 Z M 87.27 77.88 C 80.79 77.88 75.54 79.76 75.54 82.08 L 75.54 94.4 C 75.54 96.72 80.79 98.6 87.27 98.6 C 93.75 98.6 99 96.72 99 94.4 L 99 82.08 C 99 79.76 93.75 77.88 87.27 77.88 Z" fill="var(--icon-primary, #dae8fc)" stroke="none" stroke-width="0"/><path d="M 88.27 76.89 L 88.27 68.33 C 88.27 67.78 87.82 67.33 87.27 67.33 L 51 67.33 L 51 60.19 L 69.94 60.19 C 75.73 60.19 81.18 57.93 85.28 53.84 C 89.38 49.74 91.63 44.3 91.63 38.5 C 91.63 37.86 91.6 37.22 91.55 36.58 C 91.52 36.21 91.48 35.85 91.43 35.48 C 90.79 30.83 88.66 26.53 85.28 23.16 C 81.9 19.78 77.61 17.66 72.96 17.01 C 71.97 16.87 70.96 16.8 69.94 16.8 C 69.83 16.8 69.71 16.8 69.6 16.8 C 68.76 14.39 67.54 12.11 66.01 10.06 C 64.57 8.13 62.85 6.4 60.91 4.95 C 60.89 4.94 60.87 4.92 60.86 4.91 C 56.53 1.7 51.38 0 45.97 0 C 43.36 0 40.81 0.4 38.38 1.17 C 34.7 2.34 31.32 4.36 28.49 7.12 C 23.97 11.54 21.33 17.4 21 23.68 C 17.51 24.9 14.39 27.17 12.15 30.14 C 9.7 33.42 8.4 37.31 8.4 41.42 C 8.4 46.35 10.31 50.85 13.44 54.2 C 13.59 54.37 13.75 54.53 13.91 54.69 C 14.06 54.84 14.22 55 14.38 55.14 C 17.74 58.27 22.24 60.19 27.18 60.19 L 49 60.19 L 49 67.33 L 12.73 67.33 C 12.18 67.33 11.73 67.78 11.73 68.33 L 11.73 76.89 C 5.75 77.07 0 78.84 0 82.07 L 0 94.39 C 0 95.16 0.33 95.85 0.91 96.46 L 1.03 96.58 C 3.09 98.56 7.93 99.59 12.72 99.59 C 19.05 99.59 25.45 97.8 25.45 94.39 L 25.45 82.07 C 25.45 78.84 19.7 77.06 13.72 76.89 L 13.72 69.33 L 49 69.33 L 49 76.89 C 44.86 77.01 40.83 77.9 38.74 79.51 C 37.81 80.22 37.27 81.08 37.27 82.08 L 37.27 94.4 C 37.27 95.17 37.6 95.86 38.18 96.47 L 38.3 96.59 C 40.36 98.57 45.2 99.6 49.99 99.6 C 56.32 99.6 62.72 97.81 62.72 94.4 L 62.72 82.07 C 62.72 78.88 57.13 77.11 51.23 76.89 C 51.15 76.89 51.07 76.88 50.99 76.88 L 50.99 69.32 L 86.26 69.32 L 86.26 76.88 C 80.28 77.06 74.53 78.83 74.53 82.06 L 74.53 94.38 C 74.53 97.79 80.93 99.58 87.26 99.58 C 93.59 99.58 99.99 97.79 99.99 94.38 L 99.99 82.07 C 100 78.84 94.26 77.07 88.27 76.89 Z M 23.46 94.39 C 23.46 94.91 22.6 95.73 20.69 96.42 C 18.58 97.17 15.75 97.59 12.74 97.59 C 9.72 97.59 6.89 97.17 4.78 96.42 C 2.86 95.74 2 94.91 2 94.39 L 2 91.04 C 4.38 92.54 8.57 93.31 12.73 93.31 C 16.88 93.31 21.07 92.54 23.46 91.04 L 23.46 94.39 Z M 23.46 88.11 C 23.46 88.62 22.6 89.45 20.69 90.14 C 18.58 90.9 15.75 91.31 12.74 91.31 C 9.72 91.31 6.89 90.89 4.78 90.14 C 2.86 89.45 2 88.63 2 88.11 L 2 85.01 C 4.38 86.51 8.57 87.28 12.73 87.28 C 16.88 87.28 21.07 86.51 23.46 85.01 L 23.46 88.11 Z M 20.68 80.05 C 22.59 80.74 23.45 81.56 23.45 82.08 C 23.45 82.6 22.59 83.42 20.68 84.11 C 18.57 84.87 15.74 85.28 12.73 85.28 C 9.71 85.28 6.88 84.86 4.77 84.11 C 2.86 83.42 2 82.59 2 82.07 C 2 81.56 2.86 80.73 4.77 80.04 C 6.88 79.28 9.71 78.87 12.73 78.87 C 15.75 78.88 18.57 79.29 20.68 80.05 Z M 60.73 94.39 C 60.73 94.91 59.87 95.73 57.96 96.42 C 55.85 97.17 53.02 97.59 50 97.59 C 46.98 97.59 44.15 97.17 42.04 96.42 C 40.12 95.73 39.27 94.91 39.27 94.39 L 39.27 91.04 C 41.66 92.54 45.84 93.31 50 93.31 C 54.15 93.31 58.34 92.54 60.73 91.04 L 60.73 94.39 Z M 60.73 88.11 C 60.73 88.62 59.87 89.45 57.96 90.14 C 55.85 90.9 53.02 91.31 50 91.31 C 46.98 91.31 44.15 90.89 42.04 90.14 C 40.12 89.45 39.27 88.63 39.27 88.11 L 39.27 85.01 C 41.66 86.51 45.84 87.28 50 87.28 C 54.15 87.28 58.34 86.51 60.73 85.01 L 60.73 88.11 Z M 57.96 80.05 C 59.87 80.74 60.73 81.56 60.73 82.08 C 60.73 82.6 59.87 83.42 57.96 84.11 C 55.85 84.87 53.02 85.28 50 85.28 C 47.69 85.28 45.5 85.04 43.65 84.59 C 43.08 84.45 42.54 84.29 42.04 84.11 C 40.12 83.42 39.27 82.6 39.27 82.08 C 39.27 81.78 39.56 81.38 40.18 80.95 C 40.63 80.65 41.24 80.34 42.04 80.05 C 43.97 79.36 46.51 78.95 49.25 78.89 C 49.5 78.88 49.75 78.88 50 78.88 C 53.02 78.88 55.85 79.29 57.96 80.05 Z M 50 25.4 C 47.41 25.4 45.3 27.51 45.3 30.1 C 45.3 32.35 46.89 34.23 49 34.69 L 49 48.66 L 33 48.66 L 33 44.32 C 35.11 43.86 36.7 41.98 36.7 39.73 C 36.7 37.14 34.59 35.03 32 35.03 C 29.41 35.03 27.3 37.14 27.3 39.73 C 27.3 41.98 28.89 43.86 31 44.32 L 31 49.66 C 31 50.21 31.45 50.66 32 50.66 L 49 50.66 L 49 58.2 L 27.17 58.2 C 17.92 58.2 10.4 50.67 10.4 41.43 C 10.4 34 15.17 27.55 22.27 25.38 L 22.96 25.17 L 22.98 24.45 C 23.22 14.12 30.44 5.41 40.01 2.8 C 41.92 2.28 43.91 2 45.97 2 C 55.67 2 64.18 7.95 67.52 16.94 C 63.35 17.4 60.08 18.99 57.77 20.56 C 56.26 21.59 55.17 22.61 54.51 23.28 C 54.13 23.68 54.14 24.31 54.53 24.69 C 54.72 24.88 54.97 24.97 55.23 24.97 C 55.49 24.97 55.75 24.87 55.95 24.66 C 56.59 24 57.68 22.99 59.21 21.99 C 61.5 20.49 64.76 19.02 68.92 18.82 C 68.92 18.82 68.93 18.82 68.93 18.82 L 68.93 18.82 C 69.27 18.8 69.61 18.8 69.94 18.8 C 71.9 18.8 73.79 19.09 75.57 19.62 C 81.91 21.51 86.92 26.52 88.81 32.86 C 89.34 34.64 89.63 36.53 89.63 38.49 L 89.63 38.49 C 89.63 49.35 80.8 58.18 69.94 58.18 L 51 58.18 L 51 50.64 L 68 50.64 C 68.55 50.64 69 50.19 69 49.64 L 69 44.3 C 71.11 43.84 72.7 41.96 72.7 39.71 C 72.7 37.12 70.59 35.01 68 35.01 C 65.41 35.01 63.3 37.12 63.3 39.71 C 63.3 41.96 64.89 43.84 67 44.3 L 67 48.64 L 51 48.64 L 51 34.69 C 53.11 34.23 54.7 32.35 54.7 30.1 C 54.7 27.5 52.59 25.4 50 25.4 Z M 98 94.39 C 98 94.91 97.14 95.73 95.23 96.42 C 93.12 97.17 90.29 97.59 87.27 97.59 C 84.25 97.59 81.42 97.17 79.31 96.42 C 77.4 95.73 76.54 94.91 76.54 94.39 L 76.54 91.04 C 78.93 92.54 83.11 93.31 87.27 93.31 C 91.43 93.31 95.61 92.54 98 91.04 L 98 94.39 Z M 98 88.11 C 98 88.62 97.14 89.45 95.23 90.14 C 93.12 90.9 90.29 91.31 87.27 91.31 C 84.25 91.31 81.42 90.89 79.31 90.14 C 77.4 89.45 76.54 88.63 76.54 88.11 L 76.54 85.01 C 78.93 86.51 83.11 87.28 87.27 87.28 C 91.43 87.28 95.61 86.51 98 85.01 L 98 88.11 Z M 95.23 84.1 C 93.12 84.86 90.29 85.27 87.27 85.27 C 84.25 85.27 81.42 84.85 79.31 84.1 C 77.4 83.41 76.54 82.59 76.54 82.07 C 76.54 81.56 77.4 80.73 79.31 80.04 C 81.42 79.28 84.25 78.87 87.27 78.87 C 90.29 78.87 93.12 79.29 95.23 80.04 C 97.14 80.73 98 81.55 98 82.07 C 98 82.59 97.14 83.42 95.23 84.1 Z" fill="var(--icon-secondary, #6c8ebf)" stroke="none" stroke-width="0"/></svg>