<svg xmlns="http://www.w3.org/2000/svg" viewBox="0 0 140 140" width="140" height="140"><path d="M 139.96 120 L 139.96 78.23 L 105.24 43.51 C 109.34 47.61 111.59 53.05 111.59 58.85 C 111.59 64.65 109.33 70.09 105.24 74.19 C 101.14 78.29 95.7 80.54 89.9 80.54 L 70.97 80.54 L 70.97 87.68 L 107.24 87.68 C 107.79 87.68 108.24 88.13 108.24 88.68 L 108.24 97.24 C 114.22 97.42 119.97 99.19 119.97 102.42 L 119.97 114.74 C 119.97 118.15 113.57 119.94 107.24 119.94 C 104.98 119.94 102.71 119.71 100.72 119.26 C 97.16 118.45 94.51 116.93 94.51 114.74 L 94.51 102.42 C 94.51 99.19 100.25 97.41 106.24 97.24 L 106.24 89.68 L 70.97 89.68 L 70.97 97.24 C 75.46 97.37 79.81 98.4 81.71 100.27 C 82.34 100.89 82.7 101.61 82.7 102.42 L 82.7 114.74 C 82.7 118.15 76.3 119.94 69.97 119.94 C 67.16 119.94 64.33 119.59 62.06 118.9 C 59.22 118.04 57.24 116.64 57.24 114.74 L 57.24 113.05 L 44.45 100.26 L 44.44 100.27 C 45.07 100.89 45.43 101.61 45.43 102.42 L 45.43 114.74 C 45.43 115.54 45.08 116.25 44.46 116.87 C 44.43 116.9 44.4 116.93 44.36 116.96 C 42.28 118.92 37.47 119.94 32.7 119.94 C 27.91 119.94 23.07 118.91 21.01 116.93 L 42.52 138.44 L 44.08 140 L 135 140 C 137.76 140 140 137.76 140 135 L 140 120 L 139.96 120 Z M 47.17 80.54 C 42.23 80.54 37.73 78.62 34.37 75.49 L 46.56 87.68 L 69 87.68 L 69 80.54 L 47.17 80.54 Z M 48.56 89.68 L 58.74 99.86 C 60.83 98.25 64.86 97.36 69 97.24 L 69 89.68 L 48.56 89.68 Z" fill="var(--icon-primary, #dae8fc)" stroke="none" stroke-width="0" opacity="0.25"/></svg>