<svg xmlns="http://www.w3.org/2000/svg" viewBox="0 0 101.24 93" width="101.24" height="93"><path d="M 89.12 85.59 C 77.96 94.7 61.34 93.96 51.08 84.73 C 41.2 94.07 23.29 94.46 12.99 85.54 C 31.78 97.01 54.13 76.68 44.79 57 L 46.01 56.29 C 48.47 58.85 53.24 58.83 55.68 56.25 L 57.28 57.17 C 48.04 76.75 70.63 97.03 89.12 85.59 Z M 96.25 47.68 C 92.47 41.13 86.56 36.57 79.9 34.37 C 82.7 20.91 75.03 6.22 61.6 1.12 C 80.71 11.39 74.53 40.99 53.04 42.88 L 53.04 44.66 C 56.25 45.67 58.39 49.19 57.67 52.62 L 59.37 53.6 C 71.83 35.86 100.42 45.14 99.87 67.02 C 100.87 60.58 99.77 53.77 96.25 47.68 Z M 48.45 42.86 C 27.05 40.64 21.06 11.48 40.15 1.1 C 27.26 5.57 18.66 21.29 21.82 34.52 C 8.83 38.87 0 52.82 2.3 66.95 C 1.65 45.3 30.3 35.84 42.7 53.44 L 44.02 52.68 C 43.58 50.62 44.16 48.37 45.52 46.79 C 45.52 46.79 45.52 46.79 45.52 46.79 C 46.39 45.75 47.56 44.98 48.9 44.59 L 48.9 42.91 C 48.75 42.89 48.6 42.88 48.45 42.86 Z" fill="var(--icon-primary, #dae8fc)" stroke="none" stroke-width="0"/><path d="M 67.26 29 C 62.97 25.84 57.96 24.02 52.66 23.7 C 52.09 23.66 51.52 23.65 50.95 23.65 C 44.97 23.65 39.29 25.53 34.51 29.1 C 34.26 29.29 34.12 29.57 34.11 29.87 C 34.1 30.05 34.15 30.24 34.25 30.41 C 35.08 31.82 36.08 33.12 37.23 34.28 C 37.36 34.41 37.49 34.54 37.62 34.66 C 37.97 34.99 38.51 35.02 38.9 34.74 C 38.99 34.67 39.08 34.61 39.18 34.54 C 40.84 33.37 42.63 32.47 44.53 31.85 C 46.55 31.19 48.69 30.85 50.86 30.85 C 55.13 30.85 59.21 32.16 62.66 34.63 C 62.66 34.63 62.67 34.63 62.67 34.64 C 62.72 34.67 62.76 34.71 62.81 34.74 L 62.83 34.76 C 63.01 34.89 63.21 34.95 63.42 34.95 C 63.67 34.95 63.91 34.86 64.1 34.68 C 64.19 34.6 64.27 34.52 64.36 34.43 C 65.6 33.21 66.67 31.83 67.54 30.32 C 67.64 30.15 67.68 29.97 67.67 29.79 C 67.65 29.48 67.51 29.19 67.26 29 Z M 48.98 41.91 C 48.85 41.9 48.71 41.89 48.56 41.87 C 48.56 41.87 48.56 41.87 48.56 41.87 C 47.26 41.73 45.98 41.47 44.74 41.1 C 43.17 40.63 41.66 39.97 40.21 39.14 C 38.65 38.24 37.22 37.16 35.96 35.92 C 34.86 34.84 33.87 33.64 33.03 32.35 C 32.97 32.26 32.92 32.17 32.86 32.08 C 30.65 28.58 29.54 24.62 29.55 20.65 C 29.56 16.99 30.51 13.33 32.41 10.03 C 34.37 6.64 37.21 3.85 40.64 1.98 C 40.99 1.79 41.18 1.43 41.16 1.06 C 41.16 1.06 41.16 1.06 41.16 1.05 C 41.15 0.93 41.12 0.8 41.07 0.68 C 41.03 0.59 40.97 0.51 40.91 0.44 L 40.89 0.41 L 40.85 0.37 C 40.85 0.37 40.84 0.36 40.84 0.36 C 40.57 0.11 40.17 0.02 39.8 0.16 C 36.61 1.39 33.68 3.13 31.08 5.33 C 28.39 7.61 26.13 10.32 24.35 13.4 C 20.77 19.6 19.48 26.84 20.69 33.87 C 13.46 36.62 7.71 41.93 4.32 48.55 C 2.16 52.77 0.96 57.53 0.96 62.48 C 0.96 64.03 1.08 65.58 1.31 67.1 C 1.34 67.31 1.43 67.49 1.57 67.63 L 1.62 67.68 C 1.69 67.75 1.77 67.8 1.86 67.85 C 1.99 67.92 2.14 67.95 2.3 67.95 C 2.33 67.95 2.36 67.95 2.39 67.95 C 2.92 67.91 3.31 67.46 3.31 66.94 C 3.31 66.93 3.31 66.92 3.31 66.91 C 3.31 66.82 3.31 66.73 3.31 66.64 C 3.31 66.58 3.31 66.52 3.31 66.46 C 3.32 61.06 5.34 56.13 8.67 52.37 C 12.58 47.96 18.28 45.18 24.62 45.18 C 24.87 45.18 25.12 45.18 25.35 45.19 C 25.43 45.19 25.51 45.2 25.59 45.2 C 27.16 45.27 28.71 45.51 30.21 45.92 C 34.79 47.16 38.89 49.96 41.74 53.79 C 41.8 53.87 41.85 53.94 41.91 54.02 C 42.21 54.44 42.78 54.57 43.23 54.31 L 44.55 53.55 C 44.88 53.36 45.07 53.01 45.05 52.64 C 45.05 52.64 45.05 52.64 45.05 52.63 C 45.05 52.58 45.04 52.53 45.03 52.48 C 44.95 52.09 44.91 51.68 44.91 51.28 L 44.91 51.23 C 44.91 50.59 45.02 49.97 45.22 49.37 C 45.22 49.37 45.22 49.36 45.22 49.36 C 45.46 48.66 45.82 48.01 46.31 47.44 C 46.32 47.43 46.32 47.42 46.33 47.41 C 47.09 46.52 48.08 45.88 49.2 45.55 L 49.2 45.55 C 49.63 45.43 49.92 45.03 49.92 44.59 L 49.92 42.91 C 49.9 42.38 49.5 41.95 48.98 41.91 Z M 47.9 43.87 C 47.81 43.91 47.71 43.95 47.62 43.99 C 46.52 44.48 45.54 45.21 44.75 46.14 L 44.75 46.14 C 44.74 46.15 44.74 46.15 44.73 46.16 C 44.09 46.92 43.61 47.78 43.29 48.71 C 43.29 48.71 43.29 48.72 43.29 48.72 C 43.01 49.54 42.87 50.4 42.87 51.27 C 42.87 51.54 42.88 51.81 42.91 52.07 C 39.82 48.14 35.51 45.28 30.7 43.98 C 29.06 43.53 27.35 43.27 25.65 43.19 C 25.56 43.19 25.48 43.18 25.39 43.18 C 25.14 43.17 24.87 43.17 24.59 43.17 C 18.36 43.17 12.51 45.59 8.11 50 C 7.8 50.31 7.51 50.62 7.22 50.94 C 5.77 52.55 4.57 54.33 3.64 56.24 C 4.15 53.96 4.94 51.76 5.97 49.7 C 9.25 43.17 14.96 37.97 22.15 35.47 C 22.62 35.31 22.9 34.82 22.8 34.33 C 21.43 27.51 22.59 20.44 26.07 14.41 C 27.55 11.85 29.42 9.54 31.58 7.57 C 31.26 8.04 30.96 8.52 30.67 9.02 C 26.32 16.55 26.51 25.79 31.16 33.14 C 31.22 33.24 31.28 33.33 31.35 33.43 C 32.27 34.85 33.35 36.16 34.56 37.34 C 35.94 38.69 37.51 39.88 39.21 40.86 C 41.76 42.33 44.5 43.29 47.37 43.73 C 47.55 43.76 47.73 43.78 47.91 43.8 L 47.91 43.87 Z M 101.22 62.11 C 101.21 61.64 101.2 61.18 101.17 60.71 C 101.1 59.48 100.95 58.26 100.73 57.04 C 100.1 53.58 98.89 50.26 97.11 47.18 C 93.49 40.91 87.8 36.16 81.03 33.71 C 81.03 33.69 81.04 33.66 81.04 33.64 C 81.3 32.07 81.43 30.5 81.44 28.94 C 81.44 28.74 81.44 28.53 81.44 28.33 C 81.39 24.03 80.43 19.84 78.67 16.01 C 77.18 12.75 75.12 9.75 72.57 7.17 C 72.01 6.61 71.43 6.06 70.82 5.54 C 69.38 4.3 67.82 3.19 66.13 2.21 C 64.8 1.43 63.4 0.75 61.96 0.19 C 61.47 0 60.91 0.22 60.69 0.7 C 60.51 1.09 60.6 1.55 60.89 1.84 C 60.96 1.9 61.03 1.95 61.11 2 C 61.24 2.07 61.38 2.15 61.51 2.22 C 64.17 3.75 66.41 5.79 68.15 8.21 C 68.69 8.96 69.18 9.74 69.62 10.56 C 70.39 12 71.01 13.54 71.44 15.16 C 71.51 15.43 71.58 15.7 71.64 15.97 C 72.7 20.62 72.18 25.41 70.16 29.7 L 70.16 29.7 C 69.9 30.25 69.62 30.8 69.31 31.33 C 69.17 31.56 69.05 31.77 68.93 31.97 C 68.85 32.1 68.77 32.22 68.68 32.35 C 67.83 33.65 66.84 34.85 65.74 35.93 C 62.46 39.14 58.13 41.23 53.54 41.82 C 53.35 41.85 53.15 41.87 52.93 41.89 C 52.42 41.94 52.03 42.37 52.03 42.89 L 52.03 44.67 C 52.03 45.1 52.31 45.48 52.72 45.62 C 55.15 46.42 56.78 48.67 56.8 51.23 L 56.8 51.28 C 56.8 51.67 56.76 52.06 56.69 52.44 C 56.68 52.49 56.67 52.54 56.67 52.59 C 56.67 52.59 56.67 52.59 56.67 52.59 C 56.66 52.87 56.76 53.14 56.96 53.34 C 57.02 53.4 57.09 53.46 57.17 53.5 L 58.87 54.48 C 59.32 54.74 59.89 54.61 60.19 54.19 C 60.28 54.06 60.37 53.94 60.48 53.79 C 62.21 51.46 64.38 49.53 66.92 48.07 C 68.39 47.22 69.95 46.55 71.57 46.07 C 73.04 45.64 74.57 45.36 76.11 45.26 C 76.28 45.25 76.44 45.24 76.59 45.23 C 81.05 45.03 85.34 46.21 88.95 48.49 C 88.95 48.49 88.95 48.49 88.95 48.49 C 91.57 50.15 93.84 52.39 95.56 55.1 C 95.72 55.35 95.87 55.6 96.02 55.86 C 97.89 59.1 98.87 62.76 98.88 66.47 C 98.88 66.54 98.88 66.61 98.88 66.67 C 98.88 66.77 98.88 66.87 98.88 66.97 C 98.88 66.98 98.88 66.99 98.88 67 C 98.87 67.53 99.27 67.97 99.79 68.02 C 99.82 68.02 99.85 68.02 99.88 68.02 C 100.37 68.02 100.79 67.66 100.87 67.17 C 101.1 65.67 101.23 64.17 101.24 62.66 C 101.23 62.48 101.23 62.29 101.22 62.11 Z M 97.75 54.86 C 95.57 51.09 92.4 48.02 88.59 45.97 C 87.38 45.32 86.12 44.78 84.83 44.36 L 84.83 44.36 C 82.49 43.59 80.03 43.2 77.55 43.2 C 77.2 43.2 76.85 43.21 76.5 43.22 C 76.33 43.23 76.15 43.24 75.97 43.25 C 74.29 43.36 72.61 43.66 71 44.14 C 69.23 44.66 67.52 45.4 65.92 46.32 C 63.25 47.86 60.96 49.87 59.1 52.28 L 58.77 52.09 C 58.8 51.82 58.81 51.54 58.81 51.27 C 58.81 48.08 56.92 45.23 54.04 43.98 L 54.04 43.77 C 58.96 43.09 63.61 40.82 67.15 37.36 C 68.36 36.18 69.44 34.86 70.36 33.45 C 70.45 33.31 70.54 33.18 70.63 33.03 C 70.76 32.81 70.9 32.59 71.05 32.33 C 71.27 31.95 71.47 31.58 71.67 31.19 L 71.67 31.19 C 74.27 26.06 74.88 20.23 73.38 14.64 C 73.35 14.53 73.32 14.43 73.29 14.32 C 73.28 14.27 73.26 14.23 73.25 14.18 C 72.57 11.83 71.54 9.63 70.21 7.65 C 73.24 10.43 75.6 13.8 77.17 17.52 C 79.36 22.66 80.05 28.44 78.92 34.19 C 78.82 34.69 79.11 35.17 79.59 35.33 C 82.93 36.43 86 38.12 88.67 40.3 C 91.35 42.48 93.63 45.14 95.39 48.19 C 96.87 50.75 97.93 53.52 98.56 56.39 C 98.31 55.86 98.04 55.35 97.75 54.86 Z M 78.29 48.15 C 78.23 47.64 77.8 47.26 77.3 47.26 L 77.29 47.26 C 75.54 47.28 73.8 47.55 72.13 48.04 C 72.01 48.08 71.88 48.11 71.76 48.15 C 71.35 48.28 71.07 48.66 71.06 49.08 C 71.06 49.08 71.06 49.08 71.06 49.08 C 71.06 49.12 71.06 49.16 71.06 49.21 C 71.07 49.28 71.07 49.35 71.08 49.42 C 71.12 49.92 71.15 50.43 71.15 50.94 C 71.15 50.99 71.15 51.04 71.15 51.08 L 71.15 51.16 C 71.15 55.63 69.64 59.92 67.03 63.39 C 65.12 65.93 62.61 68.03 59.67 69.45 C 59.56 69.5 59.45 69.56 59.34 69.61 C 58.99 69.77 58.76 70.12 58.76 70.5 C 58.76 70.5 58.76 70.5 58.76 70.5 C 58.76 70.58 58.77 70.66 58.78 70.74 C 58.83 70.95 58.87 71.15 58.93 71.35 C 59.34 72.94 59.96 74.48 60.77 75.92 C 60.95 76.24 61.29 76.43 61.64 76.43 C 61.78 76.43 61.91 76.4 62.04 76.35 C 66.08 74.57 69.54 71.89 72.23 68.6 C 76.14 63.82 78.42 57.76 78.46 51.35 C 78.46 51.28 78.46 51.21 78.46 51.15 C 78.45 50.13 78.4 49.12 78.29 48.15 Z M 42.76 69.79 C 42.71 69.77 42.66 69.74 42.6 69.72 L 42.56 69.7 C 35.25 66.43 30.53 59.15 30.53 51.15 L 30.53 51.07 C 30.53 51.02 30.53 50.98 30.53 50.93 C 30.54 50.42 30.56 49.92 30.6 49.42 C 30.61 49.29 30.62 49.17 30.64 49.04 C 30.65 48.99 30.65 48.94 30.65 48.89 C 30.63 48.46 30.35 48.09 29.92 47.96 C 29.7 47.9 29.5 47.85 29.33 47.8 C 27.8 47.41 26.2 47.22 24.6 47.22 C 24.09 47.22 23.66 47.6 23.61 48.11 C 23.5 49.1 23.45 50.11 23.44 51.12 C 23.44 51.19 23.44 51.26 23.44 51.33 C 23.51 62.27 30.02 72.1 40.07 76.43 C 40.2 76.49 40.33 76.51 40.47 76.51 C 40.82 76.51 41.16 76.33 41.34 76.01 C 42.18 74.53 42.83 72.94 43.25 71.3 C 43.25 71.29 43.25 71.29 43.25 71.28 C 43.28 71.17 43.31 71.06 43.33 70.95 C 43.35 70.86 43.36 70.77 43.36 70.68 C 43.35 70.3 43.12 69.95 42.76 69.79 Z M 89.94 85.01 C 89.64 84.58 89.05 84.46 88.6 84.73 C 88.55 84.76 88.5 84.79 88.46 84.82 C 88.38 84.87 88.3 84.92 88.22 84.96 C 88.22 84.96 88.22 84.96 88.22 84.96 C 83.29 87.81 77.55 88.56 72.05 87.09 C 68.87 86.24 65.99 84.7 63.58 82.6 C 61.82 81.07 60.31 79.24 59.11 77.16 C 58.95 76.88 58.79 76.59 58.65 76.32 C 58.65 76.32 58.64 76.31 58.64 76.31 C 58.6 76.23 58.56 76.16 58.52 76.07 C 57.81 74.65 57.25 73.16 56.87 71.62 C 56.48 70.04 56.28 68.42 56.26 66.79 C 56.26 66.7 56.26 66.6 56.26 66.51 C 56.26 63.61 56.86 60.71 58.02 58.03 C 58.08 57.88 58.15 57.74 58.22 57.59 C 58.29 57.45 58.31 57.3 58.31 57.15 L 58.31 57.14 C 58.3 56.8 58.12 56.48 57.81 56.3 L 56.21 55.38 C 55.82 55.16 55.33 55.22 55.01 55.53 C 53.89 56.62 52.41 57.22 50.85 57.22 C 49.31 57.22 47.84 56.63 46.73 55.56 C 46.41 55.25 45.92 55.19 45.54 55.42 L 44.32 56.13 C 44.02 56.3 43.83 56.61 43.82 56.96 C 43.82 56.97 43.82 56.99 43.82 57 C 43.82 57.15 43.85 57.29 43.92 57.42 C 44.04 57.68 44.15 57.91 44.25 58.15 C 45.37 60.77 45.93 63.56 45.94 66.44 L 45.94 66.48 C 45.94 68.25 45.72 70.01 45.29 71.72 C 44.91 73.21 44.37 74.67 43.67 76.05 C 43.62 76.16 43.56 76.27 43.5 76.38 C 41.93 79.36 39.73 81.87 37.11 83.76 C 33.59 86.31 29.31 87.75 24.8 87.79 C 24.74 87.79 24.68 87.79 24.62 87.79 C 23.58 87.79 22.54 87.71 21.52 87.56 C 18.7 87.15 15.98 86.17 13.54 84.68 C 13.09 84.4 12.5 84.53 12.2 84.96 C 11.92 85.36 11.97 85.9 12.3 86.24 C 12.33 86.27 12.36 86.29 12.39 86.32 C 12.5 86.41 12.61 86.49 12.72 86.58 C 15.3 88.6 18.16 90.18 21.23 91.29 C 22.99 91.92 24.8 92.39 26.64 92.69 C 26.67 92.69 26.7 92.7 26.73 92.7 C 28.33 92.95 29.95 93.08 31.58 93.08 C 35.85 93.08 40.02 92.19 43.86 90.51 C 46.45 89.37 48.89 87.88 51.1 86.04 C 52.79 87.44 54.6 88.64 56.49 89.62 C 56.51 89.63 56.52 89.64 56.54 89.65 C 60.93 91.93 65.76 93.09 70.63 93.09 C 75.88 93.09 81.17 91.74 85.94 88.98 C 87.28 88.21 88.57 87.33 89.77 86.37 C 89.82 86.33 89.86 86.29 89.9 86.24 C 90.07 86.04 90.15 85.8 90.14 85.55 C 90.12 85.37 90.06 85.18 89.94 85.01 Z M 58.01 88.16 C 55.78 87.07 53.67 85.67 51.74 83.97 C 51.55 83.8 51.32 83.72 51.08 83.72 C 50.84 83.72 50.61 83.8 50.42 83.97 C 48 86.1 45.25 87.78 42.31 88.98 C 38.92 90.35 35.28 91.08 31.56 91.08 C 28.99 91.08 26.44 90.73 23.99 90.05 C 23.62 89.95 23.25 89.84 22.88 89.72 C 23.16 89.74 23.43 89.76 23.71 89.77 C 24.01 89.78 24.31 89.79 24.6 89.79 C 29.72 89.79 34.57 88.13 38.52 85.19 C 41.27 83.14 43.59 80.47 45.25 77.3 C 45.31 77.18 45.38 77.05 45.44 76.94 C 46.2 75.44 46.79 73.84 47.21 72.21 C 47.68 70.35 47.92 68.42 47.92 66.48 C 47.92 63.45 47.35 60.52 46.23 57.75 C 47.57 58.71 49.18 59.23 50.85 59.23 C 52.68 59.23 54.42 58.61 55.83 57.48 L 56.04 57.6 C 54.15 62.18 53.76 67.32 54.94 72.1 C 55.36 73.78 55.96 75.42 56.74 76.96 C 56.79 77.06 56.83 77.15 56.88 77.24 C 57.04 77.54 57.21 77.85 57.38 78.16 C 58.67 80.39 60.28 82.36 62.16 84.01 C 64.82 86.36 68.01 88.07 71.53 89.02 C 74.06 89.7 76.64 89.94 79.18 89.77 C 72.17 91.98 64.58 91.39 58.01 88.16 Z" fill="var(--icon-secondary, #6c8ebf)" stroke="none" stroke-width="0"/></svg>