<svg xmlns="http://www.w3.org/2000/svg" viewBox="0 0 140 140" width="140" height="140"><path d="M 91.49 30.57 C 97.06 36.19 100.26 43.78 100.36 51.73 C 100.36 51.93 100.36 52.14 100.36 52.34 C 100.35 53.9 100.22 55.47 99.96 57.04 C 99.96 57.06 99.95 57.09 99.95 57.11 C 106.73 59.56 112.42 64.32 116.03 70.58 C 117.81 73.66 119.02 76.97 119.65 80.44 C 119.95 82.12 120.11 83.81 120.13 85.51 C 120.13 85.7 120.13 85.88 120.13 86.07 C 120.12 87.57 120 89.08 119.76 90.58 C 119.68 91.07 119.26 91.43 118.77 91.43 C 118.74 91.43 118.71 91.43 118.68 91.43 C 118.15 91.38 117.76 90.94 117.77 90.41 C 117.77 90.4 117.77 90.39 117.77 90.38 C 117.77 90.28 117.77 90.18 117.77 90.08 C 117.77 90.01 117.77 89.94 117.77 89.88 C 117.77 86.17 116.78 82.51 114.91 79.27 C 113.14 76.21 110.7 73.71 107.84 71.9 C 104.22 69.61 99.94 68.43 95.47 68.64 C 95.32 68.65 95.16 68.65 94.99 68.67 C 93.45 68.77 91.92 69.05 90.45 69.48 C 88.84 69.95 87.27 70.63 85.8 71.48 C 83.26 72.94 81.1 74.87 79.36 77.2 C 79.26 77.34 79.16 77.47 79.07 77.6 C 78.77 78.02 78.2 78.15 77.75 77.89 L 76.05 76.91 C 75.97 76.86 75.9 76.81 75.84 76.75 C 75.65 76.55 75.54 76.28 75.55 76 C 75.55 76 75.55 76 75.55 76 C 75.55 75.95 75.56 75.9 75.57 75.85 C 75.64 75.47 75.68 75.08 75.68 74.69 L 75.68 74.64 C 75.66 72.08 74.03 69.83 71.6 69.03 C 71.19 68.89 70.92 68.51 70.92 68.08 L 70.92 66.3 C 70.92 65.78 71.31 65.35 71.82 65.3 C 72.04 65.28 72.23 65.26 72.43 65.23 C 77.01 64.64 81.35 62.55 84.63 59.34 C 85.73 58.26 86.72 57.06 87.57 55.76 C 87.65 55.63 87.74 55.5 87.82 55.38 C 87.94 55.19 88.07 54.98 88.2 54.74 C 88.51 54.21 88.79 53.66 89.05 53.11 L 59.81 23.84 C 59.87 23.91 59.93 23.99 59.97 24.08 C 60.02 24.2 60.05 24.32 60.06 24.45 C 60.06 24.45 60.06 24.45 60.06 24.46 C 60.08 24.83 59.89 25.19 59.54 25.38 C 56.12 27.25 53.27 30.03 51.31 33.43 C 49.4 36.73 48.45 40.39 48.45 44.05 C 48.44 48.02 49.55 51.99 51.76 55.48 C 51.82 55.57 51.87 55.66 51.93 55.75 C 52.77 57.04 53.76 58.24 54.86 59.32 C 56.13 60.56 57.56 61.64 59.11 62.54 C 60.56 63.37 62.07 64.03 63.64 64.5 C 64.88 64.87 66.16 65.13 67.46 65.27 C 67.46 65.27 67.46 65.27 67.46 65.27 C 67.61 65.29 67.75 65.3 67.88 65.31 C 68.4 65.35 68.8 65.78 68.8 66.31 L 68.8 67.99 C 68.8 68.43 68.51 68.82 68.08 68.95 L 68.08 68.95 C 66.96 69.28 65.97 69.92 65.21 70.81 C 65.2 70.82 65.2 70.83 65.19 70.84 C 64.71 71.41 64.34 72.06 64.1 72.76 C 64.1 72.76 64.1 72.76 64.1 72.77 C 63.9 73.37 63.79 73.99 63.79 74.63 L 63.79 74.68 C 63.79 75.08 63.83 75.49 63.91 75.88 C 63.92 75.93 63.93 75.98 63.93 76.03 C 63.93 76.03 63.93 76.03 63.93 76.03 C 63.95 76.4 63.76 76.75 63.43 76.94 L 62.11 77.7 C 61.66 77.96 61.09 77.83 60.79 77.41 C 60.74 77.33 60.68 77.26 60.62 77.18 C 57.77 73.35 53.68 70.55 49.09 69.31 C 47.59 68.9 46.03 68.66 44.47 68.59 C 44.39 68.59 44.31 68.58 44.23 68.58 C 44 68.57 43.76 68.57 43.5 68.57 C 37.16 68.57 31.46 71.35 27.55 75.76 C 24.22 79.52 22.19 84.45 22.19 89.85 C 22.19 89.91 22.19 89.97 22.19 90.03 C 22.19 90.12 22.19 90.21 22.19 90.3 C 22.19 90.31 22.19 90.32 22.19 90.33 C 22.2 90.86 21.8 91.3 21.27 91.34 C 21.24 91.34 21.21 91.34 21.18 91.34 C 21.02 91.34 20.87 91.3 20.74 91.24 C 20.65 91.2 20.57 91.14 20.5 91.07 L 40.38 110.96 C 41.4 111.11 42.44 111.19 43.48 111.19 C 43.54 111.19 43.6 111.19 43.66 111.19 C 51.54 111.13 58.69 106.76 62.36 99.77 C 62.42 99.66 62.47 99.55 62.53 99.44 C 63.22 98.06 63.77 96.61 64.14 95.11 C 64.57 93.41 64.79 91.65 64.79 89.87 L 64.79 89.83 C 64.78 86.95 64.22 84.16 63.1 81.54 C 63 81.31 62.9 81.07 62.77 80.81 C 62.71 80.68 62.67 80.53 62.67 80.38 C 62.67 80.37 62.67 80.35 62.67 80.34 C 62.68 80 62.87 79.69 63.17 79.51 L 64.39 78.8 C 64.78 78.58 65.26 78.64 65.58 78.94 C 66.69 80.01 68.16 80.6 69.7 80.6 C 71.26 80.6 72.74 80 73.86 78.91 C 74.18 78.6 74.67 78.54 75.06 78.76 L 76.66 79.69 C 76.97 79.87 77.15 80.19 77.16 80.53 L 77.16 80.54 C 77.16 80.69 77.13 80.84 77.07 80.98 C 77 81.12 76.94 81.27 76.87 81.42 C 75.71 84.1 75.12 87 75.11 89.9 C 75.11 89.99 75.11 90.09 75.11 90.18 C 75.13 91.8 75.33 93.43 75.72 95.01 C 76.1 96.55 76.65 98.04 77.37 99.46 C 77.41 99.54 77.45 99.62 77.49 99.7 C 77.49 99.71 77.5 99.71 77.5 99.71 C 77.64 99.99 77.8 100.27 77.96 100.55 C 79.16 102.63 80.67 104.45 82.43 105.98 C 84.84 108.08 87.72 109.62 90.9 110.47 C 96.4 111.94 102.14 111.19 107.07 108.34 C 107.07 108.34 107.07 108.34 107.07 108.34 C 107.15 108.29 107.23 108.25 107.31 108.2 C 107.36 108.17 107.41 108.14 107.45 108.11 C 107.9 107.83 108.49 107.96 108.79 108.39 C 108.9 108.56 108.96 108.74 108.97 108.93 C 108.98 109.18 108.9 109.43 108.73 109.62 C 108.69 109.66 108.65 109.71 108.6 109.75 C 107.4 110.71 106.11 111.59 104.77 112.36 C 100 115.11 94.71 116.47 89.46 116.47 C 84.59 116.47 79.76 115.31 75.37 113.03 C 75.35 113.02 75.34 113.01 75.32 113 C 73.43 112.01 71.62 110.82 69.93 109.42 C 64.45 113.96 57.55 116.46 50.41 116.46 C 48.77 116.46 47.15 116.33 45.56 116.08 C 45.53 116.08 45.5 116.07 45.47 116.07 C 43.63 115.77 41.82 115.3 40.06 114.67 C 36.99 113.56 34.13 111.98 31.55 109.96 C 31.44 109.87 31.33 109.79 31.22 109.7 C 31.19 109.67 31.16 109.65 31.13 109.62 L 61.55 140 L 135 140 C 137.76 140 140 137.76 140 135 L 140 79.09 L 91.49 30.57 Z M 62.24 94.35 C 62.21 94.46 62.19 94.57 62.16 94.68 C 62.16 94.69 62.16 94.69 62.16 94.7 C 61.74 96.35 61.09 97.93 60.25 99.41 C 60.07 99.73 59.73 99.91 59.38 99.91 C 59.25 99.91 59.11 99.88 58.98 99.83 C 48.93 95.5 42.42 85.67 42.35 74.74 C 42.35 74.67 42.35 74.6 42.35 74.53 C 42.35 73.52 42.41 72.51 42.52 71.52 C 42.58 71.01 43 70.63 43.51 70.63 C 45.11 70.63 46.71 70.83 48.24 71.21 C 48.42 71.25 48.61 71.31 48.83 71.37 C 49.25 71.49 49.54 71.87 49.56 72.3 C 49.56 72.35 49.56 72.4 49.55 72.45 C 49.54 72.58 49.53 72.7 49.51 72.83 C 49.47 73.33 49.45 73.84 49.44 74.34 C 49.44 74.39 49.44 74.43 49.44 74.48 L 49.44 74.56 C 49.44 82.56 54.16 89.84 61.47 93.11 L 61.51 93.13 C 61.56 93.15 61.61 93.18 61.67 93.2 C 62.03 93.35 62.26 93.7 62.27 94.09 C 62.27 94.17 62.26 94.26 62.24 94.35 Z M 63.42 55.26 C 61.53 55.88 59.73 56.78 58.07 57.95 C 57.98 58.02 57.89 58.08 57.79 58.15 C 57.4 58.43 56.87 58.4 56.51 58.07 C 56.38 57.94 56.25 57.81 56.12 57.69 C 54.97 56.54 53.97 55.24 53.14 53.82 C 53.04 53.65 53 53.46 53 53.28 C 53.01 52.99 53.15 52.7 53.4 52.51 C 58.18 48.94 63.86 47.06 69.84 47.06 C 70.41 47.06 70.99 47.08 71.55 47.11 C 76.84 47.43 81.86 49.25 86.15 52.41 C 86.4 52.6 86.55 52.88 86.55 53.18 C 86.56 53.36 86.51 53.55 86.42 53.71 C 85.55 55.22 84.48 56.6 83.24 57.82 C 83.15 57.91 83.07 57.99 82.98 58.07 C 82.79 58.25 82.54 58.34 82.3 58.34 C 82.09 58.34 81.89 58.28 81.71 58.15 L 81.69 58.13 C 81.64 58.1 81.6 58.06 81.55 58.03 C 81.55 58.03 81.54 58.03 81.54 58.02 C 78.08 55.55 74 54.24 69.74 54.24 C 67.57 54.25 65.44 54.6 63.42 55.26 Z M 97.36 74.74 C 97.32 81.16 95.04 87.21 91.13 91.99 C 88.44 95.27 84.98 97.96 80.94 99.74 C 80.81 99.8 80.67 99.82 80.54 99.82 C 80.19 99.82 79.85 99.63 79.67 99.31 C 78.86 97.87 78.24 96.33 77.83 94.74 C 77.78 94.55 77.73 94.34 77.68 94.13 C 77.66 94.05 77.65 93.97 77.66 93.89 C 77.66 93.89 77.66 93.89 77.66 93.89 C 77.67 93.51 77.89 93.17 78.24 93 C 78.35 92.95 78.46 92.9 78.57 92.84 C 81.51 91.42 84.02 89.32 85.93 86.78 C 88.55 83.31 90.05 79.02 90.05 74.55 L 90.05 74.47 C 90.05 74.42 90.05 74.37 90.05 74.33 C 90.04 73.82 90.02 73.31 89.98 72.81 C 89.97 72.73 89.97 72.66 89.96 72.6 C 89.96 72.56 89.95 72.52 89.96 72.47 C 89.96 72.47 89.96 72.47 89.96 72.47 C 89.97 72.05 90.25 71.67 90.66 71.54 C 90.78 71.5 90.91 71.46 91.03 71.43 C 92.7 70.94 94.44 70.67 96.19 70.65 L 96.2 70.65 C 96.71 70.65 97.14 71.03 97.19 71.54 C 97.3 72.52 97.35 73.52 97.35 74.53 C 97.36 74.61 97.36 74.68 97.36 74.74 Z M 87.06 31.62 C 85.32 29.2 83.07 27.17 80.42 25.63 C 80.29 25.55 80.16 25.48 80.02 25.41 C 79.94 25.36 79.86 25.31 79.8 25.25 L 88.53 33.98 C 88.09 33.15 87.6 32.37 87.06 31.62 Z" fill="var(--icon-primary, #dae8fc)" stroke="none" stroke-width="0" opacity="0.25"/></svg>