<svg xmlns="http://www.w3.org/2000/svg" viewBox="0 0 140 140" width="140" height="140"><path d="M 36.22 57.21 L 34.63 57.21 C 33.92 57.81 33.01 58.15 32.07 58.15 C 31.44 58.15 30.84 58 30.31 57.74 C 29.97 57.57 29.65 57.35 29.37 57.09 L 36.21 63.93 L 36.21 57.21 Z" fill="var(--icon-primary, #dae8fc)" stroke="none" stroke-width="0" opacity="0.25"/><path d="M 140 57.18 L 140 135 C 140 137.76 137.76 140 135 140 L 52.64 140 L 29.05 116.41 C 29.68 117.01 30.53 117.38 31.46 117.38 L 36.73 117.38 L 36.73 119.02 C 36.73 119.57 37.18 120.02 37.73 120.02 L 50.26 120.02 C 50.81 120.02 51.26 119.57 51.26 119.02 L 51.26 117.38 L 88.73 117.38 L 88.73 119.02 C 88.73 119.57 89.18 120.02 89.73 120.02 L 102.26 120.02 C 102.81 120.02 103.26 119.57 103.26 119.02 L 103.26 117.38 L 108.53 117.38 C 110.46 117.38 112.03 115.81 112.03 113.88 L 112.03 99.34 C 112.03 97.41 110.46 95.84 108.53 95.84 L 44.85 95.84 L 36.52 87.51 C 36.7 87.69 36.95 87.8 37.23 87.8 L 102.73 87.8 C 103.28 87.8 103.73 87.35 103.73 86.8 L 103.73 57.2 L 105.46 57.2 C 106.17 57.8 107.08 58.14 108.02 58.14 C 110.19 58.14 111.97 56.37 111.97 54.2 C 111.97 52.02 110.2 50.25 108.02 50.25 C 107.08 50.25 106.17 50.59 105.46 51.2 L 103.73 51.2 L 103.73 21.3 C 103.73 21.06 103.64 20.84 103.5 20.66 L 140 57.18 Z" fill="var(--icon-primary, #dae8fc)" stroke="none" stroke-width="0" opacity="0.25"/></svg>