<svg xmlns="http://www.w3.org/2000/svg" viewBox="0 0 140 140" width="140" height="140"><path d="M 21.46 57.08 L 20.52 56.58 C 20.44 56.54 20.37 56.49 20.31 56.43 L 30.37 66.49 L 28.77 61.03 L 21.46 57.08 Z M 140 63.98 L 140 135 C 140 137.76 137.76 140 135 140 L 94.84 140 L 34.35 79.51 C 34.6 79.75 34.96 79.84 35.32 79.74 L 38.73 78.74 L 38.76 78.86 C 39.14 80.14 39.99 81.2 41.16 81.84 C 41.9 82.25 42.72 82.45 43.55 82.45 C 44.02 82.45 44.5 82.38 44.97 82.24 L 71.37 74.48 L 78.28 86.45 C 77.97 87.24 77.81 88.08 77.81 88.94 C 77.81 92.71 80.88 95.77 84.64 95.77 C 86.73 95.77 88.69 94.82 89.98 93.2 L 111.03 93.2 L 111.03 100.83 C 111.03 101.93 111.93 102.83 113.03 102.83 L 120 102.83 L 120 75.05 L 113.03 75.05 C 111.93 75.05 111.03 75.95 111.03 77.05 L 111.03 84.68 L 89.98 84.68 C 88.9 83.33 87.37 82.45 85.67 82.19 L 79.79 72 L 112.28 62.45 C 114.92 61.67 116.44 58.89 115.67 56.24 L 109.12 33.96 C 108.88 33.14 108.45 32.44 107.89 31.87 L 140 63.98 Z" fill="var(--icon-primary, #dae8fc)" stroke="none" stroke-width="0" opacity="0.25"/></svg>