<svg xmlns="http://www.w3.org/2000/svg" viewBox="0 0 100.04 72.79" width="100.04" height="72.79"><path d="M 91.1 17.61 L 52.35 29 L 49.35 29.88 L 24.52 37.18 L 15.77 32.46 L 15.73 32.44 C 15.73 32.44 15.73 32.44 15.72 32.44 L 15.06 32.09 L 3.65 25.92 L 24.32 19.84 L 83.51 2.44 C 85.1 1.97 86.77 2.89 87.23 4.47 L 91.1 17.61 Z M 91.75 30.48 L 58.8 40.17 L 56.83 40.75 L 52.36 42.07 L 50.39 42.65 L 24.46 50.27 C 23.69 50.5 22.88 50.41 22.18 50.03 C 21.48 49.65 20.97 49.01 20.74 48.24 L 16.94 35.36 L 23.94 39.14 C 24.17 39.26 24.44 39.29 24.7 39.22 L 44.97 33.26 L 50.16 31.73 L 51.42 31.36 L 53.39 30.78 L 91.67 19.53 L 93.79 26.76 C 94.25 28.35 93.34 30.02 91.75 30.48 Z M 89.34 26.06 C 89.18 25.53 88.63 25.23 88.1 25.38 L 55.75 34.89 L 53.78 35.47 L 50.91 36.32 C 50.38 36.48 50.08 37.03 50.23 37.56 C 50.36 38 50.76 38.28 51.19 38.28 C 51.28 38.28 51.38 38.27 51.47 38.24 L 54.81 37.26 L 56.78 36.68 L 88.66 27.31 C 89.2 27.15 89.5 26.59 89.34 26.06 Z" fill="var(--icon-primary, #dae8fc)" stroke="none" stroke-width="0"/><path d="M 88.67 27.3 L 56.79 36.67 L 54.82 37.25 L 51.48 38.23 C 51.39 38.26 51.29 38.27 51.2 38.27 C 50.77 38.27 50.37 37.99 50.24 37.55 C 50.08 37.02 50.39 36.46 50.92 36.31 L 53.79 35.47 L 55.76 34.89 L 88.11 25.38 C 88.64 25.22 89.2 25.53 89.35 26.06 C 89.5 26.59 89.2 27.15 88.67 27.3 Z M 100.04 45 L 100.04 72.79 L 93.07 72.79 C 91.97 72.79 91.07 71.89 91.07 70.79 L 91.07 63.16 L 70.02 63.16 C 68.73 64.78 66.77 65.73 64.68 65.73 C 60.91 65.73 57.85 62.66 57.85 58.9 C 57.85 58.04 58.01 57.2 58.32 56.41 L 51.41 44.44 L 25.01 52.2 C 24.54 52.34 24.07 52.41 23.59 52.41 C 22.76 52.41 21.95 52.2 21.2 51.8 C 20.03 51.16 19.17 50.1 18.8 48.82 L 18.77 48.7 L 15.36 49.7 C 15.01 49.8 14.64 49.7 14.39 49.47 L 14.35 49.43 C 14.24 49.32 14.16 49.18 14.11 49.02 L 10.41 36.44 L 8.81 30.98 L 1.5 27.03 L 0.56 26.53 C 0.48 26.49 0.41 26.44 0.35 26.38 L 0.32 26.36 C 0.11 26.15 0 25.86 0.03 25.55 C 0.07 25.15 0.35 24.81 0.74 24.7 L 5.11 23.41 L 22.69 18.24 L 82.95 0.52 C 84.74 0 86.59 0.52 87.84 1.73 L 87.93 1.82 C 88.49 2.39 88.92 3.1 89.16 3.91 L 95.71 26.19 C 96.49 28.84 94.97 31.62 92.32 32.4 L 59.83 41.95 L 65.71 52.13 C 67.42 52.39 68.94 53.27 70.02 54.62 L 91.07 54.62 L 91.07 46.99 C 91.07 45.89 91.97 44.99 93.07 44.99 L 100.04 44.99 Z M 15.07 32.08 L 15.73 32.43 C 15.73 32.43 15.73 32.43 15.74 32.43 L 15.78 32.45 L 24.53 37.17 L 49.36 29.87 L 52.36 28.99 L 91.1 17.6 L 87.24 4.47 C 86.77 2.88 85.1 1.97 83.52 2.44 L 24.33 19.84 L 3.65 25.92 L 15.07 32.08 Z M 58.8 40.17 L 91.75 30.48 C 93.34 30.01 94.25 28.34 93.78 26.76 L 91.66 19.53 L 53.38 30.78 L 51.41 31.36 L 50.15 31.73 L 44.96 33.26 L 24.69 39.22 C 24.44 39.29 24.17 39.27 23.93 39.14 L 16.93 35.36 L 20.72 48.24 C 20.95 49.01 21.46 49.64 22.16 50.03 C 22.86 50.41 23.67 50.5 24.44 50.27 L 50.37 42.65 L 52.34 42.07 L 56.81 40.75 L 58.8 40.17 Z" fill="var(--icon-secondary, #6c8ebf)" stroke="none" stroke-width="0"/></svg>