<svg xmlns="http://www.w3.org/2000/svg" viewBox="0 0 100.04 72.22" width="100.04" height="72.22"><path d="M 22.45 71.21 C 10.6 71.21 1 61.61 1 49.77 C 1 40.11 7.39 31.94 16.17 29.26 C 16.56 13.59 29.38 1 45.13 1 C 58.11 1 69.1 9.54 72.78 21.31 C 73.2 21.29 73.63 21.28 74.06 21.28 C 87.85 21.28 99.03 32.46 99.03 46.25 C 99.03 60.04 87.85 71.22 74.06 71.22 L 22.45 71.22 Z" fill="var(--icon-primary, #dae8fc)" stroke="none" stroke-width="0"/><path d="M 92.5 27.96 C 92.47 27.93 92.45 27.91 92.42 27.88 C 92.38 27.84 92.35 27.8 92.31 27.77 L 92.2 27.66 C 87.4 22.97 81.1 20.36 74.39 20.28 C 74.3 20.28 74.2 20.28 74.1 20.28 C 73.98 20.28 73.86 20.28 73.74 20.28 C 73.66 20.28 73.58 20.28 73.5 20.28 C 72.57 17.54 71.24 14.96 69.55 12.59 C 67.74 10.05 65.55 7.81 63.04 5.94 C 59.16 3.04 54.72 1.16 50.02 0.39 C 48.42 0.13 46.79 0 45.13 0 C 37.25 0 29.82 3.03 24.18 8.54 C 18.73 13.87 15.55 20.94 15.19 28.52 C 10.96 29.97 7.18 32.71 4.48 36.29 C 1.55 40.2 0 44.86 0 49.77 C 0 49.99 0 50.2 0.01 50.42 C 0.17 56.17 2.49 61.56 6.58 65.65 C 10.82 69.89 16.46 72.22 22.45 72.22 L 74.1 72.22 C 74.2 72.22 74.29 72.22 74.39 72.22 C 81.2 72.14 87.6 69.44 92.43 64.62 C 97.33 59.71 100.04 53.19 100.04 46.26 C 100.03 39.35 97.35 32.86 92.5 27.96 Z M 74.37 70.21 C 74.28 70.21 74.19 70.21 74.1 70.21 L 22.45 70.21 C 11.17 70.21 2 61.04 2 49.77 C 2 49.3 2.02 48.84 2.05 48.38 C 2.61 39.92 8.26 32.72 16.47 30.22 L 17.16 30 L 17.18 29.28 C 17.54 14.24 30.08 2 45.13 2 C 46.18 2 47.22 2.06 48.25 2.17 C 58.8 3.33 67.78 10.33 71.43 20.41 C 65.44 21.02 59.9 23.66 55.62 28.01 C 55.62 28.01 55.62 28.01 55.62 28.01 C 55.44 28.19 55.33 28.44 55.33 28.71 C 55.33 29.26 55.78 29.71 56.33 29.71 C 56.61 29.71 56.86 29.6 57.04 29.41 C 61.43 24.96 67.23 22.44 73.46 22.28 C 73.49 22.28 73.52 22.28 73.55 22.28 C 73.64 22.28 73.72 22.28 73.81 22.28 C 73.91 22.28 74.01 22.28 74.11 22.28 C 74.2 22.28 74.29 22.28 74.38 22.28 C 87.47 22.43 98.08 33.12 98.08 46.24 C 98.07 59.37 87.46 70.07 74.37 70.21 Z" fill="var(--icon-secondary, #6c8ebf)" stroke="none" stroke-width="0"/></svg>