<svg xmlns="http://www.w3.org/2000/svg" viewBox="0 0 87.6 100.29" width="87.6" height="100.29"><path d="M 32.91 18.8 L 32.91 89.86 L 12.78 89.86 L 12.78 22.8 L 21.64 21.04 L 24.46 20.48 L 32.91 18.8 Z M 66.16 19.5 L 63.36 20.06 L 53.69 21.98 L 53.69 90.86 L 75.82 90.86 L 75.82 17.58 L 66.16 19.5 Z" fill="var(--icon-primary, #dae8fc)" stroke="none" stroke-width="0"/><path d="M 30.84 87.51 L 14.84 87.51 C 14.29 87.51 13.84 87.06 13.84 86.51 C 13.84 85.96 14.29 85.51 14.84 85.51 L 30.84 85.51 C 31.39 85.51 31.84 85.96 31.84 86.51 C 31.84 87.06 31.4 87.51 30.84 87.51 Z M 31.84 82.91 C 31.84 82.36 31.39 81.91 30.84 81.91 L 14.84 81.91 C 14.29 81.91 13.84 82.36 13.84 82.91 C 13.84 83.46 14.29 83.91 14.84 83.91 L 30.84 83.91 C 31.4 83.91 31.84 83.46 31.84 82.91 Z M 31.84 79.31 C 31.84 78.76 31.39 78.31 30.84 78.31 L 14.84 78.31 C 14.29 78.31 13.84 78.76 13.84 79.31 C 13.84 79.86 14.29 80.31 14.84 80.31 L 30.84 80.31 C 31.4 80.31 31.84 79.86 31.84 79.31 Z M 31.84 75.71 C 31.84 75.16 31.39 74.71 30.84 74.71 L 14.84 74.71 C 14.29 74.71 13.84 75.16 13.84 75.71 C 13.84 76.26 14.29 76.71 14.84 76.71 L 30.84 76.71 C 31.4 76.71 31.84 76.26 31.84 75.71 Z M 31.84 72.11 C 31.84 71.56 31.39 71.11 30.84 71.11 L 14.84 71.11 C 14.29 71.11 13.84 71.56 13.84 72.11 C 13.84 72.66 14.29 73.11 14.84 73.11 L 30.84 73.11 C 31.4 73.11 31.84 72.66 31.84 72.11 Z M 31.84 68.51 C 31.84 67.96 31.39 67.51 30.84 67.51 L 14.84 67.51 C 14.29 67.51 13.84 67.96 13.84 68.51 C 13.84 69.06 14.29 69.51 14.84 69.51 L 30.84 69.51 C 31.4 69.51 31.84 69.06 31.84 68.51 Z M 31.84 64.91 C 31.84 64.36 31.39 63.91 30.84 63.91 L 14.84 63.91 C 14.29 63.91 13.84 64.36 13.84 64.91 C 13.84 65.46 14.29 65.91 14.84 65.91 L 30.84 65.91 C 31.4 65.91 31.84 65.46 31.84 64.91 Z M 31.84 61.31 C 31.84 60.76 31.39 60.31 30.84 60.31 L 14.84 60.31 C 14.29 60.31 13.84 60.76 13.84 61.31 C 13.84 61.86 14.29 62.31 14.84 62.31 L 30.84 62.31 C 31.4 62.31 31.84 61.86 31.84 61.31 Z M 31.84 57.71 C 31.84 57.16 31.39 56.71 30.84 56.71 L 14.84 56.71 C 14.29 56.71 13.84 57.16 13.84 57.71 C 13.84 58.26 14.29 58.71 14.84 58.71 L 30.84 58.71 C 31.4 58.71 31.84 58.26 31.84 57.71 Z M 31.84 54.11 C 31.84 53.56 31.39 53.11 30.84 53.11 L 14.84 53.11 C 14.29 53.11 13.84 53.56 13.84 54.11 C 13.84 54.66 14.29 55.11 14.84 55.11 L 30.84 55.11 C 31.4 55.11 31.84 54.66 31.84 54.11 Z M 31.84 50.51 C 31.84 49.96 31.39 49.51 30.84 49.51 L 14.84 49.51 C 14.29 49.51 13.84 49.96 13.84 50.51 C 13.84 51.06 14.29 51.51 14.84 51.51 L 30.84 51.51 C 31.4 51.51 31.84 51.06 31.84 50.51 Z M 31.84 46.91 C 31.84 46.36 31.39 45.91 30.84 45.91 L 14.84 45.91 C 14.29 45.91 13.84 46.36 13.84 46.91 C 13.84 47.46 14.29 47.91 14.84 47.91 L 30.84 47.91 C 31.4 47.91 31.84 47.46 31.84 46.91 Z M 31.84 43.31 C 31.84 42.76 31.39 42.31 30.84 42.31 L 14.84 42.31 C 14.29 42.31 13.84 42.76 13.84 43.31 C 13.84 43.86 14.29 44.31 14.84 44.31 L 30.84 44.31 C 31.4 44.31 31.84 43.86 31.84 43.31 Z M 31.84 39.71 C 31.84 39.16 31.39 38.71 30.84 38.71 L 14.84 38.71 C 14.29 38.71 13.84 39.16 13.84 39.71 C 13.84 40.26 14.29 40.71 14.84 40.71 L 30.84 40.71 C 31.4 40.71 31.84 40.26 31.84 39.71 Z M 31.84 36.11 C 31.84 35.56 31.39 35.11 30.84 35.11 L 14.84 35.11 C 14.29 35.11 13.84 35.56 13.84 36.11 C 13.84 36.66 14.29 37.11 14.84 37.11 L 30.84 37.11 C 31.4 37.11 31.84 36.66 31.84 36.11 Z M 31.84 32.51 C 31.84 31.96 31.39 31.51 30.84 31.51 L 14.84 31.51 C 14.29 31.51 13.84 31.96 13.84 32.51 C 13.84 33.06 14.29 33.51 14.84 33.51 L 30.84 33.51 C 31.4 33.51 31.84 33.06 31.84 32.51 Z M 31.84 28.91 C 31.84 28.36 31.39 27.91 30.84 27.91 L 14.84 27.91 C 14.29 27.91 13.84 28.36 13.84 28.91 C 13.84 29.46 14.29 29.91 14.84 29.91 L 30.84 29.91 C 31.4 29.91 31.84 29.46 31.84 28.91 Z M 31.84 25.31 C 31.84 24.76 31.39 24.31 30.84 24.31 L 14.84 24.31 C 14.29 24.31 13.84 24.76 13.84 25.31 C 13.84 25.86 14.29 26.31 14.84 26.31 L 30.84 26.31 C 31.4 26.31 31.84 25.86 31.84 25.31 Z M 86.6 94.09 L 84.06 94.09 L 84.06 90.85 C 84.06 90.3 83.61 89.85 83.06 89.85 L 76.83 89.85 L 76.83 17.58 C 76.83 17.32 76.73 17.07 76.55 16.89 L 76.51 16.85 C 76.5 16.84 76.48 16.83 76.47 16.81 C 76.24 16.62 75.93 16.54 75.64 16.6 L 67.17 18.28 L 67.17 10.98 C 67.17 10.43 66.72 9.98 66.17 9.98 L 65.77 9.98 L 65.77 1 C 65.77 0.45 65.32 0 64.77 0 C 64.22 0 63.77 0.45 63.77 1 L 63.77 9.98 L 63.37 9.98 C 62.82 9.98 62.37 10.43 62.37 10.98 L 62.37 19.24 L 53.5 21 C 53.03 21.09 52.7 21.5 52.7 21.98 L 52.7 89.86 L 46.47 89.86 C 45.92 89.86 45.47 90.31 45.47 90.86 L 45.47 94.1 L 42.16 94.1 L 42.16 90.86 C 42.16 90.31 41.71 89.86 41.16 89.86 L 34.93 89.86 L 34.93 17.58 C 34.93 17.32 34.83 17.07 34.65 16.88 L 34.61 16.84 C 34.6 16.83 34.58 16.82 34.57 16.8 C 34.34 16.61 34.04 16.53 33.74 16.59 L 31.68 17 L 25.24 18.28 L 25.24 10.98 C 25.24 10.7 25.13 10.45 24.95 10.27 C 24.77 10.09 24.52 9.98 24.24 9.98 L 23.84 9.98 L 23.84 1 C 23.84 0.45 23.39 0 22.84 0 C 22.29 0 21.84 0.45 21.84 1 L 21.84 9.98 L 21.44 9.98 C 20.89 9.98 20.44 10.43 20.44 10.98 L 20.44 19.24 L 18.06 19.71 L 11.58 21 C 11.11 21.09 10.78 21.5 10.78 21.98 L 10.78 89.86 L 4.54 89.86 C 3.99 89.86 3.54 90.31 3.54 90.86 L 3.54 94.1 L 1 94.1 C 0.45 94.1 0 94.55 0 95.1 L 0 99.29 C 0 99.57 0.11 99.82 0.29 100 C 0.47 100.18 0.72 100.29 1 100.29 L 86.6 100.29 C 87.15 100.29 87.6 99.84 87.6 99.29 L 87.6 95.1 C 87.6 94.54 87.15 94.09 86.6 94.09 Z M 54.69 22.8 L 63.55 21.04 L 66.36 20.48 L 74.82 18.8 L 74.82 89.86 L 54.69 89.86 L 54.69 22.8 Z M 12.78 22.8 L 19.48 21.47 L 19.77 21.41 L 20.5 21.26 L 21.64 21.03 L 24.46 20.47 L 30.96 19.18 L 32.91 18.79 L 32.91 89.85 L 12.78 89.85 L 12.78 22.8 Z M 72.76 87.51 L 56.76 87.51 C 56.21 87.51 55.76 87.06 55.76 86.51 C 55.76 85.96 56.21 85.51 56.76 85.51 L 72.76 85.51 C 73.31 85.51 73.76 85.96 73.76 86.51 C 73.76 87.06 73.31 87.51 72.76 87.51 Z M 73.76 82.91 C 73.76 82.36 73.31 81.91 72.76 81.91 L 56.76 81.91 C 56.21 81.91 55.76 82.36 55.76 82.91 C 55.76 83.46 56.21 83.91 56.76 83.91 L 72.76 83.91 C 73.31 83.91 73.76 83.46 73.76 82.91 Z M 73.76 79.31 C 73.76 78.76 73.31 78.31 72.76 78.31 L 56.76 78.31 C 56.21 78.31 55.76 78.76 55.76 79.31 C 55.76 79.86 56.21 80.31 56.76 80.31 L 72.76 80.31 C 73.31 80.31 73.76 79.86 73.76 79.31 Z M 73.76 75.71 C 73.76 75.16 73.31 74.71 72.76 74.71 L 56.76 74.71 C 56.21 74.71 55.76 75.16 55.76 75.71 C 55.76 76.26 56.21 76.71 56.76 76.71 L 72.76 76.71 C 73.31 76.71 73.76 76.26 73.76 75.71 Z M 73.76 72.11 C 73.76 71.56 73.31 71.11 72.76 71.11 L 56.76 71.11 C 56.21 71.11 55.76 71.56 55.76 72.11 C 55.76 72.66 56.21 73.11 56.76 73.11 L 72.76 73.11 C 73.31 73.11 73.76 72.66 73.76 72.11 Z M 73.76 68.51 C 73.76 67.96 73.31 67.51 72.76 67.51 L 56.76 67.51 C 56.21 67.51 55.76 67.96 55.76 68.51 C 55.76 69.06 56.21 69.51 56.76 69.51 L 72.76 69.51 C 73.31 69.51 73.76 69.06 73.76 68.51 Z M 73.76 64.91 C 73.76 64.36 73.31 63.91 72.76 63.91 L 56.76 63.91 C 56.21 63.91 55.76 64.36 55.76 64.91 C 55.76 65.46 56.21 65.91 56.76 65.91 L 72.76 65.91 C 73.31 65.91 73.76 65.46 73.76 64.91 Z M 73.76 61.31 C 73.76 60.76 73.31 60.31 72.76 60.31 L 56.76 60.31 C 56.21 60.31 55.76 60.76 55.76 61.31 C 55.76 61.86 56.21 62.31 56.76 62.31 L 72.76 62.31 C 73.31 62.31 73.76 61.86 73.76 61.31 Z M 73.76 57.71 C 73.76 57.16 73.31 56.71 72.76 56.71 L 56.76 56.71 C 56.21 56.71 55.76 57.16 55.76 57.71 C 55.76 58.26 56.21 58.71 56.76 58.71 L 72.76 58.71 C 73.31 58.71 73.76 58.26 73.76 57.71 Z M 73.76 54.11 C 73.76 53.56 73.31 53.11 72.76 53.11 L 56.76 53.11 C 56.21 53.11 55.76 53.56 55.76 54.11 C 55.76 54.66 56.21 55.11 56.76 55.11 L 72.76 55.11 C 73.31 55.11 73.76 54.66 73.76 54.11 Z M 73.76 50.51 C 73.76 49.96 73.31 49.51 72.76 49.51 L 56.76 49.51 C 56.21 49.51 55.76 49.96 55.76 50.51 C 55.76 51.06 56.21 51.51 56.76 51.51 L 72.76 51.51 C 73.31 51.51 73.76 51.06 73.76 50.51 Z M 73.76 46.91 C 73.76 46.36 73.31 45.91 72.76 45.91 L 56.76 45.91 C 56.21 45.91 55.76 46.36 55.76 46.91 C 55.76 47.46 56.21 47.91 56.76 47.91 L 72.76 47.91 C 73.31 47.91 73.76 47.46 73.76 46.91 Z M 73.76 43.31 C 73.76 42.76 73.31 42.31 72.76 42.31 L 56.76 42.31 C 56.21 42.31 55.76 42.76 55.76 43.31 C 55.76 43.86 56.21 44.31 56.76 44.31 L 72.76 44.31 C 73.31 44.31 73.76 43.86 73.76 43.31 Z M 73.76 39.71 C 73.76 39.16 73.31 38.71 72.76 38.71 L 56.76 38.71 C 56.21 38.71 55.76 39.16 55.76 39.71 C 55.76 40.26 56.21 40.71 56.76 40.71 L 72.76 40.71 C 73.31 40.71 73.76 40.26 73.76 39.71 Z M 73.76 36.11 C 73.76 35.56 73.31 35.11 72.76 35.11 L 56.76 35.11 C 56.21 35.11 55.76 35.56 55.76 36.11 C 55.76 36.66 56.21 37.11 56.76 37.11 L 72.76 37.11 C 73.31 37.11 73.76 36.66 73.76 36.11 Z M 73.76 32.51 C 73.76 31.96 73.31 31.51 72.76 31.51 L 56.76 31.51 C 56.21 31.51 55.76 31.96 55.76 32.51 C 55.76 33.06 56.21 33.51 56.76 33.51 L 72.76 33.51 C 73.31 33.51 73.76 33.06 73.76 32.51 Z M 73.76 28.91 C 73.76 28.36 73.31 27.91 72.76 27.91 L 56.76 27.91 C 56.21 27.91 55.76 28.36 55.76 28.91 C 55.76 29.46 56.21 29.91 56.76 29.91 L 72.76 29.91 C 73.31 29.91 73.76 29.46 73.76 28.91 Z M 73.76 25.31 C 73.76 24.76 73.31 24.31 72.76 24.31 L 56.76 24.31 C 56.21 24.31 55.76 24.76 55.76 25.31 C 55.76 25.86 56.21 26.31 56.76 26.31 L 72.76 26.31 C 73.31 26.31 73.76 25.86 73.76 25.31 Z" fill="var(--icon-secondary, #6c8ebf)" stroke="none" stroke-width="0"/></svg>