<svg xmlns="http://www.w3.org/2000/svg" viewBox="0 0 140 140" width="140" height="140"><path d="M 57.53 36.95 L 50.8 30.22 C 50.98 30.4 51.09 30.65 51.09 30.93 L 51.09 38.23 L 57.53 36.95 Z M 102.39 36.84 C 102.57 37.02 102.67 37.27 102.67 37.53 L 102.67 109.81 L 108.9 109.81 C 109.45 109.81 109.9 110.26 109.9 110.81 L 109.9 114.05 L 112.44 114.05 C 112.99 114.05 113.44 114.5 113.44 115.05 L 113.44 119.24 C 113.44 119.79 112.99 120.24 112.44 120.24 L 26.84 120.24 C 26.56 120.24 26.31 120.13 26.13 119.95 L 26.13 119.95 L 46.2 140 L 135 140 C 137.76 140 140 137.76 140 135 L 140 74.44 L 102.39 36.84 Z M 99.44 36.95 L 92.71 30.22 C 92.89 30.4 93 30.65 93 30.93 L 93 38.23 L 99.44 36.95 Z M 60.47 36.83 C 60.65 37.02 60.75 37.27 60.75 37.53 L 60.75 109.81 L 66.98 109.81 C 67.53 109.81 67.98 110.26 67.98 110.81 L 67.98 114.05 L 71.29 114.05 L 71.29 110.81 C 71.29 110.26 71.74 109.81 72.29 109.81 L 78.52 109.81 L 78.52 54.9 L 60.47 36.83 Z" fill="var(--icon-primary, #dae8fc)" stroke="none" stroke-width="0" opacity="0.25"/></svg>