<svg xmlns="http://www.w3.org/2000/svg" viewBox="0 0 140 140" width="140" height="140"><path d="M 140 73.93 L 140 135 C 140 137.76 137.76 140 135 140 L 53.76 140 L 31.03 117.26 C 31.39 117.62 31.89 117.85 32.44 117.85 L 33.73 117.85 L 33.73 118.87 C 33.73 119.42 34.18 119.87 34.73 119.87 L 91.32 119.87 C 91.87 119.87 92.32 119.42 92.32 118.87 L 92.32 117.85 L 92.75 117.85 C 93.85 117.85 94.75 116.95 94.75 115.85 L 94.75 72.31 L 118.26 63.75 C 118.78 63.56 119.05 62.99 118.86 62.47 L 117.81 59.58 C 117.72 59.33 117.53 59.13 117.29 59.01 C 117.05 58.9 116.77 58.89 116.53 58.98 L 94.75 66.9 L 94.75 37.33 C 94.75 36.23 93.85 35.33 92.75 35.33 L 58.62 35.33 L 87.17 24.94 C 87.69 24.75 87.96 24.18 87.77 23.66 L 86.72 20.77 C 86.67 20.63 86.59 20.5 86.48 20.4 L 140 73.93 Z" fill="var(--icon-primary, #dae8fc)" stroke="none" stroke-width="0" opacity="0.25"/></svg>