<svg xmlns="http://www.w3.org/2000/svg" viewBox="0 0 88.61 99.79" width="88.61" height="99.79"><path d="M 62.31 16.25 L 2 16.25 C 1.45 16.25 1 16.7 1 17.25 L 1 95.77 C 1 96.32 1.45 96.77 2 96.77 L 62.31 96.77 C 62.86 96.77 63.31 96.32 63.31 95.77 L 63.31 17.25 C 63.31 16.7 62.86 16.25 62.31 16.25 Z" fill="var(--icon-primary, #dae8fc)" stroke="none" stroke-width="0"/><path d="M 57.94 20.07 L 49.47 20.07 C 48.92 20.07 48.47 20.52 48.47 21.07 L 48.47 33.68 C 48.47 34.23 48.92 34.68 49.47 34.68 L 57.94 34.68 C 58.49 34.68 58.94 34.23 58.94 33.68 L 58.94 21.07 C 58.94 20.51 58.49 20.07 57.94 20.07 Z M 37.8 20.17 C 36.7 20.17 35.8 21.07 35.8 22.17 C 35.8 23.27 36.7 24.17 37.8 24.17 C 38.9 24.17 39.8 23.27 39.8 22.17 C 39.8 21.06 38.9 20.17 37.8 20.17 Z M 43.43 20.17 C 42.33 20.17 41.43 21.07 41.43 22.17 C 41.43 23.27 42.33 24.17 43.43 24.17 C 44.53 24.17 45.43 23.27 45.43 22.17 C 45.43 21.06 44.54 20.17 43.43 20.17 Z M 57.94 20.07 L 49.47 20.07 C 48.92 20.07 48.47 20.52 48.47 21.07 L 48.47 33.68 C 48.47 34.23 48.92 34.68 49.47 34.68 L 57.94 34.68 C 58.49 34.68 58.94 34.23 58.94 33.68 L 58.94 21.07 C 58.94 20.51 58.49 20.07 57.94 20.07 Z M 43.43 20.17 C 42.33 20.17 41.43 21.07 41.43 22.17 C 41.43 23.27 42.33 24.17 43.43 24.17 C 44.53 24.17 45.43 23.27 45.43 22.17 C 45.43 21.06 44.54 20.17 43.43 20.17 Z M 37.8 20.17 C 36.7 20.17 35.8 21.07 35.8 22.17 C 35.8 23.27 36.7 24.17 37.8 24.17 C 38.9 24.17 39.8 23.27 39.8 22.17 C 39.8 21.06 38.9 20.17 37.8 20.17 Z M 88.42 42.39 L 87.37 39.5 C 87.28 39.25 87.09 39.05 86.85 38.93 C 86.61 38.82 86.33 38.81 86.09 38.9 L 64.31 46.83 L 64.31 17.25 C 64.31 16.15 63.41 15.25 62.31 15.25 L 28.17 15.25 L 56.72 4.86 C 57.24 4.67 57.51 4.1 57.32 3.58 L 56.27 0.69 C 56.22 0.55 56.14 0.42 56.03 0.32 C 55.95 0.24 55.86 0.17 55.75 0.12 C 55.51 0.01 55.23 0 54.98 0.09 L 13.32 15.25 L 2 15.25 C 0.9 15.25 0 16.15 0 17.25 L 0 95.77 C 0 96.32 0.22 96.82 0.59 97.18 C 0.95 97.54 1.45 97.77 2 97.77 L 3.29 97.77 L 3.29 98.79 C 3.29 99.34 3.74 99.79 4.29 99.79 L 60.88 99.79 C 61.43 99.79 61.88 99.34 61.88 98.79 L 61.88 97.77 L 62.31 97.77 C 63.41 97.77 64.31 96.87 64.31 95.77 L 64.31 52.23 L 87.82 43.67 C 88.34 43.48 88.61 42.9 88.42 42.39 Z M 62.31 95.77 L 2 95.77 L 2 73.96 L 14.3 73.96 L 14.3 76.48 C 14.3 77.03 14.75 77.48 15.3 77.48 L 49.02 77.48 C 49.57 77.48 50.02 77.03 50.02 76.48 L 50.02 73.96 L 62.31 73.96 L 62.31 95.77 Z M 62.31 71.96 L 2 71.96 L 2 56.83 L 14.3 56.83 L 14.3 59.35 C 14.3 59.9 14.75 60.35 15.3 60.35 L 49.02 60.35 C 49.57 60.35 50.02 59.9 50.02 59.35 L 50.02 56.83 L 62.31 56.83 L 62.31 71.96 Z M 62.31 54.83 L 2 54.83 L 2 39.71 L 14.3 39.71 L 14.3 42.23 C 14.3 42.78 14.75 43.23 15.3 43.23 L 49.02 43.23 C 49.57 43.23 50.02 42.78 50.02 42.23 L 50.02 39.71 L 62.31 39.71 L 62.31 54.83 Z M 62.31 37.71 L 2 37.71 L 2 17.25 L 62.31 17.25 L 62.31 37.71 Z M 49.47 34.68 L 57.94 34.68 C 58.49 34.68 58.94 34.23 58.94 33.68 L 58.94 21.07 C 58.94 20.52 58.49 20.07 57.94 20.07 L 49.47 20.07 C 48.92 20.07 48.47 20.52 48.47 21.07 L 48.47 33.68 C 48.47 34.23 48.92 34.68 49.47 34.68 Z M 43.43 24.17 C 44.53 24.17 45.43 23.27 45.43 22.17 C 45.43 21.07 44.53 20.17 43.43 20.17 C 42.33 20.17 41.43 21.07 41.43 22.17 C 41.43 23.27 42.33 24.17 43.43 24.17 Z M 37.8 24.17 C 38.9 24.17 39.8 23.27 39.8 22.17 C 39.8 21.07 38.9 20.17 37.8 20.17 C 36.7 20.17 35.8 21.07 35.8 22.17 C 35.8 23.27 36.7 24.17 37.8 24.17 Z" fill="var(--icon-secondary, #6c8ebf)" stroke="none" stroke-width="0"/></svg>