<svg xmlns="http://www.w3.org/2000/svg" viewBox="0 0 140 140" width="140" height="140"><path d="M 140 58.63 L 140 135 C 140 137.76 137.76 140 135 140 L 58.63 140 L 30.5 111.86 C 32.9 114.15 37.35 115.75 41.28 116.79 C 48.97 118.82 59.17 119.94 70 119.94 C 80.84 119.94 91.04 118.82 98.72 116.79 C 104.44 115.28 111.26 112.58 111.26 108.3 L 111.26 87.02 C 111.26 85.84 110.74 84.78 109.87 83.83 C 110.74 82.88 111.26 81.82 111.26 80.64 L 111.26 59.36 C 111.26 58.18 110.74 57.12 109.87 56.17 C 110.74 55.22 111.26 54.16 111.26 52.98 L 111.26 31.7 C 111.26 30.46 110.69 29.36 109.74 28.37 L 140 58.63 Z" fill="var(--icon-primary, #dae8fc)" stroke="none" stroke-width="0" opacity="0.25"/></svg>