<svg xmlns="http://www.w3.org/2000/svg" viewBox="0 0 140 140" width="140" height="140"><path d="M 91.27 21.22 C 91.91 21.89 92.31 22.8 92.31 23.81 L 92.31 112.29 C 92.31 114.28 90.75 115.91 88.79 116.03 L 88.79 118.76 C 88.79 119.45 88.23 120.01 87.54 120.01 L 51.78 120.01 C 51.45 120.01 51.14 119.88 50.92 119.66 L 71.25 140 L 135 140 C 137.76 140 140 137.76 140 135 L 140 69.95 L 91.27 21.22 Z M 48.28 115.1 L 50.52 117.34 L 50.52 116.03 C 49.67 115.98 48.89 115.64 48.28 115.1 Z" fill="var(--icon-primary, #dae8fc)" stroke="none" stroke-width="0" opacity="0.25"/></svg>