<svg xmlns="http://www.w3.org/2000/svg" viewBox="0 0 100.01 70.19" width="100.01" height="70.19"><path d="M 89.53 18.46 L 41.61 18.46 C 41.22 18.46 40.87 18.24 40.71 17.88 C 37.37 10.79 30.15 6.2 22.31 6.2 C 11.11 6.2 2 15.31 2 26.51 C 2 37.71 11.11 46.82 22.31 46.82 C 30.15 46.82 37.37 42.23 40.7 35.14 C 40.87 34.79 41.22 34.56 41.6 34.56 L 48.61 34.56 L 55.14 28.03 C 55.33 27.84 55.58 27.74 55.85 27.74 C 56.12 27.74 56.37 27.84 56.56 28.03 L 62.67 34.14 L 68.78 28.03 C 68.97 27.84 69.22 27.74 69.49 27.74 C 69.76 27.74 70.01 27.84 70.2 28.03 L 76.31 34.14 L 82.42 28.03 C 82.61 27.84 82.86 27.74 83.13 27.74 C 83.39 27.74 83.65 27.84 83.84 28.03 L 89.95 34.14 L 97.59 26.5 L 89.53 18.46 Z M 10.57 32.56 C 7.24 32.56 4.52 29.85 4.52 26.51 C 4.52 23.18 7.23 20.46 10.57 20.46 C 13.9 20.46 16.62 23.17 16.62 26.51 C 16.62 29.85 13.91 32.56 10.57 32.56 Z" fill="var(--icon-primary, #dae8fc)" stroke="none" stroke-width="0"/><path d="M 99.71 25.81 L 90.66 16.76 C 90.47 16.57 90.22 16.47 89.95 16.47 L 42.23 16.47 C 40.45 12.94 37.76 9.94 34.42 7.78 C 31.81 6.09 28.89 4.97 25.84 4.49 C 24.68 4.3 23.5 4.2 22.31 4.2 C 16.35 4.2 10.75 6.52 6.53 10.73 C 2.32 14.95 0 20.55 0 26.51 C 0 27.71 0.09 28.89 0.28 30.05 C 1.01 34.66 3.17 38.92 6.54 42.29 C 10.75 46.5 16.36 48.82 22.32 48.82 C 26.64 48.82 30.83 47.58 34.44 45.25 C 37.78 43.09 40.46 40.1 42.25 36.56 L 49.05 36.56 C 49.32 36.56 49.57 36.46 49.76 36.27 L 55.87 30.16 L 61.98 36.27 C 62.17 36.46 62.42 36.56 62.69 36.56 C 62.95 36.56 63.21 36.46 63.4 36.27 L 69.51 30.16 L 75.62 36.27 C 75.81 36.46 76.06 36.56 76.33 36.56 C 76.6 36.56 76.85 36.46 77.04 36.27 L 83.15 30.16 L 89.26 36.27 C 89.65 36.66 90.28 36.66 90.67 36.27 L 99.72 27.22 C 99.91 27.03 100.01 26.78 100.01 26.51 C 100 26.25 99.9 25.99 99.71 25.81 Z M 89.95 34.15 L 83.84 28.04 C 83.65 27.85 83.4 27.75 83.13 27.75 C 82.86 27.75 82.61 27.85 82.42 28.04 L 76.31 34.15 L 70.2 28.04 C 70.01 27.85 69.76 27.75 69.49 27.75 C 69.23 27.75 68.97 27.85 68.78 28.04 L 62.67 34.15 L 56.56 28.04 C 56.37 27.85 56.12 27.75 55.85 27.75 C 55.59 27.75 55.33 27.85 55.14 28.04 L 48.61 34.57 L 41.6 34.57 C 41.21 34.57 40.86 34.79 40.7 35.15 C 37.37 42.25 30.15 46.83 22.31 46.83 C 11.7 46.83 2.96 38.65 2.07 28.26 C 2.03 27.68 2 27.1 2 26.51 C 2 15.31 11.11 6.2 22.31 6.2 C 22.89 6.2 23.47 6.23 24.05 6.28 C 31.2 6.9 37.62 11.32 40.7 17.89 C 40.87 18.24 41.22 18.47 41.6 18.47 L 89.53 18.47 L 97.58 26.52 L 89.95 34.15 Z M 10.57 20.47 C 7.24 20.47 4.52 23.18 4.52 26.52 C 4.52 29.85 7.23 32.57 10.57 32.57 C 13.9 32.57 16.62 29.86 16.62 26.52 C 16.62 23.18 13.91 20.47 10.57 20.47 Z M 10.57 30.56 C 8.34 30.56 6.52 28.74 6.52 26.51 C 6.52 24.28 8.33 22.46 10.57 22.46 C 12.81 22.46 14.62 24.27 14.62 26.51 C 14.62 28.75 12.8 30.56 10.57 30.56 Z M 55.7 9.05 L 55.7 2.08 L 54.25 2.08 L 54.25 0.17 L 57.97 0.17 L 57.97 9.05 L 55.7 9.05 Z M 63.12 9.05 L 63.12 2.08 L 61.67 2.08 L 61.67 0.17 L 65.39 0.17 L 65.39 9.05 L 63.12 9.05 Z M 74.85 5.89 C 74.85 7.94 73.34 9.21 71.57 9.21 C 69.79 9.21 68.22 7.93 68.22 5.89 L 68.22 3.29 C 68.23 1.18 69.9 0 71.55 0 C 73.34 0 74.85 1.3 74.85 3.26 L 74.85 5.89 Z M 72.58 3.28 C 72.58 2.5 72.26 2 71.54 2 C 70.87 2 70.5 2.53 70.5 3.28 L 70.5 5.94 C 70.5 6.71 70.87 7.22 71.54 7.22 C 72.26 7.22 72.58 6.72 72.58 5.94 L 72.58 3.28 Z M 77.95 9.05 L 77.95 2.08 L 76.5 2.08 L 76.5 0.17 L 80.22 0.17 L 80.22 9.05 L 77.95 9.05 Z M 84.69 62.17 L 84.69 56.68 L 79.8 51.44 L 79.8 44.05 L 77.8 44.05 L 77.8 52.23 L 82.69 57.48 L 82.69 62.18 C 80.93 62.63 79.62 64.22 79.62 66.12 C 79.62 68.36 81.44 70.19 83.69 70.19 C 85.93 70.19 87.76 68.37 87.76 66.12 C 87.76 64.21 86.45 62.61 84.69 62.17 Z M 68.83 62.17 L 68.83 44.04 L 66.83 44.04 L 66.83 62.17 C 65.07 62.62 63.76 64.21 63.76 66.11 C 63.76 68.35 65.58 70.18 67.83 70.18 C 70.07 70.18 71.9 68.36 71.9 66.11 C 71.9 64.21 70.59 62.61 68.83 62.17 Z M 57.86 52.22 L 57.86 44.04 L 55.86 44.04 L 55.86 51.43 L 50.97 56.67 L 50.97 62.16 C 49.21 62.61 47.9 64.2 47.9 66.1 C 47.9 68.34 49.72 70.17 51.97 70.17 C 54.21 70.17 56.04 68.35 56.04 66.1 C 56.04 64.2 54.73 62.61 52.97 62.16 L 52.97 57.46 L 57.86 52.22 Z" fill="var(--icon-secondary, #6c8ebf)" stroke="none" stroke-width="0"/></svg>