<svg xmlns="http://www.w3.org/2000/svg" viewBox="0 0 140 140" width="140" height="140"><path d="M 26.58 70.22 C 26.58 67.99 28.39 66.17 30.63 66.17 C 32.87 66.17 34.68 67.98 34.68 70.22 C 34.68 72.45 32.86 74.27 30.63 74.27 C 28.4 74.27 26.58 72.45 26.58 70.22 Z M 119.76 69.52 C 119.95 69.71 120.05 69.96 120.05 70.23 C 120.05 70.5 119.94 70.75 119.76 70.94 L 110.71 79.99 C 110.32 80.38 109.69 80.38 109.3 79.99 L 103.19 73.88 L 97.08 79.99 C 96.89 80.18 96.64 80.28 96.37 80.28 C 96.1 80.28 95.85 80.17 95.66 79.99 L 89.55 73.88 L 83.44 79.99 C 83.25 80.18 83 80.28 82.73 80.28 C 82.47 80.28 82.21 80.17 82.02 79.99 L 75.91 73.88 L 69.8 79.99 C 69.61 80.18 69.36 80.28 69.09 80.28 L 62.29 80.28 C 60.51 83.81 57.82 86.81 54.48 88.97 C 50.87 91.31 46.68 92.54 42.36 92.54 C 36.4 92.54 30.8 90.22 26.58 86.01 L 80.58 140 L 135 140 C 137.76 140 140 137.77 140 135.01 L 140 89.75 L 119.76 69.52 Z" fill="var(--icon-primary, #dae8fc)" stroke="none" stroke-width="0" opacity="0.25"/></svg>