<svg xmlns="http://www.w3.org/2000/svg" viewBox="0 0 100 79.87" width="100" height="79.87"><path d="M 97.18 68.58 C 97.18 70.89 96.28 73.07 94.64 74.7 C 93.82 75.52 92.87 76.15 91.83 76.58 C 90.79 77.01 89.67 77.23 88.52 77.23 L 11.47 77.23 C 6.7 77.23 2.82 73.35 2.82 68.58 C 2.82 66.27 3.72 64.09 5.36 62.46 C 6.99 60.82 9.17 59.92 11.48 59.92 L 88.54 59.92 C 93.3 59.92 97.18 63.8 97.18 68.58 Z M 83.84 6.6 C 83.22 3.89 80.83 2 78.06 2 L 21.95 2 C 19.17 2 16.79 3.89 16.16 6.59 L 3.69 60.22 C 3.7 60.21 3.7 60.21 3.71 60.2 C 3.78 60.14 3.85 60.08 3.92 60.01 C 3.99 59.95 4.06 59.89 4.13 59.83 C 4.19 59.78 4.26 59.73 4.32 59.68 C 4.35 59.66 4.38 59.63 4.42 59.61 C 4.46 59.58 4.5 59.55 4.54 59.52 C 4.57 59.5 4.59 59.48 4.62 59.46 C 4.67 59.42 4.72 59.39 4.77 59.35 C 4.79 59.33 4.81 59.32 4.83 59.31 C 4.89 59.26 4.96 59.22 5.03 59.17 C 5.09 59.13 5.15 59.09 5.22 59.05 C 5.25 59.03 5.28 59.01 5.31 58.99 C 5.35 58.97 5.39 58.94 5.43 58.92 C 5.47 58.9 5.51 58.87 5.54 58.85 C 5.58 58.83 5.61 58.8 5.65 58.78 C 5.69 58.76 5.73 58.74 5.76 58.72 C 5.83 58.68 5.9 58.64 5.97 58.61 C 6.05 58.57 6.12 58.53 6.2 58.49 C 6.21 58.49 6.21 58.48 6.22 58.48 C 6.28 58.45 6.33 58.42 6.39 58.4 C 6.5 58.35 6.61 58.3 6.72 58.25 C 6.8 58.21 6.89 58.18 6.97 58.14 C 7.21 58.04 7.46 57.95 7.71 57.86 C 7.79 57.83 7.87 57.81 7.94 57.78 C 7.94 57.78 7.94 57.78 7.94 57.78 C 7.99 57.76 8.05 57.75 8.1 57.73 C 8.15 57.72 8.19 57.7 8.24 57.69 C 8.26 57.68 8.28 57.68 8.3 57.67 C 8.37 57.65 8.44 57.63 8.51 57.61 C 8.53 57.61 8.54 57.6 8.56 57.6 C 8.63 57.58 8.69 57.57 8.76 57.55 C 8.79 57.54 8.83 57.54 8.86 57.53 C 8.92 57.52 8.98 57.5 9.05 57.49 C 9.07 57.49 9.09 57.48 9.11 57.48 C 9.16 57.47 9.22 57.46 9.27 57.45 C 9.32 57.44 9.37 57.43 9.41 57.42 C 9.45 57.41 9.49 57.41 9.53 57.4 C 9.58 57.39 9.62 57.39 9.67 57.38 C 9.72 57.37 9.78 57.37 9.83 57.36 C 9.86 57.36 9.89 57.35 9.92 57.35 C 10 57.34 10.09 57.33 10.17 57.32 C 10.26 57.31 10.36 57.3 10.45 57.3 C 10.54 57.29 10.64 57.29 10.73 57.28 C 10.79 57.28 10.84 57.28 10.9 57.27 C 10.94 57.27 10.98 57.27 11.02 57.27 C 11.11 57.27 11.2 57.27 11.29 57.27 L 88.71 57.27 C 88.8 57.27 88.88 57.27 88.97 57.27 C 89.05 57.27 89.13 57.28 89.21 57.28 C 89.25 57.28 89.28 57.28 89.32 57.29 C 89.37 57.29 89.42 57.29 89.47 57.3 C 89.51 57.3 89.54 57.31 89.58 57.31 C 89.63 57.31 89.67 57.32 89.72 57.32 C 89.75 57.32 89.78 57.33 89.82 57.33 C 89.88 57.34 89.94 57.34 90.01 57.35 C 90.03 57.35 90.05 57.35 90.07 57.36 C 90.15 57.37 90.23 57.38 90.32 57.39 C 90.38 57.4 90.44 57.41 90.5 57.42 C 90.55 57.43 90.6 57.43 90.65 57.44 C 90.71 57.45 90.78 57.46 90.84 57.47 C 90.92 57.48 90.99 57.5 91.07 57.52 C 91.1 57.53 91.13 57.53 91.16 57.54 C 91.21 57.55 91.25 57.56 91.3 57.57 C 91.33 57.58 91.37 57.59 91.4 57.6 C 91.44 57.61 91.49 57.62 91.53 57.63 C 91.57 57.64 91.61 57.65 91.66 57.66 C 91.89 57.72 92.12 57.79 92.35 57.87 C 92.43 57.9 92.51 57.93 92.59 57.96 C 92.66 57.99 92.74 58.02 92.81 58.04 C 92.87 58.06 92.94 58.09 93 58.12 C 93.05 58.14 93.09 58.16 93.13 58.18 C 93.2 58.21 93.26 58.24 93.33 58.26 C 93.39 58.29 93.46 58.32 93.52 58.35 C 93.7 58.43 93.87 58.52 94.04 58.61 C 94.1 58.64 94.17 58.68 94.23 58.72 C 94.29 58.75 94.35 58.79 94.41 58.82 C 94.44 58.84 94.47 58.86 94.51 58.88 C 94.55 58.91 94.6 58.93 94.64 58.96 C 94.73 59.01 94.81 59.07 94.9 59.13 C 94.96 59.16 95.01 59.2 95.06 59.24 C 95.44 59.49 95.79 59.77 96.14 60.07 C 96.18 60.1 96.22 60.14 96.26 60.18 C 96.28 60.2 96.3 60.21 96.31 60.23 L 83.84 6.6 Z" fill="var(--icon-primary, #dae8fc)" stroke="none" stroke-width="0"/><path d="M 31.89 70.58 L 10.49 70.58 L 10.49 66.58 L 31.89 66.58 L 31.89 70.58 Z M 56.29 66.58 L 41.29 66.58 L 41.29 70.58 L 56.29 70.58 L 56.29 66.58 Z M 94.41 68.58 C 94.41 71.93 91.69 74.65 88.34 74.65 C 84.99 74.65 82.27 71.93 82.27 68.58 C 82.27 65.23 84.99 62.51 88.34 62.51 C 91.69 62.51 94.41 65.23 94.41 68.58 Z M 99.81 66.53 L 99.58 65.54 L 99.55 65.43 L 85.79 6.14 C 85.46 4.7 84.76 3.44 83.8 2.44 L 83.56 2.2 C 82.12 0.82 80.18 0 78.06 0 L 21.95 0 C 18.24 0 15.06 2.53 14.22 6.14 L 10.3 22.98 L 0.33 65.86 L 0.32 65.9 L 0.27 66.13 C 0.09 66.93 0 67.75 0 68.58 C 0 71.67 1.25 74.48 3.27 76.52 L 3.35 76.6 C 5.39 78.62 8.2 79.87 11.29 79.87 L 88.71 79.87 C 91.73 79.87 94.56 78.7 96.69 76.56 C 98.82 74.43 100 71.59 100 68.58 C 100 67.89 99.94 67.2 99.81 66.53 Z M 12.97 20.31 L 16.16 6.6 C 16.79 3.89 19.17 2 21.95 2 L 78.06 2 C 80.84 2 83.22 3.89 83.85 6.6 L 96.3 60.23 C 96.28 60.21 96.27 60.2 96.25 60.18 C 96.21 60.14 96.17 60.11 96.13 60.07 C 95.79 59.77 95.43 59.5 95.05 59.24 C 95 59.2 94.94 59.17 94.89 59.13 C 94.8 59.07 94.72 59.02 94.63 58.96 C 94.59 58.93 94.54 58.9 94.5 58.88 C 94.47 58.86 94.44 58.84 94.4 58.82 C 94.34 58.78 94.28 58.75 94.22 58.72 C 94.16 58.68 94.09 58.65 94.03 58.61 C 93.86 58.52 93.69 58.43 93.51 58.35 C 93.45 58.32 93.38 58.29 93.32 58.26 C 93.25 58.23 93.19 58.2 93.12 58.18 C 93.08 58.16 93.03 58.14 92.99 58.12 C 92.93 58.09 92.86 58.07 92.8 58.04 C 92.73 58.01 92.65 57.98 92.58 57.96 C 92.5 57.93 92.42 57.9 92.34 57.87 C 92.11 57.79 91.88 57.72 91.65 57.66 C 91.61 57.65 91.57 57.64 91.52 57.63 C 91.48 57.62 91.43 57.61 91.39 57.6 C 91.36 57.59 91.32 57.58 91.29 57.57 C 91.24 57.56 91.2 57.55 91.15 57.54 C 91.12 57.53 91.09 57.53 91.06 57.52 C 90.99 57.5 90.91 57.49 90.83 57.47 C 90.77 57.46 90.7 57.45 90.64 57.44 C 90.59 57.43 90.54 57.42 90.49 57.42 C 90.43 57.41 90.37 57.4 90.31 57.39 C 90.23 57.38 90.15 57.37 90.06 57.36 C 90.04 57.36 90.02 57.35 90 57.35 C 89.94 57.34 89.88 57.34 89.81 57.33 C 89.78 57.33 89.75 57.32 89.71 57.32 C 89.66 57.32 89.62 57.31 89.57 57.31 C 89.54 57.31 89.5 57.3 89.46 57.3 C 89.41 57.3 89.36 57.29 89.31 57.29 C 89.27 57.29 89.24 57.29 89.2 57.28 C 89.12 57.28 89.04 57.27 88.96 57.27 C 88.87 57.27 88.79 57.27 88.7 57.27 L 11.29 57.27 C 11.2 57.27 11.11 57.27 11.02 57.27 C 10.98 57.27 10.94 57.27 10.9 57.27 C 10.84 57.27 10.78 57.27 10.73 57.28 C 10.64 57.28 10.54 57.29 10.45 57.3 C 10.36 57.31 10.26 57.31 10.17 57.32 C 10.09 57.33 10 57.34 9.92 57.35 C 9.89 57.35 9.86 57.36 9.83 57.36 C 9.78 57.37 9.72 57.37 9.67 57.38 C 9.62 57.39 9.58 57.39 9.53 57.4 C 9.49 57.41 9.45 57.41 9.41 57.42 C 9.36 57.43 9.31 57.44 9.27 57.45 C 9.22 57.46 9.16 57.47 9.11 57.48 C 9.09 57.48 9.07 57.49 9.05 57.49 C 8.99 57.5 8.93 57.51 8.86 57.53 C 8.83 57.54 8.79 57.54 8.76 57.55 C 8.69 57.57 8.63 57.58 8.56 57.6 C 8.54 57.6 8.53 57.61 8.51 57.61 C 8.44 57.63 8.37 57.65 8.3 57.67 C 8.28 57.67 8.26 57.68 8.24 57.69 C 8.19 57.7 8.15 57.72 8.1 57.73 C 8.05 57.75 7.99 57.76 7.94 57.78 C 7.94 57.78 7.94 57.78 7.94 57.78 C 7.86 57.8 7.78 57.83 7.71 57.86 C 7.46 57.94 7.22 58.03 6.97 58.14 C 6.89 58.17 6.8 58.21 6.72 58.25 C 6.6 58.3 6.5 58.35 6.39 58.4 C 6.33 58.43 6.28 58.45 6.22 58.48 C 6.22 58.48 6.21 58.49 6.2 58.49 C 6.12 58.53 6.05 58.57 5.97 58.61 C 5.9 58.65 5.83 58.68 5.76 58.72 C 5.72 58.74 5.68 58.76 5.65 58.78 C 5.61 58.8 5.58 58.82 5.54 58.85 C 5.5 58.87 5.46 58.9 5.43 58.92 C 5.39 58.95 5.35 58.97 5.31 59 C 5.28 59.02 5.25 59.04 5.22 59.06 C 5.16 59.1 5.1 59.14 5.03 59.18 C 4.96 59.22 4.9 59.27 4.83 59.32 C 4.81 59.33 4.79 59.35 4.77 59.36 C 4.72 59.39 4.67 59.43 4.62 59.47 C 4.59 59.49 4.57 59.51 4.54 59.53 C 4.5 59.56 4.46 59.59 4.42 59.62 C 4.39 59.64 4.36 59.67 4.32 59.69 C 4.26 59.74 4.19 59.79 4.13 59.84 C 4.06 59.9 3.99 59.96 3.92 60.02 C 3.85 60.08 3.78 60.14 3.71 60.21 C 3.7 60.21 3.7 60.22 3.69 60.23 L 12.97 20.31 Z M 88.53 76.73 L 11.47 76.73 C 6.97 76.73 3.32 73.07 3.32 68.58 C 3.32 66.4 4.17 64.35 5.71 62.81 C 7.25 61.27 9.3 60.42 11.48 60.42 L 88.54 60.42 C 93.04 60.42 96.7 64.08 96.7 68.58 C 96.7 70.76 95.85 72.81 94.31 74.35 C 93.54 75.12 92.65 75.71 91.67 76.12 C 90.66 76.53 89.61 76.73 88.53 76.73 Z" fill="var(--icon-secondary, #6c8ebf)" stroke="none" stroke-width="0"/></svg>