<svg xmlns="http://www.w3.org/2000/svg" viewBox="0 0 140 140" width="140" height="140"><path d="M 140 61.38 L 140 135 C 140 137.76 137.76 140 135 140 L 61.38 140 L 20.92 99.54 C 21.46 100.07 22.2 100.4 23.02 100.4 L 35.34 100.4 C 36.12 100.4 36.83 100.1 37.37 99.61 C 37.9 100.1 38.61 100.4 39.39 100.4 L 68.03 100.4 C 68.8 100.4 69.5 100.11 70.03 99.63 C 70.56 100.11 71.26 100.4 72.03 100.4 L 100.67 100.4 C 101.44 100.4 102.14 100.11 102.67 99.63 C 103.2 100.11 103.9 100.4 104.67 100.4 L 117 100.4 C 118.65 100.4 120 99.05 120 97.4 L 120 86.7 C 120 85.93 119.71 85.23 119.23 84.7 C 119.71 84.17 120 83.47 120 82.7 L 120 72 C 120 71.22 119.71 70.52 119.22 69.99 C 119.69 69.46 119.97 68.77 119.97 68 L 119.97 57.3 C 119.97 56.53 119.68 55.83 119.2 55.3 C 119.68 54.77 119.97 54.07 119.97 53.3 L 119.97 42.6 C 119.97 41.78 119.64 41.03 119.1 40.49 L 140 61.38 Z" fill="var(--icon-primary, #dae8fc)" stroke="none" stroke-width="0" opacity="0.25"/></svg>