<svg xmlns="http://www.w3.org/2000/svg" viewBox="0 0 100 60.8" width="100" height="60.8"><path d="M 49.12 31.41 C 49.12 31.41 49.12 31.41 49.12 31.41 L 35.75 31.41 C 35.2 31.41 34.75 31.86 34.75 32.41 L 34.75 43.11 C 34.75 43.66 35.2 44.11 35.75 44.11 L 41.3 44.11 C 41.32 43.92 41.35 43.74 41.38 43.55 C 41.51 42.78 41.76 41.86 42.2 41.22 C 42.38 42.24 42.77 43.26 43.37 44.11 L 44.72 44.11 C 44.49 41.8 44.62 39.46 45.32 37.23 C 46 35.05 47.35 32.91 49.12 31.41 L 49.12 31.41 Z M 45.64 55.03 C 43.01 52.76 41.39 49.54 41.23 46.11 L 33.64 46.11 C 35.74 50.96 40.33 54.14 45.66 55.14 C 45.72 55.14 45.75 55.14 45.75 55.12 C 45.75 55.1 45.67 55.06 45.64 55.03 Z M 56.41 46.11 C 56.62 49.48 55.49 52.96 52.89 55.19 C 52.89 55.19 52.88 55.2 52.88 55.2 C 58.18 54.28 62.92 50.8 65.49 46.11 L 56.41 46.11 Z M 80.71 46.11 L 80.67 46.11 C 81.22 46.11 81.67 46.56 81.67 47.11 L 81.67 57.81 C 81.67 58.36 81.22 58.81 80.67 58.81 L 80.71 58.81 C 81.26 58.81 81.71 58.36 81.71 57.81 L 81.71 47.11 C 81.71 46.56 81.27 46.11 80.71 46.11 Z M 64.39 31.41 L 50.48 31.41 C 50.32 33.68 50.79 35.74 52.14 37.67 C 53.75 39.96 55.45 41.21 56.12 44.11 L 64.39 44.11 C 64.94 44.11 65.39 43.66 65.39 43.11 L 65.39 32.41 C 65.39 31.86 64.94 31.41 64.39 31.41 Z M 15.36 16.7 L 3.04 16.7 C 2.49 16.7 2.04 17.15 2.04 17.7 L 2.04 28.4 C 2.04 28.95 2.49 29.4 3.04 29.4 L 15.36 29.4 C 15.91 29.4 16.36 28.95 16.36 28.4 L 16.36 17.7 C 16.36 17.15 15.91 16.7 15.36 16.7 Z M 97.04 31.41 L 68.39 31.41 C 68.37 31.41 68.36 31.41 68.34 31.41 C 67.88 31.43 67.5 31.77 67.41 32.21 C 67.4 32.27 67.39 32.34 67.39 32.41 L 67.39 43.11 C 67.39 43.66 67.84 44.11 68.39 44.11 L 97.03 44.11 C 97.58 44.11 98.03 43.66 98.03 43.11 L 98.03 32.41 C 98.04 31.86 97.59 31.41 97.04 31.41 Z M 31.68 2 L 3.04 2 C 2.49 2 2.04 2.45 2.04 3 L 2.04 13.7 C 2.04 14.25 2.49 14.7 3.04 14.7 L 31.68 14.7 C 32.23 14.7 32.68 14.25 32.68 13.7 L 32.68 3 C 32.68 2.45 32.23 2 31.68 2 Z M 15.38 46.11 L 3.06 46.11 C 2.51 46.11 2.06 46.56 2.06 47.11 L 2.06 57.81 C 2.06 58.36 2.51 58.81 3.06 58.81 L 15.38 58.81 C 15.93 58.81 16.38 58.36 16.38 57.81 L 16.38 47.11 C 16.38 46.56 15.93 46.11 15.38 46.11 Z M 97.01 16.7 L 84.69 16.7 C 84.14 16.7 83.69 17.15 83.69 17.7 L 83.69 28.4 C 83.69 28.95 84.14 29.4 84.69 29.4 L 97.04 29.4 C 97.58 29.39 98.02 28.94 98.02 28.4 L 98.02 17.7 C 98.01 17.15 97.56 16.7 97.01 16.7 Z M 97.01 2 L 68.37 2 C 67.82 2 67.37 2.45 67.37 3 L 67.37 13.7 C 67.37 14.25 67.82 14.7 68.37 14.7 L 97.01 14.7 C 97.56 14.7 98.01 14.25 98.01 13.7 L 98.01 3 C 98.01 2.45 97.56 2 97.01 2 Z M 97 46.11 L 84.68 46.11 C 84.13 46.11 83.68 46.56 83.68 47.11 L 83.68 57.81 C 83.68 58.36 84.13 58.81 84.68 58.81 L 97 58.81 C 97.55 58.81 98 58.36 98 57.81 L 98 47.11 C 98 46.56 97.55 46.11 97 46.11 Z M 31.7 31.41 L 3.04 31.41 C 2.5 31.42 2.06 31.87 2.06 32.41 L 2.06 43.11 C 2.06 43.66 2.51 44.11 3.06 44.11 L 31.7 44.11 C 32.25 44.11 32.7 43.66 32.7 43.11 L 32.7 32.41 C 32.7 31.86 32.25 31.41 31.7 31.41 Z M 48.05 16.7 L 19.41 16.7 C 18.86 16.7 18.41 17.15 18.41 17.7 L 18.41 28.4 C 18.41 28.95 18.86 29.4 19.41 29.4 L 48.05 29.4 C 48.6 29.4 49.05 28.95 49.05 28.4 L 49.05 17.7 C 49.05 17.15 48.6 16.7 48.05 16.7 Z M 80.69 16.7 L 52.05 16.7 C 51.5 16.7 51.05 17.15 51.05 17.7 L 51.05 28.4 C 51.05 28.95 51.5 29.4 52.05 29.4 L 80.69 29.4 C 81.24 29.4 81.69 28.95 81.69 28.4 L 81.69 17.7 C 81.69 17.15 81.24 16.7 80.69 16.7 Z M 64.37 2 L 35.73 2 C 35.18 2 34.73 2.45 34.73 3 L 34.73 13.7 C 34.73 14.25 35.18 14.7 35.73 14.7 L 64.37 14.7 C 64.92 14.7 65.37 14.25 65.37 13.7 L 65.37 3 C 65.37 2.45 64.92 2 64.37 2 Z M 81.68 47.11 L 81.68 57.81 C 81.68 58.36 81.23 58.81 80.68 58.81 L 52.07 58.81 C 51.52 58.81 51.07 58.36 51.07 57.81 L 51.07 55.44 L 51.03 55.44 C 50.52 55.49 49.99 55.51 49.47 55.51 C 49.34 55.51 49.2 55.51 49.07 55.51 L 49.07 57.81 C 49.07 58.36 48.62 58.81 48.07 58.81 L 19.43 58.81 C 18.88 58.81 18.43 58.36 18.43 57.81 L 18.43 47.11 C 18.43 46.56 18.88 46.11 19.43 46.11 L 33.64 46.11 C 35.74 50.96 40.33 54.14 45.66 55.14 C 45.72 55.14 45.75 55.14 45.75 55.12 C 45.76 55.1 45.68 55.06 45.65 55.02 C 43.02 52.75 41.4 49.53 41.24 46.1 L 41.24 46.1 C 41.21 45.44 41.23 44.77 41.31 44.1 L 41.31 44.1 C 41.33 43.91 41.36 43.73 41.39 43.54 C 41.52 42.77 41.77 41.85 42.21 41.21 C 42.39 42.23 42.78 43.25 43.38 44.1 L 43.38 44.1 C 43.79 44.67 44.3 45.17 44.91 45.53 C 44.83 45.05 44.77 44.58 44.73 44.1 L 44.73 44.1 C 44.5 41.79 44.63 39.45 45.33 37.22 C 46.01 35.04 47.36 32.89 49.13 31.39 L 49.13 31.39 C 49.33 31.22 49.54 31.06 49.75 30.9 C 50.02 30.7 50.32 30.52 50.61 30.35 C 50.56 30.7 50.52 31.05 50.49 31.39 C 50.33 33.66 50.8 35.72 52.15 37.65 C 53.76 39.94 55.46 41.19 56.13 44.09 C 56.14 44.14 56.15 44.2 56.17 44.25 C 56.3 44.85 56.38 45.47 56.42 46.09 C 56.63 49.46 55.5 52.94 52.9 55.17 C 52.9 55.17 52.89 55.18 52.89 55.18 C 58.19 54.26 62.93 50.78 65.5 46.09 L 80.69 46.09 C 81.23 46.11 81.68 46.56 81.68 47.11 Z" fill="var(--icon-primary, #dae8fc)" stroke="none" stroke-width="0"/><path d="M 100 32.41 C 100 31.63 99.71 30.93 99.22 30.39 C 99.69 29.86 99.97 29.17 99.97 28.41 L 99.97 17.7 C 99.97 16.93 99.68 16.23 99.2 15.7 C 99.68 15.17 99.97 14.47 99.97 13.7 L 99.97 3 C 99.97 2.18 99.64 1.43 99.1 0.89 L 99.08 0.87 C 98.54 0.33 97.8 0 96.97 0 L 68.33 0 C 67.56 0 66.86 0.29 66.33 0.77 C 65.8 0.29 65.1 0 64.33 0 L 35.69 0 C 34.91 0 34.2 0.3 33.66 0.79 C 33.13 0.3 32.42 0 31.64 0 L 3 0 C 1.35 0 0 1.35 0 3 L 0 13.7 C 0 14.47 0.29 15.17 0.77 15.7 C 0.29 16.23 0 16.94 0 17.7 L 0 28.4 C 0 29.17 0.3 29.88 0.78 30.41 C 0.31 30.94 0.03 31.64 0.03 32.4 L 0.03 43.1 C 0.03 43.87 0.32 44.57 0.8 45.1 C 0.32 45.63 0.03 46.33 0.03 47.1 L 0.03 57.8 C 0.03 58.62 0.36 59.36 0.89 59.9 L 0.93 59.94 C 1.47 60.47 2.21 60.8 3.03 60.8 L 15.35 60.8 C 16.13 60.8 16.84 60.5 17.37 60.01 C 17.9 60.5 18.62 60.8 19.39 60.8 L 48.03 60.8 C 48.8 60.8 49.5 60.51 50.03 60.03 C 50.56 60.51 51.26 60.8 52.03 60.8 L 80.67 60.8 C 81.44 60.8 82.14 60.51 82.67 60.03 C 83.2 60.51 83.9 60.8 84.67 60.8 L 97 60.8 C 98.65 60.8 100 59.45 100 57.8 L 100 47.1 C 100 46.33 99.71 45.63 99.23 45.1 C 99.71 44.57 100 43.87 100 43.1 L 100 32.41 Z M 67.33 3 C 67.33 2.45 67.78 2 68.33 2 L 96.97 2 C 97.52 2 97.97 2.45 97.97 3 L 97.97 13.7 C 97.97 14.25 97.52 14.7 96.97 14.7 L 68.33 14.7 C 67.78 14.7 67.33 14.25 67.33 13.7 L 67.33 3 Z M 97.97 17.7 L 97.97 28.4 C 97.97 28.94 97.54 29.39 97 29.4 L 84.65 29.4 C 84.1 29.4 83.65 28.95 83.65 28.4 L 83.65 17.7 C 83.65 17.15 84.1 16.7 84.65 16.7 L 96.97 16.7 C 97.53 16.7 97.97 17.15 97.97 17.7 Z M 80.65 16.7 C 81.2 16.7 81.65 17.15 81.65 17.7 L 81.65 28.4 C 81.65 28.95 81.2 29.4 80.65 29.4 L 66.76 29.4 C 66.03 26.93 64.92 24.59 63.45 22.52 L 62.54 21.36 C 62.71 22.51 62.83 23.73 62.85 24.95 C 62.87 26.46 62.74 27.98 62.33 29.4 L 60.35 29.4 C 60.19 28.48 59.97 27.56 59.67 26.67 C 58.79 24.11 57.17 22.02 55.49 19.95 C 54.62 18.88 53.75 17.81 52.96 16.69 L 80.65 16.69 Z M 61.51 31.41 C 61.29 31.82 61.03 32.21 60.74 32.59 C 60.7 32.2 60.66 31.8 60.62 31.41 L 61.51 31.41 Z M 34.69 3 C 34.69 2.45 35.14 2 35.69 2 L 64.33 2 C 64.88 2 65.33 2.45 65.33 3 L 65.33 13.7 C 65.33 14.25 64.88 14.7 64.33 14.7 L 51.68 14.7 C 50.06 11.82 49.04 8.47 50.54 5.29 C 47.07 6.64 44.42 9.5 43.37 13.09 C 43.21 13.63 43.1 14.16 43.02 14.7 L 35.69 14.7 C 35.14 14.7 34.69 14.25 34.69 13.7 L 34.69 3 Z M 42.81 16.7 C 42.74 17.89 42.72 19.09 42.6 20.29 C 42.56 20.73 42.5 21.17 42.42 21.61 C 42 23.97 41.15 26.43 39.41 28.14 C 39.39 27.22 39.38 26.34 39.17 25.44 C 38.98 24.57 38.63 23.73 38.18 22.95 C 37.58 21.91 36.78 20.97 35.87 20.22 C 35.79 20.15 35.06 19.56 35 19.62 C 35.85 22.21 35.21 24.71 34.42 27.16 C 34.18 27.91 33.93 28.65 33.69 29.39 L 19.37 29.39 C 18.82 29.39 18.37 28.94 18.37 28.39 L 18.37 17.7 C 18.37 17.15 18.82 16.7 19.37 16.7 L 42.81 16.7 Z M 2 3 C 2 2.45 2.45 2 3 2 L 31.64 2 C 32.19 2 32.64 2.45 32.64 3 L 32.64 13.7 C 32.64 14.25 32.19 14.7 31.64 14.7 L 3 14.7 C 2.45 14.7 2 14.25 2 13.7 L 2 3 Z M 2 17.7 C 2 17.15 2.45 16.7 3 16.7 L 15.32 16.7 C 15.87 16.7 16.32 17.15 16.32 17.7 L 16.32 28.4 C 16.32 28.95 15.87 29.4 15.32 29.4 L 3 29.4 C 2.45 29.4 2 28.95 2 28.4 L 2 17.7 Z M 16.35 57.81 C 16.35 58.36 15.9 58.81 15.35 58.81 L 3.02 58.81 C 2.47 58.81 2.02 58.36 2.02 57.81 L 2.02 47.11 C 2.02 46.56 2.47 46.11 3.02 46.11 L 15.34 46.11 C 15.89 46.11 16.34 46.56 16.34 47.11 L 16.34 57.81 Z M 3.02 44.11 C 2.47 44.11 2.02 43.66 2.02 43.11 L 2.02 32.41 C 2.02 31.87 2.46 31.42 3 31.41 L 31.67 31.41 C 32.22 31.41 32.67 31.86 32.67 32.41 L 32.67 33.59 C 32.12 36.65 32.07 39.7 32.67 42.89 L 32.67 43.12 C 32.67 43.67 32.22 44.12 31.67 44.12 L 3.02 44.12 Z M 81.68 57.81 C 81.68 58.36 81.23 58.81 80.68 58.81 L 52.04 58.81 C 51.49 58.81 51.04 58.36 51.04 57.81 L 51.04 55.45 C 50.53 55.5 50 55.52 49.48 55.52 C 49.35 55.52 49.21 55.52 49.08 55.52 L 49.08 57.82 C 49.08 58.37 48.63 58.82 48.08 58.82 L 19.39 58.82 C 18.84 58.82 18.39 58.37 18.39 57.82 L 18.39 47.12 C 18.39 46.57 18.84 46.12 19.39 46.12 L 33.63 46.12 C 35.73 50.97 40.32 54.15 45.65 55.15 C 45.71 55.15 45.74 55.15 45.74 55.13 C 45.75 55.11 45.67 55.07 45.64 55.03 C 43.01 52.76 41.39 49.54 41.23 46.11 L 41.23 46.11 C 41.2 45.45 41.22 44.78 41.3 44.11 L 41.3 44.11 C 41.32 43.92 41.35 43.74 41.38 43.55 C 41.51 42.78 41.76 41.86 42.2 41.22 C 42.38 42.24 42.77 43.26 43.37 44.11 L 43.37 44.11 C 43.78 44.68 44.29 45.18 44.9 45.54 C 44.82 45.06 44.76 44.59 44.72 44.11 L 44.72 44.11 C 44.49 41.8 44.62 39.46 45.32 37.23 C 46 35.05 47.35 32.9 49.12 31.4 L 49.12 31.4 C 49.32 31.23 49.53 31.07 49.74 30.91 C 50.01 30.71 50.31 30.53 50.6 30.36 C 50.55 30.71 50.51 31.06 50.48 31.4 C 50.32 33.67 50.79 35.73 52.14 37.66 C 53.75 39.95 55.45 41.2 56.12 44.1 C 56.13 44.15 56.14 44.21 56.16 44.26 C 56.29 44.86 56.37 45.48 56.41 46.1 C 56.62 49.47 55.49 52.95 52.89 55.18 C 52.89 55.18 52.88 55.19 52.88 55.19 C 58.18 54.27 62.92 50.79 65.49 46.1 L 80.68 46.1 C 81.23 46.1 81.68 46.55 81.68 47.1 L 81.68 57.81 Z M 98 57.81 C 98 58.36 97.55 58.81 97 58.81 L 84.68 58.81 C 84.13 58.81 83.68 58.36 83.68 57.81 L 83.68 47.11 C 83.68 46.56 84.13 46.11 84.68 46.11 L 97 46.11 C 97.55 46.11 98 46.56 98 47.11 L 98 57.81 Z M 98 43.11 C 98 43.66 97.55 44.11 97 44.11 L 68.36 44.11 C 67.81 44.11 67.36 43.66 67.36 43.11 L 67.36 40.75 C 67.37 40.68 67.38 40.62 67.4 40.55 C 67.89 37.81 67.89 34.97 67.42 32.2 C 67.42 32.17 67.41 32.14 67.41 32.12 C 67.53 31.71 67.91 31.41 68.35 31.4 C 68.36 31.4 68.36 31.4 68.37 31.4 L 97 31.4 C 97.55 31.4 98 31.85 98 32.4 L 98 43.11 Z" fill="var(--icon-secondary, #6c8ebf)" stroke="none" stroke-width="0"/></svg>