<svg xmlns="http://www.w3.org/2000/svg" viewBox="0 0 140 140" width="140" height="140"><path d="M 140 70.74 L 140 135 C 140 137.76 137.76 140 135 140 L 60.9 140 L 24.2 103.3 C 24.89 103.94 25.64 104.51 26.45 104.97 C 29.7 106.83 33.53 106.95 36.97 105.29 C 41.97 102.87 44.89 96.46 47.47 90.81 C 48.46 88.63 49.4 86.57 50.38 84.91 C 50.46 84.77 50.66 84.44 50.78 84.35 C 51.07 84.36 51.87 84.62 52.27 84.75 C 52.6 84.86 52.91 84.96 53.16 85.02 C 56.87 85.92 60.75 84.65 63.53 81.65 C 63.66 81.51 63.82 81.31 64 81.09 C 64.18 80.86 64.53 80.42 64.74 80.21 C 68.65 80.1 72.15 80.1 75.44 80.22 C 75.56 80.36 75.73 80.6 75.85 80.76 C 76.05 81.03 76.22 81.26 76.36 81.42 C 79.1 84.46 83.08 85.89 86.74 85.13 C 87.17 85.04 87.54 84.91 87.9 84.78 C 88.16 84.69 88.41 84.6 88.65 84.54 C 88.83 84.5 89.04 84.45 89.14 84.44 C 89.16 84.45 89.18 84.48 89.22 84.52 C 90.41 86.61 91.45 88.88 92.46 91.08 C 93.8 94 95.18 97.01 96.96 99.74 C 99.76 104.01 103.17 106.29 107.1 106.51 C 107.31 106.52 107.55 106.53 107.79 106.53 C 108.03 106.53 108.27 106.52 108.48 106.51 C 111.9 106.31 114.82 104.69 116.93 101.82 C 118.75 99.34 119.82 96.09 119.95 92.68 C 120.11 88.21 119.91 83.33 119.36 78.57 C 118.41 70.29 116.4 58.25 112.28 47.87 C 112.24 47.77 112.19 47.66 112.15 47.53 C 111.43 45.67 110.7 43.95 109.7 43.29 C 109.28 43.01 108.79 42.89 108.35 42.78 C 108.1 42.72 107.63 42.6 107.54 42.5 C 107.41 42.32 107.43 41.52 107.45 41.08 C 107.47 40.33 107.5 39.56 107.25 38.89 C 106.83 37.74 105.81 37.25 104.98 37 C 104.96 36.22 104.88 35.62 104.49 35.21 L 140 70.74 Z" fill="var(--icon-primary, #dae8fc)" stroke="none" stroke-width="0" opacity="0.25"/></svg>