<svg xmlns="http://www.w3.org/2000/svg" viewBox="0 0 100 100" width="100" height="100"><ellipse cx="50" cy="50" rx="49" ry="49" fill="var(--icon-primary, #dae8fc)" stroke="none" stroke-width="0"/><path d="M 96.07 30.54 C 94.07 25.82 91.39 21.48 88.08 17.59 C 87.64 17.07 87.19 16.57 86.73 16.07 C 86.31 15.62 85.89 15.17 85.45 14.73 C 85.42 14.7 85.39 14.67 85.36 14.64 C 85.33 14.61 85.3 14.58 85.27 14.55 C 80.7 10 75.38 6.42 69.46 3.92 C 63.94 1.6 58.12 0.29 52.12 0.04 C 51.47 0.02 50.82 0 50.17 0 C 50.11 0 50.06 0 50 0 C 49.94 0 49.89 0 49.83 0 C 43.14 0.02 36.65 1.34 30.54 3.93 C 24.59 6.45 19.24 10.05 14.65 14.65 C 14.18 15.12 13.73 15.59 13.28 16.07 C 12.82 16.57 12.36 17.08 11.93 17.59 C 8.62 21.47 5.94 25.81 3.94 30.54 C 1.32 36.7 0 43.25 0 50 C 0 50.71 0.02 51.41 0.05 52.12 C 0.3 58.12 1.6 63.95 3.93 69.46 C 5.93 74.18 8.61 78.52 11.92 82.41 C 12.36 82.93 12.81 83.43 13.27 83.93 C 13.56 84.24 13.85 84.55 14.15 84.85 C 14.31 85.02 14.48 85.18 14.64 85.35 C 14.81 85.52 14.98 85.68 15.15 85.85 C 19.63 90.21 24.8 93.64 30.53 96.07 C 36.64 98.66 43.13 99.98 49.82 100 C 49.88 100 49.93 100 49.99 100 C 50.05 100 50.1 100 50.16 100 C 56.85 99.98 63.34 98.66 69.45 96.07 C 75.4 93.55 80.75 89.95 85.34 85.35 C 85.81 84.88 86.26 84.41 86.71 83.93 C 87.17 83.43 87.63 82.92 88.06 82.41 C 91.37 78.53 94.05 74.19 96.05 69.46 C 98.68 63.3 100 56.75 100 50 C 100 43.25 98.68 36.7 96.07 30.54 Z M 2.01 49 C 2.25 37.4 6.62 26.79 13.72 18.61 C 14.11 18.82 14.5 19.02 14.91 19.22 C 18.85 21.19 23.34 22.79 28.19 23.98 C 25.88 31.45 24.6 40.03 24.51 49 L 2.01 49 Z M 84.89 17.08 C 84.66 17.2 84.43 17.32 84.2 17.43 C 80.35 19.36 75.96 20.92 71.2 22.08 C 70.33 19.54 69.34 17.14 68.22 14.91 C 65.91 10.29 63.21 6.65 60.18 4.09 C 59.59 3.59 59 3.14 58.4 2.74 C 68.75 4.57 77.97 9.73 84.89 17.08 Z M 51 26.49 C 57.59 26.43 63.98 25.72 69.87 24.43 C 72.15 31.74 73.41 40.17 73.5 49 L 51 49 L 51 26.49 Z M 51 75.5 C 57.38 75.56 63.55 76.24 69.24 77.47 C 68.42 79.85 67.48 82.11 66.43 84.2 C 62.22 92.61 56.78 97.46 51 97.96 L 51 75.5 Z M 51 73.51 L 51 51 L 73.49 51 C 73.4 59.83 72.14 68.25 69.86 75.57 C 63.98 74.28 57.59 73.57 51 73.51 Z M 75.49 51 L 97.99 51 C 97.75 62.6 93.38 73.21 86.28 81.4 C 85.89 81.19 85.5 80.99 85.09 80.79 C 81.15 78.82 76.67 77.22 71.81 76.03 C 74.13 68.54 75.41 59.96 75.49 51 Z M 75.49 49 C 75.4 40.03 74.13 31.45 71.81 23.98 C 76.66 22.79 81.15 21.19 85.09 19.22 C 85.49 19.02 85.89 18.81 86.28 18.61 C 93.38 26.79 97.75 37.4 97.99 49 L 75.49 49 Z M 66.43 15.8 C 67.48 17.89 68.41 20.14 69.24 22.53 C 63.55 23.76 57.38 24.43 51 24.5 L 51 2.04 C 56.78 2.55 62.22 7.38 66.43 15.8 Z M 41.59 2.74 C 40.99 3.14 40.4 3.59 39.82 4.09 C 36.8 6.65 34.09 10.29 31.78 14.91 C 30.67 17.14 29.67 19.54 28.8 22.08 C 24.04 20.92 19.65 19.36 15.8 17.43 C 15.57 17.31 15.34 17.2 15.11 17.08 C 22.03 9.73 31.25 4.57 41.59 2.74 Z M 30.13 75.57 C 27.85 68.25 26.59 59.83 26.5 51 L 49 51 L 49 73.51 C 42.41 73.57 36.02 74.28 30.13 75.57 Z M 49 75.5 L 49 97.95 C 43.22 97.45 37.78 92.61 33.57 84.2 C 32.52 82.11 31.59 79.86 30.76 77.47 C 36.45 76.24 42.62 75.57 49 75.5 Z M 26.5 49 C 26.59 40.17 27.85 31.75 30.13 24.43 C 36.02 25.72 42.4 26.43 49 26.49 L 49 49 L 26.5 49 Z M 24.51 51 C 24.6 59.96 25.87 68.54 28.19 76.02 C 23.34 77.21 18.85 78.81 14.91 80.78 C 14.51 80.98 14.11 81.19 13.72 81.39 C 6.62 73.21 2.25 62.6 2.01 51 L 24.51 51 Z M 15.8 82.57 C 19.65 80.64 24.04 79.08 28.8 77.92 C 29.67 80.46 30.66 82.86 31.78 85.09 C 34.09 89.71 36.8 93.35 39.82 95.91 C 40.4 96.4 41 96.85 41.59 97.26 C 31.24 95.42 22.03 90.26 15.1 82.92 C 15.33 82.81 15.57 82.69 15.8 82.57 Z M 49 24.5 C 42.62 24.44 36.45 23.76 30.76 22.53 C 30.97 21.93 31.18 21.35 31.4 20.77 C 32.06 19.03 32.78 17.37 33.57 15.81 C 37.78 7.38 43.22 2.55 49 2.04 L 49 24.5 Z M 58.41 97.26 C 59.01 96.85 59.6 96.4 60.19 95.91 C 63.21 93.35 65.91 89.71 68.23 85.09 C 69.34 82.86 70.34 80.46 71.21 77.92 C 75.97 79.08 80.36 80.64 84.21 82.57 C 84.44 82.69 84.67 82.81 84.9 82.93 C 77.97 90.27 68.75 95.43 58.41 97.26 Z" fill="var(--icon-secondary, #6c8ebf)" stroke="none" stroke-width="0"/><path d="M 97 87.03 L 3 87.03 C 1.9 87.03 1 86.13 1 85.03 L 1 73.03 C 1 71.93 1.9 71.03 3 71.03 L 97 71.03 C 98.1 71.03 99 71.93 99 73.03 L 99 85.03 C 99 86.13 98.1 87.03 97 87.03 Z" fill="var(--icon-secondary, #6c8ebf)" stroke="none" stroke-width="0"/><rect x="18" y="75.5" width="64" height="7" fill="var(--icon-secondary, #6c8ebf)" stroke="none" stroke-width="0"/><path d="M 97 70 L 3 70 C 1.35 70 0 71.35 0 73 L 0 85 C 0 85.81 0.33 86.55 0.86 87.1 L 0.91 87.15 C 1.45 87.67 2.18 88 3 88 L 97 88 C 98.65 88 100 86.65 100 85 L 100 73 C 100 71.35 98.65 70 97 70 Z M 98 85 C 98 85.2 97.94 85.38 97.84 85.53 C 97.76 85.66 97.65 85.76 97.53 85.84 C 97.38 85.94 97.2 86 97 86 L 93.5 86 L 86.72 83.94 L 82 82.5 L 18 82.5 L 6.5 86 L 3 86 C 2.45 86 2 85.55 2 85 L 2 73 C 2 72.45 2.45 72 3 72 L 6.5 72 L 9.14 72.8 L 18 75.5 L 82 75.5 L 89.12 73.33 L 93.5 72 L 97 72 C 97.55 72 98 72.45 98 73 L 98 85 Z M 9.71 79 C 9.71 80.1 8.81 81 7.71 81 C 6.61 81 5.71 80.1 5.71 79 C 5.71 77.9 6.61 77 7.71 77 C 8.81 77 9.71 77.9 9.71 79 Z" fill="var(--icon-secondary, #6c8ebf)" stroke="none" stroke-width="0"/></svg>