<svg xmlns="http://www.w3.org/2000/svg" viewBox="0 0 140 140" width="140" height="140"><path d="M 140 69.29 L 140 135 C 140 137.76 137.76 140 135 140 L 69.3 140 L 35.16 105.85 C 39.64 110.21 44.81 113.64 50.54 116.07 C 56.65 118.66 63.14 119.98 69.83 120 C 69.89 120 69.94 120 70 120 C 70.06 120 70.11 120 70.17 120 C 76.86 119.98 83.35 118.66 89.46 116.07 C 95.41 113.55 100.76 109.95 105.35 105.35 C 105.82 104.88 106.27 104.41 106.72 103.93 C 107.18 103.43 107.64 102.92 108.07 102.41 C 111.38 98.53 114.06 94.19 116.06 89.46 C 118.68 83.3 120 76.75 120 70 C 120 63.25 118.68 56.7 116.07 50.54 C 114.07 45.82 111.39 41.48 108.08 37.59 C 107.64 37.07 107.19 36.57 106.73 36.07 C 106.31 35.62 105.89 35.17 105.45 34.73 L 140 69.29 Z" fill="var(--icon-primary, #dae8fc)" stroke="none" stroke-width="0" opacity="0.25"/></svg>