<svg xmlns="http://www.w3.org/2000/svg" viewBox="0 0 96.77 77.22" width="96.77" height="77.22"><ellipse cx="48.26" cy="38.27" rx="25" ry="25" fill="var(--icon-primary, #dae8fc)" stroke="none" stroke-width="0"/><path d="M 29.88 56.65 C 29.96 56.73 30.03 56.8 30.11 56.88 L 30.14 56.9 C 35.02 61.65 41.44 64.26 48.27 64.26 C 55.21 64.26 61.74 61.56 66.65 56.65 C 71.56 51.74 74.27 45.21 74.27 38.27 C 74.27 31.33 71.57 24.8 66.65 19.88 C 61.74 14.97 55.21 12.27 48.27 12.27 C 46.88 12.27 45.5 12.38 44.15 12.59 C 38.77 13.44 33.81 15.96 29.88 19.88 C 25.95 23.81 23.44 28.77 22.59 34.15 C 22.38 35.5 22.27 36.87 22.27 38.27 C 22.27 45.09 24.88 51.52 29.63 56.4 L 29.66 56.43 C 29.72 56.5 29.8 56.57 29.88 56.65 Z M 54.45 61.46 C 55.76 60.18 56.96 58.48 58 56.39 C 58.51 55.36 58.98 54.26 59.39 53.1 C 61.53 53.65 63.51 54.35 65.25 55.2 C 62.3 58.16 58.59 60.35 54.45 61.46 Z M 66.65 53.67 C 64.7 52.67 62.45 51.83 60 51.2 C 61.06 47.59 61.66 43.52 61.75 39.26 L 72.24 39.26 C 72.01 44.74 69.95 49.74 66.65 53.67 Z M 66.65 22.86 C 69.95 26.79 72.01 31.79 72.24 37.26 L 61.75 37.26 C 61.67 33.01 61.07 28.93 60.01 25.32 C 62.45 24.7 64.7 23.87 66.65 22.86 Z M 65.25 21.33 C 63.51 22.18 61.53 22.88 59.39 23.43 C 58.98 22.27 58.51 21.17 58 20.14 C 56.96 18.05 55.76 16.35 54.45 15.07 C 58.59 16.18 62.3 18.38 65.25 21.33 Z M 49.26 14.36 C 51.84 14.84 54.27 17.17 56.2 21.03 C 56.65 21.92 57.05 22.87 57.42 23.87 C 54.84 24.39 52.09 24.69 49.26 24.75 L 49.26 14.36 Z M 49.26 26.76 C 52.3 26.7 55.28 26.37 58.05 25.79 C 59.08 29.24 59.66 33.16 59.74 37.27 L 49.26 37.27 L 49.26 26.76 Z M 49.26 39.27 L 59.75 39.27 C 59.67 43.38 59.08 47.3 58.06 50.75 C 55.28 50.17 52.31 49.84 49.26 49.78 L 49.26 39.27 Z M 49.26 51.78 C 52.09 51.84 54.85 52.14 57.42 52.66 C 57.05 53.66 56.65 54.61 56.2 55.5 C 54.27 59.37 51.83 61.69 49.26 62.17 L 49.26 51.78 Z M 31.27 55.2 C 33.01 54.35 34.99 53.65 37.13 53.1 C 37.54 54.26 38.01 55.36 38.52 56.39 C 39.56 58.48 40.76 60.18 42.07 61.46 C 37.93 60.35 34.22 58.16 31.27 55.2 Z M 47.26 62.17 C 44.68 61.69 42.25 59.36 40.32 55.5 C 39.87 54.61 39.47 53.66 39.1 52.66 C 41.68 52.14 44.43 51.84 47.26 51.78 L 47.26 62.17 Z M 47.26 49.78 C 44.22 49.84 41.24 50.17 38.46 50.75 C 37.43 47.3 36.85 43.38 36.77 39.27 L 47.26 39.27 L 47.26 49.78 Z M 47.26 37.27 L 36.77 37.27 C 36.85 33.16 37.44 29.24 38.46 25.79 C 41.24 26.37 44.21 26.7 47.25 26.76 L 47.25 37.27 Z M 47.26 14.36 L 47.26 24.75 C 44.43 24.69 41.67 24.39 39.1 23.87 C 39.47 22.87 39.87 21.92 40.32 21.03 C 42.25 17.17 44.69 14.84 47.26 14.36 Z M 41.5 15.24 C 41.69 15.18 41.89 15.13 42.08 15.08 C 40.77 16.36 39.57 18.06 38.53 20.15 C 38.02 21.18 37.55 22.28 37.14 23.44 C 35 22.89 33.02 22.19 31.28 21.34 C 34.08 18.51 37.58 16.39 41.5 15.24 Z M 25.23 31.5 C 26.17 28.29 27.77 25.36 29.87 22.86 C 31.82 23.86 34.07 24.7 36.51 25.33 C 35.45 28.94 34.85 33.01 34.77 37.27 L 24.28 37.27 C 24.36 35.27 24.69 33.34 25.23 31.5 Z M 24.28 39.27 L 34.77 39.27 C 34.85 43.52 35.45 47.6 36.52 51.21 C 34.08 51.84 31.83 52.67 29.87 53.68 C 26.57 49.74 24.51 44.74 24.28 39.27 Z M 96.66 36.12 L 89.68 55.56 C 89.54 55.96 89.16 56.22 88.74 56.22 C 88.32 56.22 87.94 55.96 87.8 55.56 L 80.82 36.12 C 80.71 35.81 80.76 35.47 80.94 35.21 C 81.13 34.94 81.43 34.79 81.76 34.79 L 87.1 34.79 L 87.1 7.94 C 87.09 5.77 85.25 4 83 4 L 6.49 4 L 6.49 0 L 82.99 0 C 87.45 0 91.08 3.56 91.08 7.94 L 91.08 34.77 L 95.71 34.77 C 96.04 34.77 96.34 34.93 96.53 35.19 C 96.72 35.47 96.77 35.81 96.66 36.12 Z M 13.81 73.22 L 90.56 73.22 L 90.56 77.22 L 13.81 77.22 C 9.34 77.22 5.7 73.66 5.7 69.28 L 5.7 42.44 L 1.05 42.44 C 0.72 42.44 0.42 42.28 0.23 42.01 C 0.04 41.74 0 41.4 0.11 41.1 L 7.11 21.66 C 7.26 21.27 7.63 21 8.05 21 C 8.47 21 8.85 21.26 8.99 21.66 L 15.99 41.1 C 16.1 41.41 16.05 41.75 15.87 42.01 C 15.68 42.28 15.38 42.44 15.05 42.44 L 9.7 42.44 L 9.7 69.27 C 9.7 71.45 11.54 73.22 13.81 73.22 Z" fill="var(--icon-secondary, #6c8ebf)" stroke="none" stroke-width="0"/></svg>