<svg xmlns="http://www.w3.org/2000/svg" viewBox="0 0 108.34 75.64" width="108.34" height="75.64"><path d="M 107.64 22.07 L 103.39 22.07 C 103.57 21.9 103.69 21.65 103.69 21.37 L 103.69 0.96 C 103.69 0.7 103.58 0.46 103.42 0.29 L 103.4 0.27 C 103.23 0.1 103 0 102.74 0 L 67.27 0 C 66.74 0 66.31 0.43 66.31 0.96 L 66.31 21.37 C 66.31 21.64 66.43 21.89 66.61 22.07 L 62.36 22.07 C 61.97 22.07 61.66 22.38 61.66 22.77 L 61.66 23.73 C 61.66 24.55 61.99 25.29 62.52 25.84 C 62.54 25.86 62.57 25.89 62.59 25.91 C 63.14 26.44 63.88 26.77 64.7 26.77 L 83 26.77 L 83 36.07 L 25.34 36.07 L 25.34 26.77 L 43.65 26.77 C 45.32 26.77 46.68 25.41 46.68 23.73 L 46.68 22.77 C 46.68 22.38 46.37 22.07 45.98 22.07 L 41.73 22.07 C 41.92 21.9 42.03 21.65 42.03 21.37 L 42.03 0.96 C 42.03 0.7 41.93 0.46 41.76 0.29 L 41.74 0.27 C 41.58 0.1 41.34 0 41.08 0 L 5.61 0 C 5.08 0 4.64 0.43 4.64 0.96 L 4.64 21.37 C 4.64 21.64 4.76 21.89 4.94 22.07 L 0.7 22.07 C 0.31 22.07 0 22.38 0 22.77 L 0 23.73 C 0 24.54 0.32 25.27 0.83 25.81 L 0.84 25.82 C 0.84 25.82 0.85 25.83 0.85 25.83 C 0.87 25.85 0.89 25.88 0.92 25.9 C 0.92 25.9 0.93 25.91 0.93 25.91 L 0.94 25.92 C 1.48 26.44 2.22 26.75 3.02 26.75 L 21.33 26.75 L 21.33 38.05 C 21.33 38.58 21.54 39.09 21.92 39.46 C 22.3 39.83 22.8 40.05 23.33 40.05 L 52.16 40.05 L 52.16 48.87 L 36.44 48.87 C 35.91 48.87 35.48 49.3 35.48 49.83 L 35.48 70.24 C 35.48 70.51 35.6 70.76 35.78 70.94 L 31.53 70.94 C 31.14 70.94 30.83 71.25 30.83 71.64 L 30.83 72.6 C 30.83 73.42 31.16 74.16 31.69 74.71 L 31.76 74.78 C 32.31 75.31 33.05 75.64 33.87 75.64 L 74.49 75.64 C 76.16 75.64 77.52 74.28 77.52 72.6 L 77.52 71.64 C 77.52 71.25 77.21 70.94 76.82 70.94 L 72.57 70.94 C 72.76 70.76 72.87 70.52 72.87 70.24 L 72.87 49.85 C 72.87 49.59 72.76 49.35 72.6 49.18 C 72.59 49.18 72.59 49.17 72.58 49.16 C 72.41 48.99 72.17 48.89 71.91 48.89 L 56.17 48.89 L 56.17 40.07 L 85 40.07 C 86.1 40.07 87 39.17 87 38.07 L 87 26.77 L 105.31 26.77 C 106.98 26.77 108.34 25.41 108.34 23.73 L 108.34 22.77 C 108.34 22.38 108.03 22.07 107.64 22.07 Z M 7.58 2.93 L 39.11 2.93 L 39.11 19.4 L 7.58 19.4 L 7.58 2.93 Z M 69.94 51.82 L 69.94 68.28 L 38.41 68.28 L 38.41 51.82 L 69.94 51.82 Z M 100.76 19.4 L 69.24 19.4 L 69.24 2.93 L 100.77 2.93 L 100.77 19.4 Z" fill="var(--icon-secondary, #6c8ebf)" stroke="none" stroke-width="0"/><path d="M 7.58 2.93 L 7.58 19.4 L 39.11 19.4 L 39.11 2.93 L 7.58 2.93 Z M 69.24 2.93 L 69.24 19.4 L 100.77 19.4 L 100.77 2.93 L 69.24 2.93 Z M 38.41 51.82 L 38.41 68.28 L 69.94 68.28 L 69.94 51.82 L 38.41 51.82 Z M 28.46 23.5 L 18.26 23.5 C 17.98 23.5 17.76 23.28 17.76 23 L 17.76 22.5 C 17.76 22.22 17.98 22 18.26 22 L 28.46 22 C 28.74 22 28.96 22.22 28.96 22.5 L 28.96 23 C 28.96 23.28 28.73 23.5 28.46 23.5 Z M 90.6 23.13 L 90.6 22.63 C 90.6 22.35 90.38 22.13 90.1 22.13 L 79.9 22.13 C 79.62 22.13 79.4 22.35 79.4 22.63 L 79.4 23.13 C 79.4 23.41 79.62 23.63 79.9 23.63 L 90.1 23.63 C 90.38 23.63 90.6 23.4 90.6 23.13 Z M 59.79 72.08 L 59.79 71.58 C 59.79 71.3 59.57 71.08 59.29 71.08 L 49.09 71.08 C 48.81 71.08 48.59 71.3 48.59 71.58 L 48.59 72.08 C 48.59 72.36 48.81 72.58 49.09 72.58 L 59.29 72.58 C 59.56 72.58 59.79 72.36 59.79 72.08 Z" fill="var(--icon-secondary, #6c8ebf)" stroke="none" stroke-width="0"/></svg>