<svg xmlns="http://www.w3.org/2000/svg" viewBox="0 0 140 140" width="140" height="140"><path d="M 119.25 38.05 C 119.42 38.22 119.52 38.46 119.52 38.72 L 119.52 59.13 C 119.52 59.41 119.4 59.65 119.22 59.83 L 123.47 59.83 C 123.86 59.83 124.17 60.14 124.17 60.53 L 124.17 61.49 C 124.17 63.16 122.81 64.52 121.14 64.52 L 102.83 64.52 L 102.83 75.82 C 102.83 76.92 101.93 77.82 100.83 77.82 L 72 77.82 L 72 86.64 L 87.74 86.64 C 88 86.64 88.24 86.75 88.41 86.91 C 88.42 86.91 88.42 86.92 88.43 86.93 C 88.6 87.1 88.7 87.34 88.7 87.6 L 88.7 108.01 C 88.7 108.29 88.58 108.53 88.4 108.71 L 92.65 108.71 C 93.04 108.71 93.35 109.02 93.35 109.41 L 93.35 110.37 C 93.35 112.04 91.99 113.41 90.32 113.41 L 49.69 113.41 C 48.87 113.41 48.13 113.08 47.58 112.55 L 75.03 140 L 135 140 C 137.76 140 140 137.76 140 135 L 140 58.8 L 119.25 38.05 Z M 80.52 64.53 C 79.7 64.53 78.96 64.2 78.41 63.67 C 78.39 63.65 78.36 63.62 78.34 63.6 C 77.81 63.05 77.48 62.31 77.48 61.49 L 77.48 60.53 C 77.48 60.14 77.79 59.83 78.18 59.83 L 79.36 59.83 L 57.59 38.05 C 57.76 38.22 57.86 38.46 57.86 38.72 L 57.86 59.13 C 57.86 59.41 57.74 59.65 57.56 59.83 L 61.81 59.83 C 62.2 59.83 62.51 60.14 62.51 60.53 L 62.51 61.49 C 62.51 63.16 61.15 64.52 59.48 64.52 L 41.17 64.52 L 41.17 73.82 L 98.83 73.82 L 98.83 64.52 L 80.52 64.52 Z M 39.17 77.83 C 38.64 77.83 38.13 77.62 37.76 77.24 C 37.39 76.86 37.17 76.36 37.17 75.83 L 37.17 64.53 L 18.86 64.53 C 18.05 64.53 17.32 64.21 16.78 63.7 L 51.3 98.22 L 51.3 87.61 C 51.3 87.08 51.73 86.65 52.26 86.65 L 68 86.65 L 68 77.83 L 39.17 77.83 Z" fill="var(--icon-primary, #dae8fc)" stroke="none" stroke-width="0" opacity="0.25"/></svg>