<svg xmlns="http://www.w3.org/2000/svg" viewBox="0 0 140 140" width="140" height="140"><path d="M 80.71 32.29 C 80.89 32.47 81 32.72 81 33 L 81 53 C 81 53.55 80.55 54 80 54 L 72 54 L 72 66.41 L 73.59 68 L 102 68 C 103.11 68 104 68.9 104 70 L 104 86 L 112 86 C 112.27 86 112.52 86.11 112.7 86.28 L 112.72 86.3 C 112.89 86.48 113 86.72 113 87 L 113 107 C 113 107.12 112.98 107.24 112.94 107.35 C 112.8 107.73 112.43 108 112 108 L 92 108 C 91.72 108 91.47 107.89 91.29 107.71 C 91.11 107.53 91 107.28 91 107 L 91 96.59 L 80.71 86.29 C 80.89 86.47 81 86.72 81 87 L 81 107 C 81 107.55 80.55 108 80 108 L 60 108 C 59.72 108 59.47 107.89 59.29 107.71 C 59.11 107.53 59 107.28 59 107 L 59 96.59 L 48.71 86.29 C 48.89 86.47 49 86.72 49 87 L 49 107 C 49 107.55 48.55 108 48 108 L 28 108 C 27.72 108 27.47 107.89 27.29 107.71 L 59.59 140 L 135 140 C 137.76 140 140 137.76 140 135 L 140 91.59 L 80.71 32.29 Z M 60 54 C 59.72 54 59.47 53.89 59.29 53.71 L 68 62.41 L 68 54 L 60 54 Z M 77.59 72 L 91.65 86.06 C 91.76 86.02 91.88 86 92 86 L 100 86 L 100 72 L 77.59 72 Z" fill="var(--icon-primary, #dae8fc)" stroke="none" stroke-width="0" opacity="0.25"/></svg>