<svg xmlns="http://www.w3.org/2000/svg" viewBox="0 0 86 76" width="86" height="76"><path d="M 53 21 L 33 21 L 33 1 L 53 1 L 53 21 Z M 85 55 L 65 55 L 65 75 L 85 75 L 85 55 Z M 53 55 L 33 55 L 33 75 L 53 75 L 53 55 Z M 21 55 L 1 55 L 1 75 L 21 75 L 21 55 Z" fill="var(--icon-primary, #dae8fc)" stroke="none" stroke-width="0"/><path d="M 85.72 54.3 L 85.7 54.28 C 85.52 54.11 85.27 54 85 54 L 77 54 L 77 38 C 77 36.9 76.11 36 75 36 L 45 36 L 45 22 L 53 22 C 53.55 22 54 21.55 54 21 L 54 1 C 54 0.72 53.89 0.47 53.71 0.29 C 53.53 0.11 53.28 0 53 0 L 33 0 C 32.45 0 32 0.45 32 1 L 32 21 C 32 21.28 32.11 21.53 32.29 21.71 C 32.47 21.89 32.72 22 33 22 L 41 22 L 41 36 L 11 36 C 9.9 36 9 36.9 9 38 L 9 54 L 1 54 C 0.45 54 0 54.45 0 55 L 0 75 C 0 75.28 0.11 75.53 0.29 75.71 C 0.47 75.89 0.72 76 1 76 L 21 76 C 21.55 76 22 75.55 22 75 L 22 55 C 22 54.72 21.89 54.47 21.71 54.29 C 21.53 54.11 21.28 54 21 54 L 13 54 L 13 40 L 41 40 L 41 54 L 33 54 C 32.45 54 32 54.45 32 55 L 32 75 C 32 75.28 32.11 75.53 32.29 75.71 C 32.47 75.89 32.72 76 33 76 L 53 76 C 53.55 76 54 75.55 54 75 L 54 55 C 54 54.72 53.89 54.47 53.71 54.29 C 53.53 54.11 53.28 54 53 54 L 45 54 L 45 40 L 73 40 L 73 54 L 65 54 C 64.88 54 64.76 54.02 64.65 54.06 C 64.27 54.2 64 54.57 64 55 L 64 75 C 64 75.28 64.11 75.53 64.29 75.71 C 64.47 75.89 64.72 76 65 76 L 85 76 C 85.43 76 85.79 75.73 85.94 75.35 C 85.98 75.24 86 75.12 86 75 L 86 55 C 86 54.73 85.89 54.48 85.72 54.3 Z M 34 20 L 34 2 L 52 2 L 52 20 L 34 20 Z M 20 56 L 20 74 L 2 74 L 2 56 L 20 56 Z M 52 56 L 52 74 L 34 74 L 34 56 L 52 56 Z M 84 74 L 66 74 L 66 56 L 84 56 L 84 74 Z" fill="var(--icon-secondary, #6c8ebf)" stroke="none" stroke-width="0"/></svg>