<svg xmlns="http://www.w3.org/2000/svg" viewBox="0 0 80 99.99" width="80" height="99.99"><path d="M 8.82 43.55 C 5.06 43.55 2 46.61 2 50.38 L 2 91.23 C 2 94.99 5.06 98.06 8.82 98.06 L 71.17 98.06 C 74.93 98.06 77.99 95 77.99 91.23 L 77.99 50.38 C 77.99 46.62 74.93 43.55 71.17 43.55 L 8.82 43.55 Z" fill="var(--icon-primary, #dae8fc)" stroke="none" stroke-width="0"/><path d="M 77.76 44.51 C 77.71 44.46 77.66 44.4 77.61 44.35 C 77.56 44.3 77.51 44.25 77.45 44.19 C 75.87 42.65 73.71 41.7 71.33 41.7 L 68.67 41.7 L 68.67 28.68 C 68.68 12.86 55.81 0 40 0 C 24.19 0 11.32 12.86 11.32 28.68 L 11.32 41.7 L 8.67 41.7 C 6.13 41.7 3.84 42.78 2.24 44.51 C 0.85 46.07 0 48.12 0 50.38 L 0 91.23 C 0 93.64 0.97 95.82 2.53 97.41 L 2.62 97.5 C 3.56 98.43 4.71 99.15 5.98 99.58 C 6.01 99.59 6.03 99.6 6.06 99.6 C 6.88 99.86 7.76 99.99 8.66 99.99 L 71.32 99.99 C 72.23 99.99 73.1 99.85 73.92 99.6 C 73.95 99.59 73.97 99.58 74 99.58 C 77.49 98.4 80 95.1 80 91.22 L 80 50.38 C 80 48.12 79.15 46.07 77.76 44.51 Z M 22.89 28.68 C 22.89 19.24 30.57 11.57 40 11.57 C 49.19 11.57 56.71 18.85 57.09 27.95 C 57.1 28.19 57.11 28.44 57.11 28.68 L 57.11 41.7 L 22.89 41.7 L 22.89 28.68 Z M 78 91.22 C 78 94.98 74.94 98.05 71.18 98.05 L 8.82 98.05 C 5.06 98.05 2 94.99 2 91.22 L 2 50.38 C 2 46.62 5.06 43.55 8.82 43.55 L 71.17 43.55 C 74.93 43.55 77.99 46.61 77.99 50.38 L 77.99 91.22 Z M 47.5 68.22 C 47.5 71.24 45.72 73.84 43.14 75.03 L 43.14 83.14 C 43.14 84.88 41.73 86.28 40 86.28 C 38.26 86.28 36.85 84.87 36.85 83.14 L 36.85 75.02 C 34.28 73.83 32.5 71.23 32.5 68.21 C 32.5 64.07 35.86 60.71 40 60.71 C 44.14 60.72 47.5 64.08 47.5 68.22 Z" fill="var(--icon-secondary, #6c8ebf)" stroke="none" stroke-width="0"/></svg>