<svg xmlns="http://www.w3.org/2000/svg" viewBox="0 0 140 140" width="140" height="140"><path d="M 140 96.74 L 140 135 C 140 137.76 137.76 140 135 140 L 55.13 140 L 32.63 117.5 C 33.57 118.43 34.72 119.15 35.99 119.58 C 36.02 119.59 36.04 119.6 36.07 119.6 C 36.89 119.86 37.77 119.99 38.67 119.99 L 101.33 119.99 C 102.24 119.99 103.11 119.85 103.93 119.6 C 103.96 119.59 103.98 119.58 104.01 119.58 C 107.49 118.4 110 115.1 110 111.22 L 110 70.38 C 110 68.13 109.15 66.07 107.76 64.51 C 107.71 64.46 107.66 64.4 107.61 64.35 L 140 96.74 Z" fill="var(--icon-primary, #dae8fc)" stroke="none" stroke-width="0" opacity="0.25"/></svg>