<svg xmlns="http://www.w3.org/2000/svg" viewBox="0 0 140 140" width="140" height="140"><path d="M 89.5 29.07 C 89.5 28.79 89.39 28.54 89.21 28.36 L 109.56 48.71 L 89.5 48.71 L 89.5 29.07 Z M 119.14 49.62 C 119.67 50.16 120 50.9 120 51.72 L 120 63.72 C 120 65.37 118.65 66.72 117 66.72 L 23 66.72 C 22.2 66.72 21.47 66.4 20.93 65.89 L 23.81 68.77 L 117 68.77 C 118.65 68.77 120 70.12 120 71.77 L 120 83.77 C 120 85.42 118.65 86.77 117 86.77 L 23 86.77 C 22.17 86.77 21.42 86.43 20.88 85.89 L 23.81 88.82 L 117 88.82 C 117.87 88.82 118.65 89.19 119.2 89.79 C 119.7 90.32 120 91.04 120 91.82 L 120 103.82 C 120 105.47 118.65 106.82 117 106.82 L 23 106.82 C 22.18 106.82 21.45 106.49 20.9 105.96 L 54.93 140 L 135 140 C 137.76 140 140 137.76 140 135 L 140 70.48 L 119.14 49.62 Z" fill="var(--icon-primary, #dae8fc)" stroke="none" stroke-width="0" opacity="0.25"/></svg>