<svg xmlns="http://www.w3.org/2000/svg" viewBox="0 0 100 78.75" width="100" height="78.75"><path d="M 97 57.73 L 3 57.73 C 1.9 57.73 1 56.83 1 55.73 L 1 43.73 C 1 42.63 1.9 41.73 3 41.73 L 97 41.73 C 98.1 41.73 99 42.63 99 43.73 L 99 55.73 C 99 56.83 98.1 57.73 97 57.73 Z M 99 35.67 L 99 23.67 C 99 22.57 98.1 21.67 97 21.67 L 3 21.67 C 1.9 21.67 1 22.57 1 23.67 L 1 35.67 C 1 36.77 1.9 37.67 3 37.67 L 97 37.67 C 98.1 37.67 99 36.78 99 35.67 Z M 68.5 1 L 31.5 1 L 31.5 25 L 68.5 25 L 68.5 1 Z M 99 75.78 L 99 63.78 C 99 62.68 98.1 61.78 97 61.78 L 3 61.78 C 1.9 61.78 1 62.68 1 63.78 L 1 75.78 C 1 76.88 1.9 77.78 3 77.78 L 97 77.78 C 98.1 77.78 99 76.89 99 75.78 Z" fill="var(--icon-primary, #dae8fc)" stroke="none" stroke-width="0"/><path d="M 82 53.2 L 18 53.2 L 18 46.2 L 82 46.2 L 82 53.2 Z M 82 26.15 L 18 26.15 L 18 33.15 L 82 33.15 L 82 26.15 Z M 82 66.26 L 18 66.26 L 18 73.26 L 82 73.26 L 82 66.26 Z" fill="var(--icon-secondary, #6c8ebf)" stroke="none" stroke-width="0"/><path d="M 9.71 49.7 C 9.71 50.8 8.81 51.7 7.71 51.7 C 6.61 51.7 5.71 50.8 5.71 49.7 C 5.71 48.6 6.61 47.7 7.71 47.7 C 8.81 47.7 9.71 48.6 9.71 49.7 Z M 7.71 27.65 C 6.61 27.65 5.71 28.55 5.71 29.65 C 5.71 30.75 6.61 31.65 7.71 31.65 C 8.81 31.65 9.71 30.75 9.71 29.65 C 9.71 28.54 8.82 27.65 7.71 27.65 Z M 100 43.7 L 100 55.7 C 100 57.35 98.65 58.7 97 58.7 L 3 58.7 C 2.17 58.7 1.42 58.36 0.88 57.82 C 0.45 57.4 0.16 56.84 0.05 56.23 C 0.02 56.06 0 55.88 0 55.7 L 0 43.7 C 0 42.05 1.35 40.7 3 40.7 L 97 40.7 C 98.65 40.7 100 42.05 100 43.7 Z M 98 43.7 C 98 43.15 97.55 42.7 97 42.7 L 93.5 42.7 L 91.73 43.24 L 82 46.2 L 18 46.2 L 11.92 44.35 L 8.24 43.23 L 6.5 42.7 L 3 42.7 C 2.45 42.7 2 43.15 2 43.7 L 2 55.7 C 2 56.25 2.45 56.7 3 56.7 L 6.5 56.7 L 16.71 53.59 L 16.71 53.59 L 18 53.2 L 82 53.2 L 84.46 53.95 L 93.5 56.7 L 97 56.7 C 97.55 56.7 98 56.25 98 55.7 L 98 43.7 Z M 100 23.65 L 100 35.65 C 100 37.3 98.65 38.65 97 38.65 L 3 38.65 C 2.2 38.65 1.47 38.33 0.93 37.82 L 0.83 37.72 C 0.32 37.18 0 36.45 0 35.65 L 0 23.65 C 0 22 1.35 20.65 3 20.65 L 30.5 20.65 L 30.5 1 C 30.5 0.45 30.95 0 31.5 0 L 68.5 0 C 68.78 0 69.03 0.11 69.21 0.29 C 69.39 0.47 69.5 0.72 69.5 1 L 69.5 20.65 L 97 20.65 C 97.82 20.65 98.56 20.98 99.09 21.51 L 99.14 21.56 C 99.67 22.09 100 22.83 100 23.65 Z M 34.88 2 L 45.08 8.61 L 50 11.81 L 65.12 2 L 34.88 2 Z M 32.5 24 L 67.5 24 L 67.5 2.84 L 50.54 13.84 C 50.38 13.95 50.19 14 50 14 C 49.81 14 49.62 13.95 49.46 13.84 L 43.63 10.06 L 32.5 2.84 L 32.5 24 Z M 98 23.65 C 98 23.1 97.55 22.65 97 22.65 L 93.5 22.65 L 92.01 23.1 L 91.67 23.2 L 82 26.15 L 18 26.15 L 10.43 23.85 L 6.9 22.77 L 6.5 22.65 L 3 22.65 C 2.45 22.65 2 23.1 2 23.65 L 2 35.65 C 2 36.2 2.45 36.65 3 36.65 L 6.5 36.65 L 18 33.15 L 82 33.15 L 83.05 33.47 L 93.5 36.65 L 97 36.65 C 97.55 36.65 98 36.2 98 35.65 L 98 23.65 Z M 100 63.75 L 100 75.75 C 100 77.4 98.65 78.75 97 78.75 L 3 78.75 C 2.18 78.75 1.45 78.42 0.9 77.89 L 0.85 77.84 C 0.33 77.31 0 76.57 0 75.75 L 0 63.75 C 0 62.1 1.35 60.75 3 60.75 L 97 60.75 C 97.87 60.75 98.65 61.12 99.2 61.72 C 99.7 62.26 100 62.97 100 63.75 Z M 97.79 63.14 C 97.61 62.91 97.32 62.76 97 62.76 L 93.5 62.76 L 82 66.25 L 18 66.25 L 9.14 63.55 L 6.5 62.75 L 3 62.75 C 2.45 62.75 2 63.2 2 63.75 L 2 75.75 C 2 76.3 2.45 76.75 3 76.75 L 6.5 76.75 L 16.71 73.64 L 18 73.25 L 82 73.25 L 86.34 74.57 L 93.5 76.75 L 97 76.75 C 97.55 76.75 98 76.3 98 75.75 L 98 63.75 C 98 63.52 97.92 63.31 97.79 63.14 Z M 7.71 67.76 C 6.61 67.76 5.71 68.66 5.71 69.76 C 5.71 70.86 6.61 71.76 7.71 71.76 C 8.81 71.76 9.71 70.86 9.71 69.76 C 9.71 68.66 8.82 67.76 7.71 67.76 Z" fill="var(--icon-secondary, #6c8ebf)" stroke="none" stroke-width="0"/></svg>