<svg xmlns="http://www.w3.org/2000/svg" viewBox="0 0 52.97 102" width="52.97" height="102"><path d="M 44.98 101 L 7.02 101 C 3.7 101 1 98.3 1 94.98 L 1 7.02 C 1 3.7 3.7 1 7.02 1 L 44.98 1 C 48.3 1 51 3.7 51 7.02 L 51 94.98 C 51 98.3 48.3 101 44.98 101 Z" fill="var(--icon-primary, #dae8fc)" stroke="none" stroke-width="0"/><path d="M 26 7.75 C 24.98 7.75 24.16 6.92 24.16 5.91 C 24.16 4.9 24.98 4.07 26 4.07 C 27.02 4.07 27.84 4.9 27.84 5.91 C 27.84 6.92 27.02 7.75 26 7.75 Z M 52.97 33.48 L 52.97 17.21 C 52.97 16.67 52.54 16.23 52 16.21 L 52 7.02 C 52 5.08 51.21 3.33 49.94 2.06 C 48.67 0.79 46.91 0 44.98 0 L 7.02 0 C 3.15 0 0 3.15 0 7.02 L 0 94.98 C 0 96.92 0.79 98.67 2.06 99.94 C 3.33 101.21 5.09 102 7.02 102 L 44.98 102 C 48.85 102 52 98.85 52 94.98 L 52 42.95 C 52.54 42.93 52.97 42.49 52.97 41.95 L 52.97 36.67 C 52.97 36.13 52.54 35.69 52 35.67 L 52 34.47 C 52.54 34.46 52.97 34.02 52.97 33.48 Z M 50 94.98 C 50 97.75 47.75 100 44.98 100 L 7.02 100 C 4.25 100 2 97.75 2 94.98 L 2 7.02 C 2 4.25 4.25 2 7.02 2 L 44.98 2 C 47.75 2 50 4.25 50 7.02 L 50 94.98 Z" fill="var(--icon-secondary, #6c8ebf)" stroke="none" stroke-width="0"/></svg>