<svg xmlns="http://www.w3.org/2000/svg" viewBox="0 0 52.97 102" width="52.97" height="102"><path d="M 44.98 101 L 7.02 101 C 3.7 101 1 98.3 1 94.98 L 1 7.02 C 1 3.7 3.7 1 7.02 1 L 44.98 1 C 48.3 1 51 3.7 51 7.02 L 51 94.98 C 51 98.3 48.3 101 44.98 101 Z" fill="var(--icon-primary, #dae8fc)" stroke="none" stroke-width="0"/><path d="M 26 7.75 C 24.98 7.75 24.16 6.92 24.16 5.91 C 24.16 4.9 24.98 4.07 26 4.07 C 27.02 4.07 27.84 4.9 27.84 5.91 C 27.84 6.92 27.02 7.75 26 7.75 Z M 52.97 33.48 L 52.97 17.21 C 52.97 16.67 52.54 16.23 52 16.21 L 52 7.02 C 52 5.08 51.21 3.33 49.94 2.06 C 48.67 0.79 46.91 0 44.98 0 L 7.02 0 C 3.15 0 0 3.15 0 7.02 L 0 94.98 C 0 96.92 0.79 98.67 2.06 99.94 C 3.33 101.21 5.09 102 7.02 102 L 44.98 102 C 48.85 102 52 98.85 52 94.98 L 52 42.95 C 52.54 42.93 52.97 42.49 52.97 41.95 L 52.97 36.67 C 52.97 36.13 52.54 35.69 52 35.67 L 52 34.47 C 52.54 34.46 52.97 34.02 52.97 33.48 Z M 50 94.98 C 50 97.75 47.75 100 44.98 100 L 7.02 100 C 4.25 100 2 97.75 2 94.98 L 2 7.02 C 2 4.25 4.25 2 7.02 2 L 44.98 2 C 47.75 2 50 4.25 50 7.02 L 50 94.98 Z M 12.72 57.11 L 16.28 53.55 C 16.92 52.91 18 53.36 18 54.26 L 18 57.82 C 18 58.38 17.55 58.83 16.99 58.83 L 13.43 58.83 C 12.54 58.83 12.09 57.75 12.72 57.11 Z M 23.78 46.06 L 20.12 49.72 C 19.4 50.43 19 51.4 19 52.41 L 19 57.82 C 19 58.38 19.45 58.83 20.01 58.83 L 24.49 58.83 C 25.05 58.83 25.5 58.38 25.5 57.82 L 25.5 46.77 C 25.5 45.87 24.41 45.42 23.78 46.06 Z M 31.28 38.56 L 27.62 42.22 C 26.9 42.94 26.5 43.91 26.5 44.92 L 26.5 57.83 C 26.5 58.39 26.95 58.84 27.51 58.84 L 31.99 58.84 C 32.55 58.84 33 58.39 33 57.83 L 33 39.27 C 33 38.37 31.91 37.92 31.28 38.56 Z M 39.28 30.56 L 35.12 34.72 C 34.4 35.43 34 36.4 34 37.41 L 34 57.82 C 34 58.38 34.45 58.83 35.01 58.83 L 39.99 58.83 C 40.55 58.83 41 58.38 41 57.82 L 41 31.27 C 41 30.37 39.91 29.92 39.28 30.56 Z" fill="var(--icon-secondary, #6c8ebf)" stroke="none" stroke-width="0"/></svg>