<svg xmlns="http://www.w3.org/2000/svg" viewBox="0 0 100 29.38" width="100" height="29.38"><path d="M 96.5 25.75 L 3.5 25.75 C 2.12 25.75 1 24.63 1 23.25 L 1 3.5 C 1 2.12 2.12 1 3.5 1 L 96.5 1 C 97.88 1 99 2.12 99 3.5 L 99 23.25 C 99 24.63 97.88 25.75 96.5 25.75 Z" fill="var(--icon-primary, #dae8fc)" stroke="none" stroke-width="0"/><path d="M 91.78 13.02 C 91.78 14.68 90.44 16.02 88.78 16.02 C 87.12 16.02 85.78 14.68 85.78 13.02 C 85.78 11.36 87.12 10.02 88.78 10.02 C 90.44 10.02 91.78 11.36 91.78 13.02 Z M 77.86 10.02 C 76.2 10.02 74.86 11.36 74.86 13.02 C 74.86 14.68 76.2 16.02 77.86 16.02 C 79.52 16.02 80.86 14.68 80.86 13.02 C 80.86 11.36 79.51 10.02 77.86 10.02 Z M 66.81 10.02 C 65.15 10.02 63.81 11.36 63.81 13.02 C 63.81 14.68 65.15 16.02 66.81 16.02 C 68.47 16.02 69.81 14.68 69.81 13.02 C 69.81 11.36 68.46 10.02 66.81 10.02 Z" fill="var(--icon-secondary, #6c8ebf)" stroke="none" stroke-width="0"/><path d="M 22.98 11.37 L 22.98 18.37 C 22.98 18.92 22.53 19.37 21.98 19.37 L 7.98 19.37 C 7.43 19.37 6.98 18.92 6.98 18.37 L 6.98 11.37 C 6.98 10.82 7.43 10.37 7.98 10.37 L 10.98 10.37 L 10.98 7.37 C 10.98 6.82 11.43 6.37 11.98 6.37 L 17.98 6.37 C 18.53 6.37 18.98 6.82 18.98 7.37 L 18.98 10.37 L 21.98 10.37 C 22.54 10.37 22.98 10.82 22.98 11.37 Z M 40.52 10.37 L 37.52 10.37 L 37.52 7.37 C 37.52 6.82 37.07 6.37 36.52 6.37 L 30.52 6.37 C 29.97 6.37 29.52 6.82 29.52 7.37 L 29.52 10.37 L 26.52 10.37 C 25.97 10.37 25.52 10.82 25.52 11.37 L 25.52 18.37 C 25.52 18.92 25.97 19.37 26.52 19.37 L 40.52 19.37 C 41.07 19.37 41.52 18.92 41.52 18.37 L 41.52 11.37 C 41.52 10.82 41.07 10.37 40.52 10.37 Z M 88.78 17.02 C 86.57 17.02 84.78 15.23 84.78 13.02 C 84.78 10.81 86.57 9.02 88.78 9.02 C 90.99 9.02 92.78 10.81 92.78 13.02 C 92.78 15.23 90.99 17.02 88.78 17.02 Z M 88.78 11.02 C 87.68 11.02 86.78 11.92 86.78 13.02 C 86.78 14.12 87.68 15.02 88.78 15.02 C 89.88 15.02 90.78 14.12 90.78 13.02 C 90.78 11.92 89.89 11.02 88.78 11.02 Z M 99.03 1.09 C 98.99 1.05 98.95 1.01 98.91 0.97 C 98.29 0.37 97.44 0 96.5 0 L 3.5 0 C 1.57 0 0 1.57 0 3.5 L 0 23.25 C 0 24.15 0.34 24.98 0.91 25.6 C 0.91 25.6 0.91 25.6 0.91 25.6 C 0.99 25.68 1.06 25.76 1.15 25.84 C 1.15 25.84 1.15 25.84 1.15 25.84 C 1.77 26.4 2.6 26.75 3.5 26.75 L 11.28 26.75 L 11.28 28.38 C 11.28 28.93 11.73 29.38 12.28 29.38 L 24.78 29.38 C 25.33 29.38 25.78 28.93 25.78 28.38 L 25.78 26.75 L 74.21 26.75 L 74.21 28.38 C 74.21 28.93 74.66 29.38 75.21 29.38 L 87.71 29.38 C 88.26 29.38 88.71 28.93 88.71 28.38 L 88.71 26.75 L 96.49 26.75 C 98.42 26.75 99.99 25.18 99.99 23.25 L 99.99 3.5 C 100 2.56 99.63 1.71 99.03 1.09 Z M 98 23.25 C 98 24.08 97.33 24.75 96.5 24.75 L 3.5 24.75 C 2.67 24.75 2 24.08 2 23.25 L 2 3.5 C 2 2.67 2.67 2 3.5 2 L 96.5 2 C 97.33 2 98 2.67 98 3.5 L 98 23.25 Z M 77.86 17.02 C 75.65 17.02 73.86 15.23 73.86 13.02 C 73.86 10.81 75.65 9.02 77.86 9.02 C 80.07 9.02 81.86 10.81 81.86 13.02 C 81.86 15.23 80.06 17.02 77.86 17.02 Z M 77.86 11.02 C 76.76 11.02 75.86 11.92 75.86 13.02 C 75.86 14.12 76.76 15.02 77.86 15.02 C 78.96 15.02 79.86 14.12 79.86 13.02 C 79.86 11.92 78.96 11.02 77.86 11.02 Z M 66.81 17.02 C 64.6 17.02 62.81 15.23 62.81 13.02 C 62.81 10.81 64.6 9.02 66.81 9.02 C 69.02 9.02 70.81 10.81 70.81 13.02 C 70.81 15.23 69.01 17.02 66.81 17.02 Z M 66.81 11.02 C 65.71 11.02 64.81 11.92 64.81 13.02 C 64.81 14.12 65.71 15.02 66.81 15.02 C 67.91 15.02 68.81 14.12 68.81 13.02 C 68.81 11.92 67.91 11.02 66.81 11.02 Z" fill="var(--icon-secondary, #6c8ebf)" stroke="none" stroke-width="0"/></svg>