<svg xmlns="http://www.w3.org/2000/svg" viewBox="0 0 140 140" width="140" height="140"><path d="M 140 78.66 L 140 135 C 140 137.76 137.76 140 135 140 L 78.7 140 L 21.17 82.47 C 21.17 82.47 21.17 82.47 21.17 82.47 L 20.93 82.23 C 20.93 82.23 20.93 82.23 20.93 82.23 C 20.37 81.61 20.02 80.78 20.02 79.88 L 20.02 60.13 C 20.02 58.2 21.59 56.63 23.52 56.63 L 116.52 56.63 C 117.46 56.63 118.31 57 118.93 57.6 C 118.97 57.64 119.01 57.68 119.05 57.72 L 140 78.66 Z" fill="var(--icon-primary, #dae8fc)" stroke="none" stroke-width="0" opacity="0.25"/></svg>