<svg xmlns="http://www.w3.org/2000/svg" viewBox="0 0 140 140" width="140" height="140"><path d="M 140 53.17 L 140 135 C 140 137.76 137.76 140 135 140 L 69.18 140 L 20.67 91.49 C 21.02 91.81 21.49 92 22 92 L 60 92 L 60 101.8 L 47.5 101.8 C 46.95 101.8 46.5 102.25 46.5 102.8 L 46.5 105.2 C 46.5 105.75 46.95 106.2 47.5 106.2 L 92.5 106.2 C 93.05 106.2 93.5 105.75 93.5 105.2 L 93.5 102.8 C 93.5 102.25 93.05 101.8 92.5 101.8 L 80 101.8 L 80 92 L 118 92 C 119.1 92 120 91.1 120 90 L 120 34 C 120 33.46 119.78 32.97 119.44 32.61 L 140 53.17 Z" fill="var(--icon-primary, #dae8fc)" stroke="none" stroke-width="0" opacity="0.25"/></svg>