<svg xmlns="http://www.w3.org/2000/svg" viewBox="0 0 100 74.2" width="100" height="74.2"><path d="M 98 59 L 2 59 C 1.45 59 1 58.55 1 58 L 1 2 C 1 1.45 1.45 1 2 1 L 98 1 C 98.55 1 99 1.45 99 2 L 99 58 C 99 58.55 98.55 59 98 59 Z" fill="var(--icon-primary, #dae8fc)" stroke="none" stroke-width="0"/><path d="M 99.44 0.61 C 99.43 0.6 99.41 0.58 99.39 0.57 C 99.03 0.21 98.54 0 98 0 L 2 0 C 0.9 0 0 0.9 0 2 L 0 58 C 0 58.51 0.19 58.98 0.51 59.33 C 0.56 59.39 0.62 59.44 0.67 59.49 C 1.02 59.81 1.49 60 2 60 L 40 60 L 40 69.8 L 27.5 69.8 C 26.95 69.8 26.5 70.25 26.5 70.8 L 26.5 73.2 C 26.5 73.75 26.95 74.2 27.5 74.2 L 72.5 74.2 C 73.05 74.2 73.5 73.75 73.5 73.2 L 73.5 70.8 C 73.5 70.25 73.05 69.8 72.5 69.8 L 60 69.8 L 60 60 L 98 60 C 99.1 60 100 59.1 100 58 L 100 2 C 100 1.46 99.78 0.97 99.44 0.61 Z M 98 58 L 2 58 L 2 2 L 98 2 L 98 58 C 98 58 98 58 98 58 Z" fill="var(--icon-secondary, #6c8ebf)" stroke="none" stroke-width="0"/></svg>