<svg xmlns="http://www.w3.org/2000/svg" viewBox="0 0 100 62" width="100" height="62"><path d="M 98 61 L 2 61 C 1.45 61 1 60.55 1 60 L 1 2 C 1 1.45 1.45 1 2 1 L 98 1 C 98.55 1 99 1.45 99 2 L 99 60 C 99 60.55 98.55 61 98 61 Z" fill="var(--icon-primary, #dae8fc)" stroke="none" stroke-width="0"/><path d="M 60 21 L 40 21 L 40 11 L 60 11 L 60 21 Z M 50 38 C 48.34 38 47 39.34 47 41 C 47 42.66 48.34 44 50 44 C 51.66 44 53 42.66 53 41 C 53 39.34 51.66 38 50 38 Z" fill="var(--icon-secondary, #6c8ebf)" stroke="none" stroke-width="0"/><path d="M 60 22 L 40 22 C 39.45 22 39 21.55 39 21 L 39 11 C 39 10.45 39.45 10 40 10 L 60 10 C 60.55 10 61 10.45 61 11 L 61 21 C 61 21.55 60.55 22 60 22 Z M 41 20 L 59 20 L 59 12 L 41 12 L 41 20 Z M 50 45 C 47.79 45 46 43.21 46 41 C 46 38.79 47.79 37 50 37 C 52.21 37 54 38.79 54 41 C 54 43.21 52.21 45 50 45 Z M 50 39 C 48.9 39 48 39.9 48 41 C 48 42.1 48.9 43 50 43 C 51.1 43 52 42.1 52 41 C 52 39.9 51.1 39 50 39 Z M 99.41 0.59 C 99.05 0.22 98.55 0 98 0 L 2 0 C 0.9 0 0 0.9 0 2 L 0 60 C 0 60.55 0.22 61.05 0.59 61.41 C 0.95 61.78 1.45 62 2 62 L 98 62 C 99.1 62 100 61.1 100 60 L 100 2 C 100 1.45 99.78 0.95 99.41 0.59 Z M 98 60 L 2 60 L 2 2 L 98 2 L 98 60 C 98 60 98 60 98 60 Z M 21.75 52 L 20.25 52 C 19.7 52 19.25 51.55 19.25 51 L 19.25 11 C 19.25 10.45 19.7 10 20.25 10 L 21.75 10 C 22.3 10 22.75 10.45 22.75 11 L 22.75 51 C 22.75 51.55 22.3 52 21.75 52 Z M 31.75 52.14 L 30.25 52.14 C 29.7 52.14 29.25 51.69 29.25 51.14 L 29.25 11.14 C 29.25 10.59 29.7 10.14 30.25 10.14 L 31.75 10.14 C 32.3 10.14 32.75 10.59 32.75 11.14 L 32.75 51.14 C 32.75 51.69 32.3 52.14 31.75 52.14 Z M 11.75 52 L 10.25 52 C 9.7 52 9.25 51.55 9.25 51 L 9.25 11 C 9.25 10.45 9.7 10 10.25 10 L 11.75 10 C 12.3 10 12.75 10.45 12.75 11 L 12.75 51 C 12.75 51.55 12.3 52 11.75 52 Z M 79.75 52 L 78.25 52 C 77.7 52 77.25 51.55 77.25 51 L 77.25 11 C 77.25 10.45 77.7 10 78.25 10 L 79.75 10 C 80.3 10 80.75 10.45 80.75 11 L 80.75 51 C 80.75 51.55 80.3 52 79.75 52 Z M 89.75 52 L 88.25 52 C 87.7 52 87.25 51.55 87.25 51 L 87.25 11 C 87.25 10.45 87.7 10 88.25 10 L 89.75 10 C 90.3 10 90.75 10.45 90.75 11 L 90.75 51 C 90.75 51.55 90.3 52 89.75 52 Z M 69.75 52 L 68.25 52 C 67.7 52 67.25 51.55 67.25 51 L 67.25 11 C 67.25 10.45 67.7 10 68.25 10 L 69.75 10 C 70.3 10 70.75 10.45 70.75 11 L 70.75 51 C 70.75 51.55 70.3 52 69.75 52 Z" fill="var(--icon-secondary, #6c8ebf)" stroke="none" stroke-width="0"/></svg>