<svg xmlns="http://www.w3.org/2000/svg" viewBox="0 0 140 140" width="140" height="140"><path d="M 97.03 28.09 C 97.07 28.13 97.11 28.18 97.15 28.22 C 97.18 28.26 97.21 28.3 97.24 28.33 C 97.27 28.37 97.31 28.42 97.34 28.46 C 97.37 28.5 97.4 28.55 97.43 28.59 C 97.46 28.64 97.49 28.68 97.52 28.73 C 97.54 28.76 97.56 28.79 97.58 28.83 C 97.59 28.85 97.61 28.88 97.62 28.9 C 97.64 28.94 97.66 28.98 97.68 29.02 C 97.7 29.07 97.72 29.12 97.74 29.17 C 97.77 29.25 97.81 29.34 97.83 29.42 C 97.84 29.44 97.84 29.46 97.85 29.48 C 97.86 29.51 97.87 29.54 97.88 29.58 C 97.89 29.6 97.89 29.63 97.9 29.65 C 97.91 29.67 97.91 29.69 97.91 29.71 C 97.92 29.73 97.92 29.75 97.92 29.77 C 97.93 29.81 97.94 29.84 97.94 29.88 C 97.94 29.9 97.95 29.92 97.95 29.94 C 97.96 30.01 97.97 30.09 97.98 30.16 C 97.98 30.19 97.98 30.21 97.99 30.24 C 97.99 30.25 97.99 30.26 97.99 30.27 C 97.99 30.31 98 30.35 98 30.4 C 98 30.43 98 30.47 98 30.5 L 98 41.5 C 98 43.43 96.43 45 94.5 45 L 90.02 45 L 86.04 48.98 L 102 64.95 L 102 64.5 C 102 62.57 103.57 61 105.5 61 L 116.5 61 C 118.43 61 120 62.57 120 64.5 L 120 75.5 C 120 77.43 118.43 79 116.5 79 L 105.5 79 C 103.57 79 102 77.43 102 75.5 L 102 72.63 L 101.37 72 L 85.59 72 C 85.25 73.21 84.84 74.4 84.34 75.55 C 84.12 76.06 83.87 76.56 83.62 77.06 L 101.56 95 L 106.5 95 C 108.43 95 110 96.57 110 98.5 L 110 109.5 C 110 111.43 108.43 113 106.5 113 L 95.5 113 C 93.57 113 92 111.43 92 109.5 L 92 98.5 C 92 96.57 93.57 95 95.5 95 L 95.91 95 L 81.41 80.5 C 79.34 83.2 76.61 85.55 73.12 87.67 C 72.23 88.21 71.29 88.73 70.3 89.24 C 70.2 89.29 70.1 89.31 70 89.31 C 69.9 89.31 69.79 89.29 69.7 89.24 C 63.87 86.24 59.82 82.76 57.18 78.44 C 57.1 78.32 57.03 78.19 56.96 78.06 C 56.48 77.25 56.06 76.41 55.68 75.54 C 55.49 75.11 55.31 74.67 55.15 74.22 C 54.88 73.49 54.64 72.75 54.43 71.99 L 45 71.99 L 45 78.99 C 45 79.4 44.93 79.79 44.8 80.15 C 44.36 81.38 43.25 82.3 41.92 82.46 C 41.87 82.46 41.83 82.47 41.78 82.47 C 41.73 82.47 41.68 82.48 41.63 82.48 C 41.59 82.48 41.54 82.48 41.5 82.48 L 23.5 82.48 C 23.32 82.48 23.14 82.47 22.97 82.44 C 22.24 82.33 21.58 81.99 21.07 81.5 L 79.55 140 L 135 140 C 137.76 140 140 137.76 140 135 L 140 71.05 L 97.03 28.09 Z M 97.37 68 L 87.07 57.7 C 87.19 57.83 87.26 58 87.25 58.18 C 87.13 61.54 86.96 64.84 86.45 68 L 97.37 68 Z M 83.5 45 C 83.47 45 83.43 45 83.4 45 C 83.36 45 83.32 45 83.27 44.99 C 83.26 44.99 83.25 44.99 83.23 44.99 C 83.21 44.99 83.18 44.99 83.15 44.98 C 83.07 44.97 83 44.96 82.93 44.95 C 82.91 44.95 82.89 44.94 82.87 44.94 C 82.83 44.93 82.8 44.93 82.76 44.92 C 82.74 44.92 82.72 44.91 82.7 44.91 C 82.68 44.91 82.66 44.9 82.64 44.9 C 82.62 44.9 82.6 44.89 82.57 44.88 C 82.54 44.87 82.51 44.86 82.47 44.85 C 82.45 44.84 82.43 44.84 82.41 44.83 C 82.32 44.8 82.24 44.77 82.15 44.74 C 82.1 44.72 82.05 44.7 82.01 44.68 C 81.97 44.66 81.93 44.64 81.89 44.62 C 81.87 44.61 81.84 44.59 81.82 44.58 C 81.79 44.56 81.75 44.54 81.72 44.52 C 81.67 44.49 81.63 44.46 81.58 44.43 C 81.53 44.4 81.49 44.37 81.44 44.34 C 81.4 44.31 81.35 44.28 81.31 44.24 C 81.27 44.21 81.23 44.18 81.2 44.15 C 81.14 44.1 81.09 44.05 81.03 44 L 83.19 46.16 L 84.36 45 L 83.5 45 Z M 53.45 68 L 43.98 58.53 C 44.34 58.9 44.63 59.34 44.8 59.84 C 44.83 59.91 44.85 59.98 44.87 60.05 C 44.95 60.36 45 60.67 45 61 L 45 68 L 53.45 68 Z" fill="var(--icon-primary, #dae8fc)" stroke="none" stroke-width="0" opacity="0.25"/></svg>