<svg xmlns="http://www.w3.org/2000/svg" viewBox="0 0 100 86" width="100" height="86"><path d="M 74.5 17 L 63.5 17 C 62.12 17 61 15.88 61 14.5 L 61 3.5 C 61 2.12 62.12 1 63.5 1 L 74.5 1 C 75.88 1 77 2.12 77 3.5 L 77 14.5 C 77 15.88 75.88 17 74.5 17 Z M 89 82.5 L 89 71.5 C 89 70.12 87.88 69 86.5 69 L 75.5 69 C 74.12 69 73 70.12 73 71.5 L 73 82.5 C 73 83.88 74.12 85 75.5 85 L 86.5 85 C 87.88 85 89 83.88 89 82.5 Z M 24 52 L 24 34 C 24 32.62 22.88 31.5 21.5 31.5 L 12.5 31.5 L 3.5 31.5 C 2.12 31.5 1 32.62 1 34 L 1 52 C 1 53.38 2.12 54.5 3.5 54.5 L 21.5 54.5 C 22.88 54.5 24 53.38 24 52 Z M 99 48.5 L 99 37.5 C 99 36.12 97.88 35 96.5 35 L 85.5 35 C 84.12 35 83 36.12 83 37.5 L 83 48.5 C 83 49.88 84.12 51 85.5 51 L 96.5 51 C 97.88 51 99 49.88 99 48.5 Z" fill="var(--icon-primary, #dae8fc)" stroke="none" stroke-width="0"/><path d="M 96.5 34 L 85.5 34 C 83.57 34 82 35.57 82 37.5 L 82 41 L 66.45 41 C 66.96 37.84 67.12 34.54 67.25 31.18 C 67.26 31 67.19 30.83 67.07 30.7 C 66.95 30.57 66.78 30.5 66.6 30.49 C 63.74 30.44 61.35 30.05 59.25 29.36 C 59.1 29.31 58.95 29.26 58.8 29.21 L 66.03 21.98 L 70.02 18 L 74.5 18 C 75.65 18 76.68 17.44 77.32 16.58 C 77.74 16 78 15.28 78 14.5 L 78 3.5 C 78 3.47 78 3.43 78 3.4 C 78 3.36 78 3.32 77.99 3.27 C 77.99 3.26 77.99 3.25 77.99 3.24 C 77.99 3.21 77.99 3.19 77.98 3.16 C 77.97 3.08 77.96 3.01 77.95 2.94 C 77.95 2.92 77.94 2.9 77.94 2.88 C 77.93 2.84 77.93 2.81 77.92 2.77 C 77.92 2.75 77.91 2.73 77.91 2.71 C 77.91 2.69 77.9 2.67 77.9 2.65 C 77.89 2.63 77.89 2.61 77.88 2.58 C 77.87 2.55 77.86 2.52 77.85 2.48 C 77.84 2.46 77.84 2.44 77.83 2.42 C 77.8 2.33 77.77 2.25 77.74 2.17 C 77.72 2.12 77.7 2.07 77.68 2.02 C 77.66 1.98 77.64 1.94 77.62 1.9 C 77.61 1.88 77.59 1.85 77.58 1.83 C 77.56 1.8 77.54 1.77 77.52 1.73 C 77.49 1.68 77.46 1.64 77.43 1.59 C 77.4 1.54 77.37 1.5 77.34 1.46 C 77.31 1.42 77.28 1.37 77.24 1.33 C 77.21 1.29 77.18 1.25 77.15 1.22 C 77.11 1.17 77.07 1.13 77.03 1.09 L 76.91 0.97 C 76.87 0.93 76.82 0.89 76.78 0.85 C 76.74 0.82 76.71 0.79 76.67 0.76 C 76.63 0.73 76.58 0.69 76.54 0.66 C 76.5 0.63 76.45 0.6 76.4 0.57 C 76.36 0.54 76.31 0.51 76.26 0.48 C 76.23 0.46 76.2 0.44 76.16 0.43 C 76.13 0.42 76.11 0.4 76.09 0.39 C 76.05 0.37 76.01 0.35 75.97 0.33 C 75.92 0.31 75.87 0.29 75.83 0.27 C 75.75 0.23 75.66 0.2 75.57 0.18 C 75.55 0.17 75.53 0.17 75.51 0.16 C 75.48 0.15 75.45 0.14 75.41 0.13 C 75.39 0.12 75.37 0.12 75.34 0.11 C 75.32 0.11 75.3 0.1 75.28 0.1 C 75.26 0.1 75.24 0.09 75.22 0.09 C 75.18 0.08 75.15 0.07 75.11 0.07 C 75.09 0.07 75.07 0.06 75.05 0.06 C 74.98 0.05 74.9 0.04 74.83 0.03 C 74.8 0.03 74.78 0.03 74.75 0.02 C 74.74 0.02 74.73 0.02 74.71 0.02 C 74.68 0 74.64 0 74.6 0 C 74.57 0 74.53 0 74.5 0 L 63.5 0 C 62.72 0 62 0.25 61.42 0.68 C 60.56 1.32 60 2.35 60 3.5 L 60 14.5 C 60 14.53 60 14.57 60 14.6 C 60 14.64 60 14.68 60.01 14.73 C 60.01 14.74 60.01 14.75 60.01 14.76 C 60.01 14.78 60.01 14.81 60.02 14.84 C 60.03 14.91 60.04 14.99 60.05 15.06 C 60.05 15.08 60.06 15.1 60.06 15.12 C 60.07 15.16 60.07 15.19 60.08 15.23 C 60.08 15.25 60.09 15.27 60.09 15.29 C 60.09 15.31 60.1 15.33 60.1 15.35 C 60.11 15.37 60.11 15.4 60.12 15.42 C 60.13 15.45 60.14 15.48 60.15 15.52 C 60.16 15.54 60.16 15.56 60.17 15.58 C 60.2 15.67 60.23 15.75 60.26 15.83 C 60.28 15.88 60.3 15.93 60.32 15.98 C 60.34 16.02 60.36 16.06 60.38 16.1 C 60.39 16.12 60.41 16.15 60.42 16.17 C 60.44 16.2 60.46 16.24 60.48 16.27 C 60.51 16.32 60.54 16.36 60.57 16.41 C 60.6 16.46 60.63 16.5 60.66 16.55 C 60.69 16.59 60.72 16.64 60.76 16.68 C 60.79 16.72 60.82 16.76 60.85 16.79 C 60.9 16.85 60.95 16.9 61.01 16.96 L 61.05 17 C 61.1 17.05 61.16 17.1 61.22 17.15 C 61.26 17.18 61.29 17.21 61.33 17.24 C 61.37 17.27 61.42 17.31 61.46 17.34 C 61.5 17.37 61.55 17.4 61.59 17.43 C 61.63 17.46 61.68 17.49 61.73 17.52 C 61.76 17.54 61.79 17.56 61.83 17.57 C 61.86 17.58 61.88 17.6 61.91 17.61 C 61.95 17.63 61.99 17.65 62.03 17.67 C 62.08 17.69 62.13 17.71 62.17 17.73 C 62.25 17.76 62.34 17.8 62.43 17.82 C 62.45 17.83 62.47 17.83 62.49 17.84 C 62.52 17.85 62.55 17.86 62.59 17.87 C 62.61 17.88 62.64 17.88 62.66 17.89 C 62.68 17.9 62.7 17.9 62.72 17.9 C 62.74 17.9 62.76 17.91 62.78 17.91 C 62.82 17.92 62.85 17.93 62.89 17.93 C 62.91 17.93 62.93 17.94 62.95 17.94 C 63.02 17.95 63.1 17.96 63.17 17.97 C 63.2 17.97 63.22 17.98 63.25 17.98 C 63.26 17.98 63.27 17.98 63.28 17.98 C 63.32 17.98 63.36 17.98 63.41 17.99 C 63.44 17.99 63.48 17.99 63.51 17.99 L 64.37 17.99 L 63.22 19.14 L 55 27.36 C 53.42 26.38 51.95 25.2 50.46 23.84 C 50.21 23.61 49.82 23.61 49.57 23.84 C 47.28 25.93 45.04 27.6 42.35 28.75 C 41.02 29.32 39.59 29.75 37.99 30.05 C 36.61 30.3 35.1 30.45 33.42 30.48 C 33.24 30.48 33.07 30.56 32.95 30.69 C 32.83 30.82 32.76 30.99 32.77 31.17 C 32.89 34.53 33.06 37.83 33.57 40.99 L 25 40.99 L 25 33.99 C 25 33.66 24.95 33.35 24.87 33.05 C 24.85 32.98 24.83 32.91 24.8 32.84 C 24.63 32.34 24.34 31.89 23.98 31.53 L 23.91 31.46 C 23.56 31.13 23.14 30.86 22.67 30.7 C 22.59 30.67 22.51 30.64 22.43 30.62 C 22.35 30.6 22.27 30.58 22.18 30.56 C 22.15 30.55 22.12 30.55 22.09 30.54 C 22.01 30.53 21.93 30.52 21.85 30.51 C 21.85 30.51 21.84 30.51 21.84 30.51 C 21.8 30.51 21.75 30.5 21.71 30.5 C 21.7 30.5 21.69 30.5 21.68 30.5 C 21.66 30.5 21.63 30.5 21.61 30.5 C 21.57 30.5 21.53 30.5 21.5 30.5 L 3.5 30.5 C 3.32 30.5 3.14 30.51 2.97 30.54 C 1.46 30.77 0.27 31.96 0.04 33.47 C 0.01 33.64 0 33.82 0 34 L 0 52 C 0 52.18 0.01 52.36 0.04 52.53 C 0.15 53.26 0.49 53.92 0.98 54.43 L 1.08 54.53 C 1.59 55.02 2.25 55.36 2.98 55.47 C 3.15 55.5 3.33 55.51 3.51 55.51 L 21.51 55.51 C 21.56 55.51 21.6 55.51 21.64 55.51 C 21.69 55.51 21.74 55.51 21.79 55.5 C 21.84 55.5 21.88 55.49 21.93 55.49 C 23.27 55.33 24.38 54.41 24.81 53.18 C 24.93 52.8 25 52.41 25 52 L 25 45 L 34.41 45 C 34.62 45.75 34.86 46.5 35.13 47.23 C 35.3 47.67 35.47 48.11 35.66 48.55 C 36.04 49.42 36.47 50.26 36.94 51.07 C 37.01 51.2 37.09 51.32 37.16 51.45 C 39.8 55.76 43.85 59.25 49.68 62.25 C 49.78 62.3 49.88 62.32 49.98 62.32 C 50.08 62.32 50.19 62.29 50.28 62.25 C 51.27 61.74 52.21 61.22 53.1 60.68 C 56.59 58.57 59.32 56.21 61.39 53.51 L 75.91 68 L 75.5 68 C 73.57 68 72 69.57 72 71.5 L 72 82.5 C 72 84.43 73.57 86 75.5 86 L 86.5 86 C 88.43 86 90 84.43 90 82.5 L 90 71.5 C 90 69.57 88.43 68 86.5 68 L 81.56 68 L 63.62 50.05 C 63.88 49.56 64.12 49.06 64.34 48.54 C 64.84 47.39 65.26 46.21 65.59 44.99 L 82 44.99 L 82 48.49 C 82 50.42 83.57 51.99 85.5 51.99 L 96.5 51.99 C 98.43 51.99 100 50.42 100 48.49 L 100 37.49 C 100 35.57 98.43 34 96.5 34 Z M 63.5 16 C 62.67 16 62 15.33 62 14.5 L 62 3.5 C 62 2.9 62.36 2.38 62.87 2.14 C 63.06 2.05 63.28 2 63.5 2 L 74.5 2 C 75.33 2 76 2.67 76 3.5 L 76 14.5 C 76 14.72 75.95 14.94 75.86 15.13 C 75.62 15.64 75.1 16 74.5 16 L 63.5 16 Z M 23 52 C 23 52.08 22.99 52.15 22.98 52.22 C 22.88 52.87 22.37 53.38 21.72 53.48 C 21.65 53.49 21.57 53.5 21.5 53.5 L 3.5 53.5 C 3.42 53.5 3.35 53.49 3.28 53.48 C 2.63 53.38 2.12 52.87 2.02 52.22 C 2.01 52.15 2 52.08 2 52 L 2 34 C 2 33.92 2.01 33.85 2.02 33.78 C 2.12 33.13 2.63 32.62 3.28 32.52 C 3.35 32.51 3.43 32.5 3.5 32.5 L 21.5 32.5 C 21.58 32.5 21.65 32.51 21.72 32.52 C 22.37 32.62 22.88 33.13 22.98 33.78 C 22.99 33.85 23 33.92 23 34 L 23 52 Z M 86.5 70 C 87.33 70 88 70.67 88 71.5 L 88 82.5 C 88 83.33 87.33 84 86.5 84 L 75.5 84 C 74.67 84 74 83.33 74 82.5 L 74 71.5 C 74 70.67 74.67 70 75.5 70 L 86.5 70 Z M 98 48.5 C 98 49.33 97.33 50 96.5 50 L 85.5 50 C 84.67 50 84 49.33 84 48.5 L 84 37.5 C 84 36.67 84.67 36 85.5 36 L 96.5 36 C 97.33 36 98 36.67 98 37.5 L 98 48.5 Z" fill="var(--icon-secondary, #6c8ebf)" stroke="none" stroke-width="0"/><path d="M 57.28 41 C 56.99 40.54 56.47 40.23 55.88 40.23 L 55.38 40.23 L 55.38 37.77 C 55.38 36.35 54.83 35.05 53.93 34.08 C 52.95 33.02 51.56 32.36 50.01 32.34 C 49.99 32.34 49.97 32.34 49.95 32.34 C 48.8 32.34 47.74 32.7 46.86 33.31 C 45.72 34.1 44.9 35.32 44.62 36.73 C 44.55 37.07 44.52 37.42 44.52 37.77 L 44.52 40.23 L 44.02 40.23 C 43.43 40.23 42.91 40.54 42.62 41 C 42.46 41.26 42.36 41.56 42.36 41.89 L 42.36 49.61 C 42.36 50.53 43.1 51.27 44.02 51.27 L 55.88 51.27 C 56.79 51.27 57.52 50.54 57.54 49.64 C 57.54 49.63 57.54 49.62 57.54 49.61 L 57.54 41.89 C 57.54 41.56 57.45 41.26 57.28 41 Z M 46.72 37.77 C 46.72 36.52 47.43 35.44 48.46 34.9 C 48.91 34.67 49.42 34.53 49.96 34.53 C 50.93 34.53 51.8 34.96 52.39 35.63 C 52.89 36.2 53.2 36.95 53.2 37.77 L 53.2 40.23 L 46.72 40.23 L 46.72 37.77 Z" fill="var(--icon-secondary, #6c8ebf)" stroke="none" stroke-width="0"/></svg>