<svg xmlns="http://www.w3.org/2000/svg" viewBox="0 0 100 86.01" width="100" height="86.01"><path d="M 74.5 17 L 63.5 17 C 62.12 17 61 15.88 61 14.5 L 61 3.5 C 61 2.12 62.12 1 63.5 1 L 74.5 1 C 75.88 1 77 2.12 77 3.5 L 77 14.5 C 77 15.88 75.88 17 74.5 17 Z M 89 82.5 L 89 71.5 C 89 70.12 87.88 69 86.5 69 L 75.5 69 C 74.12 69 73 70.12 73 71.5 L 73 82.5 C 73 83.88 74.12 85 75.5 85 L 86.5 85 C 87.88 85 89 83.88 89 82.5 Z M 24 52 L 24 34 C 24 32.62 22.88 31.5 21.5 31.5 L 12.5 31.5 L 3.5 31.5 C 2.12 31.5 1 32.62 1 34 L 1 52 C 1 53.38 2.12 54.5 3.5 54.5 L 21.5 54.5 C 22.88 54.5 24 53.38 24 52 Z M 99 48.5 L 99 37.5 C 99 36.12 97.88 35 96.5 35 L 85.5 35 C 84.12 35 83 36.12 83 37.5 L 83 48.5 C 83 49.88 84.12 51 85.5 51 L 96.5 51 C 97.88 51 99 49.88 99 48.5 Z" fill="var(--icon-primary, #dae8fc)" stroke="none" stroke-width="0"/><path d="M 99.03 35.09 L 98.91 34.97 C 98.28 34.37 97.43 34 96.5 34 L 85.5 34 C 83.57 34 82 35.57 82 37.5 L 82 41 L 25 41 L 25 38.59 L 28.02 35.57 L 52.56 11 L 60 11 L 60 14.5 C 60 15.43 60.37 16.28 60.97 16.91 L 61.09 17.03 C 61.72 17.63 62.57 18 63.5 18 L 74.5 18 C 76.43 18 78 16.43 78 14.5 L 78 3.5 C 78 2.56 77.63 1.71 77.03 1.09 L 76.91 0.97 C 76.28 0.37 75.43 0 74.5 0 L 63.5 0 C 61.57 0 60 1.57 60 3.5 L 60 7 L 51.73 7 C 51.2 7 50.69 7.21 50.31 7.59 L 25.19 32.74 L 24.87 33.06 C 24.71 32.48 24.4 31.96 23.99 31.55 L 23.93 31.49 C 23.3 30.88 22.44 30.5 21.49 30.5 L 3.5 30.5 C 1.57 30.5 0 32.07 0 34 L 0 52 C 0 52.97 0.39 53.84 1.03 54.48 C 1.66 55.12 2.54 55.51 3.51 55.51 L 21.5 55.51 C 23.02 55.51 24.32 54.53 24.8 53.17 L 50.05 78.42 C 50.43 78.8 50.93 79.01 51.46 79.01 L 72 79.01 L 72 82.51 C 72 83.44 72.36 84.29 72.96 84.91 L 73.1 85.05 C 73.73 85.64 74.57 86.01 75.5 86.01 L 86.5 86.01 C 88.43 86.01 90 84.44 90 82.51 L 90 71.51 C 90 70.57 89.63 69.72 89.03 69.1 L 88.91 68.98 C 88.28 68.37 87.43 68 86.5 68 L 75.5 68 C 73.57 68 72 69.57 72 71.5 L 72 75 L 52.3 75 L 25 47.7 L 25 45 L 82 45 L 82 48.5 C 82 49.43 82.37 50.28 82.97 50.91 L 83.09 51.03 C 83.72 51.63 84.57 52 85.5 52 L 96.5 52 C 98.43 52 100 50.43 100 48.5 L 100 37.5 C 100 36.56 99.63 35.71 99.03 35.09 Z M 62 3.5 C 62 2.67 62.67 2 63.5 2 L 74.5 2 C 75.33 2 76 2.67 76 3.5 L 76 14.5 C 76 15.33 75.33 16 74.5 16 L 63.5 16 C 62.67 16 62 15.33 62 14.5 L 62 3.5 Z M 23 52 C 23 52.83 22.33 53.5 21.5 53.5 L 3.5 53.5 C 2.67 53.5 2 52.83 2 52 L 2 34 C 2 33.17 2.67 32.5 3.5 32.5 L 21.5 32.5 C 22.33 32.5 23 33.17 23 34 L 23 52 Z M 74 71.5 C 74 70.67 74.67 70 75.5 70 L 86.5 70 C 87.33 70 88 70.67 88 71.5 L 88 82.5 C 88 83.33 87.33 84 86.5 84 L 75.5 84 C 74.67 84 74 83.33 74 82.5 L 74 71.5 Z M 98 48.5 C 98 49.33 97.33 50 96.5 50 L 85.5 50 C 84.67 50 84 49.33 84 48.5 L 84 37.5 C 84 36.67 84.67 36 85.5 36 L 96.5 36 C 97.33 36 98 36.67 98 37.5 L 98 48.5 Z" fill="var(--icon-secondary, #6c8ebf)" stroke="none" stroke-width="0"/></svg>