<svg xmlns="http://www.w3.org/2000/svg" viewBox="0 0 140 140" width="140" height="140"><path d="M 97.03 28.09 C 97.63 28.72 98 29.57 98 30.5 L 98 41.5 C 98 43.43 96.43 45 94.5 45 L 83.5 45 C 82.57 45 81.72 44.63 81.09 44.03 L 102 64.95 L 102 64.5 C 102 62.57 103.57 61 105.5 61 L 116.5 61 C 117.43 61 118.28 61.37 118.91 61.97 L 119.03 62.09 C 119.63 62.72 120 63.57 120 64.5 L 120 75.5 C 120 77.43 118.43 79 116.5 79 L 105.5 79 C 104.57 79 103.72 78.63 103.09 78.03 L 140 114.95 L 140 71.05 L 97.03 28.09 Z M 109.03 96.09 C 109.63 96.72 110 97.57 110 98.5 L 110 109.5 C 110 111.43 108.43 113 106.5 113 L 95.5 113 C 94.57 113 93.72 112.64 93.1 112.04 L 92.96 111.9 C 92.37 111.27 92 110.43 92 109.5 L 92 106.56 L 91.44 106 L 71.47 106 C 70.94 106 70.43 105.79 70.06 105.41 L 44.8 80.16 C 44.32 81.52 43.02 82.5 41.5 82.5 L 23.5 82.5 C 22.53 82.5 21.66 82.11 21.02 81.47 L 79.56 140 L 135 140 C 137.76 140 140 137.76 140 135 L 140 127.05 L 109.03 96.09 Z M 43.99 58.55 C 44.4 58.97 44.71 59.48 44.87 60.06 L 45.19 59.74 L 43.99 58.55 Z M 48.02 62.57 L 45 65.59 L 45 68 L 53.44 68 L 48.02 62.57 Z M 86.69 101.25 L 57.44 72 L 45 72 L 45 74.71 L 72.29 102 L 87.44 102 L 86.69 101.25 Z" fill="var(--icon-primary, #dae8fc)" stroke="none" stroke-width="0" opacity="0.25"/></svg>