<svg xmlns="http://www.w3.org/2000/svg" viewBox="0 0 100 33.59" width="100" height="33.59"><path d="M 96.5 29.96 L 3.5 29.96 C 2.12 29.96 1 28.84 1 27.46 L 1 3.25 C 1 1.87 2.12 0.75 3.5 0.75 L 96.5 0.75 C 97.88 0.75 99 1.87 99 3.25 L 99 27.46 C 99 28.84 97.88 29.96 96.5 29.96 Z" fill="var(--icon-primary, #dae8fc)" stroke="none" stroke-width="0"/><path d="M 99.03 1.09 L 98.91 0.97 C 98.28 0.37 97.43 0 96.5 0 L 3.5 0 C 1.57 0 0 1.57 0 3.5 L 0 27.46 C 0 28.36 0.34 29.19 0.91 29.81 C 0.91 29.81 0.91 29.81 0.91 29.81 C 0.94 29.84 0.97 29.88 1.01 29.91 L 1.05 29.95 C 1.08 29.98 1.12 30.02 1.15 30.05 C 1.15 30.05 1.15 30.05 1.15 30.05 C 1.77 30.61 2.6 30.96 3.5 30.96 L 11.28 30.96 L 11.28 32.59 C 11.28 33.14 11.73 33.59 12.28 33.59 L 24.78 33.59 C 25.33 33.59 25.78 33.14 25.78 32.59 L 25.78 30.96 L 74.21 30.96 L 74.21 32.59 C 74.21 33.14 74.66 33.59 75.21 33.59 L 87.71 33.59 C 88.26 33.59 88.71 33.14 88.71 32.59 L 88.71 30.96 L 96.49 30.96 C 98.42 30.96 99.99 29.39 99.99 27.46 L 99.99 3.5 C 100 2.56 99.63 1.71 99.03 1.09 Z M 98 27.46 C 98 28.29 97.33 28.96 96.5 28.96 L 3.5 28.96 C 2.67 28.96 2 28.29 2 27.46 L 2 3.5 C 2 2.67 2.67 2 3.5 2 L 96.5 2 C 97.33 2 98 2.67 98 3.5 L 98 27.46 Z M 15.49 20.46 L 15.49 24.66 C 15.49 24.99 15.22 25.26 14.89 25.26 L 6.48 25.26 C 6.15 25.26 5.88 24.99 5.88 24.66 L 5.88 20.46 C 5.88 20.13 6.15 19.86 6.48 19.86 L 8.28 19.86 L 8.28 18.06 C 8.28 17.73 8.55 17.46 8.88 17.46 L 12.48 17.46 C 12.81 17.46 13.08 17.73 13.08 18.06 L 13.08 19.86 L 14.88 19.86 C 15.22 19.86 15.49 20.12 15.49 20.46 Z M 26.06 19.86 L 24.26 19.86 L 24.26 18.06 C 24.26 17.73 23.99 17.46 23.66 17.46 L 20.06 17.46 C 19.73 17.46 19.46 17.73 19.46 18.06 L 19.46 19.86 L 17.66 19.86 C 17.33 19.86 17.06 20.13 17.06 20.46 L 17.06 24.66 C 17.06 24.99 17.33 25.26 17.66 25.26 L 26.07 25.26 C 26.4 25.26 26.67 24.99 26.67 24.66 L 26.67 20.46 C 26.66 20.12 26.39 19.86 26.06 19.86 Z M 37.23 19.86 L 35.43 19.86 L 35.43 18.06 C 35.43 17.73 35.16 17.46 34.83 17.46 L 31.23 17.46 C 30.9 17.46 30.63 17.73 30.63 18.06 L 30.63 19.86 L 28.83 19.86 C 28.5 19.86 28.23 20.13 28.23 20.46 L 28.23 24.66 C 28.23 24.99 28.5 25.26 28.83 25.26 L 37.24 25.26 C 37.57 25.26 37.84 24.99 37.84 24.66 L 37.84 20.46 C 37.83 20.12 37.56 19.86 37.23 19.86 Z M 48.39 19.86 L 46.59 19.86 L 46.59 18.06 C 46.59 17.73 46.32 17.46 45.99 17.46 L 42.39 17.46 C 42.06 17.46 41.79 17.73 41.79 18.06 L 41.79 19.86 L 39.99 19.86 C 39.66 19.86 39.39 20.13 39.39 20.46 L 39.39 24.66 C 39.39 24.99 39.66 25.26 39.99 25.26 L 48.4 25.26 C 48.73 25.26 49 24.99 49 24.66 L 49 20.46 C 48.99 20.12 48.73 19.86 48.39 19.86 Z M 59.56 19.86 L 57.76 19.86 L 57.76 18.06 C 57.76 17.73 57.49 17.46 57.16 17.46 L 53.56 17.46 C 53.23 17.46 52.96 17.73 52.96 18.06 L 52.96 19.86 L 51.16 19.86 C 50.83 19.86 50.56 20.13 50.56 20.46 L 50.56 24.66 C 50.56 24.99 50.83 25.26 51.16 25.26 L 59.57 25.26 C 59.9 25.26 60.17 24.99 60.17 24.66 L 60.17 20.46 C 60.16 20.12 59.89 19.86 59.56 19.86 Z M 70.73 19.86 L 68.93 19.86 L 68.93 18.06 C 68.93 17.73 68.66 17.46 68.33 17.46 L 64.73 17.46 C 64.4 17.46 64.13 17.73 64.13 18.06 L 64.13 19.86 L 62.33 19.86 C 62 19.86 61.73 20.13 61.73 20.46 L 61.73 24.66 C 61.73 24.99 62 25.26 62.33 25.26 L 70.74 25.26 C 71.07 25.26 71.34 24.99 71.34 24.66 L 71.34 20.46 C 71.33 20.12 71.06 19.86 70.73 19.86 Z M 81.9 19.86 L 80.1 19.86 L 80.1 18.06 C 80.1 17.73 79.83 17.46 79.5 17.46 L 75.9 17.46 C 75.57 17.46 75.3 17.73 75.3 18.06 L 75.3 19.86 L 73.5 19.86 C 73.17 19.86 72.9 20.13 72.9 20.46 L 72.9 24.66 C 72.9 24.99 73.17 25.26 73.5 25.26 L 81.91 25.26 C 82.24 25.26 82.51 24.99 82.51 24.66 L 82.51 20.46 C 82.5 20.12 82.23 19.86 81.9 19.86 Z M 93.07 19.86 L 91.27 19.86 L 91.27 18.06 C 91.27 17.73 91 17.46 90.67 17.46 L 87.07 17.46 C 86.74 17.46 86.47 17.73 86.47 18.06 L 86.47 19.86 L 84.67 19.86 C 84.34 19.86 84.07 20.13 84.07 20.46 L 84.07 24.66 C 84.07 24.99 84.34 25.26 84.67 25.26 L 93.08 25.26 C 93.41 25.26 93.68 24.99 93.68 24.66 L 93.68 20.46 C 93.67 20.12 93.4 19.86 93.07 19.86 Z M 14.89 7.82 L 13.09 7.82 L 13.09 6.02 C 13.09 5.69 12.82 5.42 12.49 5.42 L 8.89 5.42 C 8.56 5.42 8.29 5.69 8.29 6.02 L 8.29 7.82 L 6.49 7.82 C 6.16 7.82 5.89 8.09 5.89 8.42 L 5.89 12.62 C 5.89 12.95 6.16 13.22 6.49 13.22 L 14.9 13.22 C 15.23 13.22 15.5 12.95 15.5 12.62 L 15.5 8.42 C 15.49 8.09 15.22 7.82 14.89 7.82 Z M 26.06 7.82 L 24.26 7.82 L 24.26 6.02 C 24.26 5.69 23.99 5.42 23.66 5.42 L 20.06 5.42 C 19.73 5.42 19.46 5.69 19.46 6.02 L 19.46 7.82 L 17.66 7.82 C 17.33 7.82 17.06 8.09 17.06 8.42 L 17.06 12.62 C 17.06 12.95 17.33 13.22 17.66 13.22 L 26.07 13.22 C 26.4 13.22 26.67 12.95 26.67 12.62 L 26.67 8.42 C 26.66 8.09 26.39 7.82 26.06 7.82 Z M 37.23 7.82 L 35.43 7.82 L 35.43 6.02 C 35.43 5.69 35.16 5.42 34.83 5.42 L 31.23 5.42 C 30.9 5.42 30.63 5.69 30.63 6.02 L 30.63 7.82 L 28.83 7.82 C 28.5 7.82 28.23 8.09 28.23 8.42 L 28.23 12.62 C 28.23 12.95 28.5 13.22 28.83 13.22 L 37.24 13.22 C 37.57 13.22 37.84 12.95 37.84 12.62 L 37.84 8.42 C 37.83 8.09 37.56 7.82 37.23 7.82 Z M 48.39 7.82 L 46.59 7.82 L 46.59 6.02 C 46.59 5.69 46.32 5.42 45.99 5.42 L 42.39 5.42 C 42.06 5.42 41.79 5.69 41.79 6.02 L 41.79 7.82 L 39.99 7.82 C 39.66 7.82 39.39 8.09 39.39 8.42 L 39.39 12.62 C 39.39 12.95 39.66 13.22 39.99 13.22 L 48.4 13.22 C 48.73 13.22 49 12.95 49 12.62 L 49 8.42 C 48.99 8.09 48.73 7.82 48.39 7.82 Z M 59.56 7.82 L 57.76 7.82 L 57.76 6.02 C 57.76 5.69 57.49 5.42 57.16 5.42 L 53.56 5.42 C 53.23 5.42 52.96 5.69 52.96 6.02 L 52.96 7.82 L 51.16 7.82 C 50.83 7.82 50.56 8.09 50.56 8.42 L 50.56 12.62 C 50.56 12.95 50.83 13.22 51.16 13.22 L 59.57 13.22 C 59.9 13.22 60.17 12.95 60.17 12.62 L 60.17 8.42 C 60.16 8.09 59.89 7.82 59.56 7.82 Z M 70.73 7.82 L 68.93 7.82 L 68.93 6.02 C 68.93 5.69 68.66 5.42 68.33 5.42 L 64.73 5.42 C 64.4 5.42 64.13 5.69 64.13 6.02 L 64.13 7.82 L 62.33 7.82 C 62 7.82 61.73 8.09 61.73 8.42 L 61.73 12.62 C 61.73 12.95 62 13.22 62.33 13.22 L 70.74 13.22 C 71.07 13.22 71.34 12.95 71.34 12.62 L 71.34 8.42 C 71.33 8.09 71.06 7.82 70.73 7.82 Z M 81.9 7.82 L 80.1 7.82 L 80.1 6.02 C 80.1 5.69 79.83 5.42 79.5 5.42 L 75.9 5.42 C 75.57 5.42 75.3 5.69 75.3 6.02 L 75.3 7.82 L 73.5 7.82 C 73.17 7.82 72.9 8.09 72.9 8.42 L 72.9 12.62 C 72.9 12.95 73.17 13.22 73.5 13.22 L 81.91 13.22 C 82.24 13.22 82.51 12.95 82.51 12.62 L 82.51 8.42 C 82.5 8.09 82.23 7.82 81.9 7.82 Z M 93.07 7.82 L 91.27 7.82 L 91.27 6.02 C 91.27 5.69 91 5.42 90.67 5.42 L 87.07 5.42 C 86.74 5.42 86.47 5.69 86.47 6.02 L 86.47 7.82 L 84.67 7.82 C 84.34 7.82 84.07 8.09 84.07 8.42 L 84.07 12.62 C 84.07 12.95 84.34 13.22 84.67 13.22 L 93.08 13.22 C 93.41 13.22 93.68 12.95 93.68 12.62 L 93.68 8.42 C 93.67 8.09 93.4 7.82 93.07 7.82 Z" fill="var(--icon-secondary, #6c8ebf)" stroke="none" stroke-width="0"/></svg>