<svg xmlns="http://www.w3.org/2000/svg" viewBox="0 0 140 140" width="140" height="140"><path d="M 140 73.15 L 140 135 C 140 137.76 137.76 140 135 140 L 79.99 140 L 21.05 81.05 C 21.08 81.08 21.12 81.12 21.15 81.15 C 21.15 81.15 21.15 81.15 21.15 81.15 C 21.77 81.71 22.6 82.06 23.5 82.06 L 31.28 82.06 L 31.28 83.69 C 31.28 84.24 31.73 84.69 32.28 84.69 L 44.78 84.69 C 45.33 84.69 45.78 84.24 45.78 83.69 L 45.78 82.06 L 94.21 82.06 L 94.21 83.69 C 94.21 84.24 94.66 84.69 95.21 84.69 L 107.71 84.69 C 108.26 84.69 108.71 84.24 108.71 83.69 L 108.71 82.06 L 116.49 82.06 C 118.42 82.06 119.99 80.49 119.99 78.56 L 119.99 54.6 C 119.99 53.66 119.62 52.81 119.02 52.19 L 140 73.15 Z" fill="var(--icon-primary, #dae8fc)" stroke="none" stroke-width="0" opacity="0.25"/></svg>