<svg xmlns="http://www.w3.org/2000/svg" viewBox="0 0 99.99 70.96" width="99.99" height="70.96"><path d="M 59.33 35.86 L 1.78 35.86 C 1.23 35.86 0.78 35.41 0.78 34.86 L 0.78 1.61 C 0.78 1.06 1.23 0.61 1.78 0.61 L 59.33 0.61 C 59.88 0.61 60.33 1.06 60.33 1.61 L 60.33 34.85 C 60.33 35.41 59.88 35.86 59.33 35.86 Z M 59.96 67.97 L 59.96 54.24 C 59.96 53.14 59.06 52.24 57.96 52.24 L 3.05 52.24 C 1.95 52.24 1.05 53.14 1.05 54.24 L 1.05 67.96 C 1.05 69.06 1.95 69.96 3.05 69.96 L 57.96 69.96 C 59.07 69.97 59.96 69.07 59.96 67.97 Z M 96.99 2.04 L 70.75 2.04 C 70.2 2.04 69.75 2.49 69.75 3.04 L 69.75 65.09 C 69.75 65.64 70.2 66.09 70.75 66.09 L 96.99 66.09 C 97.54 66.09 97.99 65.64 97.99 65.09 L 97.99 3.04 C 97.99 2.49 97.54 2.04 96.99 2.04 Z" fill="var(--icon-primary, #dae8fc)" stroke="none" stroke-width="0"/><path d="M 83.87 12.44 C 81.66 12.44 79.87 10.65 79.87 8.44 C 79.87 6.23 81.66 4.44 83.87 4.44 C 86.08 4.44 87.87 6.23 87.87 8.44 C 87.87 10.65 86.07 12.44 83.87 12.44 Z M 60.43 0.65 L 60.41 0.63 L 60.31 0.53 L 60.29 0.51 C 59.94 0.2 59.47 0 58.95 0 L 2 0 C 0.9 0 0 0.9 0 2 L 0 34.47 C 0 35.01 0.22 35.5 0.57 35.86 L 0.6 35.9 C 0.96 36.25 1.45 36.47 2 36.47 L 24.48 36.47 L 24.48 42.42 L 17.25 42.42 C 16.7 42.42 16.25 42.87 16.25 43.42 L 16.25 44.1 C 16.25 44.65 16.7 45.1 17.25 45.1 L 43.84 45.1 C 44.39 45.1 44.84 44.65 44.84 44.1 L 44.84 43.42 C 44.84 42.87 44.39 42.42 43.84 42.42 L 36.64 42.42 L 36.64 36.47 L 58.95 36.47 C 60.05 36.47 60.95 35.57 60.95 34.47 L 60.95 2 C 60.95 1.48 60.75 1.01 60.43 0.65 Z M 58.95 34.47 L 2 34.47 L 2 2 L 58.95 2 L 58.95 34.47 C 58.95 34.47 58.95 34.47 58.95 34.47 Z M 94.16 56.36 L 73.58 56.35 C 73.58 56.35 73.58 56.35 73.58 56.35 C 73.03 56.35 72.58 56.8 72.58 57.35 C 72.58 57.9 73.03 58.35 73.58 58.35 L 94.16 58.36 C 94.16 58.36 94.16 58.36 94.16 58.36 C 94.71 58.36 95.16 57.91 95.16 57.36 C 95.16 56.81 94.71 56.36 94.16 56.36 Z M 94.16 51.05 L 73.58 51.04 C 73.58 51.04 73.58 51.04 73.58 51.04 C 73.03 51.04 72.58 51.49 72.58 52.04 C 72.58 52.59 73.03 53.04 73.58 53.04 L 94.16 53.05 C 94.16 53.05 94.16 53.05 94.16 53.05 C 94.71 53.05 95.16 52.6 95.16 52.05 C 95.16 51.49 94.71 51.05 94.16 51.05 Z M 94.16 45.73 L 73.58 45.72 L 73.58 45.72 C 73.03 45.72 72.58 46.17 72.58 46.72 C 72.58 47.27 73.03 47.72 73.58 47.72 L 94.16 47.73 C 94.16 47.73 94.16 47.73 94.16 47.73 C 94.71 47.73 95.16 47.28 95.16 46.73 C 95.16 46.18 94.71 45.73 94.16 45.73 Z M 94.16 40.41 L 73.58 40.4 C 73.58 40.4 73.58 40.4 73.58 40.4 C 73.03 40.4 72.58 40.85 72.58 41.4 C 72.58 41.95 73.03 42.4 73.58 42.4 L 94.16 42.41 C 94.16 42.41 94.16 42.41 94.16 42.41 C 94.71 42.41 95.16 41.96 95.16 41.41 C 95.16 40.86 94.71 40.41 94.16 40.41 Z M 94.16 35.09 L 73.58 35.08 L 73.58 35.08 C 73.03 35.08 72.58 35.53 72.58 36.08 C 72.58 36.63 73.03 37.08 73.58 37.08 L 94.16 37.09 C 94.16 37.09 94.16 37.09 94.16 37.09 C 94.71 37.09 95.16 36.64 95.16 36.09 C 95.16 35.54 94.71 35.09 94.16 35.09 Z M 73.58 37.08 L 94.16 37.09 C 94.16 37.09 94.16 37.09 94.16 37.09 C 94.71 37.09 95.16 36.64 95.16 36.09 C 95.16 35.54 94.71 35.09 94.16 35.09 L 73.58 35.08 L 73.58 35.08 C 73.03 35.08 72.58 35.53 72.58 36.08 C 72.58 36.63 73.02 37.08 73.58 37.08 Z M 94.16 40.41 L 73.58 40.4 C 73.58 40.4 73.58 40.4 73.58 40.4 C 73.03 40.4 72.58 40.85 72.58 41.4 C 72.58 41.95 73.03 42.4 73.58 42.4 L 94.16 42.41 C 94.16 42.41 94.16 42.41 94.16 42.41 C 94.71 42.41 95.16 41.96 95.16 41.41 C 95.16 40.86 94.71 40.41 94.16 40.41 Z M 94.16 45.73 L 73.58 45.72 L 73.58 45.72 C 73.03 45.72 72.58 46.17 72.58 46.72 C 72.58 47.27 73.03 47.72 73.58 47.72 L 94.16 47.73 C 94.16 47.73 94.16 47.73 94.16 47.73 C 94.71 47.73 95.16 47.28 95.16 46.73 C 95.16 46.18 94.71 45.73 94.16 45.73 Z M 94.16 51.05 L 73.58 51.04 C 73.58 51.04 73.58 51.04 73.58 51.04 C 73.03 51.04 72.58 51.49 72.58 52.04 C 72.58 52.59 73.03 53.04 73.58 53.04 L 94.16 53.05 C 94.16 53.05 94.16 53.05 94.16 53.05 C 94.71 53.05 95.16 52.6 95.16 52.05 C 95.16 51.49 94.71 51.05 94.16 51.05 Z M 94.16 56.36 L 73.58 56.35 C 73.58 56.35 73.58 56.35 73.58 56.35 C 73.03 56.35 72.58 56.8 72.58 57.35 C 72.58 57.9 73.03 58.35 73.58 58.35 L 94.16 58.36 C 94.16 58.36 94.16 58.36 94.16 58.36 C 94.71 58.36 95.16 57.91 95.16 57.36 C 95.16 56.81 94.71 56.36 94.16 56.36 Z M 99.29 1.12 C 99.17 0.98 99.05 0.86 98.91 0.74 C 98.39 0.3 97.72 0.04 96.99 0.04 L 70.75 0.04 C 69.1 0.04 67.75 1.39 67.75 3.04 L 67.75 65.09 C 67.75 66.58 68.85 67.83 70.28 68.05 L 70.28 69.95 C 70.28 70.5 70.73 70.95 71.28 70.95 L 96.46 70.95 C 97.01 70.95 97.46 70.5 97.46 69.95 L 97.46 68.05 C 98.89 67.82 99.99 66.58 99.99 65.09 L 99.99 3.04 C 99.99 2.31 99.72 1.64 99.29 1.12 Z M 97.99 65.09 C 97.99 65.64 97.54 66.09 96.99 66.09 L 70.75 66.09 C 70.2 66.09 69.75 65.64 69.75 65.09 L 69.75 3.04 C 69.75 2.49 70.2 2.04 70.75 2.04 L 96.99 2.04 C 97.54 2.04 97.99 2.49 97.99 3.04 L 97.99 65.09 Z M 94.16 35.09 L 73.58 35.08 L 73.58 35.08 C 73.03 35.08 72.58 35.53 72.58 36.08 C 72.58 36.63 73.03 37.08 73.58 37.08 L 94.16 37.09 C 94.16 37.09 94.16 37.09 94.16 37.09 C 94.71 37.09 95.16 36.64 95.16 36.09 C 95.16 35.54 94.71 35.09 94.16 35.09 Z M 94.16 40.41 L 73.58 40.4 C 73.58 40.4 73.58 40.4 73.58 40.4 C 73.03 40.4 72.58 40.85 72.58 41.4 C 72.58 41.95 73.03 42.4 73.58 42.4 L 94.16 42.41 C 94.16 42.41 94.16 42.41 94.16 42.41 C 94.71 42.41 95.16 41.96 95.16 41.41 C 95.16 40.86 94.71 40.41 94.16 40.41 Z M 94.16 45.73 L 73.58 45.72 L 73.58 45.72 C 73.03 45.72 72.58 46.17 72.58 46.72 C 72.58 47.27 73.03 47.72 73.58 47.72 L 94.16 47.73 C 94.16 47.73 94.16 47.73 94.16 47.73 C 94.71 47.73 95.16 47.28 95.16 46.73 C 95.16 46.18 94.71 45.73 94.16 45.73 Z M 94.16 51.05 L 73.58 51.04 C 73.58 51.04 73.58 51.04 73.58 51.04 C 73.03 51.04 72.58 51.49 72.58 52.04 C 72.58 52.59 73.03 53.04 73.58 53.04 L 94.16 53.05 C 94.16 53.05 94.16 53.05 94.16 53.05 C 94.71 53.05 95.16 52.6 95.16 52.05 C 95.16 51.49 94.71 51.05 94.16 51.05 Z M 94.16 56.36 L 73.58 56.35 C 73.58 56.35 73.58 56.35 73.58 56.35 C 73.03 56.35 72.58 56.8 72.58 57.35 C 72.58 57.9 73.03 58.35 73.58 58.35 L 94.16 58.36 C 94.16 58.36 94.16 58.36 94.16 58.36 C 94.71 58.36 95.16 57.91 95.16 57.36 C 95.16 56.81 94.71 56.36 94.16 56.36 Z M 94.16 56.36 L 73.58 56.35 C 73.58 56.35 73.58 56.35 73.58 56.35 C 73.03 56.35 72.58 56.8 72.58 57.35 C 72.58 57.9 73.03 58.35 73.58 58.35 L 94.16 58.36 C 94.16 58.36 94.16 58.36 94.16 58.36 C 94.71 58.36 95.16 57.91 95.16 57.36 C 95.16 56.81 94.71 56.36 94.16 56.36 Z M 94.16 51.05 L 73.58 51.04 C 73.58 51.04 73.58 51.04 73.58 51.04 C 73.03 51.04 72.58 51.49 72.58 52.04 C 72.58 52.59 73.03 53.04 73.58 53.04 L 94.16 53.05 C 94.16 53.05 94.16 53.05 94.16 53.05 C 94.71 53.05 95.16 52.6 95.16 52.05 C 95.16 51.49 94.71 51.05 94.16 51.05 Z M 94.16 45.73 L 73.58 45.72 L 73.58 45.72 C 73.03 45.72 72.58 46.17 72.58 46.72 C 72.58 47.27 73.03 47.72 73.58 47.72 L 94.16 47.73 C 94.16 47.73 94.16 47.73 94.16 47.73 C 94.71 47.73 95.16 47.28 95.16 46.73 C 95.16 46.18 94.71 45.73 94.16 45.73 Z M 94.16 40.41 L 73.58 40.4 C 73.58 40.4 73.58 40.4 73.58 40.4 C 73.03 40.4 72.58 40.85 72.58 41.4 C 72.58 41.95 73.03 42.4 73.58 42.4 L 94.16 42.41 C 94.16 42.41 94.16 42.41 94.16 42.41 C 94.71 42.41 95.16 41.96 95.16 41.41 C 95.16 40.86 94.71 40.41 94.16 40.41 Z M 94.16 35.09 L 73.58 35.08 L 73.58 35.08 C 73.03 35.08 72.58 35.53 72.58 36.08 C 72.58 36.63 73.03 37.08 73.58 37.08 L 94.16 37.09 C 94.16 37.09 94.16 37.09 94.16 37.09 C 94.71 37.09 95.16 36.64 95.16 36.09 C 95.16 35.54 94.71 35.09 94.16 35.09 Z M 94.16 35.09 L 73.58 35.08 L 73.58 35.08 C 73.03 35.08 72.58 35.53 72.58 36.08 C 72.58 36.63 73.03 37.08 73.58 37.08 L 94.16 37.09 C 94.16 37.09 94.16 37.09 94.16 37.09 C 94.71 37.09 95.16 36.64 95.16 36.09 C 95.16 35.54 94.71 35.09 94.16 35.09 Z M 94.16 40.41 L 73.58 40.4 C 73.58 40.4 73.58 40.4 73.58 40.4 C 73.03 40.4 72.58 40.85 72.58 41.4 C 72.58 41.95 73.03 42.4 73.58 42.4 L 94.16 42.41 C 94.16 42.41 94.16 42.41 94.16 42.41 C 94.71 42.41 95.16 41.96 95.16 41.41 C 95.16 40.86 94.71 40.41 94.16 40.41 Z M 94.16 45.73 L 73.58 45.72 L 73.58 45.72 C 73.03 45.72 72.58 46.17 72.58 46.72 C 72.58 47.27 73.03 47.72 73.58 47.72 L 94.16 47.73 C 94.16 47.73 94.16 47.73 94.16 47.73 C 94.71 47.73 95.16 47.28 95.16 46.73 C 95.16 46.18 94.71 45.73 94.16 45.73 Z M 94.16 51.05 L 73.58 51.04 C 73.58 51.04 73.58 51.04 73.58 51.04 C 73.03 51.04 72.58 51.49 72.58 52.04 C 72.58 52.59 73.03 53.04 73.58 53.04 L 94.16 53.05 C 94.16 53.05 94.16 53.05 94.16 53.05 C 94.71 53.05 95.16 52.6 95.16 52.05 C 95.16 51.49 94.71 51.05 94.16 51.05 Z M 94.16 56.36 L 73.58 56.35 C 73.58 56.35 73.58 56.35 73.58 56.35 C 73.03 56.35 72.58 56.8 72.58 57.35 C 72.58 57.9 73.03 58.35 73.58 58.35 L 94.16 58.36 C 94.16 58.36 94.16 58.36 94.16 58.36 C 94.71 58.36 95.16 57.91 95.16 57.36 C 95.16 56.81 94.71 56.36 94.16 56.36 Z M 42.27 55.35 L 5.52 55.35 C 4.97 55.35 4.52 55.8 4.52 56.35 C 4.52 56.9 4.97 57.35 5.52 57.35 L 42.28 57.35 C 42.83 57.35 43.28 56.9 43.28 56.35 C 43.27 55.8 42.83 55.35 42.27 55.35 Z M 41.34 59.26 L 6.61 59.26 C 5.5 59.26 4.61 60.16 4.61 61.26 L 4.61 65.14 C 4.61 66.24 5.5 67.14 6.61 67.14 L 41.34 67.14 C 42.45 67.14 43.34 66.24 43.34 65.14 L 43.34 61.26 C 43.34 60.15 42.45 59.26 41.34 59.26 Z M 55.08 55.15 L 49.08 55.15 C 47.98 55.15 47.08 56.05 47.08 57.15 L 47.08 65.15 C 47.08 66.25 47.98 67.15 49.08 67.15 L 55.08 67.15 C 56.18 67.15 57.08 66.25 57.08 65.15 L 57.08 57.15 C 57.08 56.04 56.19 55.15 55.08 55.15 Z M 55.08 55.15 L 49.08 55.15 C 47.98 55.15 47.08 56.05 47.08 57.15 L 47.08 65.15 C 47.08 66.25 47.98 67.15 49.08 67.15 L 55.08 67.15 C 56.18 67.15 57.08 66.25 57.08 65.15 L 57.08 57.15 C 57.08 56.04 56.19 55.15 55.08 55.15 Z M 41.34 59.26 L 6.61 59.26 C 5.5 59.26 4.61 60.16 4.61 61.26 L 4.61 65.14 C 4.61 66.24 5.5 67.14 6.61 67.14 L 41.34 67.14 C 42.45 67.14 43.34 66.24 43.34 65.14 L 43.34 61.26 C 43.34 60.15 42.45 59.26 41.34 59.26 Z M 5.52 57.35 L 42.28 57.35 C 42.83 57.35 43.28 56.9 43.28 56.35 C 43.28 55.8 42.83 55.35 42.28 55.35 L 5.52 55.35 C 4.97 55.35 4.52 55.8 4.52 56.35 C 4.52 56.9 4.97 57.35 5.52 57.35 Z M 57.96 51.24 L 3.05 51.24 C 1.4 51.24 0.05 52.59 0.05 54.24 L 0.05 67.96 C 0.05 68.76 0.36 69.48 0.87 70.02 L 0.99 70.14 C 1.53 70.65 2.25 70.96 3.05 70.96 L 57.96 70.96 C 59.61 70.96 60.96 69.61 60.96 67.96 L 60.96 54.24 C 60.96 52.59 59.62 51.24 57.96 51.24 Z M 58.96 67.97 C 58.96 68.52 58.51 68.97 57.96 68.97 L 3.05 68.97 C 2.5 68.97 2.05 68.52 2.05 67.97 L 2.05 54.24 C 2.05 53.69 2.5 53.24 3.05 53.24 L 57.96 53.24 C 58.51 53.24 58.96 53.69 58.96 54.24 L 58.96 67.97 Z M 55.08 55.15 L 49.08 55.15 C 47.98 55.15 47.08 56.05 47.08 57.15 L 47.08 65.15 C 47.08 66.25 47.98 67.15 49.08 67.15 L 55.08 67.15 C 56.18 67.15 57.08 66.25 57.08 65.15 L 57.08 57.15 C 57.08 56.04 56.19 55.15 55.08 55.15 Z M 41.34 59.26 L 6.61 59.26 C 5.5 59.26 4.61 60.16 4.61 61.26 L 4.61 65.14 C 4.61 66.24 5.5 67.14 6.61 67.14 L 41.34 67.14 C 42.45 67.14 43.34 66.24 43.34 65.14 L 43.34 61.26 C 43.34 60.15 42.45 59.26 41.34 59.26 Z M 5.52 57.35 L 42.28 57.35 C 42.83 57.35 43.28 56.9 43.28 56.35 C 43.28 55.8 42.83 55.35 42.28 55.35 L 5.52 55.35 C 4.97 55.35 4.52 55.8 4.52 56.35 C 4.52 56.9 4.97 57.35 5.52 57.35 Z M 42.27 55.35 L 5.52 55.35 C 4.97 55.35 4.52 55.8 4.52 56.35 C 4.52 56.9 4.97 57.35 5.52 57.35 L 42.28 57.35 C 42.83 57.35 43.28 56.9 43.28 56.35 C 43.27 55.8 42.83 55.35 42.27 55.35 Z M 41.34 59.26 L 6.61 59.26 C 5.5 59.26 4.61 60.16 4.61 61.26 L 4.61 65.14 C 4.61 66.24 5.5 67.14 6.61 67.14 L 41.34 67.14 C 42.45 67.14 43.34 66.24 43.34 65.14 L 43.34 61.26 C 43.34 60.15 42.45 59.26 41.34 59.26 Z M 55.08 55.15 L 49.08 55.15 C 47.98 55.15 47.08 56.05 47.08 57.15 L 47.08 65.15 C 47.08 66.25 47.98 67.15 49.08 67.15 L 55.08 67.15 C 56.18 67.15 57.08 66.25 57.08 65.15 L 57.08 57.15 C 57.08 56.04 56.19 55.15 55.08 55.15 Z M 41.34 59.26 L 6.61 59.26 C 5.5 59.26 4.61 60.16 4.61 61.26 L 4.61 65.14 C 4.61 66.24 5.5 67.14 6.61 67.14 L 41.34 67.14 C 42.45 67.14 43.34 66.24 43.34 65.14 L 43.34 61.26 C 43.34 60.15 42.45 59.26 41.34 59.26 Z M 55.08 55.15 L 49.08 55.15 C 47.98 55.15 47.08 56.05 47.08 57.15 L 47.08 65.15 C 47.08 66.25 47.98 67.15 49.08 67.15 L 55.08 67.15 C 56.18 67.15 57.08 66.25 57.08 65.15 L 57.08 57.15 C 57.08 56.04 56.19 55.15 55.08 55.15 Z M 42.27 55.35 L 5.52 55.35 C 4.97 55.35 4.52 55.8 4.52 56.35 C 4.52 56.9 4.97 57.35 5.52 57.35 L 42.28 57.35 C 42.83 57.35 43.28 56.9 43.28 56.35 C 43.27 55.8 42.83 55.35 42.27 55.35 Z" fill="var(--icon-secondary, #6c8ebf)" stroke="none" stroke-width="0"/></svg>