<svg xmlns="http://www.w3.org/2000/svg" viewBox="0 0 140 140" width="140" height="140"><path d="M 140 50.42 L 140 135 C 140 137.76 137.76 140 135 140 L 62.26 140 L 20.99 98.72 C 21.53 99.23 22.25 99.54 23.05 99.54 L 77.96 99.54 C 79.61 99.54 80.96 98.19 80.96 96.54 L 80.96 82.82 C 80.96 81.17 79.61 79.82 77.96 79.82 L 35.94 79.82 L 26.63 70.51 L 20.6 64.47 C 20.96 64.82 21.45 65.04 22 65.04 L 44.48 65.04 L 44.48 71 L 37.25 71 C 36.7 71 36.25 71.45 36.25 72 L 36.25 72.68 C 36.25 73.23 36.7 73.68 37.25 73.68 L 63.84 73.68 C 64.39 73.68 64.84 73.23 64.84 72.68 L 64.84 72 C 64.84 71.45 64.39 71 63.84 71 L 56.64 71 L 56.64 65.06 L 78.95 65.06 C 80.05 65.06 80.95 64.16 80.95 63.06 L 80.95 30.58 C 80.95 30.06 80.75 29.59 80.43 29.23 L 87.75 36.55 L 87.75 93.67 C 87.75 95.16 88.85 96.41 90.28 96.63 L 90.28 98.53 C 90.28 99.08 90.73 99.53 91.28 99.53 L 116.46 99.53 C 117.01 99.53 117.46 99.08 117.46 98.53 L 117.46 96.63 C 118.89 96.4 119.99 95.16 119.99 93.67 L 119.99 31.62 C 119.99 30.89 119.73 30.22 119.29 29.7 L 140 50.42 Z" fill="var(--icon-primary, #dae8fc)" stroke="none" stroke-width="0" opacity="0.25"/></svg>