<svg xmlns="http://www.w3.org/2000/svg" viewBox="0 0 140 140" width="140" height="140"><path d="M 114.62 42.57 C 115.02 42.98 115.4 43.39 115.76 43.81 C 117.6 45.96 118.89 48.29 119.47 50.54 C 119.55 50.84 119.48 51.16 119.29 51.4 C 119.1 51.64 118.81 51.79 118.5 51.79 L 92 51.77 C 91.52 51.77 91.11 51.43 91.02 50.96 C 90.26 47.1 85.11 45.79 70.61 45.79 C 65.68 45.79 60.53 45.89 56.26 46.65 C 55 46.87 53.88 47.14 52.92 47.46 C 50.3 48.32 48.78 49.51 48.41 51.01 C 48.3 51.46 47.9 51.77 47.44 51.77 L 25.93 51.76 L 21.75 51.76 C 21.48 51.76 21.22 51.65 21.03 51.46 L 21.03 51.46 L 23.72 54.15 L 47.64 54.15 C 48.19 54.15 48.64 54.6 48.64 55.15 L 48.64 62.58 C 48.64 63.95 47.52 65.07 46.15 65.07 L 22.84 65.07 C 22.16 65.07 21.55 64.8 21.1 64.36 L 31.65 74.92 C 31.85 72.61 32.96 70.36 34.72 68.74 C 35.38 68.14 36.14 67.69 36.97 67.41 C 37.65 67.18 38.38 67.06 39.15 67.06 L 47.63 67.06 C 49.46 67.06 50.95 65.57 50.95 63.74 L 50.95 54.15 L 59 54.15 L 59 60.21 L 80.9 60.21 L 80.9 54.15 L 88.92 54.15 L 88.92 63.74 C 88.92 65.57 90.41 67.06 92.24 67.06 L 100.5 67.06 C 102.06 67.06 103.64 67.65 104.84 68.67 C 106.67 70.23 107.79 72.45 108 74.92 C 108.01 75.05 108.02 75.13 108.03 75.23 L 111.97 103.22 L 111.97 103.26 C 112.06 104.79 111.53 106.25 110.47 107.36 C 109.41 108.48 107.98 109.09 106.44 109.09 L 33.34 109.09 C 31.85 109.09 30.46 108.5 29.42 107.44 L 61.98 140 L 135 140 C 137.76 140 140 137.76 140 135 L 140 67.94 L 114.62 42.57 Z M 119.82 62.58 C 119.82 63.95 118.7 65.07 117.33 65.07 L 94.02 65.07 C 92.65 65.07 91.53 63.95 91.53 62.58 L 91.53 55.15 C 91.53 54.6 91.98 54.15 92.53 54.15 L 118.82 54.15 C 119.37 54.15 119.82 54.6 119.82 55.15 L 119.82 62.58 Z" fill="var(--icon-primary, #dae8fc)" stroke="none" stroke-width="0" opacity="0.25"/></svg>