<svg xmlns="http://www.w3.org/2000/svg" viewBox="0 0 99.47 79.47" width="99.47" height="79.47"><path d="M 8.48 73.64 L 12.27 45.76 C 12.28 45.66 12.3 45.52 12.31 45.42 C 12.48 43.29 13.52 41.28 15.07 39.85 C 16.11 38.9 17.41 38.43 18.82 38.43 L 27.3 38.43 C 29.68 38.43 31.62 36.5 31.62 34.11 L 31.62 25.52 L 37.67 25.52 L 37.67 31.58 L 61.56 31.58 L 61.56 25.52 L 67.58 25.52 L 67.58 34.11 C 67.58 36.49 69.51 38.43 71.9 38.43 L 80.16 38.43 C 81.49 38.43 82.84 38.94 83.85 39.8 C 85.48 41.19 86.48 43.18 86.66 45.37 C 86.67 45.51 86.68 45.61 86.7 45.75 L 90.63 73.7 C 90.78 76.3 88.7 78.48 86.1 78.47 L 13 78.47 C 10.38 78.46 8.31 76.24 8.48 73.64 Z M 27.09 21.16 C 28.49 15.53 41.03 15.18 50.27 15.18 C 64.33 15.18 70.71 16.32 71.66 21.15 L 98.16 21.17 C 96.19 13.63 84.58 1 49.2 1 C 12.64 1 3 15.05 1.4 21.14 L 27.09 21.16 Z M 98.47 32.96 L 98.47 25.53 L 72.18 25.53 L 72.18 32.96 C 72.18 33.78 72.85 34.45 73.67 34.45 L 96.98 34.45 C 97.81 34.45 98.47 33.78 98.47 32.96 Z M 27.29 32.96 L 27.29 25.53 L 1 25.53 L 1 32.96 C 1 33.78 1.67 34.45 2.49 34.45 L 25.8 34.45 C 26.63 34.45 27.29 33.79 27.29 32.96 Z" fill="var(--icon-primary, #dae8fc)" stroke="none" stroke-width="0"/><path d="M 27.29 24.53 L 1 24.53 C 0.45 24.53 0 24.98 0 25.53 L 0 32.96 C 0 33.64 0.27 34.25 0.71 34.7 L 0.75 34.74 C 1.2 35.18 1.81 35.45 2.49 35.45 L 25.8 35.45 C 27.17 35.45 28.29 34.33 28.29 32.96 L 28.29 25.53 C 28.29 24.98 27.85 24.53 27.29 24.53 Z M 26.29 32.96 C 26.29 33.23 26.07 33.45 25.8 33.45 L 2.49 33.45 C 2.22 33.45 2 33.23 2 32.96 L 2 26.53 L 26.29 26.53 L 26.29 32.96 Z M 98.47 24.53 L 72.18 24.53 C 71.63 24.53 71.18 24.98 71.18 25.53 L 71.18 32.96 C 71.18 34.33 72.3 35.45 73.67 35.45 L 96.98 35.45 C 98.35 35.45 99.47 34.33 99.47 32.96 L 99.47 25.53 C 99.47 24.98 99.03 24.53 98.47 24.53 Z M 97.47 32.96 C 97.47 33.23 97.25 33.45 96.98 33.45 L 73.67 33.45 C 73.4 33.45 73.18 33.23 73.18 32.96 L 73.18 26.53 L 97.47 26.53 L 97.47 32.96 Z M 99.13 20.91 C 98.54 18.66 97.26 16.34 95.42 14.18 C 95.06 13.76 94.68 13.34 94.28 12.94 C 94.22 12.88 94.16 12.82 94.11 12.77 C 92.1 10.77 89.62 8.96 86.7 7.38 C 82.52 5.12 77.48 3.35 71.72 2.12 C 65.15 0.71 57.58 0 49.2 0 C 33.14 0 20.51 2.67 11.68 7.93 C 3.29 12.92 1.02 18.66 0.43 20.89 C 0.35 21.19 0.42 21.51 0.61 21.75 C 0.63 21.78 0.66 21.81 0.69 21.84 C 0.88 22.03 1.13 22.14 1.41 22.14 L 5.59 22.14 L 27.1 22.15 C 27.56 22.15 27.96 21.84 28.07 21.39 C 28.44 19.88 29.96 18.69 32.58 17.84 C 33.54 17.53 34.66 17.26 35.92 17.03 C 40.2 16.27 45.35 16.17 50.27 16.17 C 64.77 16.17 69.92 17.47 70.68 21.34 C 70.77 21.81 71.18 22.15 71.66 22.15 L 98.16 22.17 C 98.47 22.17 98.76 22.03 98.95 21.78 C 99.14 21.53 99.21 21.21 99.13 20.91 Z M 72.43 20.15 C 71.66 17.8 69.63 16.28 66.13 15.38 C 62.83 14.53 58.09 14.17 50.27 14.17 C 45.25 14.17 40 14.28 35.57 15.06 C 33.8 15.37 32.29 15.78 31.02 16.27 C 28.6 17.22 27.07 18.5 26.38 20.14 L 7.58 20.15 L 2.78 20.15 C 3.2 19.09 3.93 17.65 5.18 16.05 C 7.05 13.66 9.57 11.51 12.69 9.65 C 21.22 4.57 33.5 2 49.2 2 C 79.41 2 93.51 11.51 96.79 20.17 L 72.43 20.15 Z M 63.68 50.17 C 63.41 49.41 63.09 48.68 62.71 47.98 C 61.33 45.43 59.22 43.33 56.68 41.95 C 54.56 40.8 52.13 40.14 49.56 40.14 C 46.41 40.14 43.49 41.11 41.08 42.78 C 37.17 45.48 34.6 50 34.6 55.1 C 34.6 55.32 34.6 55.54 34.61 55.76 C 34.88 62 38.99 67.26 44.63 69.23 C 45.98 69.7 47.41 69.98 48.91 70.05 C 49.13 70.06 49.35 70.06 49.57 70.06 C 54.68 70.06 59.19 67.49 61.89 63.57 C 63.55 61.16 64.53 58.24 64.53 55.09 C 64.51 53.38 64.22 51.72 63.68 50.17 Z M 49.79 64.06 C 49.71 64.06 49.63 64.06 49.55 64.06 C 44.61 64.06 40.59 60.04 40.59 55.1 C 40.59 51.64 42.56 48.63 45.44 47.14 C 46.67 46.5 48.07 46.14 49.56 46.14 C 54.5 46.14 58.52 50.16 58.52 55.1 C 58.52 55.18 58.52 55.26 58.52 55.34 C 58.48 56.73 58.13 58.05 57.52 59.22 C 56.05 62.03 53.15 63.98 49.79 64.06 Z M 63.68 50.17 C 63.41 49.41 63.09 48.68 62.71 47.98 C 61.33 45.43 59.22 43.33 56.68 41.95 C 54.56 40.8 52.13 40.14 49.56 40.14 C 46.41 40.14 43.49 41.11 41.08 42.78 C 37.17 45.48 34.6 50 34.6 55.1 C 34.6 55.32 34.6 55.54 34.61 55.76 C 34.88 62 38.99 67.26 44.63 69.23 C 45.98 69.7 47.41 69.98 48.91 70.05 C 49.13 70.06 49.35 70.06 49.57 70.06 C 54.68 70.06 59.19 67.49 61.89 63.57 C 63.55 61.16 64.53 58.24 64.53 55.09 C 64.51 53.38 64.22 51.72 63.68 50.17 Z M 49.79 64.06 C 49.71 64.06 49.63 64.06 49.55 64.06 C 44.61 64.06 40.59 60.04 40.59 55.1 C 40.59 51.64 42.56 48.63 45.44 47.14 C 46.67 46.5 48.07 46.14 49.56 46.14 C 54.5 46.14 58.52 50.16 58.52 55.1 C 58.52 55.18 58.52 55.26 58.52 55.34 C 58.48 56.73 58.13 58.05 57.52 59.22 C 56.05 62.03 53.15 63.98 49.79 64.06 Z M 63.68 50.17 C 63.41 49.41 63.09 48.68 62.71 47.98 C 61.33 45.43 59.22 43.33 56.68 41.95 C 54.56 40.8 52.13 40.14 49.56 40.14 C 46.41 40.14 43.49 41.11 41.08 42.78 C 37.17 45.48 34.6 50 34.6 55.1 C 34.6 55.32 34.6 55.54 34.61 55.76 C 34.88 62 38.99 67.26 44.63 69.23 C 45.98 69.7 47.41 69.98 48.91 70.05 C 49.13 70.06 49.35 70.06 49.57 70.06 C 54.68 70.06 59.19 67.49 61.89 63.57 C 63.55 61.16 64.53 58.24 64.53 55.09 C 64.51 53.38 64.22 51.72 63.68 50.17 Z M 49.79 64.06 C 49.71 64.06 49.63 64.06 49.55 64.06 C 44.61 64.06 40.59 60.04 40.59 55.1 C 40.59 51.64 42.56 48.63 45.44 47.14 C 46.67 46.5 48.07 46.14 49.56 46.14 C 54.5 46.14 58.52 50.16 58.52 55.1 C 58.52 55.18 58.52 55.26 58.52 55.34 C 58.48 56.73 58.13 58.05 57.52 59.22 C 56.05 62.03 53.15 63.98 49.79 64.06 Z M 63.68 50.17 C 63.41 49.41 63.09 48.68 62.71 47.98 C 61.33 45.43 59.22 43.33 56.68 41.95 C 54.56 40.8 52.13 40.14 49.56 40.14 C 46.41 40.14 43.49 41.11 41.08 42.78 C 37.17 45.48 34.6 50 34.6 55.1 C 34.6 55.32 34.6 55.54 34.61 55.76 C 34.88 62 38.99 67.26 44.63 69.23 C 45.98 69.7 47.41 69.98 48.91 70.05 C 49.13 70.06 49.35 70.06 49.57 70.06 C 54.68 70.06 59.19 67.49 61.89 63.57 C 63.55 61.16 64.53 58.24 64.53 55.09 C 64.51 53.38 64.22 51.72 63.68 50.17 Z M 49.79 64.06 C 49.71 64.06 49.63 64.06 49.55 64.06 C 44.61 64.06 40.59 60.04 40.59 55.1 C 40.59 51.64 42.56 48.63 45.44 47.14 C 46.67 46.5 48.07 46.14 49.56 46.14 C 54.5 46.14 58.52 50.16 58.52 55.1 C 58.52 55.18 58.52 55.26 58.52 55.34 C 58.48 56.73 58.13 58.05 57.52 59.22 C 56.05 62.03 53.15 63.98 49.79 64.06 Z M 63.68 50.17 C 63.41 49.41 63.09 48.68 62.71 47.98 C 61.33 45.43 59.22 43.33 56.68 41.95 C 54.56 40.8 52.13 40.14 49.56 40.14 C 46.41 40.14 43.49 41.11 41.08 42.78 C 37.17 45.48 34.6 50 34.6 55.1 C 34.6 55.32 34.6 55.54 34.61 55.76 C 34.88 62 38.99 67.26 44.63 69.23 C 45.98 69.7 47.41 69.98 48.91 70.05 C 49.13 70.06 49.35 70.06 49.57 70.06 C 54.68 70.06 59.19 67.49 61.89 63.57 C 63.55 61.16 64.53 58.24 64.53 55.09 C 64.51 53.38 64.22 51.72 63.68 50.17 Z M 49.79 64.06 C 49.71 64.06 49.63 64.06 49.55 64.06 C 44.61 64.06 40.59 60.04 40.59 55.1 C 40.59 51.64 42.56 48.63 45.44 47.14 C 46.67 46.5 48.07 46.14 49.56 46.14 C 54.5 46.14 58.52 50.16 58.52 55.1 C 58.52 55.18 58.52 55.26 58.52 55.34 C 58.48 56.73 58.13 58.05 57.52 59.22 C 56.05 62.03 53.15 63.98 49.79 64.06 Z M 63.68 50.17 C 63.41 49.41 63.09 48.68 62.71 47.98 C 61.33 45.43 59.22 43.33 56.68 41.95 C 54.56 40.8 52.13 40.14 49.56 40.14 C 46.41 40.14 43.49 41.11 41.08 42.78 C 37.17 45.48 34.6 50 34.6 55.1 C 34.6 55.32 34.6 55.54 34.61 55.76 C 34.88 62 38.99 67.26 44.63 69.23 C 45.98 69.7 47.41 69.98 48.91 70.05 C 49.13 70.06 49.35 70.06 49.57 70.06 C 54.68 70.06 59.19 67.49 61.89 63.57 C 63.55 61.16 64.53 58.24 64.53 55.09 C 64.51 53.38 64.22 51.72 63.68 50.17 Z M 49.79 64.06 C 49.71 64.06 49.63 64.06 49.55 64.06 C 44.61 64.06 40.59 60.04 40.59 55.1 C 40.59 51.64 42.56 48.63 45.44 47.14 C 46.67 46.5 48.07 46.14 49.56 46.14 C 54.5 46.14 58.52 50.16 58.52 55.1 C 58.52 55.18 58.52 55.26 58.52 55.34 C 58.48 56.73 58.13 58.05 57.52 59.22 C 56.05 62.03 53.15 63.98 49.79 64.06 Z M 63.68 50.17 C 63.41 49.41 63.09 48.68 62.71 47.98 C 61.33 45.43 59.22 43.33 56.68 41.95 C 54.56 40.8 52.13 40.14 49.56 40.14 C 46.41 40.14 43.49 41.11 41.08 42.78 C 37.17 45.48 34.6 50 34.6 55.1 C 34.6 55.32 34.6 55.54 34.61 55.76 C 34.88 62 38.99 67.26 44.63 69.23 C 45.98 69.7 47.41 69.98 48.91 70.05 C 49.13 70.06 49.35 70.06 49.57 70.06 C 54.68 70.06 59.19 67.49 61.89 63.57 C 63.55 61.16 64.53 58.24 64.53 55.09 C 64.51 53.38 64.22 51.72 63.68 50.17 Z M 49.79 64.06 C 49.71 64.06 49.63 64.06 49.55 64.06 C 44.61 64.06 40.59 60.04 40.59 55.1 C 40.59 51.64 42.56 48.63 45.44 47.14 C 46.67 46.5 48.07 46.14 49.56 46.14 C 54.5 46.14 58.52 50.16 58.52 55.1 C 58.52 55.18 58.52 55.26 58.52 55.34 C 58.48 56.73 58.13 58.05 57.52 59.22 C 56.05 62.03 53.15 63.98 49.79 64.06 Z M 91.62 73.64 L 91.62 73.6 L 87.68 45.61 C 87.67 45.51 87.66 45.43 87.65 45.3 C 87.45 42.83 86.33 40.61 84.49 39.05 C 83.29 38.03 81.71 37.44 80.15 37.44 L 71.89 37.44 C 70.06 37.44 68.57 35.95 68.57 34.12 L 68.57 24.53 L 60.55 24.53 L 60.55 30.59 L 38.66 30.59 L 38.66 24.53 L 30.61 24.53 L 30.61 34.12 C 30.61 35.95 29.12 37.44 27.29 37.44 L 18.81 37.44 C 18.04 37.44 17.31 37.56 16.63 37.79 C 15.8 38.07 15.04 38.52 14.38 39.12 C 12.62 40.74 11.5 42.99 11.31 45.3 C 11.31 45.31 11.31 45.33 11.31 45.34 C 11.3 45.43 11.29 45.55 11.28 45.62 L 9.44 59.09 L 7.49 73.5 L 7.48 73.57 C 7.38 75.09 7.93 76.6 8.97 77.72 C 9 77.75 9.04 77.79 9.07 77.82 C 10.11 78.88 11.5 79.46 12.99 79.47 L 86.1 79.47 C 87.64 79.47 89.07 78.86 90.13 77.74 C 91.18 76.63 91.71 75.17 91.62 73.64 Z M 88.97 76.01 L 10.15 76.01 C 9.67 75.35 9.43 74.56 9.48 73.74 L 11.79 56.77 L 13.1 47.1 L 13.26 45.9 C 13.27 45.79 13.29 45.64 13.3 45.51 C 13.45 43.68 14.34 41.89 15.74 40.6 C 16.44 39.95 17.32 39.57 18.31 39.47 C 18.48 39.45 18.64 39.45 18.81 39.45 L 27.29 39.45 C 28.14 39.45 28.94 39.25 29.66 38.89 C 30.69 38.37 31.54 37.53 32.05 36.5 C 32.41 35.79 32.61 34.98 32.61 34.13 L 32.61 26.54 L 36.66 26.54 L 36.66 32.6 L 62.55 32.6 L 62.55 26.54 L 66.57 26.54 L 66.57 34.13 C 66.57 37.06 68.96 39.45 71.89 39.45 L 80.15 39.45 C 81.23 39.45 82.37 39.87 83.19 40.58 C 84.62 41.8 85.49 43.53 85.65 45.47 C 85.66 45.61 85.67 45.74 85.7 45.9 L 89.62 73.8 C 89.67 74.6 89.44 75.37 88.97 76.01 Z M 62.71 47.98 C 61.33 45.43 59.22 43.33 56.68 41.95 C 54.56 40.8 52.13 40.14 49.56 40.14 C 46.41 40.14 43.49 41.11 41.08 42.78 C 37.17 45.48 34.6 50 34.6 55.1 C 34.6 55.32 34.6 55.54 34.61 55.76 C 34.88 62 38.99 67.26 44.63 69.23 C 45.98 69.7 47.41 69.98 48.91 70.05 C 49.13 70.06 49.35 70.06 49.57 70.06 C 54.68 70.06 59.19 67.49 61.89 63.57 C 63.55 61.16 64.53 58.24 64.53 55.09 C 64.53 53.36 64.24 51.7 63.7 50.16 C 63.41 49.41 63.09 48.68 62.71 47.98 Z M 49.79 64.06 C 49.71 64.06 49.63 64.06 49.55 64.06 C 44.61 64.06 40.59 60.04 40.59 55.1 C 40.59 51.64 42.56 48.63 45.44 47.14 C 46.67 46.5 48.07 46.14 49.56 46.14 C 54.5 46.14 58.52 50.16 58.52 55.1 C 58.52 55.18 58.52 55.26 58.52 55.34 C 58.48 56.73 58.13 58.05 57.52 59.22 C 56.05 62.03 53.15 63.98 49.79 64.06 Z M 63.68 50.17 C 63.41 49.41 63.09 48.68 62.71 47.98 C 61.33 45.43 59.22 43.33 56.68 41.95 C 54.56 40.8 52.13 40.14 49.56 40.14 C 46.41 40.14 43.49 41.11 41.08 42.78 C 37.17 45.48 34.6 50 34.6 55.1 C 34.6 55.32 34.6 55.54 34.61 55.76 C 34.88 62 38.99 67.26 44.63 69.23 C 45.98 69.7 47.41 69.98 48.91 70.05 C 49.13 70.06 49.35 70.06 49.57 70.06 C 54.68 70.06 59.19 67.49 61.89 63.57 C 63.55 61.16 64.53 58.24 64.53 55.09 C 64.51 53.38 64.22 51.72 63.68 50.17 Z M 49.79 64.06 C 49.71 64.06 49.63 64.06 49.55 64.06 C 44.61 64.06 40.59 60.04 40.59 55.1 C 40.59 51.64 42.56 48.63 45.44 47.14 C 46.67 46.5 48.07 46.14 49.56 46.14 C 54.5 46.14 58.52 50.16 58.52 55.1 C 58.52 55.18 58.52 55.26 58.52 55.34 C 58.48 56.73 58.13 58.05 57.52 59.22 C 56.05 62.03 53.15 63.98 49.79 64.06 Z M 63.68 50.17 C 63.41 49.41 63.09 48.68 62.71 47.98 C 61.33 45.43 59.22 43.33 56.68 41.95 C 54.56 40.8 52.13 40.14 49.56 40.14 C 46.41 40.14 43.49 41.11 41.08 42.78 C 37.17 45.48 34.6 50 34.6 55.1 C 34.6 55.32 34.6 55.54 34.61 55.76 C 34.88 62 38.99 67.26 44.63 69.23 C 45.98 69.7 47.41 69.98 48.91 70.05 C 49.13 70.06 49.35 70.06 49.57 70.06 C 54.68 70.06 59.19 67.49 61.89 63.57 C 63.55 61.16 64.53 58.24 64.53 55.09 C 64.51 53.38 64.22 51.72 63.68 50.17 Z M 49.79 64.06 C 49.71 64.06 49.63 64.06 49.55 64.06 C 44.61 64.06 40.59 60.04 40.59 55.1 C 40.59 51.64 42.56 48.63 45.44 47.14 C 46.67 46.5 48.07 46.14 49.56 46.14 C 54.5 46.14 58.52 50.16 58.52 55.1 C 58.52 55.18 58.52 55.26 58.52 55.34 C 58.48 56.73 58.13 58.05 57.52 59.22 C 56.05 62.03 53.15 63.98 49.79 64.06 Z M 63.68 50.17 C 63.41 49.41 63.09 48.68 62.71 47.98 C 61.33 45.43 59.22 43.33 56.68 41.95 C 54.56 40.8 52.13 40.14 49.56 40.14 C 46.41 40.14 43.49 41.11 41.08 42.78 C 37.17 45.48 34.6 50 34.6 55.1 C 34.6 55.32 34.6 55.54 34.61 55.76 C 34.88 62 38.99 67.26 44.63 69.23 C 45.98 69.7 47.41 69.98 48.91 70.05 C 49.13 70.06 49.35 70.06 49.57 70.06 C 54.68 70.06 59.19 67.49 61.89 63.57 C 63.55 61.16 64.53 58.24 64.53 55.09 C 64.51 53.38 64.22 51.72 63.68 50.17 Z M 49.79 64.06 C 49.71 64.06 49.63 64.06 49.55 64.06 C 44.61 64.06 40.59 60.04 40.59 55.1 C 40.59 51.64 42.56 48.63 45.44 47.14 C 46.67 46.5 48.07 46.14 49.56 46.14 C 54.5 46.14 58.52 50.16 58.52 55.1 C 58.52 55.18 58.52 55.26 58.52 55.34 C 58.48 56.73 58.13 58.05 57.52 59.22 C 56.05 62.03 53.15 63.98 49.79 64.06 Z" fill="var(--icon-secondary, #6c8ebf)" stroke="none" stroke-width="0"/></svg>