<svg xmlns="http://www.w3.org/2000/svg" viewBox="0 0 100 100" width="100" height="100"><path d="M 99 32.5 L 99 73.5 C 99 74.88 97.88 76 96.5 76 L 75 76 L 75 98 C 75 98.55 74.55 99 74 99 L 26 99 C 25.45 99 25 98.55 25 98 L 25 76 L 3.5 76 C 2.12 76 1 74.88 1 73.5 L 1 32.5 C 1 31.12 2.12 30 3.5 30 L 26 30 C 25.45 30 25 29.55 25 29 L 25 2 C 25 1.45 25.45 1 26 1 L 74 1 C 74.55 1 75 1.45 75 2 L 75 29 C 75 29.55 74.55 30 74 30 L 96.5 30 C 97.88 30 99 31.12 99 32.5 Z" fill="var(--icon-primary, #dae8fc)" stroke="none" stroke-width="0"/><path d="M 95.04 36.53 C 95.04 38.19 93.7 39.53 92.04 39.53 C 90.38 39.53 89.04 38.19 89.04 36.53 C 89.04 34.87 90.38 33.53 92.04 33.53 C 93.7 33.53 95.04 34.88 95.04 36.53 Z M 82.44 33.53 C 80.78 33.53 79.44 34.87 79.44 36.53 C 79.44 38.19 80.78 39.53 82.44 39.53 C 84.1 39.53 85.44 38.19 85.44 36.53 C 85.44 34.88 84.1 33.53 82.44 33.53 Z" fill="var(--icon-secondary, #6c8ebf)" stroke="none" stroke-width="0"/><path d="M 92.04 40.53 C 89.83 40.53 88.04 38.74 88.04 36.53 C 88.04 34.32 89.83 32.53 92.04 32.53 C 94.25 32.53 96.04 34.32 96.04 36.53 C 96.04 38.74 94.25 40.53 92.04 40.53 Z M 92.04 34.53 C 90.94 34.53 90.04 35.43 90.04 36.53 C 90.04 37.63 90.94 38.53 92.04 38.53 C 93.14 38.53 94.04 37.63 94.04 36.53 C 94.04 35.43 93.15 34.53 92.04 34.53 Z M 82.44 40.53 C 80.23 40.53 78.44 38.74 78.44 36.53 C 78.44 34.32 80.23 32.53 82.44 32.53 C 84.65 32.53 86.44 34.32 86.44 36.53 C 86.44 38.74 84.65 40.53 82.44 40.53 Z M 82.44 34.53 C 81.34 34.53 80.44 35.43 80.44 36.53 C 80.44 37.63 81.34 38.53 82.44 38.53 C 83.54 38.53 84.44 37.63 84.44 36.53 C 84.44 35.43 83.55 34.53 82.44 34.53 Z M 60 33 L 40 33 C 39.45 33 39 33.45 39 34 L 39 39 C 39 39.55 39.45 40 40 40 L 60 40 C 60.55 40 61 39.55 61 39 L 61 34 C 61 33.45 60.55 33 60 33 Z M 60 33 L 40 33 C 39.45 33 39 33.45 39 34 L 39 39 C 39 39.55 39.45 40 40 40 L 60 40 C 60.55 40 61 39.55 61 39 L 61 34 C 61 33.45 60.55 33 60 33 Z M 60 33 L 40 33 C 39.45 33 39 33.45 39 34 L 39 39 C 39 39.55 39.45 40 40 40 L 60 40 C 60.55 40 61 39.55 61 39 L 61 34 C 61 33.45 60.55 33 60 33 Z M 96.5 29 L 76 29 L 76 2 C 76 1.48 75.8 1.01 75.48 0.65 L 75.46 0.63 L 75.37 0.54 L 75.35 0.52 C 74.99 0.2 74.52 0 74 0 L 26 0 C 24.9 0 24 0.9 24 2 L 24 29 L 3.5 29 C 1.57 29 0 30.57 0 32.5 L 0 73.5 C 0 74.43 0.36 75.28 0.96 75.9 L 0.97 75.91 L 1.09 76.03 L 1.1 76.04 C 1.73 76.64 2.57 77 3.5 77 L 11.28 77 L 11.28 78.64 C 11.28 79.19 11.73 79.64 12.28 79.64 L 24 79.64 L 24 98 C 24 98.55 24.22 99.05 24.59 99.41 C 24.96 99.77 25.45 100 26 100 L 74 100 C 75.1 100 76 99.1 76 98 L 76 79.64 L 87.71 79.64 C 88.26 79.64 88.71 79.19 88.71 78.64 L 88.71 77 L 96.5 77 C 98.43 77 100 75.43 100 73.5 L 100 32.5 C 100 30.57 98.43 29 96.5 29 Z M 26 2 L 74 2 L 74 29 C 74 29 74 29 74 29 L 26 29 L 26 2 Z M 74 98 L 26 98 L 26 68.37 L 74 68.37 L 74 79.64 L 74 98 C 74 98 74 98 74 98 Z M 98 73.5 C 98 74.33 97.33 75 96.5 75 L 76 75 L 76 62 C 76 60.9 75.1 60 74 60 L 26 60 C 24.9 60 24 60.9 24 62 L 24 75 L 3.5 75 C 2.67 75 2 74.33 2 73.5 L 2 44 L 98 44 L 98 73.5 Z M 98 42 L 2 42 L 2 32.5 C 2 31.67 2.67 31 3.5 31 L 96.5 31 C 97.33 31 98 31.67 98 32.5 L 98 42 Z M 60 33 L 40 33 C 39.45 33 39 33.45 39 34 L 39 39 C 39 39.55 39.45 40 40 40 L 60 40 C 60.55 40 61 39.55 61 39 L 61 34 C 61 33.45 60.55 33 60 33 Z M 60 33 L 40 33 C 39.45 33 39 33.45 39 34 L 39 39 C 39 39.55 39.45 40 40 40 L 60 40 C 60.55 40 61 39.55 61 39 L 61 34 C 61 33.45 60.55 33 60 33 Z M 66 11.5 L 34 11.5 C 33.45 11.5 33 11.05 33 10.5 C 33 9.95 33.45 9.5 34 9.5 L 66 9.5 C 66.55 9.5 67 9.95 67 10.5 C 67 11.05 66.55 11.5 66 11.5 Z M 67 18 C 67 17.45 66.55 17 66 17 L 34 17 C 33.45 17 33 17.45 33 18 C 33 18.55 33.45 19 34 19 L 66 19 C 66.55 19 67 18.55 67 18 Z M 67 82.5 C 67 81.95 66.55 81.5 66 81.5 L 34 81.5 C 33.45 81.5 33 81.95 33 82.5 C 33 83.05 33.45 83.5 34 83.5 L 66 83.5 C 66.55 83.5 67 83.05 67 82.5 Z M 67 90 C 67 89.45 66.55 89 66 89 L 34 89 C 33.45 89 33 89.45 33 90 C 33 90.55 33.45 91 34 91 L 66 91 C 66.55 91 67 90.55 67 90 Z" fill="var(--icon-secondary, #6c8ebf)" stroke="none" stroke-width="0"/></svg>