<svg xmlns="http://www.w3.org/2000/svg" viewBox="0 0 140 140" width="140" height="140"><path d="M 140 65.17 L 140 135 C 140 137.76 137.76 140 135 140 L 65.05 140 L 44.52 119.47 L 21.1 96.04 C 21.73 96.63 22.57 97 23.5 97 L 31.28 97 L 31.28 98.64 C 31.28 99.19 31.73 99.64 32.28 99.64 L 44 99.64 L 44 118 C 44 118.55 44.22 119.05 44.59 119.41 C 44.96 119.77 45.45 120 46 120 L 94 120 C 95.1 120 96 119.1 96 118 L 96 99.64 L 107.71 99.64 C 108.26 99.64 108.71 99.19 108.71 98.64 L 108.71 97 L 116.5 97 C 118.43 97 120 95.43 120 93.5 L 120 52.5 C 120 50.57 118.43 49 116.5 49 L 96 49 L 96 22 C 96 21.48 95.8 21.01 95.48 20.65 L 140 65.17 Z" fill="var(--icon-primary, #dae8fc)" stroke="none" stroke-width="0" opacity="0.25"/></svg>