<svg xmlns="http://www.w3.org/2000/svg" viewBox="0 0 100 104" width="100" height="104"><rect x="5.2" y="12" width="89.36" height="55" fill="var(--icon-primary, #dae8fc)" stroke="none" stroke-width="0"/><path d="M 97 66 L 95.56 66 L 95.56 13 L 97 13 C 98.65 13 100 11.65 100 10 C 100 9.17 99.66 8.42 99.12 7.88 C 98.58 7.34 97.83 7 97 7 L 52 7 L 52 2 C 52 1.45 51.78 0.95 51.41 0.59 C 51.04 0.23 50.55 0 50 0 C 48.9 0 48 0.9 48 2 L 48 7 L 3 7 C 1.35 7 0 8.35 0 10 C 0 11.65 1.35 13 3 13 L 4.2 13 L 4.2 66 L 3 66 C 1.35 66 0 67.35 0 69 C 0 69.83 0.34 70.58 0.88 71.12 C 1.42 71.66 2.17 72 3 72 L 38.4 72 L 22.33 92.57 L 15.92 100.77 C 15.29 101.58 15.38 102.72 16.09 103.42 C 16.15 103.48 16.21 103.53 16.27 103.58 C 16.64 103.87 17.07 104 17.5 104 C 18.09 104 18.68 103.74 19.08 103.23 L 25.18 95.42 L 43.47 72 L 48 72 L 48 102 C 48 103.11 48.9 104 50 104 C 51.1 104 52 103.11 52 102 L 52 72 L 56.53 72 L 69.79 88.98 L 80.93 103.23 C 81.32 103.73 81.91 104 82.51 104 C 82.94 104 83.37 103.86 83.74 103.58 C 84.61 102.9 84.77 101.64 84.09 100.77 L 72.64 86.13 L 61.6 72 L 97 72 C 98.65 72 100 70.65 100 69 C 100 67.35 98.65 66 97 66 Z M 93.56 66 L 6.2 66 L 6.2 13 L 93.56 13 L 93.56 66 Z" fill="var(--icon-secondary, #6c8ebf)" stroke="none" stroke-width="0"/></svg>