<svg xmlns="http://www.w3.org/2000/svg" viewBox="0 0 140 140" width="140" height="140"><path d="M 119.12 25.88 C 119.66 26.42 120 27.17 120 28 C 120 29.65 118.65 31 117 31 L 115.56 31 L 115.56 84 L 117 84 C 118.65 84 120 85.35 120 87 C 120 88.65 118.65 90 117 90 L 81.6 90 L 92.64 104.13 L 104.08 118.77 C 104.76 119.64 104.61 120.9 103.73 121.58 C 103.36 121.87 102.93 122 102.5 122 C 101.91 122 101.32 121.74 100.92 121.23 L 89.78 106.98 L 76.53 90 L 72 90 L 72 120 C 72 121.11 71.1 122 70 122 C 68.9 122 68 121.11 68 120 L 68 90 L 63.47 90 L 45.17 113.42 L 39.07 121.23 C 38.68 121.73 38.09 122 37.49 122 C 37.06 122 36.63 121.86 36.26 121.58 C 36.2 121.53 36.14 121.48 36.08 121.42 L 54.67 140 L 135 140 C 137.76 140 140 137.76 140 135 L 140 46.76 L 119.12 25.88 Z M 23 90 C 22.17 90 21.42 89.66 20.88 89.12 L 42.33 110.57 L 58.4 90 L 23 90 Z" fill="var(--icon-primary, #dae8fc)" stroke="none" stroke-width="0" opacity="0.25"/></svg>