<svg xmlns="http://www.w3.org/2000/svg" viewBox="0 0 140 140" width="140" height="140"><path d="M 92.52 21.21 C 93.19 21.91 93.6 22.86 93.6 23.91 L 93.6 111.96 C 93.6 114.03 91.98 115.73 89.93 115.86 L 89.93 118.7 C 89.93 119.42 89.35 120 88.63 120 L 51.36 120 C 51.01 120 50.69 119.86 50.46 119.64 L 50.42 119.6 L 70.82 140 L 135 140 C 137.76 140 140 137.76 140 135 L 140 68.69 L 92.52 21.21 Z M 47.72 114.89 L 47.72 114.89 C 47.66 114.83 47.6 114.78 47.54 114.72 L 50.06 117.24 L 50.06 115.86 C 49.17 115.8 48.36 115.45 47.72 114.89 Z" fill="var(--icon-primary, #dae8fc)" stroke="none" stroke-width="0" opacity="0.25"/></svg>