<svg xmlns="http://www.w3.org/2000/svg" viewBox="0 0 100 54.85" width="100" height="54.85"><path d="M 96.5 51.22 L 3.5 51.22 C 2.12 51.22 1 50.1 1 48.72 L 1 28.97 C 1 27.59 2.12 26.47 3.5 26.47 L 96.5 26.47 C 97.88 26.47 99 27.59 99 28.97 L 99 48.72 C 99 50.1 97.88 51.22 96.5 51.22 Z" fill="var(--icon-primary, #dae8fc)" stroke="none" stroke-width="0"/><path d="M 91.78 38.5 C 91.78 40.16 90.44 41.5 88.78 41.5 C 87.12 41.5 85.78 40.16 85.78 38.5 C 85.78 36.84 87.12 35.5 88.78 35.5 C 90.44 35.5 91.78 36.84 91.78 38.5 Z M 77.73 35.5 C 76.07 35.5 74.73 36.84 74.73 38.5 C 74.73 40.16 76.07 41.5 77.73 41.5 C 79.39 41.5 80.73 40.16 80.73 38.5 C 80.73 36.84 79.39 35.5 77.73 35.5 Z M 66.68 35.5 C 65.02 35.5 63.68 36.84 63.68 38.5 C 63.68 40.16 65.02 41.5 66.68 41.5 C 68.34 41.5 69.68 40.16 69.68 38.5 C 69.68 36.84 68.34 35.5 66.68 35.5 Z" fill="var(--icon-secondary, #6c8ebf)" stroke="none" stroke-width="0"/><path d="M 56.25 33.84 L 8.02 33.84 C 7.47 33.84 7.02 33.39 7.02 32.84 C 7.02 32.29 7.47 31.84 8.02 31.84 L 56.25 31.84 C 56.8 31.84 57.25 32.29 57.25 32.84 C 57.25 33.39 56.8 33.84 56.25 33.84 Z M 57.25 38.85 C 57.25 38.3 56.8 37.85 56.25 37.85 L 8.02 37.85 C 7.47 37.85 7.02 38.3 7.02 38.85 C 7.02 39.4 7.47 39.85 8.02 39.85 L 56.25 39.85 C 56.8 39.85 57.25 39.4 57.25 38.85 Z M 57.25 44.86 C 57.25 44.31 56.8 43.86 56.25 43.86 L 8.02 43.86 C 7.47 43.86 7.02 44.31 7.02 44.86 C 7.02 45.41 7.47 45.86 8.02 45.86 L 56.25 45.86 C 56.8 45.86 57.25 45.41 57.25 44.86 Z M 92.78 38.5 C 92.78 36.29 90.99 34.5 88.78 34.5 C 86.57 34.5 84.78 36.29 84.78 38.5 C 84.78 40.71 86.57 42.5 88.78 42.5 C 90.99 42.5 92.78 40.7 92.78 38.5 Z M 90.78 38.5 C 90.78 39.6 89.88 40.5 88.78 40.5 C 87.68 40.5 86.78 39.6 86.78 38.5 C 86.78 37.4 87.68 36.5 88.78 36.5 C 89.88 36.5 90.78 37.39 90.78 38.5 Z M 81.73 38.5 C 81.73 36.29 79.94 34.5 77.73 34.5 C 75.52 34.5 73.73 36.29 73.73 38.5 C 73.73 40.71 75.52 42.5 77.73 42.5 C 79.94 42.5 81.73 40.7 81.73 38.5 Z M 79.73 38.5 C 79.73 39.6 78.83 40.5 77.73 40.5 C 76.63 40.5 75.73 39.6 75.73 38.5 C 75.73 37.4 76.63 36.5 77.73 36.5 C 78.84 36.5 79.73 37.39 79.73 38.5 Z M 70.68 38.5 C 70.68 36.29 68.89 34.5 66.68 34.5 C 64.47 34.5 62.68 36.29 62.68 38.5 C 62.68 40.71 64.47 42.5 66.68 42.5 C 68.89 42.5 70.68 40.7 70.68 38.5 Z M 68.68 38.5 C 68.68 39.6 67.78 40.5 66.68 40.5 C 65.58 40.5 64.68 39.6 64.68 38.5 C 64.68 37.4 65.58 36.5 66.68 36.5 C 67.79 36.5 68.68 37.39 68.68 38.5 Z M 96.5 25.47 L 83.91 25.47 L 83.37 2.34 C 83.34 1.76 83.12 1.32 82.8 1.01 C 81.76 0 79.67 0.45 79.56 2.34 C 79.57 2.4 79.12 20.95 79.02 25.47 L 20.97 25.47 L 20.44 2.34 C 20.41 1.81 20.22 1.39 19.94 1.09 L 19.83 0.98 C 19.38 0.57 18.75 0.41 18.16 0.52 C 17.46 0.65 16.83 1.15 16.66 2.02 C 16.64 2.12 16.63 2.23 16.62 2.34 C 16.62 2.4 16.18 20.95 16.08 25.47 L 3.5 25.47 C 1.57 25.47 0 27.04 0 28.97 L 0 48.72 C 0 49.62 0.34 50.45 0.91 51.07 C 0.91 51.07 0.91 51.07 0.91 51.07 C 0.99 51.15 1.06 51.23 1.15 51.31 C 1.15 51.31 1.15 51.31 1.15 51.31 C 1.77 51.87 2.6 52.22 3.5 52.22 L 11.28 52.22 L 11.28 53.85 C 11.28 54.4 11.73 54.85 12.28 54.85 L 24.78 54.85 C 25.33 54.85 25.78 54.4 25.78 53.85 L 25.78 52.22 L 74.21 52.22 L 74.21 53.85 C 74.21 54.4 74.66 54.85 75.21 54.85 L 87.71 54.85 C 88.26 54.85 88.71 54.4 88.71 53.85 L 88.71 52.22 L 96.49 52.22 C 98.42 52.22 99.99 50.65 99.99 48.72 L 99.99 28.97 C 100 27.04 98.43 25.47 96.5 25.47 Z M 98 48.72 C 98 49.55 97.33 50.22 96.5 50.22 L 3.5 50.22 C 2.67 50.22 2 49.55 2 48.72 L 2 28.97 C 2 28.14 2.67 27.47 3.5 27.47 L 96.5 27.47 C 97.33 27.47 98 28.14 98 28.97 L 98 48.72 Z" fill="var(--icon-secondary, #6c8ebf)" stroke="none" stroke-width="0"/></svg>