<svg xmlns="http://www.w3.org/2000/svg" viewBox="0 0 140 140" width="140" height="140"><path d="M 39.96 32.24 C 39.98 32.26 40 32.29 40.03 32.32 C 40.06 32.35 40.08 32.39 40.11 32.43 C 40.13 32.45 40.14 32.47 40.15 32.5 C 40.16 32.52 40.17 32.53 40.18 32.55 C 40.19 32.57 40.2 32.58 40.21 32.6 C 40.22 32.63 40.24 32.65 40.25 32.68 C 40.25 32.68 40.25 32.69 40.25 32.69 C 40.26 32.71 40.27 32.74 40.28 32.76 C 40.32 32.85 40.35 32.94 40.37 33.04 C 40.38 33.06 40.38 33.09 40.39 33.12 C 40.4 33.14 40.4 33.16 40.4 33.18 C 40.41 33.21 40.41 33.24 40.42 33.27 C 40.43 33.31 40.43 33.34 40.43 33.38 C 40.43 33.42 40.44 33.46 40.44 33.49 L 40.98 56.62 L 64.33 56.62 L 39.96 32.24 Z M 102.82 32.16 L 102.82 32.16 C 103.14 32.47 103.36 32.91 103.39 33.49 L 103.93 56.62 L 116.52 56.62 C 118.45 56.62 120.02 58.19 120.02 60.12 L 120.02 79.87 C 120.02 81.8 118.45 83.37 116.52 83.37 L 108.74 83.37 L 108.74 85 C 108.74 85.55 108.29 86 107.74 86 L 95.24 86 C 94.69 86 94.24 85.55 94.24 85 L 94.24 83.37 L 45.8 83.37 L 45.8 85 C 45.8 85.55 45.35 86 44.8 86 L 32.3 86 C 31.75 86 31.3 85.55 31.3 85 L 31.3 83.37 L 23.52 83.37 C 22.62 83.37 21.79 83.03 21.17 82.46 L 78.7 140 L 135 140 C 137.76 140 140 137.76 140 135 L 140 69.35 L 102.82 32.16 Z" fill="var(--icon-primary, #dae8fc)" stroke="none" stroke-width="0" opacity="0.25"/></svg>