<svg xmlns="http://www.w3.org/2000/svg" viewBox="0 0 140 140" width="140" height="140"><path d="M 140 93.89 L 140 135 C 140 137.76 137.76 140 135 140 L 39.58 140 L 19.29 119.71 C 19.47 119.89 19.72 120 20 120 L 100 120 C 100.55 120 101 119.55 101 119 L 101 117.5 C 101 115.57 99.43 114 97.5 114 L 84.59 114 L 80.01 105.76 C 83.23 106.33 86.52 106.61 89.85 106.61 C 94.4 106.61 98.93 106.07 103.31 104.99 C 107.57 103.95 111.7 102.4 115.6 100.4 C 115.88 100.25 116.08 99.98 116.13 99.67 C 116.18 99.35 116.07 99.03 115.85 98.81 L 90.85 73.81 L 90.85 54.71 C 92.91 54.25 94.45 52.41 94.45 50.22 C 94.45 49.02 93.99 47.92 93.23 47.1 L 140 93.89 Z M 87.25 54.02 L 78.89 61.85 L 88.84 71.8 L 88.84 54.7 C 88.26 54.59 87.73 54.35 87.25 54.02 Z M 85.35 51.23 L 68.8 51.23 L 68.53 51.5 L 77.47 60.44 L 85.88 52.56 C 85.64 52.15 85.46 51.7 85.35 51.23 Z" fill="var(--icon-primary, #dae8fc)" stroke="none" stroke-width="0" opacity="0.25"/></svg>