<svg xmlns="http://www.w3.org/2000/svg" viewBox="0 0 115.53 97.41" width="115.53" height="97.41"><path d="M 78.93 24.62 L 62.19 53.62 L 42.79 42.42 L 59.53 13.42 C 60.22 12.23 61.73 11.83 62.92 12.51 L 78.02 21.23 C 79.2 21.92 79.61 23.44 78.93 24.62 Z M 62.18 53.62 L 42.78 42.42 L 35.24 43.88 L 64.68 60.88 L 62.18 53.62 Z M 63.46 89.18 C 66.41 76.08 60.71 62.04 48.47 54.98 C 36.23 47.92 21.22 49.99 11.35 59.1 L 63.46 89.18 Z M 1.69 17 L 38.93 38.5 C 39.41 38.78 40.02 38.61 40.3 38.13 L 48.3 24.27 C 48.58 23.79 48.41 23.18 47.93 22.9 L 10.69 1.41 C 10.21 1.14 9.6 1.3 9.32 1.78 L 1.32 15.64 C 1.05 16.11 1.21 16.73 1.69 17 Z M 67.51 55 L 104.75 76.5 C 105.23 76.78 105.84 76.61 106.12 76.13 L 114.12 62.27 C 114.4 61.79 114.23 61.18 113.75 60.9 L 76.51 39.4 C 76.03 39.12 75.42 39.29 75.14 39.77 L 67.14 53.63 C 66.87 54.11 67.03 54.73 67.51 55 Z" fill="var(--icon-primary, #dae8fc)" stroke="none" stroke-width="0"/><path d="M 35.1 91.15 C 32.78 91.77 30.26 91.47 28.12 90.23 C 25.2 88.55 23.44 85.41 23.52 82.04 L 25.52 82.09 C 25.46 84.73 26.84 87.19 29.12 88.5 C 31.4 89.82 34.22 89.78 36.47 88.41 L 37.51 90.12 C 36.75 90.58 35.94 90.92 35.1 91.15 Z M 40.36 94.78 L 39.32 93.07 C 38.27 93.71 37.15 94.18 36 94.49 C 32.8 95.35 29.34 94.93 26.38 93.22 C 22.36 90.9 19.94 86.58 20.05 81.94 L 18.05 81.89 C 17.92 87.26 20.73 92.27 25.38 94.95 C 28.8 96.92 32.81 97.41 36.51 96.42 C 37.85 96.07 39.15 95.52 40.36 94.78 Z M 114.98 62.78 L 106.98 76.64 C 106.7 77.12 106.26 77.44 105.77 77.57 C 105.28 77.7 104.73 77.65 104.25 77.37 L 67.01 55.87 C 66.06 55.32 65.73 54.09 66.28 53.14 L 67.28 51.41 L 65.29 50.26 L 63.29 53.73 L 65.65 60.56 L 65.65 60.57 C 65.67 60.64 65.69 60.71 65.69 60.79 C 65.69 60.81 65.69 60.83 65.7 60.84 C 65.7 60.94 65.69 61.03 65.67 61.12 C 65.67 61.14 65.66 61.17 65.65 61.19 C 65.64 61.21 65.63 61.23 65.63 61.26 C 65.62 61.28 65.61 61.3 65.6 61.32 C 65.59 61.34 65.57 61.37 65.56 61.39 L 61.84 67.83 C 62.1 68.36 62.35 68.89 62.58 69.43 C 63.92 72.55 64.76 75.84 65.08 79.22 C 65.4 82.64 65.19 86.07 64.43 89.41 C 64.36 89.72 64.15 89.98 63.86 90.11 C 63.81 90.13 63.77 90.15 63.72 90.16 C 63.47 90.23 63.19 90.19 62.96 90.06 L 41.46 77.64 L 37.77 75.51 L 35 80.31 C 35.8 81.25 35.97 82.63 35.32 83.76 C 35.3 83.79 35.29 83.82 35.27 83.85 C 34.85 84.52 34.21 84.97 33.5 85.16 C 32.76 85.36 31.94 85.27 31.22 84.86 C 30.99 84.73 30.79 84.57 30.62 84.4 L 30.57 84.35 C 29.66 83.41 29.45 81.95 30.13 80.77 C 30.31 80.46 30.54 80.19 30.8 79.97 C 31.48 79.4 32.4 79.16 33.27 79.32 L 36.04 74.52 L 10.85 59.97 C 10.78 59.93 10.72 59.88 10.66 59.83 C 10.49 59.67 10.38 59.45 10.35 59.22 C 10.32 58.9 10.43 58.59 10.67 58.37 C 13.19 56.05 16.05 54.15 19.17 52.72 C 22.25 51.31 25.53 50.39 28.9 49.99 C 29.49 49.92 30.07 49.87 30.66 49.83 L 31.53 48.32 L 33.25 45.33 L 34.37 43.39 C 34.4 43.34 34.43 43.3 34.46 43.26 C 34.47 43.24 34.49 43.23 34.5 43.21 C 34.51 43.2 34.53 43.18 34.54 43.17 C 34.54 43.17 34.54 43.17 34.54 43.17 C 34.56 43.15 34.58 43.13 34.6 43.12 C 34.62 43.11 34.64 43.09 34.66 43.08 C 34.68 43.07 34.7 43.05 34.72 43.04 C 34.76 43.01 34.8 42.99 34.85 42.97 C 34.87 42.96 34.9 42.95 34.92 42.94 C 34.96 42.93 35 42.92 35.04 42.91 L 35.06 42.91 L 42.15 41.54 L 44.16 38.07 L 42.17 36.92 L 41.17 38.65 C 40.89 39.13 40.45 39.45 39.96 39.58 C 39.47 39.71 38.92 39.66 38.44 39.38 L 26.61 32.55 L 1.19 17.87 C 1.05 17.79 0.92 17.69 0.81 17.59 L 0.76 17.54 C 0.15 16.92 0 15.93 0.45 15.14 L 8.46 1.28 C 9.01 0.32 10.23 0 11.19 0.55 L 41.24 17.9 L 48.43 22.05 C 48.59 22.14 48.73 22.25 48.86 22.38 C 49.47 23 49.62 23.99 49.16 24.78 L 48.16 26.51 L 50.15 27.66 L 51.61 25.13 L 58.66 12.92 C 59.13 12.11 59.88 11.54 60.78 11.3 C 61.68 11.06 62.62 11.18 63.42 11.65 L 65.96 13.12 L 67.31 8.41 C 67.4 8.11 67.61 7.87 67.9 7.76 C 68.19 7.64 68.51 7.67 68.77 7.82 L 79.16 13.82 C 79.23 13.86 79.29 13.9 79.34 13.96 C 79.35 13.97 79.37 13.99 79.38 14 C 79.52 14.15 79.62 14.34 79.65 14.55 C 79.69 14.86 79.59 15.16 79.38 15.38 L 75.97 18.91 L 78.51 20.38 C 79.32 20.85 79.89 21.6 80.13 22.5 C 80.37 23.4 80.25 24.34 79.78 25.14 L 71.27 39.88 L 73.26 41.03 L 74.26 39.3 C 74.81 38.34 76.04 38.02 76.99 38.57 L 114.23 60.07 C 115.2 60.6 115.53 61.82 114.98 62.78 Z M 95.49 51.53 L 91.99 57.59 L 100 62.21 L 103.5 56.15 L 95.49 51.53 Z M 85.75 45.9 L 82.25 51.96 L 90.26 56.59 L 93.76 50.53 L 85.75 45.9 Z M 72.51 46.34 L 80.52 50.97 L 84.02 44.91 L 76.01 40.28 L 75.01 42.01 L 72.51 46.34 Z M 29.67 13.53 L 26.17 19.59 L 34.19 24.22 L 37.69 18.16 L 29.67 13.53 Z M 19.93 7.9 L 16.43 13.96 L 24.44 18.58 L 27.94 12.52 L 19.93 7.9 Z M 6.69 8.34 L 14.7 12.96 L 18.2 6.9 L 10.19 2.28 L 6.69 8.34 Z M 10.2 20.76 L 13.7 14.7 L 5.69 10.07 L 2.19 16.14 L 10.2 20.76 Z M 19.94 26.39 L 23.44 20.33 L 15.43 15.7 L 11.93 21.76 L 19.94 26.39 Z M 29.69 32.01 L 33.19 25.95 L 25.18 21.32 L 21.68 27.38 L 28.07 31.07 L 29.69 32.01 Z M 42.93 31.57 L 34.92 26.94 L 31.42 33 L 39.43 37.62 L 40.43 35.89 L 42.93 31.57 Z M 46.43 25.51 L 47.43 23.78 L 39.78 19.36 L 39.42 19.15 L 38.65 20.48 L 35.92 25.21 L 43.93 29.83 L 46.43 25.51 Z M 60.52 69.62 C 57.96 63.98 53.66 59.13 47.97 55.84 C 45.66 54.51 43.23 53.5 40.75 52.81 C 37.14 51.81 33.42 51.5 29.76 51.86 C 23.74 52.44 17.9 54.83 13.05 58.93 L 42.93 76.18 L 62.75 87.63 C 63.88 81.37 63.02 75.12 60.52 69.62 Z M 62.87 58.68 L 61.36 54.3 L 42.69 43.52 L 42.61 43.48 L 38.07 44.36 L 40.47 45.75 L 62.87 58.68 Z M 69.55 38.86 L 78.06 24.12 C 78.16 23.95 78.22 23.76 78.25 23.57 C 78.28 23.38 78.26 23.18 78.21 22.99 C 78.11 22.61 77.86 22.29 77.52 22.09 L 66.08 15.48 L 62.43 13.37 C 61.72 12.96 60.81 13.2 60.4 13.91 L 53.08 26.58 L 51.89 28.64 L 45.89 39.03 L 44.16 42.03 L 61.83 52.23 L 63.56 49.23 L 69.55 38.86 Z M 76.02 58.76 L 79.52 52.7 L 71.51 48.08 L 69.01 52.41 L 68.01 54.14 L 76.02 58.76 Z M 85.76 64.39 L 89.26 58.33 L 81.25 53.7 L 77.75 59.76 L 85.76 64.39 Z M 95.5 70.01 L 99 63.95 L 90.99 59.32 L 87.49 65.38 L 95.5 70.01 Z M 108.75 69.57 L 100.74 64.94 L 97.24 71 L 105.25 75.62 L 108.75 69.57 Z M 113.25 61.78 L 105.24 57.16 L 101.74 63.22 L 109.75 67.84 L 113.25 61.78 Z" fill="var(--icon-secondary, #6c8ebf)" stroke="none" stroke-width="0"/></svg>