<svg xmlns="http://www.w3.org/2000/svg" viewBox="0 0 140 140" width="140" height="140"><path d="M 140 82.13 L 140 135 C 140 137.76 137.76 140 135 140 L 78.68 140 L 44.34 105.66 C 44.52 105.83 44.72 105.99 44.94 106.12 C 45.66 106.53 46.48 106.62 47.22 106.42 C 47.96 106.22 48.63 105.74 49.04 105.02 C 49.69 103.89 49.52 102.51 48.72 101.57 L 51.49 96.77 L 76.68 111.31 C 76.91 111.44 77.18 111.48 77.44 111.41 C 77.49 111.4 77.53 111.38 77.58 111.36 C 77.87 111.23 78.08 110.97 78.15 110.66 C 78.9 107.32 79.12 103.89 78.8 100.47 C 78.48 97.09 77.64 93.8 76.3 90.68 C 76.07 90.14 75.82 89.6 75.56 89.08 L 79.28 82.64 C 79.29 82.62 79.31 82.59 79.32 82.57 C 79.33 82.55 79.34 82.53 79.34 82.51 C 79.35 82.49 79.36 82.47 79.36 82.44 C 79.37 82.42 79.37 82.4 79.38 82.37 C 79.4 82.28 79.41 82.18 79.41 82.09 C 79.41 82.07 79.41 82.06 79.4 82.04 C 79.39 81.97 79.38 81.89 79.36 81.82 L 79.36 81.81 L 77 74.98 L 79 71.51 L 80.99 72.66 L 79.99 74.39 C 79.44 75.34 79.77 76.57 80.72 77.12 L 117.96 98.62 C 118.44 98.9 118.98 98.95 119.48 98.82 C 119.97 98.69 120.42 98.37 120.7 97.89 L 128.7 84.03 C 129.25 83.07 128.92 81.85 127.97 81.3 L 90.73 59.8 C 89.78 59.25 88.55 59.58 88 60.53 L 87 62.26 L 85.01 61.11 L 93.52 46.37 C 93.99 45.56 94.11 44.62 93.87 43.73 C 93.63 42.83 93.05 42.08 92.25 41.61 L 89.71 40.14 L 93.12 36.61 C 93.33 36.39 93.43 36.08 93.39 35.78 C 93.36 35.57 93.27 35.38 93.12 35.23 L 140 82.13 Z M 62.59 43.64 C 63.2 44.26 63.35 45.25 62.9 46.04 L 61.9 47.77 L 63.89 48.92 L 65.35 46.39 L 62.59 43.64 Z M 55.89 58.17 L 54.89 59.9 C 54.61 60.38 54.17 60.7 53.68 60.83 C 53.18 60.96 52.64 60.91 52.16 60.63 L 40.33 53.8 L 14.92 39.13 C 14.78 39.05 14.65 38.95 14.54 38.85 L 45.26 69.57 L 48.1 64.64 C 48.13 64.59 48.16 64.55 48.19 64.51 C 48.2 64.49 48.22 64.48 48.23 64.46 C 48.24 64.45 48.26 64.43 48.27 64.42 C 48.27 64.42 48.27 64.42 48.27 64.42 C 48.29 64.4 48.31 64.38 48.33 64.37 C 48.35 64.36 48.37 64.34 48.39 64.33 C 48.41 64.32 48.43 64.3 48.45 64.29 C 48.49 64.26 48.53 64.24 48.58 64.22 C 48.6 64.21 48.63 64.2 48.65 64.19 C 48.69 64.18 48.73 64.17 48.77 64.16 L 48.79 64.16 L 55.88 62.79 L 57.89 59.32 L 55.89 58.17 Z M 24.58 81.23 C 24.51 81.19 24.45 81.14 24.39 81.09 L 44.52 101.22 C 45.2 100.65 46.12 100.41 46.99 100.57 L 49.76 95.77 L 24.58 81.23 Z" fill="var(--icon-primary, #dae8fc)" stroke="none" stroke-width="0" opacity="0.25"/></svg>