<svg xmlns="http://www.w3.org/2000/svg" viewBox="0 0 140 140" width="140" height="140"><path d="M 110.09 79.14 L 75.52 79.14 L 37.82 41.44 C 38.16 41.77 38.56 42.06 39 42.29 L 40.53 43.08 L 51.19 48.61 L 77.82 62.41 L 81.68 64.41 L 110.09 79.14 Z M 118.61 72.6 C 119.38 73.4 119.85 74.43 119.97 75.51 C 120.01 75.82 120.01 76.14 119.99 76.45 C 120 76.51 120.01 76.57 120.01 76.63 L 120.01 85.67 C 120.01 87.6 118.44 89.17 116.51 89.17 L 108.73 89.17 L 108.73 90.8 C 108.73 91.35 108.28 91.8 107.73 91.8 L 95.23 91.8 C 94.68 91.8 94.23 91.35 94.23 90.8 L 94.23 89.17 L 45.78 89.17 L 45.78 90.8 C 45.78 91.35 45.33 91.8 44.78 91.8 L 32.28 91.8 C 31.73 91.8 31.28 91.35 31.28 90.8 L 31.28 89.17 L 23.5 89.17 C 22.6 89.17 21.77 88.83 21.15 88.26 C 21.15 88.26 21.15 88.26 21.15 88.26 C 21.12 88.23 21.08 88.2 21.05 88.16 L 72.88 140 L 135 140 C 137.76 140 140 137.76 140 135 L 140 93.99 L 118.61 72.6 Z" fill="var(--icon-primary, #dae8fc)" stroke="none" stroke-width="0" opacity="0.25"/></svg>