<svg xmlns="http://www.w3.org/2000/svg" viewBox="0 0 100.01 59.65" width="100.01" height="59.65"><path d="M 95 47.91 C 94.38 47.91 93.75 47.77 93.16 47.46 L 19.46 9.26 C 17.5 8.24 16.73 5.83 17.75 3.87 C 18.77 1.91 21.18 1.14 23.14 2.16 L 96.84 40.36 C 98.8 41.38 99.57 43.79 98.55 45.75 C 97.84 47.12 96.44 47.91 95 47.91 Z M 99 53.49 L 99 50.49 C 99 49.11 97.88 47.99 96.5 47.99 L 3.5 47.99 C 2.12 47.99 1 49.11 1 50.49 L 1 53.49 C 1 54.87 2.12 55.99 3.5 55.99 L 96.5 55.99 C 97.88 55.99 99 54.88 99 53.49 Z" fill="var(--icon-primary, #dae8fc)" stroke="none" stroke-width="0"/><path d="M 9.97 49.99 C 8.87 49.99 7.97 50.89 7.97 51.99 C 7.97 53.09 8.87 53.99 9.97 53.99 C 11.07 53.99 11.97 53.09 11.97 51.99 C 11.97 50.89 11.07 49.99 9.97 49.99 Z M 16.67 49.99 C 15.57 49.99 14.67 50.89 14.67 51.99 C 14.67 53.09 15.57 53.99 16.67 53.99 C 17.77 53.99 18.67 53.09 18.67 51.99 C 18.67 50.89 17.77 49.99 16.67 49.99 Z M 23.37 49.99 C 22.27 49.99 21.37 50.89 21.37 51.99 C 21.37 53.09 22.27 53.99 23.37 53.99 C 24.47 53.99 25.37 53.09 25.37 51.99 C 25.37 50.89 24.47 49.99 23.37 49.99 Z M 23.37 49.99 C 22.27 49.99 21.37 50.89 21.37 51.99 C 21.37 53.09 22.27 53.99 23.37 53.99 C 24.47 53.99 25.37 53.09 25.37 51.99 C 25.37 50.89 24.47 49.99 23.37 49.99 Z M 16.67 49.99 C 15.57 49.99 14.67 50.89 14.67 51.99 C 14.67 53.09 15.57 53.99 16.67 53.99 C 17.77 53.99 18.67 53.09 18.67 51.99 C 18.67 50.89 17.77 49.99 16.67 49.99 Z M 9.97 49.99 C 8.87 49.99 7.97 50.89 7.97 51.99 C 7.97 53.09 8.87 53.99 9.97 53.99 C 11.07 53.99 11.97 53.09 11.97 51.99 C 11.97 50.89 11.07 49.99 9.97 49.99 Z M 9.97 49.99 C 8.87 49.99 7.97 50.89 7.97 51.99 C 7.97 53.09 8.87 53.99 9.97 53.99 C 11.07 53.99 11.97 53.09 11.97 51.99 C 11.97 50.89 11.07 49.99 9.97 49.99 Z M 16.67 49.99 C 15.57 49.99 14.67 50.89 14.67 51.99 C 14.67 53.09 15.57 53.99 16.67 53.99 C 17.77 53.99 18.67 53.09 18.67 51.99 C 18.67 50.89 17.77 49.99 16.67 49.99 Z M 23.37 49.99 C 22.27 49.99 21.37 50.89 21.37 51.99 C 21.37 53.09 22.27 53.99 23.37 53.99 C 24.47 53.99 25.37 53.09 25.37 51.99 C 25.37 50.89 24.47 49.99 23.37 49.99 Z M 23.37 49.99 C 22.27 49.99 21.37 50.89 21.37 51.99 C 21.37 53.09 22.27 53.99 23.37 53.99 C 24.47 53.99 25.37 53.09 25.37 51.99 C 25.37 50.89 24.47 49.99 23.37 49.99 Z M 16.67 49.99 C 15.57 49.99 14.67 50.89 14.67 51.99 C 14.67 53.09 15.57 53.99 16.67 53.99 C 17.77 53.99 18.67 53.09 18.67 51.99 C 18.67 50.89 17.77 49.99 16.67 49.99 Z M 9.97 49.99 C 8.87 49.99 7.97 50.89 7.97 51.99 C 7.97 53.09 8.87 53.99 9.97 53.99 C 11.07 53.99 11.97 53.09 11.97 51.99 C 11.97 50.89 11.07 49.99 9.97 49.99 Z M 99.98 44.3 C 100.01 43.98 100 43.67 99.96 43.36 C 99.84 42.28 99.37 41.25 98.6 40.45 L 98.43 40.28 C 98.29 40.15 98.15 40.03 97.99 39.91 C 97.77 39.75 97.54 39.6 97.29 39.47 L 83.4 32.27 L 79.02 30 L 39.35 9.43 L 38.61 9.05 L 23.6 1.27 C 21.15 0 18.13 0.96 16.86 3.41 C 16.18 4.71 16.14 6.19 16.62 7.46 C 16.85 8.08 17.21 8.66 17.68 9.15 C 17.71 9.18 17.74 9.22 17.77 9.25 C 17.79 9.27 17.8 9.28 17.82 9.29 C 18.16 9.62 18.56 9.91 19 10.14 L 20.53 10.93 L 31.19 16.46 L 31.93 16.84 L 57.82 30.26 L 61.68 32.26 L 90.09 46.98 L 3.5 46.98 C 2.96 46.98 2.45 47.1 2 47.32 C 1.63 47.5 1.3 47.73 1.01 48.02 C 0.39 48.67 0 49.54 0 50.49 L 0 53.52 C 0 53.54 0 53.56 0 53.58 C 0 53.62 0 53.66 0 53.7 C 0.04 54.53 0.38 55.29 0.9 55.87 C 0.9 55.87 0.9 55.87 0.9 55.87 C 0.93 55.9 0.96 55.94 1 55.97 L 1.04 56.01 C 1.07 56.04 1.11 56.08 1.14 56.11 C 1.14 56.11 1.14 56.11 1.14 56.11 C 1.76 56.67 2.59 57.02 3.49 57.02 L 11.27 57.02 L 11.27 58.65 C 11.27 59.2 11.72 59.65 12.27 59.65 L 24.77 59.65 C 25.32 59.65 25.77 59.2 25.77 58.65 L 25.77 57.02 L 74.2 57.02 L 74.2 58.65 C 74.2 59.2 74.65 59.65 75.2 59.65 L 87.7 59.65 C 88.25 59.65 88.7 59.2 88.7 58.65 L 88.7 57.02 L 96.48 57.02 C 98.41 57.02 99.98 55.45 99.98 53.52 L 99.98 44.48 C 100 44.42 99.99 44.36 99.98 44.3 Z M 98 53.52 C 98 54.35 97.33 55.02 96.5 55.02 L 3.5 55.02 C 2.67 55.02 2 54.35 2 53.52 L 2 50.49 C 2 49.66 2.67 48.99 3.5 48.99 L 96.5 48.99 C 97.33 48.99 98 49.66 98 50.49 L 98 53.52 Z M 97.97 44.32 C 97.93 44.65 97.82 44.98 97.66 45.29 C 97.14 46.29 96.12 46.91 94.99 46.91 C 94.51 46.91 94.04 46.8 93.61 46.57 L 66.02 32.27 L 62.16 30.27 L 33.41 15.37 L 32.67 14.99 L 20.47 8.67 L 19.92 8.38 C 18.76 7.78 18.16 6.53 18.33 5.31 C 18.38 4.98 18.48 4.65 18.64 4.34 C 19.17 3.3 20.22 2.71 21.3 2.71 C 21.76 2.71 22.24 2.82 22.68 3.05 L 37.12 10.54 L 37.86 10.92 L 75.21 30.28 L 79.07 32.28 L 96.38 41.25 C 97.41 41.78 98 42.83 98 43.91 C 98 44.05 97.99 44.18 97.97 44.32 Z M 23.37 49.99 C 22.27 49.99 21.37 50.89 21.37 51.99 C 21.37 53.09 22.27 53.99 23.37 53.99 C 24.47 53.99 25.37 53.09 25.37 51.99 C 25.37 50.89 24.47 49.99 23.37 49.99 Z M 16.67 49.99 C 15.57 49.99 14.67 50.89 14.67 51.99 C 14.67 53.09 15.57 53.99 16.67 53.99 C 17.77 53.99 18.67 53.09 18.67 51.99 C 18.67 50.89 17.77 49.99 16.67 49.99 Z M 9.97 49.99 C 8.87 49.99 7.97 50.89 7.97 51.99 C 7.97 53.09 8.87 53.99 9.97 53.99 C 11.07 53.99 11.97 53.09 11.97 51.99 C 11.97 50.89 11.07 49.99 9.97 49.99 Z M 9.97 49.99 C 8.87 49.99 7.97 50.89 7.97 51.99 C 7.97 53.09 8.87 53.99 9.97 53.99 C 11.07 53.99 11.97 53.09 11.97 51.99 C 11.97 50.89 11.07 49.99 9.97 49.99 Z M 16.67 49.99 C 15.57 49.99 14.67 50.89 14.67 51.99 C 14.67 53.09 15.57 53.99 16.67 53.99 C 17.77 53.99 18.67 53.09 18.67 51.99 C 18.67 50.89 17.77 49.99 16.67 49.99 Z M 23.37 49.99 C 22.27 49.99 21.37 50.89 21.37 51.99 C 21.37 53.09 22.27 53.99 23.37 53.99 C 24.47 53.99 25.37 53.09 25.37 51.99 C 25.37 50.89 24.47 49.99 23.37 49.99 Z M 23.37 49.99 C 22.27 49.99 21.37 50.89 21.37 51.99 C 21.37 53.09 22.27 53.99 23.37 53.99 C 24.47 53.99 25.37 53.09 25.37 51.99 C 25.37 50.89 24.47 49.99 23.37 49.99 Z M 16.67 49.99 C 15.57 49.99 14.67 50.89 14.67 51.99 C 14.67 53.09 15.57 53.99 16.67 53.99 C 17.77 53.99 18.67 53.09 18.67 51.99 C 18.67 50.89 17.77 49.99 16.67 49.99 Z M 9.97 49.99 C 8.87 49.99 7.97 50.89 7.97 51.99 C 7.97 53.09 8.87 53.99 9.97 53.99 C 11.07 53.99 11.97 53.09 11.97 51.99 C 11.97 50.89 11.07 49.99 9.97 49.99 Z M 9.97 49.99 C 8.87 49.99 7.97 50.89 7.97 51.99 C 7.97 53.09 8.87 53.99 9.97 53.99 C 11.07 53.99 11.97 53.09 11.97 51.99 C 11.97 50.89 11.07 49.99 9.97 49.99 Z M 16.67 49.99 C 15.57 49.99 14.67 50.89 14.67 51.99 C 14.67 53.09 15.57 53.99 16.67 53.99 C 17.77 53.99 18.67 53.09 18.67 51.99 C 18.67 50.89 17.77 49.99 16.67 49.99 Z M 23.37 49.99 C 22.27 49.99 21.37 50.89 21.37 51.99 C 21.37 53.09 22.27 53.99 23.37 53.99 C 24.47 53.99 25.37 53.09 25.37 51.99 C 25.37 50.89 24.47 49.99 23.37 49.99 Z M 9.97 49.99 C 8.87 49.99 7.97 50.89 7.97 51.99 C 7.97 53.09 8.87 53.99 9.97 53.99 C 11.07 53.99 11.97 53.09 11.97 51.99 C 11.97 50.89 11.07 49.99 9.97 49.99 Z M 16.67 49.99 C 15.57 49.99 14.67 50.89 14.67 51.99 C 14.67 53.09 15.57 53.99 16.67 53.99 C 17.77 53.99 18.67 53.09 18.67 51.99 C 18.67 50.89 17.77 49.99 16.67 49.99 Z M 23.37 49.99 C 22.27 49.99 21.37 50.89 21.37 51.99 C 21.37 53.09 22.27 53.99 23.37 53.99 C 24.47 53.99 25.37 53.09 25.37 51.99 C 25.37 50.89 24.47 49.99 23.37 49.99 Z M 38.83 50.49 L 30.03 50.49 C 29.2 50.49 28.53 51.16 28.53 51.99 C 28.53 52.82 29.2 53.49 30.03 53.49 L 38.83 53.49 C 39.66 53.49 40.33 52.82 40.33 51.99 C 40.33 51.17 39.66 50.49 38.83 50.49 Z" fill="var(--icon-secondary, #6c8ebf)" stroke="none" stroke-width="0"/></svg>