<svg xmlns="http://www.w3.org/2000/svg" viewBox="0 0 140 140" width="140" height="140"><path d="M 140 62.71 L 140 135 C 140 137.76 137.76 140 135 140 L 62.71 140 L 20.9 98.2 C 21.44 98.73 22.18 99.06 23 99.06 L 117 99.06 C 118.65 99.06 120 97.71 120 96.06 L 120 84.06 C 120 82.41 118.65 81.06 117 81.06 L 23.81 81.06 L 20.88 78.13 C 21.42 78.66 22.17 79 23 79 L 117 79 C 118.65 79 120 77.65 120 76 L 120 64 C 120 62.35 118.65 61 117 61 L 23.82 61 L 20.94 58.12 C 21.48 58.64 22.21 58.95 23.01 58.95 L 117.01 58.95 C 118.66 58.95 120.01 57.6 120.01 55.95 L 120.01 43.95 C 120.01 43.13 119.68 42.39 119.15 41.85 L 140 62.71 Z" fill="var(--icon-primary, #dae8fc)" stroke="none" stroke-width="0" opacity="0.25"/></svg>