<svg xmlns="http://www.w3.org/2000/svg" viewBox="0 0 100.01 58.12" width="100.01" height="58.12"><path d="M 97 37.08 L 3 37.08 C 1.9 37.08 1 36.18 1 35.08 L 1 23.08 C 1 21.98 1.9 21.08 3 21.08 L 97 21.08 C 98.1 21.08 99 21.98 99 23.08 L 99 35.08 C 99 36.19 98.1 37.08 97 37.08 Z M 99 15.03 L 99 3.03 C 99 1.93 98.1 1.03 97 1.03 L 3 1.03 C 1.9 1.03 1 1.93 1 3.03 L 1 15.03 C 1 16.13 1.9 17.03 3 17.03 L 97 17.03 C 98.1 17.03 99 16.13 99 15.03 Z M 99 55.14 L 99 43.14 C 99 42.04 98.1 41.14 97 41.14 L 3 41.14 C 1.9 41.14 1 42.04 1 43.14 L 1 55.14 C 1 56.24 1.9 57.14 3 57.14 L 97 57.14 C 98.1 57.14 99 56.24 99 55.14 Z" fill="var(--icon-primary, #dae8fc)" stroke="none" stroke-width="0"/><path d="M 82 32.55 L 18 32.55 L 18 25.55 L 82 25.55 L 82 32.55 Z M 82 5.5 L 18 5.5 L 18 12.5 L 82 12.5 L 82 5.5 Z M 82 45.61 L 18 45.61 L 18 52.61 L 82 52.61 L 82 45.61 Z" fill="var(--icon-secondary, #6c8ebf)" stroke="none" stroke-width="0"/><path d="M 97 20.05 L 3 20.05 C 1.35 20.05 0 21.4 0 23.05 L 0 35.05 C 0 35.88 0.34 36.63 0.88 37.17 C 1.42 37.71 2.17 38.05 3 38.05 L 97 38.05 C 98.65 38.05 100 36.7 100 35.05 L 100 23.05 C 100 21.4 98.65 20.05 97 20.05 Z M 98 35.05 C 98 35.6 97.55 36.05 97 36.05 L 93.5 36.05 L 82 32.55 L 18 32.55 L 16.71 32.94 L 6.5 36.05 L 3 36.05 C 2.45 36.05 2 35.6 2 35.05 L 2 23.05 C 2 22.5 2.45 22.05 3 22.05 L 6.5 22.05 L 18 25.55 L 82 25.55 L 93.5 22.05 L 97 22.05 C 97.55 22.05 98 22.5 98 23.05 L 98 35.05 Z M 99.14 0.9 L 99.1 0.86 C 98.56 0.33 97.82 0 97 0 L 3 0 C 1.35 0 0 1.35 0 3 L 0 15 C 0 15.8 0.32 16.53 0.83 17.07 L 0.93 17.17 C 1.47 17.69 2.2 18 3 18 L 97 18 C 98.65 18 100 16.65 100 15 L 100 3 C 100 2.18 99.67 1.44 99.14 0.9 Z M 98 15 C 98 15.55 97.55 16 97 16 L 93.5 16 L 82 12.5 L 18 12.5 L 6.5 16 L 3 16 C 2.45 16 2 15.55 2 15 L 2 3 C 2 2.45 2.45 2 3 2 L 6.5 2 L 6.9 2.12 L 18 5.5 L 82 5.5 L 93.5 2 L 97 2 C 97.55 2 98 2.45 98 3 L 98 15 Z M 97 40.11 L 3 40.11 C 1.35 40.11 0 41.46 0 43.11 L 0 55.11 C 0 55.93 0.33 56.66 0.86 57.21 L 0.91 57.26 C 1.45 57.79 2.19 58.12 3.01 58.12 L 97.01 58.12 C 98.66 58.12 100.01 56.77 100.01 55.12 L 100.01 43.12 C 100 41.45 98.65 40.11 97 40.11 Z M 98 55.11 C 98 55.66 97.55 56.11 97 56.11 L 93.5 56.11 L 82 52.61 L 18 52.61 L 6.5 56.11 L 3 56.11 C 2.45 56.11 2 55.66 2 55.11 L 2 43.11 C 2 42.56 2.45 42.11 3 42.11 L 6.5 42.11 L 9.14 42.91 L 18 45.61 L 82 45.61 L 93.5 42.11 L 97 42.11 C 97.55 42.11 98 42.56 98 43.11 L 98 55.11 Z M 9.71 29.05 C 9.71 30.15 8.81 31.05 7.71 31.05 C 6.61 31.05 5.71 30.15 5.71 29.05 C 5.71 27.95 6.61 27.05 7.71 27.05 C 8.81 27.05 9.71 27.95 9.71 29.05 Z M 7.71 7 C 6.61 7 5.71 7.9 5.71 9 C 5.71 10.1 6.61 11 7.71 11 C 8.81 11 9.71 10.1 9.71 9 C 9.71 7.9 8.82 7 7.71 7 Z M 7.71 47.11 C 6.61 47.11 5.71 48.01 5.71 49.11 C 5.71 50.21 6.61 51.11 7.71 51.11 C 8.81 51.11 9.71 50.21 9.71 49.11 C 9.71 48.01 8.82 47.11 7.71 47.11 Z" fill="var(--icon-secondary, #6c8ebf)" stroke="none" stroke-width="0"/></svg>