<svg xmlns="http://www.w3.org/2000/svg" viewBox="0 0 140 140" width="140" height="140"><path d="M 140 47.44 L 140 135 C 140 137.76 137.76 140 135 140 L 71.02 140 L 20.76 89.74 C 21.85 90.83 23.35 91.5 25 91.5 L 85.75 91.5 C 86.15 91.5 86.53 91.66 86.81 91.94 L 110.74 115.81 L 110.77 115.84 C 111.93 116.91 113.39 117.47 114.88 117.47 C 115.71 117.47 116.55 117.3 117.35 116.95 C 119.6 115.96 121 113.83 121 111.37 L 121 30.92 C 121 29.27 120.33 27.77 119.24 26.68 L 140 47.44 Z" fill="var(--icon-primary, #dae8fc)" stroke="none" stroke-width="0" opacity="0.25"/></svg>