<svg xmlns="http://www.w3.org/2000/svg" viewBox="0 0 102 93.2" width="102" height="93.2"><path d="M 96 1 C 98.76 1 101 3.24 101 6 L 101 86.44 C 101 90.88 95.71 93.2 92.45 90.18 L 68.52 66.31 C 68.05 65.84 67.42 65.58 66.75 65.58 L 6 65.58 C 3.24 65.58 1 63.34 1 60.58 L 1 6 C 1 3.24 3.24 1 6 1 L 96 1 Z" fill="var(--icon-primary, #dae8fc)" stroke="none" stroke-width="0"/><path d="M 69.55 31.44 C 68.85 29.82 67.69 29.58 67.06 29.58 L 60.29 29.58 C 60.69 24.14 59.74 20.17 57.51 18.06 C 56.05 16.68 54.06 16.14 51.76 16.52 C 51.27 16.6 50.92 17.02 50.92 17.51 L 50.95 23.87 C 50.95 26.65 49.16 30.22 46.49 32.75 C 46.2 33.02 45.83 33.17 45.43 33.17 L 44.27 33.17 L 44.27 30.24 L 31.87 30.24 L 31.87 50.34 L 44.27 50.34 L 44.27 48.6 C 45.53 49.34 47.1 49.98 48.47 49.98 L 61.44 49.98 C 63.96 49.98 66.28 48.02 67.97 44.46 C 69.31 41.64 70.14 38.01 70.14 35 C 70.13 33.54 69.93 32.34 69.55 31.44 Z M 66.16 43.61 C 65.39 45.24 63.74 47.98 61.44 47.98 L 48.47 47.98 C 47.26 47.98 45.4 47.08 44.27 46.19 L 44.27 35.18 L 45.43 35.18 C 46.34 35.18 47.21 34.83 47.87 34.21 C 50.95 31.28 52.95 27.22 52.95 23.87 L 52.92 18.41 C 54.22 18.36 55.3 18.73 56.14 19.52 C 58.02 21.29 58.75 25.19 58.2 30.48 C 58.17 30.76 58.26 31.04 58.45 31.25 C 58.64 31.46 58.91 31.58 59.19 31.58 L 67.05 31.58 C 67.15 31.58 67.42 31.58 67.7 32.23 C 67.98 32.87 68.12 33.83 68.12 35 C 68.13 37.69 67.36 41.07 66.16 43.61 Z M 69.55 31.44 C 68.85 29.82 67.69 29.58 67.06 29.58 L 60.29 29.58 C 60.69 24.14 59.74 20.17 57.51 18.06 C 56.05 16.68 54.06 16.14 51.76 16.52 C 51.27 16.6 50.92 17.02 50.92 17.51 L 50.95 23.87 C 50.95 26.65 49.16 30.22 46.49 32.75 C 46.2 33.02 45.83 33.17 45.43 33.17 L 44.27 33.17 L 44.27 30.24 L 31.87 30.24 L 31.87 50.34 L 44.27 50.34 L 44.27 48.6 C 45.53 49.34 47.1 49.98 48.47 49.98 L 61.44 49.98 C 63.96 49.98 66.28 48.02 67.97 44.46 C 69.31 41.64 70.14 38.01 70.14 35 C 70.13 33.54 69.93 32.34 69.55 31.44 Z M 66.16 43.61 C 65.39 45.24 63.74 47.98 61.44 47.98 L 48.47 47.98 C 47.26 47.98 45.4 47.08 44.27 46.19 L 44.27 35.18 L 45.43 35.18 C 46.34 35.18 47.21 34.83 47.87 34.21 C 50.95 31.28 52.95 27.22 52.95 23.87 L 52.92 18.41 C 54.22 18.36 55.3 18.73 56.14 19.52 C 58.02 21.29 58.75 25.19 58.2 30.48 C 58.17 30.76 58.26 31.04 58.45 31.25 C 58.64 31.46 58.91 31.58 59.19 31.58 L 67.05 31.58 C 67.15 31.58 67.42 31.58 67.7 32.23 C 67.98 32.87 68.12 33.83 68.12 35 C 68.13 37.69 67.36 41.07 66.16 43.61 Z M 100.24 1.76 C 99.15 0.67 97.65 0 96 0 L 6 0 C 2.69 0 0 2.69 0 6 L 0 60.58 C 0 62.23 0.67 63.73 1.76 64.82 C 2.85 65.9 4.35 66.57 6 66.57 L 66.75 66.57 C 67.15 66.57 67.53 66.73 67.81 67.01 L 91.74 90.88 L 91.77 90.91 C 92.93 91.98 94.39 92.54 95.88 92.54 C 96.71 92.54 97.55 92.37 98.35 92.02 C 100.6 91.03 102 88.9 102 86.44 L 102 6 C 102 4.35 101.33 2.85 100.24 1.76 Z M 100 86.44 C 100 88.41 98.73 89.67 97.55 90.19 C 96.37 90.71 94.59 90.79 93.14 89.46 L 69.22 65.6 C 68.56 64.94 67.68 64.58 66.75 64.58 L 6 64.58 C 3.8 64.58 2 62.79 2 60.58 L 2 6 C 2 3.8 3.8 2 6 2 L 96 2 C 98.21 2 100 3.8 100 6 L 100 86.44 Z M 67.06 29.58 L 60.29 29.58 C 60.69 24.14 59.74 20.17 57.51 18.06 C 56.05 16.68 54.06 16.14 51.76 16.52 C 51.27 16.6 50.92 17.02 50.92 17.51 L 50.95 23.87 C 50.95 26.65 49.16 30.22 46.49 32.75 C 46.2 33.02 45.83 33.17 45.43 33.17 L 44.27 33.17 L 44.27 30.24 L 31.87 30.24 L 31.87 50.34 L 44.27 50.34 L 44.27 48.6 C 45.53 49.34 47.1 49.98 48.47 49.98 L 61.44 49.98 C 63.96 49.98 66.28 48.02 67.97 44.46 C 69.31 41.64 70.14 38.01 70.14 35 C 70.14 33.53 69.94 32.33 69.55 31.43 C 68.85 29.82 67.69 29.58 67.06 29.58 Z M 66.16 43.61 C 65.39 45.24 63.74 47.98 61.44 47.98 L 48.47 47.98 C 47.26 47.98 45.4 47.08 44.27 46.19 L 44.27 35.18 L 45.43 35.18 C 46.34 35.18 47.21 34.83 47.87 34.21 C 50.95 31.28 52.95 27.22 52.95 23.87 L 52.92 18.41 C 54.22 18.36 55.3 18.73 56.14 19.52 C 58.02 21.29 58.75 25.19 58.2 30.48 C 58.17 30.76 58.26 31.04 58.45 31.25 C 58.64 31.46 58.91 31.58 59.19 31.58 L 67.05 31.58 C 67.15 31.58 67.42 31.58 67.7 32.23 C 67.98 32.87 68.12 33.83 68.12 35 C 68.13 37.69 67.36 41.07 66.16 43.61 Z" fill="var(--icon-secondary, #6c8ebf)" stroke="none" stroke-width="0"/></svg>