<svg xmlns="http://www.w3.org/2000/svg" viewBox="0 0 100 65.66" width="100" height="65.66"><path d="M 96.5 64.66 L 3.5 64.66 C 2.12 64.66 1 63.54 1 62.16 L 1 3.5 C 1 2.12 2.12 1 3.5 1 L 96.5 1 C 97.88 1 99 2.12 99 3.5 L 99 62.16 C 99 63.54 97.88 64.66 96.5 64.66 Z" fill="var(--icon-primary, #dae8fc)" stroke="none" stroke-width="0"/><path d="M 99.03 1.09 C 98.99 1.05 98.95 1.01 98.91 0.97 C 98.28 0.37 97.43 0 96.5 0 L 3.5 0 C 1.57 0 0 1.57 0 3.5 L 0 62.16 C 0 63.09 0.37 63.94 0.97 64.57 L 1.09 64.69 C 1.72 65.29 2.57 65.66 3.5 65.66 L 96.5 65.66 C 98.43 65.66 100 64.09 100 62.16 L 100 3.5 C 100 2.56 99.63 1.71 99.03 1.09 Z M 98 62.16 C 98 62.99 97.33 63.66 96.5 63.66 L 3.5 63.66 C 2.67 63.66 2 62.99 2 62.16 L 2 3.5 C 2 2.67 2.67 2 3.5 2 L 44.75 2 L 47.25 3.33 L 52.75 3.33 L 55.25 2 L 96.5 2 C 97.33 2 98 2.67 98 3.5 L 98 62.16 Z" fill="var(--icon-secondary, #6c8ebf)" stroke="none" stroke-width="0"/></svg>