<svg xmlns="http://www.w3.org/2000/svg" viewBox="0 0 85.54 100" width="85.54" height="100"><path d="M 83.52 50.17 L 2 50.17 C 1.45 50.17 1 49.72 1 49.17 L 1 2 C 1 1.45 1.45 1 2 1 L 83.52 1 C 84.07 1 84.52 1.45 84.52 2 L 84.52 49.17 C 84.52 49.72 84.07 50.17 83.52 50.17 Z M 84.54 96.5 L 84.54 76.21 C 84.54 74.83 83.42 73.71 82.04 73.71 L 3.57 73.71 C 2.19 73.71 1.07 74.83 1.07 76.21 L 1.07 96.5 C 1.07 97.88 2.19 99 3.57 99 L 82.04 99 C 83.42 99 84.54 97.88 84.54 96.5 Z" fill="var(--icon-primary, #dae8fc)" stroke="none" stroke-width="0"/><path d="M 58.8 78.8 L 7.2 78.8 C 6.65 78.8 6.2 79.25 6.2 79.8 C 6.2 80.35 6.65 80.8 7.2 80.8 L 58.8 80.8 C 59.35 80.8 59.8 80.35 59.8 79.8 C 59.8 79.25 59.35 78.8 58.8 78.8 Z M 57.61 84.21 L 8.7 84.21 C 7.32 84.21 6.2 85.33 6.2 86.71 L 6.2 92.15 C 6.2 93.53 7.32 94.65 8.7 94.65 L 57.61 94.65 C 58.99 94.65 60.11 93.53 60.11 92.15 L 60.11 86.71 C 60.11 85.33 58.99 84.21 57.61 84.21 Z M 76.91 78.44 L 68.54 78.44 C 67.16 78.44 66.04 79.56 66.04 80.94 L 66.04 92.16 C 66.04 93.54 67.16 94.66 68.54 94.66 L 76.91 94.66 C 77.69 94.66 78.39 94.3 78.85 93.74 C 79.2 93.31 79.41 92.76 79.41 92.16 L 79.41 80.94 C 79.41 79.56 78.29 78.44 76.91 78.44 Z M 76.91 78.44 L 68.54 78.44 C 67.16 78.44 66.04 79.56 66.04 80.94 L 66.04 92.16 C 66.04 93.54 67.16 94.66 68.54 94.66 L 76.91 94.66 C 77.69 94.66 78.39 94.3 78.85 93.74 C 79.2 93.31 79.41 92.76 79.41 92.16 L 79.41 80.94 C 79.41 79.56 78.29 78.44 76.91 78.44 Z M 57.61 84.21 L 8.7 84.21 C 7.32 84.21 6.2 85.33 6.2 86.71 L 6.2 92.15 C 6.2 93.53 7.32 94.65 8.7 94.65 L 57.61 94.65 C 58.99 94.65 60.11 93.53 60.11 92.15 L 60.11 86.71 C 60.11 85.33 58.99 84.21 57.61 84.21 Z M 58.8 78.8 L 7.2 78.8 C 6.65 78.8 6.2 79.25 6.2 79.8 C 6.2 80.35 6.65 80.8 7.2 80.8 L 58.8 80.8 C 59.35 80.8 59.8 80.35 59.8 79.8 C 59.8 79.25 59.35 78.8 58.8 78.8 Z M 58.8 78.8 L 7.2 78.8 C 6.65 78.8 6.2 79.25 6.2 79.8 C 6.2 80.35 6.65 80.8 7.2 80.8 L 58.8 80.8 C 59.35 80.8 59.8 80.35 59.8 79.8 C 59.8 79.25 59.35 78.8 58.8 78.8 Z M 57.61 84.21 L 8.7 84.21 C 7.32 84.21 6.2 85.33 6.2 86.71 L 6.2 92.15 C 6.2 93.53 7.32 94.65 8.7 94.65 L 57.61 94.65 C 58.99 94.65 60.11 93.53 60.11 92.15 L 60.11 86.71 C 60.11 85.33 58.99 84.21 57.61 84.21 Z M 76.91 78.44 L 68.54 78.44 C 67.16 78.44 66.04 79.56 66.04 80.94 L 66.04 92.16 C 66.04 93.54 67.16 94.66 68.54 94.66 L 76.91 94.66 C 77.69 94.66 78.39 94.3 78.85 93.74 C 79.2 93.31 79.41 92.76 79.41 92.16 L 79.41 80.94 C 79.41 79.56 78.29 78.44 76.91 78.44 Z M 76.91 78.44 L 68.54 78.44 C 67.16 78.44 66.04 79.56 66.04 80.94 L 66.04 92.16 C 66.04 93.54 67.16 94.66 68.54 94.66 L 76.91 94.66 C 77.69 94.66 78.39 94.3 78.85 93.74 C 79.2 93.31 79.41 92.76 79.41 92.16 L 79.41 80.94 C 79.41 79.56 78.29 78.44 76.91 78.44 Z M 57.61 84.21 L 8.7 84.21 C 7.32 84.21 6.2 85.33 6.2 86.71 L 6.2 92.15 C 6.2 93.53 7.32 94.65 8.7 94.65 L 57.61 94.65 C 58.99 94.65 60.11 93.53 60.11 92.15 L 60.11 86.71 C 60.11 85.33 58.99 84.21 57.61 84.21 Z M 7.2 80.8 L 58.8 80.8 C 59.35 80.8 59.8 80.35 59.8 79.8 C 59.8 79.25 59.35 78.8 58.8 78.8 L 7.2 78.8 C 6.65 78.8 6.2 79.25 6.2 79.8 C 6.2 80.35 6.65 80.8 7.2 80.8 Z M 82.04 72.71 L 3.57 72.71 C 1.64 72.71 0.07 74.28 0.07 76.21 L 0.07 96.5 C 0.07 97.43 0.44 98.28 1.04 98.91 L 1.16 99.03 C 1.79 99.63 2.64 100 3.57 100 L 82.04 100 C 82.9 100 83.68 99.69 84.29 99.18 C 85.05 98.54 85.54 97.58 85.54 96.5 L 85.54 76.21 C 85.54 74.28 83.97 72.71 82.04 72.71 Z M 82.04 98 L 3.57 98 C 2.74 98 2.07 97.33 2.07 96.5 L 2.07 76.21 C 2.07 75.38 2.74 74.71 3.57 74.71 L 82.04 74.71 C 82.87 74.71 83.54 75.38 83.54 76.21 L 83.54 96.5 C 83.54 97.02 83.27 97.48 82.86 97.75 C 82.62 97.91 82.34 98 82.04 98 Z M 76.91 78.44 L 68.54 78.44 C 67.16 78.44 66.04 79.56 66.04 80.94 L 66.04 92.16 C 66.04 93.54 67.16 94.66 68.54 94.66 L 76.91 94.66 C 77.69 94.66 78.39 94.3 78.85 93.74 C 79.2 93.31 79.41 92.76 79.41 92.16 L 79.41 80.94 C 79.41 79.56 78.29 78.44 76.91 78.44 Z M 57.61 84.21 L 8.7 84.21 C 7.32 84.21 6.2 85.33 6.2 86.71 L 6.2 92.15 C 6.2 93.53 7.32 94.65 8.7 94.65 L 57.61 94.65 C 58.99 94.65 60.11 93.53 60.11 92.15 L 60.11 86.71 C 60.11 85.33 58.99 84.21 57.61 84.21 Z M 7.2 80.8 L 58.8 80.8 C 59.35 80.8 59.8 80.35 59.8 79.8 C 59.8 79.25 59.35 78.8 58.8 78.8 L 7.2 78.8 C 6.65 78.8 6.2 79.25 6.2 79.8 C 6.2 80.35 6.65 80.8 7.2 80.8 Z M 58.8 78.8 L 7.2 78.8 C 6.65 78.8 6.2 79.25 6.2 79.8 C 6.2 80.35 6.65 80.8 7.2 80.8 L 58.8 80.8 C 59.35 80.8 59.8 80.35 59.8 79.8 C 59.8 79.25 59.35 78.8 58.8 78.8 Z M 57.61 84.21 L 8.7 84.21 C 7.32 84.21 6.2 85.33 6.2 86.71 L 6.2 92.15 C 6.2 93.53 7.32 94.65 8.7 94.65 L 57.61 94.65 C 58.99 94.65 60.11 93.53 60.11 92.15 L 60.11 86.71 C 60.11 85.33 58.99 84.21 57.61 84.21 Z M 76.91 78.44 L 68.54 78.44 C 67.16 78.44 66.04 79.56 66.04 80.94 L 66.04 92.16 C 66.04 93.54 67.16 94.66 68.54 94.66 L 76.91 94.66 C 77.69 94.66 78.39 94.3 78.85 93.74 C 79.2 93.31 79.41 92.76 79.41 92.16 L 79.41 80.94 C 79.41 79.56 78.29 78.44 76.91 78.44 Z M 76.91 78.44 L 68.54 78.44 C 67.16 78.44 66.04 79.56 66.04 80.94 L 66.04 92.16 C 66.04 93.54 67.16 94.66 68.54 94.66 L 76.91 94.66 C 77.69 94.66 78.39 94.3 78.85 93.74 C 79.2 93.31 79.41 92.76 79.41 92.16 L 79.41 80.94 C 79.41 79.56 78.29 78.44 76.91 78.44 Z M 57.61 84.21 L 8.7 84.21 C 7.32 84.21 6.2 85.33 6.2 86.71 L 6.2 92.15 C 6.2 93.53 7.32 94.65 8.7 94.65 L 57.61 94.65 C 58.99 94.65 60.11 93.53 60.11 92.15 L 60.11 86.71 C 60.11 85.33 58.99 84.21 57.61 84.21 Z M 58.8 78.8 L 7.2 78.8 C 6.65 78.8 6.2 79.25 6.2 79.8 C 6.2 80.35 6.65 80.8 7.2 80.8 L 58.8 80.8 C 59.35 80.8 59.8 80.35 59.8 79.8 C 59.8 79.25 59.35 78.8 58.8 78.8 Z M 58.8 78.8 L 7.2 78.8 C 6.65 78.8 6.2 79.25 6.2 79.8 C 6.2 80.35 6.65 80.8 7.2 80.8 L 58.8 80.8 C 59.35 80.8 59.8 80.35 59.8 79.8 C 59.8 79.25 59.35 78.8 58.8 78.8 Z M 57.61 84.21 L 8.7 84.21 C 7.32 84.21 6.2 85.33 6.2 86.71 L 6.2 92.15 C 6.2 93.53 7.32 94.65 8.7 94.65 L 57.61 94.65 C 58.99 94.65 60.11 93.53 60.11 92.15 L 60.11 86.71 C 60.11 85.33 58.99 84.21 57.61 84.21 Z M 76.91 78.44 L 68.54 78.44 C 67.16 78.44 66.04 79.56 66.04 80.94 L 66.04 92.16 C 66.04 93.54 67.16 94.66 68.54 94.66 L 76.91 94.66 C 77.69 94.66 78.39 94.3 78.85 93.74 C 79.2 93.31 79.41 92.76 79.41 92.16 L 79.41 80.94 C 79.41 79.56 78.29 78.44 76.91 78.44 Z M 84.94 0.59 L 84.93 0.57 C 84.56 0.22 84.06 0 83.52 0 L 2 0 C 0.9 0 0 0.9 0 2 L 0 49.17 C 0 49.72 0.22 50.22 0.59 50.58 C 0.95 50.94 1.45 51.17 2 51.17 L 34.67 51.17 L 34.67 60.28 L 23.97 60.28 C 23.42 60.28 22.97 60.73 22.97 61.28 L 22.97 62.5 C 22.97 63.05 23.42 63.5 23.97 63.5 L 61.85 63.5 C 62.4 63.5 62.85 63.05 62.85 62.5 L 62.85 61.28 C 62.85 60.73 62.4 60.28 61.85 60.28 L 51.07 60.28 L 51.07 51.17 L 83.52 51.17 C 84.62 51.17 85.52 50.27 85.52 49.17 L 85.52 2 C 85.52 1.45 85.29 0.95 84.94 0.59 Z M 83.52 49.17 L 2 49.17 L 2 2 L 83.52 2 L 83.52 49.17 C 83.52 49.17 83.52 49.17 83.52 49.17 Z M 58.8 78.8 L 7.2 78.8 C 6.65 78.8 6.2 79.25 6.2 79.8 C 6.2 80.35 6.65 80.8 7.2 80.8 L 58.8 80.8 C 59.35 80.8 59.8 80.35 59.8 79.8 C 59.8 79.25 59.35 78.8 58.8 78.8 Z M 57.61 84.21 L 8.7 84.21 C 7.32 84.21 6.2 85.33 6.2 86.71 L 6.2 92.15 C 6.2 93.53 7.32 94.65 8.7 94.65 L 57.61 94.65 C 58.99 94.65 60.11 93.53 60.11 92.15 L 60.11 86.71 C 60.11 85.33 58.99 84.21 57.61 84.21 Z M 76.91 78.44 L 68.54 78.44 C 67.16 78.44 66.04 79.56 66.04 80.94 L 66.04 92.16 C 66.04 93.54 67.16 94.66 68.54 94.66 L 76.91 94.66 C 77.69 94.66 78.39 94.3 78.85 93.74 C 79.2 93.31 79.41 92.76 79.41 92.16 L 79.41 80.94 C 79.41 79.56 78.29 78.44 76.91 78.44 Z" fill="var(--icon-secondary, #6c8ebf)" stroke="none" stroke-width="0"/></svg>