<svg xmlns="http://www.w3.org/2000/svg" viewBox="0 0 140 140" width="140" height="140"><path d="M 140 48.42 L 140 135 C 140 137.76 137.76 140 135 140 L 49.35 140 L 28.38 119.03 C 29.01 119.63 29.86 120 30.79 120 L 109.26 120 C 110.12 120 110.9 119.69 111.51 119.18 C 112.27 118.54 112.76 117.58 112.76 116.5 L 112.76 96.21 C 112.76 94.28 111.19 92.71 109.26 92.71 L 49.95 92.71 L 34.76 77.53 L 27.81 70.58 C 28.17 70.94 28.67 71.17 29.22 71.17 L 61.9 71.17 L 61.9 80.28 L 51.2 80.28 C 50.65 80.28 50.2 80.73 50.2 81.28 L 50.2 82.5 C 50.2 83.05 50.65 83.5 51.2 83.5 L 89.08 83.5 C 89.63 83.5 90.08 83.05 90.08 82.5 L 90.08 81.28 C 90.08 80.73 89.63 80.28 89.08 80.28 L 78.3 80.28 L 78.3 71.17 L 110.75 71.17 C 111.85 71.17 112.75 70.27 112.75 69.17 L 112.75 22 C 112.75 21.45 112.53 20.95 112.17 20.59 L 140 48.42 Z" fill="var(--icon-primary, #dae8fc)" stroke="none" stroke-width="0" opacity="0.25"/></svg>