<svg xmlns="http://www.w3.org/2000/svg" viewBox="0 0 106.25 95.83" width="106.25" height="95.83"><path d="M 5.28 73.62 L 40.62 9.82 C 46.06 0 60.18 0 65.63 9.82 L 100.97 73.62 C 106.25 83.15 99.36 94.84 88.47 94.84 L 17.78 94.84 C 6.89 94.84 0 83.15 5.28 73.62 Z" fill="var(--icon-primary, #dae8fc)" stroke="none" stroke-width="0"/><path d="M 101.85 73.14 L 66.5 9.34 C 65.84 8.14 65.04 7.07 64.14 6.12 L 64.1 6.08 C 63.96 5.94 63.82 5.8 63.68 5.66 L 63.64 5.62 C 62.81 4.82 61.89 4.13 60.91 3.55 C 59.89 2.95 58.8 2.47 57.66 2.13 C 56.66 1.83 55.62 1.62 54.55 1.53 C 54.08 1.48 53.61 1.46 53.13 1.46 C 47.49 1.46 42.49 4.41 39.75 9.34 L 31.08 24.99 L 26.47 33.32 L 4.41 73.14 C 1.76 77.93 1.83 83.6 4.61 88.31 C 5.25 89.41 6.01 90.4 6.87 91.27 L 7.11 91.51 C 9.92 94.26 13.7 95.83 17.78 95.83 L 88.47 95.83 C 93.94 95.83 98.87 93.02 101.65 88.3 C 104.42 83.6 104.5 77.93 101.85 73.14 Z M 99.92 87.3 C 97.51 91.4 93.22 93.84 88.47 93.84 L 17.78 93.84 C 13.02 93.84 8.74 91.39 6.33 87.3 C 3.92 83.2 3.85 78.27 6.16 74.11 L 31.6 28.19 L 36.21 19.87 L 41.51 10.31 C 43.8 6.17 47.93 3.64 52.62 3.47 C 52.78 3.46 52.95 3.46 53.13 3.46 C 54.12 3.46 55.09 3.56 56.02 3.77 C 59.71 4.57 62.86 6.89 64.76 10.31 L 100.1 74.11 C 102.4 78.27 102.34 83.2 99.92 87.3 Z M 40.96 57.22 C 42.78 59.18 47.13 58.18 47.48 58.61 C 47.91 59.11 46.85 61.22 47.38 62.03 C 49.26 62.68 51.06 62.76 53.12 62.76 C 55.18 62.76 56.98 62.68 58.86 62.03 C 59.39 61.22 58.33 59.11 58.76 58.61 C 59.12 58.18 63.46 59.18 65.28 57.22 C 66.75 55.64 63.85 53.1 64.75 51.39 C 66.59 47.88 66.42 45.17 66.03 43.78 C 64 36.81 59.68 33.37 53.11 33.37 C 46.54 33.37 42.23 36.81 40.19 43.78 C 39.8 45.17 39.62 47.88 41.47 51.39 C 42.39 53.1 39.49 55.64 40.96 57.22 Z M 53.94 50.2 C 54.35 49.63 55.68 50.28 57.53 49.41 C 59.43 48.52 62.01 47.84 62.17 50.88 C 62.32 53.91 61.06 54.31 59.35 54.22 C 56.93 54.09 53.05 51.46 53.94 50.2 Z M 44.08 50.88 C 44.23 47.85 46.82 48.52 48.72 49.41 C 50.57 50.28 51.91 49.62 52.31 50.2 C 53.21 51.47 49.32 54.1 46.89 54.22 C 45.19 54.31 43.92 53.91 44.08 50.88 Z M 72.79 74.94 C 72.2 75.14 71.91 75.79 72.15 76.36 L 72.44 77.05 C 72.88 78.07 72.4 79.25 71.39 79.68 C 71.13 79.79 70.86 79.84 70.6 79.84 C 69.82 79.84 69.08 79.38 68.76 78.62 L 68.76 78.62 C 67.96 76.74 66.41 75.29 64.49 74.6 L 53.31 70.58 C 53.31 70.58 53.31 70.58 53.3 70.58 L 42.11 74.81 C 39.94 75.63 38.07 77.08 36.75 78.98 L 36.75 78.98 C 36.12 79.89 34.87 80.11 33.96 79.47 C 33.05 78.84 32.83 77.59 33.47 76.68 L 33.59 76.5 C 34.12 75.74 33.88 74.68 33.07 74.23 C 32.1 73.69 31.75 72.47 32.29 71.5 C 32.83 70.53 34.05 70.18 35.02 70.72 L 35.02 70.72 C 36.7 71.65 38.7 71.8 40.5 71.12 L 47.48 68.48 C 47.49 68.48 47.49 68.47 47.48 68.46 L 40.37 65.9 C 38.57 65.25 36.59 65.32 34.84 66.08 C 33.87 66.5 32.75 66.09 32.27 65.17 C 31.72 64.12 32.21 62.85 33.3 62.38 L 33.3 62.38 C 33.95 62.1 33.57 60.35 33.57 60.35 C 32.92 59.36 33.22 58.02 34.26 57.45 C 35.17 56.95 36.33 57.23 36.9 58.12 L 36.9 58.12 C 38.14 60.04 39.98 61.5 42.13 62.27 L 53.27 66.28 C 53.27 66.28 53.27 66.28 53.28 66.28 L 65.98 61.48 C 67.28 60.99 68.28 59.93 68.7 58.61 C 69.04 57.56 70.16 56.97 71.22 57.31 C 72.27 57.65 72.86 58.77 72.52 59.83 C 72.2 60.85 72.54 61.96 73.38 62.61 L 73.41 62.63 C 74.34 63.36 74.5 64.71 73.7 65.59 C 73 66.36 71.81 66.47 70.98 65.82 C 69.94 65.01 68.55 64.79 67.32 65.26 L 59.11 68.37 C 59.1 68.37 59.1 68.38 59.11 68.39 L 66.51 71.05 C 68.15 71.64 69.93 71.66 71.58 71.11 C 72.58 70.78 73.66 71.28 74.06 72.24 C 74.51 73.34 73.91 74.57 72.79 74.94 Z" fill="var(--icon-secondary, #6c8ebf)" stroke="none" stroke-width="0"/></svg>