<svg xmlns="http://www.w3.org/2000/svg" viewBox="0 0 140 140" width="140" height="140"><path d="M 139.95 61.05 L 139.95 135 C 139.95 137.76 137.71 140 134.95 140 L 62.81 140 L 42.59 119.78 C 42.71 119.9 42.86 119.98 43.03 120.03 C 43.11 120.05 43.2 120.06 43.28 120.06 L 97.7 120.06 C 98.25 120.06 98.7 119.61 98.7 119.06 L 98.7 117.77 C 100.01 117.26 100.94 115.99 100.94 114.5 L 100.94 23.5 C 100.94 22.56 100.57 21.71 99.97 21.09 L 139.95 61.05 Z M 42.28 119.06 L 42.28 118 C 41.38 117.96 40.57 117.58 39.98 116.98 L 42.32 119.32 C 42.29 119.23 42.28 119.14 42.28 119.06 Z" fill="var(--icon-primary, #dae8fc)" stroke="none" stroke-width="0" opacity="0.25"/></svg>