<svg xmlns="http://www.w3.org/2000/svg" viewBox="0 0 103.53 66.23" width="103.53" height="66.23"><path d="M 65.91 17.44 C 65.91 23 63.48 27.92 59.76 30.88 C 57.44 32.73 54.62 33.81 51.57 33.81 C 48.5 33.81 45.65 32.71 43.31 30.82 C 39.63 27.86 37.23 22.97 37.23 17.44 C 37.23 8.4 43.65 1.07 51.56 1.07 C 59.47 1.07 65.91 8.4 65.91 17.44 Z M 71.4 35.2 L 63.4 32.23 L 59.76 30.88 C 57.44 32.73 54.62 33.81 51.57 33.81 C 48.5 33.81 45.65 32.71 43.31 30.82 L 39.64 32.2 L 32.19 35.01 C 26.51 37.27 24.16 40.74 24.16 44.08 L 24.16 62 C 24.16 63.79 25.61 65.24 27.4 65.24 L 75.7 65.24 C 77.49 65.24 78.94 63.79 78.94 62 L 78.94 44.4 C 78.95 40.35 76.64 37.64 71.4 35.2 Z M 22.82 5.89 C 17 5.89 12.29 11.28 12.29 17.92 C 12.29 21.98 14.06 25.58 16.76 27.75 C 18.48 29.13 20.57 29.94 22.83 29.94 C 25.07 29.94 27.14 29.14 28.84 27.79 C 31.57 25.62 33.36 22.01 33.36 17.92 C 33.35 11.27 28.64 5.89 22.82 5.89 Z M 37.39 30.96 L 28.84 27.79 L 28.84 27.79 C 27.14 29.15 25.06 29.94 22.83 29.94 C 20.57 29.94 18.48 29.13 16.76 27.75 L 16.76 27.75 L 8.59 30.83 C 4.41 32.49 2.69 35.04 2.69 37.49 L 2.69 50.67 C 2.69 51.99 3.76 53.05 5.07 53.05 L 24.18 53.05 L 24.18 44.09 C 24.18 40.76 26.52 37.29 32.21 35.02 L 39.66 32.21 C 39 31.78 38.25 31.37 37.39 30.96 Z M 80.32 5.89 C 74.5 5.89 69.79 11.28 69.79 17.92 C 69.79 21.98 71.55 25.58 74.26 27.75 C 75.98 29.13 78.07 29.94 80.33 29.94 C 82.57 29.94 84.64 29.14 86.35 27.79 C 89.08 25.62 90.87 22.01 90.87 17.92 C 90.86 11.27 86.14 5.89 80.32 5.89 Z M 94.89 30.96 L 86.34 27.79 L 86.34 27.79 C 84.63 29.15 82.56 29.94 80.32 29.94 C 78.06 29.94 75.97 29.13 74.25 27.75 L 66.08 30.83 C 65.04 31.25 64.15 31.72 63.4 32.23 L 71.4 35.2 C 76.64 37.64 78.96 40.36 78.96 44.4 L 78.96 53.05 L 98.06 53.05 C 99.37 53.05 100.44 51.98 100.44 50.67 L 100.44 37.73 C 100.44 34.75 98.75 32.76 94.89 30.96 Z" fill="var(--icon-primary, #dae8fc)" stroke="none" stroke-width="0"/><path d="M 95.31 30.06 C 95.29 30.04 88.24 27.44 88.21 27.42 C 93.5 22.32 92.56 12.88 87.8 8 L 87.75 7.95 L 87.59 7.79 C 85.69 5.94 83.22 4.8 80.32 4.89 C 75.36 4.73 71.65 8.19 69.93 12.62 C 68.02 17.52 68.53 23.62 72.4 27.38 C 70.57 28.13 64.83 30.03 63.28 31.11 L 61.67 30.51 C 69.15 23.78 67.96 10.68 61.39 4.07 L 61.25 3.93 C 59.17 1.89 56.55 0.49 53.51 0.14 C 52.88 0.07 52.23 0.04 51.57 0.06 C 49.78 0 48.12 0.3 46.6 0.87 C 42.86 2.29 39.98 5.42 38.24 9.23 C 37.51 10.84 36.97 12.56 36.66 14.34 C 35.64 20.14 37 26.42 41.43 30.45 L 39.76 31.08 C 38.55 30.13 32.22 28.01 30.7 27.4 C 34.28 23.95 35.01 18.51 33.63 13.84 C 32.97 11.61 31.83 9.56 30.3 7.98 L 30.14 7.82 C 28.24 5.94 25.75 4.77 22.82 4.87 C 20.17 4.79 17.88 5.73 16.06 7.3 C 15.63 7.67 15.24 8.07 14.86 8.5 C 11.8 12.03 10.55 17.52 11.86 22.18 C 12.41 24.12 13.4 25.91 14.89 27.36 C 0 32.06 1.47 35.11 1.7 45.77 C 1.73 47.24 1.74 48.86 1.68 50.65 C 1.68 51.58 2.06 52.43 2.67 53.04 C 3.28 53.65 4.13 54.03 5.06 54.03 L 23.17 54.03 C 23.55 57.78 21.35 66.13 27.41 66.23 L 75.71 66.23 C 81.78 66.12 79.57 57.79 79.95 54.03 L 98.06 54.03 C 99.92 54.03 101.44 52.51 101.44 50.65 L 101.44 37.73 C 101.44 34.4 99.55 32.03 95.31 30.06 Z M 70.79 17.92 C 70.79 16.57 71 15.28 71.39 14.08 C 72.74 9.89 76.24 6.89 80.33 6.89 C 89.7 6.62 93.2 21.66 85.72 27.01 C 82.62 29.51 79.12 29.42 76.28 27.83 C 73 25.98 70.62 22.13 70.79 17.92 Z M 38.24 17.44 C 38.24 16.95 38.26 16.47 38.3 16 C 38.93 8.2 44.65 2.08 51.57 2.08 L 51.59 2.08 C 64.67 1.72 69.56 22.61 59.14 30.1 C 58.35 30.74 57.54 31.26 56.72 31.66 C 51.99 34.01 46.9 32.65 43.27 29.33 C 40.12 26.46 38.05 22.12 38.24 17.44 Z M 13.29 17.92 C 13.29 11.84 17.57 6.89 22.82 6.89 C 27.74 6.75 31.04 10.83 31.98 15.51 C 32.83 19.74 31.76 24.47 28.21 27.01 C 25.29 29.33 22.06 29.42 19.35 28.14 C 15.79 26.46 13.14 22.41 13.29 17.92 Z M 23.17 44.09 L 23.17 52.05 L 5.06 52.05 C 4.3 52.05 3.68 51.43 3.68 50.67 C 3.8 47.97 3.75 45.72 3.68 43.82 C 3.35 34.83 2.57 33.57 16.59 28.88 C 16.98 29.18 17.39 29.44 17.82 29.67 C 18.6 30.1 19.44 30.41 20.3 30.62 C 23.26 31.34 26.53 30.77 29 28.91 L 37 31.88 C 37.1 31.93 37.2 31.97 37.29 32.02 L 37.29 32.02 C 33.89 33.2 29.68 34.67 26.75 37.07 C 24.61 38.84 23.15 41.09 23.17 44.09 Z M 77.95 62.01 C 77.95 63.25 76.95 64.25 75.71 64.25 L 27.41 64.25 C 26.18 64.25 25.17 63.24 25.17 62.01 C 25.76 47.66 23.14 42.63 28.2 38.53 C 30.31 36.82 33.75 35.28 39.3 33.29 C 40.48 32.87 41.76 32.42 43.15 31.95 C 47.41 35.28 53.5 35.67 58.2 33.13 C 58.8 32.8 59.38 32.43 59.94 32 C 63.59 33.22 66.52 34.26 68.86 35.23 C 81.66 40.56 77.2 43.83 77.95 62.01 Z M 99.44 50.67 C 99.44 51.43 98.82 52.05 98.06 52.05 L 79.95 52.05 L 79.95 44.4 C 80.15 38.78 75.34 35.77 70.37 33.73 C 68.81 33.09 67.23 32.55 65.78 32.05 C 66 31.9 73.58 29.09 74.09 28.89 C 74.31 29.05 74.53 29.21 74.75 29.35 C 78.29 31.59 83.12 31.46 86.5 28.93 C 103.53 34.51 98.78 35.27 99.44 50.67 Z" fill="var(--icon-secondary, #6c8ebf)" stroke="none" stroke-width="0"/></svg>