<svg xmlns="http://www.w3.org/2000/svg" viewBox="0 0 89.18 100.03" width="89.18" height="100.03"><path d="M 55.1 52.91 L 55.1 62.06 L 45.37 66.7 L 35.55 62.09 L 35.55 52.84 C 38.74 55.42 42.31 56.85 45.71 56.85 C 48.45 56.86 51.93 55.36 55.1 52.91 Z M 34.43 63.78 C 34.01 63.88 33.21 64.06 32.14 64.31 L 37.46 74.73 L 43.69 68.13 L 34.43 63.78 Z M 56.01 63.84 L 46.99 68.14 L 52.93 75.03 L 58.3 64.46 L 56.01 63.84 Z M 78.73 70.03 L 60.26 65 L 54.03 77.27 C 53.88 77.57 53.59 77.77 53.26 77.81 C 53.22 77.82 53.18 77.82 53.14 77.82 C 52.85 77.82 52.57 77.7 52.38 77.47 L 46.37 70.49 L 46.37 97.98 L 87.18 98.03 L 87.18 83.69 C 87.18 77.09 84.26 72.37 78.73 70.03 Z M 37.94 77.13 C 37.75 77.33 37.49 77.44 37.21 77.44 C 37.16 77.44 37.12 77.44 37.07 77.43 C 36.75 77.38 36.47 77.19 36.32 76.89 L 30.13 64.77 C 24.82 66.02 16.22 68.09 11.37 69.49 C 9.17 70.14 2 73.01 2 83.29 L 2 97.93 L 44.37 97.98 L 44.37 70.32 L 37.94 77.13 Z M 62.64 34.51 C 62.64 41.76 58.62 46.87 56.22 49.28 C 56.02 49.48 55.83 49.67 55.63 49.85 C 55.63 49.85 55.63 49.85 55.63 49.85 C 55.48 49.93 55.36 50.04 55.27 50.18 C 51.69 53.4 47.97 54.86 45.71 54.86 C 42.3 54.86 38.51 53.06 35.33 49.98 C 34.94 49.6 34.55 49.2 34.18 48.78 C 30.66 44.82 28.58 39.78 28.46 34.95 L 28.46 23.8 C 28.98 20.08 29.9 17.67 31.63 15.63 C 34.07 18.62 38.69 20.99 44.32 22.11 C 50.44 23.32 56.41 22.78 60.88 20.66 L 62.64 23.03 L 62.64 34.51 Z" fill="var(--icon-primary, #dae8fc)" stroke="none" stroke-width="0"/><path d="M 86.46 73.77 C 84.81 71.31 82.45 69.42 79.44 68.16 C 79.4 68.14 79.36 68.13 79.32 68.12 L 57.1 62.07 L 57.1 51.2 C 57.28 51.03 57.45 50.86 57.63 50.68 C 62.15 46.15 64.64 40.41 64.64 34.5 L 64.64 31.46 L 67.47 28.05 C 67.62 27.87 67.7 27.64 67.7 27.41 L 67.7 17.41 C 67.7 13.85 66.33 10.66 63.67 7.98 L 63.55 7.86 C 61.95 6.27 59.9 4.87 57.41 3.66 C 54.26 2.13 50.71 1.1 47.6 0.54 C 45.59 0.18 43.76 0 42.34 0 L 28.74 0 C 28.47 0 28.22 0.11 28.03 0.3 C 27.84 0.49 27.74 0.75 27.74 1.01 L 27.78 6.16 C 24.75 7.7 22.96 10.83 22.96 14.69 L 22.96 27.24 C 22.96 27.5 23.06 27.76 23.25 27.94 C 23.28 27.97 23.3 27.99 23.33 28.02 L 26.4 30.5 C 26.42 30.51 26.44 30.53 26.46 30.54 L 26.46 34.98 C 26.59 40.28 28.85 45.79 32.69 50.1 C 32.97 50.42 33.26 50.73 33.55 51.03 L 33.55 61.94 C 30.25 62.7 17.27 65.73 10.83 67.59 C 7.82 68.46 5.24 70.2 3.35 72.62 C 1.12 75.46 0 79.05 0 83.29 L 0 98.93 C 0 99.2 0.11 99.44 0.28 99.62 L 0.31 99.65 C 0.49 99.82 0.73 99.93 1 99.93 L 45.37 99.98 L 88.17 100.03 L 88.17 100.03 C 88.43 100.03 88.69 99.93 88.88 99.74 C 89.07 99.55 89.17 99.3 89.17 99.03 L 89.17 83.69 C 89.18 79.8 88.26 76.46 86.46 73.77 Z M 58.29 64.47 L 52.92 75.04 L 46.98 68.15 L 56 63.85 L 58.29 64.47 Z M 32.77 13.83 C 32.7 13.73 32.64 13.63 32.58 13.54 C 32.64 13.63 32.7 13.73 32.77 13.83 Z M 39.3 18.53 C 39.26 18.51 39.22 18.5 39.19 18.48 C 39.15 18.47 39.12 18.45 39.08 18.43 C 39.16 18.47 39.23 18.5 39.3 18.53 Z M 50.05 3.13 C 49.75 3.05 49.45 2.98 49.15 2.91 C 49.45 2.97 49.75 3.05 50.05 3.13 Z M 46.48 2.38 C 46.27 2.35 46.07 2.32 45.87 2.29 C 46.07 2.31 46.27 2.34 46.48 2.38 Z M 45.62 2.25 C 45.46 2.23 45.29 2.21 45.13 2.19 C 45.29 2.21 45.45 2.23 45.62 2.25 Z M 28.46 34.94 L 28.46 23.8 C 28.78 21.49 29.25 19.69 29.98 18.17 C 30.43 17.23 30.97 16.4 31.63 15.63 C 31.76 15.79 31.9 15.95 32.04 16.11 C 34.1 18.36 37.41 20.22 41.45 21.41 C 42.37 21.68 43.33 21.91 44.32 22.11 C 50.44 23.32 56.41 22.78 60.88 20.66 L 62.64 23.03 L 62.64 34.51 C 62.64 41.76 58.62 46.87 56.22 49.28 C 56.02 49.48 55.83 49.67 55.63 49.85 C 55.63 49.85 55.63 49.85 55.63 49.85 C 55.51 49.96 55.39 50.07 55.27 50.18 C 51.69 53.4 47.97 54.86 45.71 54.86 C 42.3 54.86 38.51 53.06 35.33 49.98 C 34.94 49.6 34.55 49.2 34.18 48.78 C 30.66 44.81 28.57 39.77 28.46 34.94 Z M 34.43 63.78 L 43.69 68.13 L 37.46 74.73 L 32.14 64.31 C 33.21 64.06 34.01 63.88 34.43 63.78 Z M 44.37 97.98 L 2 97.93 L 2 83.29 C 2 73.01 9.17 70.14 11.37 69.51 C 16.22 68.11 24.82 66.04 30.13 64.79 L 36.32 76.91 C 36.47 77.2 36.75 77.4 37.07 77.45 C 37.12 77.46 37.17 77.46 37.21 77.46 C 37.48 77.46 37.75 77.35 37.94 77.15 L 44.37 70.34 L 44.37 97.98 Z M 45.37 66.7 L 35.55 62.09 L 35.55 52.84 C 38.74 55.42 42.31 56.85 45.71 56.85 C 48.46 56.85 51.93 55.36 55.11 52.91 L 55.11 62.06 L 45.37 66.7 Z M 87.18 98.03 L 46.37 97.98 L 46.37 70.5 L 52.38 77.48 C 52.57 77.7 52.85 77.83 53.14 77.83 C 53.18 77.83 53.22 77.83 53.26 77.82 C 53.59 77.78 53.88 77.58 54.03 77.28 L 60.26 65 L 78.73 70.03 C 84.26 72.37 87.18 77.09 87.18 83.69 L 87.18 98.03 Z M 50.26 46.15 C 48.92 46.99 47.2 47.4 45.51 47.4 C 43.8 47.4 42.11 46.97 40.86 46.12 C 40.4 45.81 40.28 45.19 40.59 44.73 C 40.9 44.27 41.52 44.15 41.98 44.46 C 43.61 45.57 46.98 45.83 49.2 44.44 C 49.67 44.15 50.28 44.29 50.58 44.76 C 50.87 45.24 50.73 45.85 50.26 46.15 Z M 54.47 29.04 C 53.16 29.04 52.1 30.1 52.1 31.41 C 52.1 32.72 53.16 33.78 54.47 33.78 C 55.78 33.78 56.84 32.72 56.84 31.41 C 56.83 30.1 55.77 29.04 54.47 29.04 Z M 59.73 26.23 C 57.68 25.4 55.43 25.06 53.23 25.15 C 52.55 25.17 51.81 25.24 51.15 25.27 C 50.39 25.29 49.81 25.98 49.92 26.73 C 50.02 27.44 50.67 27.93 51.37 27.83 C 52.71 27.62 53.99 27.38 55.33 27.38 C 56.62 27.36 57.89 27.55 59.13 27.91 C 59.57 28.05 60.05 27.83 60.22 27.39 C 60.41 26.92 60.19 26.41 59.73 26.23 Z M 36.69 29.04 C 35.38 29.04 34.32 30.1 34.32 31.41 C 34.32 32.72 35.38 33.78 36.69 33.78 C 38 33.78 39.06 32.72 39.06 31.41 C 39.05 30.1 37.99 29.04 36.69 29.04 Z M 41.24 26.6 C 41.27 25.89 40.71 25.29 40 25.26 C 38.6 25.18 37.14 25.06 35.72 25.2 C 34.25 25.33 32.79 25.68 31.43 26.23 C 31.01 26.4 30.78 26.86 30.9 27.3 C 31.04 27.78 31.54 28.05 32.02 27.9 C 32.64 27.72 33.27 27.58 33.9 27.49 C 35.18 27.32 36.46 27.34 37.74 27.51 C 38.43 27.6 39.06 27.72 39.78 27.82 C 40.53 27.93 41.22 27.35 41.24 26.6 Z" fill="var(--icon-secondary, #6c8ebf)" stroke="none" stroke-width="0"/></svg>