<svg xmlns="http://www.w3.org/2000/svg" viewBox="0 0 140 140" width="140" height="140"><path d="M 140 78.9 L 140 135 C 140 137.76 137.76 140 135 140 L 46.08 140 L 25.74 119.66 C 25.92 119.83 26.16 119.94 26.43 119.94 L 70.8 119.99 L 113.6 120.04 L 113.6 120.04 C 113.87 120.04 114.12 119.94 114.31 119.75 C 114.5 119.56 114.6 119.31 114.6 119.04 L 114.6 103.7 C 114.6 99.81 113.69 96.48 111.89 93.78 C 110.24 91.31 107.88 89.43 104.87 88.17 C 104.83 88.15 104.79 88.14 104.75 88.13 L 82.53 82.08 L 82.53 71.2 C 82.71 71.03 82.88 70.86 83.06 70.69 C 87.58 66.16 90.07 60.42 90.07 54.51 L 90.07 51.47 L 92.9 48.06 C 93.05 47.88 93.13 47.65 93.13 47.42 L 93.13 37.42 C 93.13 33.86 91.76 30.67 89.1 27.99 L 140 78.9 Z" fill="var(--icon-primary, #dae8fc)" stroke="none" stroke-width="0" opacity="0.25"/></svg>