<svg xmlns="http://www.w3.org/2000/svg" viewBox="0 0 140 140" width="140" height="140"><path d="M 140 80.71 L 140 135 C 140 137.76 137.76 140 135 140 L 50.61 140 L 29.73 119.12 C 29.91 119.29 30.15 119.4 30.42 119.4 L 109.38 119.4 C 109.93 119.4 110.38 118.95 110.38 118.4 L 110.38 104.57 C 110.38 101.83 109.36 99.35 107.42 97.38 C 105.69 95.63 103.28 94.32 100.46 93.62 C 90.23 91.06 81.48 84.77 79.6 83.34 L 79.6 79.21 C 82.95 80.41 86.38 80.58 89.6 79.68 C 92.76 78.8 95.68 76.88 97.84 74.28 C 101.72 69.6 102.47 63.74 99.7 59.7 C 94.8 52.54 94.72 51.03 94.44 46.01 C 94.39 45.05 94.33 43.95 94.23 42.67 C 93.77 36.81 91.3 32.05 88.12 28.82 L 140 80.71 Z M 55.3 80.26 C 54.89 80.26 54.48 80.24 54.06 80.21 C 51.24 79.98 48.32 78.97 45.82 77.36 C 44.78 76.69 43.83 75.93 42.99 75.1 L 54.8 86.91 C 56.86 85.75 58.83 84.5 60.69 83.18 L 60.69 79.15 C 59.07 79.89 57.25 80.26 55.3 80.26 Z" fill="var(--icon-primary, #dae8fc)" stroke="none" stroke-width="0" opacity="0.25"/></svg>