<svg xmlns="http://www.w3.org/2000/svg" viewBox="0 0 140 140" width="140" height="140"><path d="M 140 78.61 L 140 135 C 140 137.76 137.76 140 135 140 L 71.2 140 L 21.1 89.9 C 21.71 90.51 22.56 90.89 23.49 90.89 L 41.6 90.89 C 41.98 94.64 39.78 102.99 45.84 103.09 L 94.14 103.09 C 100.21 102.98 98 94.65 98.38 90.89 L 116.49 90.89 C 118.35 90.89 119.87 89.37 119.87 87.51 L 119.87 74.56 C 119.87 71.23 117.98 68.87 113.74 66.89 C 113.72 66.87 106.67 64.27 106.64 64.25 C 111.93 59.15 110.99 49.71 106.23 44.83 L 140 78.61 Z M 88.35 49.46 L 79.81 40.92 C 86.38 47.52 87.57 60.62 80.09 67.36 L 81.7 67.96 C 83.25 66.88 88.99 64.98 90.82 64.22 C 86.95 60.45 86.45 54.36 88.35 49.46 Z M 55.08 51.19 L 48.72 44.83 C 50.26 46.41 51.39 48.46 52.05 50.69 C 53.43 55.36 52.71 60.8 49.12 64.25 C 50.64 64.86 56.97 66.98 58.18 67.93 L 59.85 67.3 C 55.42 63.27 54.06 57 55.08 51.19 Z" fill="var(--icon-primary, #dae8fc)" stroke="none" stroke-width="0" opacity="0.25"/></svg>