<svg xmlns="http://www.w3.org/2000/svg" viewBox="0 0 140 140" width="140" height="140"><path d="M 140 78.65 L 140 135 C 140 137.76 137.76 140 135 140 L 78.66 140 L 21.18 82.52 C 21.8 83.07 22.61 83.4 23.5 83.4 L 31.28 83.4 L 31.28 85 C 31.28 85.55 31.73 86 32.28 86 L 44.78 86 C 45.33 86 45.78 85.55 45.78 85 L 45.78 83.4 L 94.21 83.4 L 94.21 85 C 94.21 85.55 94.66 86 95.21 86 L 107.71 86 C 108.26 86 108.71 85.55 108.71 85 L 108.71 83.4 L 116.49 83.4 C 118.42 83.4 119.99 81.83 119.99 79.9 L 119.99 60.1 C 119.99 59.16 119.62 58.31 119.02 57.69 L 140 78.65 Z" fill="var(--icon-primary, #dae8fc)" stroke="none" stroke-width="0" opacity="0.25"/></svg>