<svg xmlns="http://www.w3.org/2000/svg" viewBox="0 0 100 29.4" width="100" height="29.4"><path d="M 96.5 25.8 L 3.5 25.8 C 2.12 25.8 1 24.68 1 23.3 L 1 3.5 C 1 2.12 2.12 1 3.5 1 L 96.5 1 C 97.88 1 99 2.12 99 3.5 L 99 23.3 C 99 24.68 97.88 25.8 96.5 25.8 Z" fill="var(--icon-primary, #dae8fc)" stroke="none" stroke-width="0"/><path d="M 99.03 1.09 L 98.91 0.97 C 98.28 0.37 97.43 0 96.5 0 L 3.5 0 C 1.57 0 0 1.57 0 3.5 L 0 23.3 C 0 24.19 0.33 25 0.88 25.62 C 0.97 25.73 1.08 25.83 1.19 25.93 C 1.8 26.47 2.61 26.8 3.5 26.8 L 11.28 26.8 L 11.28 28.4 C 11.28 28.95 11.73 29.4 12.28 29.4 L 24.78 29.4 C 25.33 29.4 25.78 28.95 25.78 28.4 L 25.78 26.8 L 74.21 26.8 L 74.21 28.4 C 74.21 28.95 74.66 29.4 75.21 29.4 L 87.71 29.4 C 88.26 29.4 88.71 28.95 88.71 28.4 L 88.71 26.8 L 96.49 26.8 C 98.42 26.8 99.99 25.23 99.99 23.3 L 99.99 3.5 C 100 2.56 99.63 1.71 99.03 1.09 Z M 98 23.3 C 98 24.13 97.33 24.8 96.5 24.8 L 3.5 24.8 C 2.67 24.8 2 24.13 2 23.3 L 2 3.5 C 2 2.67 2.67 2 3.5 2 L 96.5 2 C 97.33 2 98 2.67 98 3.5 L 98 23.3 Z M 56.25 8.39 L 8.02 8.39 C 7.47 8.39 7.02 7.94 7.02 7.39 C 7.02 6.84 7.47 6.39 8.02 6.39 L 56.25 6.39 C 56.8 6.39 57.25 6.84 57.25 7.39 C 57.25 7.94 56.8 8.39 56.25 8.39 Z M 57.25 13.4 C 57.25 12.85 56.8 12.4 56.25 12.4 L 8.02 12.4 C 7.47 12.4 7.02 12.85 7.02 13.4 C 7.02 13.95 7.47 14.4 8.02 14.4 L 56.25 14.4 C 56.8 14.4 57.25 13.95 57.25 13.4 Z M 57.25 19.41 C 57.25 18.86 56.8 18.41 56.25 18.41 L 8.02 18.41 C 7.47 18.41 7.02 18.86 7.02 19.41 C 7.02 19.96 7.47 20.41 8.02 20.41 L 56.25 20.41 C 56.8 20.41 57.25 19.96 57.25 19.41 Z M 77 4.4 C 72.03 4.4 68 8.43 68 13.4 C 68 18.37 72.03 22.4 77 22.4 C 81.97 22.4 86 18.37 86 13.4 C 86 8.43 81.97 4.4 77 4.4 Z M 92.5 16.4 C 90.84 16.4 89.5 17.74 89.5 19.4 C 89.5 21.06 90.84 22.4 92.5 22.4 C 94.16 22.4 95.5 21.06 95.5 19.4 C 95.5 17.74 94.16 16.4 92.5 16.4 Z" fill="var(--icon-secondary, #6c8ebf)" stroke="none" stroke-width="0"/></svg>