<svg xmlns="http://www.w3.org/2000/svg" viewBox="0 0 100 45" width="100" height="45"><path d="M 95 14 L 95 34 C 95 38.96 90.96 43 86 43 L 56.3 43 L 50.55 39.17 C 50.21 38.95 49.78 38.95 49.44 39.17 L 43.7 43 L 14 43 C 9.04 43 5 38.96 5 34 L 5 14 C 5 9.04 9.04 5 14 5 L 86 5 C 90.96 5 95 9.04 95 14 Z" fill="var(--icon-primary, #dae8fc)" stroke="none" stroke-width="0"/><path d="M 99 15.5 L 97 15.5 L 97 14 C 97 10.99 95.78 8.26 93.82 6.27 C 93.79 6.24 93.76 6.21 93.73 6.18 C 91.74 4.21 89.01 3 86 3 L 58.5 3 L 58.5 1 C 58.5 0.72 58.39 0.47 58.21 0.29 C 58.03 0.11 57.78 0 57.5 0 L 42.5 0 C 41.95 0 41.5 0.45 41.5 1 L 41.5 3 L 14 3 C 7.93 3 3 7.93 3 14 L 3 15.5 L 1 15.5 C 0.45 15.5 0 15.95 0 16.5 L 0 31.5 C 0 31.78 0.11 32.03 0.29 32.21 C 0.47 32.39 0.72 32.5 1 32.5 L 3 32.5 L 3 34 C 3 34.32 3.01 34.64 3.04 34.96 C 3.27 37.61 4.44 40 6.22 41.78 C 8.22 43.77 10.97 45 14 45 L 44 45 C 44.2 45 44.39 44.94 44.56 44.83 L 50 41.2 L 55.44 44.83 C 55.61 44.94 55.8 45 56 45 L 86 45 C 92.07 45 97 40.06 97 34 L 97 32.5 L 99 32.5 C 99.55 32.5 100 32.05 100 31.5 L 100 16.5 C 100 15.95 99.55 15.5 99 15.5 Z M 95 34 C 95 38.96 90.96 43 86 43 L 56.3 43 L 50.55 39.17 C 50.21 38.95 49.78 38.95 49.44 39.17 L 43.7 43 L 14 43 C 10.36 43 7.22 40.83 5.8 37.72 C 5.29 36.58 5 35.33 5 34 L 5 14 C 5 9.04 9.04 5 14 5 L 86 5 C 90.96 5 95 9.04 95 14 L 95 34 Z M 74.29 33.71 L 66.07 33.71 L 62.08 27.17 L 58.39 27.17 L 58.39 33.71 L 51.19 33.71 L 51.19 21.8 L 62.11 21.8 C 63.25 21.8 64.08 21.65 64.59 21.35 C 65.1 21.05 65.36 20.5 65.36 19.7 C 65.36 18.94 65.11 18.41 64.61 18.11 C 64.11 17.81 63.3 17.66 62.18 17.66 L 49.53 17.66 L 43.35 33.71 L 33.93 33.71 L 25.71 12.29 L 34.14 12.29 L 38.7 26.42 L 43.35 12.29 L 62.56 12.29 C 65.96 12.29 68.5 12.91 70.17 14.15 C 71.84 15.39 72.68 17.22 72.68 19.64 C 72.68 21.18 72.37 22.43 71.76 23.39 C 71.15 24.35 70.26 25.12 69.08 25.7 L 74.29 33.71 Z" fill="var(--icon-secondary, #6c8ebf)" stroke="none" stroke-width="0"/></svg>