<svg xmlns="http://www.w3.org/2000/svg" viewBox="0 0 140 140" width="140" height="140"><path d="M 140 78.45 L 140 135 C 140 137.76 137.76 140 135 140 L 78.45 140 L 26.23 87.78 L 26.23 87.78 C 28.22 89.77 30.97 91 34 91 L 64 91 C 64.2 91 64.39 90.94 64.56 90.83 L 70 87.2 L 75.44 90.83 C 75.61 90.94 75.8 91 76 91 L 106 91 C 112.07 91 117 86.06 117 80 L 117 78.5 L 119 78.5 C 119.55 78.5 120 78.05 120 77.5 L 120 62.5 C 120 61.95 119.55 61.5 119 61.5 L 117 61.5 L 117 60 C 117 56.99 115.78 54.26 113.82 52.27 L 140 78.45 Z M 80.91 49 L 78.2 46.29 C 78.38 46.47 78.49 46.72 78.49 47 L 78.49 49 L 80.91 49 Z M 23 80 L 23 78.5 L 21 78.5 C 20.72 78.5 20.47 78.39 20.29 78.21 L 23.04 80.96 C 23.01 80.64 23 80.32 23 80 Z" fill="var(--icon-primary, #dae8fc)" stroke="none" stroke-width="0" opacity="0.25"/></svg>