<svg xmlns="http://www.w3.org/2000/svg" viewBox="0 0 140 140" width="140" height="140"><path d="M 88.38 31.99 C 93.3 36.9 96 43.43 96 50.37 C 96 57.31 93.3 63.84 88.38 68.75 C 83.47 73.66 76.94 76.37 70 76.37 C 63.18 76.37 56.75 73.76 51.87 69.01 L 70.49 87.63 L 76.42 93.56 C 78.74 94.07 80.67 94.89 81.76 95.99 L 81.82 96.05 C 81.84 96.07 81.86 96.09 81.87 96.11 C 81.87 96.11 81.87 96.11 81.88 96.11 C 81.91 96.14 81.93 96.17 81.96 96.2 C 82.04 96.29 82.11 96.38 82.18 96.47 C 82.21 96.51 82.24 96.55 82.26 96.59 C 82.29 96.63 82.31 96.67 82.33 96.71 C 82.33 96.72 82.34 96.72 82.34 96.72 C 82.36 96.76 82.39 96.8 82.41 96.84 C 82.41 96.84 82.41 96.84 82.41 96.85 C 82.43 96.89 82.45 96.93 82.47 96.96 C 82.5 97.01 82.52 97.06 82.54 97.12 C 82.55 97.15 82.56 97.18 82.57 97.22 C 82.58 97.25 82.59 97.28 82.6 97.32 C 82.62 97.37 82.63 97.42 82.64 97.47 C 82.65 97.49 82.65 97.52 82.66 97.54 C 82.67 97.6 82.69 97.66 82.69 97.72 C 82.69 97.75 82.7 97.78 82.7 97.81 C 82.7 97.84 82.71 97.88 82.71 97.91 C 82.71 97.94 82.71 97.97 82.72 98 C 82.72 98.04 82.72 98.08 82.72 98.11 L 82.72 110.43 C 82.72 113.84 76.32 115.63 69.99 115.63 C 67.71 115.63 65.43 115.4 63.43 114.94 C 63.36 114.92 63.28 114.91 63.21 114.89 C 63.08 114.86 62.94 114.82 62.81 114.79 C 62.68 114.76 62.55 114.72 62.42 114.68 C 62.35 114.66 62.29 114.64 62.22 114.62 C 61.96 114.54 61.71 114.47 61.47 114.38 C 61.41 114.36 61.35 114.34 61.29 114.32 C 61.17 114.28 61.05 114.23 60.94 114.19 C 60.83 114.15 60.73 114.11 60.62 114.06 C 60.61 114.06 60.61 114.05 60.6 114.05 C 60.54 114.03 60.49 114 60.43 113.98 C 60.31 113.93 60.2 113.88 60.09 113.82 C 60.04 113.8 60 113.78 59.95 113.75 C 59.9 113.73 59.85 113.7 59.8 113.67 C 59.76 113.65 59.71 113.62 59.67 113.6 C 59.61 113.57 59.56 113.54 59.51 113.51 C 59.47 113.49 59.44 113.47 59.4 113.45 C 59.37 113.43 59.34 113.41 59.31 113.39 C 59.27 113.36 59.22 113.34 59.18 113.31 C 59.14 113.28 59.1 113.26 59.06 113.23 C 59.02 113.2 58.98 113.17 58.94 113.15 C 58.9 113.12 58.86 113.09 58.82 113.06 C 58.78 113.03 58.74 113 58.7 112.97 C 58.67 112.94 58.63 112.92 58.6 112.89 C 58.49 112.8 58.39 112.71 58.29 112.62 L 58.17 112.5 C 57.59 111.89 57.26 111.2 57.26 110.43 L 57.26 108.77 L 53.3 104.81 L 44.51 96.02 C 45.11 96.63 45.44 97.33 45.44 98.11 L 45.44 110.43 C 45.44 113.84 39.04 115.63 32.71 115.63 C 28.25 115.63 23.74 114.74 21.48 113.02 L 48.48 140 L 135 140 C 137.76 140 140 137.76 140 135 L 140 83.6 L 88.38 31.99 Z M 120 110.43 C 120 113.84 113.6 115.63 107.27 115.63 C 104.99 115.63 102.71 115.4 100.71 114.94 C 100.65 114.93 100.6 114.91 100.54 114.9 C 100.43 114.87 100.33 114.85 100.22 114.82 C 99.96 114.75 99.71 114.68 99.46 114.61 C 99.38 114.59 99.3 114.56 99.22 114.54 C 99.14 114.51 99.06 114.49 98.98 114.46 C 98.9 114.43 98.83 114.41 98.75 114.38 C 98.51 114.3 98.28 114.21 98.06 114.12 C 97.99 114.09 97.93 114.07 97.87 114.04 C 97.81 114.01 97.75 113.99 97.7 113.96 C 97.66 113.94 97.63 113.93 97.59 113.91 C 97.48 113.86 97.37 113.81 97.27 113.75 C 97.24 113.73 97.21 113.72 97.17 113.7 C 97.07 113.65 96.98 113.6 96.89 113.55 C 96.86 113.53 96.83 113.52 96.8 113.5 C 96.74 113.47 96.68 113.43 96.62 113.4 C 96.59 113.38 96.56 113.37 96.53 113.35 C 96.33 113.23 96.14 113.1 95.97 112.96 C 95.94 112.94 95.91 112.92 95.89 112.89 C 95.84 112.85 95.8 112.81 95.75 112.78 C 95.73 112.76 95.71 112.74 95.69 112.72 C 95.62 112.66 95.56 112.6 95.5 112.54 C 95.44 112.48 95.37 112.41 95.32 112.35 C 95.3 112.32 95.27 112.29 95.25 112.27 C 95.18 112.18 95.11 112.09 95.05 112 C 95.03 111.98 95.02 111.95 95 111.93 C 94.92 111.81 94.86 111.7 94.8 111.58 C 94.79 111.55 94.77 111.52 94.76 111.49 C 94.76 111.49 94.76 111.49 94.76 111.48 C 94.75 111.45 94.74 111.42 94.73 111.39 C 94.7 111.33 94.68 111.27 94.66 111.2 C 94.65 111.17 94.64 111.15 94.64 111.12 C 94.64 111.11 94.63 111.1 94.63 111.09 C 94.62 111.06 94.61 111.03 94.61 111.01 C 94.6 110.98 94.6 110.96 94.59 110.93 C 94.59 110.91 94.58 110.9 94.58 110.88 C 94.57 110.83 94.56 110.78 94.56 110.73 C 94.56 110.72 94.56 110.71 94.56 110.69 C 94.56 110.66 94.55 110.64 94.55 110.61 C 94.55 110.58 94.54 110.54 94.54 110.51 C 94.54 110.48 94.54 110.44 94.54 110.41 L 94.54 98.11 C 94.54 94.88 100.29 93.1 106.27 92.93 C 106.6 92.92 106.94 92.92 107.27 92.92 C 107.6 92.92 107.94 92.93 108.27 92.93 C 114.25 93.11 120 94.88 120 98.11 L 120 110.43 Z" fill="var(--icon-primary, #dae8fc)" stroke="none" stroke-width="0" opacity="0.25"/></svg>