<svg xmlns="http://www.w3.org/2000/svg" viewBox="0 0 100 91.25" width="100" height="91.25"><path d="M 75 26 C 75 39.81 63.81 51 50 51 C 36.19 51 25 39.81 25 26 C 25 12.19 36.19 1 50 1 C 63.81 1 75 12.19 75 26 Z M 12.73 69.54 C 6.25 69.54 1 71.42 1 73.74 L 1 86.06 C 1 88.38 6.25 90.26 12.73 90.26 C 19.21 90.26 24.46 88.38 24.46 86.06 L 24.46 73.74 C 24.46 71.42 19.21 69.54 12.73 69.54 Z M 61.73 73.74 L 61.73 86.06 C 61.73 88.38 56.48 90.26 50 90.26 C 43.52 90.26 38.27 88.38 38.27 86.06 L 38.27 73.74 C 38.27 71.42 43.52 69.54 50 69.54 C 56.48 69.54 61.73 71.42 61.73 73.74 Z M 99 73.74 L 99 86.06 C 99 88.38 93.75 90.26 87.27 90.26 C 80.79 90.26 75.54 88.38 75.54 86.06 L 75.54 73.74 C 75.54 71.42 80.79 69.54 87.27 69.54 C 93.75 69.54 99 71.42 99 73.74 Z" fill="var(--icon-primary, #dae8fc)" stroke="none" stroke-width="0"/><path d="M 88.27 68.55 L 88.27 59.99 C 88.27 59.44 87.82 58.99 87.27 58.99 L 51 58.99 L 51 51.98 C 57.57 51.73 63.71 49.06 68.38 44.39 C 73.3 39.47 76 32.94 76 26 C 76 19.06 73.3 12.53 68.38 7.62 C 63.47 2.7 56.94 0 50 0 C 48.78 0 47.57 0.08 46.37 0.25 C 46.21 0.27 46.04 0.3 45.88 0.32 C 40.5 1.17 35.54 3.69 31.62 7.62 C 27.69 11.55 25.18 16.51 24.33 21.89 C 24.3 22.05 24.28 22.22 24.26 22.38 C 24.08 23.56 24 24.78 24 26 C 24 32.82 26.61 39.25 31.36 44.13 L 31.38 44.16 C 31.46 44.24 31.53 44.31 31.61 44.39 C 31.69 44.47 31.76 44.54 31.84 44.62 L 31.87 44.64 C 36.51 49.16 42.55 51.74 49 51.98 L 49 58.99 L 12.73 58.99 C 12.18 58.99 11.73 59.44 11.73 59.99 L 11.73 68.55 C 10.11 68.6 8.51 68.76 7.03 69.04 C 3.06 69.8 0 71.38 0 73.74 L 0 86.06 C 0 86.66 0.2 87.21 0.56 87.71 C 0.66 87.86 0.78 88 0.91 88.13 L 1.03 88.25 C 1.17 88.39 1.33 88.52 1.49 88.64 C 3.75 90.36 8.26 91.25 12.72 91.25 C 19.05 91.25 25.45 89.46 25.45 86.05 L 25.45 73.74 C 25.45 72.96 25.11 72.26 24.52 71.65 L 24.43 71.56 L 24.4 71.53 C 22.47 69.7 18.16 68.68 13.72 68.55 L 13.72 60.99 L 49 60.99 L 49 68.55 C 47.56 68.59 46.13 68.73 44.8 68.95 C 42.29 69.37 40.11 70.12 38.74 71.16 C 37.81 71.87 37.27 72.73 37.27 73.73 L 37.27 86.05 C 37.27 86.82 37.6 87.51 38.18 88.12 L 38.3 88.24 C 39.38 89.28 41.23 90.06 43.44 90.56 C 45.43 91.02 47.72 91.25 50 91.25 C 56.33 91.25 62.73 89.46 62.73 86.05 L 62.73 73.74 C 62.73 72.95 62.38 72.24 61.77 71.62 L 61.69 71.54 C 60.58 70.48 58.69 69.7 56.43 69.19 C 54.83 68.83 53.05 68.62 51.24 68.56 C 51.16 68.56 51.08 68.55 51 68.55 L 51 60.99 L 86.27 60.99 L 86.27 68.55 C 80.29 68.73 74.54 70.5 74.54 73.73 L 74.54 86.05 C 74.54 88.24 77.16 89.75 80.71 90.56 C 82.7 91.02 84.99 91.25 87.27 91.25 C 93.6 91.25 100 89.46 100 86.05 L 100 73.74 C 100 70.5 94.26 68.73 88.27 68.55 Z M 23.46 86.05 C 23.46 86.57 22.6 87.39 20.69 88.08 C 18.58 88.83 15.75 89.25 12.74 89.25 C 9.72 89.25 6.89 88.83 4.78 88.08 C 2.86 87.4 2 86.57 2 86.05 L 2 82.7 C 4.38 84.2 8.57 84.97 12.73 84.97 C 16.88 84.97 21.07 84.2 23.46 82.7 L 23.46 86.05 Z M 23.46 79.77 C 23.46 80.29 22.6 81.11 20.69 81.8 C 18.58 82.56 15.75 82.97 12.74 82.97 C 9.72 82.97 6.89 82.55 4.78 81.8 C 2.86 81.12 2 80.29 2 79.77 L 2 76.67 C 4.38 78.17 8.57 78.94 12.73 78.94 C 16.88 78.94 21.07 78.17 23.46 76.67 L 23.46 79.77 Z M 20.68 71.71 C 22.59 72.4 23.45 73.22 23.45 73.74 C 23.45 74.26 22.59 75.08 20.68 75.77 C 18.57 76.53 15.74 76.94 12.73 76.94 C 9.71 76.94 6.88 76.52 4.77 75.77 C 3.16 75.2 2.3 74.52 2.07 74.01 C 2.02 73.91 2 73.82 2 73.74 C 2 73.29 2.66 72.6 4.1 71.98 C 4.31 71.89 4.53 71.8 4.77 71.72 C 6.88 70.96 9.71 70.55 12.73 70.55 C 15.75 70.54 18.57 70.95 20.68 71.71 Z M 56.18 49.19 C 57.49 47.91 58.69 46.21 59.73 44.12 C 60.24 43.09 60.71 41.99 61.12 40.83 C 63.26 41.38 65.24 42.08 66.98 42.93 C 64.04 45.89 60.33 48.08 56.18 49.19 Z M 68.39 41.4 C 66.44 40.39 64.19 39.56 61.74 38.93 C 62.8 35.32 63.4 31.25 63.48 27 L 73.97 27 C 73.75 32.47 71.69 37.47 68.39 41.4 Z M 68.39 10.6 C 71.69 14.53 73.75 19.53 73.98 25 L 63.49 25 C 63.41 20.75 62.81 16.67 61.75 13.07 C 64.19 12.43 66.44 11.6 68.39 10.6 Z M 66.99 9.06 C 65.25 9.91 63.27 10.61 61.13 11.16 C 60.71 10 60.25 8.9 59.73 7.88 C 58.69 5.79 57.49 4.09 56.18 2.81 C 60.33 3.92 64.04 6.11 66.99 9.06 Z M 51 2.09 C 53.58 2.57 56.01 4.9 57.94 8.76 C 58.39 9.65 58.79 10.6 59.16 11.6 C 56.58 12.12 53.82 12.42 51 12.48 L 51 2.09 Z M 51 14.49 C 54.04 14.43 57.02 14.1 59.79 13.52 C 60.82 16.97 61.4 20.89 61.48 25 L 51 25 L 51 14.49 Z M 51 27 L 61.49 27 C 61.41 31.11 60.82 35.03 59.8 38.48 C 57.02 37.9 54.05 37.57 51.01 37.51 L 51.01 27 Z M 51 39.51 C 53.83 39.57 56.59 39.87 59.16 40.39 C 58.79 41.39 58.39 42.34 57.94 43.23 C 56.01 47.1 53.57 49.43 51 49.91 L 51 39.51 Z M 49 27 L 49 37.51 C 45.96 37.57 42.98 37.9 40.2 38.48 C 39.17 35.03 38.59 31.11 38.51 27 L 49 27 Z M 38.51 25 C 38.59 20.89 39.18 16.97 40.2 13.52 C 42.98 14.1 45.95 14.43 49 14.49 L 49 25 L 38.51 25 Z M 49 2.09 L 49 12.49 C 46.17 12.43 43.41 12.13 40.84 11.61 C 41.21 10.61 41.61 9.66 42.06 8.77 C 43.99 4.9 46.42 2.57 49 2.09 Z M 43.23 2.97 C 43.42 2.91 43.62 2.86 43.81 2.81 C 43.81 2.81 43.81 2.81 43.81 2.81 C 43.77 2.85 43.73 2.89 43.69 2.93 C 42.43 4.2 41.27 5.85 40.26 7.88 C 39.75 8.91 39.28 10.01 38.87 11.17 C 37.96 10.94 37.08 10.68 36.24 10.39 C 35.09 10 34.01 9.56 33.01 9.07 C 35.82 6.25 39.32 4.12 43.23 2.97 Z M 26.81 19.81 C 26.86 19.62 26.91 19.42 26.97 19.23 C 27.91 16.02 29.51 13.09 31.61 10.59 C 32.57 11.08 33.59 11.53 34.68 11.94 C 35.81 12.36 37.01 12.74 38.26 13.06 C 37.2 16.67 36.6 20.74 36.52 24.99 L 26.02 24.99 C 26.09 23.22 26.36 21.48 26.81 19.81 Z M 31.61 41.4 C 28.31 37.47 26.25 32.47 26.02 27 L 36.51 27 C 36.59 31.25 37.19 35.33 38.25 38.93 C 35.81 39.57 33.56 40.4 31.61 41.4 Z M 33.01 42.94 C 34.75 42.09 36.73 41.39 38.87 40.84 C 39.28 42 39.75 43.1 40.26 44.13 C 41.3 46.22 42.5 47.92 43.81 49.2 C 39.67 48.08 35.96 45.89 33.01 42.94 Z M 42.06 43.23 C 41.61 42.34 41.21 41.39 40.84 40.39 C 43.42 39.87 46.18 39.57 49 39.51 L 49 49.91 C 46.42 49.43 43.99 47.1 42.06 43.23 Z M 60.73 86.05 C 60.73 86.57 59.87 87.39 57.96 88.08 C 55.85 88.83 53.02 89.25 50 89.25 C 46.98 89.25 44.15 88.83 42.04 88.08 C 40.12 87.39 39.27 86.57 39.27 86.05 L 39.27 82.7 C 41.66 84.2 45.84 84.97 50 84.97 C 54.15 84.97 58.34 84.2 60.73 82.7 L 60.73 86.05 Z M 60.73 79.77 C 60.73 80.29 59.87 81.11 57.96 81.8 C 55.85 82.56 53.02 82.97 50 82.97 C 46.98 82.97 44.15 82.55 42.04 81.8 C 40.12 81.11 39.27 80.29 39.27 79.77 L 39.27 76.67 C 41.66 78.17 45.84 78.94 50 78.94 C 54.15 78.94 58.34 78.17 60.73 76.67 L 60.73 79.77 Z M 57.96 71.71 C 58.81 72.01 59.45 72.35 59.9 72.67 C 60.26 72.92 60.5 73.17 60.62 73.39 C 60.69 73.52 60.73 73.63 60.73 73.74 C 60.73 74.26 59.87 75.08 57.96 75.77 C 55.85 76.53 53.02 76.94 50 76.94 C 47.69 76.94 45.5 76.7 43.65 76.25 C 43.08 76.11 42.54 75.95 42.04 75.77 C 40.68 75.28 39.86 74.73 39.49 74.26 C 39.34 74.07 39.27 73.89 39.27 73.74 C 39.27 73.44 39.56 73.03 40.18 72.61 C 40.63 72.31 41.24 72 42.04 71.71 C 43.97 71.02 46.51 70.61 49.25 70.55 C 49.5 70.54 49.75 70.54 50 70.54 C 53.02 70.54 55.85 70.95 57.96 71.71 Z M 98 86.05 C 98 86.57 97.14 87.39 95.23 88.08 C 93.12 88.83 90.29 89.25 87.27 89.25 C 84.25 89.25 81.42 88.83 79.31 88.08 C 77.4 87.39 76.54 86.57 76.54 86.05 L 76.54 82.7 C 78.93 84.2 83.11 84.97 87.27 84.97 C 91.43 84.97 95.61 84.2 98 82.7 L 98 86.05 Z M 98 79.77 C 98 80.29 97.14 81.11 95.23 81.8 C 93.12 82.56 90.29 82.97 87.27 82.97 C 84.25 82.97 81.42 82.55 79.31 81.8 C 77.4 81.11 76.54 80.29 76.54 79.77 L 76.54 76.67 C 78.93 78.17 83.11 78.94 87.27 78.94 C 91.43 78.94 95.61 78.17 98 76.67 L 98 79.77 Z M 95.23 75.76 C 93.12 76.52 90.29 76.93 87.27 76.93 C 84.25 76.93 81.42 76.51 79.31 75.76 C 77.4 75.07 76.54 74.25 76.54 73.73 C 76.54 73.22 77.4 72.39 79.31 71.7 C 81.42 70.94 84.25 70.53 87.27 70.53 C 90.29 70.53 93.12 70.95 95.23 71.7 C 97.14 72.39 98 73.21 98 73.73 C 98 74.25 97.14 75.08 95.23 75.76 Z" fill="var(--icon-secondary, #6c8ebf)" stroke="none" stroke-width="0"/></svg>