<svg xmlns="http://www.w3.org/2000/svg" viewBox="0 0 140 140" width="140" height="140"><path d="M 102.8 32.16 L 102.8 32.16 C 101.76 31.16 99.67 31.6 99.56 33.49 C 99.57 33.55 99.12 52.1 99.02 56.62 L 40.98 56.62 L 40.44 33.49 C 40.44 33.45 40.43 33.41 40.43 33.38 C 40.43 33.34 40.42 33.31 40.42 33.27 C 40.42 33.24 40.41 33.21 40.4 33.18 C 40.4 33.16 40.39 33.14 40.39 33.12 C 40.38 33.09 40.38 33.07 40.37 33.04 C 40.34 32.94 40.31 32.85 40.28 32.76 C 40.27 32.74 40.26 32.71 40.25 32.69 C 40.25 32.69 40.25 32.68 40.24 32.68 C 40.23 32.65 40.21 32.63 40.2 32.6 C 40.19 32.58 40.18 32.56 40.17 32.55 C 40.16 32.53 40.15 32.51 40.14 32.5 C 40.13 32.48 40.11 32.46 40.1 32.43 C 40.08 32.39 40.05 32.36 40.02 32.32 C 40 32.29 39.98 32.27 39.95 32.24 C 38.94 31.13 36.75 31.55 36.64 33.49 C 36.64 33.55 36.2 52.1 36.1 56.62 L 23.5 56.62 C 21.57 56.62 20 58.19 20 60.12 L 20 79.87 C 20 80.77 20.34 81.6 20.91 82.22 C 20.91 82.22 20.91 82.22 20.91 82.22 L 21.15 82.46 C 21.15 82.46 21.15 82.46 21.15 82.46 L 78.69 140 L 135 140 C 137.76 140 140 137.76 140 135 L 140 69.36 L 102.8 32.16 Z M 39.94 32.24 C 39.96 32.26 39.98 32.29 40.01 32.32 C 40.04 32.35 40.07 32.39 40.09 32.43 C 40.11 32.45 40.12 32.47 40.13 32.5 C 40.14 32.52 40.15 32.53 40.16 32.55 C 40.17 32.57 40.18 32.58 40.19 32.6 C 40.2 32.63 40.22 32.65 40.23 32.68 C 40.23 32.68 40.23 32.69 40.24 32.69 C 40.25 32.71 40.26 32.74 40.27 32.76 C 40.31 32.85 40.34 32.94 40.36 33.04 C 40.37 33.06 40.37 33.09 40.38 33.12 C 40.39 33.14 40.39 33.16 40.39 33.18 C 40.4 33.21 40.4 33.24 40.41 33.27 C 40.42 33.31 40.42 33.34 40.42 33.38 C 40.42 33.42 40.43 33.46 40.43 33.49 L 40.97 56.62 L 64.32 56.62 L 39.94 32.24 Z" fill="var(--icon-primary, #dae8fc)" stroke="none" stroke-width="0" opacity="0.25"/></svg>