<svg xmlns="http://www.w3.org/2000/svg" viewBox="0 0 100 54.85" width="100" height="54.85"><path d="M 96.5 51.22 L 3.5 51.22 C 2.12 51.22 1 50.1 1 48.72 L 1 28.97 C 1 27.59 2.12 26.47 3.5 26.47 L 96.5 26.47 C 97.88 26.47 99 27.59 99 28.97 L 99 48.72 C 99 50.1 97.88 51.22 96.5 51.22 Z" fill="var(--icon-primary, #dae8fc)" stroke="none" stroke-width="0"/><ellipse cx="88.78" cy="38.44" rx="3" ry="3" fill="var(--icon-secondary, #6c8ebf)" stroke="none" stroke-width="0"/><path d="M 88.78 42.44 C 86.57 42.44 84.78 40.65 84.78 38.44 C 84.78 36.23 86.57 34.44 88.78 34.44 C 90.99 34.44 92.78 36.23 92.78 38.44 C 92.78 40.65 90.99 42.44 88.78 42.44 Z M 88.78 36.44 C 87.68 36.44 86.78 37.34 86.78 38.44 C 86.78 39.54 87.68 40.44 88.78 40.44 C 89.88 40.44 90.78 39.54 90.78 38.44 C 90.78 37.34 89.89 36.44 88.78 36.44 Z M 96.5 25.47 L 83.91 25.47 L 83.37 2.34 C 83.34 1.76 83.12 1.32 82.8 1.01 C 81.76 0 79.67 0.45 79.56 2.34 C 79.57 2.4 79.12 20.95 79.02 25.47 L 20.97 25.47 L 20.44 2.34 C 20.41 1.81 20.22 1.39 19.94 1.09 L 19.83 0.98 C 19.38 0.57 18.75 0.41 18.16 0.52 C 17.46 0.65 16.83 1.15 16.66 2.02 C 16.64 2.12 16.63 2.23 16.62 2.34 C 16.62 2.4 16.18 20.95 16.08 25.47 L 3.5 25.47 C 1.57 25.47 0 27.04 0 28.97 L 0 48.72 C 0 49.62 0.34 50.45 0.91 51.07 C 0.91 51.07 0.91 51.07 0.91 51.07 C 0.99 51.15 1.06 51.23 1.15 51.31 C 1.15 51.31 1.15 51.31 1.15 51.31 C 1.77 51.87 2.6 52.22 3.5 52.22 L 11.28 52.22 L 11.28 53.85 C 11.28 54.4 11.73 54.85 12.28 54.85 L 24.78 54.85 C 25.33 54.85 25.78 54.4 25.78 53.85 L 25.78 52.22 L 74.21 52.22 L 74.21 53.85 C 74.21 54.4 74.66 54.85 75.21 54.85 L 87.71 54.85 C 88.26 54.85 88.71 54.4 88.71 53.85 L 88.71 52.22 L 96.49 52.22 C 98.42 52.22 99.99 50.65 99.99 48.72 L 99.99 28.97 C 100 27.04 98.43 25.47 96.5 25.47 Z M 98 48.72 C 98 49.55 97.33 50.22 96.5 50.22 L 3.5 50.22 C 2.67 50.22 2 49.55 2 48.72 L 2 28.97 C 2 28.14 2.67 27.47 3.5 27.47 L 96.5 27.47 C 97.33 27.47 98 28.14 98 28.97 L 98 48.72 Z M 22.98 36.8 L 22.98 43.8 C 22.98 44.35 22.53 44.8 21.98 44.8 L 7.98 44.8 C 7.43 44.8 6.98 44.35 6.98 43.8 L 6.98 36.8 C 6.98 36.25 7.43 35.8 7.98 35.8 L 10.98 35.8 L 10.98 32.8 C 10.98 32.25 11.43 31.8 11.98 31.8 L 17.98 31.8 C 18.53 31.8 18.98 32.25 18.98 32.8 L 18.98 35.8 L 21.98 35.8 C 22.54 35.8 22.98 36.24 22.98 36.8 Z M 40.52 35.8 L 37.52 35.8 L 37.52 32.8 C 37.52 32.25 37.07 31.8 36.52 31.8 L 30.52 31.8 C 29.97 31.8 29.52 32.25 29.52 32.8 L 29.52 35.8 L 26.52 35.8 C 25.97 35.8 25.52 36.25 25.52 36.8 L 25.52 43.8 C 25.52 44.35 25.97 44.8 26.52 44.8 L 40.52 44.8 C 41.07 44.8 41.52 44.35 41.52 43.8 L 41.52 36.8 C 41.52 36.24 41.07 35.8 40.52 35.8 Z M 59.05 35.8 L 56.05 35.8 L 56.05 32.8 C 56.05 32.25 55.6 31.8 55.05 31.8 L 49.05 31.8 C 48.5 31.8 48.05 32.25 48.05 32.8 L 48.05 35.8 L 45.05 35.8 C 44.5 35.8 44.05 36.25 44.05 36.8 L 44.05 43.8 C 44.05 44.35 44.5 44.8 45.05 44.8 L 59.05 44.8 C 59.6 44.8 60.05 44.35 60.05 43.8 L 60.05 36.8 C 60.05 36.24 59.6 35.8 59.05 35.8 Z M 77.58 35.8 L 74.58 35.8 L 74.58 32.8 C 74.58 32.25 74.13 31.8 73.58 31.8 L 67.58 31.8 C 67.03 31.8 66.58 32.25 66.58 32.8 L 66.58 35.8 L 63.58 35.8 C 63.03 35.8 62.58 36.25 62.58 36.8 L 62.58 43.8 C 62.58 44.35 63.03 44.8 63.58 44.8 L 77.58 44.8 C 78.13 44.8 78.58 44.35 78.58 43.8 L 78.58 36.8 C 78.58 36.24 78.14 35.8 77.58 35.8 Z" fill="var(--icon-secondary, #6c8ebf)" stroke="none" stroke-width="0"/></svg>