<svg xmlns="http://www.w3.org/2000/svg" viewBox="0 0 108.72 107.15" width="108.72" height="107.15"><path d="M 10.76 0.1 A 10 10 0 1 0 10.53 20.1 L 18.74 20.19 A 10 10 0 0 0 18.86 20.2 C 40.77 20.2 57.89 29.59 70 42.83 C 82.11 56.07 88.65 73.31 88.65 86.94 A 10 10 0 0 0 88.65 86.95 L 88.67 96.39 A 10 10 0 1 0 108.67 96.36 L 108.65 86.94 C 108.65 67.28 100.13 46.14 84.76 29.33 C 69.38 12.52 46.6 0.19 18.86 0.19 L 18.97 0.19 Z M 20.37 36.64 L 10.59 36.65 A 10 10 0 1 0 10.61 56.65 L 20.38 56.64 C 27.13 56.64 35.49 60.29 41.81 66.47 C 48.13 72.64 52.19 80.88 52.19 89.1 A 10 10 0 0 0 52.19 89.16 L 52.24 96.62 A 10 10 0 1 0 72.24 96.5 L 72.19 89.1 C 72.19 74.51 65.36 61.51 55.79 52.16 C 46.21 42.81 33.67 36.64 20.38 36.64 A 10 10 0 0 0 20.37 36.64 Z M 31.55 90.99 A 15.52 15.52 0 0 1 16.03 106.51 A 15.52 15.52 0 0 1 0.51 90.99 A 15.52 15.52 0 0 1 16.03 75.47 A 15.52 15.52 0 0 1 31.55 90.99 Z" fill="var(--icon-primary, #dae8fc)" stroke="none" stroke-width="0"/></svg>