<svg xmlns="http://www.w3.org/2000/svg" viewBox="0 0 190.99 258.41" width="190.99" height="258.41"><path d="M 98.27 24.13 L 82.28 47.15 L 92.91 47.15 L 92.91 71.58 A 31.31 31.31 0 0 0 79.95 77.02 L 62.62 59.78 L 70.1 52.26 L 42.64 47.22 L 47.69 74.79 L 55.18 67.26 L 72.52 84.5 A 31.31 31.31 0 0 0 67.34 97.16 L 42.89 97.16 L 42.89 86.54 L 19.86 102.34 L 42.89 118.33 L 42.89 107.7 L 67.31 107.7 A 31.31 31.31 0 0 0 72.6 120.44 L 55.31 137.76 L 47.79 130.26 L 42.83 157.84 L 70.28 152.72 L 62.77 145.21 L 80.03 127.93 A 31.31 31.31 0 0 0 92.91 133.27 L 92.91 157.72 L 82.28 157.72 L 98.27 180.75 L 114.07 157.72 L 103.45 157.72 L 103.45 133.3 A 31.31 31.31 0 0 0 116.23 127.96 L 133.59 145.22 L 126.1 152.76 L 153.7 157.65 L 148.51 130.22 L 141.03 137.75 L 123.7 120.52 A 31.31 31.31 0 0 0 129 107.7 L 153.46 107.7 L 153.46 118.33 L 176.48 102.34 L 153.46 86.54 L 153.46 97.16 L 129.03 97.16 A 31.31 31.31 0 0 0 123.63 84.28 L 140.9 66.98 L 148.41 74.48 L 153.51 47.03 L 125.93 52.02 L 133.44 59.53 L 116.16 76.83 A 31.31 31.31 0 0 0 103.45 71.61 L 103.45 47.15 L 114.07 47.15 Z M 11.72 5.29 L 179.27 5.29 C 182.88 5.29 185.7 8.11 185.7 11.72 L 185.7 246.7 C 185.7 250.3 182.88 253.12 179.27 253.12 L 11.72 253.12 C 8.11 253.12 5.29 250.3 5.29 246.7 L 5.29 11.72 C 5.29 8.11 8.11 5.29 11.72 5.29 Z M 11.72 0 C 5.27 0 0 5.27 0 11.72 L 0 246.7 C 0 253.14 5.27 258.41 11.72 258.41 L 179.27 258.41 C 185.72 258.41 190.99 253.14 190.99 246.7 L 190.99 11.72 C 190.99 5.27 185.72 0 179.27 0 Z M 116.47 209.49 L 130.98 209.49 L 130.98 214.59 L 142.64 207.86 L 130.98 200.89 L 130.98 205.99 L 116.47 205.99 Z M 147.03 209.47 L 161.54 209.47 L 161.54 214.57 L 173.2 207.83 L 161.54 200.86 L 161.54 205.96 L 147.03 205.96 Z M 144.75 220.81 L 156.43 229.42 L 153.4 233.53 L 166.78 235.03 L 161.53 222.5 L 158.5 226.6 L 146.83 217.99 Z M 144.75 193.17 L 156.43 184.56 L 153.4 180.46 L 166.78 178.96 L 161.53 191.49 L 158.5 187.38 L 146.83 195.99 Z" fill="var(--icon-primary, #dae8fc)" stroke="none" stroke-width="0"/><path d="M 129.52 102.5 A 31.33 31.33 0 0 1 98.19 133.83 A 31.33 31.33 0 0 1 66.86 102.5 A 31.33 31.33 0 0 1 98.19 71.17 A 31.33 31.33 0 0 1 129.52 102.5 Z" fill="#e6a9ab" stroke="none" stroke-width="0"/></svg>