<svg xmlns="http://www.w3.org/2000/svg" viewBox="0 0 190.99 279.26" width="190.99" height="279.26"><path d="M 20.21 126.35 L 29.21 126.35 L 29.21 123.35 L 20.21 123.35 Z M 38.21 126.35 L 47.21 126.35 L 47.21 123.35 L 38.21 123.35 Z M 56.21 126.35 L 65.21 126.35 L 65.21 123.35 L 56.21 123.35 Z M 74.21 126.35 L 83.21 126.35 L 83.21 123.35 L 74.21 123.35 Z M 92.21 126.35 L 101.21 126.35 L 101.21 123.35 L 92.21 123.35 Z M 110.21 126.35 L 119.21 126.35 L 119.21 123.35 L 110.21 123.35 Z M 128.21 126.35 L 137.21 126.35 L 137.21 123.35 L 128.21 123.35 Z M 146.21 126.35 L 155.21 126.35 L 155.21 123.35 L 146.21 123.35 Z M 164.21 126.35 L 173.21 126.35 L 173.21 123.35 L 164.21 123.35 Z M 172.63 141.92 L 175.63 141.92 L 175.63 132.92 L 172.63 132.92 Z M 18.71 142.72 L 21.71 142.72 L 21.71 133.72 L 18.71 133.72 Z M 172.63 159.92 L 175.63 159.92 L 175.63 150.92 L 172.63 150.92 Z M 18.71 160.72 L 21.71 160.72 L 21.71 151.72 L 18.71 151.72 Z M 172.63 177.92 L 175.63 177.92 L 175.63 168.92 L 172.63 168.92 Z M 18.71 178.72 L 21.71 178.72 L 21.71 169.72 L 18.71 169.72 Z M 172.63 195.92 L 175.63 195.92 L 175.63 186.92 L 172.63 186.92 Z M 18.71 196.72 L 21.71 196.72 L 21.71 187.72 L 18.71 187.72 Z M 172.63 213.92 L 175.63 213.92 L 175.63 204.92 L 172.63 204.92 Z M 18.71 214.72 L 21.71 214.72 L 21.71 205.72 L 18.71 205.72 Z M 172.63 231.92 L 175.63 231.92 L 175.63 222.92 L 172.63 222.92 Z M 18.71 232.72 L 21.71 232.72 L 21.71 223.72 L 18.71 223.72 Z M 172.63 249.86 L 174.07 249.86 L 174.07 251.36 L 174.13 251.36 L 175.63 251.36 L 175.63 249.86 L 175.63 240.92 L 172.63 240.92 Z M 18.71 249.86 L 18.71 251.36 L 20.21 251.36 L 21.07 251.36 L 21.07 249.86 L 21.71 249.86 L 21.71 241.72 L 18.71 241.72 Z M 30.07 251.36 L 39.07 251.36 L 39.07 248.36 L 30.07 248.36 Z M 48.07 251.36 L 57.07 251.36 L 57.07 248.36 L 48.07 248.36 Z M 66.07 251.36 L 75.07 251.36 L 75.07 248.36 L 66.07 248.36 Z M 84.07 251.36 L 93.07 251.36 L 93.07 248.36 L 84.07 248.36 Z M 102.07 251.36 L 111.07 251.36 L 111.07 248.36 L 102.07 248.36 Z M 120.07 251.36 L 129.07 251.36 L 129.07 248.36 L 120.07 248.36 Z M 138.07 251.36 L 147.07 251.36 L 147.07 248.36 L 138.07 248.36 Z M 156.07 251.36 L 165.07 251.36 L 165.07 248.36 L 156.07 248.36 Z M 36.74 15.11 L 36.74 29.19 L 64.3 29.19 L 92.3 40.13 L 65.18 50.73 L 65.18 50.48 L 36.74 50.48 L 36.74 64.56 L 65.18 64.56 L 65.18 58.93 L 127.04 58.93 L 127.04 64.56 L 155.48 64.56 L 155.48 50.48 L 127.04 50.48 L 127.04 50.49 L 100.54 40.13 L 128.54 29.19 L 155.48 29.19 L 155.48 15.11 L 127.04 15.11 L 127.04 20.65 L 65.18 20.65 L 65.18 15.11 Z M 65.18 23.65 L 127.04 23.65 L 127.04 26.55 L 96.42 38.52 L 65.18 26.31 Z M 96.42 41.74 L 127.04 53.71 L 127.04 55.93 L 65.18 55.93 L 65.18 53.95 Z M 59.36 152.79 L 52.59 162.53 L 57.09 162.53 L 57.09 172.87 C 55.11 173.21 53.24 174 51.61 175.17 L 44.27 167.88 L 47.44 164.69 L 35.82 162.56 L 37.96 174.23 L 41.13 171.04 L 48.46 178.34 C 47.35 179.94 46.6 181.77 46.27 183.69 L 35.92 183.69 L 35.92 179.2 L 26.18 185.88 L 35.92 192.65 L 35.92 188.15 L 46.26 188.15 C 46.59 190.09 47.36 191.94 48.5 193.54 L 41.18 200.87 L 38 197.69 L 35.9 209.37 L 47.51 207.2 L 44.34 204.02 L 51.64 196.71 C 53.26 197.86 55.12 198.63 57.09 198.97 L 57.09 209.32 L 52.59 209.32 L 59.36 219.06 L 66.04 209.32 L 61.55 209.32 L 61.55 198.98 C 63.5 198.64 65.34 197.87 66.96 196.72 L 74.3 204.03 L 71.13 207.21 L 82.81 209.29 L 80.61 197.68 L 77.45 200.86 L 70.12 193.58 C 70.96 192.39 71.59 191.07 72 189.67 L 88.85 189.67 C 89.04 193.96 89.53 197.81 90.25 200.85 C 90.72 202.8 91.27 204.41 91.97 205.66 C 92.68 206.91 93.67 208.04 95.2 208.04 C 96.72 208.04 97.72 206.91 98.42 205.66 C 99.13 204.41 99.67 202.8 100.14 200.85 C 100.87 197.81 101.36 193.96 101.54 189.67 L 119.79 189.67 C 120.2 191.07 120.84 192.39 121.68 193.58 L 114.35 200.86 L 111.18 197.68 L 108.99 209.29 L 120.66 207.21 L 117.49 204.03 L 124.84 196.72 C 126.45 197.87 128.3 198.64 130.25 198.98 L 130.25 209.32 L 125.75 209.32 L 132.44 219.06 L 139.2 209.32 L 134.71 209.32 L 134.71 198.97 C 136.67 198.63 138.53 197.86 140.15 196.71 L 147.46 204.02 L 144.28 207.2 L 155.89 209.37 L 153.8 197.69 L 150.62 200.87 L 143.3 193.54 C 144.44 191.94 145.2 190.09 145.54 188.15 L 155.87 188.15 L 155.87 192.65 L 165.61 185.88 L 155.87 179.2 L 155.87 183.69 L 145.52 183.69 C 145.2 181.77 144.45 179.94 143.33 178.34 L 150.67 171.04 L 153.84 174.23 L 155.98 162.56 L 144.35 164.69 L 147.52 167.88 L 140.19 175.17 C 138.56 174 136.69 173.21 134.71 172.87 L 134.71 162.53 L 139.2 162.53 L 132.44 152.79 L 125.75 162.53 L 130.25 162.53 L 130.25 172.88 C 128.31 173.21 126.48 173.96 124.87 175.09 L 117.56 167.77 L 120.74 164.59 L 109.07 162.48 L 111.22 174.1 L 114.4 170.92 L 121.71 178.24 C 120.85 179.44 120.2 180.77 119.78 182.17 L 101.54 182.17 C 101.36 177.89 100.87 174.03 100.14 171 C 99.67 169.05 99.13 167.44 98.42 166.19 C 97.72 164.94 96.72 163.81 95.2 163.81 C 93.67 163.81 92.68 164.94 91.97 166.19 C 91.27 167.44 90.72 169.05 90.25 171 C 89.53 174.03 89.04 177.89 88.85 182.17 L 72.01 182.17 C 71.59 180.77 70.94 179.44 70.09 178.24 L 77.39 170.92 L 80.57 174.1 L 82.73 162.48 L 71.06 164.59 L 74.24 167.77 L 66.93 175.09 C 65.32 173.96 63.48 173.21 61.55 172.88 L 61.55 162.53 L 66.04 162.53 Z M 95.2 166.86 C 95.28 166.93 95.5 167.12 95.81 167.67 C 96.28 168.51 96.8 169.91 97.22 171.7 C 97.88 174.44 98.35 178.09 98.54 182.17 L 91.86 182.17 C 92.04 178.09 92.51 174.44 93.17 171.7 C 93.6 169.91 94.11 168.51 94.58 167.67 C 94.89 167.12 95.11 166.93 95.2 166.86 Z M 91.86 189.67 L 98.54 189.67 C 98.35 193.76 97.88 197.41 97.22 200.15 C 96.8 201.93 96.28 203.34 95.81 204.18 C 95.5 204.73 95.28 204.91 95.2 204.99 C 95.11 204.91 94.89 204.73 94.58 204.18 C 94.11 203.34 93.6 201.93 93.17 200.15 C 92.51 197.41 92.04 193.76 91.86 189.67 Z M 11.72 0 C 5.27 0 0 5.27 0 11.72 L 0 67.91 C 0 74.36 5.27 79.63 11.72 79.63 L 179.27 79.63 C 185.72 79.63 190.99 74.36 190.99 67.91 L 190.99 11.72 C 190.99 5.27 185.72 0 179.27 0 Z M 11.72 5.29 L 179.27 5.29 C 182.88 5.29 185.7 8.11 185.7 11.72 L 185.7 67.91 C 185.7 71.52 182.88 74.34 179.27 74.34 L 11.72 74.34 C 8.11 74.34 5.29 71.52 5.29 67.91 L 5.29 11.72 C 5.29 8.11 8.11 5.29 11.72 5.29 Z M 11.72 87.37 C 5.27 87.37 0 92.64 0 99.09 L 0 267.55 C 0 273.99 5.27 279.26 11.72 279.26 L 179.27 279.26 C 185.72 279.26 190.99 273.99 190.99 267.55 L 190.99 99.09 C 190.99 92.64 185.72 87.37 179.27 87.37 Z M 11.72 92.66 L 179.27 92.66 C 182.88 92.66 185.7 95.48 185.7 99.09 L 185.7 267.55 C 185.7 271.15 182.88 273.97 179.27 273.97 L 11.72 273.97 C 8.11 273.97 5.29 271.15 5.29 267.55 L 5.29 99.09 C 5.29 95.48 8.11 92.66 11.72 92.66 Z" fill="var(--icon-primary, #dae8fc)" stroke="none" stroke-width="0"/></svg>