<svg xmlns="http://www.w3.org/2000/svg" viewBox="0 0 721.85 725.26" width="721.85" height="725.26"><path d="M 447.58 123.59 C 431.84 123.33 416.8 129.58 406.25 139.76 L 158 360.26 C 140.95 376.87 135.36 447.12 132.19 483.26 C 131.16 495.17 132.16 498.25 136.44 503.76 L 153.94 524.63 C 127.59 549.38 111.77 576.06 103.86 606.88 C 102.18 612.94 105.79 621.73 114.15 623.85 C 126.04 626.16 133.79 620.62 136.5 611.76 C 148.84 574.14 169.25 547.08 209.25 526.88 C 216.07 523.23 222.55 513.57 216 502.13 C 210.74 494.12 203.72 491.06 197.75 494.51 C 188.28 499.05 180.27 504.22 173.12 509.76 C 173.35 502.89 177.42 495.74 188.62 488.63 C 199.29 481.68 212.99 485.11 221.25 494.38 C 231.17 505.84 229.62 519.84 220.88 529.88 C 213.37 537.72 208.63 538.33 200 538.13 L 182.05 555.72 L 199.01 573.79 C 206.59 581.46 210.25 583.26 226 583.26 C 259.79 584.78 291.13 583.63 319.73 579.49 C 335.03 576.9 343.2 574.98 356.11 563.38 L 605.35 341.79 C 626.43 320.78 625.1 285.15 600.36 261.49 L 488.25 141.26 C 475.89 129.11 461.46 123.82 447.58 123.59 Z M 427.53 156.32 C 434.37 156.32 441.18 159.1 446.16 164.57 L 571.68 302.54 C 581.06 312.85 580.31 328.69 570 338.07 L 352.88 535.62 C 342.57 545 326.72 544.25 317.34 533.94 L 191.82 395.97 C 182.44 385.67 183.19 369.82 193.5 360.44 L 410.62 162.89 C 415.45 158.5 421.5 156.33 427.53 156.32 Z M 406 234.22 A 3.78 3.78 0 0 0 404.45 241.5 C 400.31 241.32 395.72 240.75 389.94 239.52 A 3.78 3.78 0 1 0 388.37 246.91 C 400.69 249.52 409.63 249.83 417.82 247.53 C 431.87 252.68 441.21 253.64 452.39 258.01 A 3.78 3.78 0 1 0 455.13 250.97 C 442.7 246.11 433.5 245.4 419.66 240.2 C 415.9 238.42 412.26 236.14 407.11 234.43 A 3.78 3.78 0 0 0 406 234.22 Z M 381.93 248.42 A 3.78 3.78 0 0 0 380.99 248.52 C 369.57 251.15 363.1 255.72 358.26 258.94 A 3.78 3.78 0 1 0 362.44 265.23 C 367.35 261.97 372.4 258.41 382.2 256.06 C 385.11 256.15 387.02 256.91 389.52 257.27 C 381.83 260.69 373.64 264.12 367.81 267.51 A 3.78 3.78 0 1 0 371.61 274.04 C 379.72 269.33 390.34 264.59 403.02 259.26 C 414.48 257.83 422.93 256.27 429.94 260.58 A 3.78 3.78 0 1 0 433.9 254.14 C 423.97 248.04 413.22 250.37 401.96 251.78 C 396.21 249.98 389.81 248.63 381.93 248.42 Z M 349.7 253.53 A 3.78 3.78 0 0 0 348.34 253.79 C 325.73 262.24 302.81 287.73 292.28 325.79 A 3.78 3.78 0 0 0 292.26 325.87 C 286.73 347.75 283.95 379.35 304.78 406.36 A 3.78 3.78 0 0 0 304.84 406.45 C 319.23 423.98 339.01 431.9 354.18 432.22 A 3.78 3.78 0 1 0 354.34 424.67 C 341.75 424.4 323.65 417.4 310.74 401.71 C 291.9 377.24 294.33 348.55 299.58 327.77 C 309.59 291.64 331.56 268.14 350.99 260.87 A 3.78 3.78 0 0 0 349.7 253.53 Z M 443.1 258.78 C 442.67 258.78 442.25 258.8 441.82 258.83 L 441.82 258.83 A 3.78 3.78 0 1 0 442.38 266.37 C 445.97 266.1 451.47 268.46 456.65 272.3 C 459.25 274.23 460.95 276.54 463.19 278.81 C 455.27 277.6 448.08 273.8 435.47 265.55 L 435.55 265.61 C 427.84 260.25 415.99 260.82 403.99 263.47 C 391.99 266.11 379.86 271.23 372.14 278.1 A 3.78 3.78 0 1 0 377.17 283.75 C 383.25 278.33 394.63 273.27 405.62 270.85 C 416.6 268.43 427.23 269.04 431.24 271.82 A 3.78 3.78 0 0 0 431.33 271.88 C 448.48 283.1 458.29 287.26 471.96 286.74 A 3.78 3.78 0 0 0 473.63 286.71 C 478.46 285.86 483.85 287.27 489.91 288.7 A 3.78 3.78 0 1 0 491.64 281.34 C 486.4 280.1 480.53 278.7 474.27 279.29 C 470.85 274.96 466.46 270.16 461.15 266.22 C 455.61 262.11 449.47 258.77 443.1 258.78 Z M 469.56 259.81 A 3.78 3.78 0 0 0 467.07 266.35 C 471 270.11 475.46 272.37 479.78 274.1 A 3.78 3.78 0 1 0 482.59 267.08 C 478.7 265.52 475.25 263.72 472.29 260.89 A 3.78 3.78 0 0 0 469.56 259.81 Z M 351.83 264.32 A 3.78 3.78 0 0 0 349.5 265.17 C 327.13 282.97 298.1 309.11 299.03 361.82 A 3.78 3.78 0 0 0 299.05 362.15 C 300.72 378.44 308.41 392.31 316.66 402.31 C 320.79 407.31 325.06 411.34 328.91 414.27 C 332.76 417.2 335.86 419.13 339.29 419.6 A 3.78 3.78 0 0 0 339.71 419.63 C 356.54 420.04 366.13 424.79 371.55 429.95 A 3.78 3.78 0 0 0 373.59 430.95 C 397.51 434.64 421.76 430.27 441.08 421.63 A 3.78 3.78 0 1 0 437.99 414.73 C 420.08 422.74 397.29 426.83 375.16 423.51 C 368.11 417.43 357.22 412.6 340.31 412.11 C 339.87 412.05 336.8 410.78 333.48 408.26 C 330.16 405.73 326.26 402.06 322.49 397.5 C 314.99 388.41 308.09 375.79 306.59 361.48 C 305.8 311.68 332.15 288.64 354.21 271.09 A 3.78 3.78 0 0 0 351.83 264.32 Z M 411.56 271.63 C 409.63 271.63 407.64 271.72 405.58 271.92 A 3.78 3.78 0 0 0 405.23 271.96 C 395.08 273.9 381.62 281.88 369.06 290.33 C 356.49 298.78 345.46 307.47 341.09 311.9 A 3.78 3.78 0 0 0 340.97 312.03 C 332.94 320.92 328.11 328.4 326.19 336.77 C 324.26 345.14 325.32 353.92 328.06 365.27 A 3.78 3.78 0 0 0 328.09 365.37 C 333.17 384.04 345.93 393.94 356.73 399.65 L 348.36 400.15 C 341.58 398.59 333.37 392.04 327.5 386.18 A 3.78 3.78 0 1 0 322.16 391.52 C 328.47 397.83 337.16 405.54 347.02 407.66 A 3.78 3.78 0 0 0 348.04 407.74 L 373.01 406.25 C 411.54 412.31 443.26 394.73 467.34 387.44 A 3.78 3.78 0 1 0 465.14 380.21 C 439.58 387.95 409.62 404.55 373.76 398.74 C 367.52 397.09 342.49 389.32 335.41 363.44 C 332.78 352.56 332.03 345.1 333.55 338.47 C 335.08 331.85 338.94 325.57 346.52 317.17 C 349.78 313.86 361.05 304.82 373.28 296.61 C 385.47 288.41 399.19 280.88 406.52 279.44 C 415.3 278.63 422.08 280.14 428.17 282.59 C 402.12 283.73 384.78 293.48 372.91 304.01 A 3.78 3.78 0 1 0 377.92 309.66 C 391.06 298.02 409.1 287.12 442.06 289.91 C 460.77 294.53 468.15 298.73 473.43 302.78 C 478.75 306.85 482.71 311.55 493.05 315.77 A 3.78 3.78 0 1 0 495.9 308.76 C 486.71 305.02 484.07 301.4 478.02 296.77 C 472.06 292.21 463.23 287.41 444.15 282.66 A 3.78 3.78 0 0 0 443.82 282.54 C 435.27 276.39 425.04 271.65 411.56 271.63 Z M 361.43 272.83 A 3.78 3.78 0 0 0 359.37 273.38 C 347.36 280.47 334.59 292.25 322.06 313.42 A 3.78 3.78 0 0 0 321.97 313.58 C 307.1 341.52 311.11 365.82 318 380.21 A 3.78 3.78 0 1 0 324.81 376.94 C 318.85 364.5 314.9 343.03 328.61 317.21 C 340.61 296.96 352.33 286.31 363.21 279.89 A 3.78 3.78 0 0 0 361.43 272.83 Z M 364.8 282.66 A 3.78 3.78 0 0 0 364.41 282.67 A 3.78 3.78 0 0 0 362.73 283.18 C 357.84 285.94 352.91 290.03 348.11 294.21 A 3.78 3.78 0 1 0 353.08 299.91 C 357.76 295.82 362.48 291.99 366.44 289.76 A 3.78 3.78 0 0 0 364.8 282.66 Z M 479.4 287.64 A 3.78 3.78 0 0 0 477.63 294.68 C 480.87 296.64 484.05 297.77 486.57 298.8 C 489.09 299.82 490.83 300.76 491.63 301.65 A 3.78 3.78 0 1 0 497.26 296.62 C 494.99 294.08 492.14 292.9 489.41 291.79 C 486.69 290.69 483.99 289.69 481.56 288.21 A 3.78 3.78 0 0 0 479.4 287.64 Z M 432.16 297.05 C 410.22 297.09 396.8 303.71 382.8 313.07 A 3.78 3.78 0 0 0 382.66 313.17 C 374.51 319.15 366.43 324.51 360.41 330.72 C 354.41 336.9 350.44 344.52 351.95 353.5 C 353.61 366.22 365.28 380.26 384.14 381.13 A 3.78 3.78 0 0 0 384.31 381.14 C 389.58 381.14 395.85 381.37 401.34 382.31 C 404.54 382.85 406.13 384.08 408.38 385.09 C 404.46 387.53 400.86 388.85 395.43 389.14 A 3.78 3.78 0 0 0 395.25 389.15 C 375.94 391.08 363.23 383.86 353.17 370.29 C 348.1 361.94 345.46 353.49 346.95 344.94 C 348.45 336.34 354.15 327.15 367.29 317.47 A 3.78 3.78 0 0 0 362.8 311.38 C 348.64 321.81 341.41 332.72 339.5 343.64 C 337.6 354.57 341.08 365.02 346.79 374.38 A 3.78 3.78 0 0 0 346.97 374.65 C 358.17 389.83 374.27 398.8 395.91 396.67 C 404.04 396.23 410.26 393.9 417.45 388.02 A 3.78 3.78 0 0 0 419.3 386.58 C 425.08 379.66 431.22 373.33 443.27 367.86 C 456.13 363.98 470.71 364.25 476.6 365.97 A 3.78 3.78 0 1 0 478.7 358.7 C 470.2 356.23 455.25 356.26 440.83 360.67 A 3.78 3.78 0 0 0 440.39 360.84 C 428.25 366.3 421.28 373.04 415.5 379.68 C 411.76 377.27 407.41 375.67 402.61 374.85 C 396.4 373.8 389.8 373.58 384.31 373.58 L 384.49 373.58 C 369.23 372.88 360.56 361.32 359.43 352.49 A 3.78 3.78 0 0 0 359.4 352.32 C 358.3 345.96 360.69 341.28 365.83 335.98 C 370.95 330.71 378.76 325.41 387.03 319.35 C 400.57 310.3 411.69 304.65 432.13 304.61 C 442.09 304.79 447.72 306.8 453.12 308.9 C 458.52 311.01 463.95 313.39 471.83 313.26 A 3.78 3.78 0 1 0 471.7 305.7 C 465.34 305.81 461.46 304.04 455.87 301.86 C 450.28 299.68 443.23 297.24 432.23 297.05 A 3.78 3.78 0 0 0 432.16 297.05 Z M 427.53 309.18 C 423.52 309.2 419.35 309.58 415.48 310.5 A 3.78 3.78 0 0 0 415.4 310.52 C 402.59 313.87 395.25 318.88 390.66 323.37 C 388.36 325.61 386.75 327.69 385.51 329.17 C 384.28 330.64 383.46 331.33 383.13 331.48 L 383.31 331.41 C 379 333.08 375.66 335.37 373.83 338.73 C 372 342.08 372.15 346.11 373.61 349.79 A 3.78 3.78 0 0 0 373.76 350.13 C 376.11 354.66 379.38 358.3 384.05 359.49 C 388.46 360.62 393.37 359.51 399.29 357.12 C 420.73 360.28 432.58 353.63 443.09 351.36 A 3.78 3.78 0 0 0 443.17 351.33 C 459.29 347.5 469.42 347.5 479.91 351.86 A 3.78 3.78 0 1 0 482.81 344.88 C 470.67 339.83 458.3 339.98 441.5 343.97 C 441.49 343.97 441.48 343.97 441.47 343.97 C 429.03 346.67 419.71 352.88 399.41 349.58 A 3.78 3.78 0 0 0 397.33 349.84 C 391.6 352.26 388 352.7 385.92 352.17 C 383.9 351.65 382.42 350.17 380.63 346.8 C 379.84 344.7 379.86 343.45 380.46 342.34 C 381.09 341.19 382.71 339.75 386.03 338.46 A 3.78 3.78 0 0 0 386.2 338.39 C 388.54 337.35 389.94 335.66 391.31 334.02 C 392.69 332.38 394.05 330.62 395.94 328.78 C 399.72 325.09 405.56 320.92 417.26 317.86 C 422.22 316.69 428.6 316.54 433.79 317.02 C 436.39 317.27 438.71 317.66 440.35 318.09 C 441.99 318.51 443.06 319.57 442.18 318.53 A 3.78 3.78 0 0 0 442.42 318.8 C 449.4 325.6 458.51 325.39 466.68 325.52 C 474.85 325.64 482.38 325.96 489.37 331.67 A 3.78 3.78 0 1 0 494.14 325.81 C 485.15 318.47 475.1 318.09 466.79 317.96 C 458.49 317.83 452.24 317.82 447.7 313.39 L 447.94 313.65 C 446.06 311.43 444.44 311.34 442.25 310.77 C 440.06 310.2 437.42 309.77 434.49 309.49 C 432.29 309.29 429.94 309.17 427.53 309.18 Z M 287.19 318.29 A 3.78 3.78 0 0 0 284.16 320.09 C 278.02 329.75 276.91 334.67 275.89 348.8 C 275.77 350.45 274.36 352.16 272.09 354.67 C 269.82 357.18 266.71 360.61 266.69 365.67 A 3.78 3.78 0 0 0 266.69 365.75 C 266.94 382.66 273.25 404.1 283.51 414.49 A 3.78 3.78 0 0 0 283.64 414.61 C 292.13 422.4 295.43 428.98 299.65 434.99 C 303.67 440.69 309.26 445.54 319.25 448.19 A 3.78 3.78 0 0 0 321.24 448.88 C 321.24 448.88 321.25 448.88 321.25 448.88 C 335.75 452.14 348.12 452.38 361.42 458.57 A 3.78 3.78 0 1 0 364.61 451.71 C 350.04 444.94 337.04 444.55 323.65 441.64 C 320.87 438.37 319.62 436.01 318.67 433.11 C 317.64 429.95 316.55 425.81 313.41 420.29 C 311.39 416.12 307.9 414.04 304.09 410.41 C 300.27 406.76 295.77 401.68 291.28 392.61 C 288.31 385.77 285.92 375.41 285.74 365.71 A 3.78 3.78 0 1 0 278.18 365.85 C 278.38 376.68 280.88 387.71 284.38 395.71 A 3.78 3.78 0 0 0 284.45 395.88 C 289.37 405.82 294.62 411.82 298.87 415.87 C 303.12 419.93 305.99 422.23 306.65 423.62 A 3.78 3.78 0 0 0 306.79 423.88 C 309.59 428.76 310.32 431.88 311.49 435.46 C 311.68 436.06 312.06 436.74 312.29 437.36 C 309.69 435.58 307.8 433.42 305.84 430.64 C 302.1 425.32 298.12 417.66 288.83 409.12 C 281.49 401.61 274.49 380.55 274.25 365.7 C 274.27 363.76 275.51 362.16 277.69 359.75 C 279.88 357.33 283.06 354.24 283.43 349.36 A 3.78 3.78 0 0 0 283.43 349.35 C 284.44 335.37 284.71 333.32 290.54 324.15 A 3.78 3.78 0 0 0 287.2 318.29 Z M 424.52 318.74 C 422.11 318.72 419.56 319.12 416.88 320.12 A 3.78 3.78 0 0 0 416.67 320.21 C 408.83 323.71 404.23 326.7 401.27 329.9 C 399.08 332.26 398.56 334.54 397.86 336.75 C 392.02 337.6 387.67 339.05 384.88 342.24 A 3.78 3.78 0 1 0 390.56 347.22 C 392.01 345.57 394.28 344.58 400.37 343.89 A 3.78 3.78 0 0 0 401.13 343.8 C 409.91 344.94 417.72 343.25 424.96 341.09 C 432.58 338.82 439.74 336.31 447.66 335.9 C 447.68 335.9 447.69 335.89 447.71 335.89 C 447.73 335.89 447.75 335.89 447.77 335.89 C 454.99 336.62 462.57 336.49 469.03 337.01 C 475.65 337.53 480.78 338.92 483.22 341.39 A 3.78 3.78 0 1 0 488.61 336.08 C 483.82 331.23 476.83 330.04 469.63 329.47 C 462.59 328.91 455.06 329.03 448.48 328.37 C 443.96 326.91 439.97 323.98 435.16 321.53 C 432.72 320.29 429.93 319.27 426.87 318.89 C 426.1 318.8 425.32 318.74 424.52 318.74 Z M 424.6 326.16 C 425.1 326.15 425.58 326.18 426.05 326.24 C 427.95 326.49 429.73 327.25 431.74 328.27 C 432.8 328.81 434.48 329.55 435.63 330.24 C 431.12 331.33 426.85 332.64 422.81 333.85 C 417.17 335.53 411.78 336.41 406.18 336.37 C 406.46 335.96 406.39 335.5 406.81 335.04 C 408.66 333.05 412.41 330.43 419.62 327.19 C 421.51 326.49 423.12 326.17 424.6 326.16 Z M 365.52 343.48 A 3.78 3.78 0 0 0 362.08 348.76 L 365.62 357.25 A 3.78 3.78 0 1 0 372.6 354.34 L 369.06 345.86 A 3.78 3.78 0 0 0 365.52 343.48 Z M 421.63 358.07 A 3.78 3.78 0 0 0 420.26 358.3 C 410.71 361.69 389.14 364.38 376.51 359.11 A 3.78 3.78 0 1 0 373.6 366.08 C 389.56 372.74 411.34 369.48 422.79 365.43 A 3.78 3.78 0 0 0 421.63 358.07 Z M 473.18 368.8 A 3.78 3.78 0 0 0 472.54 368.84 C 466.54 369.67 463.13 370.76 452.82 371.46 A 3.78 3.78 0 0 0 452.72 371.48 C 442.05 372.51 435.33 376.61 430.06 380.75 A 3.78 3.78 0 1 0 434.73 386.69 C 439.54 382.91 444.29 379.88 453.44 379 C 464.09 378.27 468.13 377.07 473.56 376.33 A 3.78 3.78 0 0 0 473.18 368.8 Z M 263.02 375.12 A 3.78 3.78 0 0 0 259.47 379.47 C 262.08 398.27 270.39 412.09 278.2 422.87 C 278.03 422.8 277.76 422.76 277.6 422.69 C 274.63 421.4 272.84 420.05 271.82 417.19 A 3.78 3.78 0 1 0 264.7 419.73 C 266.53 424.84 270.57 427.89 274.59 429.63 C 278.28 431.22 282.01 432 285.3 432.98 C 289.4 436.87 291.86 441.09 295.62 445.57 C 299.53 450.23 305.03 454.76 314.65 457.86 A 3.78 3.78 0 1 0 316.96 450.66 C 308.5 447.94 304.71 444.66 301.4 440.71 C 298.34 437.06 295.46 432.45 290.8 427.89 A 3.78 3.78 0 0 0 290.24 427.11 C 281.76 416.94 269.98 400.24 266.96 378.43 A 3.78 3.78 0 0 0 263.39 375.12 A 3.78 3.78 0 0 0 263.02 375.12 Z M 260.51 396.95 A 3.78 3.78 0 0 0 256.86 401.52 L 258.19 408.15 A 3.78 3.78 0 1 0 265.6 406.67 L 264.27 400.04 A 3.78 3.78 0 0 0 260.51 396.95 Z M 449.48 399.02 A 3.78 3.78 0 0 0 448.11 399.25 L 409.59 412.78 L 377.13 410.71 A 3.78 3.78 0 1 0 376.65 418.25 L 409.88 420.38 A 3.78 3.78 0 0 0 411.37 420.17 L 450.62 406.38 A 3.78 3.78 0 0 0 449.48 399.02 Z M 322.8 426.13 A 3.78 3.78 0 0 0 320.97 433.25 C 326.22 436.12 333.28 438.94 340.02 440.85 C 343.39 441.8 346.66 442.51 349.63 442.86 C 352.6 443.2 355.23 443.29 357.8 442.34 A 3.78 3.78 0 0 0 357.81 442.34 C 363.91 440.06 367.22 439.23 370.09 439.34 C 372.97 439.46 376.05 440.56 381.65 443.03 C 384.03 444.08 386.3 444.02 388.81 443.89 C 391.31 443.76 393.96 443.38 396.44 442.94 C 401.4 442.06 405.68 440.9 405.68 440.9 A 3.78 3.78 0 1 0 403.71 433.61 C 403.71 433.61 399.69 434.69 395.12 435.5 C 392.83 435.91 390.41 436.24 388.41 436.34 C 386.42 436.45 384.77 436.14 384.7 436.11 C 378.95 433.58 374.92 431.97 370.4 431.79 C 365.88 431.61 361.52 432.88 355.17 435.25 C 354.73 435.41 352.88 435.62 350.49 435.35 C 348.11 435.07 345.16 434.44 342.08 433.57 C 335.91 431.82 329.14 429.1 324.61 426.62 A 3.78 3.78 0 0 0 322.8 426.13 Z M 278.26 433.48 A 3.78 3.78 0 0 0 276.26 440.55 C 279.33 442.33 281.28 442.69 282.42 445.57 A 3.78 3.78 0 1 0 289.45 442.79 C 287.14 436.93 281.76 435.01 280.06 434.02 A 3.78 3.78 0 0 0 278.26 433.48 Z M 363.98 441.55 A 3.78 3.78 0 0 0 364.13 449.11 C 368.88 449.25 373.5 451.84 380.66 451.22 A 3.78 3.78 0 1 0 380.01 443.69 C 375.22 444.11 371.15 441.76 364.37 441.55 A 3.78 3.78 0 0 0 363.98 441.55 Z M 327 451.36 A 3.78 3.78 0 0 0 326.68 458.88 L 339.05 460.65 A 3.78 3.78 0 1 0 340.12 453.17 L 327.75 451.4 A 3.78 3.78 0 0 0 327 451.36 Z M 44.28 20 L 677.57 20 C 691.2 20 701.86 30.66 701.86 44.28 L 701.86 680.96 C 701.86 694.59 691.2 705.25 677.57 705.25 L 44.28 705.25 C 30.66 705.25 20 694.59 20 680.96 L 20 44.28 C 20 30.66 30.66 20 44.28 20 Z M 44.28 0 C 19.92 0 0 19.92 0 44.28 L 0 680.96 C 0 705.33 19.92 725.26 44.28 725.26 L 677.57 725.26 C 701.93 725.26 721.85 705.33 721.85 680.96 L 721.85 44.28 C 721.85 19.92 701.93 0 677.57 0 Z" fill="var(--icon-primary, #dae8fc)" stroke="none" stroke-width="0"/></svg>