<svg xmlns="http://www.w3.org/2000/svg" viewBox="0 0 718.73 707.63" width="718.73" height="707.63"><path d="M 359.29 0 C 312.03 0 273.61 38.42 273.61 85.68 C 273.61 106.77 281.27 126.08 293.94 141.02 L 140.69 293.94 C 125.8 281.45 106.61 273.9 85.68 273.9 C 38.42 273.9 0 312.32 0 359.58 C 0 406.85 38.42 445.27 85.68 445.27 C 106.47 445.27 125.55 437.82 140.4 425.47 L 288.81 573.29 C 279.24 587.12 273.61 603.88 273.61 621.96 C 273.61 669.22 312.02 707.63 359.29 707.63 C 406.55 707.63 444.97 669.22 444.97 621.96 C 444.97 603.91 439.35 587.16 429.8 573.34 L 577.97 425.17 C 592.88 437.7 612.09 445.27 633.05 445.27 C 680.31 445.27 718.73 406.85 718.73 359.58 C 718.73 312.32 680.31 273.9 633.05 273.9 C 612.05 273.9 592.81 281.5 577.9 294.07 L 424.64 141.01 C 437.31 126.08 444.96 106.77 444.96 85.68 C 444.96 38.42 406.56 0 359.29 0 Z M 359.29 9.45 C 401.45 9.45 435.52 43.52 435.52 85.68 C 435.52 127.84 401.45 161.91 359.29 161.91 C 317.13 161.91 283.06 127.84 283.06 85.68 C 283.06 43.52 317.13 9.45 359.29 9.45 Z M 359.13 46.85 C 345.85 46.85 334.89 57.1 334.89 69.54 C 334.89 79.27 341.29 85.9 347.89 90.92 C 329.14 96.37 318.76 111.33 318.76 127.58 L 399.08 127.59 C 399.08 114.34 392.38 96.89 371.14 91.05 C 377.73 87.02 383.45 79.93 383.45 70.65 C 383.45 57.19 373.3 46.85 359.13 46.85 Z M 419.51 146.57 L 572.33 299.18 C 556.91 314.68 547.37 336.03 547.37 359.58 C 547.37 383.17 556.94 404.55 572.4 420.05 L 425.19 567.25 C 409.47 548.34 385.77 536.27 359.29 536.27 C 332.83 536.27 309.15 548.32 293.42 567.21 L 146.01 420.38 C 161.66 404.85 171.36 383.34 171.36 359.58 C 171.36 335.97 161.77 314.56 146.27 299.05 L 299.07 146.57 C 314.56 161.89 335.83 171.36 359.29 171.36 C 382.75 171.36 404.03 161.89 419.51 146.57 Z M 85.68 283.35 C 127.84 283.35 161.92 317.43 161.92 359.58 C 161.92 401.74 127.84 435.82 85.68 435.82 C 43.52 435.82 9.45 401.74 9.45 359.58 C 9.45 317.43 43.52 283.35 85.68 283.35 Z M 633.05 283.35 C 675.21 283.35 709.28 317.43 709.28 359.58 C 709.28 401.74 675.21 435.82 633.05 435.82 C 590.89 435.82 556.82 401.74 556.82 359.58 C 556.82 317.43 590.89 283.35 633.05 283.35 Z M 633.65 303.07 C 617.8 303.07 606.65 314.81 606.65 326.43 L 606.65 349.18 L 590.69 349.18 L 590.69 404.23 L 676.01 404.23 L 676.01 349.18 L 660.66 349.18 L 660.66 326.43 C 660.66 320.44 657.17 314.84 652.27 310.52 C 647.37 306.19 640.79 303.07 633.65 303.07 Z M 85.36 309.62 C 58.28 309.62 36.25 331.65 36.25 358.73 C 36.25 385.8 58.28 407.83 85.36 407.83 C 112.43 407.83 134.47 385.8 134.47 358.73 C 134.47 331.65 112.43 309.62 85.36 309.62 Z M 633.65 310.63 C 638.52 310.63 643.56 312.91 647.27 316.19 C 650.98 319.46 653.1 323.66 653.1 326.43 L 653.1 349.18 L 614.21 349.18 L 614.21 326.43 C 614.21 319.99 621.6 310.63 633.65 310.63 Z M 472.55 316.1 C 457.98 316.1 446.44 320.19 437.93 328.35 C 429.41 336.47 425.15 347.53 425.15 361.51 C 425.15 375.46 429.41 386.51 437.93 394.68 C 446.44 402.8 457.98 406.87 472.55 406.87 C 477.44 406.87 482.12 406.32 486.62 405.22 C 491.11 404.13 495.43 402.51 499.57 400.36 L 499.57 382.26 C 495.39 385.11 491.27 387.2 487.2 388.53 C 483.14 389.85 478.86 390.52 474.37 390.52 C 466.32 390.52 460 387.94 455.39 382.78 C 450.78 377.63 448.47 370.54 448.47 361.51 C 448.47 352.45 450.78 345.34 455.39 340.19 C 460 335.03 466.32 332.45 474.37 332.45 C 478.86 332.45 483.14 333.12 487.2 334.44 C 491.27 335.77 495.39 337.86 499.57 340.71 L 499.57 322.61 C 495.43 320.46 491.11 318.84 486.62 317.74 C 482.12 316.65 477.44 316.1 472.55 316.1 Z M 83.25 317.23 L 83.25 328.37 A 2.83 2.83 0 1 0 88.92 328.37 L 88.92 317.34 C 98.04 318.11 106.3 321.8 112.78 327.49 L 105.4 334.87 A 2.83 2.83 0 1 0 109.41 338.88 L 116.77 331.51 C 122.42 338.03 126.07 346.33 126.77 355.48 L 117.25 355.48 A 2.83 2.83 0 0 0 117.25 361.15 L 126.83 361.15 C 125.58 383.01 107.54 400.27 85.36 400.27 C 63.18 400.27 45.14 383.01 43.89 361.15 L 54.92 361.15 A 2.83 2.83 0 1 0 54.92 355.48 L 43.95 355.48 C 44.66 346.25 48.36 337.88 54.1 331.34 L 61.64 338.88 A 2.83 2.83 0 1 0 65.65 334.87 L 58.12 327.34 C 64.91 321.44 73.64 317.7 83.25 317.23 Z M 239.42 317.69 L 207.01 405.17 L 229.69 405.17 L 235.26 389.23 L 270.53 389.23 L 276.04 405.17 L 298.71 405.17 L 266.31 317.69 Z M 306.75 317.69 L 306.75 405.17 L 329.3 405.17 L 329.3 374.81 L 344.19 374.81 C 355.32 374.81 363.86 372.35 369.79 367.43 C 375.77 362.47 378.76 355.4 378.76 346.22 C 378.76 337.08 375.77 330.05 369.79 325.13 C 363.86 320.17 355.32 317.69 344.19 317.69 Z M 392.22 317.69 L 392.22 405.17 L 414.78 405.17 L 414.78 317.69 Z M 329.3 334.03 L 341.79 334.03 C 346.16 334.03 349.54 335.09 351.92 337.2 C 354.3 339.31 355.5 342.31 355.5 346.22 C 355.5 350.13 354.3 353.15 351.92 355.3 C 349.54 357.41 346.16 358.47 341.79 358.47 L 329.3 358.47 Z M 252.89 338.19 L 264.85 373 L 240.88 373 Z M 103.7 343.27 L 98.58 345.03 L 85.76 372.24 A 7.91 7.91 0 0 0 85.74 372.24 A 7.91 7.91 0 0 0 77.84 380.15 A 7.91 7.91 0 0 0 85.74 388.06 A 7.91 7.91 0 0 0 93.65 380.15 A 7.91 7.91 0 0 0 92.81 376.6 L 105.75 348.04 Z M 75.46 382.08 C 71.05 383.15 66.59 385.9 62.58 388.22 C 67.96 391.77 74.68 396.06 84.8 396.06 C 95.54 396.06 102.92 392.42 109.4 388.53 C 105.09 386.28 100.78 383.17 95.94 382.13 C 95.12 387.09 89.96 390.77 85.01 390.77 C 80.8 390.77 75.8 387.37 75.46 382.08 Z M 359.29 545.72 C 401.44 545.72 435.52 579.8 435.52 621.96 C 435.52 664.11 401.44 698.19 359.29 698.19 C 317.13 698.19 283.05 664.11 283.05 621.96 C 283.05 579.8 317.13 545.72 359.29 545.72 Z M 350.46 568.21 A 5.67 5.67 0 1 0 350.46 579.55 L 352.98 579.55 L 352.98 587.28 C 330.84 590.33 313.71 609.39 313.71 632.35 C 313.71 657.43 334.14 677.87 359.22 677.87 C 384.3 677.87 404.73 657.43 404.73 632.35 C 404.73 608.99 387.01 589.67 364.31 587.13 L 364.31 579.55 L 367.52 579.55 A 5.67 5.67 0 1 0 367.52 568.21 Z M 359.22 596.29 C 379.19 596.29 395.28 612.37 395.28 632.35 C 395.28 652.32 379.19 668.42 359.22 668.42 C 339.25 668.42 323.16 652.32 323.16 632.35 C 323.16 612.37 339.25 596.29 359.22 596.29 Z M 360.76 626.56 C 359.38 626.62 358.04 627.13 357.13 627.82 C 354.52 629.87 354.52 632.95 356.63 635.11 L 378.3 656.35 L 380.47 654.26 L 365.51 629.1 C 364.39 627.15 362.54 626.49 360.76 626.56 Z" fill="var(--icon-primary, #dae8fc)" stroke="none" stroke-width="0"/></svg>