<svg xmlns="http://www.w3.org/2000/svg" viewBox="0 0 438.49 432.45" width="438.49" height="432.45"><path d="M 277.82 0 L 438.49 158.82 C 418.71 177.11 413.3 198.77 412.27 221.47 C 415.16 247.35 424.5 265.51 438.49 278.08 L 283.45 432.45 C 272.56 418.2 254.37 403.26 224.87 398.89 C 190.64 400.01 170.63 414.17 155.12 432.45 L 0 279.1 C 13.43 263.98 25.17 247.16 26.2 219.64 C 25.87 199.04 21.34 178.43 0 157.83 L 159.83 0 C 175.88 16.44 195.39 24.78 218.1 25.67 C 242.2 26.11 261.47 16.19 277.82 0 Z" fill="var(--icon-primary, #dae8fc)" stroke="none" stroke-width="0"/></svg>