<svg xmlns="http://www.w3.org/2000/svg" viewBox="0 0 938.03 725.26" width="938.03" height="725.26"><path d="M 475.84 154.52 C 375.54 154.52 293.78 236.28 293.78 336.58 C 293.78 380.06 309.14 420.04 334.71 451.4 L 231.99 557.61 L 275.46 599.65 L 380.17 491.38 C 408 508.66 440.79 518.65 475.84 518.65 C 576.15 518.65 657.91 436.89 657.91 336.58 C 657.91 236.28 576.15 154.52 475.84 154.52 Z M 184.78 195.37 L 110.97 247.88 L 184.78 300.4 L 184.78 264.66 L 269.45 264.66 L 269.45 231.1 L 184.78 231.1 Z M 758.67 195.37 L 758.67 231.1 L 674 231.1 L 674 264.66 L 758.67 264.66 L 758.67 300.4 L 832.48 247.88 Z M 475.84 196.09 C 553.68 196.09 616.34 258.75 616.34 336.58 C 616.34 414.42 553.68 477.08 475.84 477.08 C 398.01 477.08 335.35 414.42 335.35 336.58 C 335.35 258.75 398.01 196.09 475.84 196.09 Z M 478.18 227.53 C 447.5 227.53 429.9 252.74 429.9 275.16 L 429.9 313.99 L 397.94 313.99 L 397.94 420.7 L 553.75 420.7 L 553.75 313.99 L 526.46 313.99 L 526.46 275.16 C 526.46 248.21 503.93 227.53 478.18 227.53 Z M 478.18 238.23 C 498.23 238.23 515.76 254.17 515.76 275.16 L 515.76 313.99 L 440.61 313.99 L 440.61 275.16 C 440.61 258.23 453.3 238.23 478.18 238.23 Z M 475.84 347.47 C 481.82 347.47 486.66 352.31 486.66 358.29 C 486.66 362.61 484.09 366.51 480.12 368.21 L 480.12 393.28 L 471.56 393.28 L 471.56 368.22 C 467.59 366.51 465.02 362.61 465.02 358.29 C 465.02 352.31 469.87 347.47 475.84 347.47 Z M 197.05 384.6 L 197.05 420.33 L 112.38 420.33 L 112.38 453.89 L 197.05 453.89 L 197.05 489.62 L 270.87 437.11 Z M 732.79 384.6 L 658.98 437.11 L 732.79 489.62 L 732.79 453.89 L 817.46 453.89 L 817.46 420.33 L 732.79 420.33 Z M 44.28 0 C 19.92 0 0 19.92 0 44.28 L 0 680.96 C 0 705.33 19.92 725.26 44.28 725.26 L 893.74 725.26 C 918.1 725.26 938.03 705.33 938.03 680.96 L 938.03 44.28 C 938.03 19.92 918.1 0 893.74 0 Z M 44.28 20 L 893.74 20 C 907.37 20 918.03 30.66 918.03 44.28 L 918.03 680.96 C 918.03 694.59 907.37 705.25 893.74 705.25 L 44.28 705.25 C 30.66 705.25 20 694.59 20 680.96 L 20 44.28 C 20 30.66 30.66 20 44.28 20 Z" fill="var(--icon-primary, #dae8fc)" stroke="none" stroke-width="0"/></svg>