<svg xmlns="http://www.w3.org/2000/svg" viewBox="0 0 248.19 191.89" width="248.19" height="191.89"><path d="M 48.31 30 C 48.92 32.11 49.85 34.82 51.09 38.11 L 55.18 48.95 L 41.91 48.95 L 46.21 37.47 C 47.11 35 47.82 32.51 48.31 30 Z M 45.64 25.89 L 30.61 65.03 L 36.11 65.03 L 40.41 53.17 L 56.78 53.17 L 61.34 65.03 L 67.24 65.03 L 51.22 25.89 Z M 47.34 77.43 L 44.42 109.82 L 52.41 106.13 L 74.09 153.08 L 171.36 153.29 L 171.39 138.29 L 83.7 138.1 L 66.03 99.84 L 73.88 96.22 Z M 192.84 132.02 L 201.07 132.02 C 204.15 132.02 206.38 132.29 207.77 132.82 C 209.69 133.57 211.32 135.05 212.65 137.26 C 214.01 139.45 214.68 142.59 214.68 146.68 C 214.68 149.64 214.34 152.16 213.64 154.24 C 212.97 156.3 212.01 157.95 210.79 159.18 C 209.91 160.05 208.74 160.73 207.26 161.21 C 205.8 161.69 203.78 161.93 201.2 161.93 L 192.84 161.93 Z M 187.66 127.4 L 187.66 166.55 L 201.79 166.55 C 204.16 166.55 206.25 166.32 208.06 165.88 C 209.9 165.43 211.45 164.78 212.73 163.93 C 214.03 163.06 215.23 161.87 216.31 160.38 C 217.4 158.87 218.29 156.96 218.98 154.66 C 219.68 152.37 220.02 149.73 220.02 146.76 C 220.02 143.27 219.51 140.18 218.48 137.47 C 217.46 134.75 215.92 132.51 213.86 130.77 C 212.27 129.42 210.36 128.48 208.12 127.97 C 206.51 127.59 204.19 127.4 201.15 127.4 Z M 11.72 0 C 5.27 0 0 5.27 0 11.72 L 0 180.17 C 0 186.62 5.27 191.89 11.72 191.89 L 236.47 191.89 C 242.91 191.89 248.19 186.62 248.19 180.17 L 248.19 11.72 C 248.19 5.27 242.91 0 236.47 0 Z M 11.72 5.29 L 236.47 5.29 C 240.07 5.29 242.89 8.11 242.89 11.72 L 242.89 180.17 C 242.89 183.78 240.07 186.6 236.47 186.6 L 11.72 186.6 C 8.11 186.6 5.29 183.78 5.29 180.17 L 5.29 11.72 C 5.29 8.11 8.11 5.29 11.72 5.29 Z" fill="var(--icon-primary, #dae8fc)" stroke="none" stroke-width="0"/></svg>