<svg xmlns="http://www.w3.org/2000/svg" viewBox="0 0 248.19 191.89" width="248.19" height="191.89"><path d="M 43.43 132.35 C 44.03 134.46 44.96 137.17 46.2 140.46 L 50.29 151.3 L 37.02 151.3 L 41.32 139.82 C 42.22 137.35 42.93 134.86 43.43 132.35 Z M 40.76 128.23 L 25.72 167.38 L 31.22 167.38 L 35.52 155.52 L 51.89 155.52 L 56.46 167.38 L 62.36 167.38 L 46.34 128.23 Z M 199.76 77.72 L 202.68 110.1 L 194.69 106.41 L 173.01 153.36 L 75.74 153.58 L 75.71 138.58 L 163.4 138.39 L 181.07 100.13 L 173.22 96.5 Z M 196.3 30.21 L 204.52 30.21 C 207.6 30.21 209.83 30.48 211.22 31.01 C 213.15 31.76 214.77 33.24 216.11 35.44 C 217.46 37.63 218.14 40.77 218.14 44.87 C 218.14 47.82 217.79 50.34 217.1 52.42 C 216.42 54.49 215.47 56.13 214.24 57.36 C 213.37 58.23 212.19 58.91 210.72 59.39 C 209.26 59.87 207.24 60.11 204.65 60.11 L 196.3 60.11 Z M 191.12 25.59 L 191.12 64.73 L 205.24 64.73 C 207.61 64.73 209.7 64.51 211.52 64.06 C 213.35 63.62 214.91 62.97 216.19 62.12 C 217.49 61.24 218.68 60.06 219.77 58.56 C 220.85 57.05 221.74 55.15 222.44 52.85 C 223.13 50.55 223.48 47.92 223.48 44.95 C 223.48 41.46 222.96 38.36 221.93 35.66 C 220.92 32.93 219.38 30.7 217.31 28.95 C 215.73 27.6 213.81 26.67 211.57 26.15 C 209.97 25.78 207.65 25.59 204.6 25.59 Z M 11.72 0 C 5.27 0 0 5.27 0 11.72 L 0 180.17 C 0 186.62 5.27 191.89 11.72 191.89 L 236.47 191.89 C 242.91 191.89 248.19 186.62 248.19 180.17 L 248.19 11.72 C 248.19 5.27 242.91 0 236.47 0 Z M 11.72 5.29 L 236.47 5.29 C 240.07 5.29 242.89 8.11 242.89 11.72 L 242.89 180.17 C 242.89 183.78 240.07 186.6 236.47 186.6 L 11.72 186.6 C 8.11 186.6 5.29 183.78 5.29 180.17 L 5.29 11.72 C 5.29 8.11 8.11 5.29 11.72 5.29 Z" fill="var(--icon-primary, #dae8fc)" stroke="none" stroke-width="0"/></svg>