<svg xmlns="http://www.w3.org/2000/svg" viewBox="0 0 248.19 191.89" width="248.19" height="191.89"><path d="M 124.09 51.93 C 107.24 51.93 93.53 65.64 93.53 82.5 C 93.53 82.85 93.53 83.2 93.55 83.55 L 67.59 113.45 L 48.35 113.44 C 45.22 113.44 43.52 120.43 43.52 126.42 C 43.31 133.95 45.61 139.94 48.39 139.94 L 76.62 139.96 L 76.62 139.96 L 110.83 139.96 L 110.83 135.46 L 83.58 135.46 L 87.4 131.06 L 105.49 131.06 L 105.49 126.56 L 91.3 126.56 L 107.36 108.06 C 112.17 111.22 117.92 113.06 124.09 113.06 C 130.27 113.06 136.02 111.22 140.83 108.06 L 156.88 126.56 L 153.02 126.56 L 153.02 131.06 L 160.79 131.06 L 164.6 135.46 L 158.37 135.46 L 158.37 139.96 L 170.26 139.96 L 170.26 139.96 L 199.79 139.94 C 202.57 139.94 204.88 133.96 204.66 126.42 C 204.66 120.43 202.97 113.44 199.83 113.44 L 180.59 113.45 L 154.64 83.55 C 154.65 83.2 154.66 82.85 154.66 82.5 C 154.66 65.65 140.95 51.93 124.09 51.93 Z M 124.09 56.43 C 129.84 56.43 135.15 58.29 139.46 61.43 C 138.82 61.91 138.23 62.24 137.68 62.42 L 137.68 64.4 C 138.76 64.04 139.7 63.49 140.5 62.75 L 140.5 70.96 L 142.68 70.96 L 142.68 64.2 C 146.28 67.86 148.81 72.59 149.75 77.87 C 149.14 77.12 148.29 76.74 147.21 76.74 C 146.11 76.74 145.25 77.13 144.63 77.9 C 143.89 78.84 143.52 80.38 143.52 82.52 C 143.52 84.7 143.86 86.22 144.53 87.07 C 145.21 87.92 146.1 88.34 147.21 88.34 C 148.28 88.34 149.12 87.97 149.73 87.24 C 149 91.23 147.36 94.91 145.04 98.04 C 144.89 96.74 144.55 95.76 144.02 95.09 C 143.4 94.31 142.54 93.91 141.44 93.91 C 140.34 93.91 139.48 94.3 138.87 95.08 C 138.12 96.02 137.75 97.56 137.75 99.7 C 137.75 101.78 138.06 103.25 138.67 104.12 C 134.51 106.93 129.5 108.56 124.09 108.56 C 119.45 108.56 115.09 107.35 111.32 105.24 C 111.76 105.04 112.13 104.75 112.45 104.36 C 113.19 103.42 113.56 101.87 113.56 99.72 C 113.56 97.57 113.19 96.02 112.45 95.09 C 111.83 94.31 110.97 93.91 109.87 93.91 C 108.77 93.91 107.92 94.3 107.3 95.08 C 106.56 96.02 106.18 97.56 106.18 99.7 C 106.18 100.38 106.22 101 106.29 101.55 C 102.55 98.06 99.84 93.47 98.67 88.28 C 98.88 88.32 99.1 88.34 99.33 88.34 C 100.43 88.34 101.29 87.96 101.9 87.18 C 102.65 86.24 103.02 84.69 103.02 82.54 C 103.02 80.39 102.65 78.85 101.91 77.92 C 101.29 77.13 100.43 76.74 99.33 76.74 C 99.09 76.74 98.87 76.76 98.65 76.8 C 99.86 71.35 102.77 66.54 106.81 62.97 C 106.69 63.63 106.63 64.38 106.63 65.23 C 106.63 67.41 106.97 68.93 107.64 69.78 C 108.32 70.63 109.21 71.05 110.32 71.05 C 111.42 71.05 112.28 70.67 112.89 69.89 C 113.64 68.95 114.01 67.4 114.01 65.25 C 114.01 63.1 113.64 61.56 112.9 60.63 C 112.53 60.16 112.07 59.83 111.53 59.64 C 115.25 57.6 119.53 56.43 124.09 56.43 Z M 130.83 59.45 C 129.73 59.45 128.87 59.84 128.26 60.61 C 127.51 61.55 127.14 63.09 127.14 65.23 C 127.14 67.41 127.48 68.93 128.15 69.78 C 128.83 70.63 129.72 71.05 130.83 71.05 C 131.93 71.05 132.79 70.67 133.4 69.89 C 134.15 68.95 134.52 67.4 134.52 65.25 C 134.52 63.1 134.15 61.56 133.41 60.63 C 132.79 59.84 131.93 59.45 130.83 59.45 Z M 120.81 59.55 C 120.56 60.24 120.1 60.85 119.43 61.37 C 118.77 61.88 118.15 62.24 117.58 62.42 L 117.58 64.4 C 118.66 64.04 119.6 63.49 120.4 62.75 L 120.4 70.96 L 122.57 70.96 L 122.57 59.55 Z M 110.32 61.25 C 110.58 61.25 110.81 61.34 111.02 61.51 C 111.22 61.68 111.39 62.01 111.53 62.51 C 111.66 63.01 111.73 63.92 111.73 65.25 C 111.73 66.59 111.65 67.53 111.5 68.09 C 111.39 68.53 111.23 68.83 111.02 69 C 110.82 69.16 110.58 69.25 110.32 69.25 C 110.05 69.25 109.82 69.16 109.61 69 C 109.41 68.83 109.24 68.5 109.11 68.01 C 108.97 67.51 108.91 66.59 108.91 65.25 C 108.91 63.92 108.98 62.97 109.13 62.41 C 109.25 61.98 109.41 61.68 109.61 61.51 C 109.82 61.34 110.05 61.25 110.32 61.25 Z M 130.83 61.25 C 131.09 61.25 131.33 61.34 131.53 61.51 C 131.73 61.68 131.9 62.01 132.04 62.51 C 132.17 63.01 132.24 63.92 132.24 65.25 C 132.24 66.59 132.16 67.53 132.01 68.09 C 131.9 68.53 131.74 68.83 131.53 69 C 131.33 69.16 131.09 69.25 130.83 69.25 C 130.57 69.25 130.33 69.16 130.12 69 C 129.92 68.83 129.75 68.5 129.62 68.01 C 129.49 67.51 129.42 66.59 129.42 65.25 C 129.42 63.92 129.49 62.97 129.64 62.41 C 129.76 61.98 129.92 61.68 130.12 61.51 C 130.33 61.34 130.57 61.25 130.83 61.25 Z M 117.7 76.74 C 116.6 76.74 115.74 77.13 115.13 77.9 C 114.38 78.84 114.01 80.38 114.01 82.52 C 114.01 84.7 114.35 86.22 115.02 87.07 C 115.7 87.92 116.59 88.34 117.7 88.34 C 118.8 88.34 119.66 87.96 120.27 87.18 C 121.02 86.24 121.39 84.69 121.39 82.54 C 121.39 80.39 121.02 78.85 120.28 77.92 C 119.66 77.13 118.8 76.74 117.7 76.74 Z M 128.31 76.74 C 127.21 76.74 126.35 77.13 125.74 77.9 C 124.99 78.84 124.62 80.38 124.62 82.52 C 124.62 84.7 124.96 86.22 125.63 87.07 C 126.31 87.92 127.2 88.34 128.31 88.34 C 129.41 88.34 130.27 87.96 130.88 87.18 C 131.63 86.24 132 84.69 132 82.54 C 132 80.39 131.63 78.85 130.89 77.92 C 130.27 77.13 129.41 76.74 128.31 76.74 Z M 108.61 76.84 C 108.37 77.53 107.91 78.14 107.24 78.66 C 106.57 79.17 105.96 79.53 105.39 79.71 L 105.39 81.69 C 106.47 81.33 107.41 80.78 108.2 80.04 L 108.2 88.25 L 110.38 88.25 L 110.38 76.84 Z M 138.06 76.84 C 137.81 77.53 137.35 78.14 136.68 78.66 C 136.02 79.17 135.4 79.53 134.83 79.71 L 134.83 81.69 C 135.91 81.33 136.85 80.78 137.65 80.04 L 137.65 88.25 L 139.82 88.25 L 139.82 76.84 Z M 99.33 78.54 C 99.59 78.54 99.83 78.63 100.03 78.8 C 100.23 78.97 100.4 79.3 100.54 79.8 C 100.67 80.3 100.74 81.21 100.74 82.54 C 100.74 83.88 100.67 84.82 100.52 85.38 C 100.4 85.82 100.24 86.12 100.04 86.29 C 99.83 86.45 99.59 86.54 99.33 86.54 C 99.07 86.54 98.83 86.45 98.62 86.29 C 98.46 86.16 98.32 85.91 98.21 85.57 C 98.09 84.56 98.03 83.54 98.03 82.5 C 98.03 81.5 98.08 80.51 98.19 79.54 C 98.3 79.2 98.45 78.94 98.62 78.8 C 98.83 78.63 99.07 78.54 99.33 78.54 Z M 117.7 78.54 C 117.96 78.54 118.2 78.63 118.4 78.8 C 118.6 78.97 118.77 79.3 118.91 79.8 C 119.04 80.3 119.11 81.21 119.11 82.54 C 119.11 83.88 119.03 84.82 118.89 85.38 C 118.77 85.82 118.61 86.12 118.4 86.29 C 118.2 86.45 117.96 86.54 117.7 86.54 C 117.44 86.54 117.2 86.45 116.99 86.29 C 116.79 86.12 116.62 85.79 116.49 85.3 C 116.36 84.8 116.29 83.88 116.29 82.54 C 116.29 81.21 116.36 80.26 116.51 79.7 C 116.63 79.27 116.79 78.97 116.99 78.8 C 117.2 78.63 117.44 78.54 117.7 78.54 Z M 128.31 78.54 C 128.57 78.54 128.81 78.63 129.01 78.8 C 129.21 78.97 129.38 79.3 129.52 79.8 C 129.65 80.3 129.72 81.21 129.72 82.54 C 129.72 83.88 129.65 84.82 129.5 85.38 C 129.38 85.82 129.22 86.12 129.01 86.29 C 128.81 86.45 128.57 86.54 128.31 86.54 C 128.05 86.54 127.81 86.45 127.6 86.29 C 127.4 86.12 127.23 85.79 127.1 85.3 C 126.97 84.8 126.9 83.88 126.9 82.54 C 126.9 81.21 126.97 80.26 127.12 79.7 C 127.24 79.27 127.4 78.97 127.6 78.8 C 127.81 78.63 128.05 78.54 128.31 78.54 Z M 147.21 78.54 C 147.47 78.54 147.7 78.63 147.91 78.8 C 148.11 78.97 148.28 79.3 148.42 79.8 C 148.55 80.3 148.62 81.21 148.62 82.54 C 148.62 83.88 148.54 84.82 148.39 85.38 C 148.28 85.82 148.12 86.12 147.91 86.29 C 147.71 86.45 147.47 86.54 147.21 86.54 C 146.94 86.54 146.71 86.45 146.5 86.29 C 146.3 86.12 146.13 85.79 146 85.3 C 145.86 84.8 145.8 83.88 145.8 82.54 C 145.8 81.21 145.87 80.26 146.02 79.7 C 146.14 79.27 146.3 78.97 146.5 78.8 C 146.71 78.63 146.94 78.54 147.21 78.54 Z M 130.17 93.91 C 129.07 93.91 128.21 94.3 127.59 95.08 C 126.85 96.02 126.48 97.56 126.48 99.7 C 126.48 101.88 126.81 103.39 127.49 104.25 C 128.17 105.09 129.06 105.52 130.17 105.52 C 131.27 105.52 132.12 105.13 132.74 104.36 C 133.48 103.42 133.86 101.87 133.86 99.72 C 133.86 97.57 133.49 96.02 132.75 95.09 C 132.13 94.31 131.27 93.91 130.17 93.91 Z M 120.95 94.01 C 120.7 94.7 120.24 95.31 119.58 95.83 C 118.91 96.35 118.29 96.7 117.72 96.89 L 117.72 98.86 C 118.8 98.51 119.74 97.96 120.54 97.21 L 120.54 105.42 L 122.71 105.42 L 122.71 94.01 Z M 109.87 95.72 C 110.14 95.72 110.37 95.81 110.57 95.98 C 110.78 96.14 110.95 96.47 111.08 96.98 C 111.22 97.47 111.28 98.39 111.28 99.72 C 111.28 101.05 111.21 102 111.06 102.56 C 110.95 102.99 110.79 103.29 110.58 103.46 C 110.37 103.63 110.14 103.71 109.87 103.71 C 109.61 103.71 109.37 103.63 109.17 103.46 C 108.97 103.3 108.8 102.97 108.66 102.47 C 108.53 101.97 108.46 101.05 108.46 99.72 C 108.46 98.39 108.54 97.44 108.69 96.88 C 108.8 96.44 108.96 96.14 109.17 95.98 C 109.37 95.81 109.61 95.72 109.87 95.72 Z M 130.17 95.72 C 130.43 95.72 130.66 95.81 130.86 95.98 C 131.07 96.14 131.24 96.47 131.38 96.98 C 131.51 97.47 131.58 98.39 131.58 99.72 C 131.58 101.05 131.5 102 131.35 102.56 C 131.24 102.99 131.08 103.29 130.87 103.46 C 130.66 103.63 130.43 103.71 130.17 103.71 C 129.9 103.71 129.67 103.63 129.46 103.46 C 129.26 103.3 129.09 102.97 128.96 102.47 C 128.82 101.97 128.76 101.05 128.76 99.72 C 128.76 98.39 128.83 97.44 128.98 96.88 C 129.09 96.44 129.25 96.14 129.46 95.98 C 129.67 95.81 129.9 95.72 130.17 95.72 Z M 141.44 95.72 C 141.7 95.72 141.94 95.81 142.14 95.98 C 142.34 96.14 142.51 96.47 142.65 96.98 C 142.78 97.47 142.85 98.39 142.85 99.72 C 142.85 100.05 142.84 100.35 142.84 100.63 C 142.06 101.43 141.24 102.18 140.36 102.88 C 140.32 102.76 140.27 102.62 140.23 102.47 C 140.1 101.97 140.03 101.05 140.03 99.72 C 140.03 98.39 140.1 97.44 140.25 96.88 C 140.37 96.44 140.53 96.14 140.73 95.98 C 140.94 95.81 141.18 95.72 141.44 95.72 Z M 48.19 116.48 C 49.57 116.48 50.69 121.18 50.69 126.98 C 50.69 132.77 49.57 137.47 48.19 137.47 C 46.81 137.47 45.69 132.77 45.69 126.98 C 45.69 121.18 46.81 116.48 48.19 116.48 Z M 113.16 126.56 L 113.16 131.06 L 125.06 131.06 L 125.06 126.56 Z M 133 126.56 L 133 131.06 L 144.9 131.06 L 144.9 126.56 Z M 118.51 135.46 L 118.51 139.96 L 130.41 139.96 L 130.41 135.46 Z M 138.34 135.46 L 138.34 139.96 L 150.24 139.96 L 150.24 135.46 Z M 11.72 0 C 5.27 0 0 5.27 0 11.72 L 0 180.17 C 0 186.62 5.27 191.89 11.72 191.89 L 236.47 191.89 C 242.91 191.89 248.19 186.62 248.19 180.17 L 248.19 11.72 C 248.19 5.27 242.91 0 236.47 0 Z M 11.72 5.29 L 236.47 5.29 C 240.07 5.29 242.89 8.11 242.89 11.72 L 242.89 180.17 C 242.89 183.78 240.07 186.6 236.47 186.6 L 11.72 186.6 C 8.11 186.6 5.29 183.78 5.29 180.17 L 5.29 11.72 C 5.29 8.11 8.11 5.29 11.72 5.29 Z" fill="var(--icon-primary, #dae8fc)" stroke="none" stroke-width="0"/></svg>