<svg xmlns="http://www.w3.org/2000/svg" viewBox="0 0 721.85 725.26" width="721.85" height="725.26"><path d="M 360.79 110.55 C 221.45 110.55 108.18 223.83 108.18 363.17 C 108.18 502.51 221.45 615.79 360.79 615.79 C 424.84 615.79 483.38 591.85 527.95 552.45 L 507.03 530.84 C 467.96 564.93 416.82 585.55 360.79 585.55 C 316.65 585.55 275.56 572.75 241 550.65 L 241 477.75 L 267.84 477.75 L 267.84 462.41 L 195.79 462.41 L 195.79 477.75 L 222.69 477.75 L 222.69 537.59 C 182.75 505.94 153.98 460.85 143.15 409.09 L 156.27 409.09 L 156.27 381.69 L 171.11 366.54 L 196.04 409.09 L 219.72 409.09 L 183.73 353.74 L 217.87 318.42 L 193.25 318.42 L 156.27 358.68 L 156.27 318.42 L 142.9 318.42 C 146.51 300.66 152.25 283.67 159.82 267.73 L 178.19 267.73 L 170.35 248.15 C 179.02 233.8 189.27 220.52 200.85 208.54 L 200.85 267.73 L 231.72 267.73 C 243.39 267.65 250.75 267.44 253.8 267.11 C 258.66 266.58 262.74 265.15 266.04 262.85 C 269.38 260.5 272 257.38 273.9 253.51 C 275.84 249.59 276.8 245.57 276.8 241.45 C 276.8 236.21 275.32 231.65 272.35 227.78 C 269.38 223.9 265.14 221.16 259.61 219.55 C 263.53 217.78 266.62 215.12 268.89 211.57 C 271.2 208.03 272.35 204.13 272.35 199.88 C 272.35 195.97 271.42 192.44 269.57 189.31 C 267.71 186.13 265.38 183.6 262.58 181.7 C 259.82 179.8 256.66 178.57 253.12 177.99 C 249.92 177.43 245.12 177.13 238.87 177.08 C 273.86 154.14 315.74 140.79 360.79 140.79 C 483.79 140.79 583.17 240.17 583.17 363.17 C 583.17 396.1 576.05 427.34 563.25 455.43 L 584.91 479.69 C 603.11 444.81 613.41 405.17 613.41 363.17 C 613.41 223.83 500.13 110.55 360.79 110.55 Z M 337.8 175.52 C 325.1 175.52 314.85 179.7 307.06 188.07 C 299.27 196.4 295.37 208.11 295.37 223.2 C 295.37 237.47 299.24 248.72 307 256.97 C 308.41 258.46 309.89 259.82 311.44 261.04 L 322.84 248.79 C 321.99 248.06 321.18 247.24 320.42 246.33 C 316.29 241.47 314.23 233.3 314.23 221.84 C 314.23 211.04 316.31 203.22 320.48 198.4 C 324.68 193.58 330.15 191.16 336.87 191.16 C 341.73 191.16 345.86 192.52 349.24 195.25 C 352.66 197.97 354.91 201.68 355.98 206.38 L 374.1 202.05 C 372.04 194.79 368.95 189.23 364.82 185.35 C 357.9 178.79 348.89 175.52 337.8 175.52 Z M 405.71 177.06 L 405.71 221.62 L 424.02 221.62 L 424.02 192.4 L 432.25 192.4 C 439.71 192.4 444.72 192.69 447.28 193.27 C 450.7 194.01 453.53 195.43 455.75 197.53 C 457.98 199.64 459.71 202.56 460.95 206.32 C 462.18 210.07 462.8 215.45 462.8 222.46 C 462.8 225.89 462.65 228.97 462.36 231.71 C 469.06 233.78 474.57 236.88 479.63 240.37 C 481.03 235.44 481.73 229.74 481.73 223.26 C 481.73 214.77 480.74 207.64 478.76 201.86 C 476.78 196.05 473.89 191.14 470.1 187.14 C 466.31 183.14 461.75 180.36 456.43 178.79 C 452.47 177.64 446.72 177.06 439.18 177.06 Z M 219.16 192.15 L 229.68 192.15 C 238.29 192.15 243.51 192.26 245.32 192.46 C 248.38 192.83 250.66 193.9 252.19 195.68 C 253.76 197.41 254.54 199.68 254.54 202.48 C 254.54 205.41 253.63 207.78 251.82 209.59 C 250.05 211.37 247.59 212.44 244.46 212.81 C 242.73 213.02 238.29 213.12 231.16 213.12 L 219.16 213.12 Z M 219.16 228.21 L 233.94 228.21 C 242.27 228.21 247.67 228.64 250.15 229.51 C 252.66 230.38 254.58 231.76 255.9 233.65 C 257.22 235.55 257.88 237.86 257.88 240.58 C 257.88 243.8 257.01 246.37 255.28 248.31 C 253.59 250.21 251.39 251.4 248.66 251.9 C 246.89 252.27 242.7 252.46 236.11 252.46 L 219.16 252.46 Z M 408.8 238.85 C 338.55 238.85 281.15 296.24 281.15 366.49 C 281.15 436.74 338.55 494.14 408.8 494.14 C 433.37 494.14 456.37 487.11 475.89 474.96 L 569.86 569.93 C 578.74 578.91 593.13 578.99 602.11 570.1 L 611.44 560.87 C 620.42 551.98 620.5 537.6 611.61 528.62 L 517.38 433.39 C 529.45 413.91 536.44 390.98 536.44 366.49 C 536.44 296.24 479.04 238.85 408.8 238.85 Z M 408.8 280.42 C 456.58 280.42 494.86 318.71 494.86 366.49 C 494.86 414.27 456.58 452.56 408.8 452.56 C 361.02 452.56 322.72 414.27 322.72 366.49 C 322.72 318.71 361.02 280.42 408.8 280.42 Z M 409.13 302.31 C 405.68 302.19 402.43 303.96 400.67 306.93 L 348.54 394.81 C 344.8 401.11 349.34 409.08 356.67 409.08 L 460.92 409.08 C 468.24 409.08 472.78 401.11 469.05 394.81 L 416.92 306.93 C 415.28 304.17 412.34 302.43 409.13 302.31 Z M 237.21 318.42 L 237.21 409.09 L 254.22 409.09 L 254.22 337.72 L 268.15 393.12 C 264.13 371.05 262.73 351.44 268.27 332.16 L 264.62 318.42 Z M 294.08 461.64 L 294.08 510.01 C 294.08 520.15 294.68 527.82 295.87 533.02 C 296.7 536.52 298.41 539.88 301.01 543.1 C 303.6 546.27 307.13 548.87 311.58 550.89 C 316.08 552.87 322.65 553.86 331.31 553.86 C 338.49 553.86 344.3 552.95 348.75 551.14 C 353.21 549.28 356.75 546.81 359.39 543.71 C 362.07 540.62 363.9 536.83 364.89 532.33 C 365.88 527.84 366.38 520.15 366.38 509.27 L 366.38 505.17 C 359.8 503.63 353.71 500.73 348.07 496.6 L 348.07 511.8 C 348.07 518.98 347.8 524.11 347.27 527.2 C 346.73 530.29 345.14 532.91 342.51 535.06 C 339.87 537.16 335.95 538.21 330.75 538.21 C 325.64 538.21 321.6 537.1 318.63 534.87 C 315.71 532.6 313.85 529.61 313.07 525.9 C 312.61 523.59 312.38 518.54 312.38 510.75 L 312.38 473.08 C 308.09 469.89 301.96 466.15 299.64 461.64 Z M 460.37 502.21 C 453.92 504.22 447.79 506.26 440.08 508.12 L 433 529.52 L 426.37 510.15 C 420.09 510.49 413.79 510.73 407.18 509.92 L 422.61 553.09 L 442.15 553.08 Z M 44.28 20 L 677.57 20 C 691.2 20 701.86 30.66 701.86 44.28 L 701.86 680.96 C 701.86 694.59 691.2 705.25 677.57 705.25 L 44.28 705.25 C 30.66 705.25 20 694.59 20 680.96 L 20 44.28 C 20 30.66 30.66 20 44.28 20 Z M 44.28 0 C 19.92 0 0 19.92 0 44.28 L 0 680.96 C 0 705.33 19.92 725.26 44.28 725.26 L 677.57 725.26 C 701.93 725.26 721.85 705.33 721.85 680.96 L 721.85 44.28 C 721.85 19.92 701.93 0 677.57 0 Z" fill="var(--icon-primary, #dae8fc)" stroke="none" stroke-width="0"/></svg>