<svg xmlns="http://www.w3.org/2000/svg" viewBox="0 0 190.99 191.89" width="190.99" height="191.89"><path d="M 108.51 108.91 L 113.24 126.3 L 116.69 122.9 L 131.05 137.44 L 127.6 140.85 L 144.92 145.81 L 140.19 128.42 L 136.74 131.83 L 122.38 117.28 L 125.83 113.87 Z M 48.23 47.83 L 52.95 65.22 L 56.4 61.81 L 70.76 76.36 L 67.31 79.77 L 84.64 84.72 L 79.91 67.34 L 76.46 70.74 L 62.1 56.19 L 65.55 52.79 Z M 84.48 108.76 L 67.09 113.49 L 70.5 116.93 L 55.95 131.29 L 52.54 127.84 L 47.58 145.17 L 64.97 140.44 L 61.57 136.99 L 76.12 122.63 L 79.52 126.08 Z M 145.56 48.47 L 128.17 53.2 L 131.58 56.65 L 117.03 71.01 L 113.63 67.56 L 108.67 84.88 L 126.05 80.15 L 122.65 76.7 L 137.2 62.34 L 140.6 65.79 Z M 79.58 96.82 L 63.88 87.97 L 63.88 92.82 L 43.44 92.82 L 43.44 87.97 L 27.74 96.82 L 43.44 105.67 L 43.44 100.82 L 63.88 100.82 L 63.88 105.67 Z M 165.4 96.82 L 149.7 87.97 L 149.7 92.82 L 129.26 92.82 L 129.26 87.97 L 113.57 96.82 L 129.26 105.67 L 129.26 100.82 L 149.7 100.82 L 149.7 105.67 Z M 96.57 113.81 L 87.73 129.51 L 92.57 129.51 L 92.57 149.95 L 87.73 149.95 L 96.57 165.65 L 105.42 149.95 L 100.57 149.95 L 100.57 129.51 L 105.42 129.51 Z M 96.57 27.99 L 87.73 43.69 L 92.57 43.69 L 92.57 64.13 L 87.73 64.13 L 96.57 79.83 L 105.42 64.13 L 100.57 64.13 L 100.57 43.69 L 105.42 43.69 Z M 109.67 96.82 A 13.1 13.1 0 0 1 96.57 109.92 A 13.1 13.1 0 0 1 83.48 96.82 A 13.1 13.1 0 0 1 96.57 83.72 A 13.1 13.1 0 0 1 109.67 96.82 Z M 95.9 17.16 C 51.98 17.16 16.3 52.84 16.3 96.75 C 16.3 140.66 51.98 176.35 95.9 176.35 C 139.81 176.35 175.49 140.66 175.49 96.75 C 175.49 52.84 139.81 17.16 95.9 17.16 Z M 95.9 25.16 C 135.48 25.16 167.49 57.16 167.49 96.75 C 167.49 136.34 135.48 168.35 95.9 168.35 C 56.31 168.35 24.3 136.34 24.3 96.75 C 24.3 57.16 56.31 25.16 95.9 25.16 Z M 11.72 5.29 L 179.27 5.29 C 182.88 5.29 185.7 8.11 185.7 11.72 L 185.7 180.17 C 185.7 183.78 182.88 186.6 179.27 186.6 L 11.72 186.6 C 8.11 186.6 5.29 183.78 5.29 180.17 L 5.29 11.72 C 5.29 8.11 8.11 5.29 11.72 5.29 Z M 11.72 0 C 5.27 0 0 5.27 0 11.72 L 0 180.17 C 0 186.62 5.27 191.89 11.72 191.89 L 179.27 191.89 C 185.72 191.89 190.99 186.62 190.99 180.17 L 190.99 11.72 C 190.99 5.27 185.72 0 179.27 0 Z" fill="var(--icon-primary, #dae8fc)" stroke="none" stroke-width="0"/></svg>