<svg xmlns="http://www.w3.org/2000/svg" viewBox="0 0 248.19 191.89" width="248.19" height="191.89"><path d="M 124.13 16.41 C 110.21 16.41 98.2 24.79 92.88 36.77 L 60.96 36.77 L 60.96 45.91 L 90.28 45.91 C 90.07 47.44 89.96 49 89.96 50.59 C 89.96 69.42 105.3 84.76 124.13 84.76 C 130.64 84.76 136.73 82.93 141.92 79.75 L 163 101.47 L 171.61 93.11 L 150.91 71.79 C 152.81 69.4 154.39 66.75 155.6 63.9 L 187.95 63.9 L 187.95 54.77 L 158.05 54.77 C 158.22 53.4 158.31 52 158.31 50.59 C 158.31 31.75 142.96 16.41 124.13 16.41 Z M 124.13 23.41 C 139.18 23.41 151.31 35.54 151.31 50.59 C 151.31 52.01 151.2 53.41 150.99 54.77 L 119.45 54.77 L 119.45 50.4 L 105.57 59.33 L 119.45 68.27 L 119.45 63.9 L 147.84 63.9 C 143.2 72.18 134.34 77.76 124.13 77.76 C 109.08 77.76 96.96 65.64 96.96 50.59 C 96.96 48.99 97.1 47.43 97.36 45.91 L 129.46 45.91 L 129.46 50.28 L 143.33 41.34 L 129.46 32.4 L 129.46 36.77 L 100.71 36.77 C 105.43 28.76 114.13 23.41 124.13 23.41 Z M 11.24 107.09 L 11.24 115.91 L 32.92 115.91 L 32.92 138.75 L 11.24 138.75 L 11.24 147.57 L 76.86 147.57 L 76.86 170.41 L 11.24 170.41 L 11.24 179.23 L 237.67 179.23 L 237.67 170.41 L 173.54 170.41 L 173.54 147.57 L 237.67 147.57 L 237.67 138.75 L 217.47 138.75 L 217.47 115.91 L 237.67 115.91 L 237.67 107.09 Z M 41.74 115.91 L 120.79 115.91 L 120.79 138.75 L 41.74 138.75 Z M 129.61 115.91 L 208.65 115.91 L 208.65 138.75 L 129.61 138.75 Z M 85.68 147.57 L 164.72 147.57 L 164.72 170.41 L 85.68 170.41 Z M 11.72 0 C 5.27 0 0 5.27 0 11.72 L 0 180.17 C 0 186.62 5.27 191.89 11.72 191.89 L 236.47 191.89 C 242.91 191.89 248.19 186.62 248.19 180.17 L 248.19 11.72 C 248.19 5.27 242.91 0 236.47 0 Z M 11.72 5.29 L 236.47 5.29 C 240.07 5.29 242.89 8.11 242.89 11.72 L 242.89 180.17 C 242.89 183.78 240.07 186.6 236.47 186.6 L 11.72 186.6 C 8.11 186.6 5.29 183.78 5.29 180.17 L 5.29 11.72 C 5.29 8.11 8.11 5.29 11.72 5.29 Z" fill="var(--icon-primary, #dae8fc)" stroke="none" stroke-width="0"/></svg>