<svg xmlns="http://www.w3.org/2000/svg" viewBox="0 0 190.9 165.32" width="190.9" height="165.32"><path d="M 109.82 131.89 L 109.82 138.85 L 112.97 138.85 Q 114.72 138.85 115.68 137.94 Q 116.63 137.04 116.63 135.36 Q 116.63 133.7 115.68 132.79 Q 114.72 131.89 112.97 131.89 Z M 107.32 129.83 L 112.97 129.83 Q 116.09 129.83 117.67 131.24 Q 119.27 132.65 119.27 135.36 Q 119.27 138.1 117.67 139.5 Q 116.09 140.91 112.97 140.91 L 109.82 140.91 L 109.82 148.35 L 107.32 148.35 Z M 92.68 129.83 L 103.33 129.83 L 103.33 131.94 L 95.19 131.94 L 95.19 137.4 L 102.53 137.4 L 102.53 139.5 L 95.19 139.5 L 95.19 148.35 L 92.68 148.35 Z M 80.21 131.53 Q 77.48 131.53 75.87 133.56 Q 74.27 135.6 74.27 139.11 Q 74.27 142.6 75.87 144.64 Q 77.48 146.67 80.21 146.67 Q 82.94 146.67 84.52 144.64 Q 86.12 142.6 86.12 139.11 Q 86.12 135.6 84.52 133.56 Q 82.94 131.53 80.21 131.53 Z M 83.72 148.01 L 87.02 151.62 L 83.99 151.62 L 81.25 148.66 Q 80.84 148.68 80.62 148.69 Q 80.41 148.71 80.21 148.71 Q 76.3 148.71 73.96 146.1 Q 71.63 143.48 71.63 139.11 Q 71.63 134.72 73.96 132.11 Q 76.3 129.49 80.21 129.49 Q 84.1 129.49 86.43 132.11 Q 88.77 134.72 88.77 139.11 Q 88.77 142.33 87.46 144.63 Q 86.17 146.92 83.72 148.01 Z M 132.01 57.18 L 116.82 47.96 L 129.29 27.42 L 122.99 23.6 L 110.52 44.14 L 96.6 35.69 L 103.09 63.49 Z M 135.33 73.14 L 126.11 88.33 L 105.57 75.87 L 101.74 82.17 L 122.29 94.63 L 113.84 108.55 L 141.64 102.07 Z M 58.38 93.78 L 73.57 103 L 61.11 123.54 L 67.4 127.37 L 79.87 106.82 L 93.79 115.27 L 87.3 87.47 Z M 55.57 76.36 L 64.79 61.17 L 85.33 73.64 L 89.16 67.34 L 68.61 54.87 L 77.06 40.95 L 49.26 47.44 Z M 47.72 0 L 0 82.66 L 47.72 165.32 L 143.18 165.32 L 144.29 163.39 L 190.9 82.66 L 143.18 0 Z M 52.19 7.74 L 138.71 7.74 L 181.96 82.66 L 138.71 157.59 L 52.19 157.59 L 8.93 82.66 Z" fill="var(--icon-primary, #dae8fc)" stroke="none" stroke-width="0"/></svg>