<svg xmlns="http://www.w3.org/2000/svg" viewBox="0 0 196.97 196.97" width="196.97" height="196.97"><path d="M 66.63 132.09 L 66.63 138.52 L 75.64 138.52 L 90.16 148.69 L 90.16 150.05 L 79.2 150.05 L 79.2 148.59 L 66.63 148.59 L 66.63 155.02 L 79.2 155.02 L 79.2 153.55 L 90.16 153.55 L 90.16 156.11 L 77.35 165.09 L 66.63 165.09 L 66.63 171.52 L 79.2 171.52 L 79.2 168.07 L 90.91 159.86 L 96.73 159.86 L 96.73 165.09 L 92.2 165.09 L 92.2 171.52 L 104.77 171.52 L 104.77 165.09 L 100.23 165.09 L 100.23 159.86 L 106.1 159.86 L 117.77 168.04 L 117.77 171.52 L 130.34 171.52 L 130.34 165.09 L 119.66 165.09 L 106.81 156.08 L 106.81 153.55 L 117.77 153.55 L 117.77 155.02 L 130.34 155.02 L 130.34 148.59 L 117.77 148.59 L 117.77 150.05 L 106.81 150.05 L 106.81 148.72 L 121.37 138.52 L 130.34 138.52 L 130.34 132.09 L 117.77 132.09 L 117.77 136.76 L 106.81 144.45 L 106.81 143.75 L 100.23 143.75 L 100.23 138.52 L 104.77 138.52 L 104.77 132.09 L 92.2 132.09 L 92.2 138.52 L 96.73 138.52 L 96.73 143.75 L 90.16 143.75 L 90.16 144.42 L 79.2 136.73 L 79.2 132.09 Z M 98.48 2.5 C 151.51 2.5 194.47 45.46 194.47 98.48 C 194.47 151.51 151.51 194.47 98.48 194.47 C 45.46 194.47 2.5 151.51 2.5 98.48 C 2.5 45.46 45.46 2.5 98.48 2.5 Z M 98.48 0 C 44.11 0 0 44.11 0 98.48 C 0 152.86 44.11 196.97 98.48 196.97 C 152.86 196.97 196.97 152.86 196.97 98.48 C 196.97 44.11 152.86 0 98.48 0 Z M 101.49 66.26 L 123 44.33 L 113.9 35.4 L 146.72 28.58 L 140.63 61.62 L 131.61 52.77 L 110.1 74.71 Z M 53.17 24.77 L 75.11 46.28 L 84.03 37.18 L 90.86 70 L 57.82 63.91 L 66.66 54.89 L 44.73 33.38 Z M 94.58 90.14 L 73.07 112.08 L 82.17 121 L 49.35 127.83 L 55.44 94.79 L 64.46 103.63 L 85.97 81.7 Z M 143.8 131.88 L 121.86 110.37 L 112.94 119.47 L 106.11 86.65 L 139.15 92.74 L 130.3 101.76 L 152.24 123.27 Z" fill="var(--icon-primary, #dae8fc)" stroke="none" stroke-width="0"/></svg>