<svg xmlns="http://www.w3.org/2000/svg" viewBox="0 0 190.99 191.89" width="190.99" height="191.89"><path d="M 90.07 86.88 L 90.07 74.25 L 92.59 74.25 L 95.58 83.19 Q 95.99 84.44 96.18 85.06 Q 96.39 84.37 96.85 83.04 L 99.87 74.25 L 102.12 74.25 L 102.12 86.88 L 100.51 86.88 L 100.51 76.31 L 96.84 86.88 L 95.33 86.88 L 91.68 76.13 L 91.68 86.88 Z M 78.38 86.88 L 78.38 74.25 L 87.51 74.25 L 87.51 75.74 L 80.05 75.74 L 80.05 79.61 L 87.03 79.61 L 87.03 81.09 L 80.05 81.09 L 80.05 85.39 L 87.8 85.39 L 87.8 86.88 Z M 73.73 86.88 L 73.73 74.25 L 75.4 74.25 L 75.4 86.88 Z M 61.1 82.82 L 62.67 82.69 Q 62.79 83.63 63.19 84.24 Q 63.61 84.85 64.47 85.23 Q 65.33 85.6 66.4 85.6 Q 67.36 85.6 68.09 85.31 Q 68.82 85.03 69.18 84.54 Q 69.54 84.04 69.54 83.45 Q 69.54 82.86 69.19 82.42 Q 68.85 81.97 68.06 81.67 Q 67.55 81.47 65.81 81.06 Q 64.07 80.64 63.37 80.26 Q 62.47 79.79 62.02 79.09 Q 61.58 78.39 61.58 77.52 Q 61.58 76.56 62.12 75.73 Q 62.67 74.9 63.71 74.47 Q 64.75 74.04 66.03 74.04 Q 67.43 74.04 68.5 74.49 Q 69.57 74.94 70.15 75.82 Q 70.73 76.7 70.77 77.81 L 69.17 77.93 Q 69.04 76.73 68.29 76.12 Q 67.55 75.51 66.09 75.51 Q 64.58 75.51 63.88 76.07 Q 63.19 76.62 63.19 77.41 Q 63.19 78.09 63.68 78.53 Q 64.16 78.96 66.2 79.43 Q 68.24 79.89 69 80.23 Q 70.1 80.74 70.62 81.52 Q 71.15 82.3 71.15 83.31 Q 71.15 84.32 70.57 85.22 Q 70 86.1 68.91 86.6 Q 67.83 87.09 66.48 87.09 Q 64.77 87.09 63.61 86.6 Q 62.45 86.1 61.79 85.1 Q 61.13 84.09 61.1 82.82 Z M 97.37 136.12 C 97.38 135.92 97.34 135.72 97.25 135.53 L 95.96 132.9 C 95.66 132.29 94.93 132.04 94.33 132.34 L 91.41 133.76 C 90.63 132.68 89.68 131.72 88.59 130.94 L 90.02 128.03 C 90.32 127.42 90.07 126.69 89.46 126.39 L 86.83 125.11 C 86.22 124.81 85.49 125.06 85.19 125.67 L 83.64 128.84 C 82.94 128.71 82.21 128.64 81.47 128.64 C 80.73 128.64 80 128.71 79.3 128.84 L 77.75 125.67 C 77.45 125.06 76.72 124.81 76.11 125.11 L 73.48 126.39 C 72.87 126.69 72.62 127.42 72.92 128.03 L 74.34 130.94 C 73.26 131.72 72.31 132.68 71.53 133.76 L 68.61 132.34 C 68 132.04 67.27 132.29 66.98 132.9 L 65.69 135.53 C 65.39 136.14 65.64 136.87 66.25 137.16 L 69.42 138.71 C 69.29 139.42 69.23 140.14 69.23 140.89 C 69.23 141.63 69.29 142.35 69.42 143.06 L 66.25 144.61 C 65.64 144.9 65.39 145.63 65.69 146.24 L 66.98 148.87 C 67.27 149.48 68 149.73 68.61 149.44 L 71.53 148.01 C 72.31 149.1 73.26 150.05 74.34 150.83 L 72.92 153.74 C 72.62 154.35 72.87 155.08 73.48 155.38 L 76.11 156.66 C 76.72 156.96 77.45 156.71 77.75 156.1 L 79.3 152.94 C 80 153.06 80.73 153.13 81.47 153.13 C 82.21 153.13 82.94 153.06 83.64 152.94 L 85.19 156.1 C 85.49 156.71 86.22 156.96 86.83 156.66 L 89.46 155.38 C 90.07 155.08 90.32 154.35 90.02 153.74 L 88.59 150.83 C 89.68 150.05 90.63 149.09 91.41 148.01 L 94.33 149.44 C 94.93 149.73 95.66 149.48 95.96 148.87 L 97.25 146.24 C 97.55 145.63 97.3 144.9 96.69 144.61 L 93.52 143.06 C 93.65 142.35 93.71 141.63 93.71 140.89 C 93.71 140.14 93.65 139.42 93.52 138.71 L 96.69 137.16 C 97.11 136.96 97.35 136.55 97.37 136.12 Z M 89.48 140.89 C 89.48 145.33 85.92 148.9 81.47 148.9 C 77.02 148.9 73.46 145.33 73.46 140.89 C 73.46 136.44 77.02 132.87 81.47 132.87 C 85.92 132.87 89.48 136.44 89.48 140.89 Z M 156.84 75.81 C 156.85 75.61 156.81 75.41 156.72 75.22 L 155.43 72.59 C 155.14 71.98 154.41 71.73 153.8 72.03 L 150.88 73.45 C 150.1 72.37 149.15 71.42 148.07 70.64 L 149.49 67.72 C 149.79 67.11 149.54 66.38 148.93 66.09 L 146.3 64.8 C 145.69 64.5 144.96 64.75 144.66 65.36 L 143.11 68.53 C 142.41 68.4 141.68 68.33 140.94 68.33 C 140.2 68.33 139.47 68.4 138.77 68.53 L 137.22 65.36 C 136.92 64.75 136.19 64.5 135.58 64.8 L 132.95 66.09 C 132.34 66.38 132.09 67.11 132.39 67.72 L 133.81 70.64 C 132.73 71.42 131.78 72.37 131 73.45 L 128.08 72.03 C 127.47 71.73 126.74 71.98 126.45 72.59 L 125.16 75.22 C 124.86 75.83 125.11 76.56 125.72 76.86 L 128.89 78.41 C 128.76 79.11 128.7 79.84 128.7 80.58 C 128.7 81.32 128.76 82.05 128.89 82.75 L 125.72 84.3 C 125.11 84.6 124.86 85.33 125.16 85.94 L 126.45 88.57 C 126.74 89.18 127.47 89.43 128.08 89.13 L 131 87.7 C 131.78 88.79 132.73 89.74 133.81 90.52 L 132.39 93.43 C 132.09 94.04 132.34 94.77 132.95 95.07 L 135.58 96.36 C 136.19 96.66 136.92 96.4 137.22 95.8 L 138.77 92.63 C 139.47 92.76 140.2 92.82 140.94 92.82 C 141.68 92.82 142.41 92.76 143.11 92.63 L 144.66 95.8 C 144.96 96.4 145.69 96.66 146.3 96.36 L 148.93 95.07 C 149.54 94.77 149.79 94.04 149.49 93.43 L 148.07 90.52 C 149.15 89.74 150.1 88.79 150.88 87.7 L 153.8 89.13 C 154.41 89.43 155.14 89.18 155.43 88.57 L 156.72 85.94 C 157.02 85.33 156.77 84.6 156.16 84.3 L 152.99 82.75 C 153.12 82.05 153.18 81.32 153.18 80.58 C 153.18 79.84 153.12 79.11 152.99 78.41 L 156.16 76.86 C 156.58 76.65 156.83 76.24 156.84 75.81 Z M 148.95 80.58 C 148.95 85.03 145.39 88.59 140.94 88.59 C 136.49 88.59 132.93 85.03 132.93 80.58 C 132.93 76.13 136.49 72.57 140.94 72.57 C 145.39 72.57 148.95 76.13 148.95 80.58 Z M 67.95 35.5 C 67.39 35.48 66.82 35.59 66.28 35.85 L 58.83 39.5 C 57.1 40.34 56.39 42.41 57.23 44.14 L 61.27 52.39 C 58.2 54.61 55.5 57.31 53.29 60.38 L 45.03 56.34 C 43.3 55.5 41.23 56.21 40.39 57.93 L 36.74 65.39 C 35.9 67.12 36.61 69.19 38.33 70.03 L 47.31 74.42 C 46.95 76.42 46.76 78.48 46.76 80.58 C 46.76 82.68 46.95 84.74 47.31 86.74 L 38.33 91.13 C 36.61 91.97 35.9 94.04 36.74 95.77 L 40.39 103.22 C 41.23 104.95 43.3 105.66 45.03 104.81 L 53.29 100.78 C 55.5 103.85 58.2 106.55 61.27 108.76 L 57.23 117.02 C 56.39 118.75 57.1 120.82 58.83 121.66 L 66.28 125.31 C 68.01 126.15 70.08 125.44 70.92 123.71 L 75.31 114.73 C 77.31 115.1 79.37 115.29 81.47 115.29 C 83.57 115.29 85.63 115.1 87.63 114.73 L 92.02 123.71 C 92.86 125.44 94.93 126.15 96.66 125.31 L 104.11 121.66 C 105.84 120.82 106.55 118.75 105.71 117.02 L 101.67 108.76 C 104.74 106.55 107.44 103.85 109.65 100.78 L 117.91 104.81 C 119.64 105.66 121.71 104.95 122.55 103.22 L 126.2 95.77 C 127.04 94.04 126.33 91.97 124.6 91.13 L 115.63 86.74 C 115.99 84.74 116.18 82.68 116.18 80.58 C 116.18 78.48 115.99 76.42 115.63 74.42 L 124.6 70.03 C 126.33 69.19 127.04 67.12 126.2 65.39 L 122.55 57.93 C 121.71 56.21 119.64 55.5 117.91 56.34 L 109.65 60.38 C 107.44 57.31 104.74 54.61 101.67 52.39 L 105.71 44.14 C 106.55 42.41 105.84 40.34 104.11 39.5 L 96.66 35.85 C 94.93 35.01 92.86 35.72 92.02 37.44 L 87.63 46.42 C 85.63 46.06 83.57 45.87 81.47 45.87 C 79.37 45.87 77.31 46.06 75.31 46.42 L 70.92 37.44 C 70.34 36.26 69.18 35.55 67.95 35.5 Z M 81.47 57.87 C 94.08 57.87 104.18 67.97 104.18 80.58 C 104.18 93.19 94.08 103.29 81.47 103.29 C 68.86 103.29 58.76 93.19 58.76 80.58 C 58.76 67.97 68.86 57.87 81.47 57.87 Z M 11.72 5.29 L 179.27 5.29 C 182.88 5.29 185.7 8.11 185.7 11.72 L 185.7 180.17 C 185.7 183.78 182.88 186.6 179.27 186.6 L 11.72 186.6 C 8.11 186.6 5.29 183.78 5.29 180.17 L 5.29 11.72 C 5.29 8.11 8.11 5.29 11.72 5.29 Z M 11.72 0 C 5.27 0 0 5.27 0 11.72 L 0 180.17 C 0 186.62 5.27 191.89 11.72 191.89 L 179.27 191.89 C 185.72 191.89 190.99 186.62 190.99 180.17 L 190.99 11.72 C 190.99 5.27 185.72 0 179.27 0 Z" fill="var(--icon-primary, #dae8fc)" stroke="none" stroke-width="0"/></svg>