<svg xmlns="http://www.w3.org/2000/svg" viewBox="0 0 190.99 191.89" width="190.99" height="191.89"><path d="M 107.45 115.66 L 110.84 115.66 L 110.84 117.68 Q 111.5 116.65 112.62 116 Q 113.75 115.35 115.11 115.35 Q 117.5 115.35 119.17 117.23 Q 120.84 119.1 120.84 122.45 Q 120.84 125.88 119.16 127.8 Q 117.48 129.69 115.09 129.69 Q 113.95 129.69 113.02 129.24 Q 112.1 128.79 111.08 127.69 L 111.08 134.6 L 107.45 134.6 Z M 111.05 122.29 Q 111.05 124.6 111.96 125.72 Q 112.88 126.81 114.2 126.81 Q 115.46 126.81 116.3 125.81 Q 117.14 124.79 117.14 122.47 Q 117.14 120.32 116.28 119.27 Q 115.41 118.22 114.13 118.22 Q 112.8 118.22 111.92 119.26 Q 111.05 120.28 111.05 122.29 Z M 91.28 115.66 L 94.66 115.66 L 94.66 117.68 Q 95.32 116.65 96.45 116 Q 97.57 115.35 98.94 115.35 Q 101.33 115.35 103 117.23 Q 104.66 119.1 104.66 122.45 Q 104.66 125.88 102.98 127.8 Q 101.3 129.69 98.91 129.69 Q 97.78 129.69 96.85 129.24 Q 95.93 128.79 94.91 127.69 L 94.91 134.6 L 91.28 134.6 Z M 94.87 122.29 Q 94.87 124.6 95.79 125.72 Q 96.71 126.81 98.02 126.81 Q 99.29 126.81 100.13 125.81 Q 100.97 124.79 100.97 122.47 Q 100.97 120.32 100.1 119.27 Q 99.24 118.22 97.96 118.22 Q 96.63 118.22 95.75 119.26 Q 94.87 120.28 94.87 122.29 Z M 89.37 129.38 L 85.21 129.38 L 83.55 125.08 L 75.98 125.08 L 74.42 129.38 L 70.36 129.38 L 77.74 110.44 L 81.78 110.44 Z M 82.33 121.89 L 79.72 114.86 L 77.16 121.89 Z M 51.17 66.3 C 49.33 66.3 47.73 67.56 47.29 69.34 L 30.38 138.08 C 29.76 140.6 31.67 143.04 34.26 143.04 L 142.74 143.04 C 144.58 143.04 146.18 141.79 146.63 140 L 163.69 71.26 C 164.31 68.74 162.41 66.3 159.81 66.3 Z M 96.08 76.2 C 108.05 76.2 117.92 83.92 123.39 91.95 C 118.73 99.49 109.1 107.57 96.08 107.57 C 83.95 107.57 74.38 99.76 68.77 91.95 C 74.97 83.57 84.4 76.2 96.08 76.2 Z M 96.36 81.13 C 90.43 81.13 85.57 85.99 85.57 91.92 C 85.57 97.84 90.43 102.71 96.36 102.71 C 102.28 102.71 107.15 97.84 107.15 91.92 C 107.15 85.99 102.28 81.13 96.36 81.13 Z M 96.36 87.13 C 99.04 87.13 101.15 89.24 101.15 91.92 C 101.15 94.6 99.04 96.71 96.36 96.71 C 93.67 96.71 91.57 94.6 91.57 91.92 C 91.57 89.24 93.67 87.13 96.36 87.13 Z M 29.44 65.87 C 29.44 61.05 31.41 59.6 36.25 59.6 L 102.39 59.67 C 105.21 59.67 106.08 58.28 107.55 57.02 L 112.22 52.98 C 113.81 51.51 114.43 51.13 117.15 51.13 L 141.28 51.08 C 144.22 51.08 145.91 53.59 145.91 56.37 L 145.87 64.3 L 51.17 64.3 C 48.41 64.3 46.01 66.18 45.35 68.87 L 29.39 134.36 Z M 11.72 5.29 L 179.27 5.29 C 182.88 5.29 185.7 8.11 185.7 11.72 L 185.7 180.17 C 185.7 183.78 182.88 186.6 179.27 186.6 L 11.72 186.6 C 8.11 186.6 5.29 183.78 5.29 180.17 L 5.29 11.72 C 5.29 8.11 8.11 5.29 11.72 5.29 Z M 11.72 0 C 5.27 0 0 5.27 0 11.72 L 0 180.17 C 0 186.62 5.27 191.89 11.72 191.89 L 179.27 191.89 C 185.72 191.89 190.99 186.62 190.99 180.17 L 190.99 11.72 C 190.99 5.27 185.72 0 179.27 0 Z" fill="var(--icon-primary, #dae8fc)" stroke="none" stroke-width="0"/></svg>