<svg xmlns="http://www.w3.org/2000/svg" viewBox="0 0 190.99 279.26" width="190.99" height="279.26"><path d="M 11.72 87.37 C 5.27 87.37 0 92.64 0 99.09 L 0 267.55 C 0 273.99 5.27 279.26 11.72 279.26 L 179.27 279.26 C 185.72 279.26 190.99 273.99 190.99 267.55 L 190.99 99.09 C 190.99 92.64 185.72 87.37 179.27 87.37 Z M 11.72 0 C 5.27 0 0 5.27 0 11.72 L 0 67.91 C 0 74.36 5.27 79.63 11.72 79.63 L 179.27 79.63 C 185.72 79.63 190.99 74.36 190.99 67.91 L 190.99 11.72 C 190.99 5.27 185.72 0 179.27 0 Z" fill="var(--icon-primary, #dae8fc)" stroke="none" stroke-width="0"/></svg>