<svg xmlns="http://www.w3.org/2000/svg" viewBox="0 0 190.99 362.61" width="190.99" height="362.61"><path d="M 11.72 83.34 C 5.27 83.34 0 88.61 0 95.06 L 0 151.26 C 0 157.7 5.27 162.97 11.72 162.97 L 179.27 162.97 C 185.72 162.97 190.99 157.7 190.99 151.26 L 190.99 95.06 C 190.99 88.61 185.72 83.34 179.27 83.34 Z M 11.72 170.72 C 5.27 170.72 0 175.99 0 182.43 L 0 350.89 C 0 357.33 5.27 362.61 11.72 362.61 L 179.27 362.61 C 185.72 362.61 190.99 357.33 190.99 350.89 L 190.99 182.43 C 190.99 175.99 185.72 170.72 179.27 170.72 Z M 11.72 0 C 5.27 0 0 5.27 0 11.72 L 0 67.91 C 0 74.36 5.27 79.63 11.72 79.63 L 179.27 79.63 C 185.72 79.63 190.99 74.36 190.99 67.91 L 190.99 11.72 C 190.99 5.27 185.72 0 179.27 0 Z" fill="var(--icon-primary, #dae8fc)" stroke="none" stroke-width="0"/></svg>