<svg xmlns="http://www.w3.org/2000/svg" viewBox="0 0 721.85 1484.06" width="721.85" height="1484.06"><path d="M 44.28 758.8 C 19.92 758.8 0 778.72 0 803.08 L 0 1439.77 C 0 1464.13 19.92 1484.06 44.28 1484.06 L 677.57 1484.06 C 701.93 1484.06 721.85 1464.13 721.85 1439.77 L 721.85 803.08 C 721.85 778.72 701.93 758.8 677.57 758.8 Z M 44.28 0 C 19.92 0 0 19.92 0 44.28 L 0 680.96 C 0 705.33 19.92 725.26 44.28 725.26 L 677.57 725.26 C 701.93 725.26 721.85 705.33 721.85 680.96 L 721.85 44.28 C 721.85 19.92 701.93 0 677.57 0 Z" fill="var(--icon-primary, #dae8fc)" stroke="none" stroke-width="0"/></svg>