<svg xmlns="http://www.w3.org/2000/svg" viewBox="0 0 190.99 275.55" width="190.99" height="275.55"><path d="M 11.72 0 C 5.27 0 0 5.27 0 11.72 L 0 180.17 C 0 186.62 5.27 191.89 11.72 191.89 L 179.27 191.89 C 185.72 191.89 190.99 186.62 190.99 180.17 L 190.99 11.72 C 190.99 5.27 185.72 0 179.27 0 Z M 11.72 195.92 C 5.27 195.92 0 201.19 0 207.64 L 0 263.84 C 0 270.28 5.27 275.55 11.72 275.55 L 179.27 275.55 C 185.72 275.55 190.99 270.28 190.99 263.84 L 190.99 207.64 C 190.99 201.19 185.72 195.92 179.27 195.92 Z" fill="var(--icon-primary, #dae8fc)" stroke="none" stroke-width="0"/></svg>