<svg xmlns="http://www.w3.org/2000/svg" viewBox="0 0 190.99 191.89" width="190.99" height="191.89"><path d="M 39.28 33.16 L 39.28 158.73 L 151.71 158.73 L 151.71 33.16 Z M 50.59 44.08 L 61.36 44.08 L 61.36 91.21 L 50.59 91.21 Z M 77.25 44.08 L 88.03 44.08 L 88.03 91.21 L 77.25 91.21 Z M 103.92 44.08 L 114.7 44.08 L 114.7 91.21 L 103.92 91.21 Z M 130.59 44.08 L 141.37 44.08 L 141.37 91.21 L 130.59 91.21 Z M 50.59 100.36 L 61.36 100.36 L 61.36 147.49 L 50.59 147.49 Z M 77.25 100.36 L 88.03 100.36 L 88.03 147.49 L 77.25 147.49 Z M 103.92 100.36 L 114.7 100.36 L 114.7 147.49 L 103.92 147.49 Z M 130.59 100.36 L 141.37 100.36 L 141.37 147.49 L 130.59 147.49 Z M 11.72 5.29 L 179.27 5.29 C 182.88 5.29 185.7 8.11 185.7 11.72 L 185.7 180.17 C 185.7 183.78 182.88 186.6 179.27 186.6 L 11.72 186.6 C 8.11 186.6 5.29 183.78 5.29 180.17 L 5.29 11.72 C 5.29 8.11 8.11 5.29 11.72 5.29 Z M 11.72 0 C 5.27 0 0 5.27 0 11.72 L 0 180.17 C 0 186.62 5.27 191.89 11.72 191.89 L 179.27 191.89 C 185.72 191.89 190.99 186.62 190.99 180.17 L 190.99 11.72 C 190.99 5.27 185.72 0 179.27 0 Z" fill="var(--icon-primary, #dae8fc)" stroke="none" stroke-width="0"/></svg>