<svg xmlns="http://www.w3.org/2000/svg" viewBox="0 0 74.91 76.18" width="74.91" height="76.18"><path d="M 6.35 12.01 C 6.35 16.57 6.35 21.13 6.35 25.69 L 18.43 25.69 L 18.43 12.01 Z M 22.74 12.01 C 22.74 16.57 22.74 21.13 22.74 25.69 L 34.82 25.69 L 34.82 12.01 Z M 39.14 12.01 C 39.14 16.57 39.14 21.13 39.14 25.69 L 51.22 25.69 L 51.22 12.01 Z M 55.53 12.01 C 55.53 16.57 55.53 21.13 55.53 25.69 L 67.62 25.69 L 67.62 12.01 Z M 8.35 14.01 L 16.43 14.01 L 16.43 23.69 L 8.35 23.69 Z M 24.74 14.01 L 32.82 14.01 L 32.82 23.69 L 24.74 23.69 Z M 41.14 14.01 L 49.22 14.01 L 49.22 23.69 L 41.14 23.69 Z M 57.53 14.01 L 65.62 14.01 L 65.62 23.69 L 57.53 23.69 Z M 6.35 30.44 C 6.35 35 6.35 39.56 6.35 44.12 L 18.43 44.12 L 18.43 30.44 Z M 22.74 30.44 C 22.74 35 22.74 39.56 22.74 44.12 L 34.82 44.12 L 34.82 30.44 Z M 39.14 30.44 C 39.14 35 39.14 39.56 39.14 44.12 L 51.22 44.12 L 51.22 30.44 Z M 55.53 30.44 C 55.53 35 55.53 39.56 55.53 44.12 L 67.62 44.12 L 67.62 30.44 Z M 8.35 32.44 L 16.43 32.44 L 16.43 42.12 L 8.35 42.12 Z M 24.74 32.44 L 32.82 32.44 L 32.82 42.12 L 24.74 42.12 Z M 41.14 32.44 L 49.22 32.44 L 49.22 42.12 L 41.14 42.12 Z M 57.53 32.44 L 65.62 32.44 L 65.62 42.12 L 57.53 42.12 Z M 0 0 L 0 76.18 L 74.91 76.18 L 74.91 0 Z M 2 2 L 72.91 2 L 72.91 74.18 L 45.7 74.18 L 45.7 49.09 L 28.47 49.09 L 28.47 74.18 L 2 74.18 Z M 30.47 51.09 L 43.7 51.09 L 43.7 74.18 L 30.47 74.18 Z" fill="var(--icon-primary, #dae8fc)" stroke="none" stroke-width="0"/></svg>