<svg xmlns="http://www.w3.org/2000/svg" viewBox="0 0 212.35 215.95" width="212.35" height="215.95"><rect x="5.67" y="5.67" width="201.01" height="204.61" fill="var(--icon-secondary, #6c8ebf)" stroke="none" stroke-width="0"/><rect x="0" y="0" width="0" height="0" fill="none" stroke="var(--icon-secondary, #6c8ebf)" stroke-width="1"/><path d="M 0 0 L 0 215.95 L 212.35 215.95 L 212.35 0 L 0 0 Z M 123.87 210.28 L 86.38 210.28 L 86.38 144.83 L 123.87 144.83 L 123.87 210.28 Z M 206.68 210.28 L 129.54 210.28 L 129.54 139.16 L 80.71 139.16 L 80.71 210.28 L 5.67 210.28 L 5.67 5.67 L 206.68 5.67 L 206.68 210.28 Z M 17.99 34.04 L 17.99 72.82 L 52.24 72.82 L 52.24 34.04 L 17.99 34.04 Z M 64.47 34.04 L 64.47 72.82 L 98.72 72.82 L 98.72 34.04 L 64.47 34.04 Z M 110.94 34.04 L 110.94 72.82 L 145.19 72.82 L 145.19 34.04 L 110.94 34.04 Z M 157.42 34.04 L 157.42 72.82 L 191.67 72.82 L 191.67 34.04 L 157.42 34.04 Z M 23.66 39.71 L 46.57 39.71 L 46.57 67.15 L 23.66 67.15 L 23.66 39.71 Z M 70.13 39.71 L 93.04 39.71 L 93.04 67.15 L 70.13 67.15 L 70.13 39.71 Z M 116.61 39.71 L 139.52 39.71 L 139.52 67.15 L 116.61 67.15 L 116.61 39.71 Z M 163.09 39.71 L 186.01 39.71 L 186.01 67.15 L 163.09 67.15 L 163.09 39.71 Z M 17.99 86.28 L 17.99 125.05 L 52.24 125.05 L 52.24 86.28 L 17.99 86.28 Z M 64.47 86.28 L 64.47 125.05 L 98.72 125.05 L 98.72 86.28 L 64.47 86.28 Z M 110.94 86.28 L 110.94 125.05 L 145.19 125.05 L 145.19 86.28 L 110.94 86.28 Z M 157.42 86.28 L 157.42 125.05 L 191.67 125.05 L 191.67 86.28 L 157.42 86.28 Z M 23.66 91.95 L 46.57 91.95 L 46.57 119.38 L 23.66 119.38 L 23.66 91.95 Z M 70.13 91.95 L 93.04 91.95 L 93.04 119.38 L 70.13 119.38 L 70.13 91.95 Z M 116.61 91.95 L 139.52 91.95 L 139.52 119.38 L 116.61 119.38 L 116.61 91.95 Z M 163.09 91.95 L 186.01 91.95 L 186.01 119.38 L 163.09 119.38 L 163.09 91.95 Z" fill="var(--icon-secondary, #6c8ebf)" stroke="none" stroke-width="0"/></svg>