<svg xmlns="http://www.w3.org/2000/svg" viewBox="0 0 1284.36 718.53" width="1284.36" height="718.53"><path d="M 286.14 0 C 252.02 0 224.11 27.9 224.11 62.02 L 224.11 250.27 L 155.89 250.27 L 0 155.33 L 0 563.2 L 159.39 468.25 L 224.11 468.25 L 224.11 656.51 C 224.11 690.62 252.02 718.53 286.14 718.53 L 1222.34 718.53 C 1256.46 718.53 1284.36 690.62 1284.36 656.51 L 1284.36 62.02 C 1284.36 27.9 1256.46 0 1222.34 0 Z M 286.14 28.35 L 1222.34 28.35 C 1241.24 28.35 1256.01 43.12 1256.01 62.02 L 1256.01 656.51 C 1256.01 675.41 1241.24 690.18 1222.34 690.18 L 286.14 690.18 C 267.24 690.18 252.46 675.41 252.46 656.51 L 252.46 62.02 C 252.46 43.12 267.24 28.35 286.14 28.35 Z" fill="var(--icon-primary, #dae8fc)" stroke="none" stroke-width="0"/></svg>