<svg xmlns="http://www.w3.org/2000/svg" viewBox="0 0 3640.71 2036.76" width="3640.71" height="2036.76"><path d="M 3464.91 0 L 811.1 0 C 714.4 0 635.28 79.1 635.28 175.79 L 635.28 709.42 L 441.89 709.42 L 0 440.3 L 0 1596.46 L 451.82 1327.33 L 635.29 1327.33 L 635.29 1860.97 C 635.29 1957.67 714.41 2036.76 811.1 2036.76 L 3464.92 2036.76 C 3561.62 2036.76 3640.71 1957.66 3640.71 1860.97 L 3640.71 175.79 C 3640.7 79.1 3561.61 0 3464.91 0 L 3464.91 0 Z" fill="var(--icon-secondary, #6c8ebf)" stroke="none" stroke-width="0"/><path d="M 3560.36 175.8 L 3560.36 1860.98 C 3560.36 1914.55 3518.49 1956.42 3464.92 1956.42 L 811.1 1956.42 C 757.53 1956.42 715.64 1914.55 715.64 1860.98 L 715.64 175.79 C 715.64 122.22 757.53 80.35 811.1 80.35 L 3464.92 80.35 C 3518.49 80.36 3560.36 122.23 3560.36 175.8 L 3560.36 175.8 Z" fill="var(--icon-secondary, #6c8ebf)" stroke="none" stroke-width="0"/></svg>