<svg xmlns="http://www.w3.org/2000/svg" viewBox="0 0 78.36 151.06" width="78.36" height="151.06"><path d="M 54.97 97.86 L 69.34 97.86 C 70.37 97.86 71.2 98.69 71.2 99.72 L 71.2 113.67 C 71.2 114.7 70.37 115.53 69.34 115.53 L 54.97 115.53 C 53.94 115.53 53.11 114.7 53.11 113.67 L 53.11 99.72 C 53.11 98.69 53.94 97.86 54.97 97.86 Z M 31.99 97.86 L 46.37 97.86 C 47.4 97.86 48.23 98.69 48.23 99.72 L 48.23 113.67 C 48.23 114.7 47.4 115.53 46.37 115.53 L 32 115.53 C 30.96 115.53 30.13 114.7 30.13 113.67 L 30.13 99.72 C 30.13 98.69 30.96 97.86 32 97.86 Z M 9.02 97.86 L 23.39 97.86 C 24.42 97.86 25.25 98.69 25.25 99.72 L 25.25 113.67 C 25.25 114.7 24.42 115.53 23.39 115.53 L 9.02 115.53 C 7.99 115.53 7.16 114.7 7.16 113.67 L 7.16 99.72 C 7.16 98.69 7.99 97.86 9.02 97.86 Z M 54.97 69.97 L 69.34 69.97 C 70.37 69.97 71.2 70.8 71.2 71.83 L 71.2 85.77 C 71.2 86.81 70.37 87.64 69.34 87.64 L 54.97 87.64 C 53.94 87.64 53.11 86.81 53.11 85.77 L 53.11 71.83 C 53.11 70.8 53.94 69.97 54.97 69.97 Z M 31.99 69.97 L 46.37 69.97 C 47.4 69.97 48.23 70.8 48.23 71.83 L 48.23 85.77 C 48.23 86.81 47.4 87.64 46.37 87.64 L 32 87.64 C 30.96 87.64 30.13 86.81 30.13 85.77 L 30.13 71.83 C 30.13 70.8 30.96 69.97 32 69.97 Z M 9.02 69.97 L 23.39 69.97 C 24.42 69.97 25.25 70.8 25.25 71.83 L 25.25 85.77 C 25.25 86.81 24.42 87.64 23.39 87.64 L 9.02 87.64 C 7.99 87.64 7.16 86.81 7.16 85.77 L 7.16 71.83 C 7.16 70.8 7.99 69.97 9.02 69.97 Z M 54.97 42.08 L 69.34 42.08 C 70.37 42.08 71.2 42.91 71.2 43.94 L 71.2 57.88 C 71.2 58.91 70.37 59.74 69.34 59.74 L 54.97 59.74 C 53.94 59.74 53.11 58.91 53.11 57.88 L 53.11 43.94 C 53.11 42.91 53.94 42.08 54.97 42.08 Z M 31.99 42.08 L 46.37 42.08 C 47.4 42.08 48.23 42.91 48.23 43.94 L 48.23 57.88 C 48.23 58.91 47.4 59.74 46.37 59.74 L 31.99 59.74 C 30.96 59.74 30.13 58.91 30.13 57.88 L 30.13 43.94 C 30.13 42.91 30.96 42.08 31.99 42.08 Z M 9.02 42.08 L 23.39 42.08 C 24.42 42.08 25.25 42.91 25.25 43.94 L 25.25 57.88 C 25.25 58.91 24.42 59.74 23.39 59.74 L 9.02 59.74 C 7.99 59.74 7.16 58.91 7.16 57.88 L 7.16 43.94 C 7.16 42.91 7.99 42.08 9.02 42.08 Z M 39.18 133.24 C 35.7 133.24 32.88 136.06 32.88 139.54 C 32.88 143.02 35.7 145.84 39.18 145.84 C 42.66 145.84 45.48 143.02 45.48 139.54 C 45.48 136.06 42.66 133.24 39.18 133.24 Z M 3.72 128.69 L 74.64 128.69 L 74.64 33.54 L 3.72 33.54 Z M 23.05 18.06 L 54.57 18.06 L 54.57 14.7 L 23.05 14.7 Z M 7.54 0 L 70.82 0 C 75 0 78.36 3.36 78.36 7.54 L 78.36 143.52 C 78.36 147.7 75 151.06 70.82 151.06 L 7.54 151.06 C 3.36 151.06 0 147.7 0 143.52 L 0 7.54 C 0 3.36 3.36 0 7.54 0 Z" fill="var(--icon-primary, #dae8fc)" stroke="none" stroke-width="0"/></svg>