<svg xmlns="http://www.w3.org/2000/svg" viewBox="0 0 222.13 428.21" width="222.13" height="428.21"><path d="M 200.76 0 L 21.37 0 C 9.53 0 0 9.53 0 21.37 L 0 406.84 C 0 418.68 9.53 428.21 21.37 428.21 L 200.76 428.21 C 212.6 428.21 222.13 418.68 222.13 406.84 L 222.13 21.37 C 222.13 9.53 212.6 0 200.76 0 Z" fill="var(--icon-secondary, #6c8ebf)" stroke="none" stroke-width="0"/><path d="M 128.93 395.55 C 128.93 405.41 120.93 413.41 111.06 413.41 C 101.19 413.41 93.2 405.41 93.2 395.55 C 93.2 385.69 101.2 377.68 111.06 377.68 C 120.92 377.68 128.93 385.68 128.93 395.55 Z M 10.55 95.06 L 10.55 364.8 L 211.58 364.8 L 211.58 95.06 L 10.55 95.06 Z M 71.58 322.2 C 71.58 325.12 69.23 327.48 66.3 327.48 L 25.57 327.48 C 22.64 327.48 20.29 325.12 20.29 322.2 L 20.29 282.68 C 20.29 279.75 22.64 277.4 25.57 277.4 L 66.3 277.4 C 69.23 277.4 71.58 279.75 71.58 282.68 L 71.58 322.2 Z M 71.58 243.14 C 71.58 246.06 69.23 248.41 66.3 248.41 L 25.57 248.41 C 22.64 248.41 20.29 246.06 20.29 243.14 L 20.29 203.61 C 20.29 200.69 22.64 198.34 25.57 198.34 L 66.3 198.34 C 69.23 198.34 71.58 200.69 71.58 203.61 L 71.58 243.14 Z M 71.58 164.08 C 71.58 167 69.23 169.35 66.3 169.35 L 25.57 169.35 C 22.64 169.35 20.29 167 20.29 164.08 L 20.29 124.55 C 20.29 121.63 22.64 119.28 25.57 119.28 L 66.3 119.28 C 69.23 119.28 71.58 121.63 71.58 124.55 L 71.58 164.08 Z M 136.71 322.2 C 136.71 325.12 134.35 327.48 131.43 327.48 L 90.69 327.48 C 87.77 327.48 85.42 325.12 85.42 322.2 L 85.42 282.68 C 85.42 279.75 87.77 277.4 90.69 277.4 L 131.43 277.4 C 134.35 277.4 136.71 279.75 136.71 282.68 L 136.71 322.2 Z M 136.71 243.14 C 136.71 246.06 134.35 248.41 131.43 248.41 L 90.69 248.41 C 87.77 248.41 85.42 246.06 85.42 243.14 L 85.42 203.61 C 85.42 200.69 87.77 198.34 90.69 198.34 L 131.43 198.34 C 134.35 198.34 136.71 200.69 136.71 203.61 L 136.71 243.14 Z M 136.71 164.08 C 136.71 167 134.35 169.35 131.43 169.35 L 90.69 169.35 C 87.77 169.35 85.42 167 85.42 164.08 L 85.42 124.55 C 85.42 121.63 87.77 119.28 90.69 119.28 L 131.43 119.28 C 134.35 119.28 136.71 121.63 136.71 124.55 L 136.71 164.08 Z M 201.83 322.2 C 201.83 325.12 199.48 327.48 196.56 327.48 L 155.82 327.48 C 152.9 327.48 150.55 325.12 150.55 322.2 L 150.55 282.68 C 150.55 279.75 152.9 277.4 155.82 277.4 L 196.56 277.4 C 199.48 277.4 201.83 279.75 201.83 282.68 L 201.83 322.2 Z M 201.83 243.14 C 201.83 246.06 199.48 248.41 196.56 248.41 L 155.82 248.41 C 152.9 248.41 150.55 246.06 150.55 243.14 L 150.55 203.61 C 150.55 200.69 152.9 198.34 155.82 198.34 L 196.56 198.34 C 199.48 198.34 201.83 200.69 201.83 203.61 L 201.83 243.14 Z M 201.83 164.08 C 201.83 167 199.48 169.35 196.56 169.35 L 155.82 169.35 C 152.9 169.35 150.55 167 150.55 164.08 L 150.55 124.55 C 150.55 121.63 152.9 119.28 155.82 119.28 L 196.56 119.28 C 199.48 119.28 201.83 121.63 201.83 124.55 L 201.83 164.08 Z M 65.34 41.67 L 154.69 41.67 L 154.69 51.19 L 65.34 51.19 L 65.34 41.67 Z" fill="var(--icon-secondary, #6c8ebf)" stroke="none" stroke-width="0"/></svg>