<svg xmlns="http://www.w3.org/2000/svg" viewBox="0 0 191.72 105.75" width="191.72" height="105.75"><path d="M 45.6 26.43 A 7.5 7.5 0 0 0 38.21 34.03 L 38.21 69.37 A 7.5 7.5 0 1 0 53.21 69.37 L 53.21 34.03 A 7.5 7.5 0 0 0 45.6 26.43 Z M 147.6 26.43 A 7.5 7.5 0 0 0 140.21 34.03 L 140.21 69.37 A 7.5 7.5 0 1 0 155.21 69.37 L 155.21 34.03 A 7.5 7.5 0 0 0 147.6 26.43 Z" fill="var(--icon-secondary, #6c8ebf)" stroke="none" stroke-width="0"/><path d="M 176.08 22.53 A 7.5 7.5 0 0 0 168.69 30.13 L 168.69 73.27 A 7.5 7.5 0 1 0 183.69 73.27 L 183.69 30.13 A 7.5 7.5 0 0 0 176.08 22.53 Z M 16.37 22.53 A 7.5 7.5 0 0 0 8.98 30.13 L 8.98 73.27 A 7.5 7.5 0 1 0 23.98 73.27 L 23.98 30.13 A 7.5 7.5 0 0 0 16.37 22.53 Z" fill="var(--icon-secondary, #6c8ebf)" stroke="none" stroke-width="0"/><rect x="0" y="0" width="0" height="0" fill="none" stroke="var(--icon-secondary, #6c8ebf)" stroke-width="1"/><path d="M 174.67 0.62 C 151.65 0.34 119.99 10.45 95.9 39.4 C 75.04 13.41 44.35 0 7.89 0.64 A 7.5 7.5 0 1 0 8.15 15.63 C 42.39 15.04 68.51 27.19 86.51 51.7 C 68.51 76.21 42.39 88.36 8.15 87.77 A 7.5 7.5 0 1 0 7.89 102.76 C 44.35 103.4 75.04 89.98 95.9 64 C 123.78 97.51 161.81 105.75 184.84 101.91 A 7.5 7.5 0 1 0 182.37 87.12 C 165.2 89.98 129.95 83.32 105.23 51.7 C 129.95 20.08 165.2 13.42 182.37 16.28 A 7.5 7.5 0 1 0 184.84 1.49 C 181.71 0.96 178.3 0.66 174.67 0.62 Z" fill="var(--icon-secondary, #6c8ebf)" stroke="none" stroke-width="0"/></svg>