<svg xmlns="http://www.w3.org/2000/svg" viewBox="0 0 938.03 725.26" width="938.03" height="725.26"><path d="M 44.28 20 L 893.74 20 C 907.37 20 918.03 30.66 918.03 44.28 L 918.03 680.96 C 918.03 694.59 907.37 705.25 893.74 705.25 L 44.28 705.25 C 30.66 705.25 20 694.59 20 680.96 L 20 44.28 C 20 30.66 30.66 20 44.28 20 Z M 44.28 0 C 19.92 0 0 19.92 0 44.28 L 0 680.96 C 0 705.33 19.92 725.26 44.28 725.26 L 893.74 725.26 C 918.1 725.26 938.03 705.33 938.03 680.96 L 938.03 44.28 C 938.03 19.92 918.1 0 893.74 0 Z M 323.9 582.78 L 616.82 582.87 L 616.82 622.66 C 616.82 631.23 610.1 637.95 601.53 637.95 L 339.2 637.95 C 330.63 637.95 323.9 631.23 323.9 622.66 Z M 312.56 569.67 L 312.56 622.66 C 312.56 637.31 324.54 649.29 339.2 649.29 L 601.53 649.29 C 616.18 649.29 628.16 637.31 628.16 622.66 L 628.16 569.97 Z M 616.82 494.12 L 616.82 544.57 L 323.9 544.01 L 323.9 494.31 Z M 312.56 478.63 L 312.56 557.5 L 628.16 557.47 L 628.16 478.72 Z M 463.35 291 L 463.35 315.22 C 463.35 322.78 474.69 322.78 474.69 315.22 L 474.69 291 C 485.11 293.53 492.79 302.87 492.79 314.09 C 492.79 327.28 482.2 337.86 469.02 337.86 C 455.83 337.86 445.25 327.28 445.25 314.09 C 445.25 302.87 452.93 293.53 463.35 291 Z M 391.9 258.72 L 616.82 258.72 L 616.82 455.44 L 323.9 455.25 L 323.9 393.81 L 420.92 393.81 C 443.61 393.81 463.02 374.75 462.59 348.09 L 462.57 346.67 C 464.66 347.08 466.81 347.3 469.02 347.3 C 487.3 347.3 502.23 332.38 502.23 314.09 C 502.23 295.81 487.3 280.88 469.02 280.88 C 450.73 280.88 435.8 295.81 435.8 314.09 C 435.8 327.54 443.88 339.16 455.42 344.37 L 391.9 344.37 Z M 339.2 97.74 L 339.2 97.74 L 601.53 97.74 C 610.1 97.74 616.82 104.47 616.82 113.04 L 616.82 213.03 L 391.9 212.92 L 391.9 192.28 C 391.9 165.63 373.03 145.39 346.53 145.39 L 323.9 145.39 L 323.9 113.04 C 323.9 104.47 330.63 97.74 339.2 97.74 Z M 339.2 86.41 C 324.54 86.41 312.56 98.38 312.56 113.04 L 312.56 145.39 L 171.48 145.39 C 154.64 145.39 143.07 151.83 136.15 160.63 C 129.24 169.43 126.85 180.23 126.85 189.22 L 126.85 193 L 198.26 193 L 198.26 350.76 C 198.26 364.67 204.22 375.58 212.02 382.8 C 219.81 390.03 229.3 393.81 237.39 393.81 L 312.56 393.81 L 312.56 468.27 L 628.16 468.37 L 628.16 243.67 L 391.9 243.67 L 391.9 225.73 L 628.16 225.93 L 628.16 113.04 C 628.16 98.38 616.18 86.41 601.53 86.41 Z" fill="var(--icon-secondary, #6c8ebf)" stroke="none" stroke-width="0"/><path d="M 276.92 351.93 L 454.42 351.93 C 452.99 372.66 438.34 386.25 420.92 386.25 L 257.87 386.25 C 267.83 379.36 275.81 368.03 276.92 351.93 Z M 236.85 308.31 L 236.85 316.49 L 363.29 316.49 L 363.29 308.31 Z M 236.85 254.78 L 236.85 262.96 L 363.29 262.96 L 363.29 254.78 Z M 236.85 199.72 L 236.85 207.9 L 363.29 207.9 L 363.29 199.72 Z M 187.24 152.95 L 346.53 152.95 C 369.32 152.95 384.34 169.05 384.34 192.28 L 384.34 344.37 L 269.71 344.37 L 269.71 348.15 C 269.71 373.44 251.12 386.25 237.39 386.25 C 231.8 386.25 223.61 383.25 217.15 377.26 C 210.69 371.27 205.81 362.54 205.81 350.76 L 205.81 189.22 C 205.81 178.4 200.84 167.77 194.29 159.62 C 192.15 156.95 189.66 155.04 187.24 152.95 Z M 171.48 152.95 C 175.45 152.95 182.72 157.28 188.39 164.35 C 193.24 170.38 196.44 178.07 197.44 185.44 L 134.96 185.44 C 135.54 178.66 137.4 171.27 142.09 165.3 C 147.65 158.23 156.5 152.95 171.48 152.95 Z" fill="var(--icon-secondary, #6c8ebf)" stroke="none" stroke-width="0"/></svg>