<svg xmlns="http://www.w3.org/2000/svg" viewBox="0 0 938.03 725.26" width="938.03" height="725.26"><path d="M 547.61 281.52 C 533.72 281.52 520.97 284.71 509.37 291.08 C 497.84 297.38 488.93 306.66 482.62 318.9 C 476.39 331.08 473.28 345.37 473.28 361.77 C 473.28 376.8 476.03 390.88 481.55 403.98 C 487.13 417.09 495.23 427.11 505.83 434.06 C 516.5 440.94 530.32 444.37 547.29 444.37 C 563.69 444.37 577.55 439.9 588.86 430.95 C 600.25 421.92 608.13 408.85 612.5 391.74 L 591.66 386.47 C 588.79 399.72 583.31 409.71 575.22 416.44 C 567.13 423.18 557.25 426.54 545.57 426.54 C 535.98 426.54 527.06 424.07 518.82 419.13 C 510.59 414.19 504.5 406.74 500.56 396.79 C 496.7 386.76 494.76 375.05 494.76 361.66 C 494.76 351.27 496.41 341.21 499.7 331.47 C 503 321.66 508.69 313.86 516.78 308.05 C 524.95 302.25 535.08 299.35 547.18 299.35 C 557.71 299.35 566.45 301.97 573.39 307.2 C 580.34 312.42 585.64 320.77 589.29 332.22 L 609.81 327.39 C 605.59 312.85 598.1 301.57 587.36 293.55 C 576.62 285.53 563.37 281.52 547.61 281.52 Z M 388.63 281.52 C 374.74 281.52 361.99 284.71 350.39 291.08 C 338.86 297.38 329.94 306.66 323.64 318.9 C 317.41 331.08 314.29 345.37 314.29 361.77 C 314.29 376.8 317.05 390.88 322.56 403.98 C 328.15 417.09 336.24 427.11 346.84 434.06 C 357.51 440.94 371.33 444.37 388.31 444.37 C 404.71 444.37 418.56 439.9 429.88 430.95 C 441.27 421.92 449.14 408.85 453.51 391.74 L 432.67 386.47 C 429.81 399.72 424.33 409.71 416.24 416.44 C 408.14 423.18 398.26 426.54 386.59 426.54 C 376.99 426.54 368.08 424.07 359.84 419.13 C 351.6 414.19 345.52 406.74 341.58 396.79 C 337.71 386.76 335.78 375.05 335.78 361.66 C 335.78 351.27 337.42 341.21 340.72 331.47 C 344.01 321.66 349.71 313.86 357.8 308.05 C 365.96 302.25 376.1 299.35 388.2 299.35 C 398.73 299.35 407.46 301.97 414.41 307.2 C 421.36 312.42 426.66 320.77 430.31 332.22 L 450.83 327.39 C 446.6 312.85 439.12 301.57 428.38 293.55 C 417.63 285.53 404.38 281.52 388.63 281.52 Z M 462.85 160.87 C 574.92 160.87 665.45 251.4 665.45 363.47 C 665.45 475.54 574.92 566.07 462.85 566.07 C 350.78 566.07 260.25 475.54 260.25 363.47 C 260.25 251.4 350.78 160.87 462.85 160.87 Z M 44.28 20 L 893.74 20 C 907.37 20 918.03 30.66 918.03 44.28 L 918.03 680.96 C 918.03 694.59 907.37 705.25 893.74 705.25 L 44.28 705.25 C 30.66 705.25 20 694.59 20 680.96 L 20 44.28 C 20 30.66 30.66 20 44.28 20 Z M 44.28 0 C 19.92 0 0 19.92 0 44.28 L 0 680.96 C 0 705.33 19.92 725.26 44.28 725.26 L 893.74 725.26 C 918.1 725.26 938.03 705.33 938.03 680.96 L 938.03 44.28 C 938.03 19.92 918.1 0 893.74 0 Z M 612.68 597.82 L 681.27 684.49 L 749.86 597.82 Z M 228.46 513.09 L 141.78 581.68 L 228.46 650.27 Z M 462.89 130.45 L 462.89 130.64 C 462.87 130.64 462.86 130.64 462.85 130.64 C 375.56 130.64 299.38 178.89 259.52 250.12 L 259.52 139.84 L 231.18 139.84 L 231.18 340.15 C 230.41 347.82 230.01 355.6 230.01 363.47 C 230.01 451.28 278.84 527.85 350.78 567.51 L 238.89 567.51 L 238.89 595.86 L 448.67 595.86 C 453.36 596.14 458.08 596.3 462.85 596.3 C 550.8 596.3 627.5 547.31 667.1 475.17 L 667.1 587.38 L 695.45 587.38 L 695.45 373.74 C 695.59 370.33 695.68 366.91 695.68 363.47 C 695.68 275.2 646.34 198.27 573.78 158.79 L 691.36 158.79 L 691.36 130.45 Z M 701.79 76.04 L 701.79 213.21 L 788.47 144.62 Z M 245.35 42.73 L 176.76 129.41 L 313.94 129.41 Z" fill="var(--icon-primary, #dae8fc)" stroke="none" stroke-width="0"/></svg>