<svg xmlns="http://www.w3.org/2000/svg" viewBox="0 0 938.03 725.26" width="938.03" height="725.26"><path d="M 361.54 579.48 L 654.46 579.57 L 654.46 619.36 C 654.46 627.93 647.74 634.65 639.17 634.65 L 376.84 634.65 C 368.27 634.65 361.54 627.93 361.54 619.36 Z M 654.46 490.82 L 654.46 541.27 L 361.54 540.71 L 361.54 491.01 Z M 500.99 287.7 L 500.99 311.92 A 5.67 5.67 0 0 0 512.33 311.92 L 512.33 287.7 C 522.75 290.23 530.43 299.57 530.43 310.79 C 530.43 323.97 519.84 334.55 506.66 334.55 C 493.47 334.55 482.89 323.97 482.89 310.79 C 482.89 299.57 490.57 290.23 500.99 287.7 Z M 506.66 277.57 C 488.37 277.57 473.45 292.5 473.45 310.79 C 473.45 329.08 488.37 344 506.66 344 C 524.94 344 539.88 329.08 539.88 310.79 C 539.88 292.5 524.94 277.57 506.66 277.57 Z M 361.54 255.42 L 654.46 255.42 L 654.46 328.9 C 636.58 329.27 615.78 329.44 590.38 329.48 L 590.38 275.31 L 509.11 356.88 L 590.38 438.45 L 590.38 382.39 C 615.25 382.35 636.14 382.13 654.46 381.71 L 654.46 452.14 L 361.54 451.95 Z M 376.84 94.44 L 639.17 94.44 C 647.74 94.44 654.46 101.17 654.46 109.74 L 654.46 209.73 L 361.54 209.59 L 361.54 109.74 C 361.54 101.17 368.27 94.44 376.84 94.44 Z M 208.04 554.35 A 30.6 30.6 0 0 0 177.44 584.95 A 30.6 30.6 0 0 0 208.04 615.55 A 30.6 30.6 0 0 0 238.64 584.95 A 30.6 30.6 0 0 0 208.04 554.35 Z M 208.04 516.47 C 246.02 516.47 276.52 546.97 276.52 584.95 C 276.52 622.93 246.02 653.43 208.04 653.43 C 170.06 653.43 139.55 622.93 139.55 584.95 C 139.55 546.97 170.06 516.47 208.04 516.47 Z M 185.62 332.5 L 164.04 353.67 L 185.25 375.29 L 164.04 396.92 L 185.62 418.1 L 206.42 396.89 L 227.23 418.1 L 248.82 396.92 L 227.6 375.29 L 248.82 353.67 L 227.23 332.5 L 206.42 353.7 Z M 206.43 306.81 C 244.41 306.81 274.91 337.32 274.91 375.29 C 274.91 413.27 244.41 443.78 206.43 443.78 C 168.45 443.78 137.95 413.27 137.95 375.29 C 137.95 337.32 168.45 306.81 206.43 306.81 Z M 252.3 111.54 A 9.45 9.45 0 0 0 251.35 111.55 A 9.45 9.45 0 0 0 244.94 114.58 L 190.8 171.7 L 188.61 142.8 A 9.45 9.45 0 1 0 169.77 144.23 L 173.57 194.4 A 9.45 9.45 0 0 0 189.84 200.18 L 258.65 127.58 A 9.45 9.45 0 0 0 252.3 111.54 Z M 215.54 88.85 C 253.52 88.85 284.02 119.35 284.02 157.33 C 284.02 195.31 253.52 225.81 215.54 225.81 C 177.56 225.81 147.05 195.31 147.05 157.33 C 147.05 119.35 177.56 88.85 215.54 88.85 Z M 350.21 566.37 L 350.21 619.36 C 350.21 634.01 362.18 645.99 376.84 645.99 L 639.17 645.99 C 653.83 645.99 665.8 634.01 665.8 619.36 L 665.8 566.67 Z M 208.04 490.01 C 155.76 490.01 113.1 532.67 113.1 584.95 C 113.1 637.23 155.76 679.89 208.04 679.89 C 260.31 679.89 302.97 637.23 302.97 584.95 C 302.97 532.67 260.31 490.01 208.04 490.01 Z M 350.21 475.33 L 350.21 554.2 L 665.8 554.17 L 665.8 475.42 Z M 206.43 280.36 C 154.15 280.36 111.49 323.02 111.49 375.29 C 111.49 427.57 154.15 470.23 206.43 470.23 C 258.7 470.23 301.37 427.57 301.37 375.29 C 301.37 323.02 258.7 280.36 206.43 280.36 Z M 376.84 83.11 C 362.18 83.11 350.21 95.08 350.21 109.74 L 350.21 222.36 L 665.8 222.63 L 665.8 109.74 C 665.8 95.08 653.83 83.11 639.17 83.11 Z M 215.54 62.39 C 163.26 62.39 120.6 105.05 120.6 157.33 C 120.6 209.61 163.26 252.27 215.54 252.27 C 267.81 252.27 310.47 209.61 310.47 157.33 C 310.47 105.05 267.81 62.39 215.54 62.39 Z M 44.28 20 L 893.74 20 C 907.37 20 918.03 30.66 918.03 44.28 L 918.03 259.76 C 879.76 280.13 846.97 296.86 784.72 313.64 C 744.34 323.08 719.92 327.08 665.8 328.62 L 665.8 240.37 L 350.21 240.37 L 350.21 464.97 L 665.8 465.06 L 665.8 381.42 C 724.94 379.64 754.47 375.08 797.33 365.04 L 797.76 364.94 L 798.18 364.83 C 850.89 350.64 886.24 335.4 918.03 319.4 L 918.03 680.96 C 918.03 694.59 907.37 705.25 893.74 705.25 L 44.28 705.25 C 30.66 705.25 20 694.59 20 680.96 L 20 44.28 C 20 30.66 30.66 20 44.28 20 Z M 44.28 0 C 19.92 0 0 19.92 0 44.28 L 0 680.96 C 0 705.33 19.92 725.26 44.28 725.26 L 893.74 725.26 C 918.1 725.26 938.03 705.33 938.03 680.96 L 938.03 44.28 C 938.03 19.92 918.1 0 893.74 0 Z" fill="var(--icon-primary, #dae8fc)" stroke="none" stroke-width="0"/></svg>