<svg xmlns="http://www.w3.org/2000/svg" viewBox="0 0 721.85 725.26" width="721.85" height="725.26"><path d="M 44.28 0 C 19.92 0 0 19.92 0 44.28 L 0 680.96 C 0 705.33 19.92 725.26 44.28 725.26 L 677.57 725.26 C 701.93 725.26 721.85 705.33 721.85 680.96 L 721.85 44.28 C 721.85 19.92 701.93 0 677.57 0 Z M 44.28 20 L 677.57 20 C 691.2 20 701.86 30.66 701.86 44.28 L 701.86 680.96 C 701.86 694.59 691.2 705.25 677.57 705.25 L 44.28 705.25 C 30.66 705.25 20 694.59 20 680.96 L 20 44.28 C 20 30.66 30.66 20 44.28 20 Z M 475.84 63.72 L 248.36 219.33 L 248.36 341.19 L 154.55 341.19 L 154.55 386.55 L 248.36 386.55 L 248.36 510.48 L 475.84 664.02 L 475.84 511.1 L 569.64 511.1 L 569.64 465.74 L 475.84 465.74 L 475.84 386.55 L 569.64 386.55 L 569.64 341.19 L 475.84 341.19 L 475.84 262 L 569.64 262 L 569.64 216.64 L 475.84 216.64 Z" fill="var(--icon-primary, #dae8fc)" stroke="none" stroke-width="0"/></svg>