<svg xmlns="http://www.w3.org/2000/svg" viewBox="0 0 721.85 725.26" width="721.85" height="725.26"><path d="M 44.28 0 C 19.92 0 0 19.92 0 44.28 L 0 680.96 C 0 705.33 19.92 725.26 44.28 725.26 L 677.57 725.26 C 701.93 725.26 721.85 705.33 721.85 680.96 L 721.85 44.28 C 721.85 19.92 701.93 0 677.57 0 Z M 44.28 20 L 482.92 20 C 455.23 89.34 460.41 161.56 487.05 229.46 C 503.53 275.81 506.64 313.21 499.64 347.36 L 382.81 231.3 C 402.93 227.97 424.69 227.64 448.28 230.5 C 439.86 208.5 434.1 185.39 431.33 161.03 C 429.52 160.97 427.71 160.92 425.91 160.89 C 337.85 159.35 261.8 197.39 210 263.39 L 209.09 264.54 L 208.29 265.77 C 146.13 360.84 141.55 448.01 179.07 545 C 191.99 580.74 195.03 618.86 188.74 655.55 L 74.06 541.63 C 93.36 538.34 114.05 537.84 138.61 539.99 C 130.25 518.68 124.65 495.64 121.62 470.99 C 84.83 470.22 51.69 475.54 20 486.29 L 20 44.28 C 20 30.66 30.66 20 44.28 20 Z M 558.13 20 L 567.18 20 L 701.86 153.78 L 701.86 180.19 C 696.65 182.98 691.02 185.55 684.93 187.83 L 544.24 48.08 C 548.01 38.79 552.63 29.44 558.13 20 Z M 610.09 20 L 677.57 20 C 691.2 20 701.86 30.66 701.86 44.28 L 701.86 111.16 Z M 534.37 80.89 L 650.96 196.71 C 631.64 199.87 609.48 200.7 584.59 198.37 C 594.09 221.7 598.75 244.71 601.21 267.57 C 638.43 268.78 672.3 264.12 701.86 254.12 L 701.86 680.96 C 701.86 694.59 691.2 705.25 677.57 705.25 L 246.54 705.25 C 265.27 645.98 264.64 581.43 242.98 521.66 L 242.85 521.3 L 242.71 520.94 C 222.56 469.07 215.28 430.27 224.84 389.21 L 343.46 507.04 C 321.79 511.03 298.67 511.14 274.13 507.23 C 282.98 529.35 289.58 552.67 293.43 577.45 C 383.66 581.61 465.42 539.99 520.68 465.31 L 521.31 464.47 L 521.88 463.59 C 567.87 392.71 587 307.21 551.04 206.33 L 550.85 205.79 L 550.64 205.25 C 533.22 161.17 526.4 121 534.37 80.89 Z M 348.96 240.29 L 489.63 380.03 C 485.3 390.68 480.01 401.19 473.87 411.75 L 317.13 256.05 C 327.19 249.73 337.78 244.47 348.96 240.29 Z M 292.68 274.38 L 456.4 437.02 C 448.74 446.25 440.74 454.63 432.4 462.15 L 268.5 299.34 C 276.15 290.18 284.2 281.85 292.68 274.38 Z M 251.62 325.19 L 408.31 480.84 C 398.2 487.49 387.66 493.03 376.68 497.43 L 235.47 357.15 C 239.83 346.92 245.21 336.32 251.62 325.19 Z M 40.23 550.64 L 180.08 689.57 C 178.28 694.86 176.27 700.09 174.05 705.25 L 147.09 705.25 L 20 579.01 L 20 559.06 C 26.83 555.87 33.53 553.07 40.23 550.64 Z M 20 621.63 L 104.18 705.25 L 44.28 705.25 C 30.66 705.25 20 694.59 20 680.96 Z" fill="var(--icon-primary, #dae8fc)" stroke="none" stroke-width="0"/></svg>