<svg xmlns="http://www.w3.org/2000/svg" viewBox="0 0 744.45 744.45" width="744.45" height="744.45"><path d="M 359.52 62.34 L 359.52 170.18 L 385.97 170.18 L 385.97 62.34 Z M 211.78 193.14 L 201.85 202.77 L 301.47 333.51 C 297.88 342.38 295.88 352.05 295.88 362.17 C 295.88 404.47 330.45 439.04 372.75 439.04 C 413.59 439.04 447.22 406.81 449.48 366.51 L 676.03 240.41 L 668.72 227.76 L 417.84 300.02 C 405.15 290.78 389.57 285.3 372.75 285.3 C 359.1 285.3 346.27 288.92 335.13 295.21 Z M 372.75 311.75 C 400.75 311.75 423.16 334.17 423.16 362.17 C 423.16 390.17 400.75 412.58 372.75 412.58 C 344.75 412.58 322.34 390.17 322.34 362.17 C 322.34 334.17 344.75 311.75 372.75 311.75 Z M 72.92 348.94 L 72.92 375.4 L 180.75 375.4 L 180.75 348.94 Z M 564.74 348.94 L 564.74 375.4 L 672.57 375.4 L 672.57 348.94 Z M 359.52 554.16 L 359.52 662 L 385.97 662 L 385.97 554.16 Z M 372.22 9.45 C 572.64 9.45 735 171.81 735 372.22 C 735 572.64 572.64 735 372.22 735 C 171.81 735 9.45 572.64 9.45 372.22 C 9.45 171.81 171.81 9.45 372.22 9.45 Z M 372.22 0 C 166.71 0 0 166.71 0 372.22 C 0 577.74 166.71 744.45 372.22 744.45 C 577.74 744.45 744.45 577.74 744.45 372.22 C 744.45 166.71 577.74 0 372.22 0 Z" fill="var(--icon-primary, #dae8fc)" stroke="none" stroke-width="0"/></svg>