<svg xmlns="http://www.w3.org/2000/svg" viewBox="0 0 248.37 150.16" width="248.37" height="150.16"><path d="M 96.51 2.01 C 62 4.89 34.37 29.8 28.63 63.42 C 20.55 66.05 13.44 70.09 8.32 75.45 C 3.14 80.88 0 87.66 0 95.59 C 0 105.17 3.67 113.74 11.98 119.92 C 20.26 126.07 33.1 129.85 51.44 130.13 C 65.31 143.54 85.36 150.16 101.76 150.16 C 123.52 150.16 142.73 140.23 154.81 127.64 C 172.66 129.39 187.84 131.01 203.89 129.94 L 203.89 129.94 C 219.51 128.81 230.62 124.49 237.84 118.22 C 245.06 111.95 248.36 103.72 248.36 94.94 C 248.37 87.7 245.2 81.11 239.75 75.59 C 234.35 70.12 226.7 65.69 217.65 62.61 C 214.02 54.15 208.05 44.8 197.97 39.09 L 197.97 39.09 L 197.96 39.08 C 186.4 32.82 175.18 33.63 164.36 35.87 C 154.22 19.27 130.32 0 96.52 2.01 L 96.51 2.01 Z M 96.59 3.01 C 130.17 1.02 153.85 20.32 163.7 36.67 L 163.88 36.97 L 164.23 36.9 C 175.06 34.63 186.07 33.78 197.48 39.96 C 207.38 45.57 213.26 54.81 216.83 63.2 L 216.91 63.41 L 217.13 63.48 C 226.16 66.52 233.74 70.92 239.04 76.3 C 244.34 81.67 247.37 87.99 247.36 94.94 C 247.36 103.47 244.2 111.38 237.19 117.47 C 230.18 123.55 219.29 127.83 203.82 128.94 C 187.8 130.01 172.63 128.39 154.68 126.63 L 154.44 126.6 L 154.27 126.78 C 142.38 139.25 123.32 149.16 101.76 149.16 C 85.57 149.16 65.63 142.57 51.99 129.28 L 51.85 129.14 L 51.65 129.14 C 33.33 128.89 20.65 125.11 12.58 119.11 C 4.51 113.12 1 104.92 1 95.59 C 1 87.93 4.01 81.41 9.04 76.14 C 14.07 70.87 21.14 66.85 29.22 64.27 L 29.51 64.17 L 29.56 63.87 C 35.11 30.55 62.42 5.87 96.59 3.01 Z" fill="var(--icon-primary, #dae8fc)" stroke="none" stroke-width="0"/></svg>