<svg xmlns="http://www.w3.org/2000/svg" viewBox="0 0 247.38 149.16" width="247.38" height="149.16"><path d="M 154.13 126.62 C 142.15 139.19 122.97 149.16 101.26 149.16 C 84.94 149.16 64.9 142.54 51.14 129.14 C 14.37 128.64 0 113.99 0 95.09 C 0 79.5 12.29 68.5 28.56 63.29 C 34.15 29.75 61.66 4.88 96.05 2.01 C 129.83 0 153.69 19.4 163.63 35.91 C 174.51 33.64 185.68 32.77 197.22 39.02 C 207.26 44.71 213.19 54.06 216.79 62.51 C 234.96 68.62 247.38 80.25 247.36 94.44 C 247.36 111.76 234.44 126.7 203.36 128.94 C 187.28 130.01 172.08 128.39 154.13 126.62 Z" fill="var(--icon-primary, #dae8fc)" stroke="none" stroke-width="0"/><path d="M 197.87 53.25 C 196.1 51.49 194.11 49.93 191.88 48.66 C 183.37 44.08 175.79 44.61 165.88 46.68 L 158.24 48.28 L 154.21 41.59 C 146.32 28.5 126.05 11.31 96.83 13 C 67.27 15.52 44.18 36.5 39.41 65.1 L 38.31 71.72 L 31.92 73.77 C 25.15 75.93 19.62 79.24 16.13 82.89 C 12.75 86.44 11.09 89.98 11 94.7 Z" fill="#ffffff" stroke="none" stroke-width="0" opacity="0.5"/></svg>