<svg xmlns="http://www.w3.org/2000/svg" viewBox="0 0 248.19 191.89" width="248.19" height="191.89"><path d="M 88.26 53.7 L 99.07 67.16 L 77.44 67.16 Z M 90.75 69.04 L 90.75 105.46 C 90.76 105.78 90.77 106.11 90.77 106.45 C 90.77 114.23 87.07 121.17 81.36 125.59 L 104.2 125.59 L 104.2 130.57 L 66.79 130.57 C 53.57 130.57 42.81 119.73 42.81 106.45 C 42.81 98.68 46.5 91.74 52.2 87.33 L 29.38 87.33 L 29.38 82.35 L 65.81 82.35 C 66.14 82.34 66.46 82.33 66.79 82.33 C 74.51 82.33 81.38 86.02 85.77 91.73 L 85.77 69.04 Z M 27.5 74.02 L 27.5 95.66 L 14.04 84.84 Z M 66.79 87.33 C 56.29 87.33 47.81 95.85 47.81 106.45 C 47.81 117.04 56.29 125.57 66.79 125.57 C 77.29 125.57 85.77 117.04 85.77 106.45 C 85.77 95.85 77.29 87.33 66.79 87.33 Z M 106.08 117.26 L 119.54 128.08 L 106.08 138.9 Z M 161.59 53.7 L 150.77 67.16 L 172.41 67.16 Z M 159.1 69.04 L 159.1 105.46 C 159.08 105.78 159.08 106.11 159.08 106.45 C 159.08 114.23 162.77 121.17 168.49 125.59 L 145.65 125.59 L 145.65 130.57 L 183.05 130.57 C 196.27 130.57 207.03 119.73 207.03 106.45 C 207.03 98.68 203.35 91.74 197.64 87.33 L 220.46 87.33 L 220.46 82.35 L 184.03 82.35 C 183.71 82.34 183.38 82.33 183.05 82.33 C 175.34 82.33 168.46 86.02 164.08 91.73 L 164.08 69.04 Z M 222.34 74.02 L 222.34 95.66 L 235.8 84.84 Z M 183.05 87.33 C 193.55 87.33 202.03 95.85 202.03 106.45 C 202.03 117.04 193.55 125.57 183.05 125.57 C 172.55 125.57 164.08 117.04 164.08 106.45 C 164.08 95.85 172.55 87.33 183.05 87.33 Z M 143.76 117.26 L 130.3 128.08 L 143.76 138.9 Z M 11.72 0 C 5.27 0 0 5.27 0 11.72 L 0 180.17 C 0 186.62 5.27 191.89 11.72 191.89 L 236.47 191.89 C 242.91 191.89 248.19 186.62 248.19 180.17 L 248.19 11.72 C 248.19 5.27 242.91 0 236.47 0 Z M 11.72 5.29 L 236.47 5.29 C 240.07 5.29 242.89 8.11 242.89 11.72 L 242.89 180.17 C 242.89 183.78 240.07 186.6 236.47 186.6 L 11.72 186.6 C 8.11 186.6 5.29 183.78 5.29 180.17 L 5.29 11.72 C 5.29 8.11 8.11 5.29 11.72 5.29 Z" fill="var(--icon-primary, #dae8fc)" stroke="none" stroke-width="0"/></svg>