<svg xmlns="http://www.w3.org/2000/svg" viewBox="0 0 248.19 191.89" width="248.19" height="191.89"><path d="M 11.72 5.29 L 236.47 5.29 C 240.07 5.29 242.89 8.11 242.89 11.72 L 242.89 180.17 C 242.89 183.78 240.07 186.6 236.47 186.6 L 11.72 186.6 C 8.11 186.6 5.29 183.78 5.29 180.17 L 5.29 11.72 C 5.29 8.11 8.11 5.29 11.72 5.29 Z M 11.72 0 C 5.27 0 0 5.27 0 11.72 L 0 180.17 C 0 186.62 5.27 191.89 11.72 191.89 L 236.47 191.89 C 242.91 191.89 248.19 186.62 248.19 180.17 L 248.19 11.72 C 248.19 5.27 242.91 0 236.47 0 Z M 17.49 18.84 L 230.94 18.84 L 230.94 172.14 L 17.49 172.14 Z" fill="var(--icon-secondary, #6c8ebf)" stroke="none" stroke-width="0"/><path d="M 51.28 91.29 L 91.76 91.29 L 91.76 47.03 L 51.28 47.03 Z M 104.3 91.29 L 144.77 91.29 L 144.77 47.03 L 104.3 47.03 Z M 157.24 91.29 L 197.72 91.29 L 197.72 47.03 L 157.24 47.03 Z M 51.28 144.97 L 91.76 144.97 L 91.76 100.7 L 51.28 100.7 Z M 104.3 144.97 L 144.77 144.97 L 144.77 100.7 L 104.3 100.7 Z M 157.24 144.97 L 197.72 144.97 L 197.72 100.7 L 157.24 100.7 Z" fill="var(--icon-secondary, #6c8ebf)" stroke="none" stroke-width="0"/></svg>