<svg xmlns="http://www.w3.org/2000/svg" viewBox="0 0 248.19 191.89" width="248.19" height="191.89"><path d="M 195.46 61.48 C 194.87 61.48 194.34 61.76 194 62.06 C 193.67 62.37 193.46 62.7 193.27 63.05 C 192.89 63.75 192.62 64.58 192.35 65.6 C 191.83 67.63 191.39 70.4 191 73.7 C 190.2 80.3 189.57 89.03 188.98 97.76 C 188.38 106.48 187.82 115.2 187.17 121.69 C 186.92 124.18 186.64 125.94 186.36 127.63 C 186.22 126.52 186.06 125.64 185.95 124.2 C 185.55 119.2 185.3 112.46 185.04 105.72 C 184.79 98.98 184.53 92.23 184.11 87.11 C 183.9 84.56 183.66 82.42 183.33 80.82 C 183.16 80.02 182.99 79.37 182.71 78.78 C 182.58 78.48 182.42 78.2 182.13 77.91 C 181.84 77.62 181.34 77.31 180.75 77.31 C 179.72 77.31 179.22 78 178.94 78.47 C 178.66 78.94 178.48 79.43 178.3 80.02 C 177.95 81.19 177.64 82.72 177.33 84.55 C 176.73 88.21 176.16 93 175.56 97.79 C 174.97 102.58 174.36 107.35 173.68 110.87 C 173.45 112.05 173.22 112.79 172.99 113.62 C 172.82 112.82 172.65 112.14 172.49 111.04 C 171.98 107.57 171.5 102.87 170.98 98.15 C 170.46 93.44 169.9 88.71 169.17 85.08 C 168.8 83.26 168.41 81.73 167.9 80.53 C 167.64 79.92 167.36 79.39 166.95 78.92 C 166.53 78.45 165.86 77.99 165.05 77.99 C 164.49 77.99 164.04 78.28 163.79 78.52 C 163.54 78.77 163.4 78.99 163.29 79.22 C 163.05 79.67 162.9 80.14 162.75 80.7 C 162.45 81.83 162.18 83.31 161.92 85.08 C 161.4 88.61 160.89 93.26 160.36 97.9 C 159.82 102.53 159.25 107.16 158.62 110.56 C 158.41 111.67 158.2 112.36 157.99 113.15 C 157.9 112.81 157.82 112.63 157.73 112.23 C 157.18 109.85 156.6 106.59 156.02 103.33 C 155.43 100.07 154.85 96.8 154.27 94.29 C 153.99 93.04 153.71 91.99 153.39 91.15 C 153.24 90.73 153.08 90.37 152.84 90.01 C 152.59 89.65 152.16 89.05 151.22 89.05 L 151.21 89.05 L 133.87 89.19 L 133.89 92.19 L 150.52 92.06 C 150.55 92.13 150.55 92.12 150.58 92.2 C 150.81 92.79 151.08 93.78 151.35 94.97 C 151.9 97.35 152.48 100.6 153.06 103.86 C 153.65 107.12 154.23 110.39 154.81 112.9 C 155.09 114.16 155.38 115.21 155.69 116.05 C 155.85 116.47 156 116.83 156.25 117.19 C 156.49 117.55 156.93 118.14 157.87 118.14 C 158.76 118.14 159.36 117.57 159.7 117.11 C 160.04 116.64 160.26 116.14 160.47 115.56 C 160.89 114.39 161.24 112.89 161.57 111.11 C 162.23 107.55 162.8 102.89 163.34 98.24 C 163.87 93.59 164.38 88.95 164.89 85.52 C 165.07 84.33 165.24 83.55 165.42 82.71 C 165.69 83.55 165.97 84.39 166.23 85.67 C 166.92 89.1 167.48 93.78 168 98.48 C 168.52 103.18 168.99 107.88 169.52 111.47 C 169.78 113.27 170.06 114.78 170.39 115.94 C 170.56 116.52 170.73 117.01 171 117.47 C 171.28 117.94 171.8 118.64 172.81 118.64 C 173.7 118.64 174.31 118.07 174.66 117.6 C 175.01 117.13 175.24 116.61 175.46 116.01 C 175.91 114.81 176.27 113.27 176.63 111.43 C 177.33 107.76 177.95 102.95 178.54 98.16 C 179.14 93.36 179.71 88.58 180.29 85.04 C 180.41 84.36 180.52 84.01 180.64 83.43 C 180.81 84.63 180.99 85.7 181.12 87.36 C 181.53 92.36 181.79 99.09 182.04 105.83 C 182.3 112.57 182.55 119.32 182.96 124.44 C 183.16 126.99 183.4 129.13 183.72 130.72 C 183.88 131.52 184.05 132.17 184.32 132.76 C 184.45 133.05 184.6 133.34 184.88 133.63 C 185.17 133.92 185.68 134.24 186.27 134.24 C 186.95 134.24 187.48 133.85 187.76 133.53 C 188.04 133.21 188.2 132.89 188.35 132.55 C 188.64 131.86 188.85 131.05 189.05 130.05 C 189.47 128.04 189.82 125.29 190.15 121.99 C 190.81 115.4 191.38 106.68 191.97 97.96 C 192.57 89.24 193.19 80.53 193.97 74.06 C 194.33 71.11 194.73 68.81 195.14 67.04 C 195.36 68.79 195.55 70.94 195.68 73.76 C 195.97 80.14 196.06 88.71 196.18 97.28 C 196.31 105.86 196.46 114.43 196.87 120.92 C 197.08 124.17 197.34 126.88 197.73 128.88 C 197.92 129.88 198.13 130.7 198.45 131.4 C 198.61 131.75 198.8 132.08 199.12 132.4 C 199.44 132.73 199.98 133.04 200.59 133.04 C 201.2 133.04 201.72 132.73 202.04 132.43 C 202.35 132.13 202.55 131.81 202.72 131.47 C 203.07 130.8 203.31 130 203.56 129.02 C 204.05 127.07 204.46 124.42 204.85 121.25 C 205.64 114.9 206.3 106.51 206.96 98.12 C 207.62 89.74 208.28 81.36 209.04 75.13 C 209.42 72.01 209.83 69.42 210.25 67.71 C 210.29 67.56 210.31 67.53 210.35 67.39 C 210.61 68.17 210.88 68.97 211.14 70.16 C 211.84 73.3 212.5 77.58 213.12 81.85 C 213.74 86.13 214.33 90.41 214.9 93.65 C 215.19 95.27 215.46 96.62 215.77 97.65 C 215.92 98.17 216.07 98.6 216.31 99.02 C 216.43 99.23 216.56 99.45 216.84 99.68 C 217.11 99.92 217.62 100.18 218.19 100.12 L 218 100.13 L 233.62 100.26 L 233.64 97.26 L 218.77 97.13 C 218.72 97.01 218.7 96.98 218.64 96.8 C 218.41 95.99 218.13 94.7 217.85 93.13 C 217.3 89.99 216.71 85.72 216.09 81.42 C 215.47 77.13 214.8 72.82 214.07 69.51 C 213.7 67.86 213.33 66.47 212.88 65.38 C 212.65 64.83 212.42 64.36 212.07 63.92 C 211.72 63.48 211.13 62.97 210.28 62.97 C 209.66 62.97 209.14 63.28 208.83 63.59 C 208.52 63.89 208.33 64.21 208.16 64.55 C 207.82 65.22 207.58 66.02 207.34 66.99 C 206.86 68.94 206.45 71.6 206.06 74.77 C 205.29 81.11 204.63 89.5 203.97 97.89 C 203.31 106.27 202.65 114.65 201.88 120.88 C 201.5 123.96 201.09 126.5 200.66 128.22 C 200.33 126.47 200.06 123.88 199.86 120.73 C 199.46 114.37 199.31 105.81 199.18 97.24 C 199.06 88.67 198.97 80.1 198.67 73.62 C 198.52 70.38 198.33 67.68 198.04 65.7 C 197.89 64.72 197.73 63.92 197.49 63.24 C 197.37 62.9 197.23 62.58 196.96 62.24 C 196.7 61.9 196.16 61.48 195.46 61.48 Z M 79.96 116.31 L 67.33 80.95 L 75.07 80.95 L 84.02 107.12 L 92.67 80.95 L 100.25 80.95 L 87.58 116.31 Z M 54.31 23.39 L 69.27 42 L 39.35 42 Z M 57.75 44.61 L 57.75 75.99 C 63.82 68.09 73.33 62.98 84 62.98 C 84.45 62.98 84.9 63 85.35 63.01 L 135.73 63.01 L 135.77 63.01 L 135.77 69.9 L 135.73 69.9 L 104.18 69.9 C 112.09 76.01 117.2 85.61 117.2 96.37 C 117.2 96.83 117.18 97.29 117.16 97.74 L 117.16 148.1 L 110.28 148.1 L 110.28 116.72 C 104.21 124.62 94.71 129.73 84.04 129.73 C 83.58 129.73 83.13 129.71 82.68 129.7 L 32.3 129.7 L 32.27 129.7 L 32.27 122.81 L 32.3 122.81 L 63.86 122.81 C 55.95 116.7 50.84 107.1 50.84 96.34 C 50.84 95.88 50.85 95.42 50.87 94.97 L 50.87 44.61 Z M 138.34 51.5 L 156.95 66.46 L 138.34 81.42 Z M 84.04 69.93 C 69.51 69.93 57.79 81.71 57.79 96.37 C 57.79 104.61 61.5 111.95 67.33 116.79 C 67.33 116.79 67.33 116.79 67.33 116.79 C 67.37 116.82 67.41 116.85 67.44 116.88 C 67.72 117.11 68 117.33 68.29 117.55 C 72.67 120.84 78.1 122.78 84 122.78 C 98.52 122.78 110.24 111 110.24 96.34 C 110.24 88.1 106.54 80.77 100.71 75.93 C 100.4 75.67 100.08 75.41 99.75 75.17 C 95.37 71.87 89.94 69.93 84.04 69.93 Z M 29.66 111.29 L 29.66 141.21 L 11.05 126.25 Z M 128.68 150.71 L 113.72 169.32 L 98.76 150.71 Z M 11.72 0 C 5.27 0 0 5.27 0 11.72 L 0 180.17 C 0 186.62 5.27 191.89 11.72 191.89 L 236.47 191.89 C 242.91 191.89 248.19 186.62 248.19 180.17 L 248.19 11.72 C 248.19 5.27 242.91 0 236.47 0 Z M 11.72 5.29 L 236.47 5.29 C 240.07 5.29 242.89 8.11 242.89 11.72 L 242.89 180.17 C 242.89 183.78 240.07 186.6 236.47 186.6 L 11.72 186.6 C 8.11 186.6 5.29 183.78 5.29 180.17 L 5.29 11.72 C 5.29 8.11 8.11 5.29 11.72 5.29 Z" fill="var(--icon-primary, #dae8fc)" stroke="none" stroke-width="0"/></svg>