<svg xmlns="http://www.w3.org/2000/svg" viewBox="0 0 248.19 191.89" width="248.19" height="191.89"><path d="M 11.72 5.29 L 236.47 5.29 C 240.07 5.29 242.89 8.11 242.89 11.72 L 242.89 180.17 C 242.89 183.78 240.07 186.6 236.47 186.6 L 11.72 186.6 C 8.11 186.6 5.29 183.78 5.29 180.17 L 5.29 11.72 C 5.29 8.11 8.11 5.29 11.72 5.29 Z M 11.72 0 C 5.27 0 0 5.27 0 11.72 L 0 180.17 C 0 186.62 5.27 191.89 11.72 191.89 L 236.47 191.89 C 242.91 191.89 248.19 186.62 248.19 180.17 L 248.19 11.72 C 248.19 5.27 242.91 0 236.47 0 Z M 200.41 131.02 L 176.67 147.91 L 200.41 164.79 L 200.41 153.3 L 227.64 153.3 L 227.64 142.51 L 200.41 142.51 Z M 203.48 92.43 L 203.48 103.92 L 176.25 103.92 L 176.25 114.71 L 203.48 114.71 L 203.48 126.2 L 227.22 109.32 Z M 47.35 131.45 L 47.35 142.94 L 20.13 142.94 L 20.13 153.74 L 47.35 153.74 L 47.35 165.23 L 71.09 148.34 Z M 44.48 92.76 L 20.75 109.64 L 44.48 126.53 L 44.48 115.04 L 71.71 115.04 L 71.71 104.25 L 44.48 104.25 Z M 92.45 63.16 C 88.57 63.16 85.4 66.33 85.4 70.21 L 85.4 164.21 C 85.4 168.08 88.57 171.25 92.45 171.25 L 159.78 171.25 C 163.65 171.25 166.82 168.08 166.82 164.21 L 166.82 70.21 C 166.82 66.33 163.65 63.16 159.78 63.16 Z M 71.39 73.84 C 77.72 73.84 82.87 68.69 82.87 62.36 L 82.87 57.98 L 38.96 57.87 L 38.96 62.36 C 38.96 68.69 44.1 73.84 50.43 73.84 Z M 213.79 55.69 L 213.79 34.67 C 213.79 28.34 208.65 23.2 202.32 23.2 L 50.43 23.2 C 44.1 23.2 38.96 28.34 38.96 34.67 L 38.96 55.63 Z M 202.32 73.84 C 208.65 73.84 213.79 68.69 213.79 62.36 L 213.79 57.93 L 169.05 57.77 L 169.05 62.36 C 169.05 68.69 174.19 73.84 180.52 73.84 Z" fill="var(--icon-primary, #dae8fc)" stroke="none" stroke-width="0"/><path d="M 50.43 70.84 C 45.71 70.84 41.96 67.08 41.96 62.36 L 41.96 60.79 L 79.87 60.84 L 79.87 62.36 C 79.87 67.08 76.11 70.84 71.39 70.84 Z M 41.96 52.75 L 41.96 34.67 C 41.96 29.95 45.71 26.2 50.43 26.2 L 202.32 26.2 C 207.04 26.2 210.79 29.95 210.79 34.67 L 210.79 52.79 Z M 180.52 70.84 C 175.8 70.84 172.05 67.08 172.05 62.36 L 172.05 61.36 L 210.79 61.27 L 210.79 62.36 C 210.79 67.08 207.04 70.84 202.32 70.84 Z M 93.53 72.06 L 93.53 99.36 L 159.16 99.36 L 159.16 72.06 Z M 93.53 106.2 L 93.53 161.97 L 159.06 161.97 L 159.06 106.2 Z M 92.45 66.16 L 159.78 66.16 C 162.04 66.16 163.82 67.94 163.82 70.21 L 163.82 164.21 C 163.82 166.47 162.04 168.25 159.78 168.25 L 92.45 168.25 C 90.18 168.25 88.4 166.47 88.4 164.21 L 88.4 70.21 C 88.4 67.94 90.18 66.16 92.45 66.16 Z" fill="var(--icon-secondary, #6c8ebf)" stroke="none" stroke-width="0"/></svg>