<svg xmlns="http://www.w3.org/2000/svg" viewBox="0 0 248.19 191.89" width="248.19" height="191.89"><path d="M 165.71 165.43 L 173.2 154.11 L 130.74 126 L 135.15 119.33 L 177.62 147.44 L 184.74 136.68 L 199.68 167.41 Z M 165.43 26.72 L 172.92 38.04 L 130.45 66.15 L 134.87 72.82 L 177.34 44.71 L 184.46 55.47 L 199.4 24.74 Z M 186.49 78.43 L 186.49 92.01 L 135.56 92.01 L 135.56 100.01 L 186.49 100.01 L 186.49 112.91 L 215.9 95.54 Z M 83 78.43 L 83 92.01 L 32.07 92.01 L 32.07 100.01 L 83 100.01 L 83 112.91 L 112.42 95.54 Z M 11.72 0 C 5.27 0 0 5.27 0 11.72 L 0 180.17 C 0 186.62 5.27 191.89 11.72 191.89 L 236.47 191.89 C 242.91 191.89 248.19 186.62 248.19 180.17 L 248.19 11.72 C 248.19 5.27 242.91 0 236.47 0 Z M 11.72 5.29 L 236.47 5.29 C 240.07 5.29 242.89 8.11 242.89 11.72 L 242.89 180.17 C 242.89 183.78 240.07 186.6 236.47 186.6 L 11.72 186.6 C 8.11 186.6 5.29 183.78 5.29 180.17 L 5.29 11.72 C 5.29 8.11 8.11 5.29 11.72 5.29 Z" fill="var(--icon-primary, #dae8fc)" stroke="none" stroke-width="0"/></svg>