<svg xmlns="http://www.w3.org/2000/svg" viewBox="0 0 248.19 191.89" width="248.19" height="191.89"><path d="M 157.73 102.74 L 163.17 104.12 Q 161.46 110.83 157 114.37 Q 152.56 117.88 146.13 117.88 Q 139.48 117.88 135.29 115.18 Q 131.14 112.46 128.95 107.32 Q 126.79 102.18 126.79 96.29 Q 126.79 89.86 129.23 85.08 Q 131.7 80.28 136.22 77.81 Q 140.77 75.31 146.22 75.31 Q 152.39 75.31 156.6 78.46 Q 160.82 81.6 162.47 87.3 L 157.11 88.56 Q 155.68 84.07 152.95 82.02 Q 150.23 79.97 146.1 79.97 Q 141.36 79.97 138.16 82.25 Q 134.99 84.52 133.69 88.37 Q 132.4 92.19 132.4 96.26 Q 132.4 101.51 133.92 105.44 Q 135.46 109.34 138.69 111.28 Q 141.92 113.22 145.68 113.22 Q 150.26 113.22 153.43 110.58 Q 156.6 107.94 157.73 102.74 Z M 116.17 102.74 L 121.62 104.12 Q 119.91 110.83 115.44 114.37 Q 111.01 117.88 104.58 117.88 Q 97.92 117.88 93.74 115.18 Q 89.58 112.46 87.39 107.32 Q 85.23 102.18 85.23 96.29 Q 85.23 89.86 87.67 85.08 Q 90.15 80.28 94.67 77.81 Q 99.21 75.31 104.66 75.31 Q 110.84 75.31 115.05 78.46 Q 119.26 81.6 120.92 87.3 L 115.56 88.56 Q 114.12 84.07 111.4 82.02 Q 108.68 79.97 104.55 79.97 Q 99.8 79.97 96.6 82.25 Q 93.43 84.52 92.14 88.37 Q 90.85 92.19 90.85 96.26 Q 90.85 101.51 92.36 105.44 Q 93.91 109.34 97.14 111.28 Q 100.37 113.22 104.13 113.22 Q 108.7 113.22 111.88 110.58 Q 115.05 107.94 116.17 102.74 Z M 141.09 40.52 L 129.6 40.52 L 129.6 67.74 L 118.81 67.74 L 118.81 40.52 L 107.32 40.52 L 124.2 16.78 Z M 141.09 152.67 L 129.6 152.67 L 129.6 125.45 L 118.81 125.45 L 118.81 152.67 L 107.32 152.67 L 124.2 176.41 Z M 201.08 79.71 L 177.35 96.6 L 201.08 113.48 L 201.08 101.99 L 228.31 101.99 L 228.31 91.2 L 201.08 91.2 Z M 47.32 79.71 L 47.32 91.2 L 20.1 91.2 L 20.1 101.99 L 47.32 101.99 L 47.32 113.48 L 71.06 96.6 Z M 11.72 0 C 5.27 0 0 5.27 0 11.72 L 0 180.17 C 0 186.62 5.27 191.89 11.72 191.89 L 236.47 191.89 C 242.91 191.89 248.19 186.62 248.19 180.17 L 248.19 11.72 C 248.19 5.27 242.91 0 236.47 0 Z M 11.72 5.29 L 236.47 5.29 C 240.07 5.29 242.89 8.11 242.89 11.72 L 242.89 180.17 C 242.89 183.78 240.07 186.6 236.47 186.6 L 11.72 186.6 C 8.11 186.6 5.29 183.78 5.29 180.17 L 5.29 11.72 C 5.29 8.11 8.11 5.29 11.72 5.29 Z" fill="var(--icon-primary, #dae8fc)" stroke="none" stroke-width="0"/></svg>