<svg xmlns="http://www.w3.org/2000/svg" viewBox="0 0 248.19 191.89" width="248.19" height="191.89"><path d="M 158.73 136.55 L 163.7 136.55 L 163.7 164.86 L 158.73 164.86 Z M 143.24 136.55 L 148.21 136.55 L 148.21 164.86 L 143.24 164.86 Z M 185.9 133.64 L 219.18 133.64 L 219.18 167.77 L 185.9 167.77 Z M 82.17 132 L 118.02 150.71 L 82.17 169.41 Z M 61.05 150.71 A 16.9 16.9 0 0 1 44.15 167.6 A 16.9 16.9 0 0 1 27.26 150.71 A 16.9 16.9 0 0 1 44.15 133.81 A 16.9 16.9 0 0 1 61.05 150.71 Z M 200.98 72.14 L 177.24 89.02 L 200.98 105.91 L 200.98 94.42 L 228.2 94.42 L 228.2 83.62 L 200.98 83.62 Z M 204.47 22.78 L 204.47 34.27 L 177.24 34.27 L 177.24 45.06 L 204.47 45.06 L 204.47 56.55 L 228.2 39.67 Z M 48.54 71.85 L 48.54 83.34 L 21.32 83.34 L 21.32 94.13 L 48.54 94.13 L 48.54 105.62 L 72.28 88.74 Z M 45.05 22.78 L 21.32 39.67 L 45.05 56.55 L 45.05 45.06 L 72.28 45.06 L 72.28 34.27 L 45.05 34.27 Z M 149.54 33.86 A 17.13 17.13 0 0 0 132.4 51 A 17.13 17.13 0 0 0 140.52 65.54 C 134.2 73.03 130.63 82.88 130.63 92.63 L 130.63 109.28 L 168.44 109.28 L 168.44 92.63 C 168.44 82.77 163.97 73.31 158.05 65.84 A 17.13 17.13 0 0 0 166.67 51 A 17.13 17.13 0 0 0 149.54 33.86 Z M 100.16 33.86 A 17.13 17.13 0 0 0 83.03 51 A 17.13 17.13 0 0 0 91.15 65.54 C 84.83 73.03 81.25 82.88 81.25 92.63 L 81.25 109.28 L 119.06 109.28 L 119.06 92.63 C 119.06 82.77 114.6 73.31 108.68 65.84 A 17.13 17.13 0 0 0 117.29 51 A 17.13 17.13 0 0 0 100.16 33.86 Z M 11.72 0 C 5.27 0 0 5.27 0 11.72 L 0 180.17 C 0 186.62 5.27 191.89 11.72 191.89 L 236.47 191.89 C 242.91 191.89 248.19 186.62 248.19 180.17 L 248.19 11.72 C 248.19 5.27 242.91 0 236.47 0 Z M 11.72 5.29 L 236.47 5.29 C 240.07 5.29 242.89 8.11 242.89 11.72 L 242.89 180.17 C 242.89 183.78 240.07 186.6 236.47 186.6 L 11.72 186.6 C 8.11 186.6 5.29 183.78 5.29 180.17 L 5.29 11.72 C 5.29 8.11 8.11 5.29 11.72 5.29 Z" fill="var(--icon-primary, #dae8fc)" stroke="none" stroke-width="0"/></svg>