<svg xmlns="http://www.w3.org/2000/svg" viewBox="0 0 196.97 196.97" width="196.97" height="196.97"><path d="M 79.37 166.21 C 72.81 165.85 64.42 163.73 64.42 157.42 C 64.42 151.24 68.41 149.23 72.93 147.17 C 75.11 137.83 78.98 132.03 88.64 128.89 C 98.8 126.38 108.55 130.7 113.44 139.7 C 116.26 137.73 119.83 137.39 123.23 139.37 C 127.14 141.8 128.46 144.37 129.11 146.98 C 133.97 148.28 138.93 152.07 137.82 157.83 C 136.79 162.73 133.03 164.8 127.29 165.62 C 122.96 166.2 114.82 165.78 110.54 165 C 106.51 169 101.5 172.32 94.02 172.32 C 88.48 172.22 83.17 169.95 79.37 166.21 Z M 144.67 132.13 L 122.6 110.48 L 113.62 119.64 L 106.75 86.62 L 140 92.74 L 131.1 101.82 L 153.17 123.46 Z M 95.15 90.13 L 73.5 112.2 L 82.66 121.18 L 49.64 128.05 L 55.76 94.8 L 64.84 103.7 L 86.48 81.63 Z M 53.48 24.35 L 75.56 45.99 L 84.54 36.83 L 91.4 69.86 L 58.16 63.73 L 67.06 54.65 L 44.99 33.01 Z M 102.1 66.1 L 123.75 44.03 L 114.59 35.04 L 147.61 28.18 L 141.49 61.42 L 132.41 52.52 L 110.76 74.59 Z M 98.48 0 C 44.11 0 0 44.11 0 98.48 C 0 152.86 44.11 196.97 98.48 196.97 C 152.86 196.97 196.97 152.86 196.97 98.48 C 196.97 44.11 152.86 0 98.48 0 Z M 98.48 2.5 C 151.51 2.5 194.47 45.46 194.47 98.48 C 194.47 151.51 151.51 194.47 98.48 194.47 C 45.46 194.47 2.5 151.51 2.5 98.48 C 2.5 45.46 45.46 2.5 98.48 2.5 Z" fill="var(--icon-primary, #dae8fc)" stroke="none" stroke-width="0"/></svg>