<svg xmlns="http://www.w3.org/2000/svg" viewBox="0 0 248.19 191.89" width="248.19" height="191.89"><path d="M 202.33 30.16 C 202.94 32.28 203.86 34.99 205.11 38.28 L 209.19 49.12 L 195.92 49.12 L 200.22 37.64 C 201.13 35.17 201.83 32.67 202.33 30.16 Z M 199.66 26.05 L 184.63 65.19 L 190.13 65.19 L 194.43 53.34 L 210.8 53.34 L 215.36 65.19 L 221.26 65.19 L 205.24 26.05 Z M 199.76 77.72 L 202.68 110.1 L 194.69 106.41 L 173.01 153.36 L 75.74 153.58 L 75.71 138.58 L 163.4 138.39 L 181.07 100.13 L 173.22 96.5 Z M 32.16 132.39 L 40.39 132.39 C 43.47 132.39 45.7 132.66 47.09 133.19 C 49.01 133.94 50.64 135.42 51.97 137.62 C 53.33 139.81 54 142.96 54 147.05 C 54 150 53.66 152.52 52.96 154.61 C 52.28 156.67 51.33 158.32 50.1 159.54 C 49.23 160.42 48.06 161.09 46.58 161.57 C 45.12 162.05 43.1 162.3 40.52 162.3 L 32.16 162.3 Z M 26.98 127.77 L 26.98 166.91 L 41.11 166.91 C 43.47 166.91 45.57 166.69 47.38 166.25 C 49.21 165.8 50.77 165.15 52.05 164.3 C 53.35 163.43 54.55 162.24 55.63 160.75 C 56.72 159.23 57.61 157.33 58.3 155.03 C 59 152.74 59.34 150.1 59.34 147.13 C 59.34 143.64 58.83 140.54 57.79 137.84 C 56.78 135.11 55.24 132.88 53.17 131.14 C 51.59 129.78 49.68 128.85 47.43 128.33 C 45.83 127.96 43.51 127.77 40.47 127.77 Z M 11.72 0 C 5.27 0 0 5.27 0 11.72 L 0 180.17 C 0 186.62 5.27 191.89 11.72 191.89 L 236.47 191.89 C 242.91 191.89 248.19 186.62 248.19 180.17 L 248.19 11.72 C 248.19 5.27 242.91 0 236.47 0 Z M 11.72 5.29 L 236.47 5.29 C 240.07 5.29 242.89 8.11 242.89 11.72 L 242.89 180.17 C 242.89 183.78 240.07 186.6 236.47 186.6 L 11.72 186.6 C 8.11 186.6 5.29 183.78 5.29 180.17 L 5.29 11.72 C 5.29 8.11 8.11 5.29 11.72 5.29 Z" fill="var(--icon-primary, #dae8fc)" stroke="none" stroke-width="0"/></svg>