<svg xmlns="http://www.w3.org/2000/svg" viewBox="0 0 938.03 725.26" width="938.03" height="725.26"><path d="M 104.13 93.81 L 104.13 241.74 L 157.51 241.74 C 166.46 241.74 174.37 240.9 181.23 239.22 C 188.16 237.54 194.04 235.08 198.89 231.86 C 203.8 228.56 208.31 224.08 212.41 218.43 C 216.51 212.72 219.88 205.52 222.5 196.84 C 225.12 188.16 226.44 178.2 226.44 166.97 C 226.44 153.78 224.49 142.08 220.58 131.85 C 216.75 121.56 210.93 113.12 203.12 106.52 C 197.14 101.41 189.91 97.88 181.43 95.93 C 175.38 94.51 166.6 93.81 155.09 93.81 Z M 123.71 111.27 L 154.79 111.27 C 166.43 111.27 174.87 112.27 180.12 114.29 C 187.38 117.12 193.54 122.7 198.58 131.04 C 203.7 139.32 206.25 151.19 206.25 166.67 C 206.25 177.83 204.94 187.35 202.32 195.22 C 199.76 203.03 196.16 209.25 191.52 213.89 C 188.23 217.19 183.78 219.75 178.2 221.56 C 172.68 223.38 165.05 224.29 155.29 224.29 L 123.71 224.29 Z M 178.91 292.66 L 167.87 415.06 L 198.1 401.11 L 280.04 578.57 L 647.67 579.37 L 647.78 522.67 L 316.34 521.96 L 249.57 377.35 L 279.23 363.66 Z M 751.82 482.52 L 695 630.45 L 715.79 630.45 L 732.04 585.65 L 793.9 585.65 L 811.15 630.45 L 833.45 630.45 L 772.91 482.52 Z M 761.91 498.05 C 764.2 506.06 767.69 516.29 772.4 528.73 L 787.84 569.7 L 737.69 569.7 L 753.94 526.31 C 757.37 516.96 760.02 507.54 761.91 498.05 Z M 44.28 0 C 19.92 0 0 19.92 0 44.28 L 0 680.96 C 0 705.33 19.92 725.26 44.28 725.26 L 893.74 725.26 C 918.1 725.26 938.03 705.33 938.03 680.96 L 938.03 44.28 C 938.03 19.92 918.1 0 893.74 0 Z M 44.28 20 L 893.74 20 C 907.37 20 918.03 30.66 918.03 44.28 L 918.03 680.96 C 918.03 694.59 907.37 705.25 893.74 705.25 L 44.28 705.25 C 30.66 705.25 20 694.59 20 680.96 L 20 44.28 C 20 30.66 30.66 20 44.28 20 Z" fill="var(--icon-primary, #dae8fc)" stroke="none" stroke-width="0"/></svg>