<svg xmlns="http://www.w3.org/2000/svg" viewBox="0 0 190.99 191.89" width="190.99" height="191.89"><path d="M 98.62 27.59 C 79.45 27.59 62.06 30.23 49.17 35.17 C 42.72 37.64 37.37 40.68 33.49 44.45 C 29.61 48.21 27.2 52.87 27.2 57.99 L 27.2 57.99 L 27.28 137.51 L 27.58 138.12 C 32.03 147.32 42.9 152.82 55.25 156.39 C 67.6 159.96 81.71 161.48 93.49 161.48 C 107.04 161.48 122.63 159.5 135.7 155.62 C 148.78 151.73 159.77 146.25 162.94 137.13 L 163.11 136.66 L 163.63 58 L 163.63 57.99 C 163.63 53.07 160.85 48.72 156.8 45.11 C 152.75 41.49 147.31 38.43 141.06 35.86 C 128.56 30.72 112.8 27.59 98.62 27.59 Z M 98.62 33.59 C 111.9 33.59 127.14 36.62 138.78 41.41 C 144.6 43.8 149.51 46.64 152.8 49.58 C 156.09 52.52 157.63 55.36 157.63 57.99 L 157.63 57.99 C 157.63 60.88 156.07 63.66 152.72 66.49 C 149.37 69.32 144.34 71.96 138.35 74.12 C 126.37 78.45 110.6 80.91 96.62 80.91 C 77.2 80.91 60.91 77.91 49.75 73.36 C 44.17 71.09 39.88 68.43 37.13 65.74 C 34.38 63.04 33.2 60.47 33.2 57.99 C 33.2 54.68 34.62 51.71 37.67 48.75 C 40.71 45.8 45.38 43.05 51.31 40.77 C 63.18 36.23 80.01 33.59 98.62 33.59 Z M 157.55 70.13 L 157.11 135.47 C 155.01 140.73 146.1 146.27 133.99 149.86 C 121.64 153.53 106.44 155.48 93.49 155.48 C 82.23 155.48 68.52 153.98 56.91 150.63 C 45.61 147.36 36.61 142.21 33.28 136 L 33.21 70.24 C 36.73 73.6 41.53 76.5 47.49 78.92 C 59.67 83.88 76.59 86.91 96.62 86.91 C 111.3 86.91 127.53 84.41 140.39 79.77 C 146.82 77.44 152.42 74.6 156.59 71.07 C 156.94 70.78 157.22 70.44 157.55 70.13 Z M 11.72 5.29 L 179.27 5.29 C 182.88 5.29 185.7 8.11 185.7 11.72 L 185.7 180.17 C 185.7 183.78 182.88 186.6 179.27 186.6 L 11.72 186.6 C 8.11 186.6 5.29 183.78 5.29 180.17 L 5.29 11.72 C 5.29 8.11 8.11 5.29 11.72 5.29 Z M 11.72 0 C 5.27 0 0 5.27 0 11.72 L 0 180.17 C 0 186.62 5.27 191.89 11.72 191.89 L 179.27 191.89 C 185.72 191.89 190.99 186.62 190.99 180.17 L 190.99 11.72 C 190.99 5.27 185.72 0 179.27 0 Z" fill="var(--icon-primary, #dae8fc)" stroke="none" stroke-width="0"/></svg>