<svg xmlns="http://www.w3.org/2000/svg" viewBox="0 0 473.85 326.06" width="473.85" height="326.06"><path d="M 154.64 0 L 154.64 110.1 L 0 110.1 L 0 326.06 L 2.83 326.06 L 473.85 326.06 L 473.85 110.1 L 321 110.1 L 321 0 L 154.64 0 Z" fill="var(--icon-secondary, #6c8ebf)" stroke="none" stroke-width="0"/><path d="M 160.31 5.67 L 315.33 5.67 L 315.33 115.77 L 468.18 115.77 L 468.18 320.39 L 5.67 320.39 L 5.67 115.77 L 160.31 115.77 L 160.31 5.67 Z" fill="var(--icon-secondary, #6c8ebf)" stroke="none" stroke-width="0"/><rect x="0" y="0" width="0" height="0" fill="none" stroke="var(--icon-secondary, #6c8ebf)" stroke-width="1"/><path d="M 171.52 18.15 L 171.52 59.66 L 210.14 59.66 L 210.14 18.15 L 171.52 18.15 Z M 217.62 18.15 L 217.62 59.66 L 256.24 59.66 L 256.24 18.15 L 217.62 18.15 Z M 263.71 18.15 L 263.71 59.66 L 302.33 59.66 L 302.33 18.15 L 263.71 18.15 Z M 177.19 23.82 L 204.47 23.82 L 204.47 53.99 L 177.19 53.99 L 177.19 23.82 Z M 223.29 23.82 L 250.57 23.82 L 250.57 53.99 L 223.29 53.99 L 223.29 23.82 Z M 269.38 23.82 L 296.66 23.82 L 296.66 53.99 L 269.38 53.99 L 269.38 23.82 Z M 171.52 71.26 L 171.52 112.78 L 210.14 112.78 L 210.14 71.26 L 171.52 71.26 Z M 217.62 71.26 L 217.62 112.78 L 256.24 112.78 L 256.24 71.26 L 217.62 71.26 Z M 263.71 71.26 L 263.71 112.78 L 302.33 112.78 L 302.33 71.26 L 263.71 71.26 Z M 177.19 76.93 L 204.47 76.93 L 204.47 107.11 L 177.19 107.11 L 177.19 76.93 Z M 223.29 76.93 L 250.57 76.93 L 250.57 107.11 L 223.29 107.11 L 223.29 76.93 Z M 269.38 76.93 L 296.66 76.93 L 296.66 107.11 L 269.38 107.11 L 269.38 76.93 Z M 14.89 124.35 L 14.89 165.86 L 53.51 165.86 L 53.51 124.35 L 14.89 124.35 Z M 60.98 124.35 L 60.98 165.86 L 99.6 165.86 L 99.6 124.35 L 60.98 124.35 Z M 107.07 124.35 L 107.07 165.86 L 145.69 165.86 L 145.69 124.35 L 107.07 124.35 Z M 328.16 124.35 L 328.16 165.86 L 366.78 165.86 L 366.78 124.35 L 328.16 124.35 Z M 374.25 124.35 L 374.25 165.86 L 412.87 165.86 L 412.87 124.35 L 374.25 124.35 Z M 420.34 124.35 L 420.34 165.86 L 458.96 165.86 L 458.96 124.35 L 420.34 124.35 Z M 171.52 124.38 L 171.52 165.89 L 210.14 165.89 L 210.14 124.38 L 171.52 124.38 Z M 217.62 124.38 L 217.62 165.89 L 256.24 165.89 L 256.24 124.38 L 217.62 124.38 Z M 263.71 124.38 L 263.71 165.89 L 302.33 165.89 L 302.33 124.38 L 263.71 124.38 Z M 20.56 130.02 L 47.84 130.02 L 47.84 160.19 L 20.56 160.19 L 20.56 130.02 Z M 66.65 130.02 L 93.93 130.02 L 93.93 160.19 L 66.65 160.19 L 66.65 130.02 Z M 112.74 130.02 L 140.02 130.02 L 140.02 160.19 L 112.74 160.19 L 112.74 130.02 Z M 333.83 130.02 L 361.11 130.02 L 361.11 160.19 L 333.83 160.19 L 333.83 130.02 Z M 379.92 130.02 L 407.2 130.02 L 407.2 160.19 L 379.92 160.19 L 379.92 130.02 Z M 426.01 130.02 L 453.29 130.02 L 453.29 160.19 L 426.01 160.19 L 426.01 130.02 Z M 177.19 130.05 L 204.47 130.05 L 204.47 160.22 L 177.19 160.22 L 177.19 130.05 Z M 223.29 130.05 L 250.57 130.05 L 250.57 160.22 L 223.29 160.22 L 223.29 130.05 Z M 269.38 130.05 L 296.66 130.05 L 296.66 160.22 L 269.38 160.22 L 269.38 130.05 Z M 14.89 177.47 L 14.89 218.98 L 53.51 218.98 L 53.51 177.47 L 14.89 177.47 Z M 60.98 177.47 L 60.98 218.98 L 99.6 218.98 L 99.6 177.47 L 60.98 177.47 Z M 107.07 177.47 L 107.07 218.98 L 145.69 218.98 L 145.69 177.47 L 107.07 177.47 Z M 328.16 177.47 L 328.16 218.98 L 366.78 218.98 L 366.78 177.47 L 328.16 177.47 Z M 374.25 177.47 L 374.25 218.98 L 412.87 218.98 L 412.87 177.47 L 374.25 177.47 Z M 420.34 177.47 L 420.34 218.98 L 458.96 218.98 L 458.96 177.47 L 420.34 177.47 Z M 171.52 177.5 L 171.52 219.01 L 210.14 219.01 L 210.14 177.5 L 171.52 177.5 Z M 217.62 177.5 L 217.62 219.01 L 256.24 219.01 L 256.24 177.5 L 217.62 177.5 Z M 263.71 177.5 L 263.71 219.01 L 302.33 219.01 L 302.33 177.5 L 263.71 177.5 Z M 20.56 183.14 L 47.84 183.14 L 47.84 213.31 L 20.56 213.31 L 20.56 183.14 Z M 66.65 183.14 L 93.93 183.14 L 93.93 213.31 L 66.65 213.31 L 66.65 183.14 Z M 112.74 183.14 L 140.02 183.14 L 140.02 213.31 L 112.74 213.31 L 112.74 183.14 Z M 333.83 183.14 L 361.11 183.14 L 361.11 213.31 L 333.83 213.31 L 333.83 183.14 Z M 379.92 183.14 L 407.2 183.14 L 407.2 213.31 L 379.92 213.31 L 379.92 183.14 Z M 426.01 183.14 L 453.29 183.14 L 453.29 213.31 L 426.01 213.31 L 426.01 183.14 Z M 177.19 183.17 L 204.47 183.17 L 204.47 213.34 L 177.19 213.34 L 177.19 183.17 Z M 223.29 183.17 L 250.57 183.17 L 250.57 213.34 L 223.29 213.34 L 223.29 183.17 Z M 269.38 183.17 L 296.66 183.17 L 296.66 213.34 L 269.38 213.34 L 269.38 183.17 Z M 14.89 230.58 L 14.89 272.1 L 53.51 272.1 L 53.51 230.58 L 14.89 230.58 Z M 60.98 230.58 L 60.98 272.1 L 99.6 272.1 L 99.6 230.58 L 60.98 230.58 Z M 107.07 230.58 L 107.07 272.1 L 145.69 272.1 L 145.69 230.58 L 107.07 230.58 Z M 328.16 230.58 L 328.16 272.1 L 366.78 272.1 L 366.78 230.58 L 328.16 230.58 Z M 374.25 230.58 L 374.25 272.1 L 412.87 272.1 L 412.87 230.58 L 374.25 230.58 Z M 420.34 230.58 L 420.34 272.1 L 458.96 272.1 L 458.96 230.58 L 420.34 230.58 Z M 20.56 236.25 L 47.84 236.25 L 47.84 266.43 L 20.56 266.43 L 20.56 236.25 Z M 66.65 236.25 L 93.93 236.25 L 93.93 266.43 L 66.65 266.43 L 66.65 236.25 Z M 112.74 236.25 L 140.02 236.25 L 140.02 266.43 L 112.74 266.43 L 112.74 236.25 Z M 333.83 236.25 L 361.11 236.25 L 361.11 266.43 L 333.83 266.43 L 333.83 236.25 Z M 379.92 236.25 L 407.2 236.25 L 407.2 266.43 L 379.92 266.43 L 379.92 236.25 Z M 426.01 236.25 L 453.29 236.25 L 453.29 266.43 L 426.01 266.43 L 426.01 236.25 Z" fill="var(--icon-secondary, #6c8ebf)" stroke="none" stroke-width="0"/></svg>