<svg xmlns="http://www.w3.org/2000/svg" viewBox="0 0 167.16 115.03" width="167.16" height="115.03"><path d="M 60.51 6.4 L 60.51 7.4 L 60.51 21.05 L 74.13 21.05 L 74.13 6.4 Z M 76.77 6.4 L 76.77 7.4 L 76.77 21.05 L 90.39 21.05 L 90.39 6.4 Z M 93.03 6.4 L 93.03 7.4 L 93.03 21.05 L 106.65 21.05 L 106.65 6.4 Z M 62.51 8.4 L 72.13 8.4 L 72.13 19.05 L 62.51 19.05 Z M 78.77 8.4 L 88.39 8.4 L 88.39 19.05 L 78.77 19.05 Z M 95.03 8.4 L 104.65 8.4 L 104.65 19.05 L 95.03 19.05 Z M 60.51 25.14 L 60.51 26.14 L 60.51 39.79 L 74.13 39.79 L 74.13 25.14 Z M 76.77 25.14 L 76.77 26.14 L 76.77 39.79 L 90.39 39.79 L 90.39 25.14 Z M 93.03 25.14 L 93.03 26.14 L 93.03 39.79 L 106.65 39.79 L 106.65 25.14 Z M 62.51 27.14 L 72.13 27.14 L 72.13 37.79 L 62.51 37.79 Z M 78.77 27.14 L 88.39 27.14 L 88.39 37.79 L 78.77 37.79 Z M 95.03 27.14 L 104.65 27.14 L 104.65 37.79 L 95.03 37.79 Z M 5.25 43.87 L 5.25 44.87 L 5.25 58.51 L 18.88 58.51 L 18.88 43.87 Z M 21.51 43.87 L 21.51 44.87 L 21.51 58.51 L 35.14 58.51 L 35.14 43.87 Z M 37.77 43.87 L 37.77 44.87 L 37.77 58.51 L 51.4 58.51 L 51.4 43.87 Z M 115.77 43.87 L 115.77 44.87 L 115.77 58.51 L 129.39 58.51 L 129.39 43.87 Z M 132.03 43.87 L 132.03 44.87 L 132.03 58.51 L 145.65 58.51 L 145.65 43.87 Z M 148.29 43.87 L 148.29 44.87 L 148.29 58.51 L 161.91 58.51 L 161.91 43.87 Z M 60.51 43.88 L 60.51 44.88 L 60.51 58.52 L 74.13 58.52 L 74.13 43.88 Z M 76.77 43.88 L 76.77 44.88 L 76.77 58.52 L 90.39 58.52 L 90.39 43.88 Z M 93.03 43.88 L 93.03 44.88 L 93.03 58.52 L 106.65 58.52 L 106.65 43.88 Z M 7.25 45.87 L 16.88 45.87 L 16.88 56.51 L 7.25 56.51 Z M 23.51 45.87 L 33.14 45.87 L 33.14 56.51 L 23.51 56.51 Z M 39.77 45.87 L 49.4 45.87 L 49.4 56.51 L 39.77 56.51 Z M 117.77 45.87 L 127.39 45.87 L 127.39 56.51 L 117.77 56.51 Z M 134.03 45.87 L 143.65 45.87 L 143.65 56.51 L 134.03 56.51 Z M 150.29 45.87 L 159.91 45.87 L 159.91 56.51 L 150.29 56.51 Z M 62.51 45.88 L 72.13 45.88 L 72.13 56.52 L 62.51 56.52 Z M 78.77 45.88 L 88.39 45.88 L 88.39 56.52 L 78.77 56.52 Z M 95.03 45.88 L 104.65 45.88 L 104.65 56.52 L 95.03 56.52 Z M 5.25 62.61 L 5.25 63.61 L 5.25 77.25 L 18.88 77.25 L 18.88 62.61 Z M 21.51 62.61 L 21.51 63.61 L 21.51 77.25 L 35.14 77.25 L 35.14 62.61 Z M 37.77 62.61 L 37.77 63.61 L 37.77 77.25 L 51.4 77.25 L 51.4 62.61 Z M 115.77 62.61 L 115.77 63.61 L 115.77 77.25 L 129.39 77.25 L 129.39 62.61 Z M 132.03 62.61 L 132.03 63.61 L 132.03 77.25 L 145.65 77.25 L 145.65 62.61 Z M 148.29 62.61 L 148.29 63.61 L 148.29 77.25 L 161.91 77.25 L 161.91 62.61 Z M 60.51 62.62 L 60.51 63.62 L 60.51 77.26 L 74.13 77.26 L 74.13 62.62 Z M 76.77 62.62 L 76.77 63.62 L 76.77 77.26 L 90.39 77.26 L 90.39 62.62 Z M 93.03 62.62 L 93.03 63.62 L 93.03 77.26 L 106.65 77.26 L 106.65 62.62 Z M 7.25 64.61 L 16.88 64.61 L 16.88 75.25 L 7.25 75.25 Z M 23.51 64.61 L 33.14 64.61 L 33.14 75.25 L 23.51 75.25 Z M 39.77 64.61 L 49.4 64.61 L 49.4 75.25 L 39.77 75.25 Z M 117.77 64.61 L 127.39 64.61 L 127.39 75.25 L 117.77 75.25 Z M 134.03 64.61 L 143.65 64.61 L 143.65 75.25 L 134.03 75.25 Z M 150.29 64.61 L 159.91 64.61 L 159.91 75.25 L 150.29 75.25 Z M 62.51 64.62 L 72.13 64.62 L 72.13 75.26 L 62.51 75.26 Z M 78.77 64.62 L 88.39 64.62 L 88.39 75.26 L 78.77 75.26 Z M 95.03 64.62 L 104.65 64.62 L 104.65 75.26 L 95.03 75.26 Z M 5.25 81.34 L 5.25 82.34 L 5.25 95.99 L 18.88 95.99 L 18.88 81.34 Z M 21.51 81.34 L 21.51 82.34 L 21.51 95.99 L 35.14 95.99 L 35.14 81.34 Z M 37.77 81.34 L 37.77 82.34 L 37.77 95.99 L 51.4 95.99 L 51.4 81.34 Z M 115.77 81.34 L 115.77 82.34 L 115.77 95.99 L 129.39 95.99 L 129.39 81.34 Z M 132.03 81.34 L 132.03 82.34 L 132.03 95.99 L 145.65 95.99 L 145.65 81.34 Z M 148.29 81.34 L 148.29 82.34 L 148.29 95.99 L 161.91 95.99 L 161.91 81.34 Z M 7.25 83.34 L 16.88 83.34 L 16.88 93.99 L 7.25 93.99 Z M 23.51 83.34 L 33.14 83.34 L 33.14 93.99 L 23.51 93.99 Z M 39.77 83.34 L 49.4 83.34 L 49.4 93.99 L 39.77 93.99 Z M 117.77 83.34 L 127.39 83.34 L 127.39 93.99 L 117.77 93.99 Z M 134.03 83.34 L 143.65 83.34 L 143.65 93.99 L 134.03 93.99 Z M 150.29 83.34 L 159.91 83.34 L 159.91 93.99 L 150.29 93.99 Z M 54.55 0 L 54.55 38.84 L 0 38.84 L 0 115.03 L 1 115.03 L 167.16 115.03 L 167.16 38.84 L 113.24 38.84 L 113.24 0 Z M 56.55 2 L 111.24 2 L 111.24 40.84 L 165.16 40.84 L 165.16 113.03 L 2 113.03 L 2 40.84 L 56.55 40.84 Z" fill="var(--icon-primary, #dae8fc)" stroke="none" stroke-width="0"/></svg>