<svg xmlns="http://www.w3.org/2000/svg" viewBox="0 0 306.56 543.79" width="306.56" height="543.79"><path d="M 14.17 161.3 L 14.17 347.86 L 292.39 347.86 L 292.39 161.3 L 14.17 161.3 Z" fill="var(--icon-secondary, #6c8ebf)" stroke="none" stroke-width="0"/><path d="M 272.96 14.17 L 33.24 14.17 C 22.57 14.17 14.17 22.55 14.17 33.22 L 14.17 121.91 L 292.39 121.91 L 292.39 33.22 C 292.39 22.55 283.64 14.17 272.96 14.17 L 272.96 14.17 Z" fill="var(--icon-secondary, #6c8ebf)" stroke="none" stroke-width="0"/><rect x="0" y="0" width="0" height="0" fill="none" stroke="var(--icon-secondary, #6c8ebf)" stroke-width="1"/><path d="M 253.09 71.77 C 251.2 68.68 248.57 66.25 245.18 64.5 C 241.83 62.7 236.64 60.98 229.6 59.32 C 222.57 57.66 218.15 56.06 216.32 54.53 C 214.89 53.33 214.17 51.88 214.17 50.19 C 214.17 48.33 214.94 46.85 216.47 45.75 C 218.85 44.02 222.13 43.16 226.33 43.16 C 230.53 43.16 233.45 43.97 235.46 45.6 C 237.51 47.19 238.85 49.83 239.47 53.51 L 253.92 52.87 C 253.69 46.3 251.3 41.04 246.74 37.1 C 242.22 33.16 235.46 31.19 226.48 31.19 C 220.98 31.19 216.27 32.02 212.37 33.68 C 208.49 35.34 205.52 37.77 203.43 40.96 C 201.38 44.12 200.36 47.52 200.36 51.17 C 200.36 56.83 202.55 61.63 206.95 65.57 C 210.07 68.37 215.51 70.73 223.26 72.65 C 229.28 74.15 233.14 75.19 234.83 75.77 C 237.3 76.65 239.03 77.7 240 78.9 C 241.01 80.07 241.52 81.5 241.52 83.2 C 241.52 85.83 240.33 88.14 237.95 90.13 C 235.61 92.08 232.11 93.06 227.46 93.06 C 223.06 93.06 219.56 91.95 216.96 89.74 C 214.39 87.53 212.68 84.06 211.83 79.34 L 197.77 80.71 C 198.71 88.71 201.61 94.82 206.46 99.02 C 211.31 103.18 218.26 105.27 227.31 105.27 C 233.53 105.27 238.72 104.4 242.89 102.68 C 247.05 100.92 250.27 98.25 252.55 94.67 C 254.83 91.09 255.97 87.25 255.97 83.15 C 255.97 78.62 255.01 74.83 253.09 71.77 L 253.09 71.77 Z M 172.67 32.42 L 172.67 80.22 L 143.37 32.42 L 129.31 32.42 L 129.31 104 L 142.74 104 L 142.74 57.32 L 171.6 104 L 186.1 104 L 186.1 32.42 L 172.67 32.42 L 172.67 32.42 Z M 114.52 52 C 112.95 47.41 110.68 43.53 107.68 40.37 C 104.69 37.22 101.09 35.02 96.89 33.78 C 93.76 32.87 89.22 32.42 83.27 32.42 L 56.85 32.42 L 56.85 104 L 84.05 104 C 89.39 104 93.65 103.49 96.84 102.48 C 101.1 101.12 104.49 99.21 107 96.77 C 110.32 93.55 112.87 89.33 114.66 84.12 C 116.13 79.86 116.86 74.78 116.86 68.89 C 116.86 62.18 116.08 56.55 114.52 52 Z M 100.45 81.39 C 99.48 84.58 98.21 86.87 96.65 88.27 C 95.12 89.67 93.18 90.67 90.83 91.25 C 89.04 91.71 86.13 91.94 82.09 91.94 L 71.3 91.94 L 71.3 44.52 L 77.8 44.52 C 83.69 44.52 87.64 44.75 89.66 45.21 C 92.36 45.79 94.59 46.92 96.35 48.58 C 98.11 50.24 99.48 52.55 100.45 55.51 C 101.43 58.47 101.92 62.72 101.92 68.26 C 101.92 73.8 101.43 78.17 100.45 81.39 Z M 272.96 0 L 33.24 0 C 14.96 0 0 14.94 0 33.22 L 0 136.5 L 306.56 136.5 L 306.56 33.22 C 306.56 14.94 291.25 0 272.96 0 Z M 292.39 121.91 L 14.17 121.91 L 14.17 33.22 C 14.17 22.55 22.57 14.17 33.24 14.17 L 272.96 14.17 C 283.64 14.17 292.39 22.55 292.39 33.22 L 292.39 121.91 L 292.39 121.91 Z M 0 464.54 L 0 510.57 C 0 528.85 14.96 543.79 33.24 543.79 L 272.96 543.79 C 291.25 543.79 306.56 528.85 306.56 510.57 L 306.56 464.54 L 0 464.54 Z M 292.39 510.57 C 292.39 521.25 283.64 529.62 272.96 529.62 L 33.24 529.62 C 22.57 529.62 14.17 521.25 14.17 510.57 L 14.17 479.32 L 292.39 479.32 L 292.39 510.57 Z M 153.46 185.7 C 135.4 185.7 120.65 200.45 120.65 218.51 C 120.65 236.57 135.4 251.31 153.46 251.31 C 171.52 251.31 186.25 236.56 186.25 218.51 C 186.25 200.46 171.51 185.7 153.46 185.7 L 153.46 185.7 Z M 153.46 241.39 C 140.76 241.39 130.57 231.2 130.57 218.51 C 130.57 207.26 138.56 198 149.2 196.02 L 149.2 219.2 C 149.16 221.55 151.03 223.48 153.38 223.53 C 155.73 223.57 157.66 221.7 157.71 219.35 L 157.71 196.02 C 168.35 198 176.33 207.26 176.33 218.51 C 176.33 231.2 166.15 241.39 153.46 241.39 Z M 0 377.14 L 0 450.94 L 306.56 450.94 L 306.56 377.14 L 0 377.14 Z M 292.39 436.76 L 14.17 436.76 L 14.17 391.31 L 292.39 391.31 L 292.39 436.76 Z M 0 147.13 L 0 362.04 L 306.56 362.04 L 306.56 147.13 L 0 147.13 Z M 292.39 347.86 L 14.17 347.86 L 14.17 161.3 L 292.39 161.3 L 292.39 347.86 Z" fill="var(--icon-secondary, #6c8ebf)" stroke="none" stroke-width="0"/><rect x="14.17" y="391.31" width="278.22" height="45.45" fill="var(--icon-secondary, #6c8ebf)" stroke="none" stroke-width="0"/><path d="M 292.39 479.32 L 292.39 510.57 C 292.39 521.25 283.64 529.62 272.96 529.62 L 33.24 529.62 C 22.57 529.62 14.17 521.25 14.17 510.57 L 14.17 479.32 L 292.39 479.32 Z" fill="var(--icon-secondary, #6c8ebf)" stroke="none" stroke-width="0"/></svg>