<svg xmlns="http://www.w3.org/2000/svg" viewBox="0 0 108.15 191.84" width="108.15" height="191.84"><path d="M 69.77 28.47 L 74.73 27.99 Q 75.18 30.49 76.54 31.66 Q 77.92 32.83 80.24 32.83 Q 82.7 32.83 83.94 31.8 Q 85.2 30.75 85.2 29.35 Q 85.2 28.45 84.67 27.83 Q 84.15 27.2 82.84 26.73 Q 81.95 26.42 78.76 25.63 Q 74.66 24.61 73.01 23.13 Q 70.68 21.05 70.68 18.05 Q 70.68 16.12 71.77 14.45 Q 72.87 12.76 74.92 11.88 Q 76.99 11 79.9 11 Q 84.65 11 87.05 13.09 Q 89.46 15.17 89.58 18.65 L 84.48 18.88 Q 84.15 16.93 83.07 16.09 Q 82 15.22 79.85 15.22 Q 77.62 15.22 76.37 16.14 Q 75.56 16.72 75.56 17.71 Q 75.56 18.6 76.31 19.24 Q 77.28 20.05 81 20.93 Q 84.72 21.81 86.49 22.75 Q 88.29 23.68 89.28 25.32 Q 90.3 26.94 90.3 29.33 Q 90.3 31.5 89.1 33.4 Q 87.89 35.29 85.68 36.22 Q 83.48 37.14 80.19 37.14 Q 75.4 37.14 72.83 34.93 Q 70.27 32.71 69.77 28.47 Z M 45.62 36.69 L 45.62 11.44 L 50.58 11.44 L 60.91 28.3 L 60.91 11.44 L 65.65 11.44 L 65.65 36.69 L 60.54 36.69 L 50.36 20.22 L 50.36 36.69 Z M 20.06 11.44 L 29.37 11.44 Q 32.53 11.44 34.18 11.92 Q 36.4 12.57 37.99 14.24 Q 39.57 15.91 40.4 18.34 Q 41.23 20.75 41.23 24.3 Q 41.23 27.42 40.45 29.68 Q 39.5 32.43 37.75 34.14 Q 36.42 35.43 34.16 36.15 Q 32.48 36.69 29.65 36.69 L 20.06 36.69 Z M 25.15 15.71 L 25.15 32.43 L 28.96 32.43 Q 31.1 32.43 32.04 32.19 Q 33.28 31.88 34.09 31.14 Q 34.92 30.4 35.44 28.71 Q 35.95 27.01 35.95 24.08 Q 35.95 21.15 35.44 19.58 Q 34.92 18.02 33.99 17.14 Q 33.06 16.26 31.63 15.95 Q 30.56 15.71 27.45 15.71 Z M 108.15 48.15 L 108.15 11.72 C 108.15 5.27 102.75 0 96.3 0 L 11.73 0 C 5.28 0 0 5.27 0 11.72 L 0 48.15 Z M 0 163.88 L 0 180.12 C 0 186.57 5.28 191.84 11.73 191.84 L 96.3 191.84 C 102.75 191.84 108.15 186.57 108.15 180.12 L 108.15 163.88 Z M 103.15 169.09 L 103.15 180.12 C 103.15 183.88 100.06 186.84 96.3 186.84 L 11.73 186.84 C 7.96 186.84 5 183.88 5 180.12 L 5 169.09 Z M 5 43.01 L 5 11.72 C 5 7.95 7.96 5 11.73 5 L 96.3 5 C 100.06 5 103.15 7.95 103.15 11.72 L 103.15 43.01 Z M 54.14 65.51 C 47.77 65.51 42.56 70.71 42.56 77.08 C 42.56 83.45 47.77 88.66 54.14 88.66 C 60.51 88.66 65.71 83.45 65.71 77.08 C 65.71 70.71 60.51 65.51 54.14 65.51 Z M 52.64 69.15 L 52.64 77.33 A 1.5 1.5 0 1 0 55.64 77.33 L 55.64 69.15 C 59.39 69.85 62.21 73.12 62.21 77.08 C 62.21 81.56 58.61 85.16 54.14 85.16 C 49.66 85.16 46.06 81.56 46.06 77.08 C 46.06 73.12 48.88 69.85 52.64 69.15 Z M 0 133.05 L 0 135.55 L 0 159.08 L 108.15 159.08 L 108.15 133.05 Z M 5 138.05 L 103.15 138.05 L 103.15 154.08 L 5 154.08 Z M 0 51.9 L 0 54.4 L 0 127.72 L 108.15 127.72 L 108.15 51.9 Z M 5 56.9 L 103.15 56.9 L 103.15 122.72 L 5 122.72 Z" fill="var(--icon-primary, #dae8fc)" stroke="none" stroke-width="0"/></svg>