<svg xmlns="http://www.w3.org/2000/svg" viewBox="0 0 248.19 191.89" width="248.19" height="191.89"><path d="M 99.23 82.17 L 124.36 95.58 L 147.46 83.26 C 148.69 86.3 149.37 89.63 149.37 93.12 C 149.37 107.67 137.66 119.38 123.11 119.38 C 108.57 119.38 96.86 107.67 96.86 93.12 C 96.86 89.21 97.71 85.5 99.23 82.17 Z M 123.11 66.87 C 131.65 66.87 139.21 70.9 144 77.18 L 124.36 87.65 L 102.98 76.24 C 107.79 70.5 115.01 66.87 123.11 66.87 Z M 54.85 58.49 L 93.07 78.89 C 91.01 83.2 89.86 88.03 89.86 93.12 C 89.86 100.19 92.08 106.76 95.87 112.16 L 77.89 130.3 L 54.85 130.3 Z M 193.91 58.49 L 193.91 130.3 L 94.78 130.3 L 104.4 120.59 C 109.74 124.24 116.18 126.38 123.11 126.38 C 141.44 126.38 156.37 111.45 156.37 93.12 C 156.37 88.45 155.4 84 153.65 79.96 Z M 65.34 56.16 L 183.41 56.16 L 150.2 73.87 C 144.17 65.4 134.27 59.87 123.11 59.87 C 112.38 59.87 102.82 64.99 96.73 72.91 Z M 11.72 5.29 L 236.47 5.29 C 240.07 5.29 242.89 8.11 242.89 11.72 L 242.89 180.17 C 242.89 183.78 240.07 186.6 236.47 186.6 L 11.72 186.6 C 8.11 186.6 5.29 183.78 5.29 180.17 L 5.29 11.72 C 5.29 8.11 8.11 5.29 11.72 5.29 Z M 11.72 0 C 5.27 0 0 5.27 0 11.72 L 0 180.17 C 0 186.62 5.27 191.89 11.72 191.89 L 236.47 191.89 C 242.91 191.89 248.19 186.62 248.19 180.17 L 248.19 11.72 C 248.19 5.27 242.91 0 236.47 0 Z M 47.85 49.16 L 47.85 52.66 L 47.85 137.3 L 78.96 137.3 L 83.45 141.74 L 87.85 137.3 L 200.91 137.3 L 200.91 49.16 Z M 23.08 74.54 L 23.08 85.83 L 10.12 85.83 L 10.12 96.84 L 23.08 96.84 L 23.08 108.13 L 47.36 91.33 Z M 225.67 74.54 L 225.67 85.83 L 238.64 85.83 L 238.64 96.84 L 225.67 96.84 L 225.67 108.13 L 201.4 91.33 Z" fill="var(--icon-primary, #dae8fc)" stroke="none" stroke-width="0"/></svg>