<svg xmlns="http://www.w3.org/2000/svg" viewBox="0 0 721.85 725.26" width="721.85" height="725.26"><path d="M 103.12 512.4 L 103.12 528.85 L 80.28 528.85 L 80.28 532.63 L 80.28 548.37 L 65.13 548.37 L 65.13 555.92 L 80.28 555.92 L 80.28 581.82 L 65.13 581.82 L 65.13 589.38 L 80.28 589.38 L 80.28 615.27 L 65.13 615.27 L 65.13 622.83 L 80.28 622.83 L 80.28 642.34 L 103.12 642.34 L 103.12 660 L 110.68 660 L 110.68 642.34 L 136.58 642.34 L 136.58 660 L 144.13 660 L 144.13 642.34 L 170.03 642.34 L 170.03 660 L 177.59 660 L 177.59 642.34 L 200.43 642.34 L 200.43 622.83 L 214.83 622.83 L 214.83 615.27 L 200.43 615.27 L 200.43 589.38 L 214.83 589.38 L 214.83 581.82 L 200.43 581.82 L 200.43 555.92 L 214.83 555.92 L 214.83 548.37 L 200.43 548.37 L 200.43 528.85 L 177.59 528.85 L 177.59 512.4 L 170.03 512.4 L 170.03 528.85 L 144.13 528.85 L 144.13 512.4 L 136.58 512.4 L 136.58 528.85 L 110.68 528.85 L 110.68 512.4 Z M 87.84 536.41 L 103.12 536.41 L 103.12 543.32 L 110.68 543.32 L 110.68 536.41 L 136.58 536.41 L 136.58 543.32 L 144.13 543.32 L 144.13 536.41 L 170.03 536.41 L 170.03 543.32 L 177.59 543.32 L 177.59 536.41 L 192.87 536.41 L 192.87 548.37 L 183.91 548.37 L 183.91 555.92 L 192.87 555.92 L 192.87 581.82 L 183.91 581.82 L 183.91 589.38 L 192.87 589.38 L 192.87 615.27 L 183.91 615.27 L 183.91 622.83 L 192.87 622.83 L 192.87 634.78 L 177.59 634.78 L 177.59 629.08 L 170.03 629.08 L 170.03 634.78 L 144.13 634.78 L 144.13 629.08 L 136.58 629.08 L 136.58 634.78 L 110.68 634.78 L 110.68 629.08 L 103.12 629.08 L 103.12 634.78 L 87.84 634.78 L 87.84 622.83 L 96.05 622.83 L 96.05 615.27 L 87.84 615.27 L 87.84 589.38 L 96.05 589.38 L 96.05 581.82 L 87.84 581.82 L 87.84 555.92 L 96.05 555.92 L 96.05 548.37 L 87.84 548.37 Z M 111.16 556.33 L 111.16 576.18 L 131.01 576.18 L 131.01 556.33 Z M 149.7 556.33 L 149.7 576.18 L 169.55 576.18 L 169.55 556.33 Z M 111.16 595.02 L 111.16 614.87 L 131.01 614.87 L 131.01 595.02 Z M 149.7 595.02 L 149.7 614.87 L 169.55 614.87 L 169.55 595.02 Z M 314.17 438.84 L 314.17 390.14 L 185.21 390.14 L 185.21 351.66 L 75.41 416.82 L 185.21 480.98 L 185.21 438.84 Z M 387.99 248.4 L 387.99 199.69 L 259.03 199.69 L 259.03 161.22 L 149.23 226.37 L 259.03 290.53 L 259.03 248.4 Z M 340.3 341.45 L 340.3 292.75 L 469.26 292.75 L 469.26 254.27 L 579.06 319.43 L 469.26 383.58 L 469.26 341.45 Z M 412.07 150.75 L 412.07 102.04 L 541.02 102.04 L 541.02 63.57 L 650.82 128.72 L 541.02 192.88 L 541.02 150.75 Z M 526.13 567.46 A 36.11 36.11 0 0 0 550.72 592.4 C 537.64 603.7 525.25 613.05 514.68 619.75 C 506.34 625.04 499.09 628.67 493.87 630.32 C 491.26 631.14 489.17 631.44 487.92 631.4 C 486.67 631.36 486.49 631.11 486.47 631.09 C 486.45 631.07 486.21 630.88 486.18 629.63 C 486.16 628.38 486.49 626.3 487.36 623.7 C 489.08 618.51 492.83 611.32 498.24 603.06 C 505.1 592.6 514.64 580.36 526.13 567.46 Z M 595.68 567.42 C 607.19 580.34 616.73 592.59 623.6 603.06 C 629.02 611.31 632.75 618.51 634.48 623.7 C 635.35 626.3 635.68 628.38 635.66 629.63 C 635.64 630.88 635.39 631.07 635.37 631.09 C 635.35 631.11 635.17 631.36 633.92 631.4 C 632.67 631.44 630.58 631.14 627.97 630.32 C 622.75 628.67 615.5 625.04 607.16 619.75 C 596.58 613.05 584.2 603.69 571.11 592.4 A 36.11 36.11 0 0 0 595.68 567.42 Z M 487.92 484.15 C 489.18 484.11 491.26 484.41 493.87 485.23 C 499.09 486.88 506.34 490.51 514.68 495.8 C 525.26 502.5 537.64 511.86 550.73 523.15 A 36.11 36.11 0 0 0 526.16 548.13 C 514.65 535.21 505.11 522.97 498.24 512.5 C 492.82 504.24 489.08 497.04 487.36 491.85 C 486.49 489.25 486.16 487.17 486.18 485.92 C 486.21 484.67 486.45 484.48 486.47 484.46 C 486.49 484.44 486.67 484.19 487.92 484.15 Z M 633.92 484.15 C 635.17 484.19 635.35 484.44 635.37 484.46 C 635.39 484.48 635.63 484.67 635.66 485.92 C 635.68 487.17 635.35 489.25 634.48 491.85 C 632.75 497.04 629.02 504.24 623.6 512.5 C 616.74 522.96 607.2 535.19 595.71 548.1 A 36.11 36.11 0 0 0 571.11 523.15 C 584.2 511.85 596.59 502.5 607.16 495.8 C 615.5 490.51 622.75 486.88 627.97 485.23 C 630.58 484.41 632.66 484.1 633.92 484.15 Z M 561.29 457.96 L 542.55 475.89 L 555.81 475.89 L 555.81 514 C 543.03 503.07 530.86 493.93 520.17 487.15 C 511.38 481.57 503.62 477.56 496.96 475.46 C 493.63 474.41 490.56 473.81 487.57 473.91 C 484.58 474.01 481.44 474.96 479.17 477.27 C 476.89 479.58 475.99 482.73 475.93 485.73 C 475.88 488.72 476.53 491.77 477.63 495.09 C 479.83 501.71 483.96 509.41 489.67 518.12 C 496.49 528.52 505.61 540.3 516.48 552.67 L 479.03 552.67 L 479.03 539.41 L 461.1 558.14 L 479.03 576.15 L 479.03 563.84 L 515.64 563.84 C 505.14 575.86 496.31 587.31 489.67 597.43 C 483.96 606.14 479.84 613.84 477.63 620.47 C 476.53 623.78 475.88 626.84 475.93 629.83 C 475.99 632.82 476.89 635.98 479.16 638.29 C 481.44 640.59 484.58 641.54 487.57 641.65 C 490.56 641.75 493.63 641.15 496.96 640.09 C 503.62 637.99 511.38 633.99 520.17 628.41 C 530.86 621.63 543.03 612.49 555.81 601.55 L 555.81 639.67 L 542.55 639.67 L 561.29 657.6 L 579.29 639.67 L 566.99 639.67 L 566.99 602.37 C 579.42 612.94 591.24 621.8 601.67 628.41 C 610.46 633.99 618.22 637.99 624.88 640.09 C 628.21 641.15 631.28 641.75 634.27 641.65 C 637.26 641.54 640.4 640.59 642.68 638.29 C 644.95 635.98 645.85 632.82 645.9 629.83 C 645.96 626.84 645.31 623.78 644.21 620.47 C 642 613.84 637.88 606.14 632.17 597.44 C 625.53 587.31 616.7 575.86 606.2 563.84 L 642.81 563.84 L 642.81 576.15 L 660.74 558.14 L 642.81 539.41 L 642.81 552.67 L 605.36 552.67 C 616.22 540.3 625.35 528.52 632.17 518.12 C 637.88 509.41 642 501.71 644.21 495.09 C 645.31 491.77 645.96 488.72 645.9 485.73 C 645.85 482.73 644.95 479.57 642.67 477.27 C 640.4 474.96 637.26 474.01 634.27 473.91 C 631.27 473.81 628.21 474.41 624.88 475.46 C 618.22 477.57 610.46 481.57 601.67 487.14 C 591.24 493.76 579.42 502.61 566.99 513.19 L 566.99 475.89 L 579.29 475.89 Z M 44.28 20 L 677.57 20 C 691.2 20 701.86 30.66 701.86 44.28 L 701.86 680.96 C 701.86 694.59 691.2 705.25 677.57 705.25 L 44.28 705.25 C 30.66 705.25 20 694.59 20 680.96 L 20 44.28 C 20 30.66 30.66 20 44.28 20 Z M 44.28 0 C 19.92 0 0 19.92 0 44.28 L 0 680.96 C 0 705.33 19.92 725.26 44.28 725.26 L 677.57 725.26 C 701.93 725.26 721.85 705.33 721.85 680.96 L 721.85 44.28 C 721.85 19.92 701.93 0 677.57 0 Z" fill="var(--icon-primary, #dae8fc)" stroke="none" stroke-width="0"/><path d="M 597.01 557.77 A 36.06 36.06 0 0 1 560.95 593.83 A 36.06 36.06 0 0 1 524.89 557.77 A 36.06 36.06 0 0 1 560.95 521.71 A 36.06 36.06 0 0 1 597.01 557.77 Z" fill="#ffffff" stroke="none" stroke-width="0" opacity="0.5"/></svg>