<svg xmlns="http://www.w3.org/2000/svg" viewBox="0 0 190.99 275.55" width="190.99" height="275.55"><path d="M 11.72 201.21 L 179.27 201.21 C 182.88 201.21 185.7 204.03 185.7 207.64 L 185.7 263.84 C 185.7 267.44 182.88 270.26 179.27 270.26 L 11.72 270.26 C 8.11 270.26 5.29 267.44 5.29 263.84 L 5.29 207.64 C 5.29 204.03 8.11 201.21 11.72 201.21 Z M 11.72 195.92 C 5.27 195.92 0 201.19 0 207.64 L 0 263.84 C 0 270.28 5.27 275.55 11.72 275.55 L 179.27 275.55 C 185.72 275.55 190.99 270.28 190.99 263.84 L 190.99 207.64 C 190.99 201.19 185.72 195.92 179.27 195.92 Z M 11.72 5.29 L 179.27 5.29 C 182.88 5.29 185.7 8.11 185.7 11.72 L 185.7 180.17 C 185.7 183.78 182.88 186.6 179.27 186.6 L 11.72 186.6 C 8.11 186.6 5.29 183.78 5.29 180.17 L 5.29 11.72 C 5.29 8.11 8.11 5.29 11.72 5.29 Z M 11.72 0 C 5.27 0 0 5.27 0 11.72 L 0 180.17 C 0 186.62 5.27 191.89 11.72 191.89 L 179.27 191.89 C 185.72 191.89 190.99 186.62 190.99 180.17 L 190.99 11.72 C 190.99 5.27 185.72 0 179.27 0 Z M 38.63 128.37 L 33.53 135.71 L 36.92 135.71 L 36.92 143.5 A 9.98 9.98 0 0 0 32.79 145.24 L 27.26 139.74 L 29.65 137.34 L 20.89 135.74 L 22.5 144.53 L 24.89 142.12 L 30.42 147.62 A 9.98 9.98 0 0 0 28.77 151.66 L 20.97 151.66 L 20.97 148.27 L 13.63 153.31 L 20.97 158.4 L 20.97 155.02 L 28.76 155.02 A 9.98 9.98 0 0 0 30.45 159.08 L 24.93 164.6 L 22.54 162.21 L 20.95 171 L 29.7 169.37 L 27.31 166.98 L 32.81 161.46 A 9.98 9.98 0 0 0 36.92 163.17 L 36.92 170.96 L 33.53 170.96 L 38.63 178.3 L 43.66 170.96 L 40.28 170.96 L 40.28 163.18 A 9.98 9.98 0 0 0 44.35 161.48 L 49.89 166.98 L 47.5 169.38 L 56.3 170.94 L 54.64 162.19 L 52.26 164.59 L 46.74 159.1 A 9.98 9.98 0 0 0 48.42 155.02 L 56.22 155.02 L 56.22 158.4 L 63.56 153.31 L 56.22 148.27 L 56.22 151.66 L 48.43 151.66 A 9.98 9.98 0 0 0 46.71 147.55 L 52.22 142.03 L 54.61 144.43 L 56.24 135.67 L 47.44 137.27 L 49.84 139.66 L 44.33 145.18 A 9.98 9.98 0 0 0 40.28 143.51 L 40.28 135.71 L 43.66 135.71 Z M 142.81 16.9 L 142.81 27.08 L 108.69 27.08 L 108.69 39.96 L 142.81 39.96 L 142.81 51.11 L 171.86 34.14 Z M 68.2 42.73 L 39.15 59.97 L 68.2 76.95 L 68.2 65.8 L 102.32 65.8 L 102.32 52.91 L 68.2 52.91 Z M 123.83 67.35 L 123.83 77.53 L 89.71 77.53 L 89.71 90.42 L 123.83 90.42 L 123.83 101.57 L 152.88 84.59 Z M 48.67 93.12 L 19.62 110.36 L 48.67 127.34 L 48.67 116.19 L 82.79 116.19 L 82.79 103.3 L 48.67 103.3 Z M 147.78 122.06 L 142.82 126.8 L 146.33 126.8 L 146.33 136.89 C 142.95 133.99 139.73 131.57 136.9 129.78 C 134.58 128.3 132.52 127.25 130.76 126.69 C 129.88 126.41 129.07 126.25 128.28 126.28 C 127.49 126.3 126.66 126.56 126.05 127.17 C 125.45 127.78 125.21 128.61 125.2 129.4 C 125.18 130.2 125.36 131.01 125.65 131.88 C 126.23 133.63 127.32 135.67 128.83 137.98 C 130.64 140.73 133.05 143.84 135.93 147.12 L 126.02 147.12 L 126.02 143.61 L 121.27 148.57 L 126.02 153.33 L 126.02 150.07 L 135.7 150.07 C 132.93 153.25 130.59 156.28 128.83 158.96 C 127.32 161.26 126.23 163.3 125.65 165.06 C 125.36 165.93 125.18 166.74 125.2 167.53 C 125.21 168.32 125.45 169.16 126.05 169.77 C 126.65 170.38 127.49 170.63 128.28 170.66 C 129.07 170.69 129.88 170.53 130.76 170.25 C 132.52 169.69 134.58 168.63 136.9 167.16 C 139.73 165.36 142.95 162.94 146.33 160.05 L 146.33 170.14 L 142.82 170.14 L 147.78 174.88 L 152.54 170.14 L 149.29 170.14 L 149.29 160.27 C 152.58 163.06 155.71 165.41 158.47 167.16 C 160.79 168.63 162.85 169.69 164.61 170.25 C 165.49 170.53 166.3 170.69 167.09 170.66 C 167.88 170.63 168.71 170.38 169.32 169.77 C 169.92 169.16 170.16 168.32 170.17 167.53 C 170.19 166.74 170.01 165.93 169.72 165.05 C 169.14 163.3 168.05 161.27 166.54 158.96 C 164.78 156.28 162.44 153.25 159.66 150.07 L 169.35 150.07 L 169.35 153.33 L 174.1 148.57 L 169.35 143.61 L 169.35 147.12 L 159.44 147.12 C 162.32 143.84 164.73 140.73 166.54 137.98 C 168.05 135.67 169.14 133.63 169.72 131.88 C 170.01 131.01 170.19 130.2 170.17 129.4 C 170.16 128.61 169.92 127.78 169.32 127.17 C 168.71 126.56 167.88 126.3 167.09 126.28 C 166.3 126.25 165.49 126.41 164.61 126.69 C 162.85 127.25 160.79 128.3 158.47 129.78 C 155.71 131.53 152.58 133.87 149.29 136.67 L 149.29 126.8 L 152.54 126.8 Z M 167 128.99 L 167 128.99 C 167.33 129 167.38 129.06 167.38 129.07 C 167.39 129.07 167.45 129.12 167.46 129.46 C 167.47 129.79 167.38 130.34 167.15 131.03 C 166.69 132.4 165.7 134.3 164.27 136.49 C 162.45 139.26 159.93 142.49 156.89 145.91 A 9.56 9.56 0 0 0 150.38 139.31 C 153.84 136.32 157.12 133.84 159.92 132.07 C 162.13 130.67 164.04 129.71 165.42 129.27 C 166.11 129.06 166.67 128.98 167 128.99 Z M 128.37 128.99 C 128.7 128.98 129.25 129.06 129.94 129.27 C 131.33 129.71 133.24 130.67 135.45 132.07 C 138.25 133.84 141.53 136.32 144.99 139.31 A 9.56 9.56 0 0 0 138.49 145.91 C 135.44 142.5 132.92 139.26 131.1 136.49 C 129.67 134.3 128.68 132.4 128.22 131.02 C 127.99 130.34 127.9 129.79 127.91 129.46 C 127.92 129.12 127.98 129.07 127.99 129.07 C 127.99 129.06 128.04 129 128.37 128.99 Z M 156.88 151.02 C 159.93 154.44 162.45 157.68 164.27 160.45 C 165.7 162.63 166.69 164.54 167.15 165.91 C 167.38 166.6 167.47 167.15 167.46 167.48 C 167.45 167.81 167.39 167.86 167.38 167.87 C 167.38 167.87 167.33 167.94 167 167.95 C 166.67 167.96 166.11 167.88 165.42 167.66 C 164.04 167.23 162.13 166.27 159.92 164.87 C 157.12 163.09 153.84 160.62 150.38 157.63 A 9.56 9.56 0 0 0 156.88 151.02 Z M 138.48 151.03 A 9.56 9.56 0 0 0 144.99 157.63 C 141.52 160.62 138.25 163.09 135.45 164.87 C 133.24 166.27 131.32 167.23 129.94 167.66 C 129.25 167.88 128.7 167.96 128.37 167.95 C 128.04 167.94 127.99 167.87 127.99 167.87 C 127.98 167.86 127.92 167.81 127.91 167.48 C 127.9 167.15 127.99 166.6 128.22 165.91 C 128.68 164.54 129.67 162.63 131.1 160.45 C 132.92 157.68 135.44 154.44 138.48 151.03 Z" fill="var(--icon-primary, #dae8fc)" stroke="none" stroke-width="0"/><path d="M 157.24 148.47 A 9.56 9.56 0 0 1 147.68 158.02 A 9.56 9.56 0 0 1 138.13 148.47 A 9.56 9.56 0 0 1 147.68 138.91 A 9.56 9.56 0 0 1 157.24 148.47 Z" fill="#ffffff" stroke="none" stroke-width="0" opacity="0.5"/></svg>