<svg xmlns="http://www.w3.org/2000/svg" viewBox="0 0 938.03 725.26" width="938.03" height="725.26"><path d="M 42.47 45.77 L 42.47 79.1 L 290.48 79.1 L 290.48 165.43 L 42.47 165.43 L 42.47 198.76 L 124.44 198.76 L 124.44 285.09 L 42.47 285.09 L 42.47 318.42 L 290.48 318.42 L 290.48 404.76 L 42.47 404.76 L 42.47 438.09 L 124.44 438.09 L 124.44 524.42 L 42.47 524.42 L 42.47 557.75 L 290.48 557.75 L 290.48 644.08 L 42.47 644.08 L 42.47 677.41 L 898.28 677.41 L 898.28 644.08 L 655.9 644.08 L 655.9 557.75 L 898.28 557.75 L 898.28 524.42 L 821.94 524.42 L 821.94 438.09 L 898.28 438.09 L 898.28 404.76 L 655.9 404.76 L 655.9 318.42 L 898.28 318.42 L 898.28 285.09 L 821.94 285.09 L 821.94 198.76 L 898.28 198.76 L 898.28 165.43 L 655.9 165.43 L 655.9 79.1 L 898.28 79.1 L 898.28 45.77 Z M 323.81 79.1 L 622.57 79.1 L 622.57 165.43 L 323.81 165.43 Z M 157.77 198.76 L 456.53 198.76 L 456.53 285.09 L 157.77 285.09 Z M 489.86 198.76 L 788.61 198.76 L 788.61 285.09 L 489.86 285.09 Z M 323.81 318.42 L 622.57 318.42 L 622.57 404.76 L 323.81 404.76 Z M 157.77 438.09 L 456.53 438.09 L 456.53 524.42 L 157.77 524.42 Z M 489.86 438.09 L 788.61 438.09 L 788.61 524.42 L 489.86 524.42 Z M 323.81 557.75 L 622.57 557.75 L 622.57 644.08 L 323.81 644.08 Z M 44.28 0 C 19.92 0 0 19.92 0 44.28 L 0 680.96 C 0 705.33 19.92 725.26 44.28 725.26 L 893.74 725.26 C 918.1 725.26 938.03 705.33 938.03 680.96 L 938.03 44.28 C 938.03 19.92 918.1 0 893.74 0 Z M 44.28 20 L 893.74 20 C 907.37 20 918.03 30.66 918.03 44.28 L 918.03 680.96 C 918.03 694.59 907.37 705.25 893.74 705.25 L 44.28 705.25 C 30.66 705.25 20 694.59 20 680.96 L 20 44.28 C 20 30.66 30.66 20 44.28 20 Z" fill="var(--icon-primary, #dae8fc)" stroke="none" stroke-width="0"/></svg>