<svg xmlns="http://www.w3.org/2000/svg" viewBox="0 0 938.03 725.26" width="938.03" height="725.26"><path d="M 471.19 254.44 L 489.66 258.64 L 489.44 271.23 L 525.15 279.25 L 525.31 266.75 L 554.46 273.38 L 554.46 338.88 C 554.46 395.35 517.41 446.22 470.94 465.69 C 418.43 444.04 386.49 393.29 386.49 341.46 L 386.49 273.64 L 415.64 267.03 L 415.8 279.25 L 451.51 271.23 L 451.3 258.95 Z M 531.88 316.68 L 439.23 411.59 C 447.69 420.98 458.54 430.04 472.48 438.15 C 524.23 406.72 531.67 354.35 531.67 332.17 Z M 470.71 290.7 L 409.92 306.47 L 409.92 333.94 C 409.92 348.83 412.51 375.38 430.89 401.2 L 525.59 304.18 Z M 283.48 207.47 C 276.09 207.47 269.04 208.88 262.57 211.41 L 369.48 289.98 L 369.48 260.06 L 471.19 237 L 571.47 259.81 L 571.47 291.28 L 680.13 211.41 C 673.66 208.88 666.62 207.47 659.23 207.47 Z M 237.57 230.56 C 230.55 240.04 226.41 251.79 226.41 264.54 L 226.41 454.06 C 226.41 461.69 227.9 468.96 230.6 475.6 L 372.56 371.27 C 370.53 361.49 369.48 351.5 369.48 341.46 L 369.48 327.51 Z M 705.14 230.56 L 571.47 328.8 L 571.47 338.88 C 571.47 349.45 570.34 359.82 568.24 369.88 L 712.1 475.6 C 714.8 468.96 716.29 461.69 716.29 454.06 L 716.29 264.54 C 716.29 251.79 712.15 240.04 705.14 230.56 Z M 558.53 400.26 C 541.9 438.39 510.75 468.88 474.03 483.03 L 470.98 484.2 L 467.92 483.03 C 427.96 467.71 398.15 437.49 382.31 401.63 L 249.01 499.6 C 258.57 506.84 270.51 511.13 283.48 511.13 L 659.23 511.13 C 672.2 511.13 684.13 506.84 693.69 499.6 Z M 44.28 0 C 19.92 0 0 19.92 0 44.28 L 0 680.96 C 0 705.33 19.92 725.26 44.28 725.26 L 893.74 725.26 C 918.1 725.26 938.03 705.33 938.03 680.96 L 938.03 44.28 C 938.03 19.92 918.1 0 893.74 0 Z M 44.28 20 L 893.74 20 C 907.37 20 918.03 30.66 918.03 44.28 L 918.03 680.96 C 918.03 694.59 907.37 705.25 893.74 705.25 L 44.28 705.25 C 30.66 705.25 20 694.59 20 680.96 L 20 44.28 C 20 30.66 30.66 20 44.28 20 Z" fill="var(--icon-primary, #dae8fc)" stroke="none" stroke-width="0"/></svg>