<svg xmlns="http://www.w3.org/2000/svg" viewBox="0 0 938.03 725.26" width="938.03" height="725.26"><path d="M 429.52 95.97 C 357.47 95.97 293.66 131.77 254.93 186.52 L 277.6 200.05 C 311.59 153 366.91 122.43 429.52 122.43 C 533.11 122.43 616.8 206.12 616.8 309.71 C 616.8 413.31 533.11 497 429.52 497 C 367.13 497 311.97 466.64 277.95 419.86 L 255.27 433.4 C 294.04 487.87 357.69 523.46 429.52 523.46 C 473.3 523.46 514.04 510.22 547.96 487.56 L 686.56 630.36 L 724.53 593.5 L 588.08 452.92 C 622.36 414.99 643.26 364.76 643.26 309.71 C 643.26 191.83 547.41 95.97 429.52 95.97 Z M 255.27 433.4 C 249.31 425.03 243.94 416.22 239.22 407.02 L 151.94 459.1 L 167.75 485.61 Z M 239.22 407.02 L 261.92 393.48 C 251.5 372.64 244.85 349.56 242.86 325.15 L 216.34 325.15 C 218.44 354.46 226.46 382.15 239.22 407.02 Z M 216.34 325.15 C 215.97 320.05 215.77 314.91 215.77 309.71 C 215.77 304.52 215.97 299.38 216.34 294.28 L 121.63 294.28 L 121.63 325.15 Z M 216.34 294.28 L 242.87 294.28 C 244.83 270.07 251.38 247.19 261.65 226.48 L 238.96 212.94 C 226.35 237.68 218.42 265.18 216.34 294.28 Z M 238.96 212.94 C 243.65 203.73 248.99 194.9 254.93 186.52 L 166.6 133.82 L 150.78 160.33 Z M 261.65 226.48 L 281.02 238.04 A 165.03 165.03 0 0 1 297.02 211.64 L 277.6 200.05 C 271.59 208.37 266.25 217.21 261.65 226.48 Z M 297.02 211.64 L 317.98 224.14 L 325.72 211.17 L 356.26 264.96 L 294.42 263.63 L 302.16 250.65 L 281.02 238.04 A 165.03 165.03 0 0 0 265.36 294.28 L 297.91 294.28 L 297.91 279.17 L 351.7 309.71 L 297.91 340.26 L 297.91 325.15 L 265.26 325.15 A 165.03 165.03 0 0 0 281.34 381.9 L 303.32 368.78 L 295.58 355.8 L 357.42 354.47 L 326.88 408.26 L 319.14 395.29 L 297.39 408.26 A 165.03 165.03 0 0 0 429.52 474.75 A 165.03 165.03 0 0 0 594.55 309.71 A 165.03 165.03 0 0 0 429.52 144.68 A 165.03 165.03 0 0 0 297.02 211.64 Z M 297.39 408.26 A 165.03 165.03 0 0 1 281.34 381.9 L 261.92 393.48 C 266.54 402.74 271.91 411.56 277.95 419.86 Z M 265.26 325.15 A 165.03 165.03 0 0 1 264.48 309.71 A 165.03 165.03 0 0 1 265.36 294.28 L 242.87 294.28 C 242.45 299.37 242.23 304.52 242.23 309.71 C 242.23 314.91 242.45 320.06 242.86 325.15 Z M 364.72 181.71 L 499.1 283.77 L 587.47 283.77 L 587.47 329.01 L 499.1 329.01 L 364.72 437.72 Z M 763.85 275.41 L 763.85 292.38 L 658.25 292.38 L 658.25 327.05 L 763.85 327.05 L 763.85 344.02 L 817.64 309.71 Z M 44.28 0 C 19.92 0 0 19.92 0 44.28 L 0 680.96 C 0 705.33 19.92 725.26 44.28 725.26 L 893.74 725.26 C 918.1 725.26 938.03 705.33 938.03 680.96 L 938.03 44.28 C 938.03 19.92 918.1 0 893.74 0 Z M 44.28 20 L 893.74 20 C 907.37 20 918.03 30.66 918.03 44.28 L 918.03 680.96 C 918.03 694.59 907.37 705.25 893.74 705.25 L 44.28 705.25 C 30.66 705.25 20 694.59 20 680.96 L 20 44.28 C 20 30.66 30.66 20 44.28 20 Z" fill="var(--icon-primary, #dae8fc)" stroke="none" stroke-width="0"/></svg>