<svg xmlns="http://www.w3.org/2000/svg" viewBox="0 0 721.85 725.26" width="721.85" height="725.26"><path d="M 143.77 191.4 A 5.67 5.67 0 1 0 143.77 202.74 L 217.77 202.74 C 221.48 198.76 225.38 194.97 229.48 191.4 Z M 435.25 191.4 C 439.35 194.97 443.25 198.76 446.96 202.74 L 591.36 202.74 A 5.67 5.67 0 1 0 591.36 191.4 Z M 143.77 226.2 A 5.67 5.67 0 1 0 143.77 237.54 L 193.14 237.54 C 195.16 233.66 197.34 229.88 199.66 226.2 Z M 465.07 226.2 C 467.39 229.88 469.58 233.66 471.6 237.54 L 591.36 237.54 A 5.67 5.67 0 1 0 591.36 226.2 Z M 332.55 228.22 L 332.95 237.54 L 370.51 237.54 C 359.22 231.61 346.32 228.25 332.55 228.22 Z M 325.87 228.47 C 314.46 229.35 303.77 232.53 294.22 237.54 L 322.81 237.54 Z M 327.45 241.54 L 293.95 340.99 L 281.6 287.27 L 258.99 344.85 C 261.06 349.21 263.53 353.34 266.32 357.21 L 278.76 325.54 L 291.23 379.8 C 291.68 380.06 292.13 380.32 292.58 380.57 L 318.76 302.86 L 321.22 359.8 L 347.26 291.38 L 374.04 379.5 C 374.66 379.13 375.27 378.75 375.88 378.37 L 390.81 322.81 L 404.09 320.95 L 412.34 294.74 C 411.15 288.06 409.14 281.7 406.45 275.72 L 395.42 310.72 L 381.81 312.62 L 374.18 340.99 L 348.47 256.33 L 330.17 304.41 Z M 143.77 260.99 A 5.67 5.67 0 1 0 143.77 272.33 L 180 272.33 C 180.95 268.49 182.03 264.71 183.25 260.99 Z M 266.88 260.99 C 264.26 264.55 261.93 268.34 259.91 272.33 L 281.38 272.33 L 283.02 268.14 L 283.98 272.33 L 311.1 272.33 L 314.92 260.99 Z M 333.97 260.99 L 334.46 272.33 L 336.32 272.33 L 340.63 260.99 Z M 355.8 260.99 L 359.25 272.33 L 401.65 272.33 L 402.82 268.62 C 401.3 265.98 399.65 263.43 397.85 260.99 Z M 481.48 260.99 C 482.7 264.71 483.79 268.49 484.73 272.33 L 591.36 272.33 A 5.67 5.67 0 1 0 591.36 260.99 Z M 143.77 295.79 A 5.67 5.67 0 1 0 143.77 307.12 L 175.53 307.12 C 175.59 303.31 175.78 299.53 176.11 295.79 Z M 252.21 295.79 C 251.6 299.48 251.23 303.27 251.12 307.12 L 267.71 307.12 L 272.17 295.79 Z M 289.38 295.79 L 291.98 307.12 L 299.38 307.12 L 303.2 295.79 Z M 366.38 295.79 L 369.82 307.12 L 380.25 307.12 L 391.1 305.6 L 394.21 295.79 Z M 488.62 295.79 C 488.95 299.53 489.15 303.31 489.21 307.12 L 591.36 307.12 A 5.67 5.67 0 1 0 591.36 295.79 Z M 143.77 330.58 A 5.67 5.67 0 1 0 143.77 341.92 L 178.91 341.92 C 178.11 338.19 177.46 334.41 176.94 330.58 Z M 253.79 330.58 C 254.39 332.87 255.08 335.11 255.86 337.3 L 258.5 330.58 Z M 338.41 330.58 L 334.1 341.92 L 356.7 341.92 L 353.25 330.58 Z M 394.59 330.58 L 391.54 341.92 L 407.05 341.92 C 408.61 338.28 409.92 334.49 410.94 330.58 Z M 487.8 330.58 C 487.28 334.41 486.62 338.19 485.83 341.92 L 591.36 341.92 A 5.67 5.67 0 1 0 591.36 330.58 Z M 314.41 333.53 L 311.59 341.92 L 314.78 341.92 Z M 143.77 365.38 A 5.67 5.67 0 1 0 143.77 376.71 L 190.76 376.71 C 188.99 373.01 187.36 369.23 185.88 365.38 Z M 273.04 365.38 C 276.5 369.05 280.3 372.4 284.39 375.37 L 282.1 365.38 Z M 303.69 365.38 L 299.87 376.71 L 316.28 376.71 L 315.79 365.38 Z M 325.17 365.38 L 320.86 376.71 L 367.27 376.71 L 363.82 365.38 Z M 385.24 365.38 L 383.12 373.25 C 386.17 370.83 389.03 368.2 391.69 365.38 Z M 478.86 365.38 C 477.37 369.23 475.75 373.01 473.97 376.71 L 591.36 376.71 A 5.67 5.67 0 1 0 591.36 365.38 Z M 332.36 167.75 C 254.34 167.75 190.62 231.48 190.62 309.5 C 190.62 337.2 198.65 363.09 212.51 384.97 L 103.46 494.06 A 22.68 22.68 0 0 0 103.46 526.13 L 116.08 538.74 A 22.68 22.68 0 0 0 148.15 538.73 L 257.25 429.58 C 279.06 443.3 304.82 451.25 332.36 451.25 C 410.38 451.25 474.12 387.52 474.12 309.5 C 474.12 231.48 410.38 167.75 332.36 167.75 Z M 332.36 213.1 C 385.87 213.1 428.76 255.99 428.76 309.5 C 428.76 363.01 385.87 405.89 332.36 405.89 C 278.86 405.89 235.97 363.01 235.97 309.5 C 235.97 255.99 278.86 213.1 332.36 213.1 Z M 44.28 20 L 677.57 20 C 691.2 20 701.86 30.66 701.86 44.28 L 701.86 680.96 C 701.86 694.59 691.2 705.25 677.57 705.25 L 44.28 705.25 C 30.66 705.25 20 694.59 20 680.96 L 20 44.28 C 20 30.66 30.66 20 44.28 20 Z M 44.28 0 C 19.92 0 0 19.92 0 44.28 L 0 680.96 C 0 705.33 19.92 725.26 44.28 725.26 L 677.57 725.26 C 701.93 725.26 721.85 705.33 721.85 680.96 L 721.85 44.28 C 721.85 19.92 701.93 0 677.57 0 Z" fill="var(--icon-primary, #dae8fc)" stroke="none" stroke-width="0"/></svg>