<svg xmlns="http://www.w3.org/2000/svg" viewBox="0 0 938.03 725.26" width="938.03" height="725.26"><path d="M 469.83 57.77 A 31.93 31.93 0 0 0 437.9 89.7 A 31.93 31.93 0 0 0 469.83 121.63 A 31.93 31.93 0 0 0 501.76 89.7 A 31.93 31.93 0 0 0 469.83 57.77 Z M 159.12 150.06 L 159.12 529.58 L 778.72 529.58 L 778.72 150.06 Z M 455.07 572.86 C 447.51 572.86 441.2 575.03 436.12 579.37 C 431.04 583.67 427.79 589.74 426.36 597.6 L 438.07 599.68 C 438.94 593.95 440.9 589.66 443.93 586.79 C 446.97 583.93 450.77 582.49 455.33 582.49 C 459.93 582.49 463.68 583.91 466.59 586.73 C 469.5 589.55 470.95 593.11 470.95 597.4 C 470.95 602.83 468.95 606.84 464.96 609.45 C 460.97 612.05 456.48 613.35 451.48 613.35 C 451.01 613.35 450.38 613.31 449.6 613.22 L 448.29 623.51 C 451.59 622.64 454.35 622.21 456.56 622.21 C 461.99 622.21 466.46 623.97 469.97 627.48 C 473.49 630.95 475.25 635.38 475.25 640.76 C 475.25 646.41 473.34 651.14 469.52 654.96 C 465.74 658.77 461.1 660.69 455.59 660.69 C 450.94 660.69 446.99 659.23 443.74 656.32 C 440.53 653.37 438.25 648.58 436.9 641.94 L 425.18 643.5 C 425.96 651.44 429.11 657.91 434.62 662.9 C 440.18 667.89 447.14 670.38 455.52 670.38 C 464.81 670.38 472.49 667.5 478.57 661.73 C 484.64 655.91 487.68 648.84 487.68 640.5 C 487.68 634.34 486.12 629.22 483 625.14 C 479.87 621.02 475.49 618.3 469.84 617 C 474.18 615 477.46 612.31 479.68 608.93 C 481.89 605.54 483 601.79 483 597.66 C 483 593.32 481.82 589.22 479.48 585.36 C 477.18 581.5 473.84 578.46 469.45 576.24 C 465.07 573.99 460.27 572.86 455.07 572.86 Z M 531.04 572.86 C 521.97 572.86 514.75 575.22 509.36 579.96 C 503.98 584.64 500.88 591.48 500.05 600.46 L 512.1 601.7 C 512.14 595.71 513.85 591.02 517.24 587.64 C 520.63 584.25 525.14 582.56 530.78 582.56 C 536.12 582.56 540.44 584.17 543.74 587.38 C 547.08 590.55 548.75 594.45 548.75 599.1 C 548.75 603.52 546.93 608.23 543.28 613.22 C 539.64 618.17 532.63 624.9 522.25 633.41 C 515.57 638.88 510.45 643.69 506.89 647.86 C 503.37 652.03 500.81 656.26 499.21 660.55 C 498.21 663.16 497.75 665.87 497.84 668.69 L 560.93 668.69 L 560.93 657.43 L 514.12 657.43 C 515.42 655.3 517.07 653.2 519.06 651.12 C 521.06 648.99 525.57 644.97 532.61 639.07 C 541.03 631.95 547.04 626.35 550.64 622.27 C 554.28 618.19 556.89 614.31 558.45 610.62 C 560.01 606.93 560.79 603.18 560.79 599.36 C 560.79 591.85 558.13 585.55 552.79 580.48 C 547.45 575.4 540.2 572.86 531.04 572.86 Z M 603.5 572.86 C 595.95 572.86 589.63 575.03 584.56 579.37 C 579.48 583.67 576.23 589.74 574.79 597.6 L 586.51 599.68 C 587.38 593.95 589.33 589.66 592.37 586.79 C 595.41 583.93 599.21 582.49 603.76 582.49 C 608.36 582.49 612.12 583.91 615.03 586.73 C 617.94 589.55 619.39 593.11 619.39 597.4 C 619.39 602.83 617.39 606.84 613.4 609.45 C 609.41 612.05 604.91 613.35 599.92 613.35 C 599.44 613.35 598.82 613.31 598.04 613.22 L 596.73 623.51 C 600.03 622.64 602.79 622.21 605 622.21 C 610.43 622.21 614.9 623.97 618.41 627.48 C 621.93 630.95 623.69 635.38 623.69 640.76 C 623.69 646.41 621.77 651.14 617.96 654.96 C 614.18 658.77 609.54 660.69 604.02 660.69 C 599.38 660.69 595.43 659.23 592.18 656.32 C 588.96 653.37 586.69 648.58 585.34 641.94 L 573.62 643.5 C 574.4 651.44 577.55 657.91 583.06 662.9 C 588.62 667.89 595.58 670.38 603.96 670.38 C 613.25 670.38 620.93 667.5 627.01 661.73 C 633.08 655.91 636.12 648.84 636.12 640.5 C 636.12 634.34 634.56 629.22 631.43 625.14 C 628.31 621.02 623.92 618.3 618.28 617 C 622.62 615 625.9 612.31 628.11 608.93 C 630.33 605.54 631.43 601.79 631.43 597.66 C 631.43 593.32 630.26 589.22 627.92 585.36 C 625.62 581.5 622.27 578.46 617.89 576.24 C 613.51 573.99 608.71 572.86 603.5 572.86 Z M 296.93 573.25 L 296.93 668.69 L 309.56 668.69 L 309.56 623.71 L 359.17 623.71 L 359.17 668.69 L 371.8 668.69 L 371.8 573.25 L 359.17 573.25 L 359.17 612.44 L 309.56 612.44 L 309.56 573.25 Z M 394.71 655.35 L 394.71 668.69 L 408.06 668.69 L 408.06 655.35 Z M 44.28 0 C 19.92 0 0 19.92 0 44.28 L 0 680.96 C 0 705.33 19.92 725.26 44.28 725.26 L 893.74 725.26 C 918.1 725.26 938.03 705.33 938.03 680.96 L 938.03 44.28 C 938.03 19.92 918.1 0 893.74 0 Z M 44.28 20 L 893.74 20 C 907.37 20 918.03 30.66 918.03 44.28 L 918.03 680.96 C 918.03 694.59 907.37 705.25 893.74 705.25 L 44.28 705.25 C 30.66 705.25 20 694.59 20 680.96 L 20 44.28 C 20 30.66 30.66 20 44.28 20 Z" fill="var(--icon-primary, #dae8fc)" stroke="none" stroke-width="0"/></svg>