<svg xmlns="http://www.w3.org/2000/svg" viewBox="0 0 330.52 428.16" width="330.52" height="428.16"><path d="M 305.29 0 L 25.23 0 C 11.37 0 0 11.37 0 25.23 L 0 402.93 C 0 416.79 11.37 428.16 25.23 428.16 L 305.29 428.16 C 319.14 428.16 330.52 416.79 330.52 402.93 L 330.52 25.23 C 330.52 11.37 319.14 0 305.29 0 Z" fill="var(--icon-secondary, #6c8ebf)" stroke="none" stroke-width="0"/><path d="M 305.29 14.17 L 25.23 14.17 C 18.98 14.17 14.17 18.98 14.17 25.23 L 14.17 402.93 C 14.17 409.18 18.98 413.99 25.23 413.99 L 305.29 413.99 C 311.54 413.99 316.35 409.18 316.35 402.93 L 316.35 25.23 C 316.35 18.98 311.54 14.17 305.29 14.17 Z M 164.95 26.26 C 169.48 26.26 173.16 29.94 173.16 34.47 C 173.16 39 169.48 42.69 164.95 42.69 C 162.68 42.69 160.62 41.77 159.14 40.28 C 157.65 38.8 156.73 36.74 156.73 34.47 C 156.73 29.94 160.41 26.26 164.95 26.26 Z M 165.13 398.65 C 156.61 398.65 149.71 391.75 149.71 383.23 C 149.71 374.71 156.61 367.82 165.13 367.82 C 173.65 367.82 180.54 374.72 180.54 383.23 C 180.54 391.74 173.64 398.65 165.13 398.65 Z M 299.26 352.83 L 31.65 352.83 L 31.65 55.59 L 299.26 55.59 L 299.26 352.83 L 299.26 352.83 Z" fill="var(--icon-secondary, #6c8ebf)" stroke="none" stroke-width="0"/></svg>