<svg xmlns="http://www.w3.org/2000/svg" viewBox="0 0 116.6 151.05" width="116.6" height="151.05"><path d="M 63.69 135.2 A 5.44 5.44 0 0 1 58.25 140.63 A 5.44 5.44 0 0 1 52.81 135.2 A 5.44 5.44 0 0 1 58.25 129.76 A 5.44 5.44 0 0 1 63.69 135.2 Z M 61.09 12.16 A 2.9 2.9 0 0 1 58.19 15.06 A 2.9 2.9 0 0 1 55.29 12.16 A 2.9 2.9 0 0 1 58.19 9.26 A 2.9 2.9 0 0 1 61.09 12.16 Z M 11.16 19.61 L 105.57 19.61 L 105.57 124.47 L 11.16 124.47 Z M 8.9 0 C 4.01 0 0 4.01 0 8.9 L 0 142.15 C 0 147.03 4.01 151.05 8.9 151.05 L 107.7 151.05 C 112.59 151.05 116.6 147.03 116.6 142.15 L 116.6 8.9 C 116.6 4.01 112.59 0 107.7 0 Z M 8.9 5 L 107.7 5 C 109.9 5 111.6 6.7 111.6 8.9 L 111.6 142.15 C 111.6 144.35 109.9 146.05 107.7 146.05 L 8.9 146.05 C 6.7 146.05 5 144.35 5 142.15 L 5 8.9 C 5 6.7 6.7 5 8.9 5 Z" fill="var(--icon-primary, #dae8fc)" stroke="none" stroke-width="0"/></svg>