<svg xmlns="http://www.w3.org/2000/svg" viewBox="0 0 2376.18 1940.84" width="2376.18" height="1940.84"><path d="M 2376.18 1555.9 L 2376.18 0 L 0 3.95 L 0 1555.9 L 946.92 1555.9 L 946.92 1795.09 L 440.52 1795.09 L 440.52 1940.84 L 1937.64 1940.84 L 1937.64 1795.09 L 1436.21 1795.09 L 1436.21 1555.9 L 2376.18 1555.9 L 2376.18 1555.9 Z" fill="var(--icon-secondary, #6c8ebf)" stroke="none" stroke-width="0"/><path d="M 2354.75 1534.47 L 2354.75 21.47 L 21.42 25.34 L 21.42 1534.47 L 968.35 1534.47 L 968.35 1816.5 L 461.94 1816.5 L 461.94 1919.41 L 1916.2 1919.41 L 1916.2 1816.5 L 1414.78 1816.5 L 1414.78 1534.47 L 2354.75 1534.47 Z M 239.28 1445.95 L 239.28 114.89 L 2136.96 114.89 L 2136.96 1445.95 L 239.28 1445.95 Z" fill="var(--icon-secondary, #6c8ebf)" stroke="none" stroke-width="0"/></svg>