<svg xmlns="http://www.w3.org/2000/svg" viewBox="0 0 691.66 721.69" width="691.66" height="721.69"><path d="M 234.87 0 L 147.04 88.07 L 147.04 34.6 L 78.69 34.6 L 78.69 157.78 L 0 236.38 L 44.63 236.38 L 44.63 551.77 L 245.6 551.77 L 245.6 610.08 C 245.6 634.34 265.48 654.21 289.73 654.21 L 426.86 654.21 L 426.86 683.79 L 366.57 683.79 A 18.9 18.9 0 1 0 366.57 721.59 L 570.68 721.59 A 18.9 18.9 0 1 0 570.68 683.79 L 510.4 683.79 L 510.4 654.21 L 647.53 654.21 C 671.78 654.21 691.66 634.34 691.66 610.08 L 691.66 405.37 C 691.66 381.12 671.78 361.24 647.53 361.24 L 426.15 361.24 L 426.15 236.38 L 469.73 236.38 Z M 67.31 236.38 L 403.47 236.38 L 403.47 361.24 L 289.73 361.24 C 265.48 361.24 245.6 381.12 245.6 405.37 L 245.6 529.1 L 67.31 529.1 Z M 289.73 383.92 L 647.53 383.92 C 659.61 383.92 668.98 393.29 668.98 405.37 L 668.98 610.08 C 668.98 622.17 659.61 631.54 647.53 631.54 L 289.73 631.54 C 277.65 631.54 268.28 622.17 268.28 610.08 L 268.28 405.37 C 268.28 393.29 277.65 383.92 289.73 383.92 Z M 299.29 407.77 L 299.29 606.86 L 637.97 606.86 L 637.97 407.77 Z" fill="var(--icon-primary, #dae8fc)" stroke="none" stroke-width="0"/></svg>