<svg xmlns="http://www.w3.org/2000/svg" viewBox="0 0 1960.61 2045.88" width="1960.61" height="2045.88"><path d="M 1835.52 1023.99 L 1207.97 1023.99 L 1207.97 670.07 L 1331.52 670.07 L 665.76 0 L 416.82 249.65 L 416.82 98.08 L 223.06 98.08 L 223.06 447.25 L 0 670.07 L 126.52 670.07 L 126.52 1564.08 L 696.19 1564.08 L 696.19 1729.37 C 696.19 1798.12 752.53 1854.46 821.28 1854.46 L 1209.99 1854.46 L 1209.99 1938.31 L 1039.11 1938.31 C 1009.52 1937.87 985.19 1961.5 984.75 1991.08 C 984.31 2020.66 1007.94 2045 1037.52 2045.44 C 1038.05 2045.45 1038.58 2045.45 1039.11 2045.44 L 1617.69 2045.44 C 1647.27 2045.88 1671.61 2022.25 1672.05 1992.67 C 1672.48 1963.08 1648.86 1938.74 1619.27 1938.31 C 1618.74 1938.3 1618.21 1938.3 1617.69 1938.31 L 1446.8 1938.31 L 1446.8 1854.46 L 1835.52 1854.46 C 1904.26 1854.46 1960.61 1798.12 1960.61 1729.37 L 1960.61 1149.08 C 1960.61 1080.33 1904.26 1023.99 1835.52 1023.99 L 1835.52 1023.99 Z" fill="var(--icon-secondary, #6c8ebf)" stroke="none" stroke-width="0"/><path d="M 1835.52 1088.27 L 821.28 1088.27 C 787.03 1088.27 760.47 1114.83 760.47 1149.08 L 760.47 1729.37 C 760.47 1763.62 787.03 1790.18 821.28 1790.18 L 1835.52 1790.18 C 1869.76 1790.18 1896.32 1763.62 1896.32 1729.37 L 1896.32 1149.08 C 1896.32 1114.83 1869.76 1088.27 1835.52 1088.27 Z M 1808.42 1720.23 L 848.37 1720.23 L 848.37 1155.87 L 1808.42 1155.87 L 1808.42 1720.23 Z M 1143.69 670.07 L 1143.69 1023.99 L 821.28 1023.99 C 752.53 1023.99 696.19 1080.33 696.19 1149.08 L 696.19 1499.8 L 190.81 1499.8 L 190.81 670.07 L 1143.69 670.07 Z" fill="var(--icon-secondary, #6c8ebf)" stroke="none" stroke-width="0"/></svg>