<svg xmlns="http://www.w3.org/2000/svg" viewBox="0 0 721.85 725.26" width="721.85" height="725.26"><path d="M 106.5 124.51 L 106.5 417.94 L 261.65 417.94 L 261.65 539.2 L 245.14 539.2 C 235.03 539.2 226.89 547.34 226.89 557.45 L 226.89 571.06 C 226.89 581.17 235.03 589.31 245.14 589.31 L 606.3 589.31 C 616.41 589.31 624.55 581.17 624.55 571.06 L 624.55 557.45 C 624.55 547.34 616.41 539.2 606.3 539.2 L 589.5 539.2 L 589.5 307.92 C 589.5 300.54 583.32 294.35 575.94 294.35 L 330.68 294.35 L 330.68 124.51 Z M 225.25 138.3 C 234.18 138.38 244.59 139.82 248.2 143.31 C 251.72 146.09 255.54 150.41 259.03 151.86 C 264.15 153.57 263.98 158.55 263.62 163.69 L 263.7 201.61 C 262.68 222.27 255.73 241.92 233.47 258.94 C 242.36 267.95 261.64 278.06 275.75 279.81 C 293.73 282.3 318.16 302.86 320.07 337.39 L 323.86 402.99 C 292.09 409.48 255.19 414.55 218.33 414.55 C 186.38 414.55 146.32 412.88 108.81 402.74 L 112.59 342.85 C 112.68 307.13 133.73 285.26 167.76 277.13 C 177.82 274.01 189.37 266.1 196.4 257.5 C 182.91 246.21 170.59 226.21 170.59 201.64 C 168.78 187.71 167.21 170.16 168.64 160.46 C 170.07 151.63 179.76 141.74 186.68 141.98 C 207.79 142.77 206.77 139.88 214.75 138.94 C 217.43 138.5 221.18 138.26 225.25 138.3 Z M 330.68 309.47 L 574.39 309.47 L 574.39 539.2 L 276.76 539.2 L 276.76 417.94 L 330.68 417.94 Z M 486.66 351.98 A 45.96 45.96 0 0 0 440.7 397.94 A 45.96 45.96 0 0 0 441.46 406.18 L 331.48 444.43 A 7.56 7.56 0 1 0 336.45 458.7 L 346.65 455.16 C 350.46 465.05 354.31 474.98 358.02 486.05 A 7.56 7.56 0 1 0 372.35 481.25 C 371.35 478.26 370.34 475.37 369.33 472.54 L 382.28 468.05 C 383.37 471.07 384.44 474.16 385.51 477.34 A 7.56 7.56 0 1 0 399.84 472.54 C 395.96 460.94 391.97 450.69 388.14 440.73 L 446.62 420.39 A 45.96 45.96 0 0 0 486.66 443.91 A 45.96 45.96 0 0 0 532.62 397.94 A 45.96 45.96 0 0 0 486.66 351.98 Z M 503.38 376.27 A 16.26 16.26 0 0 1 519.64 392.54 A 16.26 16.26 0 0 1 503.38 408.8 A 16.26 16.26 0 0 1 487.12 392.54 A 16.26 16.26 0 0 1 503.38 376.27 Z M 516.28 552.72 L 590.08 552.72 L 590.08 572.26 L 516.28 572.26 Z M 397.52 554.97 C 402.21 554.97 406.01 558.77 406.01 563.46 C 406.01 568.15 402.21 571.95 397.52 571.95 C 392.83 571.95 389.03 568.15 389.03 563.46 C 389.03 558.77 392.83 554.97 397.52 554.97 Z M 424.42 554.97 C 429.1 554.97 432.9 558.77 432.9 563.46 C 432.9 568.15 429.1 571.95 424.42 571.95 C 419.73 571.95 415.93 568.15 415.93 563.46 C 415.93 558.77 419.73 554.97 424.42 554.97 Z M 451.31 554.97 C 456 554.97 459.8 558.77 459.8 563.46 C 459.8 568.15 456 571.95 451.31 571.95 C 446.62 571.95 442.82 568.15 442.82 563.46 C 442.82 558.77 446.62 554.97 451.31 554.97 Z M 44.28 20 L 677.57 20 C 691.2 20 701.86 30.66 701.86 44.28 L 701.86 680.96 C 701.86 694.59 691.2 705.25 677.57 705.25 L 44.28 705.25 C 30.66 705.25 20 694.59 20 680.96 L 20 44.28 C 20 30.66 30.66 20 44.28 20 Z M 44.28 0 C 19.92 0 0 19.92 0 44.28 L 0 680.96 C 0 705.33 19.92 725.26 44.28 725.26 L 677.57 725.26 C 701.93 725.26 721.85 705.33 721.85 680.96 L 721.85 44.28 C 721.85 19.92 701.93 0 677.57 0 Z" fill="var(--icon-primary, #dae8fc)" stroke="none" stroke-width="0"/></svg>