<svg xmlns="http://www.w3.org/2000/svg" viewBox="0 0 190.99 258.04" width="190.99" height="258.04"><path d="M 30.49 21.61 L 162.03 21.61 C 167.68 21.61 172.23 26.16 172.23 31.82 L 172.23 110.25 C 172.23 115.9 167.68 120.45 162.03 120.45 L 30.49 120.45 C 24.84 120.45 20.28 115.9 20.28 110.25 L 20.28 31.82 C 20.28 26.16 24.84 21.61 30.49 21.61 Z M 30.49 137.99 L 162.03 137.99 C 167.68 137.99 172.23 142.54 172.23 148.2 L 172.23 226.63 C 172.23 232.28 167.68 236.83 162.03 236.83 L 30.49 236.83 C 24.84 236.83 20.28 232.28 20.28 226.63 L 20.28 148.2 C 20.28 142.54 24.84 137.99 30.49 137.99 Z M 11.72 5.29 L 179.27 5.29 C 182.88 5.29 185.7 8.11 185.7 11.72 L 185.7 246.32 C 185.7 249.92 182.88 252.74 179.27 252.74 L 11.72 252.74 C 8.11 252.74 5.29 249.92 5.29 246.32 L 5.29 11.72 C 5.29 8.11 8.11 5.29 11.72 5.29 Z M 11.72 0 C 5.27 0 0 5.27 0 11.72 L 0 246.32 C 0 252.76 5.27 258.04 11.72 258.04 L 179.27 258.04 C 185.72 258.04 190.99 252.76 190.99 246.32 L 190.99 11.72 C 190.99 5.27 185.72 0 179.27 0 Z" fill="var(--icon-primary, #dae8fc)" stroke="none" stroke-width="0"/><path d="M 102.19 195.04 C 103.16 205.93 110.63 212.24 123.1 212.24 C 132.28 212.24 143.31 208.95 143.31 197.25 C 143.31 186.25 136.69 183.19 127.13 181.31 C 120.85 180.17 113.89 178.24 113.89 173.89 C 113.89 171.06 119.19 168.88 123.09 168.88 C 127.31 168.88 131.49 171.99 131.63 176.16 L 142.24 176.23 C 141.77 168.14 136.15 160.89 122.94 160.89 C 115.26 160.89 104.24 164.06 104.24 175.1 C 104.24 185.19 114.88 188.79 120.11 189.56 C 128.96 191.13 133.25 192.82 133.25 197.03 C 133.25 201.69 128.81 204.06 123.65 204.06 C 117.54 204.06 112.95 200.95 112.3 194.75 Z M 72.7 203.99 C 63.54 203.99 58.29 196.55 58.29 186.65 C 58.29 174.16 65 169.68 72.93 169.68 C 79.77 169.68 86.16 173.97 86.16 186.98 C 86.16 199.27 78.93 203.99 72.7 203.99 Z M 71.7 212.35 C 86.9 212.35 96.93 202.18 96.93 187.07 C 96.93 167.44 82.99 160.9 73.22 160.9 C 58.37 160.9 47.75 167.89 47.75 186.79 C 47.75 206 61.11 212.35 71.7 212.35 Z M 30.72 141.39 L 161.79 141.39 C 165.38 141.39 168.26 144.28 168.26 147.86 L 168.26 227.72 C 168.26 231.3 165.38 234.19 161.79 234.19 L 30.72 234.19 C 27.14 234.19 24.25 231.3 24.25 227.72 L 24.25 147.86 C 24.25 144.28 27.14 141.39 30.72 141.39 Z M 97.5 94.79 L 107.09 94.79 L 107.09 55.07 L 116.92 94.79 L 126.9 94.79 L 137.32 55.84 L 137.32 94.79 L 146.4 94.79 L 146.4 44.94 L 131.08 44.94 L 121.93 78.77 L 112.77 44.94 L 97.5 44.94 Z M 63.42 94.79 L 74.19 94.79 L 92.31 44.94 L 81.41 44.94 L 69.07 82.27 L 55.98 44.94 L 45.15 44.94 Z M 30.72 25.01 L 161.79 25.01 C 165.38 25.01 168.26 27.9 168.26 31.48 L 168.26 111.34 C 168.26 114.92 165.38 117.81 161.79 117.81 L 30.72 117.81 C 27.14 117.81 24.25 114.92 24.25 111.34 L 24.25 31.48 C 24.25 27.9 27.14 25.01 30.72 25.01 Z" fill="#ffffff" stroke="none" stroke-width="0" opacity="0.5"/></svg>