<svg xmlns="http://www.w3.org/2000/svg" viewBox="0 0 385.37 191.89" width="385.37" height="191.89"><path d="M 313.44 120.74 C 313.44 93.99 322.87 86.23 329.36 86.23 C 335.8 86.23 345.42 93.51 345.42 120.74 Z M 344.24 69.84 A 14.78 14.78 0 0 1 329.46 84.63 A 14.78 14.78 0 0 1 314.67 69.84 A 14.78 14.78 0 0 1 329.46 55.06 A 14.78 14.78 0 0 1 344.24 69.84 Z M 271.05 120.74 C 271.05 93.99 280.48 86.23 286.97 86.23 C 293.41 86.23 303.03 93.51 303.03 120.74 Z M 301.85 69.84 A 14.78 14.78 0 0 1 287.07 84.63 A 14.78 14.78 0 0 1 272.28 69.84 A 14.78 14.78 0 0 1 287.07 55.06 A 14.78 14.78 0 0 1 301.85 69.84 Z M 262.98 44.26 C 257.74 44.26 253.53 48.48 253.53 53.72 L 253.53 119.4 C 253.53 124.64 257.74 128.86 262.98 128.86 L 296.43 128.86 L 296.43 137.43 L 283.94 137.43 A 5.75 5.75 0 1 0 283.94 148.93 L 328.94 148.93 A 5.75 5.75 0 1 0 328.94 137.43 L 316.45 137.43 L 316.45 128.86 L 349.89 128.86 C 355.13 128.86 359.35 124.64 359.35 119.4 L 359.35 53.72 C 359.35 48.48 355.13 44.26 349.89 44.26 Z M 200.17 120.74 C 200.17 93.99 209.61 86.23 216.1 86.23 C 222.54 86.23 232.16 93.51 232.16 120.74 Z M 230.98 69.84 A 14.78 14.78 0 0 1 216.19 84.63 A 14.78 14.78 0 0 1 201.41 69.84 A 14.78 14.78 0 0 1 216.19 55.06 A 14.78 14.78 0 0 1 230.98 69.84 Z M 157.79 120.74 C 157.79 93.99 167.22 86.23 173.71 86.23 C 180.15 86.23 189.77 93.51 189.77 120.74 Z M 188.59 69.84 A 14.78 14.78 0 0 1 173.81 84.63 A 14.78 14.78 0 0 1 159.02 69.84 A 14.78 14.78 0 0 1 173.81 55.06 A 14.78 14.78 0 0 1 188.59 69.84 Z M 149.72 44.26 C 144.48 44.26 140.26 48.48 140.26 53.72 L 140.26 119.4 C 140.26 124.64 144.48 128.86 149.72 128.86 L 183.17 128.86 L 183.17 137.43 L 170.67 137.43 A 5.75 5.75 0 1 0 170.67 148.93 L 215.68 148.93 A 5.75 5.75 0 1 0 215.68 137.43 L 203.18 137.43 L 203.18 128.86 L 236.63 128.86 C 241.87 128.86 246.09 124.64 246.09 119.4 L 246.09 53.72 C 246.09 48.48 241.87 44.26 236.63 44.26 Z M 86.91 120.74 C 86.91 93.99 96.35 86.23 102.84 86.23 C 109.27 86.23 118.9 93.51 118.9 120.74 Z M 117.72 69.84 A 14.78 14.78 0 0 1 102.93 84.63 A 14.78 14.78 0 0 1 88.15 69.84 A 14.78 14.78 0 0 1 102.93 55.06 A 14.78 14.78 0 0 1 117.72 69.84 Z M 44.52 120.74 C 44.52 93.99 53.96 86.23 60.45 86.23 C 66.89 86.23 76.51 93.51 76.51 120.74 Z M 75.33 69.84 A 14.78 14.78 0 0 1 60.55 84.63 A 14.78 14.78 0 0 1 45.76 69.84 A 14.78 14.78 0 0 1 60.55 55.06 A 14.78 14.78 0 0 1 75.33 69.84 Z M 36.46 44.26 C 31.22 44.26 27 48.48 27 53.72 L 27 119.4 C 27 124.64 31.22 128.86 36.46 128.86 L 69.91 128.86 L 69.91 137.43 L 57.41 137.43 A 5.75 5.75 0 1 0 57.41 148.93 L 102.42 148.93 A 5.75 5.75 0 1 0 102.42 137.43 L 89.92 137.43 L 89.92 128.86 L 123.37 128.86 C 128.61 128.86 132.83 124.64 132.83 119.4 L 132.83 53.72 C 132.83 48.48 128.61 44.26 123.37 44.26 Z M 11.72 0 C 5.27 0 0 5.27 0 11.72 L 0 180.17 C 0 186.62 5.27 191.89 11.72 191.89 L 373.65 191.89 C 380.1 191.89 385.37 186.62 385.37 180.17 L 385.37 11.72 C 385.37 5.27 380.1 0 373.65 0 Z M 11.72 5.29 L 373.65 5.29 C 377.26 5.29 380.08 8.11 380.08 11.72 L 380.08 180.17 C 380.08 183.78 377.26 186.6 373.65 186.6 L 11.72 186.6 C 8.11 186.6 5.29 183.78 5.29 180.17 L 5.29 11.72 C 5.29 8.11 8.11 5.29 11.72 5.29 Z" fill="var(--icon-primary, #dae8fc)" stroke="none" stroke-width="0"/></svg>