<svg xmlns="http://www.w3.org/2000/svg" viewBox="0 0 938.03 725.26" width="938.03" height="725.26"><path d="M 372.38 104.74 L 563.62 104.74 L 563.62 635.46 L 372.38 635.46 Z" fill="var(--icon-secondary, #6c8ebf)" stroke="none" stroke-width="0"/><rect x="0" y="0" width="0" height="0" fill="none" stroke="var(--icon-secondary, #6c8ebf)" stroke-width="1"/><path d="M 418.18 104.74 L 418.18 166.43 L 372.38 166.43 L 372.38 181.55 L 480.69 181.55 L 480.69 263.26 L 372.38 263.26 L 372.38 278.38 L 403.16 278.38 L 403.16 362.47 L 372.38 362.47 L 372.38 377.59 L 458.08 377.59 L 458.08 460.55 L 372.38 460.55 L 372.38 475.67 L 501.99 475.67 L 501.99 559.75 L 372.38 559.75 L 372.38 574.87 L 412.29 574.87 L 412.29 635.46 L 427.4 635.46 L 427.4 574.87 L 563.62 574.87 L 563.62 559.75 L 517.11 559.75 L 517.11 475.67 L 563.62 475.67 L 563.62 460.55 L 473.2 460.55 L 473.2 377.59 L 563.62 377.59 L 563.62 362.47 L 418.28 362.47 L 418.28 278.38 L 563.62 278.38 L 563.62 263.26 L 495.81 263.26 L 495.81 181.55 L 563.62 181.55 L 563.62 166.43 L 433.29 166.43 L 433.29 104.74 Z M 128.48 399.64 C 96.35 399.64 70.3 425.69 70.3 457.82 C 70.33 477.94 80.76 496.63 97.88 507.21 C 76.41 532.62 64.29 566.09 64.29 599.19 L 64.29 655.71 L 192.67 655.71 L 192.67 599.19 C 192.67 565.71 177.51 533.58 157.4 508.21 C 175.47 497.86 186.62 478.64 186.65 457.82 C 186.66 425.69 160.61 399.64 128.48 399.64 Z M 810.75 399.64 C 778.62 399.64 752.58 425.69 752.58 457.82 C 752.61 477.94 763.04 496.63 780.15 507.21 C 758.69 532.62 746.56 566.09 746.56 599.19 L 746.56 655.71 L 874.94 655.71 L 874.94 599.19 C 874.94 565.71 859.78 533.58 839.67 508.21 C 857.74 497.86 868.9 478.64 868.93 457.82 C 868.93 425.69 842.88 399.64 810.75 399.64 Z M 186.15 241.48 L 275.86 305.31 L 186.15 369.13 L 186.15 325.7 L 83.24 325.7 L 83.24 284.91 L 186.15 284.91 Z M 172.95 70.75 L 172.95 114.18 L 275.86 114.18 L 275.86 154.97 L 172.95 154.97 L 172.95 198.4 L 83.24 134.58 Z M 247.26 477.66 L 192.68 516.49 L 247.26 555.32 L 247.26 528.9 L 312.28 528.9 L 312.28 555.32 L 366.85 516.49 L 312.28 477.66 L 312.28 504.08 L 247.26 504.08 Z M 625.86 477.66 L 571.28 516.49 L 625.86 555.32 L 625.86 528.9 L 690.88 528.9 L 690.88 555.32 L 745.46 516.49 L 690.88 477.66 L 690.88 504.08 L 625.86 504.08 Z M 763.99 241.29 L 674.28 305.11 L 763.99 368.94 L 763.99 325.51 L 866.9 325.51 L 866.9 284.71 L 763.99 284.71 Z M 777.19 70.56 L 777.19 113.98 L 674.28 113.98 L 674.28 154.78 L 777.19 154.78 L 777.19 198.21 L 866.9 134.38 Z M 44.28 0 C 19.92 0 0 19.92 0 44.28 L 0 680.96 C 0 705.33 19.92 725.26 44.28 725.26 L 893.74 725.26 C 918.1 725.26 938.03 705.33 938.03 680.96 L 938.03 44.28 C 938.03 19.92 918.1 0 893.74 0 Z M 44.28 20 L 893.74 20 C 907.37 20 918.03 30.66 918.03 44.28 L 918.03 680.96 C 918.03 694.59 907.37 705.25 893.74 705.25 L 44.28 705.25 C 30.66 705.25 20 694.59 20 680.96 L 20 44.28 C 20 30.66 30.66 20 44.28 20 Z" fill="var(--icon-primary, #dae8fc)" stroke="none" stroke-width="0"/></svg>