<svg xmlns="http://www.w3.org/2000/svg" viewBox="0 0 2285.27 2047.47" width="2285.27" height="2047.47"><path d="M 1915.47 0 L 755.3 0 C 702.26 0 658.98 43.28 658.98 96.32 L 658.98 954.31 C 658.98 1007.35 702.26 1050.65 755.3 1050.65 L 1915.47 1050.65 C 1968.51 1050.65 2011.78 1007.35 2011.78 954.31 L 2011.78 96.32 C 2011.78 43.28 1968.51 0 1915.47 0 Z M 2252.8 1723.13 L 2252.78 1723.05 L 2199.29 1398.04 L 2199.25 1397.85 C 2183.03 1292.75 2145.97 1213.54 2087.41 1161.04 C 2028.83 1108.53 1949.93 1084.19 1854.99 1084.73 L 609.24 1084.73 L 609.24 455.63 C 609.24 334.9 512.06 237.72 391.34 237.72 C 270.62 237.72 173.43 334.9 173.43 455.63 L 173.43 1209.75 C 147.68 1248.07 127.48 1297.24 113.88 1359.52 C 113.84 1359.7 113.8 1359.88 113.76 1360.06 L 45.23 1727.13 C 36.08 1773.6 32.63 1820.52 48.58 1859.46 C 64.52 1898.4 103.53 1925.5 162.66 1925.5 L 2116.98 1925.5 C 2150.75 1925.5 2177.6 1922.82 2199.71 1915.5 C 2221.82 1908.17 2239.51 1895.08 2249.87 1876.78 C 2270.58 1840.22 2264.7 1791.93 2252.8 1723.13 L 2252.8 1723.13 Z M 2284.64 1889.6 C 2274.32 1921.43 2217.38 1967.97 2187.23 1967.97 L 145.91 1973.8 C 73.68 1973.8 25.57 1932.77 0 1882.37 L 0 1968.46 C 0 2018.08 41.97 2046.94 123.05 2046.94 L 2228.58 2047.47 C 2261.01 2038.78 2285.27 2009.46 2285.27 1972.89 L 2284.64 1889.6 L 2284.64 1889.6 Z" fill="var(--icon-secondary, #6c8ebf)" stroke="none" stroke-width="0"/><path d="M 2217.23 1858.31 C 2211.67 1868.13 2203.77 1874.65 2187.93 1879.9 C 2172.09 1885.15 2148.63 1888 2116.98 1888 L 162.66 1888 C 113.51 1888 94.19 1871.91 83.27 1845.25 C 72.36 1818.59 73.53 1777.49 82.02 1734.37 C 82.03 1734.31 82.04 1734.25 82.06 1734.18 L 150.56 1367.32 C 156.93 1338.2 164.59 1312.68 173.43 1290.24 L 173.43 1438.58 C 173.43 1559.3 270.62 1656.49 391.34 1656.49 C 512.06 1656.49 609.24 1559.3 609.24 1438.58 L 609.24 1122.23 L 1855.12 1122.23 C 1943.68 1121.7 2011.87 1143.7 2062.38 1188.98 C 2112.89 1234.26 2146.9 1304.22 2162.24 1403.75 C 2162.24 1403.82 2162.25 1403.88 2162.26 1403.94 L 2215.81 1729.22 C 2215.81 1729.27 2215.82 1729.32 2215.82 1729.37 C 2227.47 1796.7 2228.35 1838.67 2217.23 1858.31 Z M 1915.47 37.49 L 755.3 37.49 C 722.38 37.49 696.48 63.4 696.48 96.32 L 696.48 954.31 C 696.48 987.22 722.38 1013.15 755.3 1013.15 L 1915.47 1013.15 C 1948.38 1013.15 1974.29 987.22 1974.29 954.31 L 1974.29 96.32 C 1974.29 63.4 1948.38 37.49 1915.47 37.49 Z" fill="var(--icon-secondary, #6c8ebf)" stroke="none" stroke-width="0"/><rect x="0" y="0" width="0" height="0" fill="none" stroke="var(--icon-secondary, #6c8ebf)" stroke-width="1"/><path d="M 1332.2 89.21 C 1302.53 89.21 1278.49 113.26 1278.49 142.93 C 1278.49 172.6 1302.53 196.64 1332.2 196.64 C 1361.87 196.64 1385.91 172.59 1385.91 142.93 C 1385.91 113.27 1361.87 89.21 1332.2 89.21 Z M 1773.83 235.92 L 896.94 235.92 C 852.47 235.92 816.67 271.72 816.67 316.19 L 816.67 837.52 C 816.67 881.99 852.47 917.79 896.94 917.79 L 1773.83 917.79 C 1818.31 917.79 1854.11 881.99 1854.11 837.52 L 1854.11 316.19 C 1854.11 271.72 1818.31 235.92 1773.83 235.92 L 1773.83 235.92 Z M 1753.68 1242.08 L 945.36 1242.08 C 923.17 1241.85 904.99 1259.64 904.75 1281.83 C 904.51 1304.02 922.31 1322.2 944.5 1322.44 L 1752.82 1322.44 C 1775.01 1322.68 1793.19 1304.88 1793.43 1282.69 C 1793.67 1260.5 1775.87 1242.32 1753.68 1242.08 Z M 1083.86 1715.48 C 1083.44 1715.47 1083.01 1715.47 1082.59 1715.48 L 1000.83 1715.48 C 978.65 1715.12 960.37 1732.82 960.02 1755.01 C 959.67 1777.2 977.37 1795.47 999.56 1795.83 L 1082.59 1795.83 C 1104.77 1796.18 1123.05 1778.48 1123.4 1756.29 C 1123.75 1734.1 1106.05 1715.83 1083.86 1715.48 L 1083.86 1715.48 Z M 1114.04 1564.35 L 1031.01 1564.35 C 1008.82 1564 990.55 1581.7 990.19 1603.89 C 989.84 1626.08 1007.54 1644.35 1029.73 1644.7 C 1030.16 1644.71 1030.58 1644.71 1031.01 1644.7 L 1112.76 1644.7 C 1134.95 1645.06 1153.22 1627.36 1153.57 1605.17 C 1153.93 1582.98 1136.23 1564.71 1114.04 1564.35 L 1114.04 1564.35 Z M 1141.24 1412.96 C 1140.82 1412.95 1140.39 1412.95 1139.96 1412.96 L 1058.21 1412.96 C 1036.02 1412.61 1017.75 1430.31 1017.39 1452.5 C 1017.04 1474.68 1034.74 1492.96 1056.93 1493.31 C 1057.36 1493.32 1057.78 1493.32 1058.21 1493.31 L 1139.96 1493.31 C 1162.15 1493.66 1180.43 1475.96 1180.78 1453.77 C 1181.13 1431.59 1163.43 1413.31 1141.24 1412.96 L 1141.24 1412.96 Z M 1386.11 1564.35 L 1303.07 1564.35 C 1280.89 1564 1262.61 1581.7 1262.26 1603.89 C 1261.91 1626.08 1279.61 1644.35 1301.79 1644.7 C 1302.22 1644.71 1302.65 1644.71 1303.07 1644.7 L 1384.83 1644.7 C 1407.02 1645.06 1425.29 1627.36 1425.64 1605.17 C 1426 1582.98 1408.3 1564.71 1386.11 1564.35 L 1386.11 1564.35 Z M 1386.11 1412.96 C 1385.68 1412.95 1385.26 1412.95 1384.83 1412.96 L 1303.07 1412.96 C 1280.89 1412.61 1262.61 1430.31 1262.26 1452.5 C 1261.91 1474.68 1279.61 1492.96 1301.79 1493.31 C 1302.22 1493.32 1302.65 1493.32 1303.07 1493.31 L 1384.83 1493.31 C 1407.02 1493.66 1425.29 1475.96 1425.64 1453.77 C 1426 1431.59 1408.3 1413.31 1386.11 1412.96 Z M 1386.65 1715.48 C 1386.22 1715.47 1385.8 1715.47 1385.37 1715.48 L 1303.6 1715.48 C 1281.41 1715.12 1263.14 1732.82 1262.78 1755.01 C 1262.43 1777.2 1280.13 1795.47 1302.32 1795.83 L 1385.37 1795.83 C 1407.56 1796.18 1425.83 1778.48 1426.19 1756.29 C 1426.54 1734.1 1408.84 1715.83 1386.65 1715.48 L 1386.65 1715.48 Z M 1630.16 1412.96 C 1629.73 1412.95 1629.31 1412.95 1628.88 1412.96 L 1547.12 1412.96 C 1524.94 1412.61 1506.66 1430.31 1506.31 1452.5 C 1505.96 1474.68 1523.66 1492.96 1545.85 1493.31 C 1546.27 1493.32 1546.7 1493.32 1547.12 1493.31 L 1628.88 1493.31 C 1651.07 1493.66 1669.34 1475.96 1669.69 1453.77 C 1670.05 1431.59 1652.35 1413.31 1630.16 1412.96 Z M 1660.33 1564.35 L 1577.3 1564.35 C 1555.11 1564 1536.84 1581.7 1536.48 1603.89 C 1536.13 1626.08 1553.83 1644.35 1576.02 1644.7 C 1576.45 1644.71 1576.87 1644.71 1577.3 1644.7 L 1659.05 1644.7 C 1681.24 1645.06 1699.51 1627.36 1699.87 1605.17 C 1700.22 1582.98 1682.52 1564.71 1660.33 1564.35 L 1660.33 1564.35 Z M 1689.96 1715.48 C 1689.53 1715.47 1689.11 1715.47 1688.68 1715.48 L 1606.93 1715.48 C 1584.74 1715.12 1566.47 1732.82 1566.11 1755.01 C 1565.76 1777.2 1583.46 1795.47 1605.65 1795.83 L 1688.68 1795.83 C 1710.87 1796.18 1729.14 1778.48 1729.49 1756.29 C 1729.85 1734.1 1712.15 1715.83 1689.96 1715.48 L 1689.96 1715.48 Z" fill="var(--icon-secondary, #6c8ebf)" stroke="none" stroke-width="0"/></svg>