<svg xmlns="http://www.w3.org/2000/svg" viewBox="0 0 806.19 722.3" width="806.19" height="722.3"><path d="M 266.45 0 C 247.74 0 232.47 15.27 232.47 33.98 L 232.47 336.66 C 232.47 355.37 247.74 370.64 266.45 370.64 L 675.73 370.64 C 694.45 370.64 709.71 355.37 709.71 336.66 L 709.71 33.98 C 709.71 15.27 694.45 0 675.73 0 Z M 266.45 13.23 L 675.73 13.23 C 687.35 13.23 696.48 22.37 696.48 33.98 L 696.48 336.66 C 696.48 348.27 687.35 357.42 675.73 357.42 L 266.45 357.42 C 254.84 357.42 245.7 348.27 245.7 336.66 L 245.7 33.98 C 245.7 22.37 254.84 13.23 266.45 13.23 Z M 469.97 31.47 A 18.95 18.95 0 0 0 451.02 50.42 A 18.95 18.95 0 0 0 469.97 69.37 A 18.95 18.95 0 0 0 488.92 50.42 A 18.95 18.95 0 0 0 469.97 31.47 Z M 316.42 83.23 C 300.73 83.23 288.1 95.86 288.1 111.54 L 288.1 295.46 C 288.1 311.15 300.73 323.78 316.42 323.78 L 625.77 323.78 C 641.46 323.78 654.09 311.15 654.09 295.46 L 654.09 111.54 C 654.09 95.86 641.46 83.23 625.77 83.23 Z M 138.05 83.86 C 95.47 83.86 61.18 118.15 61.18 160.73 L 61.18 426.77 C 52.1 440.29 44.97 457.64 40.18 479.61 A 6.61 6.61 0 0 0 40.13 479.8 L 15.96 609.29 C 12.73 625.69 11.51 642.24 17.14 655.98 C 22.76 669.71 36.52 679.27 57.38 679.27 L 746.82 679.27 C 758.74 679.27 768.21 678.33 776.01 675.74 C 783.81 673.16 790.05 668.54 793.71 662.09 C 801.01 649.19 798.93 632.15 794.74 607.88 L 794.73 607.85 L 775.86 493.2 L 775.85 493.13 C 770.12 456.05 757.05 428.11 736.39 409.59 C 715.73 391.07 687.89 382.48 654.4 382.67 L 214.93 382.67 L 214.93 160.73 C 214.93 118.15 180.64 83.86 138.05 83.86 Z M 214.93 395.9 L 654.4 395.9 A 6.61 6.61 0 0 0 654.45 395.9 C 685.69 395.71 709.74 403.47 727.56 419.45 C 745.38 435.42 757.38 460.1 762.79 495.21 A 6.61 6.61 0 0 0 762.8 495.28 L 781.69 610.03 A 6.61 6.61 0 0 0 781.69 610.08 C 785.8 633.84 786.11 648.64 782.19 655.57 C 780.23 659.03 777.44 661.34 771.85 663.19 C 766.27 665.04 757.99 666.04 746.82 666.04 L 57.38 666.04 C 40.04 666.04 33.23 660.37 29.38 650.96 C 25.53 641.56 25.94 627.06 28.93 611.85 A 6.61 6.61 0 0 0 28.95 611.78 L 53.12 482.36 C 55.36 472.09 58.07 463.08 61.18 455.17 L 61.18 507.5 C 61.18 550.09 95.47 584.37 138.05 584.37 C 180.64 584.37 214.93 550.09 214.93 507.5 Z M 333.5 438.18 A 14.17 14.17 0 1 0 333.5 466.53 L 618.36 466.53 A 14.17 14.17 0 1 0 618.36 438.18 Z M 373.31 498.46 A 14.17 14.17 0 1 0 373.31 526.81 L 402.15 526.81 A 14.17 14.17 0 1 0 402.15 498.46 Z M 459.7 498.46 A 14.17 14.17 0 1 0 459.7 526.81 L 488.54 526.81 A 14.17 14.17 0 1 0 488.54 498.46 Z M 545.79 498.46 A 14.17 14.17 0 1 0 545.79 526.81 L 574.63 526.81 A 14.17 14.17 0 1 0 574.63 498.46 Z M 363.72 551.87 A 14.17 14.17 0 1 0 363.72 580.21 L 392.56 580.21 A 14.17 14.17 0 1 0 392.56 551.87 Z M 459.7 551.87 A 14.17 14.17 0 1 0 459.7 580.21 L 488.54 580.21 A 14.17 14.17 0 1 0 488.54 551.87 Z M 556.44 551.87 A 14.17 14.17 0 1 0 556.44 580.21 L 585.28 580.21 A 14.17 14.17 0 1 0 585.28 551.87 Z M 353.07 605.18 A 14.17 14.17 0 1 0 353.07 633.53 L 381.91 633.53 A 14.17 14.17 0 1 0 381.91 605.18 Z M 459.88 605.18 A 14.17 14.17 0 1 0 459.88 633.53 L 488.73 633.53 A 14.17 14.17 0 1 0 488.73 605.18 Z M 566.89 605.18 A 14.17 14.17 0 1 0 566.89 633.53 L 595.73 633.53 A 14.17 14.17 0 1 0 595.73 605.18 Z M 0 664.06 L 0 694.43 C 0 711.94 14.81 722.12 43.41 722.12 L 786.19 722.3 C 797.64 719.23 806.19 708.89 806.19 695.99 L 805.97 666.61 C 802.33 677.84 782.24 694.26 771.61 694.26 L 51.47 696.31 C 25.99 696.31 9.02 681.84 0 664.06 Z" fill="var(--icon-primary, #dae8fc)" stroke="none" stroke-width="0"/></svg>