<svg xmlns="http://www.w3.org/2000/svg" viewBox="0 0 196.97 196.97" width="196.97" height="196.97"><path d="M 113.9 129.51 L 113.9 99.88 L 85.94 99.88 L 85.94 129.51 Z M 118.49 131.88 C 118.49 134.9 117.12 136.36 114.37 136.36 L 84.86 136.36 C 82.28 136.36 80.68 134.78 80.68 132.26 L 80.68 97.22 C 80.68 94.82 82.54 93.75 84.71 93.75 L 114.34 93.75 C 116.74 93.75 118.49 94.59 118.49 96.89 Z M 79.5 90.11 C 79.5 93.05 77.78 95.27 74.81 95.27 L 63.82 95.27 C 61.39 95.27 58.76 92.83 58.76 89.79 L 58.76 80.6 C 58.76 77.69 61.13 75.5 64.14 75.5 L 134.94 75.5 C 138.87 75.5 140.64 78.63 140.64 81.2 L 140.64 89.91 C 140.64 92.6 138.37 95.27 135.32 95.27 L 123.88 95.27 C 121.48 95.27 118.97 92.31 118.97 90.11 Z M 76.16 134.4 L 65.42 145.52 L 73.49 153.43 L 44.41 159.48 L 49.8 130.2 L 57.79 138.04 L 68.54 126.92 Z M 146.95 159.27 L 135.83 148.53 L 127.92 156.59 L 121.87 127.51 L 151.15 132.91 L 143.31 140.9 L 154.43 151.64 Z M 53.28 37.93 L 64.4 48.67 L 72.31 40.61 L 78.36 69.69 L 49.08 64.3 L 56.92 56.3 L 45.8 45.56 Z M 98.48 2.5 C 151.51 2.5 194.47 45.46 194.47 98.48 C 194.47 151.51 151.51 194.47 98.48 194.47 C 45.46 194.47 2.5 151.51 2.5 98.48 C 2.5 45.46 45.46 2.5 98.48 2.5 Z M 98.48 0 C 44.11 0 0 44.11 0 98.48 C 0 152.86 44.11 196.97 98.48 196.97 C 152.86 196.97 196.97 152.86 196.97 98.48 C 196.97 44.11 152.86 0 98.48 0 Z M 116.59 63.61 L 127.33 52.49 L 119.27 44.58 L 148.35 38.53 L 142.95 67.81 L 134.96 59.97 L 124.22 71.09 Z" fill="var(--icon-primary, #dae8fc)" stroke="none" stroke-width="0"/></svg>