<svg xmlns="http://www.w3.org/2000/svg" viewBox="0 0 938.03 725.26" width="938.03" height="725.26"><path d="M 471.98 131.42 C 389.06 131.42 317.75 182.45 287.8 254.72 L 107.2 254.72 L 107.2 306.31 L 274.22 306.31 C 273.24 314.3 272.72 322.43 272.72 330.68 C 272.72 440.48 362.18 529.94 471.98 529.94 C 513.05 529.94 551.28 517.42 583.04 496.01 L 704.19 618.68 L 752.59 570.87 L 632.19 448.97 C 641.33 436.63 649.07 423.21 655.2 408.94 L 834.93 408.94 L 834.93 357.36 L 669.46 357.36 C 670.63 348.63 671.25 339.72 671.25 330.68 C 671.25 220.88 581.79 131.42 471.98 131.42 Z M 471.98 172.99 C 559.32 172.99 629.68 243.35 629.68 330.68 C 629.68 339.78 628.9 348.69 627.44 357.36 L 442.27 357.36 L 442.27 330.69 L 360.17 381.63 L 442.27 432.56 L 442.27 408.94 L 609.02 408.94 C 581.91 456.45 530.8 488.36 471.98 488.36 C 384.65 488.36 314.3 418.01 314.3 330.68 C 314.3 322.39 314.94 314.25 316.16 306.31 L 499.86 306.31 L 499.86 329.93 L 581.96 279 L 499.86 228.06 L 499.86 254.72 L 333.66 254.72 C 360.42 205.94 412.22 172.99 471.98 172.99 Z M 44.28 0 C 19.92 0 0 19.92 0 44.28 L 0 680.96 C 0 705.33 19.92 725.26 44.28 725.26 L 893.74 725.26 C 918.1 725.26 938.03 705.33 938.03 680.96 L 938.03 44.28 C 938.03 19.92 918.1 0 893.74 0 Z M 44.28 20 L 893.74 20 C 907.37 20 918.03 30.66 918.03 44.28 L 918.03 680.96 C 918.03 694.59 907.37 705.25 893.74 705.25 L 44.28 705.25 C 30.66 705.25 20 694.59 20 680.96 L 20 44.28 C 20 30.66 30.66 20 44.28 20 Z" fill="var(--icon-primary, #dae8fc)" stroke="none" stroke-width="0"/></svg>