<svg xmlns="http://www.w3.org/2000/svg" viewBox="0 0 248.19 191.89" width="248.19" height="191.89"><path d="M 148.41 94.65 L 162.16 94.65 L 162.16 132.94 L 148.41 132.94 Z M 127.06 102.19 L 140.8 102.19 L 140.8 132.94 L 127.06 132.94 Z M 105.71 111.95 L 119.45 111.95 L 119.45 132.94 L 105.71 132.94 Z M 84.35 108.43 L 98.1 108.43 L 98.1 132.94 L 84.35 132.94 Z M 207.5 81.34 L 207.5 91.3 L 229.44 91.3 L 229.44 101.11 L 207.5 101.11 L 207.5 111.07 L 186.2 96.21 Z M 41 81.41 L 41 91.37 L 19.06 91.37 L 19.06 101.18 L 41 101.18 L 41 111.14 L 62.3 96.28 Z M 124.45 43.68 C 109.38 43.68 95.72 46.17 85.64 50.33 C 80.6 52.4 76.45 54.89 73.46 57.79 C 70.47 60.7 68.62 64.14 68.62 67.86 L 68.62 124.76 C 68.62 129.65 71.07 133.83 74.81 137.09 C 78.55 140.34 83.58 142.82 89.25 144.75 C 100.59 148.6 114.54 150.22 125.88 150.22 C 137.59 150.22 150.87 148.15 161.44 144.09 C 166.72 142.06 171.33 139.54 174.73 136.41 C 178.13 133.28 180.35 129.4 180.35 125 L 180.35 67.86 C 180.35 64.14 178.49 60.7 175.5 57.79 C 172.5 54.88 168.34 52.4 163.3 50.32 C 153.2 46.17 139.52 43.68 124.45 43.68 Z M 124.45 47.68 C 139.08 47.68 152.34 50.15 161.78 54.03 C 166.49 55.97 170.24 58.26 172.71 60.66 C 175.18 63.06 176.35 65.46 176.35 67.86 C 176.35 70.27 175.18 72.67 172.71 75.07 C 170.24 77.47 166.49 79.76 161.78 81.7 C 152.34 85.58 139.08 88.05 124.45 88.05 C 109.83 88.05 96.58 85.58 87.16 81.71 C 82.45 79.77 78.72 77.47 76.25 75.07 C 73.78 72.67 72.62 70.27 72.62 67.86 C 72.62 65.46 73.78 63.06 76.25 60.66 C 78.72 58.26 82.45 55.96 87.16 54.02 C 96.58 50.14 109.83 47.68 124.45 47.68 Z M 176.35 76.98 L 176.35 125 C 176.35 128.08 174.87 130.84 172.02 133.47 C 169.17 136.09 164.97 138.45 160 140.36 C 150.07 144.17 137.11 146.22 125.88 146.22 C 114.93 146.22 101.25 144.6 90.54 140.96 C 85.18 139.14 80.58 136.81 77.43 134.07 C 74.29 131.34 72.62 128.35 72.62 124.76 L 72.62 76.98 C 72.9 77.3 73.15 77.63 73.46 77.93 C 76.45 80.84 80.6 83.33 85.64 85.4 C 95.72 89.55 109.38 92.05 124.45 92.05 C 139.52 92.05 153.2 89.56 163.3 85.4 C 168.34 83.33 172.5 80.84 175.5 77.94 C 175.81 77.63 176.06 77.29 176.35 76.98 Z M 11.72 0 C 5.27 0 0 5.27 0 11.72 L 0 180.17 C 0 186.62 5.27 191.89 11.72 191.89 L 236.47 191.89 C 242.91 191.89 248.19 186.62 248.19 180.17 L 248.19 11.72 C 248.19 5.27 242.91 0 236.47 0 Z M 11.72 5.29 L 236.47 5.29 C 240.07 5.29 242.89 8.11 242.89 11.72 L 242.89 180.17 C 242.89 183.78 240.07 186.6 236.47 186.6 L 11.72 186.6 C 8.11 186.6 5.29 183.78 5.29 180.17 L 5.29 11.72 C 5.29 8.11 8.11 5.29 11.72 5.29 Z" fill="var(--icon-primary, #dae8fc)" stroke="none" stroke-width="0"/></svg>