<svg xmlns="http://www.w3.org/2000/svg" viewBox="0 0 190.99 191.89" width="190.99" height="191.89"><path d="M 75.48 32.13 C 69.61 31.88 63.99 33.3 59.1 36.38 A 2.5 2.5 0 0 0 58.97 36.47 C 49.64 43.24 43.71 49.82 40.16 59.72 C 37.16 67.92 38.48 77.6 42.16 87.48 C 45.84 97.36 51.94 107.53 59.06 116.81 A 2.5 2.5 0 0 0 59.1 116.85 C 74.2 135.72 90.84 151.52 111.67 157.39 A 2.5 2.5 0 1 0 113.03 152.58 C 93.8 147.15 77.84 132.26 63.02 113.75 C 57.27 106.26 52.33 98.18 48.82 90.34 A 2.5 2.5 0 0 0 52.29 87.32 C 50.1 80.29 48.04 73.1 54.47 63.19 C 58.92 56.39 65.48 51.83 74.13 48.87 C 79.53 47.51 88.53 49.8 95.48 52.82 A 2.5 2.5 0 1 0 97.48 48.24 C 90 44.98 80.53 42.05 72.82 44.04 A 2.5 2.5 0 0 0 72.64 44.09 C 63.15 47.31 55.44 52.58 50.28 60.45 A 2.5 2.5 0 0 0 50.28 60.46 C 44.78 68.94 44.7 76.55 45.96 82.87 C 43.36 74.76 42.72 67.27 44.86 61.44 A 2.5 2.5 0 0 0 44.87 61.42 C 48.05 52.5 52.95 47.03 61.82 40.59 C 69.87 35.54 80.23 35.71 90.79 42.21 A 2.5 2.5 0 0 0 90.9 42.28 C 105.11 50.01 118.16 61.94 128.44 73.45 C 137.64 84.06 143.22 94.9 147.04 105.5 A 2.5 2.5 0 0 0 143.06 105 C 137.71 110.43 131.37 114.04 124.79 117.82 A 2.5 2.5 0 0 0 123.9 118.7 C 124.3 117.45 124.87 115.96 125.2 114.81 C 131.33 111.68 136.05 107.88 140.58 103.87 A 2.5 2.5 0 1 0 137.27 100.13 C 132.59 104.27 128.1 107.91 122.05 110.83 A 2.5 2.5 0 0 0 120.73 112.42 C 118.28 121.27 113.46 134.29 108.42 144.66 A 2.5 2.5 0 1 0 112.91 146.85 C 113.8 145.02 114.55 142.95 115.41 141.01 C 114.64 142.9 113.95 144.78 113.13 146.68 A 2.5 2.5 0 1 0 117.72 148.66 C 121.65 139.54 124.92 130.58 128.09 121.67 C 134.39 118.05 140.91 114.31 146.62 108.52 A 2.5 2.5 0 0 0 147.33 106.32 C 147.86 107.84 148.48 109.36 148.94 110.86 A 2.5 2.5 0 1 0 153.72 109.39 C 149.79 96.62 143.48 83.16 132.2 70.16 A 2.5 2.5 0 0 0 132.18 70.14 C 121.66 58.34 108.3 46.07 93.35 37.92 C 87.45 34.3 81.34 32.38 75.48 32.13 Z M 85.12 52.5 C 78.43 52.27 72.69 53.67 68.01 57.29 C 63.32 60.91 59.81 66.52 56.8 74.34 C 52.43 85.54 53.56 95.28 58.15 104.88 A 2.5 2.5 0 0 0 58.16 104.89 C 60.61 109.92 64.82 114.07 68.66 117.66 C 72.5 121.24 76 124.48 76.89 126.15 A 2.5 2.5 0 1 0 81.31 123.81 C 79.49 120.37 75.82 117.49 72.08 114 C 68.34 110.51 64.57 106.63 62.66 102.71 C 58.47 93.95 57.53 86.22 61.46 76.16 A 2.5 2.5 0 0 0 61.47 76.14 C 64.29 68.8 67.41 64.07 71.07 61.25 C 74.72 58.42 79.04 57.29 84.99 57.5 A 2.5 2.5 0 0 0 85.07 57.5 C 93.83 57.52 99.34 60.11 104.26 63.14 C 109.17 66.17 113.45 69.87 119.38 71.24 A 2.5 2.5 0 1 0 120.52 66.37 C 116.06 65.34 112.17 62.15 106.88 58.89 C 101.6 55.63 94.88 52.53 85.12 52.5 Z M 89.01 62.22 C 84.73 62.15 80.89 63.03 77.64 64.65 A 2.5 2.5 0 0 0 77.54 64.7 C 71.39 68.13 66.3 73.43 63.44 81.31 A 2.5 2.5 0 0 0 63.42 81.37 C 62.02 85.53 61.11 89.12 61.15 92.52 C 61.19 95.91 62.35 99.11 64.76 101.7 A 2.5 2.5 0 0 0 64.9 101.84 C 69.77 106.3 73.51 111.41 78.15 115.73 A 2.5 2.5 0 0 0 78.17 115.75 C 86.06 122.94 86.97 128.87 85.79 134.25 A 2.5 2.5 0 1 0 90.68 135.32 C 92.17 128.46 90.38 120.11 81.53 112.05 L 81.55 112.07 C 77.4 108.21 73.6 103.02 68.28 98.15 L 68.42 98.29 C 66.78 96.54 66.18 94.87 66.15 92.46 C 66.12 90.05 66.83 86.91 68.15 83 C 70.61 76.23 74.65 72.06 79.92 69.11 C 84.89 66.64 92.09 66.21 101 70.03 C 102.7 70.78 103.96 72.04 105.45 73.67 C 106.94 75.31 108.63 77.29 111.22 78.74 A 2.5 2.5 0 0 0 111.3 78.79 C 113.52 79.93 115.96 80.05 118.25 80 C 120.55 79.96 122.73 79.66 124.13 79.52 A 2.5 2.5 0 1 0 123.61 74.54 C 122.08 74.71 120.08 74.97 118.16 75 C 116.25 75.04 114.47 74.77 113.61 74.34 C 111.96 73.4 110.67 71.97 109.14 70.3 C 107.59 68.61 105.77 66.66 103.01 65.45 A 2.5 2.5 0 0 0 102.98 65.44 C 97.99 63.3 93.29 62.29 89.01 62.22 Z M 91.52 71.79 C 86.73 71.41 82.28 73.04 78.22 76.39 A 2.5 2.5 0 0 0 78.16 76.44 C 74.61 79.57 72.2 82.95 71.48 86.77 C 70.75 90.58 71.85 94.57 74.44 98.44 A 2.5 2.5 0 0 0 74.49 98.51 C 80.1 106.29 83.51 107.59 89.47 113.84 C 94.32 119.37 98.34 124.51 99.49 130.66 C 98.77 134.75 97.92 138.54 96.81 141.61 A 2.5 2.5 0 1 0 101.51 143.31 C 102.61 140.27 103.48 136.76 104.21 132.98 A 2.5 2.5 0 0 0 104.73 131.08 C 104.7 130.88 104.61 130.72 104.58 130.52 C 106.11 121.36 106.73 110.5 106.33 97.91 A 2.5 2.5 0 0 0 106.32 97.79 C 106.03 94.2 105.91 89.35 104.8 84.72 C 103.69 80.08 101.46 75.4 96.75 72.98 A 2.5 2.5 0 0 0 96.43 72.84 C 94.76 72.26 93.12 71.91 91.52 71.79 Z M 91.05 76.66 C 92.15 76.78 93.32 77.09 94.59 77.52 C 97.46 79.06 99.01 82.02 99.94 85.88 C 100.87 89.78 101.03 94.32 101.33 98.12 C 101.59 106.34 101.36 113.73 100.79 120.41 C 98.64 116.85 95.93 113.62 93.19 110.49 A 2.5 2.5 0 0 0 93.12 110.41 C 86.76 103.73 83.77 102.81 78.59 95.64 C 76.5 92.51 75.95 90.03 76.39 87.7 C 76.83 85.36 78.41 82.89 81.44 80.22 C 84.83 77.43 87.61 76.28 91.05 76.66 Z M 89.42 80.14 C 87.78 80.13 86.03 80.57 84.36 81.58 A 2.5 2.5 0 0 0 84.04 81.81 C 82.07 83.48 80.59 85.61 80.17 88.08 C 79.75 90.56 80.67 93.34 82.83 95.29 A 2.5 2.5 0 0 0 82.91 95.37 C 89.08 100.47 91.51 104.2 95.56 109.56 A 2.5 2.5 0 0 0 100.05 108.24 C 100.55 101.7 101.4 93.68 98.94 88.16 A 2.5 2.5 0 0 0 98.93 88.14 C 97.8 85.68 96.3 83.12 93.83 81.46 C 92.59 80.62 91.06 80.15 89.42 80.14 Z M 109.17 81.79 A 2.5 2.5 0 0 0 108.06 86.46 C 115.86 91.05 125.68 88.81 132.65 86.82 A 2.5 2.5 0 1 0 131.28 82.01 C 124.65 83.9 116.05 85.36 110.6 82.15 A 2.5 2.5 0 0 0 109.17 81.79 Z M 89.36 84.96 C 89.97 84.96 90.47 85.22 91.04 85.61 C 92.18 86.37 93.44 88.18 94.38 90.21 C 95.29 92.26 95.4 96.54 95.31 101.04 C 92.9 97.99 90.26 94.95 86.1 91.52 L 86.19 91.59 C 85.08 90.59 84.94 89.87 85.1 88.92 C 85.26 88.01 85.96 86.84 87.12 85.8 C 88.06 85.26 88.79 84.97 89.36 84.96 Z M 135.81 88.46 A 2.5 2.5 0 0 0 134.25 88.96 C 130.59 91.66 126.29 94.59 122.29 96.6 C 118.29 98.61 114.61 99.5 112.61 99 A 2.5 2.5 0 0 0 109.59 102.09 C 113.03 114.41 107.84 130.26 104.12 140.93 A 2.5 2.5 0 1 0 108.85 142.57 C 112.29 132.68 117.48 117.8 115.06 104.11 C 118.16 103.9 121.35 102.67 124.53 101.07 C 128.99 98.84 133.45 95.76 137.21 92.99 A 2.5 2.5 0 0 0 135.81 88.46 Z M 11.72 5.29 L 179.27 5.29 C 182.88 5.29 185.7 8.11 185.7 11.72 L 185.7 180.17 C 185.7 183.78 182.88 186.6 179.27 186.6 L 11.72 186.6 C 8.11 186.6 5.29 183.78 5.29 180.17 L 5.29 11.72 C 5.29 8.11 8.11 5.29 11.72 5.29 Z M 11.72 0 C 5.27 0 0 5.27 0 11.72 L 0 180.17 C 0 186.62 5.27 191.89 11.72 191.89 L 179.27 191.89 C 185.72 191.89 190.99 186.62 190.99 180.17 L 190.99 11.72 C 190.99 5.27 185.72 0 179.27 0 Z" fill="var(--icon-primary, #dae8fc)" stroke="none" stroke-width="0"/></svg>