<svg xmlns="http://www.w3.org/2000/svg" viewBox="0 0 378.35 190.11" width="378.35" height="190.11"><path d="M 248.46 8.35 A 15.71 8.35 0 0 1 232.76 16.7 A 15.71 8.35 0 0 1 217.05 8.35 A 15.71 8.35 0 0 1 232.76 0 A 15.71 8.35 0 0 1 248.46 8.35 Z M 247.92 14.73 L 247.55 81.65 L 247.55 81.66 C 247.55 83.48 246.83 84.85 245.87 85.84 C 244.9 86.82 243.63 87.25 243.21 87.25 L 236.77 87.25 C 234.21 87.25 229.64 85.2 228.37 79.15 L 218.78 15.5 C 223.97 18.1 229.01 19.52 233.97 19.42 C 238.81 19.32 243.49 17.74 247.92 14.73 Z M 71.33 38.21 C 50.55 38.21 32.41 56.58 26.88 76.23 L 11.34 130.43 C 6.4 147.81 22.66 168.25 44.23 168.25 L 332.84 168.31 C 355.77 168.31 371.87 146.07 366.51 130.64 L 351.73 78.54 C 347.12 62.2 330.91 38.31 307.17 38.31 L 252.79 38.29 L 252.55 81.66 C 252.55 84.85 251.21 87.52 249.44 89.33 C 247.66 91.15 245.52 92.25 243.21 92.25 L 236.77 92.25 C 231.63 92.25 225.18 88.36 223.46 80.16 L 223.45 80.09 L 217.15 38.27 Z M 82 63.71 L 87.85 63.71 C 90.91 63.68 93.41 66.15 93.41 69.21 C 93.41 72.28 90.91 74.75 87.85 74.71 L 82 74.71 C 78.94 74.75 76.43 72.28 76.43 69.21 C 76.43 66.15 78.94 63.68 82 63.71 Z M 108.04 63.71 L 113.89 63.71 C 116.95 63.68 119.46 66.15 119.46 69.21 C 119.46 72.28 116.95 74.75 113.89 74.71 L 108.04 74.71 C 104.98 74.75 102.48 72.28 102.48 69.21 C 102.48 66.15 104.98 63.68 108.04 63.71 Z M 134.09 63.71 L 139.94 63.71 C 143 63.68 145.5 66.15 145.5 69.21 C 145.5 72.28 143 74.75 139.94 74.71 L 134.09 74.71 C 131.02 74.75 128.52 72.28 128.52 69.21 C 128.52 66.15 131.02 63.68 134.09 63.71 Z M 160.13 63.71 L 165.98 63.71 C 169.04 63.68 171.54 66.15 171.54 69.21 C 171.54 72.28 169.04 74.75 165.98 74.71 L 160.13 74.71 C 157.07 74.75 154.56 72.28 154.56 69.21 C 154.56 66.15 157.07 63.68 160.13 63.71 Z M 259.96 66.57 L 324.34 66.57 L 347.08 138.79 L 273.34 138.79 Z M 265.97 71.57 L 277.5 133.79 L 340.26 133.79 L 320.67 71.57 Z M 279.97 78.69 L 285.82 78.69 C 288.89 78.64 291.41 81.12 291.41 84.19 C 291.41 87.26 288.89 89.73 285.82 89.69 L 279.97 89.69 C 276.9 89.73 274.39 87.26 274.39 84.19 C 274.39 81.12 276.9 78.64 279.97 78.69 Z M 305.88 78.69 L 311.73 78.69 C 314.8 78.64 317.31 81.12 317.31 84.19 C 317.31 87.26 314.8 89.73 311.73 89.69 L 305.88 89.69 C 302.81 89.73 300.3 87.26 300.3 84.19 C 300.3 81.12 302.81 78.64 305.88 78.69 Z M 284.94 95.94 L 290.79 95.94 C 293.86 95.9 296.38 98.37 296.38 101.44 C 296.38 104.51 293.86 106.99 290.79 106.94 L 284.94 106.94 C 281.87 106.99 279.36 104.51 279.36 101.44 C 279.36 98.37 281.87 95.9 284.94 95.94 Z M 310.85 95.94 L 316.7 95.94 C 319.77 95.9 322.28 98.37 322.28 101.44 C 322.28 104.51 319.77 106.99 316.7 106.94 L 310.85 106.94 C 307.78 106.99 305.26 104.51 305.26 101.44 C 305.26 98.37 307.78 95.9 310.85 95.94 Z M 36.47 101.51 L 222.93 101.51 L 222.93 105.51 L 36.47 105.51 Z M 289.91 113.2 L 295.76 113.2 C 298.83 113.16 301.34 115.63 301.34 118.7 C 301.34 121.77 298.83 124.25 295.76 124.2 L 289.91 124.2 C 286.84 124.25 284.33 121.77 284.33 118.7 C 284.33 115.63 286.84 113.16 289.91 113.2 Z M 315.81 113.2 L 321.66 113.2 C 324.73 113.16 327.25 115.63 327.25 118.7 C 327.25 121.77 324.73 124.25 321.66 124.2 L 315.81 124.2 C 312.74 124.25 310.23 121.77 310.23 118.7 C 310.23 115.63 312.74 113.16 315.81 113.2 Z M 30.29 118.44 L 229.11 118.44 L 229.11 122.44 L 30.29 122.44 Z M 24.17 135.93 L 236.08 135.93 L 236.08 139.93 L 24.17 139.93 Z M 375.04 145.32 C 378.34 151.99 376.02 166.47 365.65 177.83 C 359.29 184.69 348.9 190.11 338.69 190.11 L 38.72 190.07 C 29.29 190.07 15.64 184.47 7.29 172.16 C 0.59 161.13 0 151.42 2.93 145.02 C 7.43 163.98 24.72 177.3 44.7 177.3 L 333.87 177.24 C 352.6 177.24 370.92 163.77 375.04 145.32 Z" fill="var(--icon-primary, #dae8fc)" stroke="none" stroke-width="0"/></svg>