<svg xmlns="http://www.w3.org/2000/svg" viewBox="0 0 825.57 386.28" width="825.57" height="386.28"><path d="M 193.14 0 A 193.14 193.14 0 0 0 0 193.14 A 193.14 193.14 0 0 0 193.14 386.28 A 193.14 193.14 0 0 0 365.86 279.08 L 438.86 279.08 L 500.22 224.77 L 547.87 266.91 L 594.06 224.77 L 639.1 266.91 L 687.15 224.77 L 734.95 266.91 L 814.91 196.02 C 825.1 186.21 825.57 178.45 814.91 167.7 L 747.11 108.45 L 366.58 108.45 A 193.14 193.14 0 0 0 193.14 0 Z M 108.36 144.14 A 49.04 49.04 0 0 1 157.39 193.17 A 49.04 49.04 0 0 1 108.36 242.21 A 49.04 49.04 0 0 1 59.32 193.17 A 49.04 49.04 0 0 1 108.36 144.14 Z" fill="var(--icon-secondary, #6c8ebf)" stroke="none" stroke-width="0"/></svg>