<svg xmlns="http://www.w3.org/2000/svg" viewBox="0 0 721.85 1484.06" width="721.85" height="1484.06"><path d="M 364.27 107.72 L 315.91 154 L 350.14 154 L 350.14 252.38 C 317.14 224.16 285.75 200.57 258.15 183.07 C 235.45 168.67 215.42 158.33 198.23 152.9 C 189.64 150.19 181.72 148.63 174 148.89 C 166.28 149.16 158.17 151.62 152.3 157.57 C 146.44 163.52 144.11 171.68 143.96 179.4 C 143.82 187.12 145.49 195.01 148.34 203.56 C 154.03 220.66 164.68 240.53 179.42 263.01 C 197.02 289.85 220.57 320.26 248.62 352.19 L 151.95 352.19 L 151.95 317.96 L 105.67 366.32 L 151.95 412.78 L 151.95 381.03 L 246.45 381.03 C 219.35 412.05 196.57 441.59 179.42 467.73 C 164.67 490.21 154.04 510.08 148.34 527.18 C 145.5 535.74 143.81 543.62 143.96 551.34 C 144.11 559.06 146.44 567.22 152.3 573.17 C 158.17 579.12 166.28 581.58 174 581.85 C 181.72 582.11 189.63 580.56 198.23 577.84 C 215.41 572.41 235.45 562.07 258.15 547.67 C 285.74 530.17 317.14 506.58 350.14 478.35 L 350.14 576.74 L 315.91 576.74 L 364.27 623.02 L 410.73 576.74 L 378.98 576.74 L 378.98 480.46 C 411.07 507.75 441.59 530.62 468.5 547.68 C 491.2 562.08 511.22 572.41 528.41 577.84 C 537 580.56 544.92 582.11 552.64 581.85 C 560.36 581.58 568.48 579.13 574.34 573.18 C 580.2 567.22 582.53 559.06 582.68 551.34 C 582.82 543.62 581.15 535.73 578.3 527.18 C 572.61 510.08 561.97 490.21 547.22 467.73 C 530.08 441.59 507.29 412.05 480.19 381.03 L 574.69 381.03 L 574.69 412.78 L 620.97 366.32 L 574.69 317.96 L 574.69 352.19 L 478.02 352.19 C 506.07 320.26 529.62 289.84 547.22 263.01 C 561.97 240.53 572.61 220.66 578.3 203.56 C 581.14 195.01 582.82 187.12 582.68 179.4 C 582.53 171.68 580.2 163.52 574.34 157.56 C 568.48 151.61 560.35 149.16 552.63 148.89 C 544.91 148.63 537.01 150.19 528.41 152.91 C 511.23 158.33 491.2 168.66 468.49 183.06 C 441.59 200.12 411.07 222.99 378.98 250.28 L 378.98 154 L 410.73 154 Z M 551.73 175.33 C 554.96 175.44 555.44 176.08 555.49 176.13 C 555.54 176.18 556.17 176.67 556.23 179.9 C 556.29 183.13 555.42 188.5 553.19 195.2 C 548.73 208.6 539.08 227.18 525.1 248.5 C 507.39 275.5 482.78 307.07 453.12 340.38 A 93.21 93.21 0 0 0 389.63 276.01 C 423.41 246.85 455.38 222.71 482.67 205.41 C 504.2 191.75 522.91 182.39 536.38 178.13 C 543.11 176.01 548.5 175.22 551.73 175.33 Z M 174.91 175.34 C 178.14 175.23 183.53 176.01 190.26 178.13 C 203.73 182.39 222.45 191.75 243.98 205.41 C 271.27 222.71 303.23 246.85 337.01 276.01 A 93.21 93.21 0 0 0 273.59 340.47 C 243.91 307.13 219.27 275.53 201.54 248.5 C 187.56 227.18 177.91 208.6 173.45 195.2 C 171.22 188.5 170.35 183.13 170.42 179.9 C 170.48 176.67 171.1 176.18 171.15 176.13 C 171.21 176.08 171.68 175.45 174.91 175.34 Z M 453.05 390.27 C 482.74 423.61 507.38 455.22 525.1 482.24 C 539.09 503.56 548.73 522.14 553.19 535.54 C 555.42 542.24 556.29 547.61 556.23 550.85 C 556.17 554.08 555.54 554.56 555.49 554.61 C 555.44 554.67 554.96 555.3 551.73 555.41 C 548.51 555.52 543.12 554.74 536.38 552.61 C 522.92 548.36 504.19 539 482.66 525.34 C 455.38 508.04 423.41 483.89 389.63 454.73 A 93.21 93.21 0 0 0 453.05 390.27 Z M 273.52 390.35 A 93.21 93.21 0 0 0 337.01 454.74 C 303.23 483.89 271.26 508.03 243.98 525.34 C 222.45 538.99 203.72 548.36 190.26 552.61 C 183.52 554.74 178.14 555.51 174.91 555.4 C 171.68 555.29 171.2 554.66 171.15 554.61 C 171.1 554.56 170.47 554.07 170.41 550.84 C 170.35 547.61 171.21 542.24 173.44 535.54 C 177.9 522.14 187.56 503.56 201.54 482.24 C 219.26 455.24 243.86 423.66 273.52 390.35 Z M 386.77 937.59 L 386.77 879.81 L 539.78 879.81 L 539.78 834.15 L 670.05 911.46 L 539.78 987.58 L 539.78 937.59 Z M 320.68 1209.36 L 320.68 1151.58 L 473.69 1151.58 L 473.69 1105.93 L 603.96 1183.23 L 473.69 1259.35 L 473.69 1209.36 Z M 406.51 1070.08 L 406.51 1012.29 L 253.5 1012.29 L 253.5 966.64 L 123.23 1043.95 L 253.5 1120.07 L 253.5 1070.08 Z M 335.08 1346.51 L 335.08 1288.72 L 182.07 1288.72 L 182.07 1243.07 L 51.8 1320.38 L 182.07 1396.49 L 182.07 1346.51 Z M 44.28 20 L 677.57 20 C 691.2 20 701.86 30.66 701.86 44.28 L 701.86 680.96 C 701.86 694.59 691.2 705.25 677.57 705.25 L 44.28 705.25 C 30.66 705.25 20 694.59 20 680.96 L 20 44.28 C 20 30.66 30.66 20 44.28 20 Z M 44.28 0 C 19.92 0 0 19.92 0 44.28 L 0 680.96 C 0 705.33 19.92 725.26 44.28 725.26 L 677.57 725.26 C 701.93 725.26 721.85 705.33 721.85 680.96 L 721.85 44.28 C 721.85 19.92 701.93 0 677.57 0 Z M 44.28 778.8 L 677.57 778.8 C 691.2 778.8 701.86 789.46 701.86 803.08 L 701.86 1439.77 C 701.86 1453.39 691.2 1464.05 677.57 1464.05 L 44.28 1464.05 C 30.66 1464.05 20 1453.39 20 1439.77 L 20 803.08 C 20 789.46 30.66 778.8 44.28 778.8 Z M 44.28 758.8 C 19.92 758.8 0 778.72 0 803.08 L 0 1439.77 C 0 1464.13 19.92 1484.06 44.28 1484.06 L 677.57 1484.06 C 701.93 1484.06 721.85 1464.13 721.85 1439.77 L 721.85 803.08 C 721.85 778.72 701.93 758.8 677.57 758.8 Z" fill="var(--icon-primary, #dae8fc)" stroke="none" stroke-width="0"/><path d="M 456.45 365.22 A 93.17 93.17 0 0 1 363.28 458.39 A 93.17 93.17 0 0 1 270.1 365.22 A 93.17 93.17 0 0 1 363.28 272.05 A 93.17 93.17 0 0 1 456.45 365.22 Z" fill="#ffffff" stroke="none" stroke-width="0" opacity="0.5"/></svg>