<svg xmlns="http://www.w3.org/2000/svg" viewBox="0 0 190.99 279.26" width="190.99" height="279.26"><path d="M 36.12 15.11 L 36.12 29.19 L 63.68 29.19 L 91.68 40.13 L 64.57 50.73 L 64.57 50.48 L 36.12 50.48 L 36.12 64.56 L 64.57 64.56 L 64.57 58.93 L 126.42 58.93 L 126.42 64.56 L 154.87 64.56 L 154.87 50.48 L 126.42 50.48 L 126.42 50.49 L 99.92 40.13 L 127.93 29.19 L 154.87 29.19 L 154.87 15.11 L 126.42 15.11 L 126.42 20.65 L 64.57 20.65 L 64.57 15.11 Z M 64.57 23.65 L 126.42 23.65 L 126.42 26.55 L 95.8 38.52 L 64.57 26.31 Z M 95.8 41.74 L 126.42 53.71 L 126.42 55.93 L 64.57 55.93 L 64.57 53.95 Z M 88.66 242.87 L 88.66 227.58 L 48.17 227.58 L 48.17 215.5 L 13.71 235.96 L 48.17 256.1 L 48.17 242.87 Z M 107.56 169.73 L 107.56 154.44 L 67.07 154.44 L 67.07 142.36 L 32.6 162.82 L 67.07 182.96 L 67.07 169.73 Z M 84.85 206.59 L 84.85 191.3 L 125.33 191.3 L 125.33 179.22 L 159.8 199.67 L 125.33 219.81 L 125.33 206.59 Z M 102.33 134.68 L 102.33 119.39 L 142.82 119.39 L 142.82 107.31 L 177.28 127.77 L 142.82 147.9 L 142.82 134.68 Z M 11.72 0 C 5.27 0 0 5.27 0 11.72 L 0 67.91 C 0 74.36 5.27 79.63 11.72 79.63 L 179.27 79.63 C 185.72 79.63 190.99 74.36 190.99 67.91 L 190.99 11.72 C 190.99 5.27 185.72 0 179.27 0 Z M 11.72 5.29 L 179.27 5.29 C 182.88 5.29 185.7 8.11 185.7 11.72 L 185.7 67.91 C 185.7 71.52 182.88 74.34 179.27 74.34 L 11.72 74.34 C 8.11 74.34 5.29 71.52 5.29 67.91 L 5.29 11.72 C 5.29 8.11 8.11 5.29 11.72 5.29 Z M 11.72 87.37 C 5.27 87.37 0 92.64 0 99.09 L 0 267.55 C 0 273.99 5.27 279.26 11.72 279.26 L 179.27 279.26 C 185.72 279.26 190.99 273.99 190.99 267.55 L 190.99 99.09 C 190.99 92.64 185.72 87.37 179.27 87.37 Z M 11.72 92.66 L 179.27 92.66 C 182.88 92.66 185.7 95.48 185.7 99.09 L 185.7 267.55 C 185.7 271.15 182.88 273.97 179.27 273.97 L 11.72 273.97 C 8.11 273.97 5.29 271.15 5.29 267.55 L 5.29 99.09 C 5.29 95.48 8.11 92.66 11.72 92.66 Z" fill="var(--icon-primary, #dae8fc)" stroke="none" stroke-width="0"/></svg>