<svg xmlns="http://www.w3.org/2000/svg" viewBox="0 0 190.99 191.89" width="190.99" height="191.89"><path d="M 89.29 155.5 L 89.29 140.21 L 48.81 140.21 L 48.81 128.13 L 14.34 148.58 L 48.81 168.72 L 48.81 155.5 Z M 108.19 82.36 L 108.19 67.07 L 67.71 67.07 L 67.71 54.99 L 33.24 75.45 L 67.71 95.58 L 67.71 82.36 Z M 85.48 119.21 L 85.48 103.92 L 125.97 103.92 L 125.97 91.84 L 160.43 112.3 L 125.97 132.44 L 125.97 119.21 Z M 102.97 47.3 L 102.97 32.02 L 143.45 32.02 L 143.45 19.94 L 177.92 40.39 L 143.45 60.53 L 143.45 47.3 Z M 11.72 0 C 5.27 0 0 5.27 0 11.72 L 0 180.17 C 0 186.62 5.27 191.89 11.72 191.89 L 179.27 191.89 C 185.72 191.89 190.99 186.62 190.99 180.17 L 190.99 11.72 C 190.99 5.27 185.72 0 179.27 0 Z M 11.72 5.29 L 179.27 5.29 C 182.88 5.29 185.7 8.11 185.7 11.72 L 185.7 180.17 C 185.7 183.78 182.88 186.6 179.27 186.6 L 11.72 186.6 C 8.11 186.6 5.29 183.78 5.29 180.17 L 5.29 11.72 C 5.29 8.11 8.11 5.29 11.72 5.29 Z" fill="var(--icon-primary, #dae8fc)" stroke="none" stroke-width="0"/></svg>