<svg xmlns="http://www.w3.org/2000/svg" viewBox="0 0 190.99 362.61" width="190.99" height="362.61"><path d="M 36.12 98.45 L 36.12 112.53 L 63.68 112.53 L 91.68 123.48 L 64.57 134.07 L 64.57 133.82 L 36.12 133.82 L 36.12 147.9 L 64.57 147.9 L 64.57 142.27 L 126.42 142.27 L 126.42 147.9 L 154.87 147.9 L 154.87 133.82 L 126.42 133.82 L 126.42 133.83 L 99.92 123.48 L 127.93 112.53 L 154.87 112.53 L 154.87 98.45 L 126.42 98.45 L 126.42 103.99 L 64.57 103.99 L 64.57 98.45 Z M 64.57 106.99 L 126.42 106.99 L 126.42 109.9 L 95.8 121.87 L 64.57 109.66 Z M 95.8 125.09 L 126.42 137.05 L 126.42 139.27 L 64.57 139.27 L 64.57 137.3 Z M 88.66 326.21 L 88.66 310.92 L 48.17 310.92 L 48.17 298.85 L 13.71 319.3 L 48.17 339.44 L 48.17 326.21 Z M 107.56 253.08 L 107.56 237.79 L 67.07 237.79 L 67.07 225.71 L 32.6 246.16 L 67.07 266.3 L 67.07 253.08 Z M 84.85 289.93 L 84.85 274.64 L 125.33 274.64 L 125.33 262.56 L 159.8 283.01 L 125.33 303.15 L 125.33 289.93 Z M 102.33 218.02 L 102.33 202.73 L 142.82 202.73 L 142.82 190.65 L 177.28 211.11 L 142.82 231.25 L 142.82 218.02 Z M 36.12 15.11 L 36.12 29.19 L 63.68 29.19 L 91.68 40.13 L 64.57 50.73 L 64.57 50.48 L 36.12 50.48 L 36.12 64.56 L 64.57 64.56 L 64.57 58.93 L 126.42 58.93 L 126.42 64.56 L 154.87 64.56 L 154.87 50.48 L 126.42 50.48 L 126.42 50.49 L 99.92 40.13 L 127.93 29.19 L 154.87 29.19 L 154.87 15.11 L 126.42 15.11 L 126.42 20.65 L 64.57 20.65 L 64.57 15.11 Z M 64.57 23.65 L 126.42 23.65 L 126.42 26.55 L 95.8 38.52 L 64.57 26.31 Z M 95.8 41.74 L 126.42 53.71 L 126.42 55.93 L 64.57 55.93 L 64.57 53.95 Z M 11.72 5.29 L 179.27 5.29 C 182.88 5.29 185.7 8.11 185.7 11.72 L 185.7 67.91 C 185.7 71.52 182.88 74.34 179.27 74.34 L 11.72 74.34 C 8.11 74.34 5.29 71.52 5.29 67.91 L 5.29 11.72 C 5.29 8.11 8.11 5.29 11.72 5.29 Z M 11.72 0 C 5.27 0 0 5.27 0 11.72 L 0 67.91 C 0 74.36 5.27 79.63 11.72 79.63 L 179.27 79.63 C 185.72 79.63 190.99 74.36 190.99 67.91 L 190.99 11.72 C 190.99 5.27 185.72 0 179.27 0 Z M 11.72 176.01 L 179.27 176.01 C 182.88 176.01 185.7 178.83 185.7 182.43 L 185.7 350.89 C 185.7 354.49 182.88 357.31 179.27 357.31 L 11.72 357.31 C 8.11 357.31 5.29 354.49 5.29 350.89 L 5.29 182.43 C 5.29 178.83 8.11 176.01 11.72 176.01 Z M 11.72 170.72 C 5.27 170.72 0 175.99 0 182.43 L 0 350.89 C 0 357.33 5.27 362.61 11.72 362.61 L 179.27 362.61 C 185.72 362.61 190.99 357.33 190.99 350.89 L 190.99 182.43 C 190.99 175.99 185.72 170.72 179.27 170.72 Z M 11.72 88.63 L 179.27 88.63 C 182.88 88.63 185.7 91.45 185.7 95.06 L 185.7 151.26 C 185.7 154.86 182.88 157.68 179.27 157.68 L 11.72 157.68 C 8.11 157.68 5.29 154.86 5.29 151.26 L 5.29 95.06 C 5.29 91.45 8.11 88.63 11.72 88.63 Z M 11.72 83.34 C 5.27 83.34 0 88.61 0 95.06 L 0 151.26 C 0 157.7 5.27 162.97 11.72 162.97 L 179.27 162.97 C 185.72 162.97 190.99 157.7 190.99 151.26 L 190.99 95.06 C 190.99 88.61 185.72 83.34 179.27 83.34 Z" fill="var(--icon-primary, #dae8fc)" stroke="none" stroke-width="0"/></svg>