<svg xmlns="http://www.w3.org/2000/svg" viewBox="0 0 744.45 744.45" width="744.45" height="744.45"><path d="M 292.65 521.53 L 292.65 527.2 L 292.65 571.21 L 257.08 571.21 L 257.08 543.81 L 195.97 585.86 L 257.08 624.87 L 257.08 600.5 L 292.65 600.5 L 292.65 648.84 L 477.85 648.84 L 477.85 600.33 L 513.58 600.33 L 513.58 624.7 L 574.7 585.68 L 513.58 543.63 L 513.58 571.03 L 477.85 571.03 L 477.85 521.53 Z M 303.99 532.87 L 466.51 532.87 L 466.51 637.5 L 303.99 637.5 Z M 328.31 547.1 L 328.31 558.44 L 440.44 558.44 L 440.44 547.1 Z M 328.31 579.37 L 328.31 590.71 L 440.44 590.71 L 440.44 579.37 Z M 328.31 611.63 L 328.31 622.97 L 440.44 622.97 L 440.44 611.63 Z M 372.22 9.45 C 572.64 9.45 735 171.81 735 372.22 C 735 572.64 572.64 735 372.22 735 C 171.81 735 9.45 572.64 9.45 372.22 C 9.45 171.81 171.81 9.45 372.22 9.45 Z M 372.22 0 C 166.71 0 0 166.71 0 372.22 C 0 577.74 166.71 744.45 372.22 744.45 C 577.74 744.45 744.45 577.74 744.45 372.22 C 744.45 166.71 577.74 0 372.22 0 Z M 385.89 249.81 L 467.7 166.4 L 433.08 132.45 L 557.91 106.49 L 534.75 232.15 L 500.44 198.51 L 418.64 281.92 Z M 202.14 92.02 L 285.56 173.83 L 319.51 139.21 L 345.47 264.03 L 219.81 240.88 L 253.45 206.57 L 170.03 124.76 Z M 359.62 340.64 L 277.81 424.06 L 312.43 458.01 L 187.6 483.96 L 210.76 358.3 L 245.07 391.95 L 326.87 308.53 Z M 546.8 499.38 L 463.38 417.57 L 429.43 452.19 L 403.48 327.37 L 529.14 350.52 L 495.49 384.83 L 578.91 466.63 Z" fill="var(--icon-primary, #dae8fc)" stroke="none" stroke-width="0"/></svg>