<svg xmlns="http://www.w3.org/2000/svg" viewBox="0 0 190.99 258.41" width="190.99" height="258.41"><path d="M 158.65 206.9 L 167.26 218.58 L 171.37 215.56 L 172.87 228.94 L 160.34 223.69 L 164.45 220.66 L 155.84 208.98 Z M 131.02 206.9 L 122.41 218.58 L 118.3 215.56 L 116.8 228.94 L 129.33 223.69 L 125.22 220.66 L 133.83 208.98 Z M 142.36 209.18 L 142.36 223.69 L 137.26 223.69 L 143.99 235.35 L 150.96 223.69 L 145.86 223.69 L 145.86 209.18 Z M 142.34 178.63 L 142.34 193.14 L 137.23 193.14 L 143.97 204.8 L 150.94 193.14 L 145.84 193.14 L 145.84 178.63 Z M 51.61 177.76 L 45.66 186.33 L 49.61 186.33 L 49.61 195.43 A 11.66 11.66 0 0 0 44.79 197.46 L 38.33 191.04 L 41.12 188.23 L 30.89 186.36 L 32.78 196.63 L 35.57 193.82 L 42.02 200.24 A 11.66 11.66 0 0 0 40.09 204.96 L 30.99 204.96 L 30.99 201 L 22.41 206.89 L 30.99 212.84 L 30.99 208.88 L 40.08 208.88 A 11.66 11.66 0 0 0 42.05 213.63 L 35.61 220.08 L 32.81 217.28 L 30.97 227.56 L 41.19 225.65 L 38.39 222.85 L 44.82 216.42 A 11.66 11.66 0 0 0 49.61 218.4 L 49.61 227.51 L 45.66 227.51 L 51.61 236.08 L 57.49 227.51 L 53.54 227.51 L 53.54 218.41 A 11.66 11.66 0 0 0 58.3 216.43 L 64.76 222.86 L 61.97 225.66 L 72.25 227.48 L 70.32 217.27 L 67.53 220.07 L 61.08 213.66 A 11.66 11.66 0 0 0 63.05 208.88 L 72.16 208.88 L 72.16 212.84 L 80.74 206.89 L 72.16 201 L 72.16 204.96 L 63.07 204.96 A 11.66 11.66 0 0 0 61.05 200.16 L 67.49 193.72 L 70.28 196.51 L 72.18 186.29 L 61.91 188.15 L 64.71 190.94 L 58.27 197.39 A 11.66 11.66 0 0 0 53.54 195.44 L 53.54 186.33 L 57.49 186.33 Z M 11.72 5.29 L 179.27 5.29 C 182.88 5.29 185.7 8.11 185.7 11.72 L 185.7 246.7 C 185.7 250.3 182.88 253.12 179.27 253.12 L 11.72 253.12 C 8.11 253.12 5.29 250.3 5.29 246.7 L 5.29 11.72 C 5.29 8.11 8.11 5.29 11.72 5.29 Z M 11.72 0 C 5.27 0 0 5.27 0 11.72 L 0 246.7 C 0 253.14 5.27 258.41 11.72 258.41 L 179.27 258.41 C 185.72 258.41 190.99 253.14 190.99 246.7 L 190.99 11.72 C 190.99 5.27 185.72 0 179.27 0 Z M 98.27 24.13 L 82.28 47.15 L 92.91 47.15 L 92.91 71.58 A 31.31 31.31 0 0 0 79.95 77.02 L 62.62 59.78 L 70.1 52.26 L 42.64 47.22 L 47.69 74.79 L 55.18 67.26 L 72.52 84.5 A 31.31 31.31 0 0 0 67.34 97.16 L 42.89 97.16 L 42.89 86.54 L 19.86 102.34 L 42.89 118.33 L 42.89 107.7 L 67.31 107.7 A 31.31 31.31 0 0 0 72.6 120.44 L 55.31 137.76 L 47.79 130.26 L 42.83 157.84 L 70.28 152.72 L 62.77 145.21 L 80.03 127.93 A 31.31 31.31 0 0 0 92.91 133.27 L 92.91 157.72 L 82.28 157.72 L 98.27 180.75 L 114.07 157.72 L 103.45 157.72 L 103.45 133.3 A 31.31 31.31 0 0 0 116.23 127.96 L 133.59 145.22 L 126.1 152.76 L 153.7 157.65 L 148.51 130.22 L 141.03 137.75 L 123.7 120.52 A 31.31 31.31 0 0 0 129 107.7 L 153.46 107.7 L 153.46 118.33 L 176.48 102.34 L 153.46 86.54 L 153.46 97.16 L 129.03 97.16 A 31.31 31.31 0 0 0 123.63 84.28 L 140.9 66.98 L 148.41 74.48 L 153.51 47.03 L 125.93 52.02 L 133.44 59.53 L 116.16 76.83 A 31.31 31.31 0 0 0 103.45 71.61 L 103.45 47.15 L 114.07 47.15 Z" fill="var(--icon-primary, #dae8fc)" stroke="none" stroke-width="0"/><path d="M 63.25 206.94 A 11.67 11.67 0 0 1 51.58 218.61 A 11.67 11.67 0 0 1 39.91 206.94 A 11.67 11.67 0 0 1 51.58 195.28 A 11.67 11.67 0 0 1 63.25 206.94 Z M 129.52 102.5 A 31.33 31.33 0 0 1 98.19 133.83 A 31.33 31.33 0 0 1 66.86 102.5 A 31.33 31.33 0 0 1 98.19 71.17 A 31.33 31.33 0 0 1 129.52 102.5 Z" fill="var(--icon-secondary, #6c8ebf)" stroke="none" stroke-width="0"/></svg>