<svg xmlns="http://www.w3.org/2000/svg" viewBox="0 0 190.99 279.26" width="190.99" height="279.26"><path d="M 96.21 106.54 L 80.22 129.56 L 90.85 129.56 L 90.85 153.98 A 31.31 31.31 0 0 0 77.89 159.43 L 60.56 142.19 L 68.04 134.67 L 40.58 129.63 L 45.63 157.2 L 53.12 149.67 L 70.46 166.91 A 31.31 31.31 0 0 0 65.28 179.57 L 40.83 179.57 L 40.83 168.95 L 17.8 184.75 L 40.83 200.73 L 40.83 190.11 L 65.25 190.11 A 31.31 31.31 0 0 0 70.54 202.85 L 53.25 220.17 L 45.73 212.66 L 40.77 240.25 L 68.22 235.12 L 60.71 227.62 L 77.97 210.34 A 31.31 31.31 0 0 0 90.85 215.68 L 90.85 240.13 L 80.22 240.13 L 96.21 263.15 L 112.01 240.13 L 101.39 240.13 L 101.39 215.71 A 31.31 31.31 0 0 0 114.17 210.37 L 131.53 227.63 L 124.04 235.16 L 151.64 240.06 L 146.45 212.63 L 138.97 220.15 L 121.64 202.93 A 31.31 31.31 0 0 0 126.94 190.11 L 151.4 190.11 L 151.4 200.73 L 174.42 184.75 L 151.4 168.95 L 151.4 179.57 L 126.97 179.57 A 31.31 31.31 0 0 0 121.57 166.69 L 138.84 149.39 L 146.35 156.89 L 151.45 129.44 L 123.87 134.43 L 131.38 141.94 L 114.1 159.24 A 31.31 31.31 0 0 0 101.39 154.02 L 101.39 129.56 L 112.01 129.56 Z M 96.42 41.74 L 127.04 53.71 L 127.04 55.93 L 65.18 55.93 L 65.18 53.95 Z M 65.18 23.65 L 127.04 23.65 L 127.04 26.55 L 96.42 38.52 L 65.18 26.31 Z M 36.74 15.11 L 36.74 29.19 L 64.3 29.19 L 92.3 40.13 L 65.18 50.73 L 65.18 50.48 L 36.74 50.48 L 36.74 64.56 L 65.18 64.56 L 65.18 58.93 L 127.04 58.93 L 127.04 64.56 L 155.48 64.56 L 155.48 50.48 L 127.04 50.48 L 127.04 50.49 L 100.54 40.13 L 128.54 29.19 L 155.48 29.19 L 155.48 15.11 L 127.04 15.11 L 127.04 20.65 L 65.18 20.65 L 65.18 15.11 Z M 11.72 0 C 5.27 0 0 5.27 0 11.72 L 0 67.91 C 0 74.36 5.27 79.63 11.72 79.63 L 179.27 79.63 C 185.72 79.63 190.99 74.36 190.99 67.91 L 190.99 11.72 C 190.99 5.27 185.72 0 179.27 0 Z M 11.72 5.29 L 179.27 5.29 C 182.88 5.29 185.7 8.11 185.7 11.72 L 185.7 67.91 C 185.7 71.52 182.88 74.34 179.27 74.34 L 11.72 74.34 C 8.11 74.34 5.29 71.52 5.29 67.91 L 5.29 11.72 C 5.29 8.11 8.11 5.29 11.72 5.29 Z M 11.72 87.37 C 5.27 87.37 0 92.64 0 99.09 L 0 267.55 C 0 273.99 5.27 279.26 11.72 279.26 L 179.27 279.26 C 185.72 279.26 190.99 273.99 190.99 267.55 L 190.99 99.09 C 190.99 92.64 185.72 87.37 179.27 87.37 Z M 11.72 92.66 L 179.27 92.66 C 182.88 92.66 185.7 95.48 185.7 99.09 L 185.7 267.55 C 185.7 271.15 182.88 273.97 179.27 273.97 L 11.72 273.97 C 8.11 273.97 5.29 271.15 5.29 267.55 L 5.29 99.09 C 5.29 95.48 8.11 92.66 11.72 92.66 Z" fill="var(--icon-primary, #dae8fc)" stroke="none" stroke-width="0"/></svg>