<svg xmlns="http://www.w3.org/2000/svg" viewBox="0 0 721.85 725.26" width="721.85" height="725.26"><path d="M 361.29 66.66 L 300.88 153.68 L 341.03 153.68 L 341.03 245.99 A 118.34 118.34 0 0 0 292.08 266.56 L 226.56 201.42 L 254.85 172.97 L 151.05 153.95 L 170.15 258.15 L 198.46 229.68 L 264 294.84 A 118.34 118.34 0 0 0 244.41 342.68 L 151.98 342.68 L 151.98 302.55 L 64.96 362.26 L 151.98 422.68 L 151.98 382.53 L 244.29 382.53 A 118.34 118.34 0 0 0 264.3 430.69 L 198.92 496.14 L 170.52 467.77 L 151.77 572.04 L 255.51 552.66 L 227.12 524.3 L 292.37 458.97 A 118.34 118.34 0 0 0 341.03 479.15 L 341.03 571.58 L 300.88 571.58 L 361.29 658.6 L 421 571.58 L 380.88 571.58 L 380.88 479.26 A 118.34 118.34 0 0 0 429.19 459.11 L 494.79 524.34 L 466.49 552.81 L 570.79 571.32 L 551.19 467.62 L 522.89 496.08 L 457.43 430.98 A 118.34 118.34 0 0 0 477.45 382.53 L 569.88 382.53 L 569.88 422.68 L 656.89 362.26 L 569.88 302.55 L 569.88 342.68 L 477.56 342.68 A 118.34 118.34 0 0 0 457.14 293.99 L 522.43 228.62 L 550.82 256.97 L 570.07 153.21 L 465.82 172.08 L 494.23 200.46 L 428.92 265.85 A 118.34 118.34 0 0 0 380.88 246.11 L 380.88 153.68 L 421.01 153.68 Z M 44.28 0 C 19.92 0 0 19.92 0 44.28 L 0 680.96 C 0 705.33 19.92 725.26 44.28 725.26 L 677.57 725.26 C 701.93 725.26 721.85 705.33 721.85 680.96 L 721.85 44.28 C 721.85 19.92 701.93 0 677.57 0 Z M 44.28 20 L 677.57 20 C 691.2 20 701.86 30.66 701.86 44.28 L 701.86 680.96 C 701.86 694.59 691.2 705.25 677.57 705.25 L 44.28 705.25 C 30.66 705.25 20 694.59 20 680.96 L 20 44.28 C 20 30.66 30.66 20 44.28 20 Z" fill="var(--icon-primary, #dae8fc)" stroke="none" stroke-width="0"/></svg>