<svg xmlns="http://www.w3.org/2000/svg" viewBox="0 0 220.46 191.61" width="220.46" height="191.61"><path d="M 72.96 177.39 L 80.61 164.29 L 140.11 164.29 L 147.79 177.39 L 127.94 177.39 L 127.94 179.69 C 127.94 182.06 125.69 184.69 123.23 184.69 L 96.85 184.69 C 94.33 184.69 92.36 182.1 92.36 179.81 L 92.36 177.39 Z M 126.08 77.47 A 15.79 15.79 0 0 0 110.29 61.69 A 15.79 15.79 0 0 0 94.51 77.47 A 15.79 15.79 0 0 0 110.29 93.26 A 15.79 15.79 0 0 0 126.08 77.47 Z M 92.63 131.54 L 127.95 131.54 C 127.95 113.97 122.75 94.47 110.29 94.47 C 98.44 94.47 92.63 112.07 92.63 131.54 Z M 37.11 52.15 L 183.01 52.15 L 183.01 140.16 L 37.11 140.16 Z M 98.42 16.51 L 121.93 16.51 L 121.93 12.37 L 98.42 12.37 Z M 126.78 16.43 A 16.43 16.43 0 0 1 110.35 32.86 A 16.43 16.43 0 0 1 93.92 16.43 A 16.43 16.43 0 0 1 110.35 0 A 16.43 16.43 0 0 1 126.78 16.43 Z M 85.62 36.75 L 90.75 20.32 L 92.3 20.32 C 94.11 30.26 101.6 35.58 110.16 35.58 C 119.14 35.58 126.39 30.02 128.37 20.32 L 129.7 20.32 L 135.15 36.75 Z M 35.08 40.62 C 29.93 40.62 25.74 44.81 25.74 49.96 L 25.74 142.23 C 25.74 145.19 27.13 147.84 29.28 149.56 C 28.54 149.94 27.89 150.41 27.34 150.89 L 27.32 150.91 L 0 176.52 L 0 182.69 C 0 185.47 1.27 187.79 3.08 189.31 C 4.9 190.83 7.23 191.61 9.54 191.61 L 211.1 191.61 C 216.17 191.61 220.46 187.77 220.46 183.15 L 220.46 176.31 L 194.67 151.91 L 194.61 151.86 C 193.58 151.07 192.45 150.22 191.25 149.58 C 193.42 147.86 194.82 145.21 194.82 142.23 L 194.82 49.96 C 194.82 44.81 190.62 40.62 185.47 40.62 Z M 35.08 43.62 L 185.47 43.62 C 189.01 43.62 191.82 46.42 191.82 49.96 L 191.82 142.23 C 191.82 145.77 189.01 148.59 185.47 148.59 L 35.08 148.59 C 31.54 148.59 28.74 145.77 28.74 142.23 L 28.74 49.96 C 28.74 46.42 31.54 43.62 35.08 43.62 Z M 33.01 151.59 L 35.08 151.59 L 185.47 151.59 L 187.7 151.59 C 188.61 151.59 190.94 152.83 192.74 154.21 L 217.46 177.61 L 217.46 183.15 C 217.46 185.83 214.63 188.61 211.1 188.61 L 9.54 188.61 C 7.92 188.61 6.23 188.03 5.01 187.01 C 3.78 185.99 3 184.6 3 182.69 L 3 177.82 L 29.32 153.14 C 30.2 152.37 31.72 151.59 33.01 151.59 Z" fill="var(--icon-primary, #dae8fc)" stroke="none" stroke-width="0"/></svg>