<svg xmlns="http://www.w3.org/2000/svg" viewBox="0 0 190.99 191.89" width="190.99" height="191.89"><path d="M 38.96 128.3 L 33.86 135.64 L 37.25 135.64 L 37.25 143.42 A 9.98 9.98 0 0 0 33.12 145.16 L 27.59 139.66 L 29.98 137.26 L 21.22 135.66 L 22.84 144.45 L 25.22 142.05 L 30.75 147.54 A 9.98 9.98 0 0 0 29.1 151.58 L 21.3 151.58 L 21.3 148.19 L 13.96 153.23 L 21.3 158.32 L 21.3 154.94 L 29.09 154.94 A 9.98 9.98 0 0 0 30.78 159 L 25.26 164.52 L 22.87 162.13 L 21.29 170.92 L 30.04 169.29 L 27.64 166.9 L 33.14 161.39 A 9.98 9.98 0 0 0 37.25 163.09 L 37.25 170.88 L 33.86 170.88 L 38.96 178.22 L 43.99 170.88 L 40.61 170.88 L 40.61 163.1 A 9.98 9.98 0 0 0 44.69 161.4 L 50.22 166.9 L 47.83 169.3 L 56.63 170.86 L 54.98 162.12 L 52.59 164.52 L 47.07 159.02 A 9.98 9.98 0 0 0 48.76 154.94 L 56.55 154.94 L 56.55 158.32 L 63.89 153.23 L 56.55 148.19 L 56.55 151.58 L 48.77 151.58 A 9.98 9.98 0 0 0 47.04 147.47 L 52.55 141.96 L 54.94 144.35 L 56.57 135.6 L 47.78 137.19 L 50.17 139.58 L 44.66 145.1 A 9.98 9.98 0 0 0 40.61 143.43 L 40.61 135.64 L 43.99 135.64 Z M 143.15 16.82 L 143.15 27 L 109.03 27 L 109.03 39.88 L 143.15 39.88 L 143.15 51.03 L 172.2 34.06 Z M 68.54 42.66 L 39.48 59.89 L 68.54 76.87 L 68.54 65.72 L 102.66 65.72 L 102.66 52.84 L 68.54 52.84 Z M 124.16 67.28 L 124.16 77.46 L 90.04 77.46 L 90.04 90.34 L 124.16 90.34 L 124.16 101.49 L 153.21 84.51 Z M 49 93.04 L 19.95 110.28 L 49 127.26 L 49 116.11 L 83.12 116.11 L 83.12 103.22 L 49 103.22 Z M 148.11 121.98 L 143.16 126.72 L 146.66 126.72 L 146.66 136.81 C 143.28 133.91 140.06 131.5 137.24 129.7 C 134.91 128.23 132.85 127.17 131.09 126.61 C 130.21 126.33 129.4 126.17 128.61 126.2 C 127.82 126.23 126.99 126.48 126.39 127.09 C 125.78 127.7 125.55 128.53 125.53 129.33 C 125.52 130.12 125.69 130.93 125.98 131.8 C 126.56 133.56 127.65 135.59 129.17 137.9 C 130.97 140.65 133.38 143.77 136.26 147.04 L 126.35 147.04 L 126.35 143.53 L 121.61 148.49 L 126.35 153.25 L 126.35 149.99 L 136.04 149.99 C 133.26 153.17 130.92 156.2 129.16 158.88 C 127.65 161.19 126.56 163.22 125.98 164.98 C 125.69 165.85 125.52 166.66 125.53 167.45 C 125.55 168.24 125.78 169.08 126.38 169.69 C 126.99 170.3 127.82 170.55 128.61 170.58 C 129.4 170.61 130.21 170.45 131.09 170.17 C 132.85 169.61 134.91 168.55 137.23 167.08 C 140.06 165.28 143.28 162.86 146.66 159.97 L 146.66 170.06 L 143.16 170.06 L 148.11 174.8 L 152.88 170.06 L 149.62 170.06 L 149.62 160.19 C 152.91 162.98 156.04 165.33 158.8 167.08 C 161.12 168.55 163.18 169.61 164.94 170.17 C 165.82 170.45 166.63 170.61 167.42 170.58 C 168.21 170.55 169.05 170.3 169.65 169.69 C 170.25 169.08 170.49 168.24 170.5 167.45 C 170.52 166.66 170.34 165.85 170.05 164.98 C 169.47 163.22 168.38 161.19 166.87 158.88 C 165.11 156.2 162.77 153.17 160 149.99 L 169.68 149.99 L 169.68 153.25 L 174.43 148.49 L 169.68 143.53 L 169.68 147.04 L 159.77 147.04 C 162.65 143.77 165.06 140.65 166.87 137.9 C 168.38 135.59 169.47 133.56 170.05 131.8 C 170.34 130.93 170.52 130.12 170.5 129.33 C 170.49 128.53 170.25 127.7 169.65 127.09 C 169.05 126.48 168.21 126.23 167.42 126.2 C 166.63 126.17 165.82 126.33 164.94 126.61 C 163.18 127.17 161.12 128.23 158.8 129.7 C 156.04 131.45 152.91 133.79 149.62 136.59 L 149.62 126.72 L 152.88 126.72 Z M 167.33 128.91 L 167.33 128.91 C 167.66 128.92 167.71 128.99 167.71 128.99 C 167.72 129 167.78 129.05 167.79 129.38 C 167.8 129.71 167.71 130.26 167.48 130.95 C 167.02 132.32 166.03 134.22 164.6 136.41 C 162.78 139.18 160.26 142.41 157.22 145.83 A 9.56 9.56 0 0 0 150.71 139.23 C 154.18 136.24 157.45 133.77 160.25 131.99 C 162.46 130.59 164.38 129.63 165.76 129.2 C 166.45 128.98 167 128.9 167.33 128.91 Z M 128.7 128.91 C 129.03 128.9 129.59 128.98 130.28 129.2 C 131.66 129.63 133.58 130.59 135.78 131.99 C 138.58 133.77 141.86 136.24 145.32 139.23 A 9.56 9.56 0 0 0 138.82 145.84 C 135.78 142.42 133.25 139.18 131.43 136.41 C 130 134.22 129.01 132.32 128.55 130.95 C 128.32 130.26 128.24 129.71 128.24 129.38 C 128.25 129.05 128.31 129 128.32 128.99 C 128.32 128.99 128.37 128.92 128.7 128.91 Z M 157.21 150.94 C 160.26 154.36 162.78 157.6 164.6 160.37 C 166.03 162.56 167.02 164.46 167.48 165.83 C 167.71 166.52 167.8 167.07 167.79 167.4 C 167.78 167.73 167.72 167.78 167.72 167.79 C 167.71 167.79 167.66 167.86 167.33 167.87 C 167 167.88 166.45 167.8 165.76 167.58 C 164.38 167.15 162.46 166.19 160.25 164.79 C 157.45 163.01 154.18 160.54 150.71 157.55 A 9.56 9.56 0 0 0 157.21 150.94 Z M 138.81 150.95 A 9.56 9.56 0 0 0 145.32 157.55 C 141.86 160.54 138.58 163.01 135.78 164.79 C 133.58 166.19 131.66 167.15 130.28 167.58 C 129.59 167.8 129.03 167.88 128.7 167.87 C 128.37 167.86 128.32 167.79 128.32 167.79 C 128.31 167.78 128.25 167.73 128.24 167.4 C 128.24 167.07 128.32 166.52 128.55 165.83 C 129.01 164.46 130 162.55 131.43 160.37 C 133.25 157.6 135.77 154.37 138.81 150.95 Z M 11.72 5.29 L 179.27 5.29 C 182.88 5.29 185.7 8.11 185.7 11.72 L 185.7 180.17 C 185.7 183.78 182.88 186.6 179.27 186.6 L 11.72 186.6 C 8.11 186.6 5.29 183.78 5.29 180.17 L 5.29 11.72 C 5.29 8.11 8.11 5.29 11.72 5.29 Z M 11.72 0 C 5.27 0 0 5.27 0 11.72 L 0 180.17 C 0 186.62 5.27 191.89 11.72 191.89 L 179.27 191.89 C 185.72 191.89 190.99 186.62 190.99 180.17 L 190.99 11.72 C 190.99 5.27 185.72 0 179.27 0 Z" fill="var(--icon-primary, #dae8fc)" stroke="none" stroke-width="0"/><path d="M 157.57 148.39 A 9.56 9.56 0 0 1 148.02 157.94 A 9.56 9.56 0 0 1 138.46 148.39 A 9.56 9.56 0 0 1 148.02 138.83 A 9.56 9.56 0 0 1 157.57 148.39 Z" fill="#ffffff" stroke="none" stroke-width="0" opacity="0.5"/></svg>