<svg xmlns="http://www.w3.org/2000/svg" viewBox="0 0 832.17 722.85" width="832.17" height="722.85"><path d="M 416.22 165.76 A 57.09 57.09 0 0 0 359.14 222.85 A 57.09 57.09 0 0 0 403.11 278.35 L 403.11 377.56 A 57.09 57.09 0 0 0 359.48 432.98 A 57.09 57.09 0 0 0 366.29 459.91 L 290.71 536.09 A 57.09 57.09 0 0 0 262.78 528.75 A 57.09 57.09 0 0 0 205.69 585.84 A 57.09 57.09 0 0 0 262.78 642.93 A 57.09 57.09 0 0 0 319.87 585.84 A 57.09 57.09 0 0 0 310.15 554.06 L 383.88 479.75 A 57.09 57.09 0 0 0 416.57 490.06 A 57.09 57.09 0 0 0 448.95 479.91 L 522.93 554.47 A 57.09 57.09 0 0 0 512.38 587.47 A 57.09 57.09 0 0 0 569.46 644.56 A 57.09 57.09 0 0 0 626.55 587.47 A 57.09 57.09 0 0 0 569.46 530.38 A 57.09 57.09 0 0 0 542.86 537 L 466.71 460.25 A 57.09 57.09 0 0 0 473.65 432.98 A 57.09 57.09 0 0 0 429.57 377.45 L 429.57 278.29 A 57.09 57.09 0 0 0 473.31 222.85 A 57.09 57.09 0 0 0 416.22 165.76 Z M 415.17 0.12 C 402.46 0 390.26 7.89 382.46 21.61 L 382.43 21.64 C 382.43 21.65 382.42 21.66 382.42 21.67 L 8.33 667.21 L 8.29 667.29 C 0.52 681.36 0 695.46 5.75 706.03 C 11.5 716.6 23.11 722.85 36.01 722.85 L 793.72 722.85 C 804.43 722.85 816.01 718.57 823.41 709.11 C 830.82 699.66 832.17 684.87 823.41 669.37 L 823.39 669.33 L 823.37 669.29 L 447.59 21.62 L 447.59 21.61 C 439.88 8.25 427.88 0.24 415.17 0.12 Z M 415.03 15.24 C 421.57 15.3 428.79 19.28 434.49 29.17 L 434.5 29.18 L 810.28 676.85 L 810.29 676.88 C 816.94 688.7 815.27 695 811.52 699.79 C 807.75 704.59 800.04 707.73 793.72 707.73 L 36.01 707.73 C 27.77 707.73 21.97 704.21 19.03 698.81 C 16.09 693.41 15.59 685.34 21.53 674.6 L 395.55 29.16 L 395.58 29.13 C 401.38 18.9 408.48 15.18 415.03 15.24 Z" fill="var(--icon-primary, #dae8fc)" stroke="none" stroke-width="0"/></svg>