<svg xmlns="http://www.w3.org/2000/svg" viewBox="0 0 248.19 191.89" width="248.19" height="191.89"><path d="M 181.81 142.93 L 186.63 134.62 L 162.46 120.6 L 167.61 111.72 L 191.78 125.74 L 196.61 117.42 L 201.16 137.11 Z M 181.79 48.96 L 186.61 57.27 L 162.44 71.29 L 167.58 80.17 L 191.76 66.15 L 196.58 74.47 L 201.14 54.79 Z M 197.31 81.2 L 197.31 90.81 L 169.36 90.81 L 169.36 101.08 L 197.31 101.08 L 197.31 110.69 L 211.12 95.95 Z M 65.01 81.2 L 65.01 90.81 L 37.07 90.81 L 37.07 101.08 L 65.01 101.08 L 65.01 110.69 L 78.83 95.95 Z M 123.42 58.52 C 102.8 58.52 86 75.33 86 95.95 C 86 116.57 102.8 133.37 123.42 133.37 C 144.04 133.37 160.84 116.57 160.84 95.95 C 160.84 75.33 144.04 58.52 123.42 58.52 Z M 123.42 66.52 C 139.72 66.52 152.84 79.65 152.84 95.95 C 152.84 112.24 139.72 125.37 123.42 125.37 C 107.12 125.37 94 112.24 94 95.95 C 94 79.65 107.12 66.52 123.42 66.52 Z M 11.72 0 C 5.27 0 0 5.27 0 11.72 L 0 180.17 C 0 186.62 5.27 191.89 11.72 191.89 L 236.47 191.89 C 242.91 191.89 248.19 186.62 248.19 180.17 L 248.19 11.72 C 248.19 5.27 242.91 0 236.47 0 Z M 11.72 5.29 L 236.47 5.29 C 240.07 5.29 242.89 8.11 242.89 11.72 L 242.89 180.17 C 242.89 183.78 240.07 186.6 236.47 186.6 L 11.72 186.6 C 8.11 186.6 5.29 183.78 5.29 180.17 L 5.29 11.72 C 5.29 8.11 8.11 5.29 11.72 5.29 Z" fill="var(--icon-primary, #dae8fc)" stroke="none" stroke-width="0"/></svg>