<svg xmlns="http://www.w3.org/2000/svg" viewBox="0 0 737.45 737.45" width="737.45" height="737.45"><path d="M 372.68 391.27 A 23.86 23.86 0 0 1 396.55 415.14 A 23.86 23.86 0 0 1 379.61 437.95 L 379.61 493.06 L 365.75 493.06 L 365.75 437.97 A 23.86 23.86 0 0 1 348.82 415.14 A 23.86 23.86 0 0 1 372.68 391.27 Z M 372.33 126.43 C 337.57 126.43 308.92 143.6 289.51 165.33 C 270.09 187.05 258.84 213.06 258.84 236.13 L 258.84 320.39 L 187.03 320.39 L 187.03 558.01 L 555.58 558.01 L 555.58 320.39 L 485.81 320.39 L 485.81 236.13 C 485.81 180.01 433.42 126.43 372.33 126.43 Z M 372.33 152.89 C 417.01 152.89 459.35 197.69 459.35 236.13 L 459.35 320.39 L 285.29 320.39 L 285.29 236.13 C 285.29 222.53 293.74 200.29 309.24 182.95 C 324.74 165.61 346.23 152.89 372.33 152.89 Z M 368.73 0 C 165.33 0 0 165.33 0 368.73 C 0 572.12 165.33 737.45 368.73 737.45 C 572.12 737.45 737.45 572.12 737.45 368.73 C 737.45 165.33 572.12 0 368.73 0 Z M 368.73 41.57 C 549.65 41.57 695.88 187.8 695.88 368.73 C 695.88 549.65 549.65 695.88 368.73 695.88 C 187.8 695.88 41.57 549.65 41.57 368.73 C 41.57 187.8 187.8 41.57 368.73 41.57 Z" fill="var(--icon-primary, #dae8fc)" stroke="none" stroke-width="0"/></svg>