<svg xmlns="http://www.w3.org/2000/svg" viewBox="0 0 2090.41 2090.41" width="2090.41" height="2090.41"><path d="M 1045.21 0 C 468.65 0 0 468.65 0 1045.21 C 0 1621.77 468.65 2090.41 1045.21 2090.41 C 1621.77 2090.41 2090.41 1621.76 2090.41 1045.21 C 2090.41 468.66 1621.76 0 1045.21 0 Z" fill="var(--icon-secondary, #6c8ebf)" stroke="none" stroke-width="0"/><path d="M 1045.21 117.85 C 532.34 117.85 117.85 532.34 117.85 1045.21 C 117.85 1558.08 532.34 1972.56 1045.21 1972.56 C 1558.08 1972.56 1972.56 1558.07 1972.56 1045.21 C 1972.56 532.35 1558.07 117.85 1045.21 117.85 Z M 1377.1 908.19 L 1377.1 908.19 L 1574.87 908.19 L 1574.87 1581.76 L 530.15 1581.76 L 530.15 908.19 L 733.71 908.19 L 733.71 669.35 C 733.71 603.94 765.62 530.22 820.66 468.64 C 875.69 407.06 956.88 358.39 1055.42 358.39 C 1228.59 358.39 1377.1 510.28 1377.1 669.35 L 1377.1 908.19 Z M 1124.08 1176.76 C 1124.06 1191.64 1119.18 1205.65 1110.75 1217.02 C 1102.31 1228.38 1090.32 1237.1 1076.07 1241.43 L 1076.07 1397.66 L 1036.78 1397.66 L 1036.78 1241.48 C 1008.28 1232.83 988.78 1206.55 988.78 1176.76 C 988.78 1139.4 1019.06 1109.11 1056.42 1109.11 L 1056.43 1109.11 C 1093.79 1109.11 1124.07 1139.4 1124.08 1176.76 Z M 1302.1 669.35 L 1302.1 908.19 L 808.71 908.19 L 808.71 669.35 C 808.71 630.79 832.66 567.76 876.59 518.6 C 920.53 469.45 981.44 433.38 1055.42 433.38 C 1182.09 433.38 1302.1 560.37 1302.1 669.35 L 1302.1 669.35 Z" fill="var(--icon-secondary, #6c8ebf)" stroke="none" stroke-width="0"/></svg>