<svg xmlns="http://www.w3.org/2000/svg" viewBox="0 0 248.19 191.89" width="248.19" height="191.89"><path d="M 140.79 149.12 L 131.52 149.12 L 131.52 175.37 L 125.4 175.37 L 125.4 149.12 L 116.12 149.12 L 128.02 128.18 Z M 140.79 43.73 L 131.52 43.73 L 131.52 17.48 L 125.4 17.48 L 125.4 43.73 L 116.12 43.73 L 128.02 64.68 Z M 49.96 146.01 L 44.87 138.26 L 75.64 118.05 L 72.28 112.94 L 41.51 133.15 L 36.42 125.39 L 25.45 146.83 Z M 49.96 46.85 L 44.87 54.6 L 75.64 74.81 L 72.28 79.92 L 41.51 59.71 L 36.42 67.47 L 25.45 46.03 Z M 35.01 84.09 L 35.01 93.37 L 71.82 93.37 L 71.82 99.49 L 35.01 99.49 L 35.01 108.76 L 14.07 96.87 Z M 198.94 146.01 L 204.03 138.26 L 173.26 118.05 L 176.62 112.94 L 207.39 133.15 L 212.48 125.39 L 223.46 146.83 Z M 198.94 46.85 L 204.03 54.6 L 173.26 74.81 L 176.62 79.92 L 207.39 59.71 L 212.48 67.47 L 223.46 46.03 Z M 213.89 84.09 L 213.89 93.37 L 177.08 93.37 L 177.08 99.49 L 213.89 99.49 L 213.89 108.76 L 234.83 96.87 Z M 106.52 67.54 C 101.57 67.54 97.48 71.63 97.48 76.57 L 97.48 88.22 L 92.59 88.22 L 80.57 79.49 L 80.65 113.37 L 92.79 106.27 L 97.48 106.27 L 97.48 116.29 C 97.48 121.23 101.57 125.32 106.52 125.32 L 159.17 125.32 C 164.12 125.32 168.21 121.23 168.21 116.29 L 168.21 76.57 C 168.21 71.63 164.12 67.54 159.17 67.54 Z M 106.52 74.54 L 159.17 74.54 C 160.36 74.54 161.21 75.39 161.21 76.57 L 161.21 116.29 C 161.21 117.47 160.36 118.32 159.17 118.32 L 106.52 118.32 C 105.33 118.32 104.48 117.47 104.48 116.29 L 104.48 76.57 C 104.48 75.39 105.33 74.54 106.52 74.54 Z M 11.72 0 C 5.27 0 0 5.27 0 11.72 L 0 180.17 C 0 186.62 5.27 191.89 11.72 191.89 L 236.47 191.89 C 242.91 191.89 248.19 186.62 248.19 180.17 L 248.19 11.72 C 248.19 5.27 242.91 0 236.47 0 Z M 11.72 5.29 L 236.47 5.29 C 240.07 5.29 242.89 8.11 242.89 11.72 L 242.89 180.17 C 242.89 183.78 240.07 186.6 236.47 186.6 L 11.72 186.6 C 8.11 186.6 5.29 183.78 5.29 180.17 L 5.29 11.72 C 5.29 8.11 8.11 5.29 11.72 5.29 Z" fill="var(--icon-primary, #dae8fc)" stroke="none" stroke-width="0"/></svg>