<svg xmlns="http://www.w3.org/2000/svg" viewBox="0 0 248.19 191.89" width="248.19" height="191.89"><path d="M 200.59 142.7 L 176.4 159.44 L 200.59 176.18 L 200.59 164.71 L 227.18 164.71 L 227.18 154.18 L 200.59 154.18 Z M 203.19 104.49 L 203.19 115.96 L 176.6 115.96 L 176.6 126.49 L 203.19 126.49 L 203.19 137.97 L 227.38 121.23 Z M 47.1 142.59 L 47.1 154.06 L 20.51 154.06 L 20.51 164.59 L 47.1 164.59 L 47.1 176.07 L 71.29 159.33 Z M 44.93 104.6 L 20.74 121.34 L 44.93 138.08 L 44.93 126.61 L 71.52 126.61 L 71.52 116.08 L 44.93 116.08 Z M 143.74 136.19 C 138.71 136.19 135.28 141.54 133.71 145.95 C 131.36 152.95 131.16 160.59 131.32 168.96 L 156 169.02 C 156.18 161.61 156.02 153.38 153.71 146.76 C 151.91 141.63 148.64 136.19 143.74 136.19 Z M 104.31 136.19 C 99.28 136.19 95.85 141.54 94.28 145.95 C 91.93 152.95 91.73 160.59 91.89 168.96 L 116.57 169.02 C 116.75 161.61 116.59 153.38 114.28 146.76 C 112.49 141.63 109.21 136.19 104.31 136.19 Z M 143.67 112.4 A 11.45 11.45 0 0 0 132.21 123.85 A 11.45 11.45 0 0 0 143.67 135.31 A 11.45 11.45 0 0 0 155.12 123.85 A 11.45 11.45 0 0 0 143.67 112.4 Z M 104.24 112.4 A 11.45 11.45 0 0 0 92.78 123.85 A 11.45 11.45 0 0 0 104.24 135.31 A 11.45 11.45 0 0 0 115.69 123.85 A 11.45 11.45 0 0 0 104.24 112.4 Z M 64.27 20.89 L 105.2 20.89 L 105.2 32.35 C 105.2 33.25 105.84 33.98 106.74 33.98 L 119.12 33.98 L 119.12 92.72 L 64.27 92.72 Z M 61.16 17.78 L 61.16 95.84 L 62.72 95.84 L 122.23 95.84 L 122.23 31.24 L 109.57 17.78 Z M 72.11 68.47 L 72.11 72.36 L 110 72.36 L 110 68.47 Z M 72.11 54.09 L 72.11 57.98 L 110 57.98 L 110 54.09 Z M 72.11 38.93 L 72.11 42.82 L 110 42.82 L 110 38.93 Z M 183.95 85.82 L 195.28 85.82 L 195.28 94.3 L 183.95 94.3 Z M 176.32 85.82 L 180.82 85.82 L 180.82 94.3 L 176.32 94.3 Z M 167.38 85.82 L 173.19 85.82 L 173.19 94.3 L 167.38 94.3 Z M 136.54 85.82 L 164.25 85.82 L 164.25 94.3 L 136.54 94.3 Z M 183.95 71.49 L 195.28 71.49 L 195.28 82 L 183.95 82 Z M 176.32 71.49 L 180.82 71.49 L 180.82 82 L 176.32 82 Z M 167.38 71.49 L 173.19 71.49 L 173.19 82 L 167.38 82 Z M 136.54 71.49 L 164.25 71.49 L 164.25 82 L 136.54 82 Z M 183.95 57.16 L 195.28 57.16 L 195.28 67.67 L 183.95 67.67 Z M 176.32 57.16 L 180.82 57.16 L 180.82 67.67 L 176.32 67.67 Z M 167.38 57.16 L 173.19 57.16 L 173.19 67.67 L 167.38 67.67 Z M 136.54 57.16 L 164.25 57.16 L 164.25 67.67 L 136.54 67.67 Z M 141.01 37.69 C 139.91 37.69 139.02 38.58 139.02 39.69 L 139.02 47.26 C 139.02 48.37 139.91 49.26 141.01 49.26 L 160.73 49.26 C 161.83 49.26 162.72 48.37 162.72 47.26 L 162.72 39.69 C 162.72 38.58 161.83 37.69 160.73 37.69 Z M 179.25 29.12 C 178.14 29.12 177.25 30.01 177.25 31.11 L 177.25 47.33 C 177.25 48.44 178.14 49.33 179.25 49.33 L 190.47 49.33 C 191.58 49.33 192.47 48.44 192.47 47.33 L 192.47 31.11 C 192.47 30.01 191.58 29.12 190.47 29.12 Z M 157.9 21.29 C 156.79 21.29 155.9 22.18 155.9 23.29 L 155.9 34.83 C 155.9 35.94 156.79 36.83 157.9 36.83 L 171.51 36.83 C 172.61 36.83 173.5 35.94 173.5 34.83 L 173.5 23.29 C 173.5 22.18 172.61 21.29 171.51 21.29 Z M 136.54 20.46 L 195.28 20.46 L 195.28 53.34 L 136.54 53.34 Z M 134.63 16.64 C 133.57 16.64 132.72 17.49 132.72 18.55 L 132.72 96.21 C 132.72 97.27 133.57 98.12 134.63 98.12 L 197.19 98.12 C 198.24 98.12 199.1 97.27 199.1 96.21 L 199.1 18.55 C 199.1 17.49 198.24 16.64 197.19 16.64 Z M 11.72 0 C 5.27 0 0 5.27 0 11.72 L 0 180.17 C 0 186.62 5.27 191.89 11.72 191.89 L 236.47 191.89 C 242.91 191.89 248.19 186.62 248.19 180.17 L 248.19 11.72 C 248.19 5.27 242.91 0 236.47 0 Z M 11.72 5.29 L 236.47 5.29 C 240.07 5.29 242.89 8.11 242.89 11.72 L 242.89 180.17 C 242.89 183.78 240.07 186.6 236.47 186.6 L 11.72 186.6 C 8.11 186.6 5.29 183.78 5.29 180.17 L 5.29 11.72 C 5.29 8.11 8.11 5.29 11.72 5.29 Z" fill="var(--icon-primary, #dae8fc)" stroke="none" stroke-width="0"/></svg>