<svg xmlns="http://www.w3.org/2000/svg" viewBox="0 0 938.03 725.26" width="938.03" height="725.26"><path d="M 555.36 172.69 C 543.79 172.69 533.29 174.64 523.83 178.55 C 514.38 182.46 507.19 188.2 502.27 195.78 C 497.35 203.28 494.89 211.36 494.89 220.04 C 494.89 227.93 496.88 235.07 500.87 241.48 C 504.93 247.81 511.06 253.12 519.26 257.42 C 525.59 260.78 536.65 264.37 552.43 268.2 C 568.21 271.95 578.4 274.72 583.01 276.52 C 590.2 279.25 595.36 282.65 598.48 286.71 C 601.61 290.7 603.17 295.39 603.17 300.78 C 603.17 306.09 601.53 311.01 598.25 315.54 C 595.04 320 590.12 323.51 583.48 326.09 C 576.84 328.67 569.19 329.96 560.51 329.96 C 550.75 329.96 541.96 328.28 534.15 324.92 C 526.33 321.48 520.55 317.03 516.8 311.56 C 513.13 306.01 510.79 298.94 509.77 290.35 L 488.33 292.22 C 488.64 303.71 491.76 314.02 497.7 323.16 C 503.72 332.22 511.96 339.02 522.43 343.55 C 532.97 348.08 546.02 350.35 561.57 350.35 C 573.83 350.35 584.85 348.12 594.62 343.67 C 604.46 339.14 612 332.85 617.23 324.8 C 622.47 316.68 625.08 308.04 625.08 298.9 C 625.08 289.68 622.7 281.56 617.94 274.53 C 613.17 267.42 605.79 261.56 595.79 256.95 C 588.91 253.82 576.22 250.19 557.7 246.05 C 539.26 241.83 527.86 237.73 523.48 233.75 C 519.03 229.76 516.8 224.68 516.8 218.51 C 516.8 211.4 519.93 205.35 526.18 200.35 C 532.51 195.27 542.54 192.73 556.29 192.73 C 569.5 192.73 579.46 195.5 586.18 201.05 C 592.97 206.6 596.96 214.8 598.13 225.66 L 619.93 224.02 C 619.54 213.94 616.72 204.92 611.49 196.95 C 606.26 188.98 598.76 182.96 588.99 178.9 C 579.3 174.76 568.09 172.69 555.36 172.69 Z M 134.89 175.62 L 134.89 347.42 L 156.8 347.42 L 156.8 201.17 L 206.49 347.42 L 227 347.42 L 276.92 203.63 L 276.92 347.42 L 298.83 347.42 L 298.83 175.62 L 268.25 175.62 L 227.12 295.15 C 222.97 307.26 219.93 316.44 217.97 322.69 C 216.26 317.07 213.52 308.59 209.77 297.26 L 169.11 175.62 Z M 336.22 175.62 L 336.22 347.42 L 464.42 347.42 L 464.42 327.14 L 358.95 327.14 L 358.95 268.67 L 453.99 268.67 L 453.99 248.51 L 358.95 248.51 L 358.95 195.89 L 460.44 195.89 L 460.44 175.62 Z M 657.08 175.62 L 657.08 347.42 L 679.81 347.42 L 679.81 266.44 L 769.11 266.44 L 769.11 347.42 L 791.84 347.42 L 791.84 175.62 L 769.11 175.62 L 769.11 246.17 L 679.81 246.17 L 679.81 175.62 Z M 230.83 430.49 C 213.73 430.49 200.26 440.41 190.85 451.32 C 186.06 456.88 182 462.88 178.46 468.87 C 175.97 464.82 173.26 460.85 170.25 457.16 C 161.77 446.77 150.23 438.07 135.51 438.07 C 120.44 438.07 107.14 447.16 97.23 458.02 C 87.71 468.46 80.82 480.55 80.3 492.35 L 72.66 492.35 C 72.66 508.07 80.78 521.35 91.62 533.24 C 102.46 545.13 117.16 555.66 135.51 555.66 C 153.17 555.66 166.89 545.11 176.13 533.78 C 180.46 528.48 184.12 522.82 187.34 517.22 C 190.13 521.62 193.19 525.91 196.59 529.86 C 205.21 539.86 216.64 548.07 230.83 548.07 C 245.2 548.07 256.31 539.27 264.67 529.15 C 268.4 524.64 271.71 519.76 274.76 514.9 C 278.93 521.15 283.62 527.6 288.78 533.54 C 298.22 544.43 309.03 555.66 326.16 555.66 C 341.26 555.66 352.82 546.67 362.2 536.36 C 367.75 530.26 372.82 523.27 377.58 515.79 C 381.15 521.67 384.84 527.09 388.98 531.85 C 397.17 541.26 408 548.07 421.48 548.07 C 435.59 548.07 446.47 539.57 454.69 529.61 C 458.46 525.03 461.85 520.04 465.02 515.02 C 468.67 521.1 472.67 527.46 477.41 533.46 C 486.21 544.61 499.3 555.66 516.81 555.66 C 533.73 555.66 546.96 545.5 555.77 534.56 C 560.59 528.58 564.66 522.14 568.44 515.73 C 571.56 520.94 574.83 525.99 578.57 530.55 C 586.56 540.33 597.62 548.07 612.13 548.07 C 626.72 548.07 637.77 540.09 645.73 530.26 C 649.45 525.66 652.72 520.61 655.83 515.44 C 659.6 521.77 663.64 528.21 668.45 534.23 C 677.21 545.22 690.38 555.66 707.46 555.66 C 724.48 555.66 737.81 545.53 746.84 534.5 C 751.56 528.74 755.57 522.51 759.2 516.29 C 761.67 520.68 764.32 525.08 767.41 529.22 C 775.04 539.43 786.56 548.07 802.79 548.07 C 819.74 548.07 833.46 537.79 842.83 526.37 C 852.2 514.96 858.04 502.91 858.04 492.35 L 865.63 492.35 C 865.63 460.66 839.59 430.49 802.79 430.49 C 784.24 430.49 769.49 440.06 760.87 451.3 C 756.19 457.4 752.66 463.79 749.49 470 C 746.81 465.72 743.97 461.48 740.85 457.51 C 732.74 447.17 721.89 438.07 707.46 438.07 C 693.28 438.07 682.45 446.53 674.38 456.65 C 670.88 461.05 667.72 465.84 664.71 470.74 C 660.86 464.15 656.72 457.42 651.63 451.12 C 642.9 440.33 629.29 430.49 612.13 430.49 C 595.12 430.49 581.47 440.05 572.69 450.79 C 567.58 457.04 563.44 463.77 559.57 470.45 C 556.55 465.51 553.38 460.72 549.87 456.36 C 541.77 446.3 530.91 438.07 516.81 438.07 C 502.41 438.07 491.51 447.07 483.37 457.39 C 479.95 461.72 476.86 466.39 473.96 471.08 C 470.04 464.67 465.7 457.96 460.54 451.71 C 451.64 440.92 438.59 430.49 421.48 430.49 C 405.64 430.49 392.3 438.92 383.25 449.31 C 377.66 455.74 373.03 462.93 368.63 470.53 C 364.79 464.8 360.79 459.51 356.59 454.89 C 347.9 445.34 337.96 438.07 326.16 438.07 C 313.34 438.07 303.41 447.31 294.51 457.58 C 290.72 461.95 287.15 466.7 283.82 471.46 C 280.03 465.15 275.7 458.44 270.52 452.16 C 261.47 441.2 248.29 430.49 230.83 430.49 Z M 135.51 453.25 C 144.35 453.25 151.55 458.26 158.49 466.75 C 162.71 471.93 166.53 478.23 170.02 484.7 C 169.86 485.03 169.69 485.36 169.54 485.68 C 164.52 495.95 158.77 507.05 152.61 514.6 C 146.45 522.15 141.4 525.31 135.51 525.31 C 130.29 525.31 121.15 520.56 114.05 512.78 C 106.95 505 103.02 494.19 103.02 492.35 L 95.54 492.35 C 96.28 486.61 101.06 476.34 108.44 468.25 C 116.47 459.44 127 453.25 135.51 453.25 Z M 326.16 453.25 C 331.36 453.25 338.07 457.08 345.37 465.1 C 350.3 470.53 355.31 477.62 360.22 485.57 C 353.42 497.79 346.25 508.78 339.75 515.93 C 333.14 523.19 328.06 525.31 326.16 525.31 C 326.28 525.31 318.98 522.04 311.71 513.66 C 304.79 505.68 297.8 494.94 292.35 485.93 C 296.55 479.54 301.2 473.02 305.98 467.52 C 313.79 458.51 321.97 453.25 326.16 453.25 Z M 516.81 453.25 C 525.28 453.25 531.39 457.6 538.05 465.87 C 542.38 471.25 546.55 478.19 550.85 485.57 C 543.93 497.2 537.9 508.35 532.13 515.52 C 526.19 522.89 522.46 525.31 516.81 525.31 C 511.74 525.31 507.42 522.47 501.24 514.65 C 495.35 507.18 489.45 496.26 482.9 485.73 C 486.96 478.9 491 472.21 495.29 466.79 C 502.12 458.13 508.63 453.25 516.81 453.25 Z M 707.46 453.25 C 715.61 453.25 722.08 458.17 728.91 466.87 C 733.19 472.34 737.25 479.06 741.36 485.89 C 735.18 497.1 729.24 508.07 723.35 515.27 C 717.3 522.66 713.03 525.31 707.46 525.31 C 701.97 525.31 698.17 522.81 692.18 515.3 C 686.41 508.06 680.43 497 673.5 485.67 C 677.79 478.42 681.94 471.53 686.25 466.12 C 692.93 457.74 699.07 453.25 707.46 453.25 Z M 230.83 460.84 C 235.93 460.84 240.85 463.9 247.12 471.5 C 253.4 479.1 259.45 490.1 265.47 500.15 C 265.54 500.27 265.63 500.41 265.7 500.54 C 261.7 507.27 257.51 513.99 252.97 519.48 C 246 527.92 239.02 532.9 230.83 532.9 C 222.47 532.9 215.13 528.12 208.09 519.96 C 203.52 514.66 199.36 508.1 195.64 501.37 C 196.02 500.6 196.44 499.77 196.8 499.02 C 201.67 489.06 207.59 478.4 213.84 471.15 C 220.09 463.9 225.38 460.84 230.83 460.84 Z M 421.48 460.84 C 426.61 460.84 430.97 463.57 437.13 471.03 C 443.26 478.46 449.45 489.57 456.22 500.32 C 451.88 507.44 447.55 514.41 442.98 519.95 C 436.14 528.24 429.61 532.89 421.48 532.89 C 412.72 532.89 406.91 529.33 400.42 521.88 C 395.8 516.58 391.28 509.28 386.46 500.84 C 386.67 500.46 386.88 500.09 387.09 499.71 C 394.31 486.68 400.51 475.71 406.14 469.24 C 411.78 462.78 415.08 460.84 421.48 460.84 Z M 612.13 460.84 C 619.01 460.84 622.37 463.21 628.03 470.21 C 633.69 477.21 639.57 488.47 646.88 500.32 C 646.91 500.38 646.95 500.43 646.98 500.48 C 642.51 508.12 638.34 515.26 633.93 520.71 C 627.5 528.66 621.58 532.89 612.13 532.89 C 602.61 532.89 596.72 528.78 590.32 520.95 C 585.9 515.54 581.71 508.37 577.23 500.6 C 577.32 500.45 577.41 500.29 577.49 500.15 C 584.72 488.06 590.58 476.86 596.19 470 C 601.8 463.14 605.11 460.84 612.13 460.84 Z M 802.79 460.84 L 802.79 460.84 C 823.13 460.84 835.27 477.14 835.27 492.35 L 842.86 492.35 C 842.86 495.5 838.66 507.53 831.1 516.75 C 823.53 525.96 813.43 532.89 802.79 532.89 C 791.44 532.89 785.63 528.24 779.57 520.13 C 775.54 514.73 771.95 507.79 767.94 500.56 C 768.1 500.27 768.26 499.97 768.42 499.68 C 775.19 487.39 780 476.24 784.95 469.78 C 789.91 463.32 792.77 460.84 802.79 460.84 Z M 44.28 0 C 19.92 0 0 19.92 0 44.28 L 0 680.96 C 0 705.33 19.92 725.26 44.28 725.26 L 893.74 725.26 C 918.1 725.26 938.03 705.33 938.03 680.96 L 938.03 44.28 C 938.03 19.92 918.1 0 893.74 0 Z M 44.28 20 L 893.74 20 C 907.37 20 918.03 30.66 918.03 44.28 L 918.03 680.96 C 918.03 694.59 907.37 705.25 893.74 705.25 L 44.28 705.25 C 30.66 705.25 20 694.59 20 680.96 L 20 44.28 C 20 30.66 30.66 20 44.28 20 Z" fill="var(--icon-primary, #dae8fc)" stroke="none" stroke-width="0"/></svg>