<svg xmlns="http://www.w3.org/2000/svg" viewBox="0 0 248.19 191.89" width="248.19" height="191.89"><path d="M 143.43 163.31 L 143.43 166.88 L 123.4 166.88 Q 123.36 165.54 123.83 164.3 Q 124.6 162.25 126.27 160.27 Q 127.97 158.28 131.15 155.68 Q 136.09 151.63 137.83 149.27 Q 139.56 146.89 139.56 144.79 Q 139.56 142.57 137.97 141.07 Q 136.4 139.54 133.86 139.54 Q 131.17 139.54 129.56 141.15 Q 127.95 142.76 127.93 145.61 L 124.1 145.22 Q 124.49 140.94 127.06 138.71 Q 129.62 136.46 133.94 136.46 Q 138.3 136.46 140.84 138.87 Q 143.39 141.29 143.39 144.87 Q 143.39 146.69 142.64 148.44 Q 141.9 150.2 140.16 152.14 Q 138.45 154.09 134.44 157.48 Q 131.09 160.29 130.14 161.3 Q 129.19 162.29 128.57 163.31 Z M 100.87 159.88 L 104.44 159.55 Q 104.9 162.07 106.18 163.2 Q 107.46 164.34 109.47 164.34 Q 111.18 164.34 112.46 163.56 Q 113.77 162.77 114.59 161.47 Q 115.42 160.14 115.98 157.91 Q 116.54 155.68 116.54 153.36 Q 116.54 153.12 116.51 152.62 Q 115.4 154.4 113.46 155.51 Q 111.53 156.61 109.28 156.61 Q 105.52 156.61 102.91 153.88 Q 100.31 151.15 100.31 146.69 Q 100.31 142.08 103.02 139.27 Q 105.75 136.46 109.84 136.46 Q 112.79 136.46 115.23 138.05 Q 117.69 139.64 118.95 142.6 Q 120.24 145.53 120.24 151.11 Q 120.24 156.92 118.97 160.37 Q 117.71 163.8 115.21 165.6 Q 112.73 167.4 109.38 167.4 Q 105.83 167.4 103.58 165.44 Q 101.32 163.45 100.87 159.88 Z M 116.1 146.5 Q 116.1 143.3 114.39 141.42 Q 112.69 139.54 110.29 139.54 Q 107.81 139.54 105.97 141.56 Q 104.13 143.59 104.13 146.81 Q 104.13 149.71 105.87 151.52 Q 107.63 153.32 110.19 153.32 Q 112.77 153.32 114.43 151.52 Q 116.1 149.71 116.1 146.5 Z M 57.91 151.94 Q 57.91 146.56 59 143.3 Q 60.12 140.01 62.29 138.23 Q 64.48 136.46 67.79 136.46 Q 70.23 136.46 72.07 137.45 Q 73.91 138.42 75.11 140.28 Q 76.3 142.12 76.99 144.79 Q 77.67 147.43 77.67 151.94 Q 77.67 157.27 76.57 160.56 Q 75.48 163.82 73.29 165.62 Q 71.12 167.4 67.79 167.4 Q 63.41 167.4 60.9 164.26 Q 57.91 160.48 57.91 151.94 Z M 61.73 151.94 Q 61.73 159.4 63.47 161.88 Q 65.22 164.34 67.79 164.34 Q 70.35 164.34 72.09 161.86 Q 73.84 159.38 73.84 151.94 Q 73.84 144.46 72.09 142 Q 70.35 139.54 67.75 139.54 Q 65.18 139.54 63.65 141.71 Q 61.73 144.48 61.73 151.94 Z M 34.59 140.55 L 34.59 136.97 L 54.21 136.97 L 54.21 139.87 Q 51.31 142.95 48.46 148.05 Q 45.63 153.16 44.08 158.55 Q 42.96 162.36 42.65 166.88 L 38.83 166.88 Q 38.89 163.31 40.23 158.24 Q 41.58 153.18 44.08 148.49 Q 46.6 143.77 49.43 140.55 Z M 217.47 156.19 A 9.81 9.81 0 0 1 207.66 166 A 9.81 9.81 0 0 1 197.84 156.19 A 9.81 9.81 0 0 1 207.66 146.38 A 9.81 9.81 0 0 1 217.47 156.19 Z M 185.76 156.19 A 9.81 9.81 0 0 1 175.94 166 A 9.81 9.81 0 0 1 166.13 156.19 A 9.81 9.81 0 0 1 175.94 146.38 A 9.81 9.81 0 0 1 185.76 156.19 Z M 29.02 30.03 L 29.02 71.57 L 49.53 71.57 L 57.75 43.28 L 73.9 99.63 L 87.8 71.57 L 115.84 71.57 L 124.41 43.46 L 141.57 99.9 L 153.99 71.57 L 182.32 71.57 L 190.73 44.26 L 202 76.75 L 218.18 76.75 L 218.18 30.03 Z M 191.04 61.94 L 186.38 77.07 L 157.58 77.07 L 140.64 115.73 L 124.4 62.34 L 119.91 77.07 L 91.22 77.07 L 72.53 114.79 L 57.71 63.12 L 53.66 77.07 L 29.02 77.07 L 29.02 126.46 L 218.18 126.46 L 218.18 82.25 L 198.08 82.25 Z M 11.72 0 C 5.27 0 0 5.27 0 11.72 L 0 180.17 C 0 186.62 5.27 191.89 11.72 191.89 L 236.47 191.89 C 242.91 191.89 248.19 186.62 248.19 180.17 L 248.19 11.72 C 248.19 5.27 242.91 0 236.47 0 Z M 11.72 5.29 L 236.47 5.29 C 240.07 5.29 242.89 8.11 242.89 11.72 L 242.89 180.17 C 242.89 183.78 240.07 186.6 236.47 186.6 L 11.72 186.6 C 8.11 186.6 5.29 183.78 5.29 180.17 L 5.29 11.72 C 5.29 8.11 8.11 5.29 11.72 5.29 Z" fill="var(--icon-primary, #dae8fc)" stroke="none" stroke-width="0"/></svg>