<svg xmlns="http://www.w3.org/2000/svg" viewBox="0 0 721.85 725.26" width="721.85" height="725.26"><path d="M 476.36 162.46 C 447.79 162.46 421 170.12 397.91 183.48 A 170.41 170.41 0 0 1 414.19 191.87 C 431.4 183.48 450.57 178.47 470.85 177.7 C 459.16 185.71 447.5 196.39 437.29 207.88 A 170.41 170.41 0 0 1 440.68 210.88 C 452.44 197.67 466.21 185.54 479.34 177.62 C 497.97 178 515.71 181.96 531.89 188.84 C 532.05 207.39 530.63 224.91 528.41 241.88 C 503.28 230.78 477.8 224.93 453.22 223.08 A 170.41 170.41 0 0 1 457.54 228 C 480.57 230.2 504.27 235.97 527.64 246.43 C 522.62 281.19 513.03 312.77 498.79 340.54 A 170.41 170.41 0 0 1 498.26 351.09 C 515.09 321.16 526.23 286.6 531.92 248.31 C 544.86 254.46 557.63 262.32 570.16 271.86 C 555.88 313.13 530.81 347.98 495.31 373.45 A 170.41 170.41 0 0 1 493.59 380.17 C 531.74 354.2 558.65 317.85 573.91 274.7 C 587.78 285.74 601.22 299.15 614.06 315.19 C 571.45 339.12 538.48 368.1 514.61 397.16 C 506.45 396.92 498.3 396.68 488.95 395.63 A 170.41 170.41 0 0 1 487.36 400 C 496 400.99 503.44 401.13 511.13 401.44 C 494.67 422.24 482.62 442.86 475.29 461.33 C 466.45 461.27 457.8 460.4 449.42 458.79 A 170.41 170.41 0 0 1 435.83 471.17 C 448.76 474.62 462.35 476.46 476.36 476.46 C 562.97 476.46 633.35 406.09 633.35 319.47 C 633.35 232.85 562.97 162.46 476.36 162.46 Z M 327.5 186.21 C 243.27 186.21 174.45 255.02 174.45 339.26 C 174.45 368.74 182.89 396.32 197.46 419.73 L 80.98 535.28 C 70.55 545.63 70.48 562.36 80.83 572.79 L 92.54 584.59 C 102.89 595.02 119.61 595.09 130.04 584.74 L 246.65 469.06 C 270.14 483.77 297.86 492.3 327.5 492.3 C 411.73 492.3 480.55 423.49 480.55 339.26 C 480.55 255.02 411.73 186.21 327.5 186.21 Z M 536.45 190.88 C 553.66 198.92 568.99 210.32 581.59 224.23 C 579.54 239.28 576.24 253.71 571.79 267.47 C 558.99 257.84 545.92 249.95 532.68 243.76 C 534.96 226.81 536.49 209.34 536.45 190.88 Z M 585.5 228.75 C 604.63 251.75 616.61 280.89 618.08 312.82 C 618.05 312.83 618.04 312.85 618.01 312.86 C 604.48 295.89 590.25 281.83 575.54 270.3 C 579.94 257.03 583.3 243.17 585.5 228.75 Z M 327.5 235.34 C 385.18 235.34 431.41 281.58 431.41 339.26 C 431.41 396.94 385.18 443.16 327.5 443.16 C 269.82 443.16 223.58 396.94 223.58 339.26 C 223.58 281.58 269.82 235.34 327.5 235.34 Z M 331.92 251.7 L 331.92 275.28 L 268.5 275.28 L 268.53 302.94 A 12.86 12.86 0 0 0 256.03 315.79 A 12.86 12.86 0 0 0 268.55 328.63 L 268.57 346.37 L 331.92 346.37 L 331.92 386.83 A 12.86 12.86 0 0 0 322.08 398.3 L 262.13 398.3 C 263.3 399.6 264.51 400.86 265.76 402.08 L 322.34 402.08 A 12.86 12.86 0 0 0 334.89 412.19 A 12.86 12.86 0 0 0 347.44 402.08 L 367.49 402.08 L 367.49 417.62 C 368.77 416.98 370.03 416.3 371.27 415.61 L 371.27 402.08 L 389.24 402.08 C 390.49 400.86 391.7 399.6 392.87 398.3 L 371.27 398.3 L 371.27 355.09 A 12.86 12.86 0 0 0 380.02 346.37 L 414.89 346.37 C 414.99 345.11 415.06 343.85 415.1 342.59 L 380.54 342.59 A 12.86 12.86 0 0 0 367.69 329.88 A 12.86 12.86 0 0 0 354.84 342.59 L 335.7 342.59 L 335.7 310.92 A 12.86 12.86 0 0 0 347.53 301.62 L 406.99 301.62 C 406.4 300.34 405.78 299.08 405.12 297.84 L 348.03 297.84 A 12.86 12.86 0 0 0 335.18 285.22 A 12.86 12.86 0 0 0 322.32 298.08 A 12.86 12.86 0 0 0 331.92 310.5 L 331.92 342.59 L 272.34 342.59 L 272.33 328.18 A 12.86 12.86 0 0 0 281.75 315.79 A 12.86 12.86 0 0 0 272.3 303.4 L 272.28 279.06 L 335.7 279.06 L 335.7 251.96 C 334.45 251.85 333.19 251.76 331.92 251.7 Z M 617.01 318.71 C 617.41 319.23 617.82 319.69 618.23 320.16 C 618.12 343.23 612.53 364.99 602.68 384.19 C 577.21 391.33 553.43 397.81 520.19 397.54 C 543.67 369.59 575.79 341.74 617.01 318.71 Z M 335.7 346.37 L 355.36 346.37 A 12.86 12.86 0 0 0 367.49 355.59 L 367.49 398.3 L 347.7 398.3 A 12.86 12.86 0 0 0 335.7 386.51 Z M 599.69 389.71 C 575.88 431.48 531.46 459.94 480.2 461.29 C 487.7 443.01 499.98 422.5 516.72 401.82 C 550.36 402.5 574.84 396.56 599.69 389.71 Z M 44.28 20 L 677.57 20 C 691.2 20 701.86 30.66 701.86 44.28 L 701.86 680.96 C 701.86 694.59 691.2 705.25 677.57 705.25 L 44.28 705.25 C 30.66 705.25 20 694.59 20 680.96 L 20 44.28 C 20 30.66 30.66 20 44.28 20 Z M 44.28 0 C 19.92 0 0 19.92 0 44.28 L 0 680.96 C 0 705.33 19.92 725.26 44.28 725.26 L 677.57 725.26 C 701.93 725.26 721.85 705.33 721.85 680.96 L 721.85 44.28 C 721.85 19.92 701.93 0 677.57 0 Z" fill="var(--icon-primary, #dae8fc)" stroke="none" stroke-width="0"/></svg>