<svg xmlns="http://www.w3.org/2000/svg" viewBox="0 0 721.85 725.26" width="721.85" height="725.26"><path d="M 382.14 103.68 A 52.42 52.42 0 0 0 329.72 156.1 A 52.42 52.42 0 0 0 354.56 200.61 C 335.22 223.5 324.3 253.66 324.3 283.49 L 324.3 334.42 L 361.75 334.42 L 226.35 484.18 C 220.62 469.25 212.22 455.32 202.55 443.12 A 52.42 52.42 0 0 0 228.91 397.71 A 52.42 52.42 0 0 0 176.49 345.29 A 52.42 52.42 0 0 0 124.07 397.71 A 52.42 52.42 0 0 0 148.92 442.21 C 129.58 465.11 118.65 495.27 118.65 525.1 L 118.65 576.03 L 234.33 576.03 L 234.33 525.1 C 234.33 519.03 233.77 513.01 232.74 507.08 L 494.91 531.66 C 491.25 543.74 489.31 556.32 489.31 568.85 L 489.31 619.78 L 604.99 619.78 L 604.99 568.85 C 604.99 538.68 591.33 509.73 573.21 486.87 A 52.42 52.42 0 0 0 599.57 441.46 A 52.42 52.42 0 0 0 547.15 389.04 A 52.42 52.42 0 0 0 494.73 441.46 A 52.42 52.42 0 0 0 519.58 485.97 C 512.75 494.05 506.98 503.04 502.36 512.59 L 388.61 334.42 L 439.98 334.42 L 439.98 283.49 C 439.98 253.32 426.32 224.37 408.2 201.51 A 52.42 52.42 0 0 0 434.56 156.1 A 52.42 52.42 0 0 0 382.14 103.68 Z M 374.48 334.42 L 377.39 334.42 L 497.41 522.41 L 230.63 497.39 C 230.37 496.41 230.09 495.43 229.81 494.45 Z M 44.28 20 L 677.57 20 C 691.2 20 701.86 30.66 701.86 44.28 L 701.86 680.96 C 701.86 694.59 691.2 705.25 677.57 705.25 L 44.28 705.25 C 30.66 705.25 20 694.59 20 680.96 L 20 44.28 C 20 30.66 30.66 20 44.28 20 Z M 44.28 0 C 19.92 0 0 19.92 0 44.28 L 0 680.96 C 0 705.33 19.92 725.26 44.28 725.26 L 677.57 725.26 C 701.93 725.26 721.85 705.33 721.85 680.96 L 721.85 44.28 C 721.85 19.92 701.93 0 677.57 0 Z" fill="var(--icon-primary, #dae8fc)" stroke="none" stroke-width="0"/></svg>