<svg xmlns="http://www.w3.org/2000/svg" viewBox="0 0 938.03 725.26" width="938.03" height="725.26"><path d="M 293.08 40.66 L 293.08 688.44 L 310.08 688.44 L 310.08 651.65 L 890.94 651.65 L 890.94 634.64 L 726.55 634.64 L 726.55 570.58 L 890.94 570.58 L 890.94 553.57 L 839.32 553.57 L 839.32 489.5 L 890.94 489.5 L 890.94 472.49 L 310.08 472.49 L 310.08 40.66 Z M 624.34 83.09 C 548.24 83.09 486.19 145.14 486.19 221.23 C 486.19 251.09 495.75 278.78 511.95 301.41 L 435.69 377.21 L 467.67 409.38 L 544 333.51 C 566.66 349.78 594.41 359.38 624.34 359.38 C 700.43 359.38 762.49 297.33 762.49 221.23 C 762.49 145.14 700.43 83.09 624.34 83.09 Z M 624.34 117.11 C 682.05 117.11 728.47 163.52 728.47 221.23 C 728.47 278.95 682.05 325.36 624.34 325.36 C 566.63 325.36 520.21 278.95 520.21 221.23 C 520.21 163.52 566.63 117.11 624.34 117.11 Z M 62.07 146.32 L 114.63 220.08 L 59.78 298.43 L 106.9 298.43 L 138.12 251.3 L 169.06 298.43 L 218.47 298.43 L 162.19 218.36 L 213.75 146.32 L 166.48 146.32 L 138.12 188.14 L 111.2 146.32 Z M 220.34 419.65 A 18.9 18.9 0 0 0 205.62 425.73 L 90.14 547.51 L 89.86 495.07 A 18.9 18.9 0 1 0 52.06 495.28 L 52.6 594.73 A 18.9 18.9 0 0 0 85.21 607.63 L 233.04 451.73 A 18.9 18.9 0 0 0 220.34 419.65 Z M 310.08 489.5 L 370.85 489.5 L 370.85 553.57 L 310.08 553.57 Z M 387.86 489.5 L 597.41 489.5 L 597.41 553.57 L 387.86 553.57 Z M 614.42 489.5 L 822.31 489.5 L 822.31 553.57 L 614.42 553.57 Z M 310.08 570.58 L 485.27 570.58 L 485.27 634.64 L 310.08 634.64 Z M 502.28 570.58 L 709.54 570.58 L 709.54 634.64 L 502.28 634.64 Z M 44.28 0 C 19.92 0 0 19.92 0 44.28 L 0 680.96 C 0 705.33 19.92 725.26 44.28 725.26 L 893.74 725.26 C 918.1 725.26 938.03 705.33 938.03 680.96 L 938.03 44.28 C 938.03 19.92 918.1 0 893.74 0 Z M 44.28 20 L 893.74 20 C 907.37 20 918.03 30.66 918.03 44.28 L 918.03 680.96 C 918.03 694.59 907.37 705.25 893.74 705.25 L 44.28 705.25 C 30.66 705.25 20 694.59 20 680.96 L 20 44.28 C 20 30.66 30.66 20 44.28 20 Z" fill="var(--icon-primary, #dae8fc)" stroke="none" stroke-width="0"/></svg>