<svg xmlns="http://www.w3.org/2000/svg" viewBox="0 0 721.85 725.26" width="721.85" height="725.26"><path d="M 387.39 156.19 C 288.93 156.19 208.71 236.42 208.71 334.88 C 208.71 376.6 223.11 415.04 247.2 445.5 L 139.1 553.87 L 181.91 596.57 L 292.21 486.01 C 319.79 503.45 352.44 513.57 387.39 513.57 C 485.86 513.57 566.09 433.34 566.09 334.88 C 566.09 236.42 485.86 156.19 387.39 156.19 Z M 387.39 193.99 C 465.43 193.99 528.29 256.84 528.29 334.88 C 528.29 412.92 465.43 475.78 387.39 475.78 C 309.35 475.78 246.5 412.92 246.5 334.88 C 246.5 256.84 309.35 193.99 387.39 193.99 Z M 305.42 253.7 L 305.42 264.09 L 305.42 413.7 L 467.34 413.7 L 467.34 253.7 Z M 326.21 274.49 L 446.55 274.49 L 446.55 392.92 L 326.21 392.92 Z M 44.28 0 C 19.92 0 0 19.92 0 44.28 L 0 680.96 C 0 705.33 19.92 725.26 44.28 725.26 L 677.57 725.26 C 701.93 725.26 721.85 705.33 721.85 680.96 L 721.85 44.28 C 721.85 19.92 701.93 0 677.57 0 Z M 44.28 20 L 677.57 20 C 691.2 20 701.86 30.66 701.86 44.28 L 701.86 680.96 C 701.86 694.59 691.2 705.25 677.57 705.25 L 44.28 705.25 C 30.66 705.25 20 694.59 20 680.96 L 20 44.28 C 20 30.66 30.66 20 44.28 20 Z" fill="var(--icon-primary, #dae8fc)" stroke="none" stroke-width="0"/></svg>