<svg xmlns="http://www.w3.org/2000/svg" viewBox="0 0 938.03 725.26" width="938.03" height="725.26"><path d="M 394.49 78.08 C 393.27 78.08 392.04 78.09 390.81 78.12 C 351.5 78.84 310.23 89.42 270.71 114.48 A 15.12 15.12 0 0 0 269.96 114.99 C 194.82 169.2 160.82 234.84 148.66 308.39 C 98.24 329.49 70.08 358.77 55.9 400.13 A 15.12 15.12 0 0 0 55.35 402.23 C 46.96 446.63 52.88 501.55 98.02 535.33 A 15.12 15.12 0 0 0 98.19 535.46 C 122.3 552.96 148.02 561.49 175.33 565.86 L 154.46 586.78 L 198.49 630.7 L 244.13 584.94 C 280.35 618.26 324.82 645.42 392.95 645.42 C 474.21 645.42 529.26 609.76 576.64 561.08 C 649.06 572.67 721.87 580.09 786.47 562.47 A 15.12 15.12 0 0 0 787.02 562.31 C 849.88 542.57 892.61 493.47 890.01 425.99 A 15.12 15.12 0 0 0 889.9 424.64 C 882.99 370.78 841.91 325.07 787.86 308.35 C 777.43 279.4 761.39 250.99 730.09 226.46 A 15.12 15.12 0 0 0 729.46 225.99 C 694.56 201.5 654.36 193.47 607.42 205.06 C 587.53 168.41 557.59 132 500.08 101.29 A 15.12 15.12 0 0 0 499.19 100.84 C 468.48 86.96 432.46 77.96 394.49 78.08 Z M 398.23 108.16 C 429.95 108.63 460.05 116.43 486.22 128.19 C 544.01 159.16 568.53 192.62 586.46 229.23 A 15.12 15.12 0 0 0 604.52 237.02 C 649.97 222.88 680.25 228.55 711.77 250.56 C 740.39 273.12 752.72 296.85 761.96 325.13 A 15.12 15.12 0 0 0 772.67 335.1 C 818.6 346.56 854.01 385.3 859.78 427.86 C 861.59 482.3 831.56 516.52 778.24 533.36 C 719.42 549.32 647.48 542.21 573.75 530.11 A 15.12 15.12 0 0 0 560.3 534.66 C 514.27 583.53 468.61 615.19 392.95 615.19 C 333.05 615.19 297.58 593.92 265.21 563.81 L 311.92 516.99 C 340.29 534.93 373.86 545.34 409.81 545.34 C 511.07 545.34 593.58 462.83 593.58 361.57 C 593.58 260.31 511.07 177.81 409.81 177.81 C 308.55 177.81 226.05 260.31 226.05 361.57 C 226.05 404.47 240.87 444.01 265.64 475.33 L 202.38 538.74 C 169.04 536.02 141.46 529.46 116.04 511.03 C 82.8 486.08 78.12 446.36 84.95 408.95 C 97.68 372.51 116.87 352.01 167.49 332.8 A 15.12 15.12 0 0 0 177.1 320.8 C 187.19 249.9 215.5 191.74 287.24 139.83 C 321.89 117.94 357.71 108.73 391.86 108.17 C 393.99 108.13 396.11 108.13 398.23 108.16 Z M 409.81 216.68 C 490.06 216.68 554.71 281.32 554.71 361.57 C 554.71 441.82 490.06 506.47 409.81 506.47 C 329.56 506.47 264.92 441.82 264.92 361.57 C 264.92 281.32 329.56 216.68 409.81 216.68 Z M 325.51 278.09 L 325.51 288.78 L 325.51 442.63 L 492.03 442.63 L 492.03 278.09 Z M 346.89 299.46 L 470.65 299.46 L 470.65 421.25 L 346.89 421.25 Z M 44.28 20 L 893.74 20 C 907.37 20 918.03 30.66 918.03 44.28 L 918.03 680.96 C 918.03 694.59 907.37 705.25 893.74 705.25 L 44.28 705.25 C 30.66 705.25 20 694.59 20 680.96 L 20 44.28 C 20 30.66 30.66 20 44.28 20 Z M 44.28 0 C 19.92 0 0 19.92 0 44.28 L 0 680.96 C 0 705.33 19.92 725.26 44.28 725.26 L 893.74 725.26 C 918.1 725.26 938.03 705.33 938.03 680.96 L 938.03 44.28 C 938.03 19.92 918.1 0 893.74 0 Z" fill="var(--icon-primary, #dae8fc)" stroke="none" stroke-width="0"/></svg>