<svg xmlns="http://www.w3.org/2000/svg" viewBox="0 0 196.97 196.97" width="196.97" height="196.97"><path d="M 102.26 160.58 C 92.51 160.58 86.15 163.5 81.56 166.07 C 76.96 168.64 74.48 170.41 70.04 170.41 C 64.5 170.41 61.62 168.61 56.92 166.15 C 52.21 163.69 45.95 160.87 36.3 160.87 C 31.86 160.87 28.11 161.45 24.89 162.33 L 32.42 170.03 C 33.61 169.93 34.9 169.87 36.3 169.87 C 44.32 169.87 48.31 171.81 52.75 174.13 C 57.19 176.45 62.34 179.41 70.04 179.41 C 77.05 179.41 81.76 176.27 85.95 173.93 C 90.14 171.58 94.17 169.58 102.26 169.58 C 108.17 169.58 113.09 171.73 118.44 174.26 C 123.79 176.78 129.58 179.79 136.75 179.79 C 143.84 179.79 148.63 176.87 152.89 174.65 C 155.92 173.07 158.84 171.66 163.17 170.97 L 171.52 161.58 C 170.8 161.54 170.07 161.52 169.31 161.52 C 159.66 161.52 153.36 164.25 148.73 166.67 C 144.11 169.08 141.49 170.79 136.75 170.79 C 132.19 170.79 127.74 168.69 122.28 166.12 C 116.82 163.54 110.36 160.58 102.26 160.58 Z M 102.26 131.47 C 92.51 131.47 86.15 134.38 81.56 136.95 C 76.96 139.52 74.48 141.3 70.04 141.3 C 64.5 141.3 61.62 139.49 56.92 137.03 C 52.21 134.58 45.95 131.75 36.3 131.75 C 26.59 131.75 20.14 134.55 15.46 137.08 C 13.46 138.17 11.85 139.12 10.35 139.86 L 14.67 147.74 C 16.48 146.85 18.15 145.87 19.75 145 C 23.96 142.72 28.19 140.75 36.3 140.75 C 44.32 140.75 48.31 142.7 52.75 145.01 C 57.19 147.33 62.34 150.3 70.04 150.3 C 77.05 150.3 81.76 147.15 85.95 144.81 C 90.14 142.47 94.17 140.47 102.26 140.47 C 108.17 140.47 113.09 142.62 118.44 145.14 C 123.79 147.67 129.58 150.67 136.75 150.67 C 143.84 150.67 148.63 147.75 152.89 145.53 C 157.16 143.31 161.22 141.41 169.31 141.41 C 174.78 141.41 178.36 142.66 181.53 144.05 C 182.3 144.39 183.05 144.77 183.8 145.15 L 187.83 136.99 C 187.04 136.65 186.15 136.25 185.15 135.81 C 181.43 134.18 176.25 132.41 169.31 132.41 C 159.66 132.41 153.36 135.14 148.73 137.55 C 144.11 139.96 141.49 141.67 136.75 141.67 C 132.19 141.67 127.74 139.58 122.28 137 C 116.82 134.42 110.36 131.47 102.26 131.47 Z M 102.26 102.35 C 92.51 102.35 86.15 105.27 81.56 107.84 C 76.96 110.41 74.48 112.18 70.04 112.18 C 64.5 112.18 61.62 110.38 56.92 107.92 C 52.21 105.46 45.95 102.64 36.3 102.64 C 26.59 102.64 20.14 105.43 15.46 107.97 C 10.79 110.5 8.28 112.29 4.27 112.37 C 3 112.37 2.85 112.22 2.14 112.02 L 4.27 121.37 C 10.94 121.24 15.54 118.16 19.75 115.88 C 23.96 113.6 28.19 111.64 36.3 111.64 C 44.32 111.64 48.31 113.58 52.75 115.9 C 57.19 118.22 62.34 121.18 70.04 121.18 C 77.05 121.18 81.76 118.04 85.95 115.7 C 90.14 113.35 94.17 111.35 102.26 111.35 C 108.17 111.35 113.09 113.5 118.44 116.03 C 123.79 118.55 129.58 121.56 136.75 121.56 C 143.84 121.56 148.63 118.64 152.89 116.42 C 157.16 114.19 161.22 112.29 169.31 112.29 C 174.78 112.29 178.36 113.55 181.53 114.94 C 184.7 116.33 187.44 118.35 191.74 118.35 C 193.23 118.35 193.33 118.28 194.08 118.09 L 195.53 108.79 C 194.3 109.18 194.19 109.47 191.74 109.35 C 191.15 109.35 188.87 108.33 185.15 106.7 C 181.43 105.06 176.25 103.29 169.31 103.29 C 159.66 103.29 153.36 106.02 148.73 108.44 C 144.11 110.85 141.49 112.56 136.75 112.56 C 132.19 112.56 127.74 110.46 122.28 107.89 C 116.82 105.31 110.36 102.35 102.26 102.35 Z M 102.26 73.24 C 92.51 73.24 86.15 76.15 81.56 78.72 C 76.96 81.29 74.48 83.07 70.04 83.07 C 64.5 83.07 61.62 81.26 56.92 78.8 C 52.21 76.35 45.95 73.52 36.3 73.52 C 26.59 73.52 20.14 76.32 15.46 78.85 C 10.79 81.39 8.28 83.18 4.27 83.26 C 3.21 83.26 2.74 83.04 2.46 82.84 L 1.57 91.54 C 2.31 92.1 3.1 92.25 4.27 92.25 C 10.94 92.12 15.54 89.05 19.75 86.77 C 23.96 84.49 28.19 82.52 36.3 82.52 C 44.32 82.52 48.31 84.47 52.75 86.78 C 57.19 89.1 62.34 92.07 70.04 92.07 C 77.05 92.07 81.76 88.92 85.95 86.58 C 90.14 84.24 94.17 82.24 102.26 82.24 C 108.17 82.24 113.09 84.39 118.44 86.91 C 123.79 89.44 129.58 92.44 136.75 92.44 C 143.84 92.44 148.63 89.52 152.89 87.3 C 157.16 85.08 161.22 83.18 169.31 83.18 C 174.78 83.18 178.36 84.43 181.53 85.82 C 184.7 87.22 187.44 89.23 191.74 89.23 C 193.39 89.23 194.36 89.05 195.49 88.44 L 194.22 80.04 C 193.54 80.19 192.68 80.3 191.74 80.23 C 191.15 80.23 188.87 79.22 185.15 77.58 C 181.43 75.95 176.25 74.18 169.31 74.18 C 159.66 74.18 153.36 76.91 148.73 79.32 C 144.11 81.73 141.49 83.44 136.75 83.44 C 132.19 83.44 127.74 81.35 122.28 78.77 C 116.82 76.19 110.36 73.24 102.26 73.24 Z M 102.26 44.12 C 92.51 44.12 86.15 47.04 81.56 49.61 C 76.96 52.18 74.48 53.95 70.04 53.95 C 64.5 53.95 61.62 52.14 56.92 49.69 C 52.21 47.23 45.95 44.41 36.3 44.41 C 26.59 44.41 20.14 47.2 15.46 49.74 C 14.7 50.15 13.99 50.55 13.32 50.92 L 8.1 62.73 C 12.79 61.79 16.4 59.47 19.75 57.65 C 23.96 55.37 28.19 53.41 36.3 53.41 C 44.32 53.41 48.31 55.35 52.75 57.67 C 57.19 59.99 62.34 62.95 70.04 62.95 C 77.05 62.95 81.76 59.81 85.95 57.47 C 90.14 55.12 94.17 53.12 102.26 53.12 C 108.17 53.12 113.09 55.27 118.44 57.8 C 123.79 60.32 129.58 63.33 136.75 63.33 C 143.84 63.33 148.63 60.41 152.89 58.19 C 157.16 55.96 161.22 54.06 169.31 54.06 C 174.78 54.06 178.36 55.32 181.53 56.71 C 183.45 57.56 185.22 58.63 187.28 59.35 L 180.73 46.8 C 177.62 45.82 173.84 45.06 169.31 45.06 C 159.66 45.06 153.36 47.79 148.73 50.21 C 144.11 52.62 141.49 54.33 136.75 54.33 C 132.19 54.33 127.74 52.23 122.28 49.66 C 116.82 47.08 110.36 44.12 102.26 44.12 Z M 154.2 18.6 C 152.13 19.38 150.33 20.26 148.73 21.09 C 144.11 23.5 141.49 25.21 136.75 25.21 C 132.19 25.21 127.74 23.12 122.28 20.54 C 116.82 17.96 110.36 15.01 102.26 15.01 C 92.51 15.01 86.15 17.92 81.56 20.49 C 76.96 23.06 74.48 24.84 70.04 24.84 C 64.5 24.84 61.62 23.03 56.92 20.57 C 53.88 18.99 50.2 17.25 45.39 16.22 L 36.3 24.29 C 44.32 24.29 48.31 26.24 52.75 28.55 C 57.19 30.87 62.34 33.84 70.04 33.84 C 77.05 33.84 81.76 30.69 85.95 28.35 C 90.14 26.01 94.17 24.01 102.26 24.01 C 108.17 24.01 113.09 26.16 118.44 28.68 C 123.79 31.21 129.58 34.21 136.75 34.21 C 143.84 34.21 148.63 31.29 152.89 29.07 C 155.76 27.57 158.54 26.22 162.52 25.5 Z" fill="var(--icon-primary, #dae8fc)" stroke="none" stroke-width="0"/><path d="M 102.26 160.58 C 92.51 160.58 86.15 163.5 81.56 166.07 C 76.96 168.64 74.48 170.41 70.04 170.41 C 64.5 170.41 61.62 168.61 56.92 166.15 C 52.21 163.69 45.95 160.87 36.3 160.87 C 31.86 160.87 28.11 161.45 24.89 162.33 L 32.42 170.03 C 33.61 169.93 34.9 169.87 36.3 169.87 C 44.32 169.87 48.31 171.81 52.75 174.13 C 57.19 176.45 62.34 179.41 70.04 179.41 C 77.05 179.41 81.76 176.27 85.95 173.93 C 90.14 171.58 94.17 169.58 102.26 169.58 C 108.17 169.58 113.09 171.73 118.44 174.26 C 123.79 176.78 129.58 179.79 136.75 179.79 C 143.84 179.79 148.63 176.87 152.89 174.65 C 155.92 173.07 158.84 171.66 163.17 170.97 L 171.52 161.58 C 170.8 161.54 170.07 161.52 169.31 161.52 C 159.66 161.52 153.36 164.25 148.73 166.67 C 144.11 169.08 141.49 170.79 136.75 170.79 C 132.19 170.79 127.74 168.69 122.28 166.12 C 116.82 163.54 110.36 160.58 102.26 160.58 Z M 102.26 131.47 C 92.51 131.47 86.15 134.38 81.56 136.95 C 76.96 139.52 74.48 141.3 70.04 141.3 C 64.5 141.3 61.62 139.49 56.92 137.03 C 52.21 134.58 45.95 131.75 36.3 131.75 C 26.59 131.75 20.14 134.55 15.46 137.08 C 13.46 138.17 11.85 139.12 10.35 139.86 L 14.67 147.74 C 16.48 146.85 18.15 145.87 19.75 145 C 23.96 142.72 28.19 140.75 36.3 140.75 C 44.32 140.75 48.31 142.7 52.75 145.01 C 57.19 147.33 62.34 150.3 70.04 150.3 C 77.05 150.3 81.76 147.15 85.95 144.81 C 90.14 142.47 94.17 140.47 102.26 140.47 C 108.17 140.47 113.09 142.62 118.44 145.14 C 123.79 147.67 129.58 150.67 136.75 150.67 C 143.84 150.67 148.63 147.75 152.89 145.53 C 157.16 143.31 161.22 141.41 169.31 141.41 C 174.78 141.41 178.36 142.66 181.53 144.05 C 182.3 144.39 183.05 144.77 183.8 145.15 L 187.83 136.99 C 187.04 136.65 186.15 136.25 185.15 135.81 C 181.43 134.18 176.25 132.41 169.31 132.41 C 159.66 132.41 153.36 135.14 148.73 137.55 C 144.11 139.96 141.49 141.67 136.75 141.67 C 132.19 141.67 127.74 139.58 122.28 137 C 116.82 134.42 110.36 131.47 102.26 131.47 Z M 102.26 102.35 C 92.51 102.35 86.15 105.27 81.56 107.84 C 76.96 110.41 74.48 112.18 70.04 112.18 C 64.5 112.18 61.62 110.38 56.92 107.92 C 52.21 105.46 45.95 102.64 36.3 102.64 C 26.59 102.64 20.14 105.43 15.46 107.97 C 10.79 110.5 8.28 112.29 4.27 112.37 C 3 112.37 2.85 112.22 2.14 112.02 L 4.27 121.37 C 10.94 121.24 15.54 118.16 19.75 115.88 C 23.96 113.6 28.19 111.64 36.3 111.64 C 44.32 111.64 48.31 113.58 52.75 115.9 C 57.19 118.22 62.34 121.18 70.04 121.18 C 77.05 121.18 81.76 118.04 85.95 115.7 C 90.14 113.35 94.17 111.35 102.26 111.35 C 108.17 111.35 113.09 113.5 118.44 116.03 C 123.79 118.55 129.58 121.56 136.75 121.56 C 143.84 121.56 148.63 118.64 152.89 116.42 C 157.16 114.19 161.22 112.29 169.31 112.29 C 174.78 112.29 178.36 113.55 181.53 114.94 C 184.7 116.33 187.44 118.35 191.74 118.35 C 193.23 118.35 193.33 118.28 194.08 118.09 L 195.53 108.79 C 194.3 109.18 194.19 109.47 191.74 109.35 C 191.15 109.35 188.87 108.33 185.15 106.7 C 181.43 105.06 176.25 103.29 169.31 103.29 C 159.66 103.29 153.36 106.02 148.73 108.44 C 144.11 110.85 141.49 112.56 136.75 112.56 C 132.19 112.56 127.74 110.46 122.28 107.89 C 116.82 105.31 110.36 102.35 102.26 102.35 Z M 102.26 73.24 C 92.51 73.24 86.15 76.15 81.56 78.72 C 76.96 81.29 74.48 83.07 70.04 83.07 C 64.5 83.07 61.62 81.26 56.92 78.8 C 52.21 76.35 45.95 73.52 36.3 73.52 C 26.59 73.52 20.14 76.32 15.46 78.85 C 10.79 81.39 8.28 83.18 4.27 83.26 C 3.21 83.26 2.74 83.04 2.46 82.84 L 1.57 91.54 C 2.31 92.1 3.1 92.25 4.27 92.25 C 10.94 92.12 15.54 89.05 19.75 86.77 C 23.96 84.49 28.19 82.52 36.3 82.52 C 44.32 82.52 48.31 84.47 52.75 86.78 C 57.19 89.1 62.34 92.07 70.04 92.07 C 77.05 92.07 81.76 88.92 85.95 86.58 C 90.14 84.24 94.17 82.24 102.26 82.24 C 108.17 82.24 113.09 84.39 118.44 86.91 C 123.79 89.44 129.58 92.44 136.75 92.44 C 143.84 92.44 148.63 89.52 152.89 87.3 C 157.16 85.08 161.22 83.18 169.31 83.18 C 174.78 83.18 178.36 84.43 181.53 85.82 C 184.7 87.22 187.44 89.23 191.74 89.23 C 193.39 89.23 194.36 89.05 195.49 88.44 L 194.22 80.04 C 193.54 80.19 192.68 80.3 191.74 80.23 C 191.15 80.23 188.87 79.22 185.15 77.58 C 181.43 75.95 176.25 74.18 169.31 74.18 C 159.66 74.18 153.36 76.91 148.73 79.32 C 144.11 81.73 141.49 83.44 136.75 83.44 C 132.19 83.44 127.74 81.35 122.28 78.77 C 116.82 76.19 110.36 73.24 102.26 73.24 Z M 102.26 44.12 C 92.51 44.12 86.15 47.04 81.56 49.61 C 76.96 52.18 74.48 53.95 70.04 53.95 C 64.5 53.95 61.62 52.14 56.92 49.69 C 52.21 47.23 45.95 44.41 36.3 44.41 C 26.59 44.41 20.14 47.2 15.46 49.74 C 14.7 50.15 13.99 50.55 13.32 50.92 L 8.1 62.73 C 12.79 61.79 16.4 59.47 19.75 57.65 C 23.96 55.37 28.19 53.41 36.3 53.41 C 44.32 53.41 48.31 55.35 52.75 57.67 C 57.19 59.99 62.34 62.95 70.04 62.95 C 77.05 62.95 81.76 59.81 85.95 57.47 C 90.14 55.12 94.17 53.12 102.26 53.12 C 108.17 53.12 113.09 55.27 118.44 57.8 C 123.79 60.32 129.58 63.33 136.75 63.33 C 143.84 63.33 148.63 60.41 152.89 58.19 C 157.16 55.96 161.22 54.06 169.31 54.06 C 174.78 54.06 178.36 55.32 181.53 56.71 C 183.45 57.56 185.22 58.63 187.28 59.35 L 180.73 46.8 C 177.62 45.82 173.84 45.06 169.31 45.06 C 159.66 45.06 153.36 47.79 148.73 50.21 C 144.11 52.62 141.49 54.33 136.75 54.33 C 132.19 54.33 127.74 52.23 122.28 49.66 C 116.82 47.08 110.36 44.12 102.26 44.12 Z M 154.2 18.6 C 152.13 19.38 150.33 20.26 148.73 21.09 C 144.11 23.5 141.49 25.21 136.75 25.21 C 132.19 25.21 127.74 23.12 122.28 20.54 C 116.82 17.96 110.36 15.01 102.26 15.01 C 92.51 15.01 86.15 17.92 81.56 20.49 C 76.96 23.06 74.48 24.84 70.04 24.84 C 64.5 24.84 61.62 23.03 56.92 20.57 C 53.88 18.99 50.2 17.25 45.39 16.22 L 36.3 24.29 C 44.32 24.29 48.31 26.24 52.75 28.55 C 57.19 30.87 62.34 33.84 70.04 33.84 C 77.05 33.84 81.76 30.69 85.95 28.35 C 90.14 26.01 94.17 24.01 102.26 24.01 C 108.17 24.01 113.09 26.16 118.44 28.68 C 123.79 31.21 129.58 34.21 136.75 34.21 C 143.84 34.21 148.63 31.29 152.89 29.07 C 155.76 27.57 158.54 26.22 162.52 25.5 Z" fill="#ffffff" stroke="none" stroke-width="0" opacity="0.5"/><rect x="0" y="0" width="0" height="0" fill="none" stroke="var(--icon-secondary, #6c8ebf)" stroke-width="1"/><path d="M 151.05 160.47 L 125.88 135.8 L 115.64 146.24 L 107.81 108.59 L 145.72 115.57 L 135.57 125.92 L 160.73 150.6 Z M 94.58 112.59 L 69.91 137.75 L 80.35 147.99 L 42.7 155.82 L 49.68 117.92 L 60.03 128.07 L 84.71 102.91 Z M 47.09 37.6 L 72.25 62.28 L 82.49 51.84 L 90.32 89.49 L 52.41 82.5 L 62.56 72.15 L 37.4 47.48 Z M 102.51 85.2 L 127.19 60.04 L 116.74 49.8 L 154.4 41.97 L 147.41 79.87 L 137.06 69.72 L 112.39 94.88 Z M 98.48 0 C 44.11 0 0 44.11 0 98.48 C 0 152.86 44.11 196.97 98.48 196.97 C 152.86 196.97 196.97 152.86 196.97 98.48 C 196.97 44.11 152.86 0 98.48 0 Z M 98.48 2.5 C 151.51 2.5 194.47 45.46 194.47 98.48 C 194.47 151.51 151.51 194.47 98.48 194.47 C 45.46 194.47 2.5 151.51 2.5 98.48 C 2.5 45.46 45.46 2.5 98.48 2.5 Z" fill="var(--icon-primary, #dae8fc)" stroke="none" stroke-width="0"/></svg>