<svg xmlns="http://www.w3.org/2000/svg" viewBox="0 0 721.85 725.26" width="721.85" height="725.26"><path d="M 372.48 92 L 362.96 103.77 C 307.47 172.3 230.63 182.61 156.41 170.54 L 142.44 168.26 L 143.27 182.39 C 149.85 293.82 161.48 359.46 199.72 452.27 C 235.46 544.73 299.86 605.52 366.73 636.87 L 371.72 639.21 L 376.65 636.72 C 466.44 591.35 517.01 515.83 550.04 434.32 L 550.14 434.09 L 550.22 433.86 C 576.29 360.49 591.39 290.27 598.89 183.05 L 599.9 168.75 L 585.76 171.07 C 495.71 185.82 423.29 165.46 381.09 104.45 Z M 371.18 127.96 C 417.41 185.1 490.91 205.55 574.97 195.11 C 567.27 292.5 553.15 357.81 528.92 426.05 C 497.72 502.94 451.87 571.13 371.3 613.67 C 311.32 584.05 253.54 528.7 220.82 443.98 L 220.77 443.86 L 220.73 443.74 C 184.95 356.93 173.64 295.98 167 194.62 C 238.17 203.31 314.28 190.06 371.18 127.96 Z M 409.36 196.37 L 332.25 196.38 C 327.01 196.38 324.23 200.65 322.56 206.01 L 306.29 263.51 C 292.36 264.36 277.14 266.84 265.23 271.61 C 258.01 274.59 249.88 279.92 249.88 282.82 C 249.88 286.25 253.9 289.13 256.58 289.99 C 267.59 293.91 285.11 296.68 298.06 297.87 C 293.53 311.56 291.12 325.5 298 345.01 L 294.5 345.01 C 290.14 345.01 282.69 350.05 282.69 359.51 L 282.75 373.19 C 273.93 373.19 265.06 381.58 265.06 392.82 L 265.06 474.51 C 265.06 486.65 277.29 495.97 286.56 495.97 L 366.59 495.97 L 366.59 394.4 L 375.06 394.31 L 375.06 495.97 L 454.41 495.97 C 464.94 495.97 476.37 485.1 476.37 472.49 L 476.37 394.25 C 476.37 386.32 470.75 373.37 459.47 373.37 L 459.44 359.17 C 459.44 352.51 453.15 344.96 446.61 344.96 L 443.74 345.11 C 449.39 331.83 449.59 315.46 444.16 297.79 C 454.57 296.15 466.25 294.14 478.43 290.21 C 484.45 288.5 488.84 285.51 488.84 282.77 C 488.84 280.42 483.4 276.67 477.5 273.76 C 461.2 265.86 447.25 262.83 434 261.26 L 420.03 209.2 C 418.34 201.62 415.5 196.37 409.36 196.37 Z M 315.25 299.76 C 334.76 302.49 393.99 303.23 426.38 299.76 C 429.79 310.69 428.62 322.6 428.62 333.51 C 428.62 339.98 424.5 344.99 421.56 344.99 L 414.19 344.99 C 406.7 344.99 401.5 351.71 401.5 359.26 L 401.5 384.23 C 382.7 392.33 357.68 392.61 340.09 384.26 L 340.09 358.64 C 340.09 350.21 334.05 344.99 328.15 344.99 L 320.88 344.99 C 316.77 344.99 312.76 339.77 312.76 333.2 C 312.76 317.17 312.38 306.51 315.25 299.76 Z M 331.94 307.98 C 329.02 307.98 328.25 309.09 328.25 311.63 L 328.25 327.82 C 328.25 333.63 332.8 338.32 337.12 338.32 L 352.44 338.32 C 356.76 338.32 361.38 334.92 361.38 329.7 L 361.38 313.38 C 361.38 309.66 359.72 307.98 355.38 307.98 Z M 388.42 307.98 C 384.08 307.98 382.42 309.66 382.42 313.38 L 382.42 329.7 C 382.42 334.92 387.04 338.32 391.36 338.32 L 406.67 338.32 C 410.99 338.32 415.55 333.63 415.55 327.82 L 415.55 311.63 C 415.55 309.09 414.78 307.98 411.86 307.98 Z M 44.28 20 L 677.57 20 C 691.2 20 701.86 30.66 701.86 44.28 L 701.86 680.96 C 701.86 694.59 691.2 705.25 677.57 705.25 L 44.28 705.25 C 30.66 705.25 20 694.59 20 680.96 L 20 44.28 C 20 30.66 30.66 20 44.28 20 Z M 44.28 0 C 19.92 0 0 19.92 0 44.28 L 0 680.96 C 0 705.33 19.92 725.26 44.28 725.26 L 677.57 725.26 C 701.93 725.26 721.85 705.33 721.85 680.96 L 721.85 44.28 C 721.85 19.92 701.93 0 677.57 0 Z" fill="var(--icon-primary, #dae8fc)" stroke="none" stroke-width="0"/></svg>