<svg xmlns="http://www.w3.org/2000/svg" viewBox="0 0 190.99 279.26" width="190.99" height="279.26"><path d="M 33.61 153.29 L 33.61 183.45 L 37.56 183.45 L 37.56 171.13 L 44.27 171.13 C 47.21 171.13 53.62 169.14 53.62 162.14 C 53.62 155.2 47.46 153.29 44.02 153.29 Z M 37.56 156.29 L 43.53 156.29 C 46.55 156.29 49.14 158.68 49.14 162.14 C 49.14 165.15 46.85 168.13 43.78 168.13 L 37.56 168.13 Z M 26.37 144.86 C 22.38 144.86 19.11 148.13 19.11 152.12 L 19.11 183.57 C 19.11 187.56 22.38 190.83 26.37 190.83 L 58.97 190.83 C 62.96 190.83 66.23 187.56 66.23 183.57 L 66.23 152.12 C 66.23 148.13 62.96 144.86 58.97 144.86 Z M 26.37 148.36 L 58.97 148.36 C 61.08 148.36 62.73 150.01 62.73 152.12 L 62.73 183.57 C 62.73 185.68 61.08 187.33 58.97 187.33 L 26.37 187.33 C 24.26 187.33 22.61 185.68 22.61 183.57 L 22.61 152.12 C 22.61 150.01 24.26 148.36 26.37 148.36 Z M 76.69 104.25 L 55.28 125.53 L 76.69 146.8 L 76.69 132.53 L 106.02 132.53 L 106.02 211.91 C 106.02 221.31 103.71 230.39 99.07 236.64 C 94.43 242.9 87.81 246.97 76.14 246.97 C 70.7 246.97 64.63 244.96 59.85 239.93 C 55.83 235.7 52.45 229.15 51.48 218.91 L 65.47 218.91 L 44.19 197.5 L 22.91 218.91 L 37.44 218.91 C 38.51 232.39 43.09 242.62 49.7 249.57 C 57.29 257.57 67.2 260.97 76.14 260.97 C 91.45 260.97 103.26 254.5 110.32 244.98 C 117.38 235.46 120.02 223.51 120.02 211.91 L 120.02 132.53 L 148.66 132.53 L 148.66 146.8 L 170.07 125.53 L 148.66 104.25 L 148.66 118.53 L 76.69 118.53 Z M 95.58 35.9 L 103.39 40.77 L 97.82 50.62 L 93.26 50.62 L 87.69 40.74 Z M 113.52 28.8 L 117.49 28.8 L 128.77 50.62 L 124.7 50.62 L 107.33 39.77 Z M 107.14 28.8 L 110.15 28.8 L 104.83 38.21 L 98.38 34.18 Z M 80.95 28.8 L 84.23 28.8 L 92.8 34.16 L 86.24 38.18 Z M 73.51 28.8 L 77.57 28.8 L 83.74 39.72 L 65.99 50.62 L 62.46 50.62 Z M 63.79 14.64 L 63.79 28.8 L 70.22 28.8 L 59.17 50.62 L 45.55 50.62 L 45.55 64.78 L 68.94 64.78 L 68.94 52.25 L 85.18 42.28 L 89.89 50.62 L 83.8 50.62 L 83.8 64.78 L 107.19 64.78 L 107.19 50.62 L 101.2 50.62 L 105.88 42.33 L 122.05 52.43 L 122.05 64.78 L 145.44 64.78 L 145.44 50.62 L 132.07 50.62 L 120.79 28.8 L 127.49 28.8 L 127.49 14.64 L 104.1 14.64 L 104.1 27.22 L 95.6 32.44 L 87.18 27.18 L 87.18 14.64 Z M 11.72 0 C 5.27 0 0 5.27 0 11.72 L 0 67.91 C 0 74.36 5.27 79.63 11.72 79.63 L 179.27 79.63 C 185.72 79.63 190.99 74.36 190.99 67.91 L 190.99 11.72 C 190.99 5.27 185.72 0 179.27 0 Z M 11.72 5.29 L 179.27 5.29 C 182.88 5.29 185.7 8.11 185.7 11.72 L 185.7 67.91 C 185.7 71.52 182.88 74.34 179.27 74.34 L 11.72 74.34 C 8.11 74.34 5.29 71.52 5.29 67.91 L 5.29 11.72 C 5.29 8.11 8.11 5.29 11.72 5.29 Z M 11.72 87.37 C 5.27 87.37 0 92.64 0 99.09 L 0 267.55 C 0 273.99 5.27 279.26 11.72 279.26 L 179.27 279.26 C 185.72 279.26 190.99 273.99 190.99 267.55 L 190.99 99.09 C 190.99 92.64 185.72 87.37 179.27 87.37 Z M 11.72 92.66 L 179.27 92.66 C 182.88 92.66 185.7 95.48 185.7 99.09 L 185.7 267.55 C 185.7 271.15 182.88 273.97 179.27 273.97 L 11.72 273.97 C 8.11 273.97 5.29 271.15 5.29 267.55 L 5.29 99.09 C 5.29 95.48 8.11 92.66 11.72 92.66 Z" fill="var(--icon-primary, #dae8fc)" stroke="none" stroke-width="0"/></svg>