<svg xmlns="http://www.w3.org/2000/svg" viewBox="0 0 721.85 725.26" width="721.85" height="725.26"><path d="M 207.06 215.11 L 207.06 287.97 L 240.12 287.97 L 183.29 400.23 L 113.21 400.23 L 113.21 473.08 L 233.56 473.08 L 233.56 408.64 L 317.13 357.33 L 341.35 400.23 L 310.02 400.23 L 310.02 473.08 L 430.37 473.08 L 430.37 400.23 L 399.54 400.23 L 423.64 357.57 L 506.83 409.54 L 506.83 473.08 L 627.18 473.08 L 627.18 400.23 L 558.42 400.23 L 500.37 287.97 L 534.84 287.97 L 534.84 215.11 L 414.48 215.11 L 414.48 279.8 L 370.71 306.68 L 327.42 279.64 L 327.42 215.11 Z M 257.07 287.97 L 277.97 287.97 L 309.69 344.15 L 218.37 400.23 L 200.23 400.23 Z M 295.33 287.97 L 312.22 287.97 L 356.32 315.52 L 322.59 336.24 Z M 430.09 287.97 L 445.6 287.97 L 418.25 336.38 L 385.04 315.63 Z M 462.96 287.97 L 483.35 287.97 L 541.39 400.23 L 520.45 400.23 L 431.08 344.39 Z M 370.64 324.47 L 410.8 349.55 L 382.18 400.23 L 358.71 400.23 L 330.02 349.41 Z M 44.28 0 C 19.92 0 0 19.92 0 44.28 L 0 680.96 C 0 705.33 19.92 725.26 44.28 725.26 L 677.57 725.26 C 701.93 725.26 721.85 705.33 721.85 680.96 L 721.85 44.28 C 721.85 19.92 701.93 0 677.57 0 Z M 44.28 20 L 677.57 20 C 691.2 20 701.86 30.66 701.86 44.28 L 701.86 680.96 C 701.86 694.59 691.2 705.25 677.57 705.25 L 44.28 705.25 C 30.66 705.25 20 694.59 20 680.96 L 20 44.28 C 20 30.66 30.66 20 44.28 20 Z" fill="var(--icon-primary, #dae8fc)" stroke="none" stroke-width="0"/></svg>