<svg xmlns="http://www.w3.org/2000/svg" viewBox="0 0 721.85 725.26" width="721.85" height="725.26"><path d="M 315.45 516.82 L 315.45 565.17 L 150.74 565.17 L 150.74 610.53 L 315.45 610.53 L 315.45 658.88 L 424.54 589.22 Z M 204.72 523.87 L 204.72 537.1 L 308.57 537.1 L 308.57 523.87 Z M 237.47 542.08 L 237.47 555.31 L 308.32 555.31 L 308.32 542.08 Z M 94.8 560.51 L 94.8 573.73 L 133.4 573.73 L 133.4 560.51 Z M 55.76 580.9 L 55.76 594.13 L 133.4 594.13 L 133.4 580.9 Z M 94.58 601.52 L 94.58 614.75 L 133.4 614.75 L 133.4 601.52 Z M 237.36 620.82 L 237.36 634.05 L 308.76 634.05 L 308.76 620.82 Z M 204.9 637.93 L 204.9 651.16 L 308.76 651.16 L 308.76 637.93 Z M 524.64 570.52 A 36.11 36.11 0 0 0 549.24 595.46 C 536.15 606.76 523.76 616.11 513.19 622.82 C 504.85 628.11 497.6 631.73 492.38 633.38 C 489.77 634.21 487.69 634.51 486.43 634.47 C 485.18 634.42 485 634.18 484.98 634.16 C 484.96 634.14 484.72 633.95 484.69 632.7 C 484.67 631.45 485 629.37 485.87 626.77 C 487.59 621.58 491.34 614.38 496.75 606.12 C 503.61 595.66 513.15 583.43 524.64 570.52 Z M 594.19 570.49 C 605.7 583.41 615.24 595.65 622.11 606.12 C 627.53 614.38 631.27 621.58 632.99 626.77 C 633.86 629.36 634.19 631.45 634.17 632.7 C 634.15 633.95 633.9 634.14 633.88 634.16 C 633.87 634.18 633.68 634.43 632.43 634.47 C 631.18 634.51 629.09 634.21 626.48 633.38 C 621.26 631.74 614.01 628.11 605.67 622.82 C 595.1 616.12 582.71 606.76 569.62 595.46 A 36.11 36.11 0 0 0 594.19 570.49 Z M 486.43 487.21 C 487.69 487.17 489.77 487.47 492.38 488.3 C 497.6 489.95 504.85 493.57 513.2 498.87 C 523.77 505.57 536.15 514.92 549.24 526.22 A 36.11 36.11 0 0 0 524.67 551.19 C 513.17 538.28 503.62 526.03 496.75 515.56 C 491.34 507.3 487.6 500.1 485.87 494.91 C 485 492.32 484.67 490.24 484.69 488.98 C 484.72 487.73 484.96 487.54 484.98 487.52 C 485 487.5 485.18 487.26 486.43 487.22 Z M 632.43 487.21 L 632.43 487.21 C 633.68 487.26 633.86 487.5 633.88 487.52 C 633.9 487.54 634.15 487.73 634.17 488.98 C 634.19 490.24 633.86 492.32 632.99 494.92 C 631.27 500.11 627.53 507.3 622.11 515.56 C 615.25 526.02 605.71 538.26 594.22 551.16 A 36.11 36.11 0 0 0 569.62 526.22 C 582.71 514.92 595.1 505.57 605.67 498.87 C 614.01 493.57 621.26 489.95 626.48 488.3 C 629.09 487.47 631.18 487.17 632.43 487.21 Z M 559.8 461.02 L 541.06 478.95 L 554.32 478.95 L 554.32 517.07 C 541.54 506.13 529.38 496.99 518.68 490.21 C 509.89 484.63 502.13 480.63 495.47 478.53 C 492.14 477.47 489.07 476.87 486.08 476.97 C 483.09 477.08 479.95 478.03 477.68 480.33 C 475.41 482.64 474.5 485.8 474.44 488.79 C 474.39 491.78 475.04 494.84 476.14 498.15 C 478.35 504.78 482.47 512.48 488.18 521.19 C 495 531.58 504.13 543.37 514.99 555.73 L 477.54 555.73 L 477.54 542.47 L 459.61 561.21 L 477.54 579.21 L 477.54 566.91 L 514.15 566.91 C 503.65 578.93 494.82 590.37 488.18 600.5 C 482.47 609.21 478.35 616.91 476.14 623.53 C 475.04 626.85 474.39 629.9 474.44 632.89 C 474.5 635.88 475.4 639.04 477.68 641.35 C 479.95 643.66 483.09 644.61 486.08 644.71 C 489.07 644.81 492.14 644.21 495.47 643.16 C 502.13 641.06 509.89 637.05 518.68 631.47 C 529.37 624.69 541.54 615.55 554.32 604.62 L 554.32 642.73 L 541.06 642.73 L 559.8 660.66 L 577.8 642.73 L 565.5 642.73 L 565.5 605.43 C 577.93 616 589.76 624.86 600.18 631.47 C 608.97 637.05 616.73 641.06 623.39 643.16 C 626.72 644.21 629.79 644.81 632.78 644.71 C 635.77 644.61 638.92 643.66 641.19 641.35 C 643.46 639.05 644.36 635.88 644.42 632.89 C 644.47 629.9 643.82 626.84 642.72 623.53 C 640.51 616.91 636.39 609.21 630.68 600.5 C 624.04 590.37 615.21 578.93 604.71 566.91 L 641.32 566.91 L 641.32 579.21 L 659.25 561.21 L 641.32 542.47 L 641.32 555.73 L 603.87 555.73 C 614.73 543.37 623.86 531.58 630.68 521.18 C 636.39 512.47 640.51 504.78 642.72 498.15 C 643.82 494.84 644.47 491.78 644.42 488.79 C 644.36 485.8 643.46 482.64 641.18 480.33 C 638.91 478.03 635.77 477.08 632.78 476.97 C 629.79 476.87 626.72 477.48 623.39 478.53 C 616.73 480.63 608.97 484.63 600.18 490.21 C 589.75 496.82 577.93 505.68 565.5 516.25 L 565.5 478.95 L 577.8 478.95 Z M 185.21 351.66 L 75.41 416.82 L 185.21 480.98 L 185.21 438.84 L 314.17 438.84 L 314.17 390.14 L 185.21 390.14 Z M 469.26 254.27 L 469.26 292.75 L 340.3 292.75 L 340.3 341.45 L 469.26 341.45 L 469.26 383.58 L 579.06 319.43 Z M 259.03 161.22 L 149.23 226.37 L 259.03 290.53 L 259.03 248.4 L 387.99 248.4 L 387.99 199.69 L 259.03 199.69 Z M 541.03 63.57 L 541.03 102.04 L 412.06 102.04 L 412.06 150.75 L 541.03 150.75 L 541.03 192.88 L 650.82 128.72 Z M 44.28 20 L 677.57 20 C 691.2 20 701.86 30.66 701.86 44.28 L 701.86 680.96 C 701.86 694.59 691.2 705.25 677.57 705.25 L 44.28 705.25 C 30.66 705.25 20 694.59 20 680.96 L 20 44.28 C 20 30.66 30.66 20 44.28 20 Z M 44.28 0 C 19.92 0 0 19.92 0 44.28 L 0 680.96 C 0 705.33 19.92 725.26 44.28 725.26 L 677.57 725.26 C 701.93 725.26 721.85 705.33 721.85 680.96 L 721.85 44.28 C 721.85 19.92 701.93 0 677.57 0 Z" fill="var(--icon-primary, #dae8fc)" stroke="none" stroke-width="0"/><path d="M 595.5 560.89 A 36.11 36.11 0 0 1 559.4 597 A 36.11 36.11 0 0 1 523.29 560.89 A 36.11 36.11 0 0 1 559.4 524.78 A 36.11 36.11 0 0 1 595.5 560.89 Z" fill="#ffffff" stroke="none" stroke-width="0" opacity="0.5"/></svg>