<svg xmlns="http://www.w3.org/2000/svg" viewBox="0 0 190.99 191.89" width="190.99" height="191.89"><path d="M 137.33 155.71 A 9.56 9.56 0 0 0 143.84 162.31 C 140.38 165.3 137.1 167.77 134.31 169.55 C 132.1 170.95 130.18 171.91 128.8 172.34 C 128.11 172.56 127.56 172.64 127.23 172.63 C 126.89 172.62 126.85 172.55 126.84 172.55 C 126.83 172.54 126.77 172.49 126.76 172.16 C 126.76 171.83 126.85 171.28 127.08 170.59 C 127.53 169.22 128.52 167.31 129.96 165.13 C 131.77 162.36 134.29 159.13 137.33 155.71 Z M 155.74 155.7 C 158.78 159.12 161.31 162.36 163.12 165.13 C 164.56 167.32 165.55 169.22 166 170.59 C 166.23 171.28 166.32 171.83 166.31 172.16 C 166.31 172.49 166.24 172.54 166.24 172.55 C 166.23 172.55 166.18 172.62 165.85 172.63 C 165.52 172.64 164.97 172.56 164.28 172.34 C 162.9 171.91 160.98 170.95 158.77 169.55 C 155.98 167.77 152.7 165.3 149.24 162.31 A 9.56 9.56 0 0 0 155.74 155.7 Z M 127.23 133.67 C 127.56 133.66 128.11 133.74 128.8 133.96 C 130.18 134.39 132.1 135.35 134.31 136.75 C 137.1 138.53 140.38 141 143.84 143.99 A 9.56 9.56 0 0 0 137.34 150.6 C 134.3 147.18 131.77 143.94 129.96 141.17 C 128.52 138.98 127.53 137.08 127.08 135.71 C 126.85 135.02 126.76 134.47 126.76 134.14 C 126.77 133.81 126.84 133.76 126.84 133.75 C 126.85 133.75 126.89 133.68 127.23 133.67 Z M 165.85 133.67 L 165.85 133.67 C 166.18 133.68 166.23 133.75 166.24 133.75 C 166.24 133.76 166.31 133.81 166.31 134.14 C 166.32 134.47 166.23 135.02 166 135.71 C 165.55 137.08 164.56 138.98 163.12 141.17 C 161.31 143.94 158.78 147.17 155.74 150.59 A 9.56 9.56 0 0 0 149.24 143.99 C 152.7 141 155.98 138.52 158.77 136.75 C 160.98 135.35 162.9 134.39 164.28 133.96 C 164.97 133.74 165.52 133.66 165.85 133.67 Z M 146.64 126.74 L 141.68 131.48 L 145.19 131.48 L 145.19 141.57 C 141.81 138.67 138.59 136.26 135.76 134.46 C 133.43 132.99 131.38 131.93 129.62 131.37 C 128.73 131.09 127.92 130.93 127.13 130.96 C 126.34 130.99 125.51 131.24 124.91 131.85 C 124.31 132.46 124.07 133.29 124.05 134.09 C 124.04 134.88 124.21 135.69 124.5 136.56 C 125.08 138.32 126.18 140.35 127.69 142.66 C 129.49 145.41 131.91 148.53 134.78 151.8 L 124.87 151.8 L 124.87 148.29 L 120.13 153.25 L 124.87 158.01 L 124.87 154.75 L 134.56 154.75 C 131.78 157.93 129.45 160.96 127.69 163.64 C 126.18 165.95 125.09 167.98 124.5 169.74 C 124.21 170.61 124.04 171.42 124.05 172.21 C 124.07 173 124.31 173.84 124.91 174.45 C 125.51 175.06 126.34 175.31 127.13 175.34 C 127.92 175.37 128.73 175.21 129.62 174.93 C 131.38 174.37 133.43 173.31 135.76 171.84 C 138.59 170.04 141.81 167.62 145.19 164.73 L 145.19 174.82 L 141.68 174.82 L 146.64 179.56 L 151.4 174.82 L 148.14 174.82 L 148.14 164.95 C 151.43 167.74 154.56 170.09 157.32 171.84 C 159.65 173.31 161.7 174.37 163.46 174.93 C 164.34 175.21 165.15 175.37 165.94 175.34 C 166.74 175.31 167.57 175.06 168.17 174.45 C 168.77 173.84 169.01 173 169.02 172.21 C 169.04 171.42 168.87 170.61 168.58 169.74 C 167.99 167.98 166.9 165.95 165.39 163.64 C 163.63 160.96 161.3 157.93 158.52 154.75 L 168.21 154.75 L 168.21 158.01 L 172.95 153.25 L 168.21 148.29 L 168.21 151.8 L 158.3 151.8 C 161.17 148.53 163.59 145.41 165.39 142.66 C 166.9 140.35 167.99 138.32 168.58 136.56 C 168.87 135.69 169.04 134.88 169.02 134.09 C 169.01 133.29 168.77 132.46 168.17 131.85 C 167.57 131.24 166.74 130.99 165.94 130.96 C 165.15 130.93 164.34 131.09 163.46 131.37 C 161.7 131.93 159.65 132.99 157.32 134.46 C 154.56 136.21 151.43 138.55 148.14 141.35 L 148.14 131.48 L 151.4 131.48 Z M 49 93.04 L 19.95 110.28 L 49 127.26 L 49 116.11 L 83.12 116.11 L 83.12 103.22 L 49 103.22 Z M 124.16 67.28 L 124.16 77.46 L 90.04 77.46 L 90.04 90.34 L 124.16 90.34 L 124.16 101.49 L 153.21 84.51 Z M 68.54 42.66 L 39.48 59.89 L 68.54 76.87 L 68.54 65.72 L 102.66 65.72 L 102.66 52.84 L 68.54 52.84 Z M 143.15 16.82 L 143.15 27 L 109.03 27 L 109.03 39.88 L 143.15 39.88 L 143.15 51.03 L 172.2 34.06 Z M 11.72 5.29 L 179.27 5.29 C 182.88 5.29 185.7 8.11 185.7 11.72 L 185.7 180.17 C 185.7 183.78 182.88 186.6 179.27 186.6 L 11.72 186.6 C 8.11 186.6 5.29 183.78 5.29 180.17 L 5.29 11.72 C 5.29 8.11 8.11 5.29 11.72 5.29 Z M 11.72 0 C 5.27 0 0 5.27 0 11.72 L 0 180.17 C 0 186.62 5.27 191.89 11.72 191.89 L 179.27 191.89 C 185.72 191.89 190.99 186.62 190.99 180.17 L 190.99 11.72 C 190.99 5.27 185.72 0 179.27 0 Z" fill="var(--icon-primary, #dae8fc)" stroke="none" stroke-width="0"/><path d="M 156.09 153.15 A 9.56 9.56 0 0 1 146.54 162.7 A 9.56 9.56 0 0 1 136.98 153.15 A 9.56 9.56 0 0 1 146.54 143.59 A 9.56 9.56 0 0 1 156.09 153.15 Z" fill="#ffffff" stroke="none" stroke-width="0" opacity="0.5"/></svg>