<svg xmlns="http://www.w3.org/2000/svg" viewBox="0 0 721.85 725.26" width="721.85" height="725.26"><path d="M 523.87 564.63 A 37.03 37.03 0 0 0 549.09 590.21 C 535.67 601.79 522.97 611.38 512.13 618.26 C 503.58 623.68 496.14 627.4 490.79 629.09 C 488.11 629.94 485.97 630.25 484.69 630.2 C 483.41 630.16 483.22 629.91 483.2 629.89 C 483.18 629.87 482.93 629.67 482.9 628.39 C 482.88 627.11 483.22 624.97 484.11 622.31 C 485.88 616.99 489.72 609.6 495.27 601.13 C 502.31 590.41 512.09 577.86 523.87 564.63 Z M 595.2 564.59 C 606.99 577.84 616.78 590.4 623.82 601.13 C 629.38 609.6 633.21 616.99 634.98 622.31 C 635.87 624.97 636.21 627.11 636.19 628.39 C 636.17 629.67 635.92 629.87 635.9 629.89 C 635.88 629.91 635.69 630.16 634.4 630.2 C 633.12 630.25 630.98 629.94 628.3 629.09 C 622.95 627.4 615.52 623.68 606.96 618.26 C 596.12 611.38 583.42 601.79 570 590.21 A 37.03 37.03 0 0 0 595.2 564.59 Z M 484.69 479.2 C 485.97 479.16 488.11 479.47 490.79 480.31 C 496.14 482 503.58 485.72 512.13 491.15 C 522.97 498.02 535.68 507.61 549.1 519.2 A 37.03 37.03 0 0 0 523.9 544.81 C 512.1 531.56 502.32 519.01 495.27 508.27 C 489.72 499.8 485.88 492.42 484.11 487.09 C 483.22 484.43 482.88 482.3 482.91 481.02 C 482.93 479.73 483.18 479.54 483.2 479.52 C 483.22 479.5 483.41 479.25 484.69 479.2 Z M 634.4 479.2 C 635.69 479.24 635.87 479.49 635.89 479.52 C 635.91 479.53 636.17 479.73 636.19 481.01 C 636.21 482.29 635.87 484.43 634.98 487.09 C 633.21 492.42 629.38 499.8 623.82 508.27 C 616.79 519 607.01 531.54 595.22 544.77 A 37.03 37.03 0 0 0 570 519.2 C 583.42 507.61 596.12 498.02 606.96 491.15 C 615.52 485.72 622.95 482 628.3 480.31 C 630.98 479.47 633.12 479.16 634.4 479.2 Z M 559.92 452.34 L 540.71 470.72 L 554.31 470.72 L 554.31 509.81 C 541.2 498.6 528.73 489.22 517.76 482.27 C 508.74 476.55 500.79 472.44 493.96 470.29 C 490.54 469.21 487.4 468.59 484.33 468.7 C 481.27 468.8 478.04 469.78 475.71 472.14 C 473.38 474.51 472.45 477.75 472.4 480.81 C 472.34 483.88 473 487.02 474.13 490.41 C 476.4 497.21 480.63 505.1 486.48 514.04 C 493.48 524.7 502.83 536.78 513.98 549.46 L 475.57 549.46 L 475.57 535.86 L 457.18 555.08 L 475.57 573.54 L 475.57 560.92 L 513.11 560.92 C 502.35 573.25 493.3 584.98 486.48 595.37 C 480.62 604.3 476.4 612.19 474.14 618.99 C 473.01 622.39 472.34 625.52 472.39 628.59 C 472.45 631.65 473.38 634.89 475.71 637.26 C 478.04 639.63 481.26 640.6 484.33 640.71 C 487.4 640.81 490.54 640.19 493.96 639.12 C 500.78 636.96 508.74 632.85 517.76 627.13 C 528.73 620.18 541.2 610.8 554.31 599.59 L 554.31 638.68 L 540.71 638.68 L 559.92 657.06 L 578.38 638.68 L 565.77 638.68 L 565.77 600.43 C 578.52 611.27 590.64 620.35 601.33 627.13 C 610.35 632.85 618.31 636.96 625.14 639.12 C 628.55 640.19 631.69 640.81 634.76 640.71 C 637.83 640.6 641.06 639.63 643.38 637.26 C 645.71 634.9 646.64 631.66 646.7 628.59 C 646.76 625.52 646.09 622.39 644.96 618.99 C 642.7 612.19 638.47 604.3 632.61 595.37 C 625.8 584.98 616.75 573.25 605.98 560.92 L 643.52 560.92 L 643.52 573.54 L 661.91 555.08 L 643.52 535.86 L 643.52 549.46 L 605.12 549.46 C 616.26 536.78 625.62 524.7 632.61 514.03 C 638.47 505.1 642.7 497.21 644.96 490.41 C 646.09 487.02 646.75 483.88 646.7 480.82 C 646.64 477.75 645.71 474.51 643.38 472.14 C 641.06 469.78 637.83 468.8 634.76 468.7 C 631.69 468.59 628.55 469.21 625.14 470.29 C 618.31 472.45 610.35 476.55 601.33 482.27 C 590.64 489.05 578.52 498.13 565.77 508.97 L 565.77 470.72 L 578.38 470.72 Z M 395.09 253.48 L 488.29 253.57 A 39.14 18.69 0 0 0 510.71 264.97 L 489.51 329.89 A 39.14 18.69 0 0 0 458.22 338.96 L 358.29 338.86 A 39.14 18.69 0 0 0 340.19 331.35 L 361.45 266.25 A 39.14 18.69 0 0 0 395.09 253.48 Z M 229.55 253.32 L 320.74 253.41 A 39.14 18.69 0 0 0 345.82 265.41 L 324.77 329.85 A 39.14 18.69 0 0 0 291.51 338.79 L 192.17 338.7 A 39.14 18.69 0 0 0 175.6 331.65 L 196.99 266.18 A 39.14 18.69 0 0 0 229.55 253.32 Z M 429.29 148.94 L 529.66 149.04 A 39.14 18.69 0 0 0 546.16 156.42 L 522.45 229.02 A 39.14 18.69 0 0 0 491.31 238.46 L 391.84 238.36 A 39.14 18.69 0 0 0 373.14 230.43 L 396.68 158.36 A 39.14 18.69 0 0 0 429.29 148.94 Z M 264.33 148.78 L 361.27 148.87 A 39.14 18.69 0 0 0 381.19 157.1 L 357.72 228.97 A 39.14 18.69 0 0 0 324.09 238.29 L 225.98 238.2 A 39.14 18.69 0 0 0 208.58 230.68 L 232.21 158.34 A 39.14 18.69 0 0 0 264.33 148.78 Z M 408.4 73.78 L 392.97 121.04 A 39.14 18.69 0 0 0 358.23 133.75 L 267.15 133.66 A 39.14 18.69 0 0 0 244 122.24 L 257.73 80.19 L 243.36 75.49 L 228.49 121.03 A 39.14 18.69 0 0 0 193.19 133.59 L 122.32 133.52 L 122.31 148.64 L 195.92 148.71 A 39.14 18.69 0 0 0 216.67 157.21 L 193.23 228.99 A 39.14 18.69 0 0 0 192.27 228.96 A 39.14 18.69 0 0 0 158.63 238.13 L 98.2 238.07 L 98.18 253.19 L 154.96 253.25 A 39.14 18.69 0 0 0 181.28 265.57 L 160.28 329.88 A 39.14 18.69 0 0 0 158.93 329.85 A 39.14 18.69 0 0 0 125.8 338.63 L 74.47 338.58 L 74.45 353.7 L 121.35 353.74 A 39.14 18.69 0 0 0 148.31 366.51 L 136.84 401.63 L 151.21 406.32 L 164.04 367.04 A 39.14 18.69 0 0 0 196.46 353.82 L 287.39 353.91 A 39.14 18.69 0 0 0 312.86 366.32 L 301.89 399.91 L 316.26 404.6 L 328.5 367.13 A 39.14 18.69 0 0 0 362.29 353.98 L 454.43 354.07 A 39.14 18.69 0 0 0 477.73 365.96 L 466.17 401.34 L 480.54 406.03 L 493.22 367.2 A 39.14 18.69 0 0 0 529.11 354.15 L 587.35 354.21 L 587.37 339.09 L 525.42 339.03 A 39.14 18.69 0 0 0 505.05 330.98 L 526.17 266.32 A 39.14 18.69 0 0 0 562.4 253.65 L 611.09 253.69 L 611.11 238.57 L 559.47 238.52 A 39.14 18.69 0 0 0 538.04 229.99 L 561.44 158.33 A 39.14 18.69 0 0 0 563.5 158.38 A 39.14 18.69 0 0 0 597.26 149.11 L 635.21 149.14 L 635.22 134.03 L 600.73 133.99 A 39.14 18.69 0 0 0 573.43 121.64 L 587.06 79.9 L 572.69 75.21 L 557.66 121.23 A 39.14 18.69 0 0 0 526.29 133.92 L 432.42 133.83 A 39.14 18.69 0 0 0 408.51 122.12 L 422.77 78.47 Z M 44.28 20 L 677.57 20 C 691.2 20 701.86 30.66 701.86 44.28 L 701.86 680.96 C 701.86 694.59 691.2 705.25 677.57 705.25 L 44.28 705.25 C 30.66 705.25 20 694.59 20 680.96 L 20 44.28 C 20 30.66 30.66 20 44.28 20 Z M 44.28 0 C 19.92 0 0 19.92 0 44.28 L 0 680.96 C 0 705.33 19.92 725.26 44.28 725.26 L 677.57 725.26 C 701.93 725.26 721.85 705.33 721.85 680.96 L 721.85 44.28 C 721.85 19.92 701.93 0 677.57 0 Z" fill="var(--icon-primary, #dae8fc)" stroke="none" stroke-width="0"/><rect x="0" y="0" width="0" height="0" fill="none" stroke="var(--icon-secondary, #6c8ebf)" stroke-width="1"/><path d="M 596.65 554.7 A 37.08 37.08 0 0 1 559.57 591.78 A 37.08 37.08 0 0 1 522.48 554.7 A 37.08 37.08 0 0 1 559.57 517.61 A 37.08 37.08 0 0 1 596.65 554.7 Z" fill="#ffffff" stroke="var(--icon-secondary, #6c8ebf)" stroke-width="3.785" opacity="0.5"/></svg>