<svg xmlns="http://www.w3.org/2000/svg" viewBox="0 0 938.03 725.26" width="938.03" height="725.26"><path d="M 402.15 130.5 L 402.15 130.5 C 347.95 130.84 302.3 149.56 263.5 181.51 A 11.34 11.34 0 0 0 263.3 181.67 C 212 225.94 192.68 274.65 182.77 322.36 C 138.2 339.32 109.63 367.84 100.45 403.12 A 11.34 11.34 0 0 0 100.29 403.86 C 91.99 447.75 109.06 489.95 151.24 515.65 A 11.34 11.34 0 0 0 152.61 516.36 C 186.22 531.02 214.39 535.39 253.52 536.61 C 272.72 555.45 292.02 569.14 320.81 581.53 A 11.34 11.34 0 0 0 320.94 581.59 C 374.22 603.72 430.44 603.08 482.81 582.81 C 512.29 573.33 538.87 551.97 563.14 529.21 C 625.34 536.29 690.06 542.21 741.62 531.35 A 11.34 11.34 0 0 0 742.03 531.26 C 774.28 523.23 801.71 509.05 819.94 488.06 C 838.18 467.07 846.29 438.9 839.8 407.46 A 11.34 11.34 0 0 0 839.73 407.17 C 833.33 379.76 818.94 360.44 801.68 346.73 C 785.61 333.96 767.35 325.77 749.93 317.97 C 739.17 290.99 717.1 264.2 697.27 250.7 A 11.34 11.34 0 0 0 697.04 250.55 C 661.81 227.8 624.93 226.59 591.9 235.36 C 565.35 191.22 522.72 154.5 460.07 136.67 A 11.34 11.34 0 0 0 459.27 136.48 C 439.24 132.31 420.22 130.38 402.15 130.5 Z M 402.25 152.95 C 418.49 152.95 435.78 154.8 454.27 158.62 C 514.73 175.95 553.03 210.95 576.55 253.66 A 11.34 11.34 0 0 0 590.01 258.97 C 620.53 248.98 652.24 248.69 684.61 269.54 C 699.53 279.74 723.32 308.74 730.71 330.2 A 11.34 11.34 0 0 0 736.79 336.86 C 755.44 345.2 773.42 353.25 787.57 364.5 C 801.69 375.71 812.3 389.67 817.6 412.16 C 822.82 437.58 816.89 457 802.83 473.19 C 788.78 489.35 765.72 501.94 736.79 509.18 C 689.49 519.1 623.92 513.41 560.58 506.13 A 11.34 11.34 0 0 0 551.46 509.19 C 527.03 532.46 500.73 553.25 475.82 561.25 A 11.34 11.34 0 0 0 475.17 561.48 C 427.54 580.06 377.82 580.64 329.68 560.65 C 329.67 560.65 329.66 560.65 329.65 560.65 C 301.39 548.47 285.22 536.7 266.3 517.54 A 11.34 11.34 0 0 0 258.51 514.17 C 218.4 513.2 194.33 509.66 162.45 495.87 C 127.56 474.33 115.9 444.33 122.55 408.47 C 130.14 379.83 152.94 355.9 196.11 341.11 A 11.34 11.34 0 0 0 203.56 332.53 C 212.6 285.51 228.82 241.43 278.02 198.94 C 313.54 169.72 353.2 152.97 402.25 152.95 Z M 548.57 301.14 C 514.17 301.14 484.48 321.74 471.19 351.24 L 431.61 328.02 L 431.61 369.63 L 361.61 369.63 L 361.61 328.02 L 262.68 386.06 L 361.61 443.92 L 361.61 402.31 L 431.61 402.31 L 431.61 443.92 L 471.21 420.75 C 484.52 450.23 514.19 470.8 548.57 470.8 C 595.34 470.8 633.4 432.74 633.4 385.97 C 633.4 339.2 595.34 301.14 548.57 301.14 Z M 548.57 314.37 C 588.19 314.37 620.18 346.35 620.18 385.97 C 620.18 425.59 588.19 457.57 548.57 457.57 C 518.92 457.57 493.56 439.67 482.67 414.05 L 530.54 386.06 L 482.64 357.96 C 493.51 332.31 518.9 314.37 548.57 314.37 Z M 44.28 0 C 19.92 0 0 19.92 0 44.28 L 0 680.96 C 0 705.33 19.92 725.26 44.28 725.26 L 893.74 725.26 C 918.1 725.26 938.03 705.33 938.03 680.96 L 938.03 44.28 C 938.03 19.92 918.1 0 893.74 0 Z M 44.28 20 L 893.74 20 C 907.37 20 918.03 30.66 918.03 44.28 L 918.03 680.96 C 918.03 694.59 907.37 705.25 893.74 705.25 L 44.28 705.25 C 30.66 705.25 20 694.59 20 680.96 L 20 44.28 C 20 30.66 30.66 20 44.28 20 Z" fill="var(--icon-primary, #dae8fc)" stroke="none" stroke-width="0"/></svg>