<svg xmlns="http://www.w3.org/2000/svg" viewBox="0 0 721.85 725.26" width="721.85" height="725.26"><path d="M 44.28 0 C 19.92 0 0 19.92 0 44.28 L 0 680.96 C 0 705.33 19.92 725.26 44.28 725.26 L 677.57 725.26 C 701.93 725.26 721.85 705.33 721.85 680.96 L 721.85 44.28 C 721.85 19.92 701.93 0 677.57 0 Z M 44.28 20 L 677.57 20 C 691.2 20 701.86 30.66 701.86 44.28 L 701.86 680.96 C 701.86 694.59 691.2 705.25 677.57 705.25 L 44.28 705.25 C 30.66 705.25 20 694.59 20 680.96 L 20 44.28 C 20 30.66 30.66 20 44.28 20 Z M 541.03 63.57 L 541.03 102.04 L 412.06 102.04 L 412.06 150.75 L 541.03 150.75 L 541.03 192.88 L 650.82 128.72 Z M 259.03 161.22 L 149.23 226.37 L 259.03 290.53 L 259.03 248.4 L 387.99 248.4 L 387.99 199.69 L 259.03 199.69 Z M 469.26 254.27 L 469.26 292.75 L 340.3 292.75 L 340.3 341.45 L 469.26 341.45 L 469.26 383.58 L 579.06 319.43 Z M 185.21 351.66 L 75.41 416.82 L 185.21 480.98 L 185.21 438.84 L 314.17 438.84 L 314.17 390.14 L 185.21 390.14 Z M 154.21 479.01 L 135.48 496.94 L 148.74 496.94 L 148.74 535.06 C 135.96 524.12 123.79 514.98 113.1 508.2 C 104.31 502.62 96.55 498.62 89.89 496.52 C 86.56 495.46 83.49 494.86 80.5 494.96 C 77.51 495.07 74.37 496.02 72.09 498.32 C 69.82 500.63 68.92 503.79 68.86 506.78 C 68.8 509.77 69.45 512.83 70.56 516.14 C 72.76 522.77 76.89 530.47 82.6 539.18 C 89.42 549.57 98.54 561.36 109.41 573.72 L 71.96 573.72 L 71.96 560.46 L 54.03 579.2 L 71.96 597.2 L 71.96 584.9 L 108.57 584.9 C 98.07 596.92 89.24 608.36 82.6 618.49 C 76.89 627.2 72.76 634.9 70.56 641.52 C 69.46 644.84 68.8 647.89 68.86 650.88 C 68.92 653.87 69.82 657.03 72.09 659.34 C 74.36 661.65 77.51 662.6 80.5 662.7 C 83.49 662.8 86.56 662.2 89.88 661.15 C 96.54 659.05 104.3 655.04 113.1 649.46 C 123.79 642.68 135.96 633.54 148.74 622.61 L 148.74 660.72 L 135.48 660.72 L 154.21 678.65 L 172.22 660.72 L 159.91 660.72 L 159.91 623.42 C 172.35 633.99 184.17 642.85 194.6 649.46 C 203.39 655.04 211.15 659.05 217.81 661.15 C 221.14 662.2 224.2 662.8 227.19 662.7 C 230.18 662.6 233.33 661.65 235.6 659.34 C 237.88 657.04 238.78 653.87 238.83 650.88 C 238.89 647.89 238.24 644.83 237.14 641.52 C 234.93 634.9 230.81 627.2 225.1 618.49 C 218.45 608.36 209.63 596.92 199.13 584.9 L 235.74 584.9 L 235.74 597.2 L 253.67 579.2 L 235.74 560.46 L 235.74 573.72 L 198.28 573.72 C 209.15 561.36 218.28 549.57 225.1 539.17 C 230.81 530.46 234.93 522.77 237.14 516.14 C 238.24 512.83 238.89 509.77 238.83 506.78 C 238.78 503.79 237.87 500.63 235.6 498.32 C 233.33 496.02 230.18 495.07 227.19 494.96 C 224.2 494.86 221.14 495.47 217.81 496.52 C 211.15 498.62 203.39 502.62 194.59 508.2 C 184.17 514.81 172.35 523.67 159.91 534.24 L 159.91 496.94 L 172.22 496.94 Z M 306.06 493 L 306.06 498.67 L 306.06 536.82 L 317.4 536.82 L 317.4 504.34 L 349.94 504.34 L 349.94 493 Z M 403.95 493 L 403.95 504.34 L 458.45 504.34 L 458.45 493 Z M 512.73 493 L 512.73 504.34 L 565.76 504.34 L 565.76 493 Z M 619.82 493 L 619.82 504.34 L 652.37 504.34 L 652.37 536.91 L 663.71 536.91 L 663.71 493 Z M 226.84 505.2 L 226.84 505.21 C 228.09 505.25 228.28 505.49 228.3 505.51 C 228.32 505.53 228.56 505.72 228.59 506.97 C 228.61 508.23 228.27 510.31 227.41 512.91 C 225.68 518.1 221.94 525.29 216.53 533.55 C 209.66 544.01 200.13 556.25 188.64 569.15 A 36.11 36.11 0 0 0 164.04 544.21 C 177.13 532.91 189.51 523.56 200.08 516.86 C 208.43 511.57 215.68 507.94 220.89 506.29 C 223.5 505.47 225.59 505.16 226.84 505.2 Z M 80.85 505.21 C 82.1 505.16 84.19 505.47 86.8 506.29 C 92.02 507.94 99.27 511.57 107.61 516.86 C 118.18 523.56 130.57 532.91 143.65 544.21 A 36.11 36.11 0 0 0 119.08 569.18 C 107.58 556.27 98.04 544.02 91.17 533.55 C 85.75 525.29 82.01 518.09 80.29 512.9 C 79.42 510.31 79.09 508.23 79.11 506.97 C 79.13 505.72 79.38 505.53 79.4 505.51 C 79.42 505.49 79.6 505.25 80.85 505.21 Z M 488.53 533.81 C 478.57 533.81 469.88 539.83 463.99 548.62 C 458.09 557.4 454.65 569.1 454.65 581.95 C 454.65 594.8 458.09 606.51 463.99 615.29 C 469.88 624.08 478.57 630.1 488.53 630.1 C 498.48 630.1 507.17 624.08 513.07 615.29 C 518.97 606.51 522.41 594.8 522.41 581.95 C 522.41 569.1 518.97 557.4 513.07 548.62 C 507.17 539.83 498.48 533.81 488.53 533.81 Z M 488.53 543.26 C 494.68 543.26 500.57 546.95 505.22 553.88 C 509.88 560.82 512.96 570.82 512.96 581.95 C 512.96 593.09 509.88 603.09 505.22 610.03 C 500.57 616.96 494.68 620.65 488.53 620.65 C 482.38 620.65 476.49 616.96 471.83 610.03 C 467.18 603.09 464.1 593.09 464.1 581.95 C 464.1 570.82 467.18 560.82 471.83 553.88 C 476.49 546.95 482.38 543.26 488.53 543.26 Z M 652.37 551.22 L 652.37 566.52 L 663.71 566.52 L 663.71 551.22 Z M 306.06 551.29 L 306.06 566.52 L 317.4 566.6 L 317.4 551.29 Z M 382.12 556.97 L 342.79 580.31 L 382.12 603.29 L 382.12 588.2 L 428.31 588.2 L 428.31 570.75 L 382.12 570.75 Z M 595.56 556.97 L 595.56 570.75 L 549.36 570.75 L 549.36 588.2 L 595.56 588.2 L 595.56 603.29 L 634.89 580.31 Z M 652.37 579.79 L 652.37 594.94 L 663.71 594.94 L 663.71 579.79 Z M 306.06 579.94 L 306.06 595.14 L 317.4 595.14 L 317.4 580.02 Z M 188.61 588.48 C 200.11 601.4 209.66 613.64 216.53 624.11 C 221.95 632.37 225.68 639.57 227.41 644.76 C 228.27 647.35 228.61 649.44 228.59 650.69 C 228.56 651.94 228.32 652.13 228.3 652.15 C 228.28 652.17 228.09 652.41 226.84 652.46 C 225.59 652.5 223.51 652.2 220.9 651.37 C 215.68 649.73 208.43 646.1 200.08 640.81 C 189.51 634.1 177.13 624.75 164.04 613.45 A 36.11 36.11 0 0 0 188.61 588.48 Z M 119.05 588.51 A 36.11 36.11 0 0 0 143.65 613.46 C 130.57 624.75 118.18 634.1 107.61 640.81 C 99.27 646.1 92.01 649.73 86.8 651.37 C 84.19 652.2 82.1 652.5 80.85 652.46 C 79.6 652.41 79.41 652.17 79.39 652.15 C 79.38 652.13 79.13 651.94 79.11 650.69 C 79.09 649.44 79.42 647.36 80.28 644.76 C 82.01 639.57 85.75 632.37 91.17 624.11 C 98.03 613.65 107.57 601.42 119.05 588.51 Z M 652.37 610.61 L 652.37 642.35 L 619.85 642.35 L 619.85 653.69 L 663.71 653.69 L 663.71 610.61 Z M 306.06 610.65 L 306.06 653.69 L 350.03 653.69 L 350.03 642.35 L 317.4 642.35 L 317.4 610.65 Z M 404.31 642.35 L 404.31 653.69 L 458.36 653.69 L 458.36 642.35 Z M 512.49 642.35 L 512.49 653.69 L 565.41 653.69 L 565.41 642.35 Z" fill="var(--icon-primary, #dae8fc)" stroke="none" stroke-width="0"/><path d="M 189.89 578.8 A 36.12 36.12 0 0 1 153.78 614.92 A 36.12 36.12 0 0 1 117.66 578.8 A 36.12 36.12 0 0 1 153.78 542.68 A 36.12 36.12 0 0 1 189.89 578.8 Z" fill="#ffffff" stroke="none" stroke-width="0" opacity="0.5"/></svg>