<svg xmlns="http://www.w3.org/2000/svg" viewBox="0 0 248.19 191.89" width="248.19" height="191.89"><path d="M 154.17 148.17 L 174.42 167.82 L 181.52 140.51 L 171.5 143.32 L 164.98 120.01 L 157.45 122.12 L 163.98 145.42 Z M 94.14 148.33 L 73.88 167.98 L 66.78 140.67 L 76.8 143.47 L 83.33 120.17 L 90.85 122.27 L 84.32 145.58 Z M 137.66 148.48 L 123.45 172.87 L 109.25 148.48 L 119.65 148.48 L 119.65 124.28 L 127.47 124.28 L 127.47 148.48 Z M 52.11 148.09 L 21.8 166.25 L 22.41 130.96 L 33.78 137.52 L 51.94 106.02 L 58.71 109.93 L 40.55 141.42 Z M 197.6 148.41 L 227.92 166.58 L 227.31 131.29 L 215.94 137.84 L 197.78 106.35 L 191.01 110.25 L 209.17 141.75 Z M 81.21 50.81 L 64.02 19.94 L 46.92 50.81 L 60.05 50.81 L 60.05 87.17 L 67.87 87.17 L 67.87 50.81 Z M 123.21 59.53 C 138.3 59.53 150.45 71.68 150.45 86.76 C 150.45 101.85 138.3 114 123.21 114 C 108.13 114 95.98 101.85 95.98 86.76 C 95.98 71.68 108.13 59.53 123.21 59.53 Z M 123.21 52.53 C 104.35 52.53 88.98 67.89 88.98 86.76 C 88.98 105.63 104.35 121 123.21 121 C 142.08 121 157.45 105.63 157.45 86.76 C 157.45 67.89 142.08 52.53 123.21 52.53 Z M 197.91 50.79 L 180.72 19.91 L 163.62 50.79 L 176.75 50.79 L 176.75 87.14 L 184.57 87.14 L 184.57 50.79 Z M 11.72 0 C 5.27 0 0 5.27 0 11.72 L 0 180.17 C 0 186.62 5.27 191.89 11.72 191.89 L 236.47 191.89 C 242.91 191.89 248.19 186.62 248.19 180.17 L 248.19 11.72 C 248.19 5.27 242.91 0 236.47 0 Z M 11.72 5.29 L 236.47 5.29 C 240.07 5.29 242.89 8.11 242.89 11.72 L 242.89 180.17 C 242.89 183.78 240.07 186.6 236.47 186.6 L 11.72 186.6 C 8.11 186.6 5.29 183.78 5.29 180.17 L 5.29 11.72 C 5.29 8.11 8.11 5.29 11.72 5.29 Z" fill="var(--icon-primary, #dae8fc)" stroke="none" stroke-width="0"/></svg>