<svg xmlns="http://www.w3.org/2000/svg" viewBox="0 0 938.03 725.26" width="938.03" height="725.26"><path d="M 44.28 20 L 893.74 20 C 907.37 20 918.03 30.66 918.03 44.28 L 918.03 680.96 C 918.03 694.59 907.37 705.25 893.74 705.25 L 44.28 705.25 C 30.66 705.25 20 694.59 20 680.96 L 20 44.28 C 20 30.66 30.66 20 44.28 20 Z M 44.28 0 C 19.92 0 0 19.92 0 44.28 L 0 680.96 C 0 705.33 19.92 725.26 44.28 725.26 L 893.74 725.26 C 918.1 725.26 938.03 705.33 938.03 680.96 L 938.03 44.28 C 938.03 19.92 918.1 0 893.74 0 Z M 512.71 454.84 C 506.08 454.84 500.03 456.16 495.16 458.7 C 490.29 461.25 485.94 465.55 485.94 471.53 C 485.94 475.59 487.96 478.88 490.78 481.37 L 492.27 492.05 L 354.9 492.05 C 340.79 492.05 328.25 498.1 318.53 506.36 C 308.81 514.63 301.75 525.1 298.32 535.15 L 298.27 535.32 L 282.02 595.62 L 281.98 595.77 C 279.26 608.5 284.47 620.87 292.08 630 C 299.69 639.13 309.72 645.72 320.06 645.72 L 613.83 645.72 C 626.17 645.72 638.33 639.51 646.96 630.3 C 655.58 621.09 660.83 608.17 656.98 595.14 L 656.97 595.12 L 638.08 532.79 L 638.07 532.77 C 630.54 506.82 604 492.05 582.49 492.05 L 537.26 492.05 L 537.25 478.46 C 538.62 476.48 539.48 474.17 539.48 471.53 C 539.48 465.55 535.11 461.25 530.25 458.7 C 525.38 456.16 519.33 454.84 512.71 454.84 Z M 393.54 235.76 L 393.54 243.31 L 393.54 396.74 L 551.49 396.74 L 551.49 235.76 Z M 100.26 168.95 L 133.56 232.65 L 147.6 210.68 L 207.88 249.2 L 207.88 307.16 L 129.98 307.16 L 129.98 281.09 L 67.63 316.84 L 129.98 350.44 L 129.98 324.37 L 207.88 324.37 L 207.88 382.33 L 147.6 420.85 L 133.56 398.88 L 100.26 462.58 L 170.9 457.32 L 156.86 435.35 L 216.16 397.46 L 365.82 397.46 L 365.82 236.46 L 219.89 236.46 L 156.86 196.18 L 170.9 174.21 Z M 844.77 167.91 L 774.13 173.18 L 788.17 195.14 L 725.14 235.43 L 579.21 235.43 L 579.21 396.42 L 728.88 396.42 L 788.17 434.31 L 774.13 456.28 L 844.77 461.54 L 811.48 397.84 L 797.44 419.81 L 737.16 381.29 L 737.16 323.33 L 815.05 323.33 L 815.05 349.4 L 877.41 315.8 L 815.05 280.05 L 815.05 306.12 L 737.16 306.12 L 737.16 248.16 L 797.44 209.64 L 811.48 231.61 Z M 463.92 84.2 L 463.92 164.84 L 437.84 164.84 L 473.59 227.2 L 507.19 164.84 L 481.12 164.84 L 481.12 84.2 Z" fill="var(--icon-primary, #dae8fc)" stroke="none" stroke-width="0"/><path d="M 354.9 503.39 L 493.86 503.39 L 499.67 545.04 C 500.97 554.42 509.09 561.67 520.71 561.67 C 531.44 561.67 537.3 554.63 537.3 546.76 L 537.27 503.39 L 582.49 503.39 C 598.47 503.39 621.43 516.06 627.19 535.95 L 627.2 535.98 L 646.12 598.39 C 648.57 606.77 645.31 615.47 638.68 622.55 C 632.04 629.64 622.18 634.39 613.83 634.39 L 320.06 634.39 C 315.25 634.39 306.78 629.92 300.79 622.74 C 294.81 615.57 291.33 606.4 293.07 598.17 L 309.07 538.78 C 311.71 531.05 317.75 521.9 325.87 515 C 334 508.08 344.03 503.39 354.9 503.39 Z M 512.71 466.17 C 517.74 466.17 522.23 467.31 525 468.76 C 527.77 470.2 528.14 471.42 528.14 471.53 C 528.14 471.64 527.77 472.84 525 474.29 C 522.23 475.73 517.74 476.87 512.71 476.87 C 507.68 476.87 503.18 475.73 500.41 474.29 C 497.64 472.84 497.27 471.64 497.27 471.53 C 497.27 471.42 497.64 470.2 500.41 468.76 C 503.18 467.31 507.68 466.17 512.71 466.17 Z M 222.99 251.58 L 350.71 251.58 L 350.71 382.34 L 222.99 382.34 Z M 408.66 250.87 L 536.38 250.87 L 536.38 381.62 L 408.66 381.62 Z M 594.33 250.54 L 722.04 250.54 L 722.04 381.3 L 594.33 381.3 Z" fill="var(--icon-secondary, #6c8ebf)" stroke="none" stroke-width="0"/></svg>