<svg xmlns="http://www.w3.org/2000/svg" viewBox="0 0 194.27 205.15" width="194.27" height="205.15"><path d="M 137.62 101.4 A 42.52 42.52 0 0 1 95.1 143.93 A 42.52 42.52 0 0 1 52.58 101.4 A 42.52 42.52 0 0 1 95.1 58.88 A 42.52 42.52 0 0 1 137.62 101.4 Z" fill="#00bceb" stroke="none" stroke-width="0"/><rect x="0" y="0" width="0" height="0" fill="none" stroke="var(--icon-secondary, #6c8ebf)" stroke-width="1"/><path d="M 103.23 183.8 L 103.23 189.01 L 111.11 189.01 L 111.11 183.8 Z M 91.51 183.8 L 91.51 189.01 L 99.39 189.01 L 99.39 183.8 Z M 79.8 183.8 L 79.8 189.01 L 87.68 189.01 L 87.68 183.8 Z M 103.23 173.79 L 103.23 179 L 111.11 179 L 111.11 173.79 Z M 91.51 173.79 L 91.51 179 L 99.39 179 L 99.39 173.79 Z M 79.8 173.79 L 79.8 179 L 87.68 179 L 87.68 173.79 Z M 103.23 163.78 L 103.23 169 L 111.11 169 L 111.11 163.78 Z M 91.51 163.78 L 91.51 169 L 99.39 169 L 99.39 163.78 Z M 79.8 163.78 L 79.8 169 L 87.68 169 L 87.68 163.78 Z M 96.15 157.1 C 111.26 157.11 125.98 158.22 140 160.42 C 136.19 181.89 117.47 198.15 94.89 198.15 C 72.27 198.15 53.54 181.85 49.76 160.33 C 65.41 158.17 80.98 157.09 96.15 157.1 Z M 85.47 6 L 88.89 6 L 88.89 28.05 L 91.54 28.05 L 91.54 6 L 94 6 L 94 28.05 L 96.64 28.05 L 96.64 6 L 99.1 6 L 99.1 28.05 L 101.75 28.05 L 101.75 6 L 107.02 6 C 120.97 60.31 157.87 108.16 187 134.68 L 183.43 142.43 L 164.14 131.78 L 162.86 134.1 L 182.32 144.84 L 181.28 147.08 L 161.67 136.25 L 160.39 138.57 L 180.17 149.49 L 179.14 151.73 L 159.21 140.72 L 157.93 143.03 L 178.03 154.14 L 174.27 162.3 C 129.58 148.24 74.44 147.64 20.34 159.57 L 16.77 152.5 L 36.56 141.56 L 35.28 139.25 L 15.57 150.13 L 14.47 147.94 L 34.1 137.1 L 32.82 134.78 L 13.27 145.57 L 12.16 143.38 L 31.63 132.63 L 30.35 130.32 L 10.97 141.02 L 7.29 133.72 C 48.33 92.52 74.97 46.82 85.47 6 Z M 80.87 0 L 80.31 2.29 C 70.44 42.79 43.57 89.36 1.55 131.06 L 0 132.59 L 17.06 166.4 L 19.35 165.88 C 27.16 164.1 35.01 162.6 42.84 161.36 C 47.14 186.2 68.83 205.15 94.89 205.15 C 120.85 205.15 142.5 186.32 146.9 161.6 C 156.67 163.42 166.07 165.8 174.98 168.73 L 177.53 169.57 L 194.27 133.23 L 192.62 131.75 C 163.71 105.95 125.52 56.79 112.22 2.29 L 111.66 0 Z" fill="var(--icon-primary, #dae8fc)" stroke="none" stroke-width="0"/></svg>