<svg xmlns="http://www.w3.org/2000/svg" viewBox="0 0 550.69 581.52" width="550.69" height="581.52"><path d="M 57.66 452.33 C 211.01 418.52 367.32 420.2 493.99 460.08 L 530.07 381.77 C 447.51 306.59 342.91 170.96 303.35 17.01 L 242.29 17.01 C 212.52 132.71 136.99 262.26 20.66 379.06 L 57.66 452.33 Z" fill="var(--icon-secondary, #6c8ebf)" stroke="none" stroke-width="0"/><path d="M 272.54 445.32 C 229.54 445.28 185.42 448.35 141.05 454.48 C 151.76 515.48 204.86 561.68 268.97 561.68 C 333.08 561.68 386.04 515.61 396.85 454.73 C 357.09 448.49 315.37 445.36 272.54 445.32 L 272.54 445.32 Z" fill="var(--icon-secondary, #6c8ebf)" stroke="none" stroke-width="0"/><path d="M 390.11 287.44 C 390.11 354.01 336.15 407.98 269.58 407.98 C 203.01 407.98 149.04 354.01 149.04 287.44 C 149.04 220.87 203.01 166.91 269.58 166.91 C 302.86 166.91 333 180.4 354.81 202.21 C 376.62 224.02 390.11 254.16 390.11 287.44 Z" fill="var(--icon-secondary, #6c8ebf)" stroke="none" stroke-width="0"/><rect x="0" y="0" width="0" height="0" fill="none" stroke="var(--icon-secondary, #6c8ebf)" stroke-width="1"/><path d="M 292.62 521 L 292.62 535.77 L 314.94 535.77 L 314.94 521 L 292.62 521 Z M 259.41 521 L 259.41 535.77 L 281.74 535.77 L 281.74 521 L 259.41 521 Z M 226.2 521 L 226.2 535.77 L 248.53 535.77 L 248.53 521 L 226.2 521 Z M 292.62 492.63 L 292.62 507.4 L 314.94 507.4 L 314.94 492.63 L 292.62 492.63 Z M 259.41 492.63 L 259.41 507.4 L 281.74 507.4 L 281.74 492.63 L 259.41 492.63 Z M 226.2 492.63 L 226.2 507.4 L 248.53 507.4 L 248.53 492.63 L 226.2 492.63 Z M 292.62 464.27 L 292.62 479.04 L 314.94 479.04 L 314.94 464.27 L 292.62 464.27 Z M 259.41 464.27 L 259.41 479.04 L 281.74 479.04 L 281.74 464.27 L 259.41 464.27 Z M 226.2 464.27 L 226.2 479.04 L 248.53 479.04 L 248.53 464.27 L 226.2 464.27 Z M 546 373.48 C 464.05 300.32 355.8 160.97 318.1 6.49 L 316.52 0 L 229.23 0 L 227.65 6.49 C 199.68 121.3 123.51 253.3 4.38 371.5 L 0 375.86 L 48.37 471.68 L 54.85 470.21 C 77 465.18 99.23 460.9 121.43 457.39 C 133.61 527.81 195.12 581.52 268.97 581.52 C 342.82 581.52 403.94 528.16 416.4 458.09 C 444.1 463.25 470.74 469.98 496.02 478.3 L 503.23 480.67 L 550.69 377.67 L 546 373.48 L 546 373.48 Z M 268.97 561.68 C 204.86 561.68 151.76 515.48 141.05 454.48 C 185.42 448.35 229.54 445.28 272.54 445.32 C 315.37 445.36 357.09 448.49 396.85 454.73 C 386.04 515.61 332.99 561.68 268.97 561.68 Z M 519.95 403.75 L 465.28 373.56 L 461.65 380.12 L 516.8 410.58 L 513.88 416.92 L 458.28 386.22 L 454.66 392.78 L 510.73 423.75 L 507.81 430.09 L 451.29 398.88 L 447.67 405.45 L 504.66 436.92 L 493.99 460.08 C 367.32 420.2 211.01 418.52 57.66 452.33 L 47.53 432.27 L 103.64 401.29 L 100.02 394.72 L 44.15 425.57 L 41.01 419.35 L 96.65 388.62 L 93.02 382.06 L 37.62 412.65 L 34.48 406.43 L 89.66 375.96 L 86.03 369.4 L 31.1 399.73 L 20.66 379.06 C 136.99 262.26 212.52 132.71 242.29 17.01 L 251.98 17.01 L 251.98 79.52 L 259.48 79.52 L 259.48 17.01 L 266.45 17.01 L 266.45 79.52 L 273.95 79.52 L 273.95 17.01 L 280.91 17.01 L 280.91 79.52 L 288.41 79.52 L 288.41 17.01 L 303.35 17.01 C 342.91 170.96 447.51 306.59 530.07 381.77 L 519.95 403.75 L 519.95 403.75 Z" fill="var(--icon-secondary, #6c8ebf)" stroke="none" stroke-width="0"/></svg>