<svg xmlns="http://www.w3.org/2000/svg" viewBox="0 0 190.99 191.89" width="190.99" height="191.89"><path d="M 93.58 142.68 L 86.84 155.35 A 7.88 7.88 0 0 0 85.7 159.4 A 7.88 7.88 0 0 0 93.58 167.29 A 7.88 7.88 0 0 0 101.47 159.4 A 7.88 7.88 0 0 0 100.24 155.19 Z M 65.62 142.68 L 58.88 155.35 A 7.88 7.88 0 0 0 57.74 159.4 A 7.88 7.88 0 0 0 65.63 167.29 A 7.88 7.88 0 0 0 73.51 159.4 A 7.88 7.88 0 0 0 72.28 155.19 Z M 121.54 142.68 L 114.79 155.35 A 7.88 7.88 0 0 0 113.66 159.4 A 7.88 7.88 0 0 0 121.54 167.29 A 7.88 7.88 0 0 0 129.42 159.4 A 7.88 7.88 0 0 0 128.2 155.19 Z M 79.6 119.26 L 72.86 131.93 A 7.88 7.88 0 0 0 71.72 135.99 A 7.88 7.88 0 0 0 79.6 143.87 A 7.88 7.88 0 0 0 87.49 135.99 A 7.88 7.88 0 0 0 86.26 131.77 Z M 51.64 119.26 L 44.9 131.93 A 7.88 7.88 0 0 0 43.76 135.99 A 7.88 7.88 0 0 0 51.65 143.87 A 7.88 7.88 0 0 0 59.53 135.99 A 7.88 7.88 0 0 0 58.3 131.77 Z M 107.56 119.26 L 100.81 131.93 A 7.88 7.88 0 0 0 99.68 135.99 A 7.88 7.88 0 0 0 107.56 143.87 A 7.88 7.88 0 0 0 115.44 135.99 A 7.88 7.88 0 0 0 114.22 131.77 Z M 135.52 119.26 L 128.77 131.93 A 7.88 7.88 0 0 0 127.64 135.99 A 7.88 7.88 0 0 0 135.52 143.87 A 7.88 7.88 0 0 0 143.4 135.99 A 7.88 7.88 0 0 0 142.18 131.77 Z M 104.93 26.84 C 102.43 26.88 99.89 27.14 97.38 27.65 C 85.8 30.67 78.35 36.99 76.49 47.5 C 68.17 43.1 60.01 44.13 54.98 47.92 C 48.84 52.89 46.96 59.07 47.8 64.84 C 33.04 64.7 22.93 74.51 22.93 89.56 C 22.93 99.31 28.65 115.3 47.11 115.3 L 139.02 115.27 C 155.77 115.27 163.14 108.75 164.02 97.83 C 165.37 88.37 160.46 78.26 150.03 76.14 C 150 72.35 149.13 70.69 146.91 67.82 C 144.59 65.38 141.78 64.55 138.83 64.7 C 140.13 56.44 140.39 46.87 132.21 37.57 C 126.14 30.78 115.79 26.68 104.93 26.84 Z M 96.79 53.4 L 118.81 58.34 L 118.81 75.98 C 118.81 88.32 109.95 101.77 97.41 106.16 L 96.78 106.38 L 96.16 106.16 C 85.54 102.43 74.76 91.83 74.76 75.98 L 74.76 59.84 L 74.76 58.34 Z M 96.79 57.25 L 92.51 58.21 L 92.53 60.32 L 85.31 61.94 L 85.34 59.82 L 78.52 61.35 L 78.52 75.98 C 78.52 89.8 87.68 98.88 96.77 102.34 C 107.2 98.33 115.05 86.25 115.05 75.98 L 115.05 61.35 L 108.23 59.82 L 108.27 61.94 L 101.04 60.32 L 101.06 58.21 Z M 96.71 64.64 L 108.13 67.94 L 87.62 88.99 C 85.15 85.24 83.45 80.29 83.45 73.95 L 83.31 67.99 Z M 110.26 70.47 L 110.25 73.95 C 110.25 84.38 103.81 93.58 96.85 97.06 C 94.43 95.92 91.87 94.14 89.64 91.63 Z M 11.72 5.29 L 179.27 5.29 C 182.88 5.29 185.7 8.11 185.7 11.72 L 185.7 180.17 C 185.7 183.78 182.88 186.6 179.27 186.6 L 11.72 186.6 C 8.11 186.6 5.29 183.78 5.29 180.17 L 5.29 11.72 C 5.29 8.11 8.11 5.29 11.72 5.29 Z M 11.72 0 C 5.27 0 0 5.27 0 11.72 L 0 180.17 C 0 186.62 5.27 191.89 11.72 191.89 L 179.27 191.89 C 185.72 191.89 190.99 186.62 190.99 180.17 L 190.99 11.72 C 190.99 5.27 185.72 0 179.27 0 Z" fill="var(--icon-primary, #dae8fc)" stroke="none" stroke-width="0"/></svg>