<svg xmlns="http://www.w3.org/2000/svg" viewBox="0 0 248.19 191.89" width="248.19" height="191.89"><path d="M 102.24 54.02 L 106.12 53.5 Q 106.79 56.8 108.38 58.26 Q 109.99 59.7 112.3 59.7 Q 115.03 59.7 116.91 57.81 Q 118.8 55.91 118.8 53.12 Q 118.8 50.45 117.06 48.72 Q 115.31 46.98 112.62 46.98 Q 111.52 46.98 109.89 47.41 L 110.32 44.01 Q 110.71 44.05 110.94 44.05 Q 113.42 44.05 115.4 42.76 Q 117.38 41.47 117.38 38.77 Q 117.38 36.64 115.94 35.24 Q 114.49 33.84 112.21 33.84 Q 109.95 33.84 108.44 35.27 Q 106.94 36.69 106.51 39.53 L 102.63 38.84 Q 103.34 34.94 105.86 32.81 Q 108.38 30.66 112.13 30.66 Q 114.71 30.66 116.88 31.78 Q 119.06 32.88 120.2 34.79 Q 121.36 36.71 121.36 38.86 Q 121.36 40.91 120.27 42.59 Q 119.17 44.27 117.01 45.26 Q 119.81 45.9 121.36 47.95 Q 122.91 49.97 122.91 53.03 Q 122.91 57.16 119.9 60.05 Q 116.88 62.91 112.28 62.91 Q 108.12 62.91 105.37 60.44 Q 102.63 57.96 102.24 54.02 Z M 98.04 58.63 L 98.04 62.35 L 77.18 62.35 Q 77.14 60.95 77.63 59.66 Q 78.43 57.53 80.17 55.46 Q 81.94 53.4 85.25 50.68 Q 90.4 46.46 92.21 44.01 Q 94.02 41.53 94.02 39.33 Q 94.02 37.03 92.36 35.46 Q 90.72 33.87 88.08 33.87 Q 85.28 33.87 83.6 35.55 Q 81.92 37.22 81.9 40.2 L 77.91 39.79 Q 78.32 35.33 80.99 33 Q 83.66 30.66 88.16 30.66 Q 92.7 30.66 95.35 33.18 Q 98 35.7 98 39.42 Q 98 41.32 97.23 43.15 Q 96.45 44.98 94.64 47 Q 92.86 49.02 88.68 52.56 Q 85.19 55.48 84.2 56.54 Q 83.21 57.57 82.56 58.63 Z M 67.73 62.35 L 63.85 62.35 L 63.85 37.66 Q 62.45 38.99 60.17 40.33 Q 57.91 41.66 56.1 42.33 L 56.1 38.58 Q 59.35 37.05 61.78 34.88 Q 64.22 32.7 65.23 30.66 L 67.73 30.66 Z M 37.73 66.9 L 37.73 63.02 Q 34.83 62.65 33 61.73 Q 31.19 60.78 29.85 58.69 Q 28.54 56.6 28.32 53.59 L 32.22 52.86 Q 32.67 55.98 33.81 57.44 Q 35.45 59.51 37.73 59.75 L 37.73 47.41 Q 35.34 46.96 32.85 45.56 Q 30.99 44.52 29.98 42.69 Q 28.99 40.86 28.99 38.54 Q 28.99 34.4 31.92 31.84 Q 33.88 30.12 37.73 29.73 L 37.73 27.88 L 40.02 27.88 L 40.02 29.73 Q 43.4 30.05 45.38 31.71 Q 47.92 33.82 48.44 37.5 L 44.43 38.11 Q 44.09 35.83 42.99 34.62 Q 41.91 33.39 40.02 33 L 40.02 44.18 Q 42.94 44.91 43.89 45.32 Q 45.7 46.12 46.84 47.26 Q 47.98 48.4 48.59 49.97 Q 49.21 51.54 49.21 53.37 Q 49.21 57.4 46.65 60.09 Q 44.09 62.78 40.02 62.98 L 40.02 66.9 Z M 37.73 32.96 Q 35.47 33.31 34.16 34.77 Q 32.87 36.23 32.87 38.24 Q 32.87 40.22 33.97 41.55 Q 35.09 42.89 37.73 43.68 Z M 40.02 59.75 Q 42.28 59.47 43.74 57.79 Q 45.23 56.11 45.23 53.63 Q 45.23 51.52 44.17 50.25 Q 43.14 48.96 40.02 47.95 Z M 84.9 134.43 L 109.02 134.43 L 109.02 158.23 L 84.9 158.23 Z M 53.41 134.43 L 77.54 134.43 L 77.54 158.23 L 53.41 158.23 Z M 21.93 134.43 L 46.05 134.43 L 46.05 158.23 L 21.93 158.23 Z M 84.9 103.33 L 109.02 103.33 L 109.02 127.14 L 84.9 127.14 Z M 53.41 103.33 L 77.54 103.33 L 77.54 127.14 L 53.41 127.14 Z M 21.93 103.33 L 46.05 103.33 L 46.05 127.14 L 21.93 127.14 Z M 84.9 72.23 L 109.02 72.23 L 109.02 96.04 L 84.9 96.04 Z M 53.41 72.23 L 77.54 72.23 L 77.54 96.04 L 53.41 96.04 Z M 21.93 72.23 L 46.05 72.23 L 46.05 96.04 L 21.93 96.04 Z M 138.14 143.06 L 227 143.06 L 227 158.48 L 138.14 158.48 Z M 145.58 31.63 L 219.65 31.63 C 223.75 31.63 227 34.93 227 39.02 L 227 127.22 C 227 131.32 223.75 134.61 219.65 134.61 L 145.58 134.61 C 141.49 134.61 138.14 131.32 138.14 127.22 L 138.14 39.02 C 138.14 34.93 141.49 31.63 145.58 31.63 Z M 11.72 0 C 5.27 0 0 5.27 0 11.72 L 0 180.17 C 0 186.62 5.27 191.89 11.72 191.89 L 236.47 191.89 C 242.91 191.89 248.19 186.62 248.19 180.17 L 248.19 11.72 C 248.19 5.27 242.91 0 236.47 0 Z M 11.72 5.29 L 236.47 5.29 C 240.07 5.29 242.89 8.11 242.89 11.72 L 242.89 180.17 C 242.89 183.78 240.07 186.6 236.47 186.6 L 11.72 186.6 C 8.11 186.6 5.29 183.78 5.29 180.17 L 5.29 11.72 C 5.29 8.11 8.11 5.29 11.72 5.29 Z" fill="var(--icon-primary, #dae8fc)" stroke="none" stroke-width="0"/></svg>