<svg xmlns="http://www.w3.org/2000/svg" viewBox="0 0 703.52 543.94" width="703.52" height="543.94"><path d="M 670.31 0 L 33.21 0 C 14.94 0 0 14.94 0 33.21 L 0 510.72 C 0 528.99 14.94 543.94 33.21 543.94 L 670.31 543.94 C 688.58 543.94 703.52 528.99 703.52 510.72 L 703.52 33.21 C 703.52 14.94 688.58 0 670.31 0 Z" fill="var(--icon-secondary, #6c8ebf)" stroke="none" stroke-width="0"/><path d="M 670.31 15 L 33.21 15 C 22.99 15 15 22.99 15 33.21 L 15 510.72 C 15 520.94 22.99 528.94 33.21 528.94 L 670.31 528.94 C 680.53 528.94 688.52 520.94 688.52 510.72 L 688.52 33.21 C 688.52 22.99 680.53 15 670.31 15 Z M 220.06 169.12 C 221.57 165.09 223.97 161.12 227.26 157.22 C 230.6 153.31 235.4 148.79 241.67 143.67 C 251.39 135.69 257.96 129.38 261.38 124.74 C 264.8 120.07 266.51 115.65 266.51 111.5 C 266.51 107.35 264.94 103.48 261.81 100.51 C 258.72 97.5 254.67 96 249.66 96 C 244.37 96 240.14 97.58 236.97 100.76 C 233.79 103.93 232.19 108.33 232.14 113.94 L 220.85 112.78 C 221.63 104.36 224.54 97.95 229.58 93.56 C 234.63 89.12 241.4 86.9 249.91 86.9 C 258.42 86.9 265.29 89.28 270.29 94.04 C 275.3 98.8 277.8 104.7 277.8 111.74 C 277.8 115.32 277.07 118.84 275.6 122.3 C 274.14 125.76 271.7 129.4 268.28 133.23 C 264.9 137.05 259.26 142.3 251.37 148.98 C 244.78 154.51 240.55 158.27 238.68 160.27 C 236.8 162.22 235.26 164.19 234.04 166.19 L 277.92 166.19 L 277.92 176.75 L 218.78 176.75 C 218.7 174.1 219.12 171.56 220.06 169.12 L 220.06 169.12 Z M 159.02 109.36 C 165.17 106.47 170.54 102.98 175.14 98.87 C 179.74 94.76 182.99 90.77 184.9 86.9 L 191.98 86.9 L 191.98 176.75 L 181 176.75 L 181 106.74 C 178.35 109.26 174.87 111.78 170.56 114.31 C 166.29 116.83 162.44 118.72 159.02 119.98 C 159.02 119.98 159.02 109.36 159.02 109.36 Z M 130.55 448.54 L 62.16 448.54 L 62.16 381.06 L 130.55 381.06 L 130.55 448.54 Z M 130.55 360.39 L 62.16 360.39 L 62.16 292.91 L 130.55 292.91 L 130.55 360.39 Z M 130.55 272.24 L 62.16 272.24 L 62.16 204.76 L 130.55 204.76 L 130.55 272.24 Z M 132.23 170.34 C 127.39 175.42 121.12 178.15 113.43 178.52 L 113.43 189.63 L 106.96 189.63 L 106.96 178.64 C 101.47 177.95 96.99 176.73 93.53 174.98 C 90.12 173.19 87.15 170.32 84.62 166.37 C 82.14 162.42 80.7 157.6 80.29 151.91 L 91.34 149.83 C 92.19 155.73 93.7 160.06 95.85 162.83 C 98.95 166.74 102.65 168.91 106.96 169.36 L 106.96 134.39 C 102.45 133.53 97.83 131.78 93.11 129.14 C 89.61 127.19 86.9 124.48 84.99 121.02 C 83.12 117.56 82.18 113.64 82.18 109.24 C 82.18 101.43 84.95 95.1 90.48 90.26 C 94.19 87 99.68 85.01 106.96 84.28 L 106.96 79.03 L 113.43 79.03 L 113.43 84.28 C 119.82 84.89 124.89 86.76 128.63 89.89 C 133.43 93.88 136.32 99.35 137.3 106.31 L 125.94 108.02 C 125.29 103.71 123.93 100.41 121.85 98.13 C 119.82 95.81 117.01 94.29 113.43 93.56 L 113.43 125.23 C 118.97 126.62 122.63 127.69 124.42 128.47 C 127.84 129.97 130.62 131.8 132.78 133.96 C 134.94 136.12 136.58 138.68 137.72 141.65 C 138.9 144.62 139.49 147.84 139.49 151.29 C 139.49 158.9 137.07 165.25 132.23 170.34 L 132.23 170.34 Z M 219.79 448.54 L 151.41 448.54 L 151.41 381.06 L 219.79 381.06 L 219.79 448.54 L 219.79 448.54 Z M 219.79 360.39 L 151.41 360.39 L 151.41 292.91 L 219.79 292.91 L 219.79 360.39 L 219.79 360.39 Z M 219.79 272.24 L 151.41 272.24 L 151.41 204.76 L 219.79 204.76 L 219.79 272.24 L 219.79 272.24 Z M 309.04 448.54 L 240.65 448.54 L 240.65 381.06 L 309.04 381.06 L 309.04 448.54 Z M 309.04 360.39 L 240.65 360.39 L 240.65 292.91 L 309.04 292.91 L 309.04 360.39 Z M 309.04 272.24 L 240.65 272.24 L 240.65 204.76 L 309.04 204.76 L 309.04 272.24 Z M 339.87 170.22 C 334.18 175.63 326.97 178.33 318.27 178.33 C 310.41 178.33 303.88 175.99 298.67 171.31 C 293.51 166.64 290.56 160.57 289.82 153.13 L 300.81 151.66 C 302.07 157.89 304.21 162.38 307.22 165.15 C 310.27 167.88 313.97 169.24 318.33 169.24 C 323.49 169.24 327.85 167.45 331.39 163.87 C 334.97 160.29 336.76 155.85 336.76 150.56 C 336.76 145.27 335.11 141.37 331.82 138.11 C 328.52 134.82 324.33 133.17 319.24 133.17 C 317.17 133.17 314.58 133.57 311.49 134.39 L 312.71 124.74 C 313.44 124.83 314.03 124.87 314.48 124.87 C 319.16 124.87 323.37 123.65 327.12 121.2 C 330.86 118.76 332.73 115 332.73 109.91 C 332.73 105.88 331.37 102.55 328.64 99.9 C 325.92 97.26 322.4 95.94 318.08 95.94 C 313.76 95.94 310.25 97.28 307.4 99.96 C 304.55 102.65 302.72 106.68 301.91 112.05 L 290.92 110.1 C 292.26 102.73 295.32 97.03 300.08 93.01 C 304.84 88.94 310.76 86.9 317.84 86.9 C 322.72 86.9 327.22 87.96 331.33 90.08 C 335.44 92.15 338.57 95 340.73 98.62 C 342.92 102.24 344.02 106.09 344.02 110.16 C 344.02 114.02 342.98 117.54 340.91 120.72 C 338.83 123.89 335.76 126.41 331.69 128.28 C 336.98 129.51 341.09 132.05 344.02 135.91 C 346.95 139.74 348.42 144.54 348.42 150.32 C 348.42 158.13 345.57 164.76 339.87 170.22 L 339.87 170.22 Z M 643.45 449.24 L 391.57 449.24 L 391.57 405.53 L 643.45 405.53 L 643.45 449.24 Z M 643.45 360.62 C 643.45 372.23 634.24 381.58 622.62 381.58 L 412.68 381.58 C 401.06 381.58 391.57 372.23 391.57 360.62 L 391.57 110.62 C 391.57 99 401.06 89.65 412.68 89.65 L 622.62 89.65 C 634.24 89.65 643.45 99 643.45 110.62 L 643.45 360.62 Z M 128.2 152.03 C 128.2 156.71 126.8 160.63 123.99 163.81 C 121.22 166.98 117.7 168.83 113.43 169.36 L 113.43 135.91 C 119.33 137.83 123.26 140 125.21 142.44 C 127.21 144.85 128.2 148.04 128.2 152.03 Z M 106.96 93.43 L 106.96 123.83 C 101.96 122.32 98.4 120.31 96.28 117.79 C 94.21 115.26 93.17 112.13 93.17 108.39 C 93.17 104.65 94.39 101.33 96.83 98.56 C 99.31 95.79 102.69 94.08 106.96 93.43 Z" fill="var(--icon-secondary, #6c8ebf)" stroke="none" stroke-width="0"/></svg>