<svg xmlns="http://www.w3.org/2000/svg" viewBox="0 0 190.99 191.89" width="190.99" height="191.89"><path d="M 115.29 84.86 A 3.29 3.29 0 0 0 112 81.57 A 3.29 3.29 0 0 0 108.7 84.86 A 3.29 3.29 0 0 0 112 88.16 A 3.29 3.29 0 0 0 115.29 84.86 Z M 63.45 106.75 L 65.01 102.9 C 65.6 101.36 66.25 100.47 67.91 99.83 L 90.59 90.43 C 92.64 89.34 92.74 88.81 93.18 85.82 C 94.39 78.79 99.38 73.12 107.88 73.12 C 115.89 73.12 123.12 79.38 123.12 88.01 C 123.12 96.18 115.84 103.47 108.01 103.47 C 104.3 103.47 99.73 101.84 97.2 98.77 C 96.6 98.62 96.07 98.84 95.58 99.28 L 93.93 103.89 L 92.28 104.33 L 90.48 100.84 L 86.4 103.23 L 84.75 106.02 L 83.67 106.55 L 81.89 105.93 L 79.55 106.55 L 79.11 108.48 L 77.04 109.56 L 74.45 108.92 L 73.42 109.4 L 72.3 111.91 L 70.47 112.5 L 64.35 110.15 C 63.33 109.68 62.67 108.41 63.45 106.75 Z M 93.67 21.64 C 52.11 21.64 18.33 55.41 18.33 96.98 C 18.33 138.54 52.11 172.31 93.67 172.31 C 135.24 172.31 169.01 138.54 169.01 96.98 C 169.01 55.41 135.24 21.64 93.67 21.64 Z M 95.04 28.66 C 104.02 28.83 112.57 30.73 120.37 34.04 C 120.41 37.35 120.43 40.49 120.41 43.54 A 11.93 11.93 0 0 0 109.15 55.15 C 108.85 55.06 108.55 54.97 108.24 54.88 C 97.19 51.68 86.97 50.34 77.69 50.13 A 11.93 11.93 0 0 0 75.46 45.5 C 83.25 37.28 90.63 31.68 95.04 28.66 Z M 91.52 28.68 C 86.99 31.95 80.67 37.04 74.05 44.01 A 11.93 11.93 0 0 0 66.09 40.95 A 11.93 11.93 0 0 0 56.76 45.47 C 55.49 44.19 54.27 42.99 53.14 41.93 C 63.94 33.97 77.16 29.12 91.52 28.68 Z M 122.38 34.93 C 130.78 38.82 138.25 44.36 144.38 51.14 C 143.24 57.4 141.75 64.46 139.28 71.94 C 136.03 69.31 132.58 66.75 128.9 64.41 A 11.93 11.93 0 0 0 132.99 55.44 A 11.93 11.93 0 0 0 122.4 43.6 C 122.43 40.8 122.42 37.93 122.38 34.93 Z M 51.53 43.16 C 52.79 44.34 54.18 45.69 55.63 47.15 A 11.93 11.93 0 0 0 54.21 51.98 C 48.67 52.96 43.7 54.19 39.4 55.42 C 42.91 50.84 46.98 46.72 51.53 43.16 Z M 71.2 47.89 A 1.5 1.5 0 0 1 72.41 50.35 L 65.65 58.73 A 1.5 1.5 0 0 1 63.45 58.88 L 58.57 54.27 A 1.5 1.5 0 1 1 60.64 52.09 L 64.33 55.59 L 70.08 48.46 A 1.5 1.5 0 0 1 71.2 47.89 Z M 117.11 49.61 C 117.44 49.61 117.77 49.75 118 49.99 L 121.78 53.75 L 125.4 50.14 C 126.58 48.92 128.39 50.74 127.16 51.91 L 123.56 55.51 L 127.18 59.13 C 128.41 60.3 126.6 62.12 125.42 60.9 L 121.79 57.28 L 117.98 61.07 C 116.8 62.25 115.04 60.48 116.22 59.3 L 120.01 55.52 L 116.24 51.76 C 115.43 50.98 115.98 49.61 117.11 49.61 Z M 77.99 52.1 C 87.02 52.35 96.95 53.69 107.69 56.8 C 108.22 56.95 108.76 57.12 109.29 57.29 A 11.93 11.93 0 0 0 118.45 67.07 C 118.22 68.34 117.96 69.62 117.67 70.94 L 119.55 71.64 C 119.87 70.17 120.16 68.74 120.42 67.34 A 11.93 11.93 0 0 0 121.06 67.37 A 11.93 11.93 0 0 0 127.11 65.7 C 131.19 68.24 135 71.04 138.56 73.95 C 133.64 87.95 125.13 103.26 108.56 117.51 C 105.02 120.55 101.21 123.2 97.28 125.57 C 100.71 119.89 104.06 113.81 107.02 107.38 L 104.8 107.41 C 101.48 114.52 97.7 121.21 93.86 127.35 C 93.55 127.52 93.23 127.69 92.92 127.85 A 11.93 11.93 0 0 0 92.11 126.11 C 91.89 119.53 91.11 113.57 89.76 107.47 L 88.15 109.34 C 89.11 113.96 89.74 118.52 90.02 123.4 A 11.93 11.93 0 0 0 81.73 120.03 A 11.93 11.93 0 0 0 72.08 124.97 C 64.69 121.41 58 116.77 52.11 111.83 A 11.93 11.93 0 0 0 53.42 106.42 A 11.93 11.93 0 0 0 46.73 95.72 C 48.81 88.96 51.58 81.78 55.31 74.13 C 57.13 70.4 59.13 66.97 61.22 63.75 A 11.93 11.93 0 0 0 66.09 64.8 A 11.93 11.93 0 0 0 70.16 64.07 C 74.26 69.89 77.95 76.4 80.42 83.47 C 81.11 85.43 81.77 87.32 82.38 89.14 L 84.09 87.95 C 83.53 86.29 82.93 84.58 82.31 82.8 C 79.8 75.63 76.1 69.07 72 63.22 A 11.93 11.93 0 0 0 78.02 52.87 A 11.93 11.93 0 0 0 77.99 52.1 Z M 146.06 53.07 C 155.33 64.12 161.16 78.15 161.92 93.53 C 161.64 93.68 161.36 93.83 161.1 93.97 C 156.53 88.18 149.74 80.58 140.96 73.24 C 143.4 66 144.91 59.16 146.06 53.07 Z M 54.23 53.97 A 11.93 11.93 0 0 0 59.46 62.78 C 57.36 66.04 55.35 69.5 53.52 73.25 C 49.76 80.95 46.98 88.18 44.89 94.99 A 11.93 11.93 0 0 0 41.49 94.49 A 11.93 11.93 0 0 0 35.96 95.86 C 31.63 90.86 28.44 86.54 26.59 83.89 C 28.42 74.44 32.19 65.69 37.47 58.07 C 42.19 56.64 47.8 55.12 54.23 53.97 Z M 140.19 75.22 C 148.45 82.21 154.86 89.4 159.3 94.96 C 159.27 94.97 159.25 94.98 159.23 94.99 A 11.93 11.93 0 0 0 150 90.62 A 11.93 11.93 0 0 0 138.08 102.54 A 11.93 11.93 0 0 0 139.26 107.7 C 132.28 112.9 125.18 119.11 119.08 126.3 C 118.87 126.56 118.67 126.8 118.45 127.05 A 11.93 11.93 0 0 0 112.06 125.18 A 11.93 11.93 0 0 0 100.88 133 C 98.52 132.68 96.12 132.28 93.65 131.78 A 11.93 11.93 0 0 0 93.64 131.35 C 94.18 130.54 94.71 129.75 95.24 128.9 C 100.34 126.07 105.32 122.93 109.86 119.03 C 126.48 104.74 135.14 89.32 140.19 75.22 Z M 26.1 86.68 C 28.01 89.31 30.76 92.92 34.24 96.96 A 11.93 11.93 0 0 0 29.57 106.42 A 11.93 11.93 0 0 0 39.91 118.22 C 39.05 125.83 39.07 132.61 39.49 138.66 C 30.61 127.13 25.33 112.68 25.33 96.98 C 25.33 93.47 25.6 90.04 26.1 86.68 Z M 160.57 96.54 C 161.08 97.2 161.55 97.81 161.99 98.41 C 161.97 99.41 161.93 100.41 161.87 101.41 A 11.93 11.93 0 0 0 160.36 96.66 C 160.43 96.62 160.5 96.58 160.57 96.54 Z M 146.05 96.71 C 146.38 96.71 146.71 96.85 146.94 97.09 L 150.72 100.85 L 154.34 97.25 C 155.52 96.02 157.33 97.84 156.1 99.02 L 152.5 102.61 L 156.12 106.23 C 157.35 107.4 155.54 109.22 154.36 108 L 150.73 104.38 L 146.92 108.17 C 145.74 109.35 143.98 107.58 145.16 106.4 L 148.95 102.62 L 145.18 98.86 C 144.37 98.08 144.92 96.71 146.05 96.71 Z M 46.6 101.43 A 1.5 1.5 0 0 1 47.81 103.89 L 41.05 112.28 A 1.5 1.5 0 0 1 38.85 112.43 L 33.97 107.81 A 1.5 1.5 0 1 1 36.04 105.64 L 39.73 109.13 L 45.48 102.01 A 1.5 1.5 0 0 1 46.6 101.43 Z M 161.42 105.99 C 160.39 113.85 158.02 121.29 154.56 128.07 C 146.79 130.38 136.28 133.1 123.54 133.87 A 11.93 11.93 0 0 0 120.05 128.27 C 120.24 128.04 120.41 127.83 120.61 127.6 C 126.53 120.62 133.46 114.54 140.29 109.44 A 11.93 11.93 0 0 0 150 114.47 A 11.93 11.93 0 0 0 161.42 105.99 Z M 51.02 113.57 C 56.93 118.49 63.63 123.12 71.05 126.7 A 11.93 11.93 0 0 0 69.81 131.96 A 11.93 11.93 0 0 0 70.94 136.99 C 58.18 140.9 47.58 142.19 42.79 142.62 C 42.43 142.22 42.07 141.81 41.71 141.39 C 41.09 134.7 40.87 127.08 41.85 118.33 A 11.93 11.93 0 0 0 51.02 113.57 Z M 77.78 126.13 C 78.11 126.13 78.44 126.26 78.67 126.51 L 82.45 130.27 L 86.07 126.66 C 87.25 125.44 89.06 127.26 87.83 128.43 L 84.23 132.03 L 87.85 135.64 C 87.97 135.75 88.06 135.87 88.12 135.99 C 87.7 136.6 87.27 137.21 86.85 137.81 C 86.59 137.78 86.33 137.66 86.09 137.41 L 82.46 133.8 L 78.65 137.59 C 77.47 138.77 75.71 137 76.89 135.82 L 80.68 132.03 L 76.91 128.28 C 76.1 127.5 76.65 126.13 77.78 126.13 Z M 153.23 130.54 C 141.74 150.91 120.1 164.77 95.14 165.29 C 97.88 158.55 101.15 152.81 105.28 146.92 A 11.93 11.93 0 0 0 112.06 149.03 A 11.93 11.93 0 0 0 123.99 137.1 A 11.93 11.93 0 0 0 123.9 135.81 C 135.74 135.07 145.67 132.71 153.23 130.54 Z M 117.17 132.12 A 1.5 1.5 0 0 1 118.38 134.58 L 111.61 142.96 A 1.5 1.5 0 0 1 109.41 143.11 L 104.54 138.5 A 1.5 1.5 0 1 1 106.6 136.32 L 110.3 139.82 L 116.04 132.69 A 1.5 1.5 0 0 1 117.17 132.12 Z M 93.51 133.76 C 95.83 134.22 98.11 134.61 100.34 134.92 A 11.93 11.93 0 0 0 100.13 137.1 A 11.93 11.93 0 0 0 103.74 145.63 C 99.32 151.9 95.87 158.02 92.97 165.3 C 85.14 165.23 77.63 163.84 70.65 161.34 C 73.51 158.19 79.03 151.85 85.34 143.31 A 11.93 11.93 0 0 0 93.51 133.76 Z M 71.97 138.78 A 11.93 11.93 0 0 0 81.73 143.89 A 11.93 11.93 0 0 0 82.44 143.86 C 76.28 152.05 71.05 157.95 68.63 160.59 C 59.45 156.98 51.25 151.44 44.52 144.48 C 50.01 143.92 60.13 142.46 71.97 138.78 Z M 11.72 5.29 L 179.27 5.29 C 182.88 5.29 185.7 8.11 185.7 11.72 L 185.7 180.17 C 185.7 183.78 182.88 186.6 179.27 186.6 L 11.72 186.6 C 8.11 186.6 5.29 183.78 5.29 180.17 L 5.29 11.72 C 5.29 8.11 8.11 5.29 11.72 5.29 Z M 11.72 0 C 5.27 0 0 5.27 0 11.72 L 0 180.17 C 0 186.62 5.27 191.89 11.72 191.89 L 179.27 191.89 C 185.72 191.89 190.99 186.62 190.99 180.17 L 190.99 11.72 C 190.99 5.27 185.72 0 179.27 0 Z" fill="var(--icon-primary, #dae8fc)" stroke="none" stroke-width="0"/></svg>