<svg xmlns="http://www.w3.org/2000/svg" viewBox="0 0 938.03 725.26" width="938.03" height="725.26"><path d="M 238.22 119.12 L 238.22 214.56 L 250.85 214.56 L 250.85 175.76 L 275.33 175.76 C 288.82 175.76 298.16 172.96 303.32 167.36 C 308.49 161.72 311.07 154.84 311.07 146.73 C 311.07 142 310.09 137.65 308.14 133.71 C 306.23 129.76 303.69 126.7 300.52 124.53 C 297.35 122.31 293.42 120.81 288.74 120.03 C 285.39 119.43 280.56 119.12 274.22 119.12 Z M 370.38 119.12 L 370.38 132.6 L 382.1 132.6 L 382.1 119.12 Z M 250.85 130.38 L 275.26 130.38 C 280.99 130.38 284.92 130.67 287.04 131.23 C 290.34 132.14 292.99 134.03 294.99 136.89 C 297.03 139.72 298.05 143.12 298.05 147.12 C 298.05 152.63 296.33 156.9 292.9 159.94 C 289.48 162.98 283.68 164.5 275.52 164.5 L 250.85 164.5 Z M 351.17 143.86 C 348.44 143.86 345.92 144.64 343.62 146.21 C 341.36 147.77 338.89 151 336.2 155.91 L 336.2 145.42 L 325.65 145.42 L 325.65 214.56 L 337.37 214.56 L 337.37 178.37 C 337.37 173.42 338.02 168.86 339.32 164.7 C 340.19 161.96 341.65 159.83 343.69 158.31 C 345.73 156.75 348.03 155.97 350.59 155.97 C 353.45 155.97 356.32 156.82 359.18 158.51 L 363.22 147.64 C 359.14 145.12 355.12 143.86 351.17 143.86 Z M 431.45 143.86 C 426.84 143.86 422.74 144.9 419.14 146.99 C 415.54 149.03 412.65 151.74 410.48 155.12 L 410.48 145.42 L 400 145.42 L 400 214.56 L 411.72 214.56 L 411.72 178.69 C 411.72 172.4 412.35 167.58 413.61 164.24 C 414.87 160.9 416.88 158.36 419.66 156.62 C 422.48 154.88 425.54 154.02 428.84 154.02 C 433.18 154.02 436.31 155.32 438.22 157.92 C 440.13 160.53 441.08 164.43 441.08 169.64 L 441.08 214.56 L 452.8 214.56 L 452.8 174.39 C 452.8 167.28 454.41 162.11 457.62 158.9 C 460.83 155.65 464.87 154.02 469.73 154.02 C 472.42 154.02 474.76 154.65 476.76 155.91 C 478.75 157.16 480.12 158.83 480.86 160.92 C 481.64 162.96 482.03 166.32 482.03 171.01 L 482.03 214.56 L 493.69 214.56 L 493.69 167.1 C 493.69 159.2 491.84 153.37 488.15 149.59 C 484.46 145.77 479.19 143.86 472.33 143.86 C 463.56 143.86 456.45 147.9 450.98 155.97 C 449.63 152.15 447.31 149.18 444.01 147.05 C 440.75 144.92 436.57 143.86 431.45 143.86 Z M 540.43 143.86 C 534.48 143.86 529.25 144.69 524.74 146.34 C 520.23 147.94 516.78 150.26 514.39 153.3 C 512 156.3 510.29 160.25 509.24 165.15 L 520.7 166.71 C 521.96 161.81 523.89 158.4 526.5 156.49 C 529.15 154.54 533.22 153.56 538.74 153.56 C 544.64 153.56 549.09 154.89 552.08 157.53 C 554.3 159.49 555.4 162.85 555.4 167.63 C 555.4 168.06 555.38 169.08 555.34 170.68 C 550.87 172.25 543.9 173.59 534.44 174.72 C 529.8 175.28 526.32 175.87 524.02 176.48 C 520.9 177.35 518.08 178.63 515.56 180.32 C 513.09 182.01 511.07 184.27 509.51 187.09 C 507.99 189.87 507.23 192.95 507.23 196.34 C 507.23 202.11 509.27 206.86 513.35 210.59 C 517.43 214.28 523.26 216.13 530.86 216.13 C 535.46 216.13 539.76 215.37 543.75 213.85 C 547.79 212.33 551.97 209.72 556.31 206.04 C 556.66 209.29 557.44 212.13 558.66 214.56 L 570.9 214.56 C 569.42 211.92 568.43 209.16 567.9 206.3 C 567.43 203.39 567.19 196.49 567.19 185.59 L 567.19 169.97 C 567.19 164.76 566.99 161.16 566.6 159.16 C 565.91 155.95 564.69 153.3 562.96 151.22 C 561.22 149.09 558.51 147.33 554.82 145.95 C 551.13 144.56 546.33 143.86 540.43 143.86 Z M 610.81 143.86 C 608.07 143.86 605.56 144.64 603.26 146.21 C 601 147.77 598.52 151 595.83 155.91 L 595.83 145.42 L 585.29 145.42 L 585.29 214.56 L 597.01 214.56 L 597.01 178.37 C 597.01 173.42 597.66 168.86 598.96 164.7 C 599.83 161.96 601.28 159.83 603.32 158.31 C 605.36 156.75 607.66 155.97 610.22 155.97 C 613.09 155.97 615.95 156.82 618.81 158.51 L 622.85 147.64 C 618.77 145.12 614.76 143.86 610.81 143.86 Z M 370.38 145.42 L 370.38 214.56 L 382.1 214.56 L 382.1 145.42 Z M 623.31 145.42 L 649.54 214.7 C 649.07 215.95 648.72 216.91 648.5 217.56 C 646.85 222.2 645.66 225.11 644.92 226.28 C 643.92 227.85 642.64 229.06 641.08 229.93 C 639.52 230.8 637.43 231.23 634.83 231.23 C 632.92 231.23 630.69 230.88 628.13 230.19 L 629.43 241.19 C 632.21 242.15 634.72 242.63 636.98 242.63 C 640.71 242.63 643.92 241.71 646.62 239.89 C 649.31 238.11 651.69 235.29 653.78 231.43 C 655.34 228.56 657.53 223.33 660.35 215.74 L 686.65 145.42 L 674.94 145.42 L 660.16 185.72 C 658.29 190.84 656.68 196.1 655.34 201.48 C 653.86 195.88 652.19 190.54 650.33 185.46 L 635.94 145.42 Z M 555.34 179.86 L 555.34 184.16 C 555.34 189.33 554.71 193.23 553.45 195.88 C 551.8 199.31 549.22 202.02 545.7 204.02 C 542.19 205.97 538.17 206.95 533.66 206.95 C 529.1 206.95 525.63 205.91 523.24 203.82 C 520.9 201.74 519.73 199.13 519.73 196.01 C 519.73 193.97 520.27 192.13 521.35 190.48 C 522.44 188.78 523.98 187.5 525.98 186.63 C 527.97 185.77 531.38 184.99 536.2 184.29 C 544.7 183.08 551.08 181.6 555.34 179.86 Z M 141.04 306.7 L 51.33 370.53 L 141.04 434.35 L 141.04 390.92 L 243.95 390.92 L 243.95 350.13 L 141.04 350.13 Z M 797.86 306.7 L 797.86 350.13 L 694.96 350.13 L 694.96 390.92 L 797.86 390.92 L 797.86 434.35 L 887.57 370.53 Z M 362.76 324.95 A 64.75 64.75 0 0 0 298.01 389.7 A 64.75 64.75 0 0 0 328.7 444.68 C 304.81 472.96 291.31 510.21 291.31 547.06 L 291.31 609.97 L 434.21 609.97 L 434.21 547.06 C 434.21 509.79 417.33 474.03 394.95 445.79 A 64.75 64.75 0 0 0 427.51 389.7 A 64.75 64.75 0 0 0 362.76 324.95 Z M 576.26 324.95 A 64.75 64.75 0 0 0 511.51 389.7 A 64.75 64.75 0 0 0 542.2 444.68 C 518.31 472.96 504.81 510.21 504.81 547.06 L 504.81 609.97 L 647.71 609.97 L 647.71 547.06 C 647.71 509.79 630.83 474.03 608.45 445.79 A 64.75 64.75 0 0 0 641.01 389.7 A 64.75 64.75 0 0 0 576.26 324.95 Z M 154.24 478.19 L 154.24 521.62 L 51.33 521.62 L 51.33 562.41 L 154.24 562.41 L 154.24 605.84 L 243.95 542.02 Z M 784.67 478.19 L 694.96 542.02 L 784.67 605.84 L 784.67 562.41 L 887.57 562.41 L 887.57 521.62 L 784.67 521.62 Z M 44.28 0 C 19.92 0 0 19.92 0 44.28 L 0 680.96 C 0 705.33 19.92 725.26 44.28 725.26 L 893.74 725.26 C 918.1 725.26 938.03 705.33 938.03 680.96 L 938.03 44.28 C 938.03 19.92 918.1 0 893.74 0 Z M 44.28 20 L 893.74 20 C 907.37 20 918.03 30.66 918.03 44.28 L 918.03 680.96 C 918.03 694.59 907.37 705.25 893.74 705.25 L 44.28 705.25 C 30.66 705.25 20 694.59 20 680.96 L 20 44.28 C 20 30.66 30.66 20 44.28 20 Z" fill="var(--icon-primary, #dae8fc)" stroke="none" stroke-width="0"/></svg>