<svg xmlns="http://www.w3.org/2000/svg" viewBox="0 0 1816.8 1592.24" width="1816.8" height="1592.24"><path d="M 1647.2 729.33 L 1545.01 729.33 L 1420.25 293.82 L 1300.14 293.82 L 1300.14 0 L 738.12 0 L 518.85 218.67 L 519.66 293.82 L 399.78 293.82 L 272.13 729.33 L 169.6 729.33 C 75.92 729.33 0 805.25 0 898.93 L 0 1422.64 C 0 1516.32 75.92 1592.24 169.6 1592.24 L 1647.2 1592.24 C 1740.88 1592.24 1816.8 1516.32 1816.8 1422.64 L 1816.8 898.93 C 1816.8 805.25 1740.88 729.33 1647.2 729.33 L 1647.2 729.33 Z" fill="var(--icon-secondary, #6c8ebf)" stroke="none" stroke-width="0"/><path d="M 1647.2 761.48 L 169.6 761.48 C 93.17 761.48 32.14 822.5 32.14 898.93 L 32.14 1422.64 C 32.14 1499.07 93.17 1560.1 169.6 1560.1 L 1647.2 1560.1 C 1723.63 1560.1 1784.66 1499.07 1784.66 1422.64 L 1784.66 898.93 C 1784.66 822.5 1723.63 761.48 1647.2 761.48 Z M 1484.29 974.53 C 1484.29 932.28 1518.55 898.03 1560.8 898.03 C 1581.92 898.03 1601.05 906.6 1614.89 920.44 C 1628.73 934.28 1637.3 953.42 1637.3 974.54 C 1637.3 1016.79 1603.05 1051.04 1560.8 1051.04 L 1560.79 1051.04 C 1518.54 1051.04 1484.29 1016.79 1484.29 974.54 L 1484.29 974.54 Z M 1712.97 1180.01 L 114.99 1180.01 L 114.99 1142.96 L 1712.97 1142.96 L 1712.97 1180.01 Z M 737.86 25.34 L 737.86 222.23 L 542.95 222.23 L 542.95 727.59 L 1276.48 727.59 L 1276.48 25.34 L 737.86 25.34 Z M 1129.4 600.94 L 672.95 600.94 L 672.95 563.9 L 1129.4 563.9 L 1129.4 600.94 Z M 1129.4 459.85 L 672.95 459.85 L 672.95 422.8 L 1129.4 422.8 L 1129.4 459.85 Z M 1129.4 318.76 L 672.95 318.76 L 672.95 281.7 L 1129.4 281.7 L 1129.4 318.76 Z" fill="var(--icon-secondary, #6c8ebf)" stroke="none" stroke-width="0"/></svg>