<svg xmlns="http://www.w3.org/2000/svg" viewBox="0 0 640.93 561.71" width="640.93" height="561.71"><path d="M 260.39 0 L 183.04 77.14 L 183.32 103.65 L 141.04 103.65 L 96 257.29 L 59.83 257.29 C 26.78 257.29 0 284.08 0 317.12 L 0 501.88 C 0 534.92 26.78 561.71 59.83 561.71 L 581.1 561.71 C 614.14 561.71 640.93 534.92 640.93 501.88 L 640.93 317.12 C 640.93 284.08 614.14 257.29 581.1 257.29 L 545.05 257.29 L 501.03 103.65 L 458.66 103.65 L 458.66 0 Z M 260.3 8.94 L 450.31 8.94 L 450.31 256.68 L 191.54 256.68 L 191.54 78.4 L 260.3 78.4 Z M 237.4 99.38 L 237.4 112.45 L 398.43 112.45 L 398.43 99.38 Z M 237.4 149.15 L 237.4 162.22 L 398.43 162.22 L 398.43 149.15 Z M 237.4 198.93 L 237.4 212 L 398.43 212 L 398.43 198.93 Z M 59.83 268.63 L 581.1 268.63 C 608.06 268.63 629.59 290.16 629.59 317.12 L 629.59 501.88 C 629.59 528.84 608.06 550.37 581.1 550.37 L 59.83 550.37 C 32.87 550.37 11.34 528.84 11.34 501.88 L 11.34 317.12 C 11.34 290.16 32.87 268.63 59.83 268.63 Z M 550.62 316.81 A 26.99 26.99 0 0 0 523.62 343.79 A 26.99 26.99 0 0 0 550.62 370.79 A 26.99 26.99 0 0 0 577.6 343.79 A 26.99 26.99 0 0 0 550.62 316.81 Z M 40.57 403.21 L 40.57 416.28 L 604.3 416.28 L 604.3 403.21 Z" fill="var(--icon-primary, #dae8fc)" stroke="none" stroke-width="0"/></svg>