<svg xmlns="http://www.w3.org/2000/svg" viewBox="0 0 745.28 745.28" width="745.28" height="745.28"><path d="M 130.9 94.42 L 201.96 94.42 L 201.96 187.81 L 54.88 187.81 L 36.49 223.5 L 36.49 302.7 L 11.76 302.7 L 7.72 325.37 L 201.96 325.37 L 201.96 417.9 L 8.53 417.9 L 11.56 440.57 L 36.49 440.57 L 36.49 521.24 L 53.87 556.7 L 201.96 556.7 L 201.96 651.25 L 134.41 651.25 L 163.7 673.93 L 580.3 673.93 L 611.55 651.25 L 555.93 651.25 L 555.93 556.7 L 690.48 556.7 L 721.76 487.23 L 721.76 440.57 L 731.8 440.57 L 736.85 417.9 L 555.93 417.9 L 555.93 325.37 L 736.04 325.37 L 732 302.7 L 721.76 302.7 L 721.76 255.82 L 691.78 187.81 L 555.93 187.81 L 555.93 94.42 L 613.11 94.42 L 583.65 71.74 L 160.19 71.74 Z M 224.64 94.42 L 533.26 94.42 L 533.26 187.81 L 224.64 187.81 Z M 59.16 210.49 L 367.79 210.49 L 367.79 302.7 L 59.16 302.7 Z M 390.46 210.49 L 699.08 210.49 L 699.08 302.7 L 390.46 302.7 Z M 224.64 325.37 L 533.26 325.37 L 533.26 417.9 L 224.64 417.9 Z M 59.16 440.57 L 367.79 440.57 L 367.79 534.02 L 59.16 534.02 Z M 390.46 440.57 L 699.08 440.57 L 699.08 534.02 L 390.46 534.02 Z M 224.64 556.7 L 533.26 556.7 L 533.26 651.25 L 224.64 651.25 Z" fill="var(--icon-primary, #dae8fc)" stroke="none" stroke-width="0"/><path d="M 130.9 94.42 L 201.96 94.42 L 201.96 187.81 L 54.88 187.81 L 36.49 223.5 L 36.49 302.7 L 11.76 302.7 L 7.72 325.37 L 201.96 325.37 L 201.96 417.9 L 8.53 417.9 L 11.56 440.57 L 36.49 440.57 L 36.49 521.24 L 53.87 556.7 L 201.96 556.7 L 201.96 651.25 L 134.41 651.25 L 163.7 673.93 L 580.3 673.93 L 611.55 651.25 L 555.93 651.25 L 555.93 556.7 L 690.48 556.7 L 721.76 487.23 L 721.76 440.57 L 731.8 440.57 L 736.85 417.9 L 555.93 417.9 L 555.93 325.37 L 736.04 325.37 L 732 302.7 L 721.76 302.7 L 721.76 255.82 L 691.78 187.81 L 555.93 187.81 L 555.93 94.42 L 613.11 94.42 L 583.65 71.74 L 160.19 71.74 Z M 224.64 94.42 L 533.26 94.42 L 533.26 187.81 L 224.64 187.81 Z M 59.16 210.49 L 367.79 210.49 L 367.79 302.7 L 59.16 302.7 Z M 390.46 210.49 L 699.08 210.49 L 699.08 302.7 L 390.46 302.7 Z M 224.64 325.37 L 533.26 325.37 L 533.26 417.9 L 224.64 417.9 Z M 59.16 440.57 L 367.79 440.57 L 367.79 534.02 L 59.16 534.02 Z M 390.46 440.57 L 699.08 440.57 L 699.08 534.02 L 390.46 534.02 Z M 224.64 556.7 L 533.26 556.7 L 533.26 651.25 L 224.64 651.25 Z" fill="#ffffff" stroke="none" stroke-width="0" opacity="0.5"/><rect x="0" y="0" width="0" height="0" fill="none" stroke="var(--icon-secondary, #6c8ebf)" stroke-width="1"/><path d="M 571.51 607.19 L 476.31 513.82 L 437.56 553.33 L 407.94 410.87 L 551.36 437.3 L 512.96 476.45 L 608.16 569.82 Z M 357.88 426.02 L 264.52 521.22 L 304.03 559.97 L 161.57 589.59 L 187.99 446.18 L 227.15 484.58 L 320.51 389.37 Z M 178.16 142.27 L 273.37 235.64 L 312.11 196.13 L 341.73 338.59 L 198.32 312.17 L 236.72 273.01 L 141.51 179.64 Z M 387.87 322.36 L 481.24 227.16 L 441.73 188.41 L 584.19 158.79 L 557.77 302.21 L 518.61 263.81 L 425.24 359.01 Z M 372.64 0 C 166.89 0 0 166.89 0 372.64 C 0 578.38 166.89 745.28 372.64 745.28 C 578.38 745.28 745.28 578.38 745.28 372.64 C 745.28 166.89 578.38 0 372.64 0 Z M 372.64 9.46 C 573.27 9.46 735.82 172 735.82 372.64 C 735.82 573.27 573.27 735.82 372.64 735.82 C 172 735.82 9.46 573.27 9.46 372.64 C 9.46 172 172 9.46 372.64 9.46 Z" fill="var(--icon-primary, #dae8fc)" stroke="none" stroke-width="0"/></svg>