<svg xmlns="http://www.w3.org/2000/svg" viewBox="0 0 248.19 191.89" width="248.19" height="191.89"><path d="M 97.29 123.2 L 97.29 70.18 L 141.79 96.81 Z M 85.65 130 L 81.28 125.69 L 52.46 154.91 L 56.82 159.21 L 41.2 162.11 L 43.92 146.48 L 48.3 150.8 L 77.12 121.58 L 72.74 117.27 L 88.42 114.23 Z M 85.72 63.42 L 81.35 67.73 L 52.53 38.51 L 56.89 34.21 L 41.28 31.31 L 43.99 46.94 L 48.37 42.62 L 77.19 71.84 L 72.81 76.15 L 88.49 79.19 Z M 75.34 87.69 L 75.34 93.83 L 34.3 93.83 L 34.3 87.71 L 21.27 96.79 L 34.3 105.83 L 34.3 99.67 L 75.34 99.67 L 75.34 105.82 L 88.52 96.79 Z M 11.72 5.29 L 236.47 5.29 C 240.07 5.29 242.89 8.11 242.89 11.72 L 242.89 180.17 C 242.89 183.78 240.07 186.6 236.47 186.6 L 11.72 186.6 C 8.11 186.6 5.29 183.78 5.29 180.17 L 5.29 11.72 C 5.29 8.11 8.11 5.29 11.72 5.29 Z M 11.72 0 C 5.27 0 0 5.27 0 11.72 L 0 180.17 C 0 186.62 5.27 191.89 11.72 191.89 L 236.47 191.89 C 242.91 191.89 248.19 186.62 248.19 180.17 L 248.19 11.72 C 248.19 5.27 242.91 0 236.47 0 Z M 203.33 79.66 L 203.33 91.14 L 175.66 91.14 L 175.66 79.66 L 151.26 96.68 L 175.66 113.6 L 175.66 102.08 L 203.33 102.08 L 203.33 113.6 L 228 96.68 Z" fill="var(--icon-primary, #dae8fc)" stroke="none" stroke-width="0"/></svg>