<svg xmlns="http://www.w3.org/2000/svg" viewBox="0 0 196.97 196.97" width="196.97" height="196.97"><path d="M 150.02 159.07 L 125.17 134.7 L 115.05 145.01 L 107.32 107.82 L 144.76 114.72 L 134.73 124.94 L 159.58 149.32 Z M 94.25 111.78 L 69.88 136.63 L 80.19 146.74 L 43.01 154.48 L 49.9 117.04 L 60.13 127.06 L 84.5 102.21 Z M 47.34 37.71 L 72.19 62.08 L 82.3 51.77 L 90.04 88.96 L 52.6 82.06 L 62.62 71.84 L 37.77 47.47 Z M 102.08 84.72 L 126.45 59.87 L 116.14 49.75 L 153.33 42.02 L 146.43 79.46 L 136.21 69.43 L 111.84 94.29 Z M 98.48 0 C 44.11 0 0 44.11 0 98.48 C 0 152.86 44.11 196.97 98.48 196.97 C 152.86 196.97 196.97 152.86 196.97 98.48 C 196.97 44.11 152.86 0 98.48 0 Z M 98.48 2.5 C 151.51 2.5 194.47 45.46 194.47 98.48 C 194.47 151.51 151.51 194.47 98.48 194.47 C 45.46 194.47 2.5 151.51 2.5 98.48 C 2.5 45.46 45.46 2.5 98.48 2.5 Z" fill="var(--icon-primary, #dae8fc)" stroke="none" stroke-width="0"/></svg>