<svg xmlns="http://www.w3.org/2000/svg" viewBox="0 0 196.97 196.97" width="196.97" height="196.97"><path d="M 95.41 46.17 L 83.29 11.3 L 88.3 11.3 L 98.79 40.85 L 109.26 11.3 L 113.69 11.3 L 100.87 46.17 Z M 151.05 160.47 L 125.88 135.8 L 115.64 146.24 L 107.81 108.59 L 145.72 115.57 L 135.57 125.92 L 160.73 150.6 Z M 94.58 112.59 L 69.91 137.75 L 80.35 147.99 L 42.7 155.82 L 49.68 117.92 L 60.03 128.07 L 84.71 102.91 Z M 47.09 37.6 L 72.25 62.28 L 82.49 51.84 L 90.32 89.49 L 52.41 82.5 L 62.56 72.15 L 37.4 47.48 Z M 102.51 85.2 L 127.19 60.04 L 116.74 49.8 L 154.4 41.97 L 147.41 79.87 L 137.06 69.72 L 112.39 94.88 Z M 98.48 0 C 44.11 0 0 44.11 0 98.48 C 0 152.86 44.11 196.97 98.48 196.97 C 152.86 196.97 196.97 152.86 196.97 98.48 C 196.97 44.11 152.86 0 98.48 0 Z M 98.48 2.5 C 151.51 2.5 194.47 45.46 194.47 98.48 C 194.47 151.51 151.51 194.47 98.48 194.47 C 45.46 194.47 2.5 151.51 2.5 98.48 C 2.5 45.46 45.46 2.5 98.48 2.5 Z" fill="var(--icon-primary, #dae8fc)" stroke="none" stroke-width="0"/></svg>