<svg xmlns="http://www.w3.org/2000/svg" viewBox="0 0 721.85 725.26" width="721.85" height="725.26"><path d="M 511 112.12 C 500.72 112.12 491.38 113.86 482.97 117.33 C 474.57 120.8 468.18 125.91 463.81 132.64 C 459.43 139.31 457.25 146.5 457.25 154.21 C 457.25 161.22 459.02 167.58 462.56 173.27 C 466.17 178.89 471.62 183.62 478.91 187.44 C 484.54 190.42 494.36 193.62 508.39 197.02 C 522.42 200.35 531.48 202.82 535.58 204.41 C 541.97 206.84 546.55 209.87 549.33 213.48 C 552.11 217.02 553.5 221.18 553.5 225.98 C 553.5 230.7 552.04 235.07 549.12 239.1 C 546.27 243.06 541.9 246.18 536 248.48 C 530.09 250.77 523.29 251.91 515.58 251.91 C 506.9 251.91 499.09 250.42 492.14 247.44 C 485.2 244.38 480.06 240.42 476.72 235.56 C 473.46 230.63 471.38 224.35 470.47 216.71 L 451.41 218.37 C 451.69 228.58 454.47 237.75 459.75 245.87 C 465.09 253.93 472.42 259.97 481.72 264 C 491.1 268.03 502.7 270.04 516.52 270.04 C 527.42 270.04 537.21 268.06 545.89 264.1 C 554.64 260.07 561.34 254.48 566 247.33 C 570.65 240.11 572.97 232.44 572.97 224.31 C 572.97 216.12 570.86 208.89 566.62 202.64 C 562.38 196.33 555.82 191.12 546.93 187.02 C 540.82 184.24 529.54 181.01 513.08 177.33 C 496.69 173.58 486.55 169.94 482.66 166.39 C 478.7 162.85 476.72 158.34 476.72 152.85 C 476.72 146.53 479.5 141.15 485.06 136.71 C 490.68 132.19 499.61 129.94 511.83 129.94 C 523.57 129.94 532.42 132.4 538.39 137.33 C 544.43 142.26 547.98 149.55 549.02 159.21 L 568.39 157.75 C 568.05 148.79 565.55 140.77 560.89 133.69 C 556.24 126.6 549.57 121.26 540.89 117.64 C 532.28 113.96 522.32 112.12 511 112.12 Z M 161.93 114.73 L 161.93 222.86 L 120.56 203.94 L 161.93 231.34 L 161.93 267.44 L 182.14 267.44 L 182.14 244.73 L 322.27 337.54 L 141.75 337.22 L 350.19 460.99 L 192 482.08 L 602.67 637.79 L 365.39 503.48 L 502.49 503.79 L 275.44 369.79 L 479.84 368.24 L 182.14 232.1 L 182.14 199.62 L 205.58 199.62 C 210.79 199.62 214.54 199.87 216.83 200.35 C 219.96 201.12 223.01 202.47 226 204.41 C 229.05 206.36 232.49 209.76 236.31 214.62 C 240.13 219.48 244.99 226.5 250.89 235.66 L 271.1 267.44 L 296.52 267.44 L 269.96 225.87 C 264.68 217.75 259.09 210.98 253.18 205.56 C 250.41 203.06 246.34 200.53 241 197.96 C 255.65 195.94 266.48 191.22 273.5 183.79 C 280.51 176.36 284.02 167.23 284.02 156.39 C 284.02 147.99 281.9 140.32 277.66 133.37 C 273.43 126.43 267.77 121.6 260.68 118.89 C 253.6 116.12 243.25 114.73 229.64 114.73 Z M 315.79 114.73 L 315.79 267.44 L 336 267.44 L 336 205.35 L 375.16 205.35 C 396.76 205.35 411.69 200.87 419.96 191.91 C 428.22 182.89 432.35 171.88 432.35 158.89 C 432.35 151.33 430.79 144.38 427.66 138.06 C 424.61 131.74 420.54 126.85 415.47 123.37 C 410.41 119.83 404.12 117.44 396.62 116.19 C 391.27 115.21 383.53 114.73 373.39 114.73 Z M 182.14 131.6 L 230.47 131.6 C 241.79 131.6 250.06 133.93 255.27 138.58 C 260.55 143.23 263.18 149.17 263.18 156.39 C 263.18 161.33 261.83 165.91 259.12 170.14 C 256.41 174.31 252.45 177.37 247.25 179.31 C 242.04 181.19 234.82 182.12 225.58 182.12 L 182.14 182.12 Z M 336 132.75 L 375.06 132.75 C 384.23 132.75 390.51 133.2 393.91 134.1 C 399.19 135.56 403.43 138.58 406.62 143.16 C 409.88 147.68 411.52 153.13 411.52 159.52 C 411.52 168.34 408.77 175.18 403.29 180.04 C 397.8 184.9 388.53 187.33 375.47 187.33 L 336 187.33 Z M 44.28 20 L 677.57 20 C 691.2 20 701.86 30.66 701.86 44.28 L 701.86 680.96 C 701.86 694.59 691.2 705.25 677.57 705.25 L 44.28 705.25 C 30.66 705.25 20 694.59 20 680.96 L 20 44.28 C 20 30.66 30.66 20 44.28 20 Z M 44.28 0 C 19.92 0 0 19.92 0 44.28 L 0 680.96 C 0 705.33 19.92 725.26 44.28 725.26 L 677.57 725.26 C 701.93 725.26 721.85 705.33 721.85 680.96 L 721.85 44.28 C 721.85 19.92 701.93 0 677.57 0 Z" fill="var(--icon-primary, #dae8fc)" stroke="none" stroke-width="0"/></svg>