<svg xmlns="http://www.w3.org/2000/svg" viewBox="0 0 248.19 191.89" width="248.19" height="191.89"><path d="M 194.79 63.36 L 194.45 60.45 Q 195.47 60.73 196.22 60.73 Q 197.26 60.73 197.88 60.38 Q 198.5 60.04 198.89 59.42 Q 199.19 58.95 199.84 57.11 Q 199.93 56.85 200.12 56.35 L 193.18 38.02 L 196.52 38.02 L 200.32 48.62 Q 201.06 50.63 201.65 52.86 Q 202.18 50.72 202.93 48.69 L 206.84 38.02 L 209.94 38.02 L 202.98 56.63 Q 201.86 59.64 201.24 60.78 Q 200.41 62.31 199.34 63.02 Q 198.27 63.74 196.79 63.74 Q 195.9 63.74 194.79 63.36 Z M 183.12 56.32 L 183.12 38.02 L 185.91 38.02 L 185.91 40.8 Q 186.97 38.85 187.87 38.23 Q 188.78 37.61 189.87 37.61 Q 191.44 37.61 193.05 38.61 L 191.99 41.49 Q 190.85 40.81 189.71 40.81 Q 188.7 40.81 187.89 41.44 Q 187.08 42.04 186.73 43.12 Q 186.22 44.78 186.22 46.74 L 186.22 56.32 Z M 175.45 54.06 Q 173.73 55.53 172.13 56.13 Q 170.54 56.73 168.72 56.73 Q 165.7 56.73 164.08 55.27 Q 162.46 53.79 162.46 51.49 Q 162.46 50.15 163.07 49.05 Q 163.69 47.93 164.67 47.26 Q 165.67 46.59 166.91 46.24 Q 167.82 46 169.66 45.78 Q 173.42 45.33 175.19 44.71 Q 175.21 44.07 175.21 43.9 Q 175.21 42 174.33 41.23 Q 173.14 40.18 170.8 40.18 Q 168.61 40.18 167.56 40.95 Q 166.53 41.71 166.03 43.66 L 163 43.24 Q 163.41 41.3 164.36 40.11 Q 165.3 38.9 167.1 38.27 Q 168.89 37.61 171.25 37.61 Q 173.59 37.61 175.05 38.16 Q 176.52 38.71 177.21 39.56 Q 177.9 40.38 178.17 41.66 Q 178.33 42.45 178.33 44.52 L 178.33 48.65 Q 178.33 52.98 178.52 54.13 Q 178.72 55.27 179.31 56.32 L 176.07 56.32 Q 175.59 55.35 175.45 54.06 Z M 175.19 47.14 Q 173.5 47.83 170.13 48.31 Q 168.22 48.58 167.42 48.93 Q 166.63 49.27 166.2 49.94 Q 165.77 50.6 165.77 51.41 Q 165.77 52.65 166.7 53.48 Q 167.65 54.3 169.46 54.3 Q 171.25 54.3 172.64 53.53 Q 174.04 52.73 174.69 51.37 Q 175.19 50.32 175.19 48.27 Z M 155.74 56.32 L 155.74 54.01 Q 154 56.73 150.63 56.73 Q 148.44 56.73 146.6 55.53 Q 144.77 54.32 143.76 52.17 Q 142.76 50 142.76 47.19 Q 142.76 44.45 143.67 42.23 Q 144.58 39.99 146.41 38.8 Q 148.23 37.61 150.49 37.61 Q 152.14 37.61 153.44 38.32 Q 154.73 39.01 155.54 40.13 L 155.54 31.07 L 158.62 31.07 L 158.62 56.32 Z M 145.94 47.19 Q 145.94 50.7 147.42 52.44 Q 148.91 54.18 150.92 54.18 Q 152.95 54.18 154.37 52.53 Q 155.8 50.86 155.8 47.45 Q 155.8 43.69 154.35 41.93 Q 152.9 40.18 150.78 40.18 Q 148.72 40.18 147.32 41.87 Q 145.94 43.55 145.94 47.19 Z M 124.24 56.32 L 124.24 38.02 L 127.03 38.02 L 127.03 40.63 Q 129.04 37.61 132.85 37.61 Q 134.51 37.61 135.88 38.21 Q 137.28 38.8 137.97 39.76 Q 138.66 40.73 138.93 42.06 Q 139.1 42.92 139.1 45.07 L 139.1 56.32 L 136 56.32 L 136 45.19 Q 136 43.3 135.64 42.37 Q 135.28 41.42 134.35 40.87 Q 133.44 40.3 132.2 40.3 Q 130.22 40.3 128.77 41.56 Q 127.34 42.81 127.34 46.33 L 127.34 56.32 Z M 103.45 47.17 Q 103.45 42.09 106.27 39.64 Q 108.63 37.61 112.03 37.61 Q 115.8 37.61 118.19 40.09 Q 120.59 42.55 120.59 46.91 Q 120.59 50.44 119.52 52.48 Q 118.47 54.49 116.44 55.61 Q 114.42 56.73 112.03 56.73 Q 108.18 56.73 105.81 54.27 Q 103.45 51.8 103.45 47.17 Z M 106.63 47.17 Q 106.63 50.69 108.17 52.44 Q 109.7 54.18 112.03 54.18 Q 114.33 54.18 115.87 52.42 Q 117.4 50.67 117.4 47.07 Q 117.4 43.67 115.85 41.93 Q 114.32 40.18 112.03 40.18 Q 109.7 40.18 108.17 41.92 Q 106.63 43.66 106.63 47.17 Z M 98.9 49.62 L 101.95 50.01 Q 101.45 53.17 99.38 54.96 Q 97.33 56.73 94.34 56.73 Q 90.58 56.73 88.29 54.29 Q 86.02 51.82 86.02 47.24 Q 86.02 44.28 87 42.06 Q 87.98 39.83 89.98 38.73 Q 91.99 37.61 94.35 37.61 Q 97.33 37.61 99.23 39.13 Q 101.12 40.63 101.66 43.4 L 98.64 43.86 Q 98.21 42.02 97.11 41.09 Q 96.02 40.16 94.47 40.16 Q 92.13 40.16 90.67 41.85 Q 89.2 43.52 89.2 47.15 Q 89.2 50.84 90.61 52.51 Q 92.03 54.18 94.3 54.18 Q 96.13 54.18 97.35 53.06 Q 98.57 51.94 98.9 49.62 Z M 79.85 50.43 L 83.05 50.82 Q 82.3 53.63 80.25 55.18 Q 78.2 56.73 75.01 56.73 Q 71 56.73 68.64 54.27 Q 66.29 51.79 66.29 47.33 Q 66.29 42.71 68.67 40.16 Q 71.05 37.61 74.84 37.61 Q 78.51 37.61 80.83 40.11 Q 83.16 42.61 83.16 47.14 Q 83.16 47.41 83.14 47.96 L 69.5 47.96 Q 69.67 50.98 71.2 52.58 Q 72.73 54.18 75.03 54.18 Q 76.73 54.18 77.94 53.29 Q 79.14 52.39 79.85 50.43 Z M 69.67 45.41 L 79.88 45.41 Q 79.68 43.11 78.71 41.95 Q 77.23 40.16 74.87 40.16 Q 72.73 40.16 71.27 41.59 Q 69.82 43.02 69.67 45.41 Z M 43.02 48.2 L 46.17 47.93 Q 46.4 49.82 47.21 51.05 Q 48.03 52.25 49.76 53.01 Q 51.48 53.75 53.63 53.75 Q 55.54 53.75 57.01 53.18 Q 58.47 52.61 59.18 51.63 Q 59.9 50.63 59.9 49.46 Q 59.9 48.27 59.21 47.4 Q 58.52 46.5 56.94 45.9 Q 55.92 45.5 52.44 44.67 Q 48.96 43.83 47.57 43.09 Q 45.76 42.14 44.86 40.75 Q 43.99 39.33 43.99 37.59 Q 43.99 35.68 45.07 34.03 Q 46.16 32.36 48.24 31.5 Q 50.32 30.63 52.87 30.63 Q 55.68 30.63 57.82 31.55 Q 59.97 32.44 61.12 34.2 Q 62.28 35.96 62.37 38.18 L 59.16 38.42 Q 58.9 36.03 57.4 34.8 Q 55.92 33.58 53.01 33.58 Q 49.98 33.58 48.58 34.7 Q 47.21 35.8 47.21 37.37 Q 47.21 38.73 48.19 39.61 Q 49.15 40.49 53.22 41.42 Q 57.3 42.33 58.82 43.02 Q 61.02 44.04 62.07 45.6 Q 63.12 47.15 63.12 49.19 Q 63.12 51.2 61.97 52.99 Q 60.81 54.77 58.64 55.77 Q 56.49 56.75 53.79 56.75 Q 50.36 56.75 48.03 55.75 Q 45.73 54.75 44.4 52.75 Q 43.09 50.74 43.02 48.2 Z M 207.61 126.52 L 183.87 143.41 L 207.61 160.3 L 207.61 148.81 L 234.84 148.81 L 234.84 138.01 L 207.61 138.01 Z M 40.81 126.52 L 40.81 138.01 L 13.58 138.01 L 13.58 148.81 L 40.81 148.81 L 40.81 160.3 L 64.54 143.41 Z M 152.47 85.98 A 17.13 17.13 0 0 0 135.34 103.11 A 17.13 17.13 0 0 0 143.46 117.65 C 137.14 125.14 133.57 134.99 133.57 144.74 L 133.57 161.39 L 171.37 161.39 L 171.37 144.74 C 171.37 134.88 166.91 125.42 160.99 117.95 A 17.13 17.13 0 0 0 169.6 103.11 A 17.13 17.13 0 0 0 152.47 85.98 Z M 95.98 85.98 A 17.13 17.13 0 0 0 78.85 103.11 A 17.13 17.13 0 0 0 86.97 117.65 C 80.65 125.14 77.08 134.99 77.08 144.74 L 77.08 161.39 L 114.88 161.39 L 114.88 144.74 C 114.88 134.88 110.42 125.42 104.5 117.95 A 17.13 17.13 0 0 0 113.11 103.11 A 17.13 17.13 0 0 0 95.98 85.98 Z M 211.1 81.15 L 211.1 92.64 L 183.87 92.64 L 183.87 103.43 L 211.1 103.43 L 211.1 114.92 L 234.84 98.04 Z M 37.32 81.15 L 13.58 98.04 L 37.32 114.92 L 37.32 103.43 L 64.54 103.43 L 64.54 92.64 L 37.32 92.64 Z M 11.72 0 C 5.27 0 0 5.27 0 11.72 L 0 180.17 C 0 186.62 5.27 191.89 11.72 191.89 L 236.47 191.89 C 242.91 191.89 248.19 186.62 248.19 180.17 L 248.19 11.72 C 248.19 5.27 242.91 0 236.47 0 Z M 11.72 5.29 L 236.47 5.29 C 240.07 5.29 242.89 8.11 242.89 11.72 L 242.89 180.17 C 242.89 183.78 240.07 186.6 236.47 186.6 L 11.72 186.6 C 8.11 186.6 5.29 183.78 5.29 180.17 L 5.29 11.72 C 5.29 8.11 8.11 5.29 11.72 5.29 Z" fill="var(--icon-primary, #dae8fc)" stroke="none" stroke-width="0"/></svg>