<svg xmlns="http://www.w3.org/2000/svg" viewBox="0 0 190.99 191.89" width="190.99" height="191.89"><path d="M 95.59 17.64 L 79.61 40.66 L 90.23 40.66 L 90.23 65.08 A 31.31 31.31 0 0 0 77.28 70.53 L 59.94 53.29 L 67.43 45.76 L 39.96 40.73 L 45.02 68.3 L 52.51 60.77 L 69.85 78.01 A 31.31 31.31 0 0 0 64.67 90.67 L 40.21 90.67 L 40.21 80.05 L 17.19 95.85 L 40.21 111.83 L 40.21 101.21 L 64.63 101.21 A 31.31 31.31 0 0 0 69.93 113.95 L 52.63 131.27 L 45.12 123.76 L 40.16 151.35 L 67.6 146.22 L 60.09 138.72 L 77.36 121.44 A 31.31 31.31 0 0 0 90.23 126.78 L 90.23 151.23 L 79.61 151.23 L 95.59 174.25 L 111.39 151.23 L 100.77 151.23 L 100.77 126.8 A 31.31 31.31 0 0 0 113.56 121.47 L 130.91 138.73 L 123.42 146.26 L 151.02 151.16 L 145.83 123.73 L 138.35 131.25 L 121.03 114.03 A 31.31 31.31 0 0 0 126.33 101.21 L 150.78 101.21 L 150.78 111.83 L 173.8 95.85 L 150.78 80.05 L 150.78 90.67 L 126.35 90.67 A 31.31 31.31 0 0 0 120.95 77.78 L 138.23 60.49 L 145.74 67.99 L 150.83 40.54 L 123.25 45.53 L 130.77 53.04 L 113.48 70.34 A 31.31 31.31 0 0 0 100.77 65.12 L 100.77 40.66 L 111.39 40.66 Z M 11.72 0 C 5.27 0 0 5.27 0 11.72 L 0 180.17 C 0 186.62 5.27 191.89 11.72 191.89 L 179.27 191.89 C 185.72 191.89 190.99 186.62 190.99 180.17 L 190.99 11.72 C 190.99 5.27 185.72 0 179.27 0 Z M 11.72 5.29 L 179.27 5.29 C 182.88 5.29 185.7 8.11 185.7 11.72 L 185.7 180.17 C 185.7 183.78 182.88 186.6 179.27 186.6 L 11.72 186.6 C 8.11 186.6 5.29 183.78 5.29 180.17 L 5.29 11.72 C 5.29 8.11 8.11 5.29 11.72 5.29 Z" fill="var(--icon-primary, #dae8fc)" stroke="none" stroke-width="0"/><path d="M 95.52 64.61 C 78.23 64.61 64.21 78.63 64.21 95.92 C 64.21 113.21 78.23 127.23 95.52 127.23 C 112.81 127.23 126.83 113.21 126.83 95.92 C 126.83 78.63 112.81 64.61 95.52 64.61 Z M 96.99 68.06 C 103 68.06 108.27 72.89 108.27 79.18 L 108.27 88.25 L 114.64 88.25 L 114.64 113.18 L 78.24 113.18 L 78.24 88.25 L 85.71 88.25 L 85.71 79.18 C 85.71 73.94 89.82 68.06 96.99 68.06 Z M 96.99 70.56 C 91.17 70.56 88.21 75.23 88.21 79.18 L 88.21 88.25 L 105.76 88.25 L 105.76 79.18 C 105.76 74.28 101.67 70.56 96.99 70.56 Z" fill="#ffffff" stroke="none" stroke-width="0" opacity="0.5"/><rect x="0" y="0" width="0" height="0" fill="none" stroke="var(--icon-secondary, #6c8ebf)" stroke-width="1"/><path d="M 98.94 98.62 C 98.94 99.63 98.34 100.55 97.41 100.94 L 97.41 106.8 L 95.41 106.8 L 95.41 100.95 C 94.49 100.55 93.89 99.63 93.89 98.62 C 93.89 97.23 95.02 96.1 96.42 96.1 C 97.81 96.1 98.94 97.23 98.94 98.62 Z" fill="var(--icon-secondary, #6c8ebf)" stroke="none" stroke-width="0"/></svg>