<svg xmlns="http://www.w3.org/2000/svg" viewBox="0 0 190.99 191.89" width="190.99" height="191.89"><path d="M 92.24 56.19 L 53.07 56.19 L 53.07 39.94 L 17.56 63.72 L 53.07 87.68 L 53.07 71.57 L 92.24 71.57 Z M 92.24 108.16 L 53.07 108.16 L 53.07 91.9 L 17.56 115.69 L 53.07 139.65 L 53.07 123.54 L 92.24 123.54 Z M 98.8 33.8 L 137.97 33.8 L 137.97 17.54 L 173.49 41.33 L 137.97 65.29 L 137.97 49.18 L 98.8 49.18 Z M 98.8 85.77 L 137.97 85.77 L 137.97 69.51 L 173.49 93.3 L 137.97 117.26 L 137.97 101.15 L 98.8 101.15 Z M 98.45 161.7 C 98.45 162.71 97.85 163.62 96.93 164.02 L 96.93 169.87 L 94.92 169.87 L 94.92 164.02 C 94 163.62 93.4 162.71 93.4 161.7 C 93.4 160.3 94.53 159.17 95.93 159.17 C 97.32 159.17 98.45 160.3 98.45 161.7 Z M 96.47 131.16 C 89.3 131.16 85.2 137.05 85.2 142.28 L 85.2 151.35 L 77.73 151.35 L 77.73 176.28 L 114.12 176.28 L 114.12 151.35 L 107.75 151.35 L 107.75 142.28 C 107.75 135.99 102.49 131.16 96.47 131.16 Z M 96.47 133.66 C 101.16 133.66 105.25 137.38 105.25 142.28 L 105.25 151.35 L 87.7 151.35 L 87.7 142.28 C 87.7 138.33 90.66 133.66 96.47 133.66 Z M 11.72 0 C 5.27 0 0 5.27 0 11.72 L 0 180.17 C 0 186.62 5.27 191.89 11.72 191.89 L 179.27 191.89 C 185.72 191.89 190.99 186.62 190.99 180.17 L 190.99 11.72 C 190.99 5.27 185.72 0 179.27 0 Z M 11.72 5.29 L 179.27 5.29 C 182.88 5.29 185.7 8.11 185.7 11.72 L 185.7 180.17 C 185.7 183.78 182.88 186.6 179.27 186.6 L 11.72 186.6 C 8.11 186.6 5.29 183.78 5.29 180.17 L 5.29 11.72 C 5.29 8.11 8.11 5.29 11.72 5.29 Z" fill="var(--icon-primary, #dae8fc)" stroke="none" stroke-width="0"/></svg>