<svg xmlns="http://www.w3.org/2000/svg" viewBox="0 0 196.97 196.97" width="196.97" height="196.97"><path d="M 99.03 131.27 C 103.71 131.27 107.81 134.99 107.81 139.89 L 107.81 148.96 L 90.25 148.96 L 90.25 139.89 C 90.25 135.94 93.22 131.27 99.03 131.27 Z M 99.03 128.77 C 91.86 128.77 87.75 134.66 87.75 139.89 L 87.75 148.96 L 80.29 148.96 L 80.29 173.89 L 116.68 173.89 L 116.68 148.96 L 110.31 148.96 L 110.31 139.89 C 110.31 133.6 105.05 128.77 99.03 128.77 Z M 101.01 159.31 C 101.01 160.32 100.41 161.23 99.48 161.63 L 99.48 167.48 L 97.48 167.48 L 97.48 161.63 C 96.56 161.23 95.96 160.32 95.96 159.31 C 95.96 157.91 97.09 156.78 98.48 156.78 C 99.88 156.78 101.01 157.91 101.01 159.31 Z M 98.48 2.5 C 151.51 2.5 194.47 45.46 194.47 98.48 C 194.47 151.51 151.51 194.47 98.48 194.47 C 45.46 194.47 2.5 151.51 2.5 98.48 C 2.5 45.46 45.46 2.5 98.48 2.5 Z M 98.48 0 C 44.11 0 0 44.11 0 98.48 C 0 152.86 44.11 196.97 98.48 196.97 C 152.86 196.97 196.97 152.86 196.97 98.48 C 196.97 44.11 152.86 0 98.48 0 Z M 101.93 75.58 L 126.6 50.41 L 116.16 40.17 L 153.81 32.35 L 146.83 70.25 L 136.48 60.1 L 111.81 85.26 Z M 46.5 27.98 L 71.67 52.66 L 81.91 42.21 L 89.74 79.86 L 51.83 72.88 L 61.98 62.53 L 36.82 37.86 Z M 94 102.97 L 69.33 128.13 L 79.77 138.37 L 42.12 146.2 L 49.1 108.3 L 59.45 118.45 L 84.13 93.29 Z M 150.46 150.85 L 125.3 126.18 L 115.06 136.62 L 107.23 98.97 L 145.14 105.95 L 134.99 116.3 L 160.15 140.98 Z" fill="var(--icon-primary, #dae8fc)" stroke="none" stroke-width="0"/></svg>