<svg xmlns="http://www.w3.org/2000/svg" viewBox="0 0 2046.2 2055.85" width="2046.2" height="2055.85"><path d="M 125.53 0 C 56.47 0 0 56.47 0 125.53 L 0 1930.3 C 0 1999.36 56.47 2055.85 125.53 2055.85 L 1920.67 2055.85 C 1989.73 2055.85 2046.2 1999.36 2046.2 1930.3 L 2046.2 125.53 C 2046.2 56.47 1989.72 0 1920.67 0 L 125.53 0 Z M 125.53 56.69 L 1920.67 56.69 C 1959.3 56.69 1989.52 86.9 1989.52 125.53 L 1989.52 1930.3 C 1989.52 1968.93 1959.3 1999.15 1920.67 1999.15 L 125.53 1999.15 C 86.9 1999.15 56.69 1968.93 56.69 1930.3 L 56.69 125.53 C 56.69 86.9 86.9 56.69 125.53 56.69 Z M 1024.14 188.96 L 852.88 435.63 L 966.69 435.63 L 966.69 697.29 C 916.62 705.97 869.17 725.91 827.94 755.62 L 642.23 570.96 L 722.43 490.31 L 428.17 436.4 L 482.33 731.77 L 562.57 651.07 L 748.34 835.79 C 720.07 876.35 701.11 922.65 692.82 971.39 L 430.81 971.39 L 430.81 857.64 L 184.14 1026.89 L 430.81 1198.16 L 430.81 1084.35 L 692.47 1084.35 C 700.99 1133.5 720.37 1180.14 749.19 1220.86 L 563.88 1406.4 L 483.35 1325.98 L 430.22 1621.54 L 724.29 1566.61 L 643.81 1486.23 L 828.77 1301.04 C 869.86 1330.23 917.01 1349.78 966.69 1358.24 L 966.69 1620.23 L 852.88 1620.23 L 1024.14 1866.9 L 1193.39 1620.23 L 1079.64 1620.23 L 1079.64 1358.55 C 1128.99 1349.97 1175.79 1330.45 1216.61 1301.42 L 1402.57 1486.32 L 1322.33 1567.02 L 1618 1619.5 L 1562.43 1325.56 L 1482.23 1406.22 L 1296.65 1221.69 C 1325.6 1180.73 1345 1133.8 1353.41 1084.35 L 1615.4 1084.35 L 1615.4 1198.16 L 1862.07 1026.89 L 1615.4 857.64 L 1615.4 971.39 L 1353.72 971.39 C 1345.07 921.61 1325.28 874.43 1295.84 833.37 L 1480.91 648.06 L 1561.39 728.44 L 1615.95 434.3 L 1320.45 487.81 L 1400.98 568.24 L 1215.84 753.62 C 1175.15 725.11 1128.63 706 1079.66 697.66 L 1079.66 435.65 L 1193.41 435.65 L 1024.16 188.98 Z" fill="var(--icon-secondary, #6c8ebf)" stroke="none" stroke-width="0"/><path d="M 1023.06 692.5 C 837.81 692.5 687.63 842.68 687.63 1027.94 C 687.63 1213.2 837.81 1363.37 1023.06 1363.37 C 1208.31 1363.37 1358.5 1213.19 1358.5 1027.94 C 1358.5 842.69 1208.32 692.5 1023.06 692.5 Z" fill="var(--icon-secondary, #6c8ebf)" stroke="none" stroke-width="0"/><path d="M 1038.78 729.36 C 1103.24 729.36 1159.63 781.11 1159.63 848.57 L 1159.63 945.77 L 1227.94 945.77 L 1227.94 1212.86 L 837.92 1212.86 L 837.92 945.77 L 917.94 945.77 L 917.94 848.57 C 917.94 792.46 961.97 729.36 1038.79 729.36 L 1038.79 729.36 Z M 1038.78 756.15 C 976.5 756.15 944.72 806.21 944.72 848.57 L 944.72 945.77 L 1132.83 945.77 L 1132.83 848.57 C 1132.83 796.03 1088.96 756.15 1038.77 756.15 L 1038.77 756.15 Z" fill="var(--icon-secondary, #6c8ebf)" stroke="none" stroke-width="0"/><rect x="0" y="0" width="0" height="0" fill="none" stroke="var(--icon-secondary, #6c8ebf)" stroke-width="1"/><path d="M 1032.96 1029.55 C 1018.01 1029.55 1005.88 1041.67 1005.88 1056.63 C 1005.88 1067.44 1012.32 1077.21 1022.24 1081.49 L 1022.24 1144.2 L 1043.67 1144.2 L 1043.67 1081.47 C 1053.6 1077.2 1060.04 1067.43 1060.05 1056.63 C 1060.05 1041.67 1047.92 1029.55 1032.97 1029.55 Z" fill="var(--icon-secondary, #6c8ebf)" stroke="none" stroke-width="0"/></svg>