<svg xmlns="http://www.w3.org/2000/svg" viewBox="0 0 190.99 191.89" width="190.99" height="191.89"><path d="M 11.72 5.29 L 179.27 5.29 C 182.88 5.29 185.7 8.11 185.7 11.72 L 185.7 180.17 C 185.7 183.78 182.88 186.6 179.27 186.6 L 11.72 186.6 C 8.11 186.6 5.29 183.78 5.29 180.17 L 5.29 11.72 C 5.29 8.11 8.11 5.29 11.72 5.29 Z M 11.72 0 C 5.27 0 0 5.27 0 11.72 L 0 180.17 C 0 186.62 5.27 191.89 11.72 191.89 L 179.27 191.89 C 185.72 191.89 190.99 186.62 190.99 180.17 L 190.99 11.72 C 190.99 5.27 185.72 0 179.27 0 Z M 30.54 26.08 C 21.66 26.08 14.41 33.34 14.41 42.22 L 14.41 118.84 C 14.41 127.71 21.66 134.97 30.54 134.97 L 81.27 134.97 L 81.27 150.93 L 57.04 150.93 A 7.5 7.5 0 1 0 57.04 165.93 L 133.74 165.93 A 7.5 7.5 0 1 0 133.74 150.93 L 112.83 150.93 L 112.83 134.97 L 161 134.97 C 169.88 134.97 177.13 127.71 177.13 118.84 L 177.13 42.22 C 177.13 33.34 169.88 26.08 161 26.08 Z M 30.54 33.08 L 161 33.08 C 166.12 33.08 170.13 37.1 170.13 42.22 L 170.13 118.84 C 170.13 123.96 166.12 127.97 161 127.97 L 30.54 127.97 C 25.42 127.97 21.41 123.96 21.41 118.84 L 21.41 42.22 C 21.41 37.1 25.42 33.08 30.54 33.08 Z M 95.72 33.77 C 75.04 33.77 58.18 50.63 58.18 71.31 C 58.18 80.27 61.35 88.52 66.62 94.98 L 45.44 116.88 L 54.41 125.55 L 76 103.23 C 81.74 106.79 88.5 108.85 95.72 108.85 C 116.41 108.85 133.26 91.99 133.26 71.31 C 133.26 50.63 116.41 33.77 95.72 33.77 Z M 95.72 42.34 C 111.77 42.34 124.69 55.26 124.69 71.31 C 124.69 87.36 111.77 100.28 95.72 100.28 C 79.67 100.28 66.76 87.36 66.76 71.31 C 66.76 55.26 79.67 42.34 95.72 42.34 Z M 96.27 45.83 C 89.25 45.83 85.22 51.6 85.22 56.73 L 85.22 65.63 L 77.9 65.63 L 77.9 90.06 L 113.57 90.06 L 113.57 65.63 L 107.33 65.63 L 107.33 56.73 C 107.33 50.56 102.17 45.83 96.27 45.83 Z M 96.27 48.28 C 100.86 48.28 104.88 51.93 104.88 56.73 L 104.88 65.63 L 87.67 65.63 L 87.67 56.73 C 87.67 52.86 90.58 48.28 96.27 48.28 Z M 95.74 73.29 C 97.11 73.29 98.21 74.4 98.21 75.77 C 98.21 76.76 97.62 77.65 96.72 78.04 L 96.72 83.78 L 94.76 83.78 L 94.76 78.04 C 93.85 77.65 93.26 76.76 93.26 75.77 C 93.26 74.4 94.37 73.29 95.74 73.29 Z" fill="var(--icon-primary, #dae8fc)" stroke="none" stroke-width="0"/></svg>