<svg xmlns="http://www.w3.org/2000/svg" viewBox="0 0 1806.51 1698" width="1806.51" height="1698"><path d="M 1546.64 1304.51 L 263.16 1304.51 C 210.47 1304.51 167.55 1347.43 167.55 1400.12 L 167.55 1602.4 C 167.55 1655.08 210.47 1698 263.16 1698 L 1546.64 1698 C 1599.32 1698 1642.24 1655.08 1642.24 1602.4 L 1642.24 1400.12 C 1642.24 1347.43 1599.32 1304.51 1546.64 1304.51 Z M 1701 0 L 105.51 0 C 47.34 0 0 47.34 0 105.51 L 0 1144.45 C 0 1202.63 47.34 1249.93 105.51 1249.93 L 1701 1249.93 C 1759.17 1249.93 1806.51 1202.63 1806.51 1144.45 L 1806.51 105.51 C 1806.51 47.34 1759.17 0 1701 0 Z" fill="var(--icon-secondary, #6c8ebf)" stroke="none" stroke-width="0"/><path d="M 1546.64 1336.65 L 263.16 1336.65 C 227.72 1336.65 199.69 1364.68 199.69 1400.12 L 199.69 1602.4 C 199.69 1637.83 227.72 1665.86 263.16 1665.86 L 1546.64 1665.86 C 1582.07 1665.86 1610.1 1637.83 1610.1 1602.4 L 1610.1 1400.12 C 1610.1 1364.68 1582.07 1336.65 1546.64 1336.65 Z M 430.96 1500.28 C 430.96 1514.25 425.3 1526.9 416.14 1536.06 C 406.98 1545.22 394.33 1550.88 380.36 1550.88 C 366.39 1550.88 353.73 1545.22 344.57 1536.06 C 335.42 1526.9 329.75 1514.24 329.75 1500.27 C 329.76 1472.33 352.41 1449.67 380.36 1449.67 C 408.31 1449.67 430.96 1472.33 430.96 1500.27 L 430.96 1500.27 Z M 1504.8 1534.05 L 1063.27 1534.05 L 1063.27 1466.5 L 1504.8 1466.5 L 1504.8 1534.05 Z M 1701 32.14 L 105.51 32.14 C 64.59 32.14 32.14 64.59 32.14 105.51 L 32.14 1144.45 C 32.14 1185.38 64.59 1217.8 105.51 1217.8 L 1701 1217.8 C 1741.92 1217.8 1774.36 1185.38 1774.36 1144.45 L 1774.36 105.51 C 1774.36 64.59 1741.92 32.14 1701 32.14 Z M 1678.7 1115.42 L 124.78 1115.42 L 124.78 129.9 L 1678.7 129.9 L 1678.7 1115.42 L 1678.7 1115.42 Z M 1060.68 588.73 L 1060.68 480.06 C 1060.68 386.52 978.18 316.07 901.09 316.07 C 824 316.07 741.5 390.06 741.5 480.06 L 741.5 588.73 L 646.02 588.73 L 646.02 929.24 L 1157.45 929.24 L 1157.45 588.73 L 1060.68 588.73 Z M 914.46 762.57 L 914.46 843.48 L 884.3 843.48 L 884.3 762.54 C 872.66 756.81 865.28 744.96 865.26 731.98 C 865.26 713.13 880.54 697.85 899.39 697.85 C 918.24 697.85 933.51 713.13 933.51 731.98 C 933.5 744.97 926.12 756.83 914.46 762.57 L 914.46 762.57 Z M 1027.2 588.73 L 774.99 588.73 L 774.99 480.06 C 774.99 410.45 841.91 349.56 901.09 349.56 C 956.66 349.56 1027.2 407.02 1027.2 480.06 L 1027.2 588.73 Z" fill="var(--icon-secondary, #6c8ebf)" stroke="none" stroke-width="0"/></svg>