<svg xmlns="http://www.w3.org/2000/svg" viewBox="0 0 190.99 191.89" width="190.99" height="191.89"><path d="M 95.59 17.64 L 79.61 40.66 L 90.23 40.66 L 90.23 65.08 A 31.31 31.31 0 0 0 77.28 70.53 L 59.94 53.29 L 67.43 45.76 L 39.96 40.73 L 45.02 68.3 L 52.51 60.77 L 69.85 78.01 A 31.31 31.31 0 0 0 64.67 90.67 L 40.21 90.67 L 40.21 80.05 L 17.19 95.85 L 40.21 111.83 L 40.21 101.21 L 64.63 101.21 A 31.31 31.31 0 0 0 69.93 113.95 L 52.63 131.27 L 45.12 123.76 L 40.16 151.35 L 67.6 146.22 L 60.09 138.72 L 77.36 121.44 A 31.31 31.31 0 0 0 90.23 126.78 L 90.23 151.23 L 79.61 151.23 L 95.59 174.25 L 111.39 151.23 L 100.77 151.23 L 100.77 126.8 A 31.31 31.31 0 0 0 113.56 121.47 L 130.91 138.73 L 123.42 146.26 L 151.02 151.16 L 145.83 123.73 L 138.35 131.25 L 121.03 114.03 A 31.31 31.31 0 0 0 126.33 101.21 L 150.78 101.21 L 150.78 111.83 L 173.8 95.85 L 150.78 80.05 L 150.78 90.67 L 126.35 90.67 A 31.31 31.31 0 0 0 120.95 77.78 L 138.23 60.49 L 145.74 67.99 L 150.83 40.54 L 123.25 45.53 L 130.77 53.04 L 113.48 70.34 A 31.31 31.31 0 0 0 100.77 65.12 L 100.77 40.66 L 111.39 40.66 Z M 11.72 0 C 5.27 0 0 5.27 0 11.72 L 0 180.17 C 0 186.62 5.27 191.89 11.72 191.89 L 179.27 191.89 C 185.72 191.89 190.99 186.62 190.99 180.17 L 190.99 11.72 C 190.99 5.27 185.72 0 179.27 0 Z M 11.72 5.29 L 179.27 5.29 C 182.88 5.29 185.7 8.11 185.7 11.72 L 185.7 180.17 C 185.7 183.78 182.88 186.6 179.27 186.6 L 11.72 186.6 C 8.11 186.6 5.29 183.78 5.29 180.17 L 5.29 11.72 C 5.29 8.11 8.11 5.29 11.72 5.29 Z" fill="var(--icon-primary, #dae8fc)" stroke="none" stroke-width="0"/><path d="M 126.8 95.95 C 126.8 113.23 112.78 127.25 95.5 127.25 C 78.21 127.25 64.19 113.23 64.19 95.95 C 64.19 78.66 78.21 64.64 95.5 64.64 C 112.78 64.64 126.8 78.66 126.8 95.95 Z" fill="var(--icon-secondary, #6c8ebf)" stroke="none" stroke-width="0"/><path d="M 109.05 76.14 L 114.15 76.14 L 114.15 81.71 L 109.05 81.71 Z M 109.05 87.1 L 114.15 87.1 L 114.15 113.93 L 109.05 113.93 Z M 72.41 102.13 L 77.75 102.13 C 78.08 107.17 81.05 111.15 87.91 111.15 C 94.09 111.15 98.06 109.11 98.06 105.75 C 98.06 101.86 92.05 98.84 87.09 97.89 C 81.1 96.72 73.36 93.36 73.36 85.46 C 73.36 79.72 78.9 75.79 87.1 75.79 C 98.78 75.79 101.95 83.13 101.78 87.66 L 96.37 87.66 C 96.19 82.32 92.64 80.15 87.26 80.15 C 81.38 80.15 79.1 82.94 79.1 85 C 79.1 88.37 81.49 90.23 88.35 92.86 C 95.89 95.48 103.39 96.4 103.39 104.47 C 103.39 111.66 97.37 115.52 87.78 115.52 C 79.53 115.52 72.41 110.98 72.41 102.13 Z" fill="var(--icon-secondary, #6c8ebf)" stroke="none" stroke-width="0"/></svg>