<svg xmlns="http://www.w3.org/2000/svg" viewBox="0 0 1158.66 2055.28" width="1158.66" height="2055.28"><rect x="53.57" y="609.65" width="1051.52" height="705.11" fill="var(--icon-secondary, #6c8ebf)" stroke="none" stroke-width="0"/><path d="M 1105.09 1478.98 L 1105.09 1650.75 L 53.57 1650.75 L 53.57 1478.98 L 1105.09 1478.98 Z" fill="var(--icon-secondary, #6c8ebf)" stroke="none" stroke-width="0"/><rect x="0" y="0" width="0" height="0" fill="none" stroke="var(--icon-secondary, #6c8ebf)" stroke-width="1"/><path d="M 0 1755.75 L 0 1929.71 C 0 1998.81 56.54 2055.28 125.64 2055.28 L 1031.68 2055.28 C 1100.78 2055.28 1158.66 1998.81 1158.66 1929.71 L 1158.66 1755.75 L 0 1755.75 Z M 1105.09 1929.71 C 1105.09 1970.06 1072.03 2001.71 1031.68 2001.71 L 125.64 2001.71 C 85.29 2001.71 53.57 1970.06 53.57 1929.71 L 53.57 1811.59 L 1105.09 1811.59 L 1105.09 1929.71 Z M 579.99 701.87 C 511.74 701.87 456.01 757.6 456.01 825.85 C 456.01 894.1 511.74 949.83 579.99 949.83 C 648.24 949.83 703.95 894.1 703.95 825.85 C 703.95 757.6 648.24 701.87 579.99 701.87 Z M 579.99 912.34 C 532 912.34 493.51 873.84 493.51 825.85 C 493.51 783.36 523.69 748.34 563.92 740.86 L 563.92 828.46 C 563.76 837.34 570.82 844.66 579.7 844.82 C 588.57 844.98 595.9 837.92 596.06 829.04 L 596.06 740.86 C 636.28 748.34 666.45 783.36 666.45 825.85 C 666.45 873.84 627.97 912.34 579.99 912.34 L 579.99 912.34 Z M 1158.66 1368.33 L 1158.66 556.08 L 0 556.08 L 0 1368.33 L 346.47 1368.33 L 346.47 1425.41 L 0 1425.41 L 0 1704.33 L 1158.66 1704.33 L 1158.66 1425.41 L 823.23 1425.41 L 823.23 1368.33 L 1158.66 1368.33 Z M 1105.09 1478.98 L 1105.09 1650.75 L 53.57 1650.75 L 53.57 1478.98 L 346.47 1478.98 L 346.47 1579.95 L 823.23 1579.95 L 823.23 1478.98 L 1105.09 1478.98 Z M 473.57 1250.65 L 473.15 1172.43 C 473.15 1108.24 518.84 1065.72 586.12 1065.72 C 653.4 1065.72 699.09 1105.59 699.09 1172.43 L 699.09 1172.45 L 699.27 1250.65 L 699.27 1250.65 M 752.84 1250.65 L 752.66 1172.36 C 752.63 1079.12 678.45 1012.15 586.12 1012.15 C 493.79 1012.15 419.58 1080.73 419.58 1172.43 L 419.58 1172.5 L 420 1250.65 L 346.47 1250.65 L 346.47 1314.76 L 53.57 1314.76 L 53.57 609.65 L 1105.09 609.65 L 1105.09 1314.76 L 823.23 1314.76 L 823.23 1250.65 L 752.84 1250.65 L 752.84 1250.65 Z" fill="var(--icon-secondary, #6c8ebf)" stroke="none" stroke-width="0"/><path d="M 1031.68 0 L 125.64 0 C 56.54 0 0 56.47 0 125.57 L 0 515.89 L 1158.66 515.89 L 1158.66 125.57 C 1158.66 56.47 1100.78 0 1031.68 0 Z M 1105.09 460.77 L 53.57 460.77 L 53.57 125.57 C 53.57 85.22 85.29 53.57 125.64 53.57 L 1031.68 53.57 C 1072.03 53.57 1105.09 85.22 1105.09 125.57 L 1105.09 460.77 L 1105.09 460.77 Z" fill="var(--icon-secondary, #6c8ebf)" stroke="none" stroke-width="0"/><path d="M 1105.09 1811.59 L 1105.09 1929.71 C 1105.09 1970.06 1072.03 2001.71 1031.68 2001.71 L 125.64 2001.71 C 85.29 2001.71 53.57 1970.06 53.57 1929.71 L 53.57 1811.59 L 1105.09 1811.59 Z" fill="var(--icon-secondary, #6c8ebf)" stroke="none" stroke-width="0"/><path d="M 1105.09 125.57 L 1105.09 460.77 L 53.57 460.77 L 53.57 125.57 C 53.57 85.22 85.29 53.57 125.64 53.57 L 1031.68 53.57 C 1072.03 53.57 1105.09 85.22 1105.09 125.57 Z" fill="var(--icon-secondary, #6c8ebf)" stroke="none" stroke-width="0"/></svg>