<svg xmlns="http://www.w3.org/2000/svg" viewBox="0 0 637.29 599.02" width="637.29" height="599.02"><path d="M 37.22 0 C 16.7 0 0 16.7 0 37.22 L 0 403.74 C 0 424.26 16.7 440.95 37.22 440.95 L 600.07 440.95 C 620.6 440.95 637.29 424.26 637.29 403.74 L 637.29 37.22 C 637.29 16.7 620.6 0 600.07 0 Z M 37.22 11.34 L 600.07 11.34 C 614.51 11.34 625.96 22.78 625.96 37.22 L 625.96 403.74 C 625.96 418.17 614.51 429.61 600.07 429.61 L 37.22 429.61 C 22.78 429.61 11.34 418.17 11.34 403.74 L 11.34 37.22 C 11.34 22.78 22.78 11.34 37.22 11.34 Z M 44.02 45.82 L 44.02 393.5 L 592.21 393.5 L 592.21 45.82 Z M 317.88 111.5 C 345.08 111.5 374.19 136.35 374.19 169.36 L 374.19 207.69 L 408.32 207.69 L 408.32 327.82 L 227.9 327.82 L 227.9 207.69 L 261.59 207.69 L 261.59 169.36 C 261.59 137.61 289.41 111.5 317.88 111.5 Z M 317.88 123.32 C 297.01 123.32 273.4 144.8 273.4 169.36 L 273.4 207.69 L 362.38 207.69 L 362.38 169.36 C 362.37 143.59 337.49 123.32 317.88 123.32 Z M 317.28 246.19 C 310.63 246.19 305.24 251.58 305.24 258.23 C 305.25 262.81 307.85 266.98 311.96 269.01 L 311.96 297.56 L 322.6 297.56 L 322.6 269.02 C 326.71 266.99 329.32 262.81 329.32 258.23 C 329.32 251.58 323.93 246.19 317.28 246.19 Z M 92.84 460.2 C 74.25 460.2 59.11 475.34 59.11 493.93 L 59.11 565.29 C 59.11 583.88 74.25 599.02 92.84 599.02 L 545.62 599.02 C 564.2 599.02 579.35 583.88 579.35 565.29 L 579.35 493.93 C 579.35 475.34 564.2 460.2 545.62 460.2 Z M 92.84 471.54 L 545.62 471.54 C 558.12 471.54 568.01 481.43 568.01 493.93 L 568.01 565.29 C 568.01 577.79 558.12 587.68 545.62 587.68 L 92.84 587.68 C 80.34 587.68 70.45 577.79 70.45 565.29 L 70.45 493.93 C 70.45 481.43 80.34 471.54 92.84 471.54 Z M 134.18 511.41 A 17.85 17.85 0 0 0 116.33 529.26 A 17.85 17.85 0 0 0 134.18 547.12 A 17.85 17.85 0 0 0 152.03 529.26 A 17.85 17.85 0 0 0 134.18 511.41 Z M 375.1 517.35 L 375.1 541.18 L 530.86 541.18 L 530.86 517.35 Z" fill="var(--icon-primary, #dae8fc)" stroke="none" stroke-width="0"/></svg>