<svg xmlns="http://www.w3.org/2000/svg" viewBox="0 0 624.91 428" width="624.91" height="428"><path d="M 551.82 315.46 L 551.64 315.33 C 548.73 313.08 545.54 310.68 542.11 308.88 C 548.27 304.01 552.24 296.47 552.24 288.04 L 552.24 26.49 C 552.24 11.89 540.35 0 525.75 0 L 99.45 0 C 84.85 0 72.97 11.89 72.97 26.49 L 72.97 288.04 C 72.97 296.43 76.89 303.93 83 308.81 C 80.9 309.9 79.05 311.23 77.5 312.59 L 77.45 312.63 L 0 385.25 L 0 402.71 C 0 410.61 3.59 417.19 8.74 421.49 C 13.88 425.79 20.49 428 27.05 428 L 598.39 428 C 612.77 428 624.91 417.13 624.91 404.02 L 624.91 384.65 L 551.82 315.46 L 551.82 315.46 Z" fill="var(--icon-secondary, #6c8ebf)" stroke="none" stroke-width="0"/><path d="M 546.35 322 C 541.24 318.08 534.63 314.58 532.06 314.58 L 93.58 314.58 C 89.91 314.58 85.6 316.79 83.11 318.97 L 8.5 388.93 L 8.5 402.71 C 8.5 408.13 10.73 412.07 14.19 414.96 C 17.65 417.85 22.45 419.5 27.05 419.5 L 598.39 419.5 C 608.41 419.5 616.41 411.61 616.41 404.02 L 616.41 388.31 L 546.35 322 L 546.35 322 Z M 362.68 387.71 L 362.68 394.21 C 362.68 400.93 356.27 408.39 349.3 408.39 L 274.54 408.39 C 267.4 408.39 261.81 401.06 261.81 394.56 L 261.81 387.71 L 206.81 387.71 L 228.49 350.56 L 397.17 350.56 L 418.93 387.71 L 362.68 387.71 L 362.68 387.71 Z M 525.75 8.5 L 99.45 8.5 C 89.41 8.5 81.47 16.45 81.47 26.49 L 81.47 288.04 C 81.47 298.08 89.41 306.07 99.45 306.07 L 525.75 306.07 C 535.79 306.07 543.74 298.08 543.74 288.04 L 543.74 26.49 C 543.74 16.45 535.79 8.5 525.75 8.5 Z M 518.76 282.16 L 105.2 282.16 L 105.2 32.69 L 518.76 32.69 L 518.76 282.16 Z M 355.12 152.34 L 355.12 124.73 C 355.12 100.97 334.16 83.08 314.58 83.08 C 295 83.08 274.04 101.87 274.04 124.73 L 274.04 152.34 L 249.79 152.34 L 249.79 238.83 L 379.7 238.83 L 379.7 152.34 L 355.12 152.34 Z M 317.98 196.5 L 317.98 217.05 L 310.32 217.05 L 310.32 196.49 C 307.36 195.03 305.48 192.02 305.48 188.72 C 305.48 183.94 309.36 180.06 314.14 180.06 L 314.15 180.06 C 318.93 180.06 322.81 183.94 322.81 188.72 C 322.81 192.02 320.94 195.04 317.98 196.5 L 317.98 196.5 Z M 346.61 152.34 L 282.55 152.34 L 282.55 124.73 C 282.55 107.05 299.55 91.58 314.58 91.58 C 328.7 91.58 346.61 106.18 346.61 124.73 L 346.61 152.34 Z" fill="var(--icon-secondary, #6c8ebf)" stroke="none" stroke-width="0"/></svg>