<svg xmlns="http://www.w3.org/2000/svg" viewBox="0 0 220.46 150.99" width="220.46" height="150.99"><path d="M 110.82 63.52 A 3.06 3.06 0 0 1 113.88 66.58 A 3.06 3.06 0 0 1 112.17 69.32 L 112.17 76.57 L 109.47 76.57 L 109.47 69.32 A 3.06 3.06 0 0 1 107.77 66.58 A 3.06 3.06 0 0 1 110.82 63.52 Z M 110.98 29.31 C 103.74 29.31 96.68 35.94 96.68 44 L 96.68 53.74 L 88.12 53.74 L 88.12 84.25 L 133.95 84.25 L 133.95 53.74 L 125.28 53.74 L 125.28 44 C 125.28 35.62 117.88 29.31 110.98 29.31 Z M 110.98 32.31 C 115.96 32.31 122.28 37.46 122.28 44 L 122.28 53.74 L 99.68 53.74 L 99.68 44 C 99.68 37.77 105.67 32.31 110.98 32.31 Z M 33.01 110.98 L 35.08 110.98 L 185.47 110.98 L 187.7 110.98 C 188.61 110.98 190.94 112.21 192.74 113.59 L 217.46 136.99 L 217.46 142.53 C 217.46 145.21 214.63 147.99 211.1 147.99 L 9.54 147.99 C 7.92 147.99 6.23 147.41 5.01 146.39 C 3.78 145.37 3 143.98 3 142.07 L 3 137.21 L 29.32 112.53 C 30.2 111.76 31.72 110.98 33.01 110.98 Z M 35.08 3 L 185.47 3 C 189.01 3 191.82 5.8 191.82 9.35 L 191.82 101.61 C 191.82 105.16 189.01 107.98 185.47 107.98 L 35.08 107.98 C 31.54 107.98 28.74 105.16 28.74 101.61 L 28.74 9.35 C 28.74 5.8 31.54 3 35.08 3 Z M 35.08 0 C 29.93 0 25.74 4.19 25.74 9.35 L 25.74 101.61 C 25.74 104.57 27.13 107.22 29.28 108.94 C 28.54 109.33 27.89 109.79 27.34 110.27 L 27.32 110.29 L 0 135.91 L 0 142.07 C 0 144.85 1.27 147.17 3.08 148.69 C 4.9 150.21 7.23 150.99 9.54 150.99 L 211.1 150.99 C 216.17 150.99 220.46 147.15 220.46 142.53 L 220.46 135.7 L 194.67 111.29 L 194.61 111.24 C 193.58 110.45 192.45 109.6 191.25 108.96 C 193.42 107.25 194.82 104.59 194.82 101.62 L 194.82 9.35 C 194.82 4.19 190.62 0 185.47 0 Z M 37.11 11.53 L 183.01 11.53 L 183.01 99.54 L 37.11 99.54 Z M 72.96 136.77 L 80.61 123.67 L 140.11 123.67 L 147.79 136.77 L 127.94 136.77 L 127.94 139.07 C 127.94 141.44 125.69 144.07 123.23 144.07 L 96.85 144.07 C 94.33 144.07 92.36 141.49 92.36 139.19 L 92.36 136.77 Z" fill="var(--icon-primary, #dae8fc)" stroke="none" stroke-width="0"/></svg>