<svg xmlns="http://www.w3.org/2000/svg" viewBox="0 0 190.99 191.89" width="190.99" height="191.89"><path d="M 88.91 55.94 L 103.65 55.94 L 103.65 132.79 L 88.91 132.79 Z M 20.86 25.89 L 20.86 32.89 L 170.25 32.89 L 170.25 25.89 Z M 20.86 41.69 L 20.86 48.69 L 50.77 48.69 L 50.77 142.59 L 20.86 142.59 L 20.86 149.59 L 170.25 149.59 L 170.25 142.59 L 142.32 142.59 L 142.32 48.69 L 170.25 48.69 L 170.25 41.69 Z M 57.77 48.69 L 135.32 48.69 L 135.32 142.59 L 57.77 142.59 Z M 20.86 160.52 L 20.86 167.52 L 170.25 167.52 L 170.25 160.52 Z M 11.72 0 C 5.27 0 0 5.27 0 11.72 L 0 180.17 C 0 186.62 5.27 191.89 11.72 191.89 L 179.27 191.89 C 185.72 191.89 190.99 186.62 190.99 180.17 L 190.99 11.72 C 190.99 5.27 185.72 0 179.27 0 Z M 11.72 5.29 L 179.27 5.29 C 182.88 5.29 185.7 8.11 185.7 11.72 L 185.7 180.17 C 185.7 183.78 182.88 186.6 179.27 186.6 L 11.72 186.6 C 8.11 186.6 5.29 183.78 5.29 180.17 L 5.29 11.72 C 5.29 8.11 8.11 5.29 11.72 5.29 Z" fill="var(--icon-primary, #dae8fc)" stroke="none" stroke-width="0"/></svg>