<svg xmlns="http://www.w3.org/2000/svg" viewBox="0 0 1158.66 2055.28" width="1158.66" height="2055.28"><path d="M 53.57 609.65 L 53.57 1314.76 L 1105.09 1314.76 L 1105.09 609.65 L 53.57 609.65 Z" fill="var(--icon-secondary, #6c8ebf)" stroke="none" stroke-width="0"/><rect x="0" y="0" width="0" height="0" fill="none" stroke="var(--icon-secondary, #6c8ebf)" stroke-width="1"/><path d="M 0 1755.75 L 0 1929.71 C 0 1998.81 56.54 2055.28 125.64 2055.28 L 1031.68 2055.28 C 1100.78 2055.28 1158.66 1998.81 1158.66 1929.71 L 1158.66 1755.75 L 0 1755.75 Z M 1105.09 1929.71 C 1105.09 1970.06 1072.03 2001.71 1031.68 2001.71 L 125.64 2001.71 C 85.29 2001.71 53.57 1970.06 53.57 1929.71 L 53.57 1811.59 L 1105.09 1811.59 L 1105.09 1929.71 Z M 1031.68 0 L 125.64 0 C 56.54 0 0 56.47 0 125.57 L 0 515.89 L 1158.66 515.89 L 1158.66 125.57 C 1158.66 56.47 1100.78 0 1031.68 0 Z M 1105.09 460.77 L 53.57 460.77 L 53.57 125.57 C 53.57 85.22 85.29 53.57 125.64 53.57 L 1031.68 53.57 C 1072.03 53.57 1105.09 85.22 1105.09 125.57 L 1105.09 460.77 L 1105.09 460.77 Z M 579.99 701.87 C 511.74 701.87 456.01 757.6 456.01 825.85 C 456.01 894.1 511.74 949.83 579.99 949.83 C 648.24 949.83 703.95 894.1 703.95 825.85 C 703.95 757.6 648.24 701.87 579.99 701.87 Z M 579.99 912.33 C 532.01 912.33 493.51 873.83 493.51 825.85 C 493.51 783.36 523.7 748.33 563.92 740.86 L 563.92 828.46 C 563.76 837.34 570.83 844.66 579.7 844.82 C 588.58 844.98 595.9 837.91 596.06 829.04 L 596.06 740.86 C 636.28 748.33 666.45 783.36 666.45 825.85 C 666.45 873.83 627.98 912.33 579.99 912.33 L 579.99 912.33 Z M 579.99 701.87 C 511.74 701.87 456.01 757.6 456.01 825.85 C 456.01 894.1 511.74 949.83 579.99 949.83 C 648.24 949.83 703.95 894.1 703.95 825.85 C 703.95 757.6 648.24 701.87 579.99 701.87 Z M 579.99 912.33 C 532.01 912.33 493.51 873.83 493.51 825.85 C 493.51 783.36 523.7 748.33 563.92 740.86 L 563.92 828.46 C 563.76 837.34 570.83 844.66 579.7 844.82 C 588.58 844.98 595.9 837.91 596.06 829.04 L 596.06 740.86 C 636.28 748.33 666.45 783.36 666.45 825.85 C 666.45 873.83 627.98 912.33 579.99 912.33 L 579.99 912.33 Z M 579.99 701.87 C 511.74 701.87 456.01 757.6 456.01 825.85 C 456.01 894.1 511.74 949.83 579.99 949.83 C 648.24 949.83 703.95 894.1 703.95 825.85 C 703.95 757.6 648.24 701.87 579.99 701.87 Z M 579.99 912.33 C 532.01 912.33 493.51 873.83 493.51 825.85 C 493.51 783.36 523.7 748.33 563.92 740.86 L 563.92 828.46 C 563.76 837.34 570.83 844.66 579.7 844.82 C 588.58 844.98 595.9 837.91 596.06 829.04 L 596.06 740.86 C 636.28 748.33 666.45 783.36 666.45 825.85 C 666.45 873.83 627.98 912.33 579.99 912.33 L 579.99 912.33 Z M 579.99 701.87 C 511.74 701.87 456.01 757.6 456.01 825.85 C 456.01 894.1 511.74 949.83 579.99 949.83 C 648.24 949.83 703.95 894.1 703.95 825.85 C 703.95 757.6 648.24 701.87 579.99 701.87 Z M 579.99 912.33 C 532.01 912.33 493.51 873.83 493.51 825.85 C 493.51 783.36 523.7 748.33 563.92 740.86 L 563.92 828.46 C 563.76 837.34 570.83 844.66 579.7 844.82 C 588.58 844.98 595.9 837.91 596.06 829.04 L 596.06 740.86 C 636.28 748.33 666.45 783.36 666.45 825.85 C 666.45 873.83 627.98 912.33 579.99 912.33 L 579.99 912.33 Z M 579.99 701.87 C 511.74 701.87 456.01 757.6 456.01 825.85 C 456.01 894.1 511.74 949.83 579.99 949.83 C 648.24 949.83 703.95 894.1 703.95 825.85 C 703.95 757.6 648.24 701.87 579.99 701.87 Z M 579.99 912.33 C 532.01 912.33 493.51 873.83 493.51 825.85 C 493.51 783.36 523.7 748.33 563.92 740.86 L 563.92 828.46 C 563.76 837.34 570.83 844.66 579.7 844.82 C 588.58 844.98 595.9 837.91 596.06 829.04 L 596.06 740.86 C 636.28 748.33 666.45 783.36 666.45 825.85 C 666.45 873.83 627.98 912.33 579.99 912.33 L 579.99 912.33 Z M 0 556.08 L 0 1368.33 L 1158.66 1368.33 L 1158.66 556.08 L 0 556.08 Z M 1105.09 1314.76 L 53.57 1314.76 L 53.57 609.65 L 1105.09 609.65 L 1105.09 1314.76 Z M 579.99 949.83 C 648.24 949.83 703.95 894.1 703.95 825.85 C 703.95 757.6 648.24 701.87 579.99 701.87 C 511.74 701.87 456.01 757.6 456.01 825.85 C 456.01 894.1 511.74 949.83 579.99 949.83 Z M 563.92 740.86 L 563.92 828.46 C 563.76 837.34 570.83 844.66 579.7 844.82 C 588.58 844.98 595.9 837.91 596.06 829.04 L 596.06 740.86 C 636.28 748.33 666.45 783.36 666.45 825.85 C 666.45 873.83 627.98 912.33 579.99 912.33 C 532 912.33 493.51 873.83 493.51 825.85 C 493.51 783.36 523.7 748.33 563.92 740.86 L 563.92 740.86 Z M 579.99 701.87 C 511.74 701.87 456.01 757.6 456.01 825.85 C 456.01 894.1 511.74 949.83 579.99 949.83 C 648.24 949.83 703.95 894.1 703.95 825.85 C 703.95 757.6 648.24 701.87 579.99 701.87 Z M 579.99 912.33 C 532.01 912.33 493.51 873.83 493.51 825.85 C 493.51 783.36 523.7 748.33 563.92 740.86 L 563.92 828.46 C 563.76 837.34 570.83 844.66 579.7 844.82 C 588.58 844.98 595.9 837.91 596.06 829.04 L 596.06 740.86 C 636.28 748.33 666.45 783.36 666.45 825.85 C 666.45 873.83 627.98 912.33 579.99 912.33 L 579.99 912.33 Z M 579.99 701.87 C 511.74 701.87 456.01 757.6 456.01 825.85 C 456.01 894.1 511.74 949.83 579.99 949.83 C 648.24 949.83 703.95 894.1 703.95 825.85 C 703.95 757.6 648.24 701.87 579.99 701.87 Z M 579.99 912.33 C 532.01 912.33 493.51 873.83 493.51 825.85 C 493.51 783.36 523.7 748.33 563.92 740.86 L 563.92 828.46 C 563.76 837.34 570.83 844.66 579.7 844.82 C 588.58 844.98 595.9 837.91 596.06 829.04 L 596.06 740.86 C 636.28 748.33 666.45 783.36 666.45 825.85 C 666.45 873.83 627.98 912.33 579.99 912.33 L 579.99 912.33 Z M 579.99 701.87 C 511.74 701.87 456.01 757.6 456.01 825.85 C 456.01 894.1 511.74 949.83 579.99 949.83 C 648.24 949.83 703.95 894.1 703.95 825.85 C 703.95 757.6 648.24 701.87 579.99 701.87 Z M 579.99 912.33 C 532.01 912.33 493.51 873.83 493.51 825.85 C 493.51 783.36 523.7 748.33 563.92 740.86 L 563.92 828.46 C 563.76 837.34 570.83 844.66 579.7 844.82 C 588.58 844.98 595.9 837.91 596.06 829.04 L 596.06 740.86 C 636.28 748.33 666.45 783.36 666.45 825.85 C 666.45 873.83 627.98 912.33 579.99 912.33 L 579.99 912.33 Z M 579.99 701.87 C 511.74 701.87 456.01 757.6 456.01 825.85 C 456.01 894.1 511.74 949.83 579.99 949.83 C 648.24 949.83 703.95 894.1 703.95 825.85 C 703.95 757.6 648.24 701.87 579.99 701.87 Z M 579.99 912.33 C 532.01 912.33 493.51 873.83 493.51 825.85 C 493.51 783.36 523.7 748.33 563.92 740.86 L 563.92 828.46 C 563.76 837.34 570.83 844.66 579.7 844.82 C 588.58 844.98 595.9 837.91 596.06 829.04 L 596.06 740.86 C 636.28 748.33 666.45 783.36 666.45 825.85 C 666.45 873.83 627.98 912.33 579.99 912.33 L 579.99 912.33 Z M 0 1425.41 L 0 1704.32 L 1158.66 1704.32 L 1158.66 1425.41 L 0 1425.41 Z M 1105.09 1650.76 L 53.57 1650.76 L 53.57 1478.98 L 1105.09 1478.98 L 1105.09 1650.76 Z M 579.99 701.87 C 511.74 701.87 456.01 757.6 456.01 825.85 C 456.01 894.1 511.74 949.83 579.99 949.83 C 648.24 949.83 703.95 894.1 703.95 825.85 C 703.95 757.6 648.24 701.87 579.99 701.87 Z M 579.99 912.33 C 532.01 912.33 493.51 873.83 493.51 825.85 C 493.51 783.36 523.7 748.33 563.92 740.86 L 563.92 828.46 C 563.76 837.34 570.83 844.66 579.7 844.82 C 588.58 844.98 595.9 837.91 596.06 829.04 L 596.06 740.86 C 636.28 748.33 666.45 783.36 666.45 825.85 C 666.45 873.83 627.98 912.33 579.99 912.33 L 579.99 912.33 Z" fill="var(--icon-secondary, #6c8ebf)" stroke="none" stroke-width="0"/><path d="M 1105.09 1811.59 L 1105.09 1929.71 C 1105.09 1970.06 1072.03 2001.71 1031.68 2001.71 L 125.64 2001.71 C 85.29 2001.71 53.57 1970.06 53.57 1929.71 L 53.57 1811.59 L 1105.09 1811.59 Z" fill="var(--icon-secondary, #6c8ebf)" stroke="none" stroke-width="0"/><rect x="53.57" y="1478.98" width="1051.52" height="171.78" fill="var(--icon-secondary, #6c8ebf)" stroke="none" stroke-width="0"/><path d="M 1105.09 125.57 L 1105.09 460.77 L 53.57 460.77 L 53.57 125.57 C 53.57 85.22 85.29 53.57 125.64 53.57 L 1031.68 53.57 C 1072.03 53.57 1105.09 85.22 1105.09 125.57 Z" fill="var(--icon-secondary, #6c8ebf)" stroke="none" stroke-width="0"/></svg>