<svg xmlns="http://www.w3.org/2000/svg" viewBox="0 0 408.75 725.06" width="408.75" height="725.06"><path d="M 204.61 247.6 C 180.53 247.6 160.87 267.26 160.87 291.34 C 160.87 315.42 180.53 335.08 204.61 335.08 C 228.69 335.08 248.34 315.42 248.34 291.34 C 248.34 267.26 228.69 247.6 204.61 247.6 Z M 198.94 261.36 L 198.94 292.26 A 5.67 5.67 0 1 0 210.28 292.26 L 210.28 261.36 C 224.47 264 235.11 276.35 235.11 291.34 C 235.11 308.27 221.54 321.85 204.61 321.85 C 187.68 321.85 174.1 308.27 174.1 291.34 C 174.1 276.35 184.75 264 198.94 261.36 Z M 0 502.85 L 0 512.3 L 0 601.25 L 408.75 601.25 L 408.75 502.85 Z M 18.9 521.75 L 389.85 521.75 L 389.85 582.35 L 18.9 582.35 Z M 0 196.17 L 0 205.62 L 0 482.72 L 408.75 482.72 L 408.75 196.17 Z M 18.9 215.07 L 389.85 215.07 L 389.85 463.82 L 18.9 463.82 Z M 408.75 181.99 L 408.75 44.3 C 408.75 19.92 388.33 0 363.95 0 L 44.32 0 C 19.95 0 0 19.92 0 44.3 L 0 181.99 Z M 0 619.39 L 0 680.76 C 0 705.14 19.95 725.06 44.32 725.06 L 363.95 725.06 C 388.33 725.06 408.75 705.14 408.75 680.76 L 408.75 619.39 Z M 389.85 639.09 L 389.85 680.76 C 389.85 694.99 378.19 706.16 363.95 706.16 L 44.32 706.16 C 30.09 706.16 18.9 694.99 18.9 680.76 L 18.9 639.09 Z M 18.9 162.55 L 18.9 44.3 C 18.9 30.06 30.09 18.9 44.32 18.9 L 363.95 18.9 C 378.19 18.9 389.85 30.06 389.85 44.3 L 389.85 162.55 Z" fill="var(--icon-primary, #dae8fc)" stroke="none" stroke-width="0"/></svg>