<svg xmlns="http://www.w3.org/2000/svg" viewBox="0 0 938.03 725.26" width="938.03" height="725.26"><path d="M 44.28 20 L 893.74 20 C 907.37 20 918.03 30.66 918.03 44.28 L 918.03 680.96 C 918.03 694.59 907.37 705.25 893.74 705.25 L 44.28 705.25 C 30.66 705.25 20 694.59 20 680.96 L 20 44.28 C 20 30.66 30.66 20 44.28 20 Z M 44.28 0 C 19.92 0 0 19.92 0 44.28 L 0 680.96 C 0 705.33 19.92 725.26 44.28 725.26 L 893.74 725.26 C 918.1 725.26 938.03 705.33 938.03 680.96 L 938.03 44.28 C 938.03 19.92 918.1 0 893.74 0 Z M 128.26 209.01 C 122.98 209.01 119.64 212.49 117.54 215.56 C 115.45 218.63 113.93 222.19 112.49 226.43 C 109.61 234.91 107.26 246.08 105.26 258.98 C 101.27 284.78 98.87 317.34 98.87 345.89 C 98.87 372.37 100.43 401.59 103.89 426.5 C 105.62 438.95 107.82 450.32 110.62 459.88 C 113.43 469.43 116.59 477.2 121.78 482.83 C 123.21 484.38 125.23 485.26 127.34 485.26 L 152.49 485.26 C 152.48 485.61 152.46 485.94 152.46 486.29 C 152.46 498.68 159.06 509.74 169.04 517.4 C 179.02 525.05 192.45 529.59 207.17 529.59 C 221.88 529.59 235.31 525.05 245.29 517.4 C 255.27 509.74 261.87 498.68 261.87 486.29 C 261.87 485.94 261.85 485.61 261.84 485.26 L 662.99 485.26 C 662.98 485.61 662.95 485.94 662.95 486.29 C 662.95 498.68 669.55 509.74 679.53 517.4 C 689.51 525.05 702.94 529.59 717.65 529.59 C 732.37 529.59 745.8 525.05 755.78 517.4 C 765.76 509.74 772.36 498.68 772.36 486.29 C 772.36 485.94 772.34 485.61 772.33 485.26 L 811.17 485.26 C 813.84 485.26 816.31 483.86 817.67 481.56 C 825.49 468.41 830.06 449.08 833.15 425.97 C 836.24 402.86 837.58 376.08 837.58 348.99 C 837.58 314.7 835.38 281.32 830.84 255.97 C 828.57 243.3 825.78 232.67 821.99 224.52 C 820.09 220.44 817.96 216.93 815.06 214.08 C 812.17 211.23 808.08 209.01 803.57 209.01 Z" fill="var(--icon-primary, #dae8fc)" stroke="none" stroke-width="0"/><path d="M 674.33 485.26 L 760.99 485.26 C 761 485.6 761.02 485.95 761.02 486.29 C 761.02 494.68 756.65 502.44 748.88 508.4 C 741.11 514.36 730.02 518.25 717.65 518.25 C 705.29 518.25 694.2 514.36 686.44 508.4 C 678.67 502.44 674.29 494.68 674.29 486.29 C 674.29 485.95 674.31 485.6 674.33 485.26 Z M 163.83 485.26 L 250.5 485.26 C 250.51 485.6 250.54 485.95 250.54 486.29 C 250.54 494.68 246.15 502.44 238.38 508.4 C 230.62 514.36 219.53 518.25 207.17 518.25 C 194.8 518.25 183.71 514.36 175.94 508.4 C 168.17 502.44 163.8 494.68 163.8 486.29 C 163.8 485.95 163.82 485.6 163.83 485.26 Z M 115.36 388.47 L 821.4 388.47 C 820.7 401 819.63 412.99 818.16 423.97 C 815.47 444.1 811.1 460.09 806.1 470.14 L 131.42 470.14 C 129.43 467.11 127.13 462.42 125.13 455.62 C 122.64 447.15 120.52 436.37 118.86 424.41 C 117.31 413.23 116.16 400.98 115.36 388.47 Z M 746.74 336.15 C 753.05 336.15 758.17 341.26 758.17 347.57 C 758.17 353.88 753.05 358.99 746.74 358.99 C 740.43 358.99 735.32 353.88 735.32 347.57 C 735.32 341.26 740.44 336.15 746.74 336.15 Z M 694.67 336.15 C 700.98 336.15 706.09 341.26 706.09 347.57 C 706.09 353.88 700.98 358.99 694.67 358.99 C 688.36 358.99 683.24 353.88 683.24 347.57 C 683.24 341.26 688.36 336.15 694.67 336.15 Z M 641.59 336.15 C 647.9 336.15 653.01 341.26 653.01 347.57 C 653.01 353.88 647.9 358.99 641.59 358.99 C 635.28 358.99 630.17 353.88 630.17 347.57 C 630.17 341.26 635.28 336.15 641.59 336.15 Z M 177.27 323.08 C 174.04 323.08 171.46 324.45 169.54 327.18 C 167.12 330.67 165.9 337.12 165.9 346.52 C 165.9 355.92 167 362.18 169.19 365.31 C 171.4 368.41 174.12 369.96 177.35 369.96 C 180.58 369.96 183.29 368.39 185.47 365.27 C 187.69 362.14 188.79 355.89 188.79 346.52 C 188.79 337.09 187.69 330.83 185.47 327.73 C 183.29 324.63 180.55 323.08 177.27 323.08 Z M 222.23 317.26 C 227.73 317.26 232.08 318.78 235.28 321.83 C 238.48 324.88 240.08 328.65 240.08 333.16 C 240.08 335.45 239.62 337.7 238.68 339.92 C 237.74 342.13 236.18 344.46 233.99 346.91 C 231.83 349.36 228.22 352.72 223.17 356.99 C 218.95 360.53 216.24 362.94 215.04 364.21 C 213.85 365.46 212.86 366.73 212.08 368 L 240.16 368 L 240.16 374.76 L 202.31 374.76 C 202.26 373.07 202.53 371.44 203.13 369.88 C 204.09 367.3 205.63 364.76 207.74 362.26 C 209.88 359.76 212.95 356.87 216.96 353.59 C 223.18 348.48 227.39 344.45 229.58 341.48 C 231.76 338.48 232.86 335.66 232.86 333 C 232.86 330.22 231.85 327.87 229.85 325.97 C 227.87 324.04 225.28 323.08 222.08 323.08 C 218.69 323.08 215.98 324.1 213.95 326.13 C 211.92 328.16 210.89 330.97 210.87 334.56 L 203.64 333.82 C 204.13 328.43 206 324.33 209.22 321.52 C 212.45 318.68 216.79 317.26 222.23 317.26 Z M 177.35 317.26 C 180.42 317.26 183.12 317.88 185.44 319.13 C 187.75 320.36 189.67 322.14 191.18 324.49 C 192.69 326.8 193.87 329.64 194.73 333 C 195.59 336.34 196.02 340.84 196.02 346.52 C 196.02 353.24 195.33 358.67 193.95 362.81 C 192.57 366.92 190.5 370.11 187.74 372.38 C 185.01 374.62 181.54 375.74 177.35 375.74 C 171.83 375.74 167.49 373.76 164.34 369.8 C 160.57 365.03 158.68 357.27 158.68 346.52 C 158.68 339.75 159.37 334.3 160.75 330.19 C 162.15 326.05 164.22 322.86 166.96 320.62 C 169.72 318.38 173.18 317.26 177.35 317.26 Z M 130 224.13 L 803.56 224.13 C 803.61 224.13 803.81 224.21 804.46 224.86 C 805.42 225.8 806.87 227.87 808.28 230.9 C 811.1 236.96 813.82 246.69 815.96 258.64 C 818.22 271.2 819.89 286.24 820.98 302.56 L 115.65 302.56 C 116.72 287.95 118.28 273.7 120.2 261.29 C 122.12 248.89 124.44 238.28 126.81 231.3 C 127.98 227.83 129.22 225.28 130 224.13 Z" fill="#ffffff" stroke="none" stroke-width="0"/></svg>