<svg xmlns="http://www.w3.org/2000/svg" viewBox="0 0 248.19 191.89" width="248.19" height="191.89"><path d="M 124.26 82.21 L 124.26 32.54 L 183.34 32.54 L 183.34 82.21 L 124.26 82.21 L 124.26 159.85 L 65.34 131.62 L 65.34 82.21 Z M 11.72 5.29 L 236.47 5.29 C 240.07 5.29 242.89 8.11 242.89 11.72 L 242.89 180.17 C 242.89 183.78 240.07 186.6 236.47 186.6 L 11.72 186.6 C 8.11 186.6 5.29 183.78 5.29 180.17 L 5.29 11.72 C 5.29 8.11 8.11 5.29 11.72 5.29 Z M 11.72 0 C 5.27 0 0 5.27 0 11.72 L 0 180.17 C 0 186.62 5.27 191.89 11.72 191.89 L 236.47 191.89 C 242.91 191.89 248.19 186.62 248.19 180.17 L 248.19 11.72 C 248.19 5.27 242.91 0 236.47 0 Z M 59.34 26.54 L 59.34 135.4 L 124.26 166.5 L 189.34 135.4 L 189.34 26.54 Z" fill="var(--icon-primary, #dae8fc)" stroke="none" stroke-width="0"/></svg>