<svg xmlns="http://www.w3.org/2000/svg" viewBox="0 0 248.19 191.89" width="248.19" height="191.89"><path d="M 33.3 38.6 C 31.43 38.6 30.08 39.83 29.2 41.07 C 28.31 42.32 27.66 43.83 27.05 45.63 C 25.83 49.23 24.86 53.99 24.06 59.4 C 22.47 70.22 21.63 83.56 21.63 94.23 C 21.63 109.85 22.52 124.29 24.19 134.97 C 25.03 140.32 26.04 144.71 27.34 147.98 C 27.99 149.62 28.69 150.98 29.65 152.1 C 30.6 153.21 32.01 154.17 33.68 154.17 A 2.5 2.5 0 0 0 33.68 154.17 L 215.71 154.07 C 217.55 154.07 218.72 152.87 219.5 151.74 C 220.29 150.61 220.89 149.25 221.48 147.6 C 222.64 144.31 223.65 139.88 224.52 134.65 C 226.25 124.19 227.38 110.56 227.38 97.41 C 227.38 86.11 226.58 72.01 225.02 60.6 C 224.24 54.89 223.28 49.88 222.07 46.11 C 221.47 44.22 220.82 42.64 219.95 41.34 C 219.07 40.04 217.72 38.74 215.79 38.74 L 215.79 38.74 L 33.3 38.6 A 2.5 2.5 0 0 0 33.3 38.6 Z M 33.57 43.6 L 210.24 43.73 C 209.93 44.4 209.53 44.9 209.25 45.66 C 207.91 49.28 206.83 54.09 205.95 59.68 C 204.17 70.87 203.2 85.11 203.2 97.88 C 203.2 110.14 204.23 123.65 206.02 134.23 C 206.92 139.53 207.99 144.07 209.32 147.49 C 209.56 148.12 209.9 148.52 210.16 149.07 L 33.68 149.17 C 33.85 149.17 33.83 149.29 33.45 148.85 C 33.06 148.4 32.51 147.46 31.98 146.13 C 30.93 143.49 29.93 139.34 29.13 134.2 C 27.53 123.93 26.63 109.66 26.63 94.23 C 26.63 83.83 27.47 70.61 29.01 60.13 C 29.78 54.89 30.74 50.31 31.78 47.24 C 32.3 45.7 32.86 44.55 33.28 43.96 C 33.47 43.69 33.55 43.63 33.57 43.6 Z M 215.67 43.96 C 215.72 44.03 215.71 44.01 215.8 44.13 C 216.22 44.76 216.79 46 217.31 47.63 C 218.36 50.9 219.31 55.73 220.06 61.28 C 221.58 72.36 222.38 86.34 222.38 97.41 C 222.38 110.27 221.26 123.72 219.59 133.83 C 218.75 138.89 217.76 143.13 216.76 145.93 C 216.31 147.22 215.86 148.1 215.51 148.65 C 215.09 148.11 214.52 147.09 213.98 145.69 C 212.87 142.83 211.82 138.5 210.95 133.4 C 209.22 123.19 208.2 109.86 208.2 97.88 C 208.2 85.36 209.17 71.28 210.88 60.47 C 211.74 55.06 212.8 50.46 213.94 47.4 C 214.5 45.88 215.1 44.74 215.55 44.16 C 215.76 43.89 215.62 44 215.67 43.96 Z M 82.71 99.48 L 82.71 112.6 L 179.32 112.6 L 179.32 125.25 L 82.71 125.25 L 82.71 138.37 L 54.54 118.93 Z M 158.13 56.83 L 158.13 69.95 L 61.52 69.95 L 61.52 82.6 L 158.13 82.6 L 158.13 95.72 L 186.3 76.27 Z M 11.72 0 C 5.27 0 0 5.27 0 11.72 L 0 180.17 C 0 186.62 5.27 191.89 11.72 191.89 L 236.47 191.89 C 242.91 191.89 248.19 186.62 248.19 180.17 L 248.19 11.72 C 248.19 5.27 242.91 0 236.47 0 Z M 11.72 5.29 L 236.47 5.29 C 240.07 5.29 242.89 8.11 242.89 11.72 L 242.89 180.17 C 242.89 183.78 240.07 186.6 236.47 186.6 L 11.72 186.6 C 8.11 186.6 5.29 183.78 5.29 180.17 L 5.29 11.72 C 5.29 8.11 8.11 5.29 11.72 5.29 Z" fill="var(--icon-primary, #dae8fc)" stroke="none" stroke-width="0"/></svg>