<svg xmlns="http://www.w3.org/2000/svg" viewBox="0 0 938.03 687.17" width="938.03" height="687.17"><path d="M 44.28 0 C 19.92 0 0 19.92 0 44.28 L 0 265.88 C 0 290.24 19.92 310.17 44.28 310.17 L 187.61 310.17 L 215.7 390.61 L 223.09 390.61 C 221.23 403 219.21 419.06 219.21 436.02 C 219.21 576.71 337.05 687.17 473.3 687.17 C 627.83 687.17 738.62 561.12 738.62 432.3 C 738.62 418.18 737.48 406.17 734.45 390.61 L 738.94 390.61 L 766.27 310.17 L 893.74 310.17 C 918.1 310.17 938.03 290.24 938.03 265.88 L 938.03 44.28 C 938.03 19.92 918.1 0 893.74 0 Z M 44.28 20 L 893.74 20 C 907.37 20 918.03 30.66 918.03 44.28 L 918.03 265.88 C 918.03 279.5 907.37 290.16 893.74 290.16 L 44.28 290.16 C 30.66 290.16 20 279.5 20 265.88 L 20 44.28 C 20 30.66 30.66 20 44.28 20 Z" fill="var(--icon-primary, #dae8fc)" stroke="none" stroke-width="0"/><path d="M 719.78 445.21 C 710.26 571.03 617.91 656.92 479.81 667.43 C 372.06 667.43 234.12 583.2 238.02 446.84 C 273.48 399.58 367.37 377.97 480.93 377.97 C 579.95 377.97 680.21 397.96 719.78 445.21 Z" fill="#00bceb" stroke="none" stroke-width="0"/><rect x="0" y="0" width="0" height="0" fill="none" stroke="var(--icon-secondary, #6c8ebf)" stroke-width="1"/><path d="M 676.46 518.77 C 664.02 540.42 647.67 562.41 618.84 588.31 C 585.28 616.78 554.39 629.99 524.29 637.16 C 554.06 628.38 584.41 616.43 617.89 587.23 C 642.07 566.64 660.91 543.49 676.46 518.77 Z" fill="#ffffff" stroke="none" stroke-width="0"/></svg>