<svg xmlns="http://www.w3.org/2000/svg" viewBox="0 0 2658.97 1947.88" width="2658.97" height="1947.88"><path d="M 2533.44 0 L 125.53 0 C 56.47 0 0 56.47 0 125.53 L 0 753.66 C 0 822.72 56.47 879.21 125.53 879.21 L 531.79 879.21 L 611.43 1107.24 L 632.39 1107.24 C 627.11 1142.36 621.38 1187.89 621.38 1235.96 C 621.38 1634.77 955.43 1947.88 1341.64 1947.88 C 1779.68 1947.88 2093.73 1590.59 2093.73 1225.42 C 2093.73 1185.39 2090.5 1151.36 2081.91 1107.24 L 2094.62 1107.24 L 2172.09 879.21 L 2533.44 879.21 C 2602.5 879.21 2658.97 822.72 2658.97 753.66 L 2658.97 125.53 C 2658.97 56.47 2602.5 0 2533.44 0 Z M 2602.28 753.66 C 2602.28 792.29 2572.07 822.5 2533.44 822.5 L 125.53 822.5 C 86.9 822.5 56.69 792.29 56.69 753.66 L 56.69 125.53 C 56.69 86.9 86.9 56.69 125.53 56.69 L 2533.44 56.69 C 2572.07 56.69 2602.28 86.9 2602.28 125.53 L 2602.28 753.66 Z" fill="var(--icon-secondary, #6c8ebf)" stroke="none" stroke-width="0"/><rect x="56.69" y="56.69" width="2545.59" height="765.81" rx="68.839" ry="68.839" fill="var(--icon-secondary, #6c8ebf)" stroke="none" stroke-width="0"/><path d="M 2040.32 1262.02 C 2013.33 1618.68 1751.55 1862.15 1360.09 1891.94 C 1054.66 1891.94 663.65 1653.16 674.71 1266.62 C 775.21 1132.68 1041.37 1071.4 1363.26 1071.4 C 1643.95 1071.4 1928.15 1128.07 2040.32 1262.02 Z" fill="var(--icon-secondary, #6c8ebf)" stroke="none" stroke-width="0"/><rect x="0" y="0" width="0" height="0" fill="none" stroke="var(--icon-secondary, #6c8ebf)" stroke-width="1"/><path d="M 1917.53 1470.53 C 1882.27 1531.91 1835.92 1594.23 1754.18 1667.63 C 1659.05 1748.33 1571.49 1785.79 1486.16 1806.12 C 1570.55 1781.22 1656.58 1747.34 1751.5 1664.58 C 1820.03 1606.2 1873.44 1540.59 1917.53 1470.53 Z" fill="#ffffff" stroke="none" stroke-width="0"/></svg>