<svg xmlns="http://www.w3.org/2000/svg" viewBox="0 0 482.51 427.06" width="482.51" height="427.06"><path d="M 460.52 54.29 L 22 54.29 C 9.89 54.29 0 64.18 0 76.29 L 0 405.07 C 0 417.18 9.89 427.06 22 427.06 L 460.52 427.06 C 472.63 427.06 482.51 417.18 482.51 405.07 L 482.51 76.29 C 482.51 64.18 472.63 54.29 460.52 54.29 Z M 411.04 6.48 L 411.04 2.95 L 248.68 2.95 C 246.4 1.51 243.71 0 239.87 0.04 L 60.3 0.04 C 51.79 0.04 45.54 8.04 45.54 17.16 C 45.54 26.87 52.64 34.27 60.3 34.27 L 239.87 34.27 C 242.83 34.27 246.35 32.68 248.68 30.72 L 411.04 30.72 L 411.04 27.54 L 436.97 17.01 C 401.59 1.34 411.04 6.48 411.04 6.48 Z" fill="var(--icon-secondary, #6c8ebf)" stroke="none" stroke-width="0"/><path d="M 460.52 62.8 L 22 62.8 C 14.45 62.8 8.5 68.74 8.5 76.29 L 8.5 405.07 C 8.5 412.62 14.45 418.56 22 418.56 L 460.52 418.56 C 468.07 418.56 474.01 412.62 474.01 405.07 L 474.01 76.29 C 474.01 68.74 468.07 62.8 460.52 62.8 Z M 150.46 117.86 L 252.44 117.86 L 252.44 124.63 L 150.46 124.63 L 150.46 117.86 L 150.46 117.86 Z M 56.11 363.6 L 56.11 143.91 C 73.65 143.91 87.09 192.81 87.09 253.76 C 87.09 308.35 75.69 363.6 56.11 363.6 Z M 426.4 363.6 L 150.46 363.6 L 150.46 143.91 L 426.4 143.91 L 426.4 363.6 L 426.4 363.6 Z M 426.4 124.63 L 324.42 124.63 L 324.42 117.86 L 426.4 117.86 L 426.4 124.63 Z" fill="var(--icon-secondary, #6c8ebf)" stroke="none" stroke-width="0"/></svg>