<svg xmlns="http://www.w3.org/2000/svg" viewBox="0 0 170.22 150.66" width="170.22" height="150.66"><path d="M 114.45 41.58 L 150.43 41.58 L 150.43 43.97 L 114.45 43.97 Z M 53.08 41.58 L 89.05 41.58 L 89.05 43.97 L 53.08 43.97 Z M 19.79 50.77 C 25.98 50.77 30.72 68.02 30.72 89.52 C 30.72 108.78 26.7 128.27 19.79 128.27 Z M 53.08 50.77 L 150.43 50.77 L 150.43 128.27 L 53.08 128.27 Z M 21.27 12.09 C 18.57 12.09 16.06 9.48 16.06 6.05 C 16.06 2.84 18.27 0.02 21.27 0.02 L 84.62 0.02 C 85.98 0 86.92 0.54 87.73 1.04 L 145.01 1.04 L 145.01 2.29 L 154.15 6 L 145.01 9.72 L 145.01 10.84 L 87.73 10.84 C 86.91 11.53 85.66 12.09 84.62 12.09 Z M 7.76 19.16 C 3.49 19.16 0 22.64 0 26.91 L 0 142.9 C 0 147.17 3.49 150.66 7.76 150.66 L 162.46 150.66 C 166.73 150.66 170.22 147.17 170.22 142.9 L 170.22 26.91 C 170.22 22.64 166.73 19.16 162.46 19.16 Z M 7.76 22.16 L 162.46 22.16 C 165.12 22.16 167.22 24.25 167.22 26.91 L 167.22 142.9 C 167.22 145.56 165.12 147.66 162.46 147.66 L 7.76 147.66 C 5.1 147.66 3 145.56 3 142.9 L 3 26.91 C 3 24.25 5.1 22.16 7.76 22.16 Z" fill="var(--icon-primary, #dae8fc)" stroke="none" stroke-width="0"/></svg>