<svg xmlns="http://www.w3.org/2000/svg" viewBox="0 0 248.19 191.89" width="248.19" height="191.89"><path d="M 201.82 169.97 L 201.82 129.56 L 216.98 129.56 Q 221.61 129.56 224.39 130.8 Q 227.2 132.01 228.77 134.58 Q 230.37 137.11 230.37 139.9 Q 230.37 142.49 228.97 144.78 Q 227.56 147.06 224.72 148.47 Q 228.39 149.54 230.34 152.13 Q 232.33 154.72 232.33 158.25 Q 232.33 161.09 231.12 163.54 Q 229.93 165.97 228.17 167.29 Q 226.4 168.62 223.73 169.3 Q 221.08 169.97 217.22 169.97 Z M 207.17 146.54 L 215.9 146.54 Q 219.46 146.54 221 146.07 Q 223.04 145.46 224.06 144.06 Q 225.11 142.65 225.11 140.53 Q 225.11 138.52 224.14 137 Q 223.18 135.46 221.39 134.91 Q 219.6 134.33 215.24 134.33 L 207.17 134.33 Z M 207.17 165.2 L 217.22 165.2 Q 219.82 165.2 220.86 165 Q 222.71 164.67 223.95 163.9 Q 225.19 163.13 225.99 161.67 Q 226.79 160.18 226.79 158.25 Q 226.79 155.99 225.63 154.34 Q 224.47 152.66 222.41 152 Q 220.37 151.31 216.51 151.31 L 207.17 151.31 Z M 161.25 169.97 L 161.25 129.56 L 175.17 129.56 Q 179.88 129.56 182.36 130.14 Q 185.83 130.94 188.29 133.03 Q 191.48 135.74 193.05 139.95 Q 194.65 144.14 194.65 149.54 Q 194.65 154.15 193.58 157.7 Q 192.5 161.26 190.82 163.6 Q 189.14 165.91 187.13 167.26 Q 185.14 168.59 182.31 169.28 Q 179.49 169.97 175.83 169.97 Z M 166.6 165.2 L 175.22 165.2 Q 179.22 165.2 181.48 164.45 Q 183.77 163.71 185.12 162.36 Q 187.02 160.46 188.07 157.26 Q 189.14 154.04 189.14 149.46 Q 189.14 143.12 187.05 139.73 Q 184.98 136.31 182 135.16 Q 179.85 134.33 175.08 134.33 L 166.6 134.33 Z M 95.56 124.73 A 1.25 1.25 0 0 0 94.31 125.98 L 94.31 176.81 A 1.25 1.25 0 0 0 95.56 178.06 L 136.5 178.06 A 1.25 1.25 0 0 0 137.75 176.81 L 137.75 125.98 A 1.25 1.25 0 0 0 136.5 124.73 Z M 96.81 127.23 L 135.25 127.23 L 135.25 148.75 L 96.81 148.75 Z M 110.79 127.78 C 110.07 127.78 109.48 128.36 109.48 129.09 L 109.48 136.64 C 109.48 137.37 110.07 137.95 110.79 137.95 L 119.7 137.95 C 120.42 137.95 121 137.37 121 136.64 L 121 129.09 C 121 128.36 120.42 127.78 119.7 127.78 Z M 124.76 132.9 C 124.04 132.9 123.46 133.48 123.46 134.21 L 123.46 144.82 C 123.46 145.54 124.04 146.13 124.76 146.13 L 132.11 146.13 C 132.83 146.13 133.41 145.54 133.41 144.82 L 133.41 134.21 C 133.41 133.48 132.83 132.9 132.11 132.9 Z M 99.74 138.51 C 99.02 138.51 98.44 139.09 98.44 139.82 L 98.44 144.77 C 98.44 145.5 99.02 146.08 99.74 146.08 L 112.64 146.08 C 113.37 146.08 113.95 145.5 113.95 144.77 L 113.95 139.82 C 113.95 139.09 113.37 138.51 112.64 138.51 Z M 96.81 151.25 L 104.75 151.25 L 104.75 158.13 L 96.81 158.13 Z M 106.8 151.25 L 115.01 151.25 L 115.01 158.13 L 106.8 158.13 Z M 117.06 151.25 L 125.27 151.25 L 125.27 158.13 L 117.06 158.13 Z M 127.31 151.25 L 135.25 151.25 L 135.25 158.13 L 127.31 158.13 Z M 96.81 160.63 L 104.75 160.63 L 104.75 167.51 L 96.81 167.51 Z M 106.8 160.63 L 115.01 160.63 L 115.01 167.51 L 106.8 167.51 Z M 117.06 160.63 L 125.27 160.63 L 125.27 167.51 L 117.06 167.51 Z M 127.31 160.63 L 135.25 160.63 L 135.25 167.51 L 127.31 167.51 Z M 96.81 170.01 L 104.75 170.01 L 104.75 175.56 L 96.81 175.56 Z M 106.8 170.01 L 115.01 170.01 L 115.01 175.56 L 106.8 175.56 Z M 117.06 170.01 L 125.27 170.01 L 125.27 175.56 L 117.06 175.56 Z M 127.31 170.01 L 135.25 170.01 L 135.25 175.56 L 127.31 175.56 Z M 25.53 140.04 L 25.53 142.54 L 49.89 142.54 L 49.89 140.04 Z M 25.53 149.79 L 25.53 152.29 L 49.89 152.29 L 49.89 149.79 Z M 25.53 159.03 L 25.53 161.53 L 49.89 161.53 L 49.89 159.03 Z M 18.49 126.45 L 18.49 176.62 L 19.49 176.62 L 57.75 176.62 L 57.75 135.1 L 49.61 126.45 Z M 20.49 128.45 L 46.8 128.45 L 46.8 135.81 C 46.8 136.39 47.21 136.86 47.79 136.86 L 55.75 136.86 L 55.75 174.62 L 20.49 174.62 Z M 118.68 14.52 A 12.89 12.89 0 0 0 105.78 27.41 A 12.89 12.89 0 0 0 118.68 40.3 A 12.89 12.89 0 0 0 131.57 27.41 A 12.89 12.89 0 0 0 118.68 14.52 Z M 140.65 35.2 L 138.23 37.73 L 180.24 77.95 L 182.66 75.43 Z M 94.63 35.46 L 73.51 51.39 L 75.62 54.19 L 96.74 38.25 Z M 118.76 41.29 C 113.09 41.29 109.23 47.32 107.47 52.28 C 104.82 60.16 104.6 68.76 104.78 78.18 L 132.56 78.25 C 132.76 69.91 132.58 60.65 129.98 53.2 C 127.96 47.42 124.28 41.29 118.76 41.29 Z M 26.42 61.77 A 9.55 9.55 0 0 0 16.86 71.32 A 9.55 9.55 0 0 0 26.42 80.88 A 9.55 9.55 0 0 0 35.97 71.32 A 9.55 9.55 0 0 0 26.42 61.77 Z M 59.31 61.77 A 9.55 9.55 0 0 0 49.76 71.32 A 9.55 9.55 0 0 0 59.31 80.88 A 9.55 9.55 0 0 0 68.87 71.32 A 9.55 9.55 0 0 0 59.31 61.77 Z M 26.48 81.61 C 22.28 81.61 19.42 86.08 18.12 89.75 C 16.15 95.59 15.98 101.97 16.12 108.95 L 36.71 109 C 36.86 102.82 36.72 95.95 34.8 90.43 C 33.3 86.15 30.57 81.61 26.48 81.61 Z M 59.37 81.61 C 55.17 81.61 52.31 86.08 51.01 89.75 C 49.05 95.59 48.88 101.97 49.01 108.95 L 69.6 109 C 69.75 102.82 69.61 95.95 67.69 90.43 C 66.19 86.15 63.46 81.61 59.37 81.61 Z M 185.12 86.74 C 183 86.74 181.3 88.44 181.3 90.56 L 181.3 107.94 C 181.3 110.06 183 111.76 185.12 111.76 L 205.7 111.76 C 207.82 111.76 209.53 110.06 209.53 107.94 L 209.53 102.17 L 219.45 102.17 L 219.45 105.97 L 224.43 105.97 L 224.43 92.54 L 219.45 92.54 L 219.45 96.34 L 209.53 96.34 L 209.53 90.56 C 209.53 88.44 207.82 86.74 205.7 86.74 Z M 77.72 107.22 L 77.72 110.72 L 174.38 110.72 L 174.38 107.22 Z M 11.72 0 C 5.27 0 0 5.27 0 11.72 L 0 180.17 C 0 186.62 5.27 191.89 11.72 191.89 L 236.47 191.89 C 242.91 191.89 248.19 186.62 248.19 180.17 L 248.19 11.72 C 248.19 5.27 242.91 0 236.47 0 Z M 11.72 5.29 L 236.47 5.29 C 240.07 5.29 242.89 8.11 242.89 11.72 L 242.89 180.17 C 242.89 183.78 240.07 186.6 236.47 186.6 L 11.72 186.6 C 8.11 186.6 5.29 183.78 5.29 180.17 L 5.29 11.72 C 5.29 8.11 8.11 5.29 11.72 5.29 Z" fill="var(--icon-primary, #dae8fc)" stroke="none" stroke-width="0"/><path d="M 97.93 97.59 C 93.39 97.56 88.65 96.76 84.14 94.14 C 80.99 92.04 80.51 87.65 81.78 84.22 C 82.76 81.77 86.33 78.91 90.67 78.31 C 93.13 68.66 100.58 62.78 108.76 60.89 C 117.24 59.1 128.88 61.83 134.93 70.35 C 137.69 69.89 141.67 69.62 145.4 71.1 C 149.06 72.69 151.26 75.7 152.33 78.35 C 157.58 79.74 163.19 82.69 162.29 88.2 C 161.11 94.43 153.71 97.83 147.21 98.3 C 141.26 98.67 135.92 97.77 131.07 96.88 C 126.09 101.01 120.22 103.73 112.22 103.14 C 106.97 102.7 101.61 100.35 97.93 97.59 Z" fill="var(--icon-secondary, #6c8ebf)" stroke="none" stroke-width="0"/></svg>