<svg xmlns="http://www.w3.org/2000/svg" viewBox="0 0 938.03 725.26" width="938.03" height="725.26"><path d="M 44.28 20 L 893.74 20 C 907.37 20 918.03 30.66 918.03 44.28 L 918.03 680.96 C 918.03 694.59 907.37 705.25 893.74 705.25 L 44.28 705.25 C 30.66 705.25 20 694.59 20 680.96 L 20 44.28 C 20 30.66 30.66 20 44.28 20 Z M 44.28 0 C 19.92 0 0 19.92 0 44.28 L 0 680.96 C 0 705.33 19.92 725.26 44.28 725.26 L 893.74 725.26 C 918.1 725.26 938.03 705.33 938.03 680.96 L 938.03 44.28 C 938.03 19.92 918.1 0 893.74 0 Z M 115.26 180.85 C 97.02 180.85 82.33 195.54 82.33 213.79 L 82.33 442.51 C 82.33 460.76 97.02 475.45 115.26 475.45 L 231.74 475.45 L 231.74 505.3 L 188.22 505.3 A 20.03 20.03 0 1 0 188.22 545.35 L 344.95 545.35 A 20.03 20.03 0 1 0 344.95 505.3 L 301.43 505.3 L 301.43 475.45 L 417.9 475.45 C 436.15 475.45 450.84 460.76 450.84 442.51 L 450.84 213.79 C 450.84 195.54 436.15 180.85 417.9 180.85 Z M 525.29 180.85 C 507.04 180.85 492.36 195.54 492.36 213.79 L 492.36 442.51 C 492.36 460.76 507.04 475.45 525.29 475.45 L 641.76 475.45 L 641.76 505.3 L 598.25 505.3 A 20.03 20.03 0 1 0 598.25 545.35 L 754.97 545.35 A 20.03 20.03 0 1 0 754.97 505.3 L 711.46 505.3 L 711.46 475.45 L 827.93 475.45 C 846.18 475.45 860.87 460.76 860.87 442.51 L 860.87 213.79 C 860.87 195.54 846.18 180.85 827.93 180.85 Z" fill="var(--icon-primary, #dae8fc)" stroke="none" stroke-width="0"/><path d="M 290.95 447.19 C 290.95 354.02 323.81 327 346.41 327 C 368.82 327 402.32 352.34 402.32 447.19 Z M 398.22 269.94 A 51.48 51.48 0 0 1 346.74 321.42 A 51.48 51.48 0 0 1 295.26 269.94 A 51.48 51.48 0 0 1 346.74 218.45 A 51.48 51.48 0 0 1 398.22 269.94 Z M 143.34 447.19 C 143.34 354.02 176.2 327 198.8 327 C 221.21 327 254.72 352.34 254.72 447.19 Z M 250.62 269.94 A 51.48 51.48 0 0 1 199.13 321.42 A 51.48 51.48 0 0 1 147.65 269.94 A 51.48 51.48 0 0 1 199.13 218.45 A 51.48 51.48 0 0 1 250.62 269.94 Z M 536.86 231.77 L 551.98 231.77 L 551.98 423.91 L 587.43 423.91 L 587.43 358.9 L 628.82 358.9 L 628.82 423.91 L 658.2 423.91 L 658.2 291.86 L 699.59 291.86 L 699.59 423.91 L 728.52 423.91 L 728.52 261.83 L 769.91 261.83 L 769.91 423.91 L 809.85 423.91 L 809.85 439.03 L 536.86 439.03 Z" fill="var(--icon-secondary, #6c8ebf)" stroke="none" stroke-width="0"/></svg>