<svg xmlns="http://www.w3.org/2000/svg" viewBox="0 0 190.99 191.89" width="190.99" height="191.89"><path d="M 11.72 0 C 5.27 0 0 5.27 0 11.72 L 0 180.17 C 0 186.62 5.27 191.89 11.72 191.89 L 179.27 191.89 C 185.72 191.89 190.99 186.62 190.99 180.17 L 190.99 11.72 C 190.99 5.27 185.72 0 179.27 0 Z M 11.72 5.29 L 179.27 5.29 C 182.88 5.29 185.7 8.11 185.7 11.72 L 185.7 180.17 C 185.7 183.78 182.88 186.6 179.27 186.6 L 11.72 186.6 C 8.11 186.6 5.29 183.78 5.29 180.17 L 5.29 11.72 C 5.29 8.11 8.11 5.29 11.72 5.29 Z M 46.84 37.34 C 40.97 37.34 36.25 42.07 36.25 47.93 L 36.25 121.48 C 36.25 127.35 40.97 132.07 46.84 132.07 L 84.29 132.07 L 84.29 141.67 L 70.3 141.67 A 6.44 6.44 0 1 0 70.3 154.55 L 120.69 154.55 A 6.44 6.44 0 1 0 120.69 141.67 L 106.7 141.67 L 106.7 132.07 L 144.15 132.07 C 150.02 132.07 154.74 127.35 154.74 121.48 L 154.74 47.93 C 154.74 42.07 150.02 37.34 144.15 37.34 Z" fill="var(--icon-primary, #dae8fc)" stroke="none" stroke-width="0"/><path d="M 79.09 117.9 C 79.09 91.14 88.53 83.39 95.02 83.39 C 101.45 83.39 111.07 90.66 111.07 117.9 Z M 109.9 67 A 14.78 14.78 0 0 1 95.11 81.78 A 14.78 14.78 0 0 1 80.33 67 A 14.78 14.78 0 0 1 95.11 52.22 A 14.78 14.78 0 0 1 109.9 67 Z" fill="var(--icon-secondary, #6c8ebf)" stroke="none" stroke-width="0"/></svg>