<svg xmlns="http://www.w3.org/2000/svg" viewBox="0 0 190.99 191.89" width="190.99" height="191.89"><path d="M 11.72 5.29 L 179.27 5.29 C 182.88 5.29 185.7 8.11 185.7 11.72 L 185.7 180.17 C 185.7 183.78 182.88 186.6 179.27 186.6 L 11.72 186.6 C 8.11 186.6 5.29 183.78 5.29 180.17 L 5.29 11.72 C 5.29 8.11 8.11 5.29 11.72 5.29 Z M 11.72 0 C 5.27 0 0 5.27 0 11.72 L 0 180.17 C 0 186.62 5.27 191.89 11.72 191.89 L 179.27 191.89 C 185.72 191.89 190.99 186.62 190.99 180.17 L 190.99 11.72 C 190.99 5.27 185.72 0 179.27 0 Z M 93.58 95.6 L 93.58 97.09 C 93.58 97.51 93.27 97.91 92.79 97.91 L 91.07 97.91 C 90.64 97.91 90.49 97.52 90.49 96.98 L 90.49 95.6 Z M 88.3 95.6 L 88.3 97.09 C 88.3 97.51 87.99 97.91 87.5 97.91 L 85.78 97.91 C 85.35 97.91 85.2 97.52 85.2 96.98 L 85.2 95.6 Z M 92.52 102.95 L 92.48 100.61 C 92.48 99.64 92.76 99.17 93.8 99.17 C 94.61 99.17 94.92 98.83 94.92 98.22 L 94.86 94.38 C 91.19 94.53 87.53 94.55 83.86 94.41 L 83.85 98.05 C 83.85 98.69 83.96 99.08 84.74 99.08 C 85.52 99.08 86.19 99.37 86.19 100.21 L 86.15 102.89 C 86.97 103.6 90.86 103.67 92.52 102.95 Z M 81.27 113.23 C 79.81 113.23 78.68 112.14 78.68 110.78 L 78.68 103.56 C 78.68 102.51 79.52 101.33 80.59 101.33 L 80.57 100.05 C 80.57 99.31 80.97 99.09 82.22 99.09 C 81.34 96.96 81.55 95.34 82.18 93.92 C 79.99 93.86 77.6 93.57 77.6 92.75 C 77.6 91.7 80.9 90.61 82.83 90.41 L 84.52 85.16 C 84.74 84.45 85.08 84.15 85.57 84.15 L 92.79 84.18 C 93.79 84.18 94.35 84.65 94.57 85.54 L 95.94 90.4 C 98.08 90.98 101.03 91.87 101.03 92.81 C 101.03 93.66 98.33 93.73 96.44 93.82 C 97.35 95.62 96.98 97.53 96.45 99.14 C 97.59 99.11 98.03 99.61 98.03 100.24 L 98.03 101.22 C 99.15 101.22 99.96 102.4 99.96 103.52 L 99.96 110.47 C 99.96 112.57 98.68 113.27 97.22 113.27 L 89.73 113.24 L 89.73 103.61 L 89.19 103.61 L 89.19 113.22 Z M 110.11 123.11 L 132.13 123.11 L 132.13 78.49 L 98.39 78.49 Z M 72.44 123.11 L 94.46 123.11 L 94.46 78.49 L 60.72 78.49 Z M 49.32 138.87 C 45.71 138.87 43.95 137.76 43.95 134.35 L 43.93 66.71 C 43.93 64.17 45.17 61.88 48.6 61.88 L 127.92 61.87 C 131.15 61.87 132.49 60.78 134.33 58.97 L 137.84 55.95 C 140.07 53.88 141.12 53.35 144.46 53.45 L 167.21 53.43 C 170.37 53.43 172.49 55.48 172.49 57.88 L 172.56 133.62 C 172.56 137.22 170.76 138.89 167.2 138.86 Z M 114.24 107.79 L 134.22 107.79 L 134.22 110.97 L 114.24 110.97 Z M 114.24 101.27 L 138.7 101.27 L 138.7 104.45 L 114.24 104.45 Z M 114.24 94.75 L 134.22 94.75 L 134.22 97.93 L 114.24 97.93 Z M 114.24 88.23 L 138.7 88.23 L 138.7 91.41 L 114.24 91.41 Z" fill="var(--icon-primary, #dae8fc)" stroke="none" stroke-width="0"/></svg>