<svg xmlns="http://www.w3.org/2000/svg" viewBox="0 0 248.19 191.89" width="248.19" height="191.89"><path d="M 125.87 57.16 L 140.31 67.44 L 125.87 77.71 L 125.87 70.72 L 109.31 70.72 L 109.31 64.15 L 125.87 64.15 Z M 124.29 117.12 L 109.85 127.39 L 124.29 137.66 L 124.29 130.67 L 140.86 130.67 L 140.86 124.11 L 124.29 124.11 Z M 161.69 100.27 A 15.39 15.39 0 0 0 146.3 115.66 A 15.39 15.39 0 0 0 153.6 128.73 C 147.92 135.45 144.71 144.31 144.71 153.07 L 144.71 168.02 L 178.68 168.02 L 178.68 153.07 C 178.68 144.21 174.67 135.71 169.35 128.99 A 15.39 15.39 0 0 0 177.09 115.66 A 15.39 15.39 0 0 0 161.69 100.27 Z M 89.25 100.27 A 15.39 15.39 0 0 0 73.86 115.66 A 15.39 15.39 0 0 0 81.16 128.73 C 75.48 135.45 72.27 144.31 72.27 153.07 L 72.27 168.02 L 106.24 168.02 L 106.24 153.07 C 106.24 144.21 102.23 135.71 96.91 128.99 A 15.39 15.39 0 0 0 104.65 115.66 A 15.39 15.39 0 0 0 89.25 100.27 Z M 161.69 25.18 A 15.39 15.39 0 0 0 146.3 40.57 A 15.39 15.39 0 0 0 153.6 53.64 C 147.92 60.36 144.71 69.22 144.71 77.98 L 144.71 92.93 L 178.68 92.93 L 178.68 77.98 C 178.68 69.12 174.67 60.62 169.35 53.9 A 15.39 15.39 0 0 0 177.09 40.57 A 15.39 15.39 0 0 0 161.69 25.18 Z M 89.25 25.18 A 15.39 15.39 0 0 0 73.86 40.57 A 15.39 15.39 0 0 0 81.16 53.64 C 75.48 60.36 72.27 69.22 72.27 77.98 L 72.27 92.93 L 106.24 92.93 L 106.24 77.98 C 106.24 69.12 102.23 60.62 96.91 53.9 A 15.39 15.39 0 0 0 104.65 40.57 A 15.39 15.39 0 0 0 89.25 25.18 Z M 41.29 99.44 L 41.29 110.93 L 14.06 110.93 L 14.06 121.73 L 41.29 121.73 L 41.29 133.22 L 65.02 116.33 Z M 37.8 54.07 L 14.06 70.96 L 37.8 87.84 L 37.8 76.35 L 65.02 76.35 L 65.02 65.56 L 37.8 65.56 Z M 211.01 54.07 L 211.01 65.56 L 183.78 65.56 L 183.78 76.35 L 211.01 76.35 L 211.01 87.84 L 234.75 70.96 Z M 207.52 99.44 L 183.78 116.33 L 207.52 133.22 L 207.52 121.73 L 234.75 121.73 L 234.75 110.93 L 207.52 110.93 Z M 11.72 0 C 5.27 0 0 5.27 0 11.72 L 0 180.17 C 0 186.62 5.27 191.89 11.72 191.89 L 236.47 191.89 C 242.91 191.89 248.19 186.62 248.19 180.17 L 248.19 11.72 C 248.19 5.27 242.91 0 236.47 0 Z M 11.72 5.29 L 236.47 5.29 C 240.07 5.29 242.89 8.11 242.89 11.72 L 242.89 180.17 C 242.89 183.78 240.07 186.6 236.47 186.6 L 11.72 186.6 C 8.11 186.6 5.29 183.78 5.29 180.17 L 5.29 11.72 C 5.29 8.11 8.11 5.29 11.72 5.29 Z" fill="var(--icon-primary, #dae8fc)" stroke="none" stroke-width="0"/></svg>