<svg xmlns="http://www.w3.org/2000/svg" viewBox="0 0 248.19 191.89" width="248.19" height="191.89"><path d="M 62.72 158.32 L 185.79 158.32 L 185.79 173.17 L 62.72 173.17 Z M 62.72 130.58 L 185.79 130.58 L 185.79 145.43 L 62.72 145.43 Z M 62.72 102.84 L 185.79 102.84 L 185.79 117.69 L 62.72 117.69 Z M 62.72 75.1 L 185.79 75.1 L 185.79 89.95 L 62.72 89.95 Z M 62.72 47.36 L 185.79 47.36 L 185.79 62.21 L 62.72 62.21 Z M 62.72 19.62 L 185.79 19.62 L 185.79 34.48 L 62.72 34.48 Z M 218.88 47.35 L 225.87 47.35 A 2.94 1.4 0 0 0 227.55 48.21 L 225.96 53.08 A 2.94 1.4 0 0 0 223.61 53.76 L 216.12 53.75 A 2.94 1.4 0 0 0 214.76 53.19 L 216.35 48.3 A 2.94 1.4 0 0 0 218.88 47.35 Z M 206.46 47.33 L 213.3 47.34 A 2.94 1.4 0 0 0 215.18 48.24 L 213.6 53.07 A 2.94 1.4 0 0 0 211.11 53.75 L 203.66 53.74 A 2.94 1.4 0 0 0 202.41 53.21 L 204.02 48.3 A 2.94 1.4 0 0 0 206.46 47.33 Z M 221.44 39.5 L 228.97 39.51 A 2.94 1.4 0 0 0 230.21 40.06 L 228.43 45.51 A 2.94 1.4 0 0 0 226.1 46.22 L 218.63 46.21 A 2.94 1.4 0 0 0 217.23 45.62 L 219 40.21 A 2.94 1.4 0 0 0 221.44 39.5 Z M 209.07 39.49 L 216.34 39.5 A 2.94 1.4 0 0 0 217.84 40.12 L 216.08 45.51 A 2.94 1.4 0 0 0 213.55 46.21 L 206.19 46.2 A 2.94 1.4 0 0 0 204.89 45.64 L 206.66 40.21 A 2.94 1.4 0 0 0 209.07 39.49 Z M 219.88 33.87 L 218.72 37.41 A 2.94 1.4 0 0 0 216.11 38.36 L 209.28 38.36 A 2.94 1.4 0 0 0 207.54 37.5 L 208.57 34.35 L 207.5 33.99 L 206.38 37.41 A 2.94 1.4 0 0 0 203.73 38.35 L 198.42 38.35 L 198.42 39.48 L 203.94 39.49 A 2.94 1.4 0 0 0 205.49 40.12 L 203.74 45.51 A 2.94 1.4 0 0 0 203.66 45.51 A 2.94 1.4 0 0 0 201.14 46.19 L 196.61 46.19 L 196.61 47.32 L 200.87 47.33 A 2.94 1.4 0 0 0 202.84 48.25 L 201.26 53.08 A 2.94 1.4 0 0 0 201.16 53.07 A 2.94 1.4 0 0 0 198.68 53.73 L 194.83 53.73 L 194.83 54.86 L 198.35 54.86 A 2.94 1.4 0 0 0 200.37 55.82 L 199.51 58.46 L 200.59 58.81 L 201.55 55.86 A 2.94 1.4 0 0 0 203.98 54.87 L 210.8 54.88 A 2.94 1.4 0 0 0 212.71 55.81 L 211.89 58.33 L 212.97 58.68 L 213.88 55.87 A 2.94 1.4 0 0 0 216.42 54.88 L 223.33 54.89 A 2.94 1.4 0 0 0 225.08 55.78 L 224.21 58.44 L 225.29 58.79 L 226.24 55.88 A 2.94 1.4 0 0 0 228.93 54.9 L 233.3 54.9 L 233.3 53.77 L 228.65 53.76 A 2.94 1.4 0 0 0 227.13 53.16 L 228.71 48.31 A 2.94 1.4 0 0 0 231.43 47.36 L 235.08 47.36 L 235.08 46.23 L 231.21 46.22 A 2.94 1.4 0 0 0 229.6 45.58 L 231.36 40.21 A 2.94 1.4 0 0 0 231.51 40.21 A 2.94 1.4 0 0 0 234.04 39.52 L 236.89 39.52 L 236.89 38.39 L 234.3 38.38 A 2.94 1.4 0 0 0 232.26 37.46 L 233.28 34.33 L 232.2 33.97 L 231.07 37.43 A 2.94 1.4 0 0 0 228.72 38.38 L 221.68 38.37 A 2.94 1.4 0 0 0 219.88 37.49 L 220.95 34.22 Z M 219.11 155.05 L 226.1 155.06 A 2.94 1.4 0 0 0 227.78 155.91 L 226.19 160.78 A 2.94 1.4 0 0 0 223.85 161.46 L 216.35 161.45 A 2.94 1.4 0 0 0 214.99 160.89 L 216.59 156.01 A 2.94 1.4 0 0 0 219.11 155.05 Z M 206.69 155.04 L 213.53 155.04 A 2.94 1.4 0 0 0 215.41 155.94 L 213.84 160.78 A 2.94 1.4 0 0 0 211.34 161.45 L 203.89 161.44 A 2.94 1.4 0 0 0 202.65 160.91 L 204.25 156 A 2.94 1.4 0 0 0 206.69 155.04 Z M 221.68 147.21 L 229.21 147.21 A 2.94 1.4 0 0 0 230.44 147.77 L 228.66 153.21 A 2.94 1.4 0 0 0 226.33 153.92 L 218.87 153.92 A 2.94 1.4 0 0 0 217.46 153.32 L 219.23 147.91 A 2.94 1.4 0 0 0 221.68 147.21 Z M 209.3 147.2 L 216.57 147.2 A 2.94 1.4 0 0 0 218.07 147.82 L 216.31 153.21 A 2.94 1.4 0 0 0 213.79 153.91 L 206.43 153.9 A 2.94 1.4 0 0 0 205.12 153.34 L 206.89 147.91 A 2.94 1.4 0 0 0 209.3 147.2 Z M 220.11 141.57 L 218.95 145.12 A 2.94 1.4 0 0 0 216.35 146.07 L 209.51 146.06 A 2.94 1.4 0 0 0 207.78 145.2 L 208.81 142.05 L 207.73 141.7 L 206.61 145.11 A 2.94 1.4 0 0 0 203.97 146.06 L 198.65 146.05 L 198.65 147.19 L 204.17 147.19 A 2.94 1.4 0 0 0 205.73 147.83 L 203.97 153.21 A 2.94 1.4 0 0 0 203.9 153.21 A 2.94 1.4 0 0 0 201.37 153.9 L 196.84 153.89 L 196.84 155.03 L 201.1 155.03 A 2.94 1.4 0 0 0 203.07 155.96 L 201.5 160.78 A 2.94 1.4 0 0 0 201.4 160.78 A 2.94 1.4 0 0 0 198.91 161.44 L 195.06 161.43 L 195.06 162.57 L 198.58 162.57 A 2.94 1.4 0 0 0 200.6 163.53 L 199.74 166.16 L 200.82 166.51 L 201.78 163.57 A 2.94 1.4 0 0 0 204.21 162.57 L 211.03 162.58 A 2.94 1.4 0 0 0 212.94 163.51 L 212.12 166.03 L 213.2 166.38 L 214.12 163.57 A 2.94 1.4 0 0 0 216.65 162.59 L 223.56 162.6 A 2.94 1.4 0 0 0 225.31 163.49 L 224.44 166.14 L 225.52 166.49 L 226.47 163.58 A 2.94 1.4 0 0 0 229.16 162.6 L 233.53 162.61 L 233.53 161.47 L 228.89 161.47 A 2.94 1.4 0 0 0 227.36 160.86 L 228.94 156.01 A 2.94 1.4 0 0 0 231.66 155.06 L 235.31 155.07 L 235.31 153.93 L 231.44 153.93 A 2.94 1.4 0 0 0 229.83 153.29 L 231.59 147.91 A 2.94 1.4 0 0 0 231.74 147.92 A 2.94 1.4 0 0 0 234.28 147.22 L 237.12 147.22 L 237.12 146.09 L 234.54 146.09 A 2.94 1.4 0 0 0 232.49 145.16 L 233.51 142.03 L 232.43 141.68 L 231.31 145.13 A 2.94 1.4 0 0 0 228.95 146.08 L 221.91 146.07 A 2.94 1.4 0 0 0 220.12 145.2 L 221.19 141.92 Z M 36.55 155.05 L 43.54 155.06 A 2.94 1.4 0 0 0 45.22 155.91 L 43.63 160.78 A 2.94 1.4 0 0 0 41.28 161.46 L 33.79 161.45 A 2.94 1.4 0 0 0 32.43 160.89 L 34.02 156.01 A 2.94 1.4 0 0 0 36.55 155.05 Z M 24.13 155.04 L 30.97 155.04 A 2.94 1.4 0 0 0 32.85 155.94 L 31.27 160.78 A 2.94 1.4 0 0 0 28.78 161.45 L 21.33 161.44 A 2.94 1.4 0 0 0 20.08 160.91 L 21.69 156 A 2.94 1.4 0 0 0 24.13 155.04 Z M 39.11 147.21 L 46.64 147.21 A 2.94 1.4 0 0 0 47.88 147.77 L 46.1 153.21 A 2.94 1.4 0 0 0 43.77 153.92 L 36.3 153.92 A 2.94 1.4 0 0 0 34.9 153.32 L 36.67 147.91 A 2.94 1.4 0 0 0 39.11 147.21 Z M 26.74 147.2 L 34.01 147.2 A 2.94 1.4 0 0 0 35.51 147.82 L 33.74 153.21 A 2.94 1.4 0 0 0 31.22 153.91 L 23.86 153.9 A 2.94 1.4 0 0 0 22.56 153.34 L 24.33 147.91 A 2.94 1.4 0 0 0 26.74 147.2 Z M 37.55 141.57 L 36.39 145.12 A 2.94 1.4 0 0 0 33.78 146.07 L 26.95 146.06 A 2.94 1.4 0 0 0 25.21 145.2 L 26.24 142.05 L 25.17 141.7 L 24.05 145.11 A 2.94 1.4 0 0 0 21.4 146.06 L 16.09 146.05 L 16.09 147.19 L 21.61 147.19 A 2.94 1.4 0 0 0 23.16 147.83 L 21.41 153.21 A 2.94 1.4 0 0 0 21.33 153.21 A 2.94 1.4 0 0 0 18.81 153.9 L 14.28 153.89 L 14.28 155.03 L 18.54 155.03 A 2.94 1.4 0 0 0 20.51 155.96 L 18.93 160.78 A 2.94 1.4 0 0 0 18.83 160.78 A 2.94 1.4 0 0 0 16.35 161.44 L 12.5 161.43 L 12.5 162.57 L 16.01 162.57 A 2.94 1.4 0 0 0 18.04 163.53 L 17.18 166.16 L 18.25 166.51 L 19.22 163.57 A 2.94 1.4 0 0 0 21.65 162.57 L 28.47 162.58 A 2.94 1.4 0 0 0 30.38 163.51 L 29.56 166.03 L 30.63 166.38 L 31.55 163.57 A 2.94 1.4 0 0 0 34.09 162.59 L 41 162.6 A 2.94 1.4 0 0 0 42.75 163.49 L 41.88 166.14 L 42.96 166.49 L 43.91 163.58 A 2.94 1.4 0 0 0 46.6 162.6 L 50.97 162.61 L 50.97 161.47 L 46.32 161.47 A 2.94 1.4 0 0 0 44.8 160.86 L 46.38 156.01 A 2.94 1.4 0 0 0 49.1 155.06 L 52.75 155.07 L 52.75 153.93 L 48.88 153.93 A 2.94 1.4 0 0 0 47.27 153.29 L 49.03 147.91 A 2.94 1.4 0 0 0 49.18 147.92 A 2.94 1.4 0 0 0 51.71 147.22 L 54.56 147.22 L 54.56 146.09 L 51.97 146.09 A 2.94 1.4 0 0 0 49.92 145.16 L 50.95 142.03 L 49.87 141.68 L 48.74 145.13 A 2.94 1.4 0 0 0 46.39 146.08 L 39.35 146.07 A 2.94 1.4 0 0 0 37.55 145.2 L 38.62 141.92 Z M 210.58 97.96 A 6.87 6.87 0 0 0 215.25 102.7 C 212.76 104.85 210.41 106.63 208.4 107.9 C 206.81 108.91 205.43 109.6 204.44 109.91 C 203.94 110.07 203.55 110.13 203.31 110.12 C 203.07 110.11 203.04 110.07 203.03 110.06 C 203.03 110.06 202.98 110.02 202.98 109.78 C 202.97 109.55 203.04 109.15 203.2 108.66 C 203.53 107.67 204.24 106.3 205.27 104.73 C 206.58 102.74 208.39 100.41 210.58 97.96 Z M 223.8 97.95 C 225.99 100.41 227.81 102.74 229.11 104.73 C 230.15 106.3 230.86 107.67 231.18 108.66 C 231.35 109.15 231.41 109.55 231.41 109.78 C 231.4 110.02 231.36 110.06 231.35 110.06 C 231.35 110.07 231.31 110.11 231.08 110.12 C 230.84 110.13 230.44 110.07 229.95 109.91 C 228.95 109.6 227.57 108.91 225.99 107.91 C 223.98 106.63 221.62 104.85 219.13 102.7 A 6.87 6.87 0 0 0 223.8 97.95 Z M 203.31 82.11 C 203.55 82.1 203.94 82.16 204.44 82.32 C 205.43 82.63 206.81 83.32 208.4 84.33 C 210.41 85.6 212.77 87.38 215.25 89.53 A 6.87 6.87 0 0 0 210.58 94.28 C 208.39 91.83 206.58 89.5 205.27 87.51 C 204.24 85.93 203.53 84.57 203.2 83.58 C 203.04 83.08 202.97 82.69 202.98 82.45 C 202.98 82.21 203.03 82.18 203.03 82.17 C 203.04 82.17 203.07 82.12 203.31 82.11 Z M 231.08 82.11 C 231.31 82.12 231.35 82.17 231.35 82.17 C 231.36 82.18 231.4 82.21 231.41 82.45 C 231.41 82.69 231.35 83.08 231.18 83.58 C 230.86 84.57 230.14 85.93 229.11 87.5 C 227.81 89.49 226 91.82 223.81 94.28 A 6.87 6.87 0 0 0 219.13 89.53 C 221.62 87.38 223.98 85.6 225.99 84.33 C 227.57 83.32 228.95 82.63 229.95 82.32 C 230.44 82.16 230.84 82.11 231.08 82.11 Z M 217.26 77.13 L 213.7 80.54 L 216.22 80.54 L 216.22 87.79 C 213.79 85.71 211.48 83.97 209.44 82.68 C 207.77 81.62 206.29 80.86 205.03 80.46 C 204.39 80.26 203.81 80.15 203.24 80.17 C 202.67 80.18 202.08 80.37 201.64 80.8 C 201.21 81.24 201.04 81.84 201.03 82.41 C 201.02 82.98 201.14 83.56 201.35 84.19 C 201.77 85.45 202.55 86.92 203.64 88.57 C 204.94 90.55 206.67 92.79 208.74 95.15 L 201.62 95.15 L 201.62 92.62 L 198.21 96.19 L 201.62 99.61 L 201.62 97.27 L 208.58 97.27 C 206.58 99.56 204.9 101.73 203.64 103.66 C 202.55 105.32 201.77 106.78 201.35 108.04 C 201.14 108.67 201.02 109.25 201.03 109.82 C 201.04 110.39 201.21 110.99 201.64 111.43 C 202.08 111.87 202.67 112.05 203.24 112.07 C 203.81 112.09 204.39 111.97 205.03 111.77 C 206.29 111.37 207.77 110.61 209.44 109.55 C 211.48 108.26 213.79 106.52 216.22 104.44 L 216.22 111.69 L 213.7 111.69 L 217.26 115.1 L 220.69 111.69 L 218.35 111.69 L 218.35 104.6 C 220.71 106.61 222.96 108.29 224.94 109.55 C 226.62 110.61 228.09 111.37 229.36 111.77 C 229.99 111.97 230.57 112.09 231.14 112.07 C 231.71 112.05 232.31 111.87 232.74 111.43 C 233.18 110.99 233.35 110.39 233.36 109.82 C 233.37 109.25 233.24 108.67 233.03 108.04 C 232.62 106.78 231.83 105.32 230.74 103.66 C 229.48 101.73 227.8 99.56 225.81 97.27 L 232.77 97.27 L 232.77 99.61 L 236.18 96.19 L 232.77 92.62 L 232.77 95.15 L 225.64 95.15 C 227.71 92.79 229.45 90.55 230.74 88.57 C 231.83 86.92 232.62 85.45 233.03 84.19 C 233.24 83.56 233.37 82.98 233.36 82.41 C 233.35 81.84 233.17 81.24 232.74 80.8 C 232.31 80.37 231.71 80.18 231.14 80.17 C 230.57 80.15 229.99 80.26 229.36 80.46 C 228.09 80.86 226.62 81.62 224.94 82.68 C 222.96 83.94 220.71 85.63 218.35 87.64 L 218.35 80.54 L 220.69 80.54 Z M 26.53 97.96 A 6.87 6.87 0 0 0 31.21 102.7 C 28.72 104.85 26.36 106.63 24.35 107.9 C 22.76 108.91 21.38 109.6 20.39 109.91 C 19.9 110.07 19.5 110.13 19.26 110.12 C 19.02 110.11 18.99 110.07 18.98 110.06 C 18.98 110.06 18.93 110.02 18.93 109.78 C 18.92 109.55 18.99 109.15 19.15 108.66 C 19.48 107.67 20.19 106.3 21.22 104.73 C 22.53 102.74 24.34 100.41 26.53 97.96 Z M 39.76 97.95 C 41.94 100.41 43.76 102.74 45.07 104.73 C 46.1 106.3 46.81 107.67 47.14 108.66 C 47.3 109.15 47.36 109.55 47.36 109.78 C 47.36 110.02 47.31 110.06 47.31 110.06 C 47.3 110.07 47.27 110.11 47.03 110.12 C 46.79 110.13 46.39 110.07 45.9 109.91 C 44.9 109.6 43.53 108.91 41.94 107.91 C 39.93 106.63 37.57 104.85 35.08 102.7 A 6.87 6.87 0 0 0 39.76 97.95 Z M 19.26 82.11 C 19.5 82.1 19.9 82.16 20.39 82.32 C 21.38 82.63 22.76 83.32 24.35 84.33 C 26.36 85.6 28.72 87.38 31.21 89.53 A 6.87 6.87 0 0 0 26.53 94.28 C 24.34 91.83 22.53 89.5 21.22 87.51 C 20.19 85.93 19.48 84.57 19.15 83.58 C 18.99 83.08 18.92 82.69 18.93 82.45 C 18.93 82.21 18.98 82.18 18.98 82.17 C 18.99 82.17 19.02 82.12 19.26 82.11 Z M 47.03 82.11 C 47.27 82.12 47.3 82.17 47.31 82.17 C 47.31 82.18 47.36 82.21 47.36 82.45 C 47.36 82.69 47.3 83.08 47.14 83.58 C 46.81 84.57 46.1 85.93 45.07 87.5 C 43.76 89.49 41.95 91.82 39.76 94.28 A 6.87 6.87 0 0 0 35.08 89.53 C 37.57 87.38 39.93 85.6 41.94 84.33 C 43.53 83.32 44.9 82.63 45.9 82.32 C 46.39 82.16 46.79 82.11 47.03 82.11 Z M 33.21 77.13 L 29.65 80.54 L 32.17 80.54 L 32.17 87.79 C 29.74 85.71 27.43 83.97 25.39 82.68 C 23.72 81.62 22.25 80.86 20.98 80.46 C 20.35 80.26 19.76 80.15 19.19 80.17 C 18.62 80.18 18.03 80.37 17.59 80.8 C 17.16 81.24 16.99 81.84 16.98 82.41 C 16.97 82.98 17.09 83.56 17.3 84.19 C 17.72 85.45 18.51 86.92 19.59 88.57 C 20.89 90.55 22.63 92.79 24.69 95.15 L 17.57 95.15 L 17.57 92.62 L 14.16 96.19 L 17.57 99.61 L 17.57 97.27 L 24.53 97.27 C 22.54 99.56 20.86 101.73 19.59 103.66 C 18.51 105.32 17.72 106.78 17.3 108.04 C 17.09 108.67 16.97 109.25 16.98 109.82 C 16.99 110.39 17.16 110.99 17.59 111.43 C 18.03 111.87 18.62 112.05 19.19 112.07 C 19.76 112.09 20.35 111.97 20.98 111.77 C 22.25 111.37 23.72 110.61 25.39 109.55 C 27.43 108.26 29.74 106.52 32.17 104.44 L 32.17 111.69 L 29.65 111.69 L 33.21 115.1 L 36.64 111.69 L 34.3 111.69 L 34.3 104.6 C 36.66 106.61 38.91 108.29 40.89 109.55 C 42.57 110.61 44.04 111.37 45.31 111.77 C 45.94 111.97 46.53 112.09 47.1 112.07 C 47.66 112.05 48.26 111.87 48.69 111.43 C 49.13 110.99 49.3 110.39 49.31 109.82 C 49.32 109.25 49.2 108.67 48.99 108.04 C 48.57 106.78 47.78 105.32 46.7 103.66 C 45.43 101.73 43.75 99.56 41.76 97.27 L 48.72 97.27 L 48.72 99.61 L 52.13 96.19 L 48.72 92.62 L 48.72 95.15 L 41.6 95.15 C 43.66 92.79 45.4 90.55 46.7 88.57 C 47.78 86.92 48.57 85.45 48.99 84.19 C 49.2 83.56 49.32 82.98 49.31 82.41 C 49.3 81.84 49.13 81.24 48.69 80.8 C 48.26 80.37 47.66 80.18 47.09 80.17 C 46.53 80.15 45.94 80.26 45.31 80.46 C 44.04 80.86 42.57 81.62 40.89 82.68 C 38.91 83.94 36.66 85.63 34.3 87.64 L 34.3 80.54 L 36.64 80.54 Z M 36.59 47.35 L 43.58 47.35 A 2.94 1.4 0 0 0 45.26 48.21 L 43.67 53.08 A 2.94 1.4 0 0 0 41.32 53.76 L 33.83 53.75 A 2.94 1.4 0 0 0 32.47 53.19 L 34.06 48.3 A 2.94 1.4 0 0 0 36.59 47.35 Z M 24.17 47.33 L 31.01 47.34 A 2.94 1.4 0 0 0 32.89 48.24 L 31.31 53.07 A 2.94 1.4 0 0 0 28.82 53.75 L 21.37 53.74 A 2.94 1.4 0 0 0 20.12 53.21 L 21.73 48.3 A 2.94 1.4 0 0 0 24.17 47.33 Z M 39.15 39.5 L 46.68 39.51 A 2.94 1.4 0 0 0 47.92 40.06 L 46.14 45.51 A 2.94 1.4 0 0 0 43.81 46.22 L 36.34 46.21 A 2.94 1.4 0 0 0 34.94 45.62 L 36.71 40.21 A 2.94 1.4 0 0 0 39.15 39.5 Z M 26.78 39.49 L 34.05 39.5 A 2.94 1.4 0 0 0 35.54 40.12 L 33.78 45.51 A 2.94 1.4 0 0 0 31.26 46.21 L 23.9 46.2 A 2.94 1.4 0 0 0 22.6 45.64 L 24.37 40.21 A 2.94 1.4 0 0 0 26.78 39.49 Z M 37.59 33.87 L 36.43 37.41 A 2.94 1.4 0 0 0 33.82 38.36 L 26.99 38.36 A 2.94 1.4 0 0 0 25.25 37.5 L 26.28 34.35 L 25.21 33.99 L 24.09 37.41 A 2.94 1.4 0 0 0 21.44 38.35 L 16.13 38.35 L 16.13 39.48 L 21.65 39.49 A 2.94 1.4 0 0 0 23.2 40.12 L 21.45 45.51 A 2.94 1.4 0 0 0 21.37 45.51 A 2.94 1.4 0 0 0 18.85 46.19 L 14.32 46.19 L 14.32 47.32 L 18.58 47.33 A 2.94 1.4 0 0 0 20.55 48.25 L 18.97 53.08 A 2.94 1.4 0 0 0 18.87 53.07 A 2.94 1.4 0 0 0 16.39 53.73 L 12.54 53.73 L 12.54 54.86 L 16.05 54.86 A 2.94 1.4 0 0 0 18.08 55.82 L 17.22 58.46 L 18.29 58.81 L 19.26 55.86 A 2.94 1.4 0 0 0 21.69 54.87 L 28.51 54.88 A 2.94 1.4 0 0 0 30.42 55.81 L 29.6 58.33 L 30.67 58.68 L 31.59 55.87 A 2.94 1.4 0 0 0 34.13 54.88 L 41.04 54.89 A 2.94 1.4 0 0 0 42.79 55.78 L 41.92 58.44 L 43 58.79 L 43.95 55.88 A 2.94 1.4 0 0 0 46.64 54.9 L 51.01 54.9 L 51.01 53.77 L 46.36 53.76 A 2.94 1.4 0 0 0 44.84 53.16 L 46.42 48.31 A 2.94 1.4 0 0 0 49.14 47.36 L 52.79 47.36 L 52.79 46.23 L 48.92 46.22 A 2.94 1.4 0 0 0 47.31 45.58 L 49.07 40.21 A 2.94 1.4 0 0 0 49.22 40.21 A 2.94 1.4 0 0 0 51.75 39.52 L 54.6 39.52 L 54.6 38.39 L 52.01 38.38 A 2.94 1.4 0 0 0 49.96 37.46 L 50.99 34.33 L 49.91 33.97 L 48.78 37.43 A 2.94 1.4 0 0 0 46.43 38.38 L 39.39 38.37 A 2.94 1.4 0 0 0 37.59 37.49 L 38.66 34.22 Z M 11.72 0 C 5.27 0 0 5.27 0 11.72 L 0 180.17 C 0 186.62 5.27 191.89 11.72 191.89 L 236.47 191.89 C 242.91 191.89 248.19 186.62 248.19 180.17 L 248.19 11.72 C 248.19 5.27 242.91 0 236.47 0 Z M 11.72 5.29 L 236.47 5.29 C 240.07 5.29 242.89 8.11 242.89 11.72 L 242.89 180.17 C 242.89 183.78 240.07 186.6 236.47 186.6 L 11.72 186.6 C 8.11 186.6 5.29 183.78 5.29 180.17 L 5.29 11.72 C 5.29 8.11 8.11 5.29 11.72 5.29 Z" fill="var(--icon-primary, #dae8fc)" stroke="none" stroke-width="0"/><path d="M 224.06 96.12 A 6.87 6.87 0 0 1 217.19 102.99 A 6.87 6.87 0 0 1 210.32 96.12 A 6.87 6.87 0 0 1 217.19 89.25 A 6.87 6.87 0 0 1 224.06 96.12 Z M 40.01 96.12 A 6.87 6.87 0 0 1 33.14 102.99 A 6.87 6.87 0 0 1 26.28 96.12 A 6.87 6.87 0 0 1 33.14 89.25 A 6.87 6.87 0 0 1 40.01 96.12 Z" fill="#ffffff" stroke="none" stroke-width="0" opacity="0.5"/></svg>