<svg xmlns="http://www.w3.org/2000/svg" viewBox="0 0 190.99 191.89" width="190.99" height="191.89"><path d="M 94.48 50.41 C 119.69 50.41 140.06 70.78 140.06 95.99 C 140.06 121.2 119.69 141.57 94.48 141.57 C 69.26 141.57 48.89 121.2 48.89 95.99 C 48.89 70.78 69.26 50.41 94.48 50.41 Z M 79.22 77.92 L 79.22 104.41 C 79.22 109.14 81.06 113.21 84.01 115.8 C 86.95 118.4 90.74 119.52 94.47 119.52 C 98.4 119.52 102.28 118.29 105.3 115.7 C 108.32 113.11 110.31 109.06 110.31 104.41 L 110.31 77.92 L 102.31 77.92 L 102.31 104.41 C 102.31 106.94 101.45 108.45 100.09 109.62 C 98.72 110.79 96.69 111.52 94.47 111.52 C 92.35 111.52 90.51 110.88 89.29 109.8 C 88.07 108.73 87.22 107.24 87.22 104.41 L 87.22 77.92 Z M 11.72 0 C 5.27 0 0 5.27 0 11.72 L 0 180.17 C 0 186.62 5.27 191.89 11.72 191.89 L 179.27 191.89 C 185.72 191.89 190.99 186.62 190.99 180.17 L 190.99 11.72 C 190.99 5.27 185.72 0 179.27 0 Z M 11.72 5.29 L 179.27 5.29 C 182.88 5.29 185.7 8.11 185.7 11.72 L 185.7 180.17 C 185.7 183.78 182.88 186.6 179.27 186.6 L 11.72 186.6 C 8.11 186.6 5.29 183.78 5.29 180.17 L 5.29 11.72 C 5.29 8.11 8.11 5.29 11.72 5.29 Z M 45.54 23.83 L 30.11 43.33 L 60.98 43.33 Z M 148.24 31.32 L 148.24 62.18 L 167.74 46.75 Z M 94.49 43.56 L 94.49 43.61 C 94.48 43.61 94.48 43.61 94.48 43.61 C 74.84 43.61 57.7 54.46 48.73 70.49 L 48.73 45.68 L 42.35 45.68 L 42.35 90.74 C 42.18 92.47 42.09 94.22 42.09 95.99 C 42.09 115.75 53.08 132.98 69.26 141.9 L 44.09 141.9 L 44.09 148.28 L 91.29 148.28 C 92.34 148.34 93.41 148.38 94.48 148.38 C 114.27 148.38 131.52 137.35 140.43 121.12 L 140.43 146.37 L 146.81 146.37 L 146.81 98.3 C 146.84 97.53 146.86 96.76 146.86 95.99 C 146.86 76.13 135.76 58.82 119.44 49.94 L 145.89 49.94 L 145.89 43.56 Z M 41.74 129.65 L 22.24 145.09 L 41.74 160.52 Z M 128.19 148.72 L 143.62 168.22 L 159.05 148.72 Z" fill="var(--icon-primary, #dae8fc)" stroke="none" stroke-width="0"/></svg>