<svg xmlns="http://www.w3.org/2000/svg" viewBox="0 0 624.91 543.14" width="624.91" height="543.14"><path d="M 397.17 465.7 L 228.49 465.7 L 206.81 502.84 L 261.81 502.84 L 261.81 509.7 C 261.81 516.2 267.4 523.53 274.54 523.53 L 349.3 523.53 C 356.27 523.53 362.68 516.07 362.68 509.34 L 362.68 502.84 L 418.93 502.84 L 397.17 465.7 Z M 105.2 147.83 L 105.2 397.3 L 518.76 397.3 L 518.76 147.83 L 105.2 147.83 Z M 251.89 333.11 L 250.5 303.19 C 229.84 304 210.56 302.71 191.54 297.93 L 197.07 275.93 C 213.48 280.06 230.38 281.28 249.45 280.54 L 247.93 247.98 L 300.83 291.09 L 251.89 333.11 Z M 304.42 200.83 L 331.14 214.36 C 340.62 195.99 351.24 179.85 364.78 165.66 L 381.19 181.3 C 369.51 193.56 360.12 207.66 351.37 224.61 L 380.44 239.34 L 316.86 264.12 L 304.42 200.83 Z M 384.74 380.8 C 376.56 365.98 365.92 352.8 352.37 339.37 L 329.6 362.69 L 325.02 294.6 L 389.13 301.71 L 368.21 323.14 C 382.89 337.69 395.11 352.67 404.59 369.83 L 384.74 380.8 Z M 312.8 0 C 287.08 0 266.23 20.85 266.23 46.57 C 266.23 72.29 287.08 93.13 312.8 93.13 C 338.52 93.13 359.37 72.29 359.37 46.57 C 359.37 20.85 338.52 0 312.8 0 Z M 345.64 46.79 L 278.99 46.79 L 278.99 35.08 L 345.64 35.08 L 345.64 46.79 Z M 367.64 57.61 L 363.87 57.61 C 358.27 85.11 337.72 100.84 312.27 100.84 C 286.82 100.84 266.77 85.77 261.63 57.61 L 257.25 57.61 L 242.71 104.19 L 383.11 104.19 L 367.64 57.61 Z M 397.17 465.7 L 228.49 465.7 L 206.81 502.84 L 261.81 502.84 L 261.81 509.7 C 261.81 516.2 267.4 523.53 274.54 523.53 L 349.3 523.53 C 356.27 523.53 362.68 516.07 362.68 509.34 L 362.68 502.84 L 418.93 502.84 L 397.17 465.7 Z M 105.2 147.83 L 105.2 397.3 L 518.76 397.3 L 518.76 147.83 L 105.2 147.83 Z M 251.89 333.11 L 250.5 303.19 C 229.84 304 210.56 302.71 191.54 297.93 L 197.07 275.93 C 213.48 280.06 230.38 281.28 249.45 280.54 L 247.93 247.98 L 300.83 291.09 L 251.89 333.11 Z M 304.42 200.83 L 331.14 214.36 C 340.62 195.99 351.24 179.85 364.78 165.66 L 381.19 181.3 C 369.51 193.56 360.12 207.66 351.37 224.61 L 380.44 239.34 L 316.86 264.12 L 304.42 200.83 Z M 384.74 380.8 C 376.56 365.98 365.92 352.8 352.37 339.37 L 329.6 362.69 L 325.02 294.6 L 389.13 301.71 L 368.21 323.14 C 382.89 337.69 395.11 352.67 404.59 369.83 L 384.74 380.8 Z M 397.17 465.7 L 228.49 465.7 L 206.81 502.84 L 261.81 502.84 L 261.81 509.7 C 261.81 516.2 267.4 523.53 274.54 523.53 L 349.3 523.53 C 356.27 523.53 362.68 516.07 362.68 509.34 L 362.68 502.84 L 418.93 502.84 L 397.17 465.7 Z M 105.2 147.83 L 105.2 397.3 L 518.76 397.3 L 518.76 147.83 L 105.2 147.83 Z M 251.89 333.11 L 250.5 303.19 C 229.84 304 210.56 302.71 191.54 297.93 L 197.07 275.93 C 213.48 280.06 230.38 281.28 249.45 280.54 L 247.93 247.98 L 300.83 291.09 L 251.89 333.11 Z M 304.42 200.83 L 331.14 214.36 C 340.62 195.99 351.24 179.85 364.78 165.66 L 381.19 181.3 C 369.51 193.56 360.12 207.66 351.37 224.61 L 380.44 239.34 L 316.86 264.12 L 304.42 200.83 Z M 384.74 380.8 C 376.56 365.98 365.92 352.8 352.37 339.37 L 329.6 362.69 L 325.02 294.6 L 389.13 301.71 L 368.21 323.14 C 382.89 337.69 395.11 352.67 404.59 369.83 L 384.74 380.8 Z M 105.2 147.83 L 105.2 397.3 L 518.76 397.3 L 518.76 147.83 L 105.2 147.83 Z M 251.89 333.11 L 250.5 303.19 C 229.84 304 210.56 302.71 191.54 297.93 L 197.07 275.93 C 213.48 280.06 230.38 281.28 249.45 280.54 L 247.93 247.98 L 300.83 291.09 L 251.89 333.11 Z M 304.42 200.83 L 331.14 214.36 C 340.62 195.99 351.24 179.85 364.78 165.66 L 381.19 181.3 C 369.51 193.56 360.12 207.66 351.37 224.61 L 380.44 239.34 L 316.86 264.12 L 304.42 200.83 Z M 384.74 380.8 C 376.56 365.98 365.92 352.8 352.37 339.37 L 329.6 362.69 L 325.02 294.6 L 389.13 301.71 L 368.21 323.14 C 382.89 337.69 395.11 352.67 404.59 369.83 L 384.74 380.8 Z M 397.17 465.7 L 228.49 465.7 L 206.81 502.84 L 261.81 502.84 L 261.81 509.7 C 261.81 516.2 267.4 523.53 274.54 523.53 L 349.3 523.53 C 356.27 523.53 362.68 516.07 362.68 509.34 L 362.68 502.84 L 418.93 502.84 L 397.17 465.7 Z M 397.17 465.7 L 228.49 465.7 L 206.81 502.84 L 261.81 502.84 L 261.81 509.7 C 261.81 516.2 267.4 523.53 274.54 523.53 L 349.3 523.53 C 356.27 523.53 362.68 516.07 362.68 509.34 L 362.68 502.84 L 418.93 502.84 L 397.17 465.7 Z M 105.2 147.83 L 105.2 397.3 L 518.76 397.3 L 518.76 147.83 L 105.2 147.83 Z M 251.89 333.11 L 250.5 303.19 C 229.84 304 210.56 302.71 191.54 297.93 L 197.07 275.93 C 213.48 280.06 230.38 281.28 249.45 280.54 L 247.93 247.98 L 300.83 291.09 L 251.89 333.11 Z M 304.42 200.83 L 331.14 214.36 C 340.62 195.99 351.24 179.85 364.78 165.66 L 381.19 181.3 C 369.51 193.56 360.12 207.66 351.37 224.61 L 380.44 239.34 L 316.86 264.12 L 304.42 200.83 Z M 384.74 380.8 C 376.56 365.98 365.92 352.8 352.37 339.37 L 329.6 362.69 L 325.02 294.6 L 389.13 301.71 L 368.21 323.14 C 382.89 337.69 395.11 352.67 404.59 369.83 L 384.74 380.8 Z M 105.2 147.83 L 105.2 397.3 L 518.76 397.3 L 518.76 147.83 L 105.2 147.83 Z M 251.89 333.11 L 250.5 303.19 C 229.84 304 210.56 302.71 191.54 297.93 L 197.07 275.93 C 213.48 280.06 230.38 281.28 249.45 280.54 L 247.93 247.98 L 300.83 291.09 L 251.89 333.11 Z M 304.42 200.83 L 331.14 214.36 C 340.62 195.99 351.24 179.85 364.78 165.66 L 381.19 181.3 C 369.51 193.56 360.12 207.66 351.37 224.61 L 380.44 239.34 L 316.86 264.12 L 304.42 200.83 Z M 384.74 380.8 C 376.56 365.98 365.92 352.8 352.37 339.37 L 329.6 362.69 L 325.02 294.6 L 389.13 301.71 L 368.21 323.14 C 382.89 337.69 395.11 352.67 404.59 369.83 L 384.74 380.8 Z M 397.17 465.7 L 228.49 465.7 L 206.81 502.84 L 261.81 502.84 L 261.81 509.7 C 261.81 516.2 267.4 523.53 274.54 523.53 L 349.3 523.53 C 356.27 523.53 362.68 516.07 362.68 509.34 L 362.68 502.84 L 418.93 502.84 L 397.17 465.7 Z M 397.17 465.7 L 228.49 465.7 L 206.81 502.84 L 261.81 502.84 L 261.81 509.7 C 261.81 516.2 267.4 523.53 274.54 523.53 L 349.3 523.53 C 356.27 523.53 362.68 516.07 362.68 509.34 L 362.68 502.84 L 418.93 502.84 L 397.17 465.7 Z M 105.2 147.83 L 105.2 397.3 L 518.76 397.3 L 518.76 147.83 L 105.2 147.83 Z M 251.89 333.11 L 250.5 303.19 C 229.84 304 210.56 302.71 191.54 297.93 L 197.07 275.93 C 213.48 280.06 230.38 281.28 249.45 280.54 L 247.93 247.98 L 300.83 291.09 L 251.89 333.11 Z M 304.42 200.83 L 331.14 214.36 C 340.62 195.99 351.24 179.85 364.78 165.66 L 381.19 181.3 C 369.51 193.56 360.12 207.66 351.37 224.61 L 380.44 239.34 L 316.86 264.12 L 304.42 200.83 Z M 384.74 380.8 C 376.56 365.98 365.92 352.8 352.37 339.37 L 329.6 362.69 L 325.02 294.6 L 389.13 301.71 L 368.21 323.14 C 382.89 337.69 395.11 352.67 404.59 369.83 L 384.74 380.8 Z M 228.49 465.7 L 206.81 502.84 L 261.81 502.84 L 261.81 509.7 C 261.81 516.2 267.4 523.53 274.54 523.53 L 349.3 523.53 C 356.27 523.53 362.68 516.07 362.68 509.34 L 362.68 502.84 L 418.93 502.84 L 397.17 465.7 L 228.49 465.7 Z M 518.76 147.83 L 105.2 147.83 L 105.2 397.3 L 518.76 397.3 L 518.76 147.83 Z M 251.89 333.11 L 250.5 303.19 C 229.84 304 210.56 302.71 191.54 297.93 L 197.07 275.93 C 213.48 280.06 230.38 281.28 249.45 280.54 L 247.93 247.98 L 300.83 291.09 L 251.89 333.11 Z M 304.42 200.83 L 331.14 214.36 C 340.62 195.99 351.24 179.85 364.78 165.66 L 381.19 181.3 C 369.51 193.56 360.12 207.66 351.37 224.61 L 380.44 239.34 L 316.86 264.12 L 304.42 200.83 Z M 384.74 380.8 C 376.56 365.98 365.92 352.8 352.37 339.37 L 329.6 362.69 L 325.02 294.6 L 389.13 301.71 L 368.21 323.14 C 382.89 337.69 395.11 352.67 404.59 369.83 L 384.74 380.8 Z M 551.82 430.6 L 551.64 430.47 C 548.73 428.22 545.54 425.81 542.11 424.01 C 548.27 419.14 552.24 411.61 552.24 403.18 L 552.24 141.63 C 552.24 127.03 540.35 115.14 525.75 115.14 L 99.45 115.14 C 84.85 115.14 72.97 127.03 72.97 141.63 L 72.97 403.18 C 72.97 411.57 76.89 419.07 83 423.94 C 80.9 425.04 79.05 426.36 77.5 427.72 L 77.45 427.77 L 0 500.38 L 0 517.85 C 0 525.74 3.59 532.32 8.74 536.62 C 13.88 540.92 20.49 543.14 27.05 543.14 L 598.39 543.14 C 612.77 543.14 624.91 532.27 624.91 519.16 L 624.91 499.79 L 551.82 430.6 Z M 81.47 403.18 L 81.47 141.63 C 81.47 131.59 89.41 123.64 99.45 123.64 L 525.75 123.64 C 535.79 123.64 543.74 131.59 543.74 141.63 L 543.74 403.18 C 543.74 413.22 535.79 421.21 525.75 421.21 L 99.45 421.21 C 89.41 421.21 81.47 413.22 81.47 403.18 Z M 616.41 519.16 C 616.41 526.75 608.41 534.64 598.39 534.64 L 27.05 534.64 C 22.45 534.64 17.65 532.99 14.19 530.1 C 10.73 527.2 8.5 523.27 8.5 517.85 L 8.5 504.06 L 83.11 434.11 C 85.6 431.93 89.91 429.71 93.58 429.71 L 532.06 429.71 C 534.63 429.71 541.24 433.22 546.35 437.13 L 616.41 503.45 L 616.41 519.16 Z M 105.2 147.83 L 105.2 397.3 L 518.76 397.3 L 518.76 147.83 L 105.2 147.83 Z M 251.89 333.11 L 250.5 303.19 C 229.84 304 210.56 302.71 191.54 297.93 L 197.07 275.93 C 213.48 280.06 230.38 281.28 249.45 280.54 L 247.93 247.98 L 300.83 291.09 L 251.89 333.11 Z M 304.42 200.83 L 331.14 214.36 C 340.62 195.99 351.24 179.85 364.78 165.66 L 381.19 181.3 C 369.51 193.56 360.12 207.66 351.37 224.61 L 380.44 239.34 L 316.86 264.12 L 304.42 200.83 Z M 384.74 380.8 C 376.56 365.98 365.92 352.8 352.37 339.37 L 329.6 362.69 L 325.02 294.6 L 389.13 301.71 L 368.21 323.14 C 382.89 337.69 395.11 352.67 404.59 369.83 L 384.74 380.8 Z M 397.17 465.7 L 228.49 465.7 L 206.81 502.84 L 261.81 502.84 L 261.81 509.7 C 261.81 516.2 267.4 523.53 274.54 523.53 L 349.3 523.53 C 356.27 523.53 362.68 516.07 362.68 509.34 L 362.68 502.84 L 418.93 502.84 L 397.17 465.7 Z M 397.17 465.7 L 228.49 465.7 L 206.81 502.84 L 261.81 502.84 L 261.81 509.7 C 261.81 516.2 267.4 523.53 274.54 523.53 L 349.3 523.53 C 356.27 523.53 362.68 516.07 362.68 509.34 L 362.68 502.84 L 418.93 502.84 L 397.17 465.7 Z M 105.2 147.83 L 105.2 397.3 L 518.76 397.3 L 518.76 147.83 L 105.2 147.83 Z M 251.89 333.11 L 250.5 303.19 C 229.84 304 210.56 302.71 191.54 297.93 L 197.07 275.93 C 213.48 280.06 230.38 281.28 249.45 280.54 L 247.93 247.98 L 300.83 291.09 L 251.89 333.11 Z M 304.42 200.83 L 331.14 214.36 C 340.62 195.99 351.24 179.85 364.78 165.66 L 381.19 181.3 C 369.51 193.56 360.12 207.66 351.37 224.61 L 380.44 239.34 L 316.86 264.12 L 304.42 200.83 Z M 384.74 380.8 C 376.56 365.98 365.92 352.8 352.37 339.37 L 329.6 362.69 L 325.02 294.6 L 389.13 301.71 L 368.21 323.14 C 382.89 337.69 395.11 352.67 404.59 369.83 L 384.74 380.8 Z M 105.2 147.83 L 105.2 397.3 L 518.76 397.3 L 518.76 147.83 L 105.2 147.83 Z M 251.89 333.11 L 250.5 303.19 C 229.84 304 210.56 302.71 191.54 297.93 L 197.07 275.93 C 213.48 280.06 230.38 281.28 249.45 280.54 L 247.93 247.98 L 300.83 291.09 L 251.89 333.11 Z M 304.42 200.83 L 331.14 214.36 C 340.62 195.99 351.24 179.85 364.78 165.66 L 381.19 181.3 C 369.51 193.56 360.12 207.66 351.37 224.61 L 380.44 239.34 L 316.86 264.12 L 304.42 200.83 Z M 384.74 380.8 C 376.56 365.98 365.92 352.8 352.37 339.37 L 329.6 362.69 L 325.02 294.6 L 389.13 301.71 L 368.21 323.14 C 382.89 337.69 395.11 352.67 404.59 369.83 L 384.74 380.8 Z M 397.17 465.7 L 228.49 465.7 L 206.81 502.84 L 261.81 502.84 L 261.81 509.7 C 261.81 516.2 267.4 523.53 274.54 523.53 L 349.3 523.53 C 356.27 523.53 362.68 516.07 362.68 509.34 L 362.68 502.84 L 418.93 502.84 L 397.17 465.7 Z M 105.2 147.83 L 105.2 397.3 L 518.76 397.3 L 518.76 147.83 L 105.2 147.83 Z M 251.89 333.11 L 250.5 303.19 C 229.84 304 210.56 302.71 191.54 297.93 L 197.07 275.93 C 213.48 280.06 230.38 281.28 249.45 280.54 L 247.93 247.98 L 300.83 291.09 L 251.89 333.11 Z M 304.42 200.83 L 331.14 214.36 C 340.62 195.99 351.24 179.85 364.78 165.66 L 381.19 181.3 C 369.51 193.56 360.12 207.66 351.37 224.61 L 380.44 239.34 L 316.86 264.12 L 304.42 200.83 Z M 384.74 380.8 C 376.56 365.98 365.92 352.8 352.37 339.37 L 329.6 362.69 L 325.02 294.6 L 389.13 301.71 L 368.21 323.14 C 382.89 337.69 395.11 352.67 404.59 369.83 L 384.74 380.8 Z M 397.17 465.7 L 228.49 465.7 L 206.81 502.84 L 261.81 502.84 L 261.81 509.7 C 261.81 516.2 267.4 523.53 274.54 523.53 L 349.3 523.53 C 356.27 523.53 362.68 516.07 362.68 509.34 L 362.68 502.84 L 418.93 502.84 L 397.17 465.7 Z M 105.2 147.83 L 105.2 397.3 L 518.76 397.3 L 518.76 147.83 L 105.2 147.83 Z M 251.89 333.11 L 250.5 303.19 C 229.84 304 210.56 302.71 191.54 297.93 L 197.07 275.93 C 213.48 280.06 230.38 281.28 249.45 280.54 L 247.93 247.98 L 300.83 291.09 L 251.89 333.11 Z M 304.42 200.83 L 331.14 214.36 C 340.62 195.99 351.24 179.85 364.78 165.66 L 381.19 181.3 C 369.51 193.56 360.12 207.66 351.37 224.61 L 380.44 239.34 L 316.86 264.12 L 304.42 200.83 Z M 384.74 380.8 C 376.56 365.98 365.92 352.8 352.37 339.37 L 329.6 362.69 L 325.02 294.6 L 389.13 301.71 L 368.21 323.14 C 382.89 337.69 395.11 352.67 404.59 369.83 L 384.74 380.8 Z M 397.17 465.7 L 228.49 465.7 L 206.81 502.84 L 261.81 502.84 L 261.81 509.7 C 261.81 516.2 267.4 523.53 274.54 523.53 L 349.3 523.53 C 356.27 523.53 362.68 516.07 362.68 509.34 L 362.68 502.84 L 418.93 502.84 L 397.17 465.7 Z" fill="var(--icon-secondary, #6c8ebf)" stroke="none" stroke-width="0"/><path d="M 546.35 437.13 C 541.24 433.22 534.63 429.71 532.06 429.71 L 93.58 429.71 C 89.91 429.71 85.6 431.93 83.11 434.11 L 8.5 504.06 L 8.5 517.85 C 8.5 523.27 10.73 527.2 14.19 530.1 C 17.65 532.99 22.45 534.64 27.05 534.64 L 598.39 534.64 C 608.41 534.64 616.41 526.75 616.41 519.16 L 616.41 503.45 L 546.35 437.13 Z M 362.68 502.84 L 362.68 509.34 C 362.68 516.07 356.27 523.53 349.3 523.53 L 274.54 523.53 C 267.4 523.53 261.81 516.2 261.81 509.7 L 261.81 502.84 L 206.81 502.84 L 228.49 465.7 L 397.17 465.7 L 418.93 502.84 L 362.68 502.84 Z" fill="var(--icon-secondary, #6c8ebf)" stroke="none" stroke-width="0"/><path d="M 525.75 123.64 L 99.45 123.64 C 89.41 123.64 81.47 131.59 81.47 141.63 L 81.47 403.18 C 81.47 413.22 89.41 421.21 99.45 421.21 L 525.75 421.21 C 535.79 421.21 543.74 413.22 543.74 403.18 L 543.74 141.63 C 543.74 131.59 535.79 123.64 525.75 123.64 Z M 518.76 397.3 L 105.2 397.3 L 105.2 147.83 L 518.76 147.83 L 518.76 397.3 Z" fill="var(--icon-secondary, #6c8ebf)" stroke="none" stroke-width="0"/><path d="M 404.59 369.83 L 384.74 380.8 C 376.56 365.98 365.92 352.8 352.37 339.37 L 329.6 362.69 L 325.02 294.6 L 389.13 301.71 L 368.21 323.14 C 382.89 337.69 395.11 352.67 404.59 369.83 Z" fill="var(--icon-secondary, #6c8ebf)" stroke="none" stroke-width="0"/><path d="M 300.83 291.09 L 251.89 333.11 L 250.5 303.19 C 229.84 304 210.56 302.71 191.54 297.93 L 197.07 275.93 C 213.48 280.06 230.38 281.28 249.45 280.54 L 247.93 247.98 L 300.83 291.09 Z" fill="var(--icon-secondary, #6c8ebf)" stroke="none" stroke-width="0"/><path d="M 351.37 224.61 L 380.44 239.34 L 316.86 264.12 L 304.42 200.83 L 331.14 214.36 C 340.62 195.99 351.24 179.85 364.78 165.66 L 381.19 181.3 C 369.51 193.56 360.12 207.66 351.37 224.61 Z" fill="var(--icon-secondary, #6c8ebf)" stroke="none" stroke-width="0"/><rect x="278.99" y="35.08" width="66.65" height="11.71" fill="var(--icon-secondary, #6c8ebf)" stroke="none" stroke-width="0"/></svg>