<svg xmlns="http://www.w3.org/2000/svg" viewBox="0 0 1931.91 2019.65" width="1931.91" height="2019.65"><path d="M 1806.82 997.75 L 1261.27 997.75 C 1242.21 965.66 1220.27 933.94 1195.32 903.44 C 1123.86 816.03 1026.92 739.28 903.99 695.92 C 1000.84 626.1 1064.02 512.35 1064.02 384.14 C 1064.02 172.37 891.65 0 679.88 0 C 468.11 0 295.73 172.37 295.73 384.14 C 295.73 512 358.58 625.47 454.97 695.34 C 167.91 795.19 0 1082.84 0 1369.48 L 0 1603.67 L 667.49 1603.67 L 667.49 1703.13 C 667.49 1771.88 723.83 1828.22 792.58 1828.22 L 1181.29 1828.22 L 1181.29 1912.07 L 1010.41 1912.07 C 980.51 1911.63 956.04 1935.74 956.04 1965.63 C 956.04 1995.52 980.51 2019.65 1010.41 2019.2 L 1588.99 2019.2 C 1618.88 2019.65 1643.35 1995.53 1643.35 1965.63 C 1643.35 1935.73 1618.88 1911.63 1588.99 1912.07 L 1418.1 1912.07 L 1418.1 1828.22 L 1806.82 1828.22 C 1875.56 1828.22 1931.91 1771.88 1931.91 1703.13 L 1931.91 1122.84 C 1931.91 1054.09 1875.56 997.75 1806.82 997.75 L 1806.82 997.75 Z" fill="var(--icon-secondary, #6c8ebf)" stroke="none" stroke-width="0"/><path d="M 1806.82 1062.03 L 792.58 1062.03 C 758.33 1062.03 731.77 1088.59 731.77 1122.84 L 731.77 1703.13 C 731.77 1737.38 758.33 1763.94 792.58 1763.94 L 1806.82 1763.94 C 1841.06 1763.94 1867.62 1737.38 1867.62 1703.13 L 1867.62 1122.84 C 1867.62 1088.59 1841.06 1062.03 1806.82 1062.03 Z M 1779.72 1693.99 L 819.67 1693.99 L 819.67 1129.63 L 1779.72 1129.63 L 1779.72 1693.99 Z M 1197.9 997.75 L 792.58 997.75 C 723.83 997.75 667.49 1054.09 667.49 1122.84 L 667.49 1550.11 L 53.57 1550.11 L 53.57 1369.48 C 53.57 1088.56 223.8 808.2 517.36 732.15 C 566.75 755.31 621.83 768.28 679.88 768.28 C 737.93 768.28 792.5 755.43 841.72 732.46 C 976.4 767.89 1079.02 845.84 1153.85 937.36 C 1169.86 956.94 1184.52 977.18 1197.9 997.75 Z M 999.74 384.14 C 999.74 561.18 856.91 704.01 679.88 704.01 C 502.85 704.01 360.02 561.18 360.02 384.14 C 360.02 207.1 502.84 64.28 679.88 64.28 C 856.92 64.28 999.74 207.11 999.74 384.14 L 999.74 384.14 Z" fill="var(--icon-secondary, #6c8ebf)" stroke="none" stroke-width="0"/></svg>