<svg xmlns="http://www.w3.org/2000/svg" viewBox="0 0 681.53 712.49" width="681.53" height="712.49"><path d="M 239.85 0 C 165.14 0 104.33 60.81 104.33 135.52 C 104.33 180.62 126.5 220.65 160.5 245.3 C 59.24 280.53 0 382 0 483.12 L 0 565.74 L 9.45 565.74 L 235.47 565.74 L 235.47 600.83 C 235.47 625.08 255.35 644.96 279.6 644.96 L 416.73 644.96 L 416.73 674.54 L 356.45 674.54 C 345.9 674.38 337.27 682.88 337.27 693.43 C 337.27 703.98 345.9 712.49 356.45 712.33 L 560.56 712.33 C 571.1 712.49 579.74 703.98 579.74 693.43 C 579.74 682.88 571.1 674.38 560.56 674.54 L 500.27 674.54 L 500.27 644.96 L 637.4 644.96 C 661.66 644.96 681.53 625.08 681.53 600.83 L 681.53 396.11 C 681.53 371.86 661.66 351.98 637.4 351.98 L 444.95 351.98 C 438.22 340.66 430.48 329.47 421.68 318.71 C 396.47 287.88 362.27 260.8 318.91 245.5 C 353.07 220.87 375.36 180.75 375.36 135.52 C 375.36 60.81 314.56 0 239.85 0 Z M 239.85 22.68 C 302.3 22.68 352.69 73.06 352.69 135.52 C 352.69 197.97 302.3 248.36 239.85 248.36 C 177.39 248.36 127.01 197.97 127.01 135.52 C 127.01 73.06 177.39 22.68 239.85 22.68 Z M 182.51 258.29 C 199.94 266.46 219.37 271.03 239.85 271.03 C 260.23 271.03 279.58 266.5 296.94 258.39 C 344.45 270.89 380.65 298.39 407.05 330.68 C 412.7 337.59 417.87 344.73 422.59 351.98 L 279.6 351.98 C 255.35 351.98 235.47 371.86 235.47 396.11 L 235.47 546.84 L 18.9 546.84 L 18.9 483.12 C 18.9 384.02 78.95 285.12 182.51 258.29 Z M 279.6 374.66 L 637.4 374.66 C 649.49 374.66 658.86 384.03 658.86 396.11 L 658.86 600.83 C 658.86 612.91 649.49 622.28 637.4 622.28 L 279.6 622.28 C 267.52 622.28 258.15 612.91 258.15 600.83 L 258.15 396.11 C 258.15 384.03 267.52 374.66 279.6 374.66 Z M 289.16 398.51 L 289.16 597.6 L 627.85 597.6 L 627.85 398.51 Z" fill="var(--icon-primary, #dae8fc)" stroke="none" stroke-width="0"/></svg>