<svg xmlns="http://www.w3.org/2000/svg" viewBox="0 0 196.97 196.97" width="196.97" height="196.97"><path d="M 98.48 34.18 C 67.1 34.18 40.92 56.75 35.3 86.51 L 16.73 86.51 L 16.73 110.46 L 35.3 110.46 C 40.92 140.22 67.1 162.79 98.48 162.79 C 129.86 162.79 156.04 140.22 161.67 110.46 L 180.24 110.46 L 180.24 86.51 L 161.67 86.51 C 156.04 56.75 129.87 34.18 98.48 34.18 Z M 98.48 41.18 C 126.07 41.18 149.04 60.59 154.54 86.51 L 130.66 86.51 L 130.66 110.46 L 154.54 110.46 C 149.04 136.38 126.07 155.79 98.48 155.79 C 70.9 155.79 47.93 136.38 42.43 110.46 L 66.31 110.46 L 66.31 86.51 L 42.43 86.51 C 47.93 60.59 70.9 41.18 98.48 41.18 Z M 98.48 2.5 C 151.51 2.5 194.47 45.46 194.47 98.48 C 194.47 151.51 151.51 194.47 98.48 194.47 C 45.46 194.47 2.5 151.51 2.5 98.48 C 2.5 45.46 45.46 2.5 98.48 2.5 Z M 98.48 0 C 44.11 0 0 44.11 0 98.48 C 0 152.86 44.11 196.97 98.48 196.97 C 152.86 196.97 196.97 152.86 196.97 98.48 C 196.97 44.11 152.86 0 98.48 0 Z" fill="var(--icon-primary, #dae8fc)" stroke="none" stroke-width="0"/></svg>