<svg xmlns="http://www.w3.org/2000/svg" viewBox="0 0 721.85 725.26" width="721.85" height="725.26"><path d="M 232.01 148.33 L 232.01 291.01 L 433.01 291.01 L 433.01 238.54 L 491.79 269.38 L 491.79 169.96 L 433.01 200.79 L 433.01 148.33 Z M 112.84 155.84 L 39.26 219.67 L 112.84 283.49 L 112.84 240.07 L 195.86 240.07 L 195.86 199.27 L 112.84 199.27 Z M 607.65 155.84 L 607.65 199.27 L 524.63 199.27 L 524.63 240.06 L 607.65 240.06 L 607.65 283.49 L 681.23 219.67 Z M 289.68 386.23 A 43.68 43.68 0 0 0 246 429.91 A 43.68 43.68 0 0 0 266.7 467 C 250.58 486.08 241.48 511.21 241.48 536.07 L 241.48 578.51 L 337.88 578.51 L 337.88 536.07 C 337.88 510.93 326.49 486.8 311.39 467.75 A 43.68 43.68 0 0 0 333.36 429.91 A 43.68 43.68 0 0 0 289.68 386.23 Z M 430.76 386.23 A 43.68 43.68 0 0 0 387.08 429.91 A 43.68 43.68 0 0 0 407.79 467 C 391.67 486.08 382.56 511.21 382.56 536.07 L 382.56 578.51 L 478.96 578.51 L 478.96 536.07 C 478.96 510.93 467.57 486.8 452.48 467.75 A 43.68 43.68 0 0 0 474.44 429.91 A 43.68 43.68 0 0 0 430.76 386.23 Z M 120.9 443.18 L 120.9 486.6 L 37.89 486.6 L 37.89 527.4 L 120.9 527.4 L 120.9 570.83 L 194.49 507 Z M 602.3 443.18 L 528.71 507 L 602.3 570.83 L 602.3 527.4 L 685.31 527.4 L 685.31 486.6 L 602.3 486.6 Z M 44.28 20 L 677.57 20 C 691.2 20 701.86 30.66 701.86 44.28 L 701.86 680.96 C 701.86 694.59 691.2 705.25 677.57 705.25 L 44.28 705.25 C 30.66 705.25 20 694.59 20 680.96 L 20 44.28 C 20 30.66 30.66 20 44.28 20 Z M 44.28 0 C 19.92 0 0 19.92 0 44.28 L 0 680.96 C 0 705.33 19.92 725.26 44.28 725.26 L 677.57 725.26 C 701.93 725.26 721.85 705.33 721.85 680.96 L 721.85 44.28 C 721.85 19.92 701.93 0 677.57 0 Z" fill="var(--icon-primary, #dae8fc)" stroke="none" stroke-width="0"/></svg>