<svg xmlns="http://www.w3.org/2000/svg" viewBox="0 0 248.19 191.89" width="248.19" height="191.89"><path d="M 11.72 5.29 L 236.47 5.29 C 240.07 5.29 242.89 8.11 242.89 11.72 L 242.89 180.17 C 242.89 183.78 240.07 186.6 236.47 186.6 L 11.72 186.6 C 8.11 186.6 5.29 183.78 5.29 180.17 L 5.29 11.72 C 5.29 8.11 8.11 5.29 11.72 5.29 Z M 11.72 0 C 5.27 0 0 5.27 0 11.72 L 0 180.17 C 0 186.62 5.27 191.89 11.72 191.89 L 236.47 191.89 C 242.91 191.89 248.19 186.62 248.19 180.17 L 248.19 11.72 C 248.19 5.27 242.91 0 236.47 0 Z M 132.54 28.96 A 8.45 8.45 0 0 1 124.09 37.41 A 8.45 8.45 0 0 1 115.64 28.96 A 8.45 8.45 0 0 1 124.09 20.51 A 8.45 8.45 0 0 1 132.54 28.96 Z M 53.83 53.07 L 194.36 53.07 C 202.43 53.07 208.93 59.57 208.93 67.65 L 208.93 148.3 C 208.93 156.37 202.43 162.88 194.36 162.88 L 53.83 162.88 C 45.75 162.88 39.25 156.37 39.25 148.3 L 39.25 67.65 C 39.25 59.57 45.75 53.07 53.83 53.07 Z" fill="var(--icon-primary, #dae8fc)" stroke="none" stroke-width="0"/><path d="M 130.89 71 C 146.45 71 158.95 83.49 158.95 99.06 C 158.95 114.62 146.45 127.12 130.89 127.12 C 115.32 127.12 102.83 114.62 102.83 99.06 C 102.83 83.49 115.32 71 130.89 71 Z M 130.89 60 C 109.38 60 91.83 77.55 91.83 99.06 C 91.83 107.89 94.79 116.06 99.78 122.62 L 78.24 144.8 L 89.72 155.95 L 111.86 133.15 C 117.5 136.31 123.99 138.12 130.89 138.12 C 152.39 138.12 169.95 120.56 169.95 99.06 C 169.95 77.55 152.39 60 130.89 60 Z" fill="var(--icon-secondary, #6c8ebf)" stroke="none" stroke-width="0"/></svg>