<svg xmlns="http://www.w3.org/2000/svg" viewBox="0 0 938.03 725.26" width="938.03" height="725.26"><path d="M 585.3 58.52 L 585.3 99.23 L 407.02 99.23 L 407.02 197.79 L 365.4 197.79 L 419.35 277.5 C 413.9 277.55 408.46 277.96 403.07 278.76 C 403.01 278.76 402.96 278.77 402.91 278.79 C 350.74 287.72 321.23 327.03 310.05 364.11 C 297.81 367.72 284.75 371.93 273.19 383.77 C 272.87 384.1 272.58 384.46 272.34 384.85 C 260.77 403.1 264.64 429.74 287.59 442.35 C 309.41 454.86 330.39 455.17 344.68 454.91 C 365.85 470.12 391.53 478.77 415.11 482.05 C 415.3 482.08 415.49 482.1 415.68 482.11 C 455.92 484.16 483.49 468.16 503.55 455.59 L 451.95 531.84 L 493.11 531.84 L 493.11 593.36 L 351.89 593.36 L 351.89 552.3 L 263.52 612.12 L 351.89 671.94 L 351.89 631.15 L 530.91 631.15 L 530.91 531.84 L 571.59 531.84 L 518.55 453.48 C 541.75 454.78 565.68 455.06 581.58 454.54 C 581.63 454.54 581.67 454.54 581.71 454.53 C 600.31 453.56 617.04 449.58 629.73 442.07 C 642.38 434.59 651.13 422.74 651.2 408.19 C 651.82 395.1 644.61 384.6 635.06 377.55 C 626.17 370.98 615.14 366.73 604.33 363.4 C 598.45 353.11 592.36 340.34 574.9 331.73 C 574.85 331.71 574.79 331.69 574.73 331.66 C 552.47 321.43 536.22 324.24 522.03 326.91 C 499.8 298.39 465.83 280.78 430.82 277.9 L 485.04 197.79 L 444.81 197.79 L 444.81 137.03 L 585.3 137.03 L 585.3 178.16 L 673.68 118.34 Z M 162.98 58.8 L 71.54 122.08 L 162.98 185.35 L 162.98 141.96 L 263.47 141.96 L 263.47 102.19 L 162.98 102.19 Z M 747.38 67.43 C 714.84 67.43 688.46 93.81 688.46 126.35 C 688.48 147.59 699.93 167.18 718.43 177.62 C 696.29 204.66 683.14 235.97 683.14 272.5 L 683.14 324.96 L 809.15 325.15 L 809.15 273.26 C 809.15 232.41 798.58 204.96 776.67 177.38 C 794.97 166.9 806.27 147.44 806.3 126.35 C 806.3 93.81 779.92 67.43 747.38 67.43 Z M 171.18 202.36 L 171.18 245.74 L 70.68 245.74 L 70.68 285.52 L 171.18 285.52 L 171.18 328.9 L 262.62 265.63 Z M 420.19 290.73 C 455.85 290.65 492.35 308.07 513.94 337.79 C 515.44 339.86 518 340.88 520.51 340.41 C 536.04 337.5 548.09 334.01 569.13 343.65 C 584.01 351.02 587.28 360.48 594.23 372.22 C 595.09 373.66 596.45 374.72 598.06 375.19 C 608.94 378.4 619.79 382.71 627.2 388.18 C 634.61 393.66 638.45 399.38 638.01 407.68 C 638 407.8 638 407.91 637.99 408.03 C 637.99 417.65 633.01 424.77 623 430.68 C 613.01 436.59 598.13 440.42 581.07 441.32 C 562.9 441.91 532.95 441.47 506.74 439.53 C 505.34 439.42 503.94 439.77 502.74 440.51 C 481.95 453.54 456.65 470.84 416.59 468.88 C 394.29 465.73 369.76 457.34 350.69 443.11 C 349.51 442.22 348.06 441.76 346.59 441.79 C 332.56 442.09 313.69 442.09 294.13 430.84 C 294.08 430.82 294.04 430.8 294 430.78 C 277.29 421.64 275.69 404.99 283.28 392.48 C 293.14 382.71 304.01 379.48 316.87 375.73 C 319.08 375.09 320.8 373.33 321.4 371.11 C 330.65 336.91 356.99 300.1 405.09 291.84 C 410.07 291.11 415.12 290.74 420.19 290.73 Z M 776.17 388.3 L 776.17 431.68 L 675.67 431.68 L 675.67 471.46 L 776.17 471.46 L 776.17 514.84 L 867.61 451.57 Z M 179.04 414.7 C 146.5 414.7 120.12 441.08 120.12 473.62 C 120.13 494.86 131.58 514.45 150.09 524.89 C 127.95 551.93 114.8 583.25 114.8 619.77 L 114.8 672.23 L 240.8 672.42 L 240.8 620.53 C 240.8 579.69 230.23 552.24 208.32 524.66 C 226.62 514.17 237.92 494.71 237.96 473.62 C 237.95 441.08 211.58 414.7 179.04 414.7 Z M 766.35 532.74 L 674.91 596.02 L 766.35 659.29 L 766.35 615.9 L 866.85 615.9 L 866.85 576.12 L 766.35 576.12 Z M 44.28 0 C 19.92 0 0 19.92 0 44.28 L 0 680.96 C 0 705.33 19.92 725.26 44.28 725.26 L 893.74 725.26 C 918.1 725.26 938.03 705.33 938.03 680.96 L 938.03 44.28 C 938.03 19.92 918.1 0 893.74 0 Z M 44.28 20 L 893.74 20 C 907.37 20 918.03 30.66 918.03 44.28 L 918.03 680.96 C 918.03 694.59 907.37 705.25 893.74 705.25 L 44.28 705.25 C 30.66 705.25 20 694.59 20 680.96 L 20 44.28 C 20 30.66 30.66 20 44.28 20 Z" fill="var(--icon-primary, #dae8fc)" stroke="none" stroke-width="0"/></svg>