<svg xmlns="http://www.w3.org/2000/svg" viewBox="0 0 938.03 725.26" width="938.03" height="725.26"><path d="M 163.23 74.47 C 142.43 74.47 125.27 91.63 125.27 112.43 L 125.27 392.17 L 97.85 392.17 L 97.85 374.98 L 60.05 399.82 L 97.85 424.66 L 97.85 407.47 L 125.27 407.47 L 125.27 617.55 C 125.27 638.35 142.43 655.5 163.23 655.5 L 766.26 655.5 C 787.06 655.5 804.21 638.35 804.21 617.55 L 804.21 467.73 L 833.98 487.21 L 834 469.92 L 859.92 469.92 L 859.92 642.77 L 875.04 642.77 L 875.04 454.8 L 834.03 454.8 L 834.06 437.48 L 804.21 457.03 L 804.21 407.55 L 828.13 407.55 L 828.13 391.69 L 804.21 391.69 L 804.21 112.43 C 804.21 91.63 787.06 74.47 766.26 74.47 Z M 163.23 100.93 L 766.26 100.93 C 772.86 100.93 777.76 105.83 777.76 112.43 L 777.76 617.55 C 777.76 624.15 772.86 629.05 766.26 629.05 L 718.02 629.05 C 718.25 585.29 719.79 552.02 710.67 516.68 C 703.06 488.65 690.8 465.51 671.42 449.86 A 65.38 65.38 0 0 0 711.58 389.61 A 65.38 65.38 0 0 0 646.2 324.23 A 65.38 65.38 0 0 0 580.82 389.61 A 65.38 65.38 0 0 0 620.5 449.71 C 599.06 465.18 588.15 491.91 580.89 516.39 C 572.57 551.02 572.94 586.61 573.03 629.05 L 163.23 629.05 C 156.63 629.05 151.73 624.15 151.73 617.55 L 151.73 112.43 C 151.73 105.83 156.63 100.93 163.23 100.93 Z M 305.88 101.52 L 281.04 139.32 L 298.23 139.32 L 298.23 169.57 L 313.53 169.57 L 313.53 139.32 L 330.71 139.32 Z M 193.22 186.58 L 193.22 194.14 L 193.22 473.17 L 412.88 473.17 L 412.88 415.62 L 459.75 462.36 L 486.44 435.6 L 422.18 371.51 C 436.88 353.25 445.7 330.07 445.7 304.88 C 445.7 274.75 433.09 247.5 412.88 228.1 L 412.88 186.58 Z M 208.34 201.7 L 312.86 201.7 C 289.23 207.74 268.74 221.72 254.38 240.6 L 208.34 240.6 Z M 365.55 201.7 L 397.77 201.7 L 397.77 216.01 C 388.02 209.56 377.17 204.67 365.55 201.7 Z M 339.21 221.07 C 359.76 221.07 378.53 228.41 393.08 240.6 L 285.33 240.6 C 299.88 228.41 318.65 221.07 339.21 221.07 Z M 208.34 252.96 L 246.28 252.96 C 239.23 265.52 234.65 279.65 233.21 294.68 L 208.34 294.68 Z M 273.35 252.96 L 397.77 252.96 L 397.77 294.68 L 256.01 294.68 C 257.89 279.01 264.09 264.71 273.35 252.96 Z M 412.88 264.79 C 419.35 276.69 423.02 290.34 423.02 304.88 C 423.02 319.42 419.35 333.07 412.88 344.96 Z M 649.75 274.2 C 608.31 274.06 569.58 298.5 552.38 337.88 C 547.61 348.8 544.83 360.16 543.86 371.53 A 21.1 21.1 0 0 0 531.59 390.66 A 21.1 21.1 0 0 0 547.94 411.2 C 554.6 433.56 568.53 453.77 588.69 467.94 L 597.38 455.57 C 580.7 443.85 568.98 427.36 563.03 409.03 A 21.1 21.1 0 0 0 573.79 390.66 A 21.1 21.1 0 0 0 559.11 370.57 C 560.11 361.57 562.46 352.6 566.24 343.94 C 583.69 303.97 626.63 282.06 668.97 291.47 C 707.6 300.05 735.78 332.52 739.72 371.3 A 21.1 21.1 0 0 0 726.93 390.66 A 21.1 21.1 0 0 0 748.03 411.76 A 21.1 21.1 0 0 0 769.13 390.66 A 21.1 21.1 0 0 0 754.85 370.72 C 750.62 325.2 717.57 286.78 672.25 276.71 C 666.09 275.34 659.9 274.55 653.77 274.29 C 652.43 274.23 651.09 274.2 649.75 274.2 Z M 208.34 307.03 L 232.74 307.03 C 233.04 322.05 236.47 336.33 242.41 349.22 L 208.34 349.22 Z M 255.42 307.03 L 397.77 307.03 L 397.77 349.22 L 268.02 349.22 C 260.37 336.94 255.8 322.52 255.42 307.03 Z M 208.34 361.58 L 249.13 361.58 C 260.71 379.9 277.73 394.48 297.89 403.01 L 208.34 403.01 Z M 277.4 361.58 L 397.77 361.58 L 397.77 364.91 C 382.68 379.63 362.04 388.69 339.21 388.69 C 314.69 388.69 292.7 378.25 277.4 361.58 Z M 393.59 396.38 L 397.77 400.54 L 397.77 403.01 L 380.52 403.01 C 385.04 401.1 389.41 398.87 393.59 396.38 Z M 208.34 415.36 L 397.77 415.36 L 397.77 458.05 L 208.34 458.05 Z M 44.28 0 C 19.92 0 0 19.92 0 44.28 L 0 680.96 C 0 705.33 19.92 725.26 44.28 725.26 L 893.74 725.26 C 918.1 725.26 938.03 705.33 938.03 680.96 L 938.03 44.28 C 938.03 19.92 918.1 0 893.74 0 Z M 44.28 20 L 893.74 20 C 907.37 20 918.03 30.66 918.03 44.28 L 918.03 680.96 C 918.03 694.59 907.37 705.25 893.74 705.25 L 44.28 705.25 C 30.66 705.25 20 694.59 20 680.96 L 20 44.28 C 20 30.66 30.66 20 44.28 20 Z" fill="var(--icon-primary, #dae8fc)" stroke="none" stroke-width="0"/></svg>