<svg xmlns="http://www.w3.org/2000/svg" viewBox="0 0 938.03 725.26" width="938.03" height="725.26"><path d="M 44.28 20 L 893.74 20 C 907.37 20 918.03 30.66 918.03 44.28 L 918.03 680.96 C 918.03 694.59 907.37 705.25 893.74 705.25 L 44.28 705.25 C 30.66 705.25 20 694.59 20 680.96 L 20 44.28 C 20 30.66 30.66 20 44.28 20 Z M 44.28 0 C 19.92 0 0 19.92 0 44.28 L 0 680.96 C 0 705.33 19.92 725.26 44.28 725.26 L 893.74 725.26 C 918.1 725.26 938.03 705.33 938.03 680.96 L 938.03 44.28 C 938.03 19.92 918.1 0 893.74 0 Z M 537.5 414.97 C 538.5 414.97 539.37 415.29 540.14 415.94 C 540.92 416.56 541.56 417.82 542.07 419.72 C 542.58 421.59 542.83 425.05 542.83 430.09 C 542.83 431.97 542.78 433.58 542.7 435.05 C 539.96 437.92 537.05 440.64 533.99 443.16 C 533.59 442.49 533.24 441.62 532.93 440.49 C 532.42 438.59 532.17 435.13 532.17 430.09 C 532.17 425.05 532.45 421.46 533.02 419.34 C 533.45 417.7 534.05 416.56 534.83 415.94 C 535.62 415.29 536.5 414.97 537.5 414.97 Z M 494.75 414.97 C 495.75 414.97 496.62 415.29 497.39 415.94 C 498.17 416.56 498.81 417.82 499.32 419.72 C 499.83 421.59 500.08 425.05 500.08 430.09 C 500.08 435.13 499.8 438.7 499.23 440.81 C 498.8 442.45 498.2 443.59 497.42 444.24 C 496.63 444.86 495.75 445.18 494.75 445.18 C 493.75 445.18 492.87 444.86 492.08 444.24 C 491.32 443.61 490.69 442.36 490.18 440.49 C 489.67 438.59 489.42 435.13 489.42 430.09 C 489.42 425.05 489.7 421.46 490.27 419.34 C 490.7 417.7 491.3 416.56 492.08 415.94 C 492.87 415.29 493.75 414.97 494.75 414.97 Z M 418.25 414.97 C 419.25 414.97 420.12 415.29 420.89 415.94 C 421.67 416.56 422.31 417.82 422.82 419.72 C 423.33 421.59 423.58 425.05 423.58 430.09 C 423.58 435.13 423.3 438.7 422.73 440.81 C 422.3 442.45 421.7 443.59 420.92 444.24 C 420.13 444.86 419.25 445.18 418.25 445.18 C 417.25 445.18 416.37 444.86 415.58 444.24 C 414.82 443.61 414.19 442.36 413.68 440.49 C 413.17 438.59 412.92 435.13 412.92 430.09 C 412.92 425.05 413.2 421.46 413.77 419.34 C 414.2 417.7 414.8 416.56 415.58 415.94 C 416.37 415.29 417.25 414.97 418.25 414.97 Z M 455.75 408.51 C 454.82 411.13 453.09 413.42 450.57 415.39 C 448.05 417.35 445.71 418.68 443.57 419.38 L 443.57 426.85 C 447.65 425.5 451.19 423.42 454.2 420.61 L 454.2 451.63 L 462.43 451.63 L 462.43 408.51 Z M 494.75 408.14 C 490.59 408.14 487.35 409.61 485.02 412.54 C 482.21 416.09 480.8 421.91 480.8 430 C 480.8 438.24 482.08 443.97 484.64 447.2 C 487.2 450.4 490.57 452 494.75 452 C 498.91 452 502.15 450.54 504.48 447.61 C 507.29 444.05 508.7 438.21 508.7 430.09 C 508.7 421.94 507.3 416.11 504.51 412.6 C 502.16 409.63 498.91 408.14 494.75 408.14 Z M 558.25 351.4 C 559.25 351.4 560.12 351.73 560.89 352.37 C 561.67 353 562.31 354.26 562.82 356.15 C 563.33 358.03 563.58 361.48 563.58 366.52 C 563.58 371.56 563.3 375.13 562.73 377.24 C 562.3 378.88 561.7 380.03 560.92 380.67 C 560.13 381.3 559.25 381.61 558.25 381.61 C 557.25 381.61 556.37 381.3 555.58 380.67 C 554.82 380.05 554.19 378.8 553.68 376.92 C 553.17 375.03 552.92 371.56 552.92 366.52 C 552.92 361.48 553.2 357.9 553.77 355.77 C 554.2 354.13 554.8 353 555.58 352.37 C 556.37 351.73 557.25 351.4 558.25 351.4 Z M 486.25 351.4 C 487.25 351.4 488.12 351.73 488.89 352.37 C 489.67 353 490.31 354.26 490.82 356.15 C 491.33 358.03 491.58 361.48 491.58 366.52 C 491.58 371.56 491.3 375.13 490.73 377.24 C 490.3 378.88 489.7 380.03 488.92 380.67 C 488.13 381.3 487.25 381.61 486.25 381.61 C 485.25 381.61 484.37 381.3 483.58 380.67 C 482.82 380.05 482.19 378.8 481.68 376.92 C 481.17 375.03 480.92 371.56 480.92 366.52 C 480.92 361.48 481.2 357.9 481.77 355.77 C 482.2 354.13 482.8 353 483.58 352.37 C 484.37 351.73 485.25 351.4 486.25 351.4 Z M 447.25 351.4 C 448.25 351.4 449.12 351.73 449.89 352.37 C 450.67 353 451.31 354.26 451.82 356.15 C 452.33 358.03 452.58 361.48 452.58 366.52 C 452.58 371.56 452.3 375.13 451.73 377.24 C 451.3 378.88 450.7 380.03 449.92 380.67 C 449.13 381.3 448.25 381.61 447.25 381.61 C 446.25 381.61 445.37 381.3 444.58 380.67 C 443.82 380.05 443.19 378.8 442.68 376.92 C 442.17 375.03 441.92 371.56 441.92 366.52 C 441.92 361.48 442.2 357.9 442.77 355.77 C 443.2 354.13 443.8 353 444.58 352.37 C 445.37 351.73 446.25 351.4 447.25 351.4 Z M 376.5 351.4 C 377.5 351.4 378.38 351.73 379.14 352.37 C 379.92 353 380.56 354.26 381.07 356.15 C 381.58 358.03 381.83 361.48 381.83 366.52 C 381.83 371.56 381.55 375.13 380.98 377.24 C 380.55 378.88 379.95 380.03 379.17 380.67 C 378.38 381.3 377.5 381.61 376.5 381.61 C 375.5 381.61 374.62 381.3 373.83 380.67 C 373.56 380.45 373.31 380.11 373.06 379.72 C 372.52 375.52 372.24 371.24 372.24 366.89 C 372.24 362.19 372.57 357.57 373.21 353.05 C 373.4 352.79 373.61 352.55 373.83 352.37 C 374.62 351.73 375.5 351.4 376.5 351.4 Z M 522.5 344.94 C 521.57 347.56 519.84 349.86 517.32 351.83 C 514.8 353.78 512.46 355.11 510.32 355.81 L 510.32 363.28 C 514.4 361.94 517.94 359.86 520.95 357.04 L 520.95 388.07 L 529.18 388.07 L 529.18 344.94 Z M 412.5 344.94 C 411.57 347.56 409.84 349.86 407.32 351.83 C 404.8 353.78 402.46 355.11 400.32 355.81 L 400.32 363.28 C 404.4 361.94 407.94 359.86 410.95 357.04 L 410.95 388.07 L 419.18 388.07 L 419.18 344.94 Z M 486.25 344.58 C 482.09 344.58 478.85 346.04 476.52 348.97 C 473.71 352.53 472.3 358.35 472.3 366.43 C 472.3 374.68 473.58 380.41 476.14 383.63 C 478.7 386.83 482.07 388.44 486.25 388.44 C 490.41 388.44 493.65 386.97 495.98 384.04 C 498.79 380.49 500.2 374.65 500.2 366.52 C 500.2 358.38 498.8 352.55 496.01 349.03 C 493.66 346.06 490.41 344.58 486.25 344.58 Z M 447.25 344.58 C 443.09 344.58 439.85 346.04 437.52 348.97 C 434.71 352.53 433.3 358.35 433.3 366.43 C 433.3 374.68 434.58 380.41 437.14 383.63 C 439.7 386.83 443.07 388.44 447.25 388.44 C 451.41 388.44 454.65 386.97 456.98 384.04 C 459.79 380.49 461.2 374.65 461.2 366.52 C 461.2 358.38 459.8 352.55 457.01 349.03 C 454.66 346.06 451.41 344.58 447.25 344.58 Z M 206.04 293.72 C 206.3 293.87 207.1 294.38 208.52 296.29 C 210.64 299.16 213.18 304.39 215.32 311.22 C 219.6 324.88 222.47 344.85 222.47 366.89 C 222.47 388.93 219.6 408.89 215.32 422.55 C 213.18 429.38 210.64 434.61 208.52 437.47 C 207.1 439.39 206.3 439.9 206.04 440.05 C 205.77 439.9 204.97 439.39 203.56 437.47 C 201.44 434.61 198.89 429.38 196.75 422.55 C 192.48 408.89 189.6 388.93 189.6 366.89 C 189.6 344.85 192.48 324.88 196.75 311.22 C 198.89 304.39 201.44 299.16 203.56 296.29 C 204.97 294.38 205.77 293.87 206.04 293.72 Z M 495.75 287.22 C 496.75 287.22 497.62 287.54 498.39 288.19 C 499.17 288.81 499.81 290.07 500.32 291.97 C 500.83 293.84 501.08 297.3 501.08 302.34 C 501.08 307.38 500.8 310.95 500.23 313.06 C 499.8 314.7 499.2 315.84 498.42 316.49 C 497.63 317.11 496.75 317.43 495.75 317.43 C 494.75 317.43 493.87 317.11 493.08 316.49 C 492.32 315.86 491.69 314.61 491.18 312.74 C 490.67 310.84 490.42 307.38 490.42 302.34 C 490.42 297.3 490.7 293.71 491.27 291.59 C 491.7 289.95 492.3 288.81 493.08 288.19 C 493.87 287.54 494.75 287.22 495.75 287.22 Z M 419.46 287.22 C 420.46 287.22 421.34 287.54 422.1 288.19 C 422.88 288.81 423.53 290.07 424.04 291.97 C 424.54 293.84 424.8 297.3 424.8 302.34 C 424.8 307.38 424.51 310.95 423.95 313.06 C 423.52 314.7 422.91 315.84 422.13 316.49 C 421.35 317.11 420.46 317.43 419.46 317.43 C 418.47 317.43 417.58 317.11 416.8 316.49 C 416.04 315.86 415.4 314.61 414.89 312.74 C 414.39 310.84 414.13 307.38 414.13 302.34 C 414.13 297.3 414.42 293.71 414.98 291.59 C 415.41 289.95 416.02 288.81 416.8 288.19 C 417.58 287.54 418.47 287.22 419.46 287.22 Z M 458.72 280.76 C 457.78 283.38 456.05 285.67 453.53 287.64 C 451.01 289.6 448.68 290.93 446.53 291.63 L 446.53 299.1 C 450.61 297.75 454.16 295.67 457.17 292.86 L 457.17 323.88 L 465.4 323.88 L 465.4 280.76 Z M 495.75 280.39 C 491.59 280.39 488.35 281.86 486.02 284.79 C 483.21 288.34 481.8 294.16 481.8 302.25 C 481.8 310.49 483.08 316.22 485.64 319.45 C 488.2 322.65 491.57 324.25 495.75 324.25 C 499.91 324.25 503.15 322.79 505.48 319.86 C 508.29 316.3 509.7 310.46 509.7 302.34 C 509.7 294.19 508.3 288.36 505.51 284.85 C 503.16 281.88 499.91 280.39 495.75 280.39 Z M 471.07 268.05 C 493.4 268.05 513.98 275.42 530.51 287.87 C 528.11 289.69 525.88 290.95 523.82 291.63 L 523.82 299.1 C 527.9 297.75 531.44 295.67 534.45 292.86 L 534.45 323.88 L 542.68 323.88 L 542.68 298.7 C 555.79 312.46 564.95 330.01 568.39 349.55 C 568.27 349.38 568.14 349.2 568.01 349.03 C 565.66 346.06 562.41 344.58 558.25 344.58 C 554.09 344.58 550.85 346.04 548.52 348.97 C 545.71 352.53 544.3 358.35 544.3 366.43 C 544.3 374.68 545.58 380.41 548.14 383.63 C 550.7 386.83 554.07 388.44 558.25 388.44 C 562.41 388.44 565.65 386.97 567.98 384.04 C 568.18 383.79 568.37 383.52 568.55 383.24 C 566.01 398.59 559.94 412.72 551.21 424.8 C 550.71 419.37 549.4 415.3 547.26 412.6 C 544.91 409.63 541.66 408.14 537.5 408.14 C 533.34 408.14 530.1 409.61 527.77 412.54 C 524.96 416.09 523.55 421.91 523.55 430 C 523.55 438.24 524.83 443.97 527.39 447.2 C 527.56 447.41 527.74 447.59 527.92 447.79 C 511.85 459.09 492.25 465.72 471.07 465.72 C 452.56 465.72 435.26 460.65 420.46 451.83 C 423.57 451.39 426.08 449.99 427.98 447.61 C 430.79 444.05 432.2 438.21 432.2 430.09 C 432.2 421.94 430.8 416.11 428.01 412.6 C 425.66 409.63 422.41 408.14 418.25 408.14 C 414.09 408.14 410.85 409.61 408.52 412.54 C 405.71 416.09 404.3 421.91 404.3 430 C 404.3 434.25 404.65 437.82 405.33 440.74 C 390.1 427.18 379.11 408.96 374.56 388.3 C 375.19 388.38 375.83 388.44 376.5 388.44 C 380.66 388.44 383.9 386.97 386.23 384.04 C 389.04 380.49 390.45 374.65 390.45 366.52 C 390.45 358.38 389.05 352.55 386.26 349.03 C 383.91 346.06 380.66 344.58 376.5 344.58 C 375.89 344.58 375.31 344.62 374.73 344.68 C 379.51 323.8 390.88 305.46 406.54 291.96 C 405.86 294.85 405.52 298.27 405.52 302.25 C 405.52 310.49 406.8 316.22 409.36 319.45 C 411.92 322.65 415.29 324.25 419.46 324.25 C 423.63 324.25 426.87 322.79 429.19 319.86 C 432 316.3 433.41 310.46 433.41 302.34 C 433.41 294.19 432.01 288.36 429.22 284.85 C 427.5 282.67 425.28 281.29 422.58 280.71 C 436.89 272.65 453.43 268.05 471.07 268.05 Z M 471.07 252.93 C 446.07 252.93 422.93 261.03 404.13 274.72 L 206.04 274.72 C 198.38 274.72 192.44 279.55 188.36 285.06 C 184.29 290.57 181.26 297.44 178.72 305.58 C 173.62 321.85 170.71 343.25 170.71 366.89 C 170.71 390.53 173.62 411.92 178.72 428.19 C 181.26 436.33 184.29 443.21 188.36 448.71 C 192.44 454.22 198.38 459.04 206.04 459.04 L 404.12 459.04 C 422.93 472.74 446.07 480.83 471.07 480.83 C 496.07 480.83 519.21 472.74 538.01 459.04 L 732.85 459.04 C 740.5 459.04 746.45 454.22 750.53 448.71 C 754.6 443.21 757.63 436.33 760.17 428.19 C 765.26 411.92 768.18 390.53 768.18 366.89 C 768.18 343.25 765.26 321.85 760.17 305.58 C 757.63 297.44 754.6 290.57 750.53 285.06 C 746.45 279.55 740.5 274.72 732.85 274.72 L 538.01 274.72 C 519.2 261.03 496.07 252.93 471.07 252.93 Z" fill="var(--icon-primary, #dae8fc)" stroke="none" stroke-width="0"/></svg>