<svg xmlns="http://www.w3.org/2000/svg" viewBox="0 0 721.85 725.26" width="721.85" height="725.26"><path d="M 398.21 195.56 L 382.78 242.82 A 39.14 18.69 0 0 0 348.04 255.53 L 256.96 255.44 A 39.14 18.69 0 0 0 233.81 244.02 L 247.54 201.97 L 233.17 197.27 L 218.3 242.81 A 39.14 18.69 0 0 0 183.01 255.37 L 112.14 255.3 L 112.12 270.42 L 185.73 270.49 A 39.14 18.69 0 0 0 206.48 278.99 L 183.04 350.77 A 39.14 18.69 0 0 0 182.08 350.74 A 39.14 18.69 0 0 0 148.45 359.91 L 88.01 359.85 L 88 374.97 L 144.78 375.03 A 39.14 18.69 0 0 0 171.09 387.35 L 150.09 451.66 A 39.14 18.69 0 0 0 148.74 451.63 A 39.14 18.69 0 0 0 115.62 460.41 L 64.28 460.36 L 64.27 475.47 L 111.17 475.52 A 39.14 18.69 0 0 0 138.13 488.29 L 126.66 523.41 L 141.03 528.1 L 153.86 488.82 A 39.14 18.69 0 0 0 186.27 475.6 L 277.2 475.69 A 39.14 18.69 0 0 0 302.67 488.1 L 291.7 521.69 L 306.07 526.38 L 318.31 488.91 A 39.14 18.69 0 0 0 352.1 475.76 L 444.24 475.85 A 39.14 18.69 0 0 0 467.54 487.74 L 455.99 523.12 L 470.36 527.81 L 483.04 488.98 A 39.14 18.69 0 0 0 518.92 475.93 L 577.17 475.98 L 577.18 460.87 L 515.23 460.81 A 39.14 18.69 0 0 0 494.87 452.76 L 515.99 388.1 A 39.14 18.69 0 0 0 552.21 375.43 L 600.91 375.47 L 600.92 360.35 L 549.28 360.3 A 39.14 18.69 0 0 0 527.85 351.77 L 551.26 280.11 A 39.14 18.69 0 0 0 553.31 280.16 A 39.14 18.69 0 0 0 587.08 270.88 L 625.02 270.92 L 625.04 255.8 L 590.54 255.77 A 39.14 18.69 0 0 0 563.24 243.42 L 576.87 201.68 L 562.5 196.99 L 547.47 243.01 A 39.14 18.69 0 0 0 516.11 255.7 L 422.24 255.61 A 39.14 18.69 0 0 0 398.32 243.9 L 412.58 200.25 Z M 254.15 270.56 L 351.09 270.65 A 39.14 18.69 0 0 0 371 278.88 L 347.53 350.75 A 39.14 18.69 0 0 0 313.9 360.07 L 215.79 359.98 A 39.14 18.69 0 0 0 198.39 352.46 L 222.02 280.12 A 39.14 18.69 0 0 0 254.15 270.56 Z M 419.1 270.72 L 519.47 270.82 A 39.14 18.69 0 0 0 535.98 278.2 L 512.27 350.8 A 39.14 18.69 0 0 0 481.13 360.24 L 381.65 360.14 A 39.14 18.69 0 0 0 362.95 352.21 L 386.49 280.13 A 39.14 18.69 0 0 0 419.1 270.72 Z M 219.36 375.1 L 310.56 375.19 A 39.14 18.69 0 0 0 335.63 387.19 L 314.58 451.63 A 39.14 18.69 0 0 0 281.32 460.57 L 181.99 460.47 A 39.14 18.69 0 0 0 165.41 453.43 L 186.8 387.96 A 39.14 18.69 0 0 0 219.36 375.1 Z M 384.9 375.26 L 478.11 375.35 A 39.14 18.69 0 0 0 500.53 386.75 L 479.32 451.67 A 39.14 18.69 0 0 0 448.04 460.74 L 348.1 460.64 A 39.14 18.69 0 0 0 330 453.13 L 351.26 388.03 A 39.14 18.69 0 0 0 384.9 375.26 Z M 44.28 0 C 19.92 0 0 19.92 0 44.28 L 0 680.96 C 0 705.33 19.92 725.26 44.28 725.26 L 677.57 725.26 C 701.93 725.26 721.85 705.33 721.85 680.96 L 721.85 44.28 C 721.85 19.92 701.93 0 677.57 0 Z M 44.28 20 L 677.57 20 C 691.2 20 701.86 30.66 701.86 44.28 L 701.86 506.05 C 694.29 520.25 683.27 531.95 670.53 543.13 C 651.59 558.22 622.27 571.61 596.66 571.61 L 399.9 571.61 L 399.9 525.92 L 326.86 585.01 L 399.9 650.97 L 399.9 599.08 L 587.91 599.08 C 635.8 599.08 664.63 575.83 683.98 557.56 L 684.15 557.42 L 684.31 557.28 C 688.92 552.28 695.52 543.47 701.86 531.92 L 701.86 680.96 C 701.86 694.59 691.2 705.25 677.57 705.25 L 44.28 705.25 C 30.66 705.25 20 694.59 20 680.96 L 20 226.23 C 27.39 208.32 40.03 194.41 55.06 181.22 C 74 166.13 103.31 152.74 128.93 152.74 L 325.68 152.74 L 325.68 198.43 L 398.73 139.34 L 325.68 73.38 L 325.68 125.27 L 137.68 125.27 C 89.79 125.27 60.95 148.52 41.61 166.79 L 41.44 166.93 L 41.28 167.07 C 35.74 173.07 27.37 184.51 20 199.62 L 20 44.28 C 20 30.66 30.66 20 44.28 20 Z" fill="var(--icon-primary, #dae8fc)" stroke="none" stroke-width="0"/></svg>