<svg xmlns="http://www.w3.org/2000/svg" viewBox="0 0 190.99 191.89" width="190.99" height="191.89"><path d="M 95.85 81.24 L 78.02 85.74 L 78.02 93.58 C 78.02 97.83 78.78 105.4 84.17 112.77 L 111.94 85.08 Z M 113.78 88.65 L 86.62 115.74 C 89.1 118.42 92.28 121 96.36 123.32 C 111.54 114.35 113.72 99.4 113.72 93.07 Z M 95.99 70.89 L 101.4 72.09 L 101.34 75.68 L 111.81 77.97 L 111.86 74.4 L 120.4 76.29 L 120.4 94.99 C 120.4 111.1 109.54 125.62 95.91 131.18 C 80.52 125 71.15 110.51 71.15 95.72 L 71.15 76.37 L 79.7 74.48 L 79.75 77.97 L 90.22 75.68 L 90.15 72.17 Z M 96.18 22.5 C 55.17 22.5 21.87 55.8 21.87 96.8 C 21.87 137.81 55.17 171.11 96.18 171.11 C 137.18 171.11 170.48 137.81 170.48 96.8 C 170.48 55.8 137.18 22.5 96.18 22.5 Z M 93.71 29.01 C 93.74 29.48 93.63 29.77 93.52 30.05 C 92.26 29.68 91.6 29.41 90.81 29.16 C 91.77 29.09 92.74 29.04 93.71 29.01 Z M 106.96 30.54 C 107.73 30.54 108.4 30.61 108.56 30.66 C 108.99 30.82 111.13 31.2 110.75 32.1 C 110.37 32.99 106.59 32.58 105.56 32.48 C 104.54 32.39 104.23 32.25 104.16 31.29 C 104.11 30.69 105.68 30.53 106.96 30.54 Z M 120.08 35.09 L 120.08 35.09 C 120.3 35.09 120.52 35.11 120.74 35.15 C 120.7 35.68 121.37 36.22 119.43 37.39 C 119.06 37.62 117.99 38.65 119.83 38.24 C 120.27 38.14 122.46 37.7 123.79 38.32 C 124.21 38.51 124.53 38.84 125.16 38.33 C 125.41 38.13 125.49 37.56 125.08 37.04 C 124.77 36.63 124.51 36.28 123.75 36.2 C 123.27 36.15 123.15 35.45 123.14 35.43 C 125.13 36.16 129.3 37.91 130.87 39.38 C 131.61 40.07 130.15 39.56 129.06 39.63 C 126.1 39.82 126.49 38.62 125.67 39.23 C 124.98 39.74 125.97 39.58 125.39 40.39 C 125.11 40.78 124.51 40.15 124.23 40.58 C 123.46 41.8 124.62 43.86 123.48 45.88 C 122.58 47.47 121.62 48.38 119.43 49.01 C 117.38 49.6 116.7 48.7 116.73 51.01 C 116.76 52.36 115.07 53.87 114.05 53.51 L 114.05 53.5 C 112.19 52.84 111.89 52.12 112.58 51.21 C 113.33 50.21 111.07 49.65 112.62 49.26 C 114 48.9 114.87 48 112.95 48.23 C 111.8 48.37 111.39 48.78 109.4 47.81 C 108.55 47.39 108.19 47.51 107.68 47 C 107.16 46.48 107.12 46.01 105.19 46.12 C 103.5 46.22 104.59 45.26 104.05 44.58 C 103.52 43.9 103.2 43.91 103.64 42.81 C 104.06 41.77 104.91 40.83 106.45 40.02 C 107.31 39.56 108.47 39.41 109.18 38.83 C 109.78 38.34 110.48 38.01 111.37 38.02 C 112.11 38.03 112.83 38.05 113.92 37.57 C 114.62 37.26 114.79 37.42 115.44 36.55 C 115.89 35.94 116.31 36.14 117.23 36.13 C 117.86 36.12 118.06 35.66 118.16 35.17 C 118.81 35.22 119.44 35.08 120.08 35.09 Z M 133.95 40.71 C 134.91 41.37 135.85 42.05 136.77 42.75 C 136.1 42.98 134.65 42.85 133.91 42.25 C 133.29 41.75 133.42 41.12 133.95 40.71 Z M 53.44 43.5 L 53.56 43.78 C 53.52 44.08 53.51 44.33 53.72 44.46 C 54.48 44.97 53.64 44.85 53.68 45.98 C 53.74 47.38 53.04 47.77 53.3 48.35 C 53.8 49.53 54.83 47.6 55.37 48.45 C 55.59 48.8 55.81 49.23 55.11 49.57 C 53.98 50.13 54.24 50.8 54.2 51.8 C 54.15 53.16 55.05 52.97 54.98 53.59 C 54.9 54.24 53.36 54.16 53.62 55.63 C 53.82 56.8 55.21 56.11 55.2 58.52 C 55.2 59.54 54.56 58.95 54.07 59.73 C 52.95 61.49 52.05 63.4 51.43 63.99 C 50.48 64.91 49.31 65.55 49.24 66.88 C 49.19 67.66 48.63 67.27 47.97 68.3 C 47.04 69.76 47.04 69.78 47.07 72.74 C 47.08 73.84 46.61 78 48.61 77.81 C 50.05 77.68 49.51 78.4 50.42 78.9 C 51.75 79.64 51.23 81.56 51.23 82.75 C 51.22 84.23 51.15 83.84 51.46 84.69 C 52.04 86.31 52.84 86.18 51.59 87.2 C 50.19 88.35 52.71 88.94 53.7 89.41 C 54.21 89.65 54.36 89.88 54.28 90.85 C 54.18 91.92 54.65 92.27 55.19 92.81 C 55.76 93.38 56.9 93.7 57.22 93.54 C 57.55 93.38 56.55 92.38 56.29 92.15 C 55.45 91.45 55.55 91.14 55.55 90.6 C 55.55 89.98 55.08 90.06 54.96 89.04 C 54.82 87.88 54.14 87.55 54.21 86.64 C 54.36 84.81 54.15 85.15 53.74 84.4 C 53.05 83.13 54.23 82.26 54.84 82.14 C 56.14 81.87 55.98 83.4 55.97 84.19 C 55.92 86.49 56.35 85.89 57.44 86.7 C 58.54 87.52 57.52 88.39 58.15 89.12 C 59.18 90.3 58.51 90.58 58.62 90.89 C 59.02 92 59.71 91.41 60.03 93.03 C 60.33 94.52 62.01 93.67 62.51 96.96 C 62.82 99.03 60.12 98.97 62.41 100.29 C 63.7 101.04 63.25 101.72 64.5 101.6 C 66.3 101.42 66.62 101.75 67.11 102.3 C 66.39 98.91 65.95 95.27 65.79 91.35 L 65.79 72.38 L 95.55 66.08 L 114.1 69.54 C 114.49 68.94 114.77 68.81 115.45 68.74 C 115.99 68.68 116.1 68.86 116.59 68.37 C 116.87 68.09 118 67.95 119.05 68.03 C 119.82 68.09 120.06 68.08 120.05 67.41 C 120.02 65.23 120.91 65.54 122.24 64.76 C 125.11 63.06 126.35 63.07 127.23 63.01 C 129.64 62.86 126.59 63.95 126.27 64.78 C 125.99 65.5 126.88 65.49 127.49 65.18 C 128.52 64.64 129.04 64.73 129.75 63.67 C 130.41 62.69 131.15 63.44 133.07 62.94 C 134.99 62.44 134.81 62.33 135.37 61.98 C 136.18 61.46 135.15 60.6 134.76 60.36 C 134.26 60.06 133.67 60.54 133.54 60.95 C 133.04 62.52 132.39 62.44 132.1 62.45 C 130.69 62.52 130.01 61.37 129.69 60.88 C 129.16 60.06 130.61 59.58 131.05 58.94 C 131.99 57.59 131.05 57.64 130.34 57.85 C 129.01 58.25 128.52 57.71 129 56.78 C 129.95 54.95 131.3 55.85 132.06 55.76 C 133.46 55.59 132.26 56.26 133.11 57.08 C 133.69 57.64 134.4 57.31 134.68 56.68 C 135.05 55.82 133.13 56.67 133.47 55.89 C 133.87 54.99 135.16 55.56 136.65 55.62 C 137.76 55.67 137.72 55.78 138.18 55.38 C 139.09 54.58 139.34 55.14 139.73 54.88 C 140.94 54.08 141.34 53.92 141.99 54.83 C 142.69 55.83 141.76 55.57 140.86 56.14 C 139.54 56.96 138.4 58.25 137.99 58.95 C 137.2 60.32 139.1 59.25 140.9 59.22 C 142.4 59.19 142.71 59.01 143.6 59.64 C 144.53 60.29 144.43 59.8 144.99 59.57 C 146.15 59.07 143.69 58 144.46 57.17 C 144.93 56.65 145.27 56.47 144.41 56.38 C 142.76 56.23 142.9 55.59 142.88 55.05 C 142.84 53.76 143.57 54.67 143.66 53.92 C 143.8 52.88 144.54 53.19 144.58 52.34 C 144.64 51.14 144.47 51.58 144.39 50.61 C 144.3 49.52 143.77 50.15 143.6 49.56 C 143.47 49.07 143.57 48.83 143.6 48.7 L 143.6 48.7 C 143.41 48.13 143.21 47.57 142.99 47.04 C 156.22 59.49 164.48 77.17 164.48 96.8 C 164.48 109.89 160.81 122.11 154.44 132.5 L 153.1 132.67 C 152.05 132.7 150.71 132.56 149.2 132.02 C 148.4 131.74 146.63 132.24 146.63 131.65 C 146.63 131.12 146.24 131.41 145.79 131.02 C 145.32 130.62 144.86 129.88 144.59 130.89 C 144.48 131.32 143.95 130.7 143.11 130.38 C 142.26 130.06 141.36 130.58 140.7 129.88 C 140.01 129.14 140.4 128.92 139.73 128.88 C 138.33 128.8 138.57 128.36 138.68 127.22 C 138.81 125.85 138.01 126.05 137.94 125.22 C 137.86 124.17 137.42 124.66 137.16 124.24 C 136.81 123.68 138.97 124.09 137.42 123.12 C 135.57 121.96 135.4 121.89 134.07 121.22 C 131.34 119.83 130.52 122.19 128.91 119.68 C 128.16 118.5 127.7 119.12 127.2 118.66 C 126.46 117.98 126.19 117.7 125.66 116.82 C 125.32 116.24 124.95 116.5 124.38 116.4 C 123.47 116.23 123.97 115.76 123.81 115.21 C 123.56 114.38 123.84 113.9 123.46 113.7 C 123.14 113.54 123.37 114.19 122.54 114.09 C 121.97 114.02 122.16 113.25 121.63 112.88 C 117.01 123.77 108.17 131.48 96.62 135.81 C 95.93 135.54 95.26 135.27 94.59 134.99 C 94.6 135 94.6 135 94.6 135.01 C 94.82 135.95 94.22 136.46 95.2 136.76 C 96.83 137.26 99.62 142.54 99.89 143.13 C 100.51 144.67 101.32 144.51 101.95 146.46 C 103.39 147.92 102.58 148.12 103.72 149 C 105.3 150.24 106.07 152.34 107.49 152.35 C 108.16 152.36 108.08 152.95 109.64 153.67 C 110.72 154.16 112.22 155.17 112.63 155.85 C 112.97 156.4 112.65 156.36 113.04 157.7 C 113.58 159.59 113.2 159.95 113.28 162.96 C 107.81 164.36 102.08 165.11 96.18 165.11 C 58.42 165.11 27.87 134.56 27.87 96.8 C 27.87 75.23 37.85 56.01 53.44 43.5 Z M 140.08 46.11 C 140.46 46.07 141.48 47.02 142.61 47.74 C 142.62 47.74 142.62 47.74 142.62 47.74 C 142.9 48 143.17 48.27 143.44 48.54 C 143.36 48.53 143.27 48.52 143.12 48.51 C 139.34 48.24 140.03 47.08 139.95 46.53 C 139.91 46.25 139.96 46.12 140.08 46.11 Z M 11.72 5.29 L 179.27 5.29 C 182.88 5.29 185.7 8.11 185.7 11.72 L 185.7 180.17 C 185.7 183.78 182.88 186.6 179.27 186.6 L 11.72 186.6 C 8.11 186.6 5.29 183.78 5.29 180.17 L 5.29 11.72 C 5.29 8.11 8.11 5.29 11.72 5.29 Z M 11.72 0 C 5.27 0 0 5.27 0 11.72 L 0 180.17 C 0 186.62 5.27 191.89 11.72 191.89 L 179.27 191.89 C 185.72 191.89 190.99 186.62 190.99 180.17 L 190.99 11.72 C 190.99 5.27 185.72 0 179.27 0 Z" fill="var(--icon-primary, #dae8fc)" stroke="none" stroke-width="0"/></svg>