<svg xmlns="http://www.w3.org/2000/svg" viewBox="0 0 196.97 196.97" width="196.97" height="196.97"><path d="M 91.11 33.33 C 86.95 33.33 83.6 36.68 83.6 40.85 L 83.6 55.79 C 83.6 59.95 86.95 63.3 91.11 63.3 L 95.19 63.3 L 95.19 82.14 L 35.27 82.14 C 31.01 82.14 27.57 85.57 27.57 89.84 L 27.57 104.2 C 27.57 108.46 31.01 111.9 35.27 111.9 L 43.93 111.9 L 43.93 130.29 A 10.29 10.29 0 0 0 36.93 140.02 A 10.29 10.29 0 0 0 47.22 150.31 A 10.29 10.29 0 0 0 57.51 140.02 A 10.29 10.29 0 0 0 50.51 130.28 L 50.51 111.9 L 78.11 111.9 L 78.11 130.29 A 10.29 10.29 0 0 0 71.11 140.02 A 10.29 10.29 0 0 0 81.4 150.31 A 10.29 10.29 0 0 0 91.69 140.02 A 10.29 10.29 0 0 0 84.69 130.28 L 84.69 111.9 L 112.28 111.9 L 112.28 130.29 A 10.29 10.29 0 0 0 105.28 140.02 A 10.29 10.29 0 0 0 115.57 150.31 A 10.29 10.29 0 0 0 125.86 140.02 A 10.29 10.29 0 0 0 118.86 130.28 L 118.86 111.9 L 146.45 111.9 L 146.45 130.29 A 10.29 10.29 0 0 0 139.46 140.02 A 10.29 10.29 0 0 0 149.75 150.31 A 10.29 10.29 0 0 0 160.04 140.02 A 10.29 10.29 0 0 0 153.04 130.28 L 153.04 111.9 L 161.7 111.9 C 165.96 111.9 169.4 108.46 169.4 104.2 L 169.4 89.84 C 169.4 85.57 165.96 82.14 161.7 82.14 L 101.78 82.14 L 101.78 63.3 L 105.86 63.3 C 110.02 63.3 113.37 59.95 113.37 55.79 L 113.37 40.85 C 113.37 36.68 110.02 33.33 105.86 33.33 Z M 98.48 2.5 C 151.51 2.5 194.47 45.46 194.47 98.48 C 194.47 151.51 151.51 194.47 98.48 194.47 C 45.46 194.47 2.5 151.51 2.5 98.48 C 2.5 45.46 45.46 2.5 98.48 2.5 Z M 98.48 0 C 44.11 0 0 44.11 0 98.48 C 0 152.86 44.11 196.97 98.48 196.97 C 152.86 196.97 196.97 152.86 196.97 98.48 C 196.97 44.11 152.86 0 98.48 0 Z" fill="var(--icon-primary, #dae8fc)" stroke="none" stroke-width="0"/></svg>