<svg xmlns="http://www.w3.org/2000/svg" viewBox="0 0 196.97 196.97" width="196.97" height="196.97"><path d="M 98.48 24.05 A 14.43 14.43 0 0 0 84.05 38.48 A 14.43 14.43 0 0 0 94.85 52.43 L 94.85 74.3 A 27.13 27.13 0 0 0 74.04 89.47 L 52.4 82.32 A 14.43 14.43 0 0 0 42.54 67.69 A 14.43 14.43 0 0 0 24.31 76.87 A 14.43 14.43 0 0 0 33.48 95.1 A 14.43 14.43 0 0 0 50.53 88.55 L 71.93 95.62 A 27.13 27.13 0 0 0 71.36 101.15 A 27.13 27.13 0 0 0 81.33 122.14 L 67.6 138.55 A 14.43 14.43 0 0 0 50.37 142.32 A 14.43 14.43 0 0 0 52.18 162.65 A 14.43 14.43 0 0 0 72.51 160.84 A 14.43 14.43 0 0 0 72.7 142.58 L 86.87 125.63 A 27.13 27.13 0 0 0 98.48 128.28 A 27.13 27.13 0 0 0 110.1 125.64 L 124.27 142.58 A 14.43 14.43 0 0 0 124.46 160.84 A 14.43 14.43 0 0 0 144.79 162.65 A 14.43 14.43 0 0 0 146.6 142.32 A 14.43 14.43 0 0 0 129.36 138.55 L 115.64 122.14 A 27.13 27.13 0 0 0 125.61 101.15 A 27.13 27.13 0 0 0 125.01 95.62 L 146.44 88.55 A 14.43 14.43 0 0 0 163.48 95.1 A 14.43 14.43 0 0 0 172.66 76.87 A 14.43 14.43 0 0 0 154.43 67.69 A 14.43 14.43 0 0 0 144.57 82.32 L 122.94 89.47 A 27.13 27.13 0 0 0 101.34 74.18 L 101.34 52.61 A 14.43 14.43 0 0 0 112.92 38.48 A 14.43 14.43 0 0 0 98.48 24.05 Z M 98.48 2.5 C 151.51 2.5 194.47 45.46 194.47 98.48 C 194.47 151.51 151.51 194.47 98.48 194.47 C 45.46 194.47 2.5 151.51 2.5 98.48 C 2.5 45.46 45.46 2.5 98.48 2.5 Z M 98.48 0 C 44.11 0 0 44.11 0 98.48 C 0 152.86 44.11 196.97 98.48 196.97 C 152.86 196.97 196.97 152.86 196.97 98.48 C 196.97 44.11 152.86 0 98.48 0 Z" fill="var(--icon-primary, #dae8fc)" stroke="none" stroke-width="0"/></svg>