<svg xmlns="http://www.w3.org/2000/svg" viewBox="0 0 716.26 716.27" width="716.26" height="716.27"><path d="M 358.13 0 C 160.49 0 0 160.5 0 358.13 C 0 555.77 160.49 716.27 358.13 716.27 C 555.77 716.27 716.26 555.77 716.26 358.13 C 716.26 160.5 555.77 0 358.13 0 Z M 358.13 26.46 C 358.74 26.46 359.34 26.47 359.94 26.47 C 364.01 41.44 367.58 57.18 370.7 73.46 A 49.36 49.36 0 0 0 344.59 116.96 A 49.36 49.36 0 0 0 383.38 165.14 C 385.59 188.99 387.11 213.16 388.01 237.14 C 331.84 160.26 254.19 111.32 161.11 91.21 C 216.18 50.52 284.31 26.46 358.13 26.46 Z M 379.68 27.14 C 541.36 37.49 671.32 163.38 687.99 323.23 C 658.52 310.15 629.18 299.79 600.2 291.67 A 49.36 49.36 0 0 0 600.36 288.48 A 49.36 49.36 0 0 0 550.99 239.11 A 49.36 49.36 0 0 0 504.53 271.99 C 471.33 267.47 439.01 265.27 407.97 264.54 C 407.48 231.86 405.81 198.44 402.76 165.51 A 49.36 49.36 0 0 0 443.32 116.96 A 49.36 49.36 0 0 0 393.96 67.6 A 49.36 49.36 0 0 0 388.99 67.9 C 386.22 53.91 383.13 40.29 379.68 27.14 Z M 141.76 106.65 C 244.58 124.74 327.67 176.7 384.63 264.28 C 374.35 264.28 363.44 263.66 353.52 263.94 L 353.13 263.95 L 352.74 263.99 C 291.68 270.72 236.65 279.82 183.55 292.98 A 49.36 49.36 0 0 0 139.02 264.81 A 49.36 49.36 0 0 0 89.66 314.18 A 49.36 49.36 0 0 0 90.19 321.08 C 69.19 328.55 48.11 336.84 26.68 346.07 C 30.09 250.33 73.97 165.01 141.76 106.65 Z M 363.04 282.76 C 371.8 282.81 380.89 283.18 389.68 283.22 C 389.73 315.54 388.67 346.85 386.33 375.63 C 380.89 432.66 368.16 485.38 351.07 532.21 A 49.36 49.36 0 0 0 344.39 531.7 A 49.36 49.36 0 0 0 295.02 581.06 A 49.36 49.36 0 0 0 311.65 617.95 C 298.74 640.66 284.98 660.89 270.95 678.26 C 132.62 640.75 30.35 516.09 26.56 366.72 C 50.21 356.34 73.36 347.12 96.38 338.92 A 49.36 49.36 0 0 0 139.02 363.54 A 49.36 49.36 0 0 0 188.38 314.18 A 49.36 49.36 0 0 0 188.28 311.25 C 240.24 298.39 294.19 289.49 354.42 282.84 C 357.24 282.76 360.12 282.74 363.04 282.76 Z M 417.36 283.52 C 444.67 284.46 472.87 286.61 501.7 290.56 A 49.36 49.36 0 0 0 550.99 337.84 A 49.36 49.36 0 0 0 595.39 309.91 C 626.49 318.66 657.97 330.04 689.54 344.68 C 689.71 349.14 689.81 353.63 689.81 358.13 C 689.81 477.73 626.67 582.42 531.89 640.77 C 526.08 598.59 518.66 556.2 508.35 513.68 A 49.36 49.36 0 0 0 535.44 469.64 A 49.36 49.36 0 0 0 486.07 420.28 A 49.36 49.36 0 0 0 480.74 420.62 C 466.47 380.54 448.85 340.39 426.78 300.24 C 426.77 300.22 426.76 300.21 426.75 300.19 C 423.87 294.32 420.43 289.15 417.36 283.52 Z M 408.05 305.41 C 408.6 306.51 409.27 307.45 409.81 308.56 L 409.91 308.76 L 410.02 308.96 C 431.53 348.04 448.73 387.13 462.69 426.21 A 49.36 49.36 0 0 0 436.71 469.64 A 49.36 49.36 0 0 0 486.07 519.01 A 49.36 49.36 0 0 0 490.16 518.81 C 500.8 562.85 508.33 606.89 514.2 650.92 C 467.7 675.74 414.58 689.82 358.13 689.82 C 335.2 689.82 312.83 687.5 291.21 683.08 C 303.94 666.61 316.33 648.02 327.99 627.56 A 49.36 49.36 0 0 0 344.39 630.42 A 49.36 49.36 0 0 0 393.75 581.06 A 49.36 49.36 0 0 0 369.05 538.35 C 386.6 490.14 399.56 435.98 405.15 377.41 L 405.15 377.35 L 405.15 377.28 C 406.99 354.77 407.61 330.13 408.05 305.41 Z" fill="var(--icon-secondary, #6c8ebf)" stroke="none" stroke-width="0"/></svg>