<svg xmlns="http://www.w3.org/2000/svg" viewBox="0 0 721.85 725.26" width="721.85" height="725.26"><path d="M 363.05 109.05 C 342.01 109.05 317.38 125.39 317.38 149.01 C 317.38 157.62 317.48 163.53 317.48 173.02 C 317.48 189.6 314.39 191.76 300.37 196.83 C 276.95 205.29 263.21 216.44 263.21 241.22 L 462.5 241.26 C 462.5 207.65 439.18 199.6 430 197.26 C 414.67 193.34 410.38 186.77 410.38 177.76 C 410.38 169.33 410.62 167.93 410.62 154.08 C 410.62 130.29 388.25 109.05 363.05 109.05 Z M 362.85 137.65 C 370.47 137.65 376.64 143.82 376.64 151.44 C 376.64 159.05 370.47 165.23 362.85 165.23 C 355.24 165.23 349.06 159.05 349.06 151.44 C 349.06 143.82 355.24 137.65 362.85 137.65 Z M 218.99 140.5 C 197.82 140.5 180.25 158.07 180.25 179.25 L 180.25 531.62 C 180.25 552.8 197.82 570.38 218.99 570.38 L 503.9 570.38 C 525.07 570.38 542.65 552.8 542.65 531.62 L 542.65 179.25 C 542.65 158.07 525.07 140.5 503.9 140.5 L 439.11 140.5 L 439.02 153.19 C 439.02 165.17 446.96 174.52 459.44 174.52 L 503.9 174.52 C 506.81 174.52 508.64 176.33 508.64 179.25 L 508.64 531.62 C 508.64 534.54 506.81 536.36 503.9 536.36 L 218.99 536.36 C 216.07 536.36 214.26 534.54 214.26 531.62 L 214.26 179.25 C 214.26 176.33 216.07 174.52 218.99 174.52 L 265.87 174.52 C 275.43 174.52 284.65 166.46 284.65 156.21 L 284.79 140.5 Z M 226.41 253.39 L 226.41 454.79 L 299.63 454.79 L 306.3 454.79 L 446.97 454.79 L 446.97 446.89 L 306.3 446.89 L 306.3 392.09 L 446.97 392.09 L 446.97 384.19 L 306.3 384.19 L 306.3 329.39 L 446.97 329.39 L 446.97 321.5 L 306.3 321.5 L 306.3 253.39 Z M 44.28 20 L 677.57 20 C 691.2 20 701.86 30.66 701.86 44.28 L 701.86 680.96 C 701.86 694.59 691.2 705.25 677.57 705.25 L 44.28 705.25 C 30.66 705.25 20 694.59 20 680.96 L 20 44.28 C 20 30.66 30.66 20 44.28 20 Z M 44.28 0 C 19.92 0 0 19.92 0 44.28 L 0 680.96 C 0 705.33 19.92 725.26 44.28 725.26 L 677.57 725.26 C 701.93 725.26 721.85 705.33 721.85 680.96 L 721.85 44.28 C 721.85 19.92 701.93 0 677.57 0 Z" fill="var(--icon-primary, #dae8fc)" stroke="none" stroke-width="0"/></svg>