<svg xmlns="http://www.w3.org/2000/svg" viewBox="0 0 938.03 725.26" width="938.03" height="725.26"><path d="M 504 148.22 C 493.92 148.37 483.74 149.42 473.63 151.46 C 427.08 163.62 397.09 189.04 389.62 231.29 C 356.15 213.61 323.35 217.77 303.14 233 C 278.45 252.97 270.86 277.84 274.26 301.04 C 214.91 300.47 174.23 339.92 174.23 400.42 C 174.23 439.65 197.26 503.93 271.47 503.93 L 461.49 503.88 L 461.49 530.43 A 24.05 24.05 0 0 0 447.52 544.41 L 335.12 544.41 A 24.05 24.05 0 0 0 312.62 528.86 A 24.05 24.05 0 0 0 288.57 552.92 A 24.05 24.05 0 0 0 312.62 576.97 A 24.05 24.05 0 0 0 335.1 561.42 L 447.51 561.42 A 24.05 24.05 0 0 0 470 576.97 A 24.05 24.05 0 0 0 492.47 561.42 L 604.88 561.42 A 24.05 24.05 0 0 0 627.37 576.97 A 24.05 24.05 0 0 0 651.42 552.92 A 24.05 24.05 0 0 0 627.37 528.86 A 24.05 24.05 0 0 0 604.89 544.41 L 492.49 544.41 A 24.05 24.05 0 0 0 478.5 530.45 L 478.5 503.88 L 641.07 503.84 C 708.45 503.84 738.06 477.61 741.61 433.71 C 747.04 395.64 727.29 354.99 685.36 346.47 C 685.22 331.25 681.73 324.58 672.81 313.02 C 663.48 303.2 652.17 299.87 640.31 300.48 C 645.55 267.25 646.57 228.79 613.7 191.38 C 589.28 164.08 547.66 147.6 504 148.23 Z M 471.24 255.03 L 559.82 274.88 L 559.82 345.84 C 559.82 395.46 524.18 449.53 473.74 467.19 L 471.24 468.07 L 468.74 467.19 C 426 452.18 382.67 409.57 382.67 345.84 L 382.67 280.93 L 382.67 274.88 Z M 471.24 270.53 L 454.06 274.38 L 454.13 282.84 L 425.08 289.35 L 425.22 280.84 L 397.79 286.99 L 397.79 345.84 C 397.79 401.41 434.63 437.92 471.16 451.82 C 513.13 435.68 544.7 387.14 544.7 345.84 L 544.7 286.99 L 517.26 280.84 L 517.41 289.35 L 488.36 282.84 L 488.43 274.38 Z M 470.93 300.22 L 516.86 313.51 L 434.39 398.16 C 424.47 383.07 417.62 363.17 417.62 337.66 L 417.04 313.72 Z M 525.44 323.66 L 525.38 337.66 C 525.38 379.61 499.5 416.58 471.5 430.6 C 461.77 426.02 451.48 418.86 442.53 408.78 Z M 44.28 0 C 19.92 0 0 19.92 0 44.28 L 0 680.96 C 0 705.33 19.92 725.26 44.28 725.26 L 893.74 725.26 C 918.1 725.26 938.03 705.33 938.03 680.96 L 938.03 44.28 C 938.03 19.92 918.1 0 893.74 0 Z M 44.28 20 L 893.74 20 C 907.37 20 918.03 30.66 918.03 44.28 L 918.03 680.96 C 918.03 694.59 907.37 705.25 893.74 705.25 L 44.28 705.25 C 30.66 705.25 20 694.59 20 680.96 L 20 44.28 C 20 30.66 30.66 20 44.28 20 Z" fill="var(--icon-primary, #dae8fc)" stroke="none" stroke-width="0"/></svg>