<svg xmlns="http://www.w3.org/2000/svg" viewBox="0 0 190.99 191.89" width="190.99" height="191.89"><path d="M 46.8 101.15 C 39.42 99.06 26.68 95.03 26.68 88.77 C 26.68 84.15 32.39 80.9 38.78 78.53 C 39.83 87.15 43.44 95.03 46.8 101.15 Z M 140.19 101.17 C 144.4 95.03 147.82 88.4 148.92 78.53 C 155.24 80.93 161.06 84.12 161.06 88.79 C 161.06 94.77 148.47 99.3 140.19 101.17 Z M 78.53 166.91 C 78.53 155.64 77.26 140.61 67.54 130.34 C 57.53 119.8 43.67 113.43 31.88 103.07 C 50.39 110.53 67.95 113.79 93.87 113.79 C 121.51 113.79 138 109.7 155.87 102.54 C 142.67 114.22 130.25 119.67 119.32 131.84 C 112.05 141.17 109.76 152.54 109.68 166.63 C 109.68 172.3 101.3 173.84 94.11 173.84 C 87.35 173.84 78.53 171.57 78.53 166.91 Z M 94.24 18.8 C 65.49 18.8 42.14 42.16 42.14 70.9 C 42.14 82.92 46.22 93.99 53.07 102.81 C 55.85 103.54 58.33 103.85 60.67 103.97 C 52.3 95.47 47.14 83.8 47.14 70.9 C 47.14 56 54.03 42.74 64.81 34.11 C 64.78 34.31 64.78 34.49 64.92 34.58 C 65.45 34.94 64.86 34.85 64.9 35.64 C 64.93 36.61 64.45 36.89 64.63 37.29 C 64.98 38.11 65.7 36.77 66.07 37.36 C 66.22 37.6 66.37 37.9 65.89 38.14 C 65.1 38.53 65.29 39 65.26 39.7 C 65.22 40.64 65.85 40.51 65.79 40.94 C 65.74 41.39 64.67 41.34 64.85 42.36 C 64.99 43.17 65.96 42.69 65.95 44.37 C 65.95 45.08 65.51 44.67 65.16 45.22 C 64.39 46.44 63.75 47.77 63.32 48.18 C 62.66 48.82 61.85 49.26 61.8 50.19 C 61.77 50.73 61.37 50.46 60.92 51.18 C 60.27 52.2 60.27 52.21 60.29 54.27 C 60.29 55.03 59.97 57.93 61.36 57.8 C 62.37 57.71 61.99 58.21 62.62 58.56 C 63.55 59.07 63.19 60.42 63.19 61.24 C 63.18 62.27 63.13 62 63.35 62.59 C 63.75 63.72 64.31 63.63 63.44 64.34 C 62.46 65.14 64.22 65.55 64.91 65.87 C 65.26 66.04 65.37 66.21 65.31 66.88 C 65.24 67.62 65.57 67.87 65.94 68.25 C 66.34 68.64 67.13 68.87 67.36 68.75 C 67.58 68.64 66.89 67.94 66.71 67.79 C 66.13 67.3 66.2 67.08 66.2 66.71 C 66.2 66.27 65.87 66.33 65.78 65.62 C 65.68 64.81 65.21 64.58 65.26 63.95 C 65.37 62.67 65.22 62.91 64.94 62.39 C 64.45 61.51 65.28 60.9 65.7 60.81 C 66.6 60.63 66.49 61.69 66.48 62.24 C 66.45 63.84 66.75 63.42 67.51 63.99 C 68.28 64.56 67.56 65.17 68.01 65.68 C 68.72 66.5 68.26 66.69 68.33 66.91 C 68.61 67.68 69.09 67.27 69.32 68.4 C 69.52 69.43 70.69 68.85 71.04 71.14 C 71.26 72.57 69.38 72.53 70.97 73.45 C 71.87 73.97 71.56 74.45 72.43 74.36 C 74.11 74.2 73.93 74.67 74.7 75.29 C 75.37 75.82 76.16 75.85 76.83 76.05 C 77.99 76.38 77.74 77.2 79.27 76.42 C 80.74 75.67 80.68 76.25 82.07 77.35 C 84.62 79.37 84.92 77.7 86.66 78.7 C 88.18 79.57 87.67 80.09 88.89 80.81 C 89.33 81.08 88.64 81.71 88.76 81.87 C 89.14 82.37 89.57 81.06 90.28 83.04 C 90.95 84.96 91.95 83.88 92.72 84.37 C 94.23 85.33 93.76 84.56 94.3 84.25 C 94.87 83.92 95.74 83.24 95.91 84.15 C 96.09 85.1 96.4 84.93 96.6 85.13 C 96.82 85.34 97.31 88.87 96.46 89.26 C 94.3 90.24 95.67 90.26 95.18 90.75 C 94.26 91.66 94.29 90.72 93.85 92.84 C 93.56 94.22 92.84 94.14 93.65 94.7 C 94.31 95.15 93.49 96.06 93.3 96.16 C 92.58 96.54 93.23 96.98 93.38 97.63 C 93.54 98.28 93.12 98.63 93.8 98.84 C 94.93 99.19 96.88 102.87 97.06 103.28 C 97.5 104.35 98.06 104.24 98.5 105.6 C 112.1 105.4 123.74 104.16 135.81 102.28 C 142.42 93.55 146.34 82.68 146.34 70.9 C 146.34 42.16 122.98 18.8 94.24 18.8 Z M 92.76 23.83 C 92.79 24.15 92.7 24.36 92.63 24.55 C 91.75 24.29 91.3 24.1 90.74 23.93 C 91.41 23.88 92.09 23.85 92.76 23.83 Z M 101.99 24.89 C 102.53 24.89 102.99 24.94 103.1 24.98 C 103.4 25.08 104.89 25.35 104.63 25.97 C 104.36 26.6 101.73 26.31 101.02 26.24 C 100.3 26.18 100.09 26.08 100.04 25.41 C 100 24.99 101.09 24.89 101.99 24.89 Z M 111.13 28.06 C 111.28 28.06 111.43 28.07 111.58 28.1 C 111.56 28.47 112.02 28.84 110.67 29.66 C 110.41 29.82 109.66 30.54 110.95 30.25 C 111.26 30.18 112.78 29.87 113.71 30.31 C 114 30.44 114.22 30.67 114.66 30.31 C 114.83 30.18 114.89 29.78 114.61 29.41 C 114.38 29.13 114.2 28.88 113.68 28.83 C 113.34 28.8 113.26 28.31 113.26 28.3 C 114.64 28.8 117.54 30.02 118.63 31.04 C 119.15 31.53 118.14 31.17 117.38 31.22 C 115.32 31.35 115.59 30.51 115.01 30.94 C 114.54 31.3 115.22 31.19 114.82 31.75 C 114.63 32.02 114.2 31.58 114.01 31.88 C 113.47 32.73 114.29 34.16 113.49 35.57 C 112.86 36.68 112.2 37.31 110.67 37.75 C 109.24 38.16 108.77 37.53 108.79 39.14 C 108.81 40.08 107.63 41.13 106.92 40.88 L 106.92 40.88 C 105.63 40.41 105.42 39.92 105.9 39.28 C 106.43 38.58 104.85 38.19 105.93 37.92 C 106.89 37.68 107.5 37.04 106.16 37.2 C 105.36 37.3 105.07 37.59 103.69 36.91 C 103.1 36.62 102.84 36.7 102.49 36.35 C 102.13 35.99 102.1 35.66 100.76 35.74 C 99.58 35.81 100.34 35.14 99.96 34.67 C 99.59 34.19 99.37 34.2 99.68 33.43 C 99.97 32.71 100.56 32.06 101.63 31.49 C 102.23 31.17 103.04 31.07 103.54 30.66 C 103.95 30.32 104.44 30.09 105.06 30.1 C 105.57 30.1 106.08 30.12 106.83 29.78 C 107.32 29.57 107.44 29.68 107.89 29.08 C 108.21 28.65 108.5 28.79 109.14 28.78 C 109.58 28.78 109.72 28.46 109.79 28.11 C 110.24 28.15 110.67 28.05 111.13 28.06 Z M 120.78 31.97 C 121.45 32.43 122.1 32.9 122.75 33.39 C 122.28 33.55 121.27 33.46 120.75 33.04 C 120.32 32.69 120.41 32.26 120.78 31.97 Z M 125.05 35.73 C 125.31 35.7 126.02 36.36 126.81 36.86 C 126.81 36.86 126.81 36.86 126.82 36.86 C 127.01 37.05 127.2 37.23 127.39 37.42 C 127.33 37.41 127.27 37.41 127.16 37.4 C 124.53 37.21 125.01 36.4 124.95 36.02 C 124.93 35.83 124.96 35.74 125.05 35.73 Z M 127.5 37.53 C 136.05 46.06 141.34 57.85 141.34 70.9 C 141.34 80.13 138.69 88.74 134.11 96 C 133.38 96.01 132.45 95.92 131.4 95.55 C 130.84 95.35 129.61 95.7 129.61 95.29 C 129.61 94.92 129.34 95.12 129.03 94.85 C 128.69 94.57 128.38 94.06 128.19 94.75 C 128.11 95.06 127.74 94.62 127.16 94.4 C 126.56 94.18 125.94 94.54 125.48 94.06 C 125 93.54 125.27 93.39 124.8 93.36 C 123.83 93.3 124 92.99 124.07 92.2 C 124.16 91.25 123.61 91.39 123.56 90.81 C 123.5 90.08 123.2 90.42 123.01 90.13 C 122.77 89.73 124.28 90.02 123.19 89.35 C 121.91 88.54 121.79 88.49 120.86 88.02 C 118.96 87.06 118.39 88.7 117.27 86.95 C 116.75 86.13 116.43 86.56 116.08 86.24 C 115.57 85.77 115.38 85.57 115.01 84.96 C 114.77 84.56 114.51 84.74 114.12 84.67 C 113.49 84.55 113.83 84.23 113.72 83.84 C 113.55 83.26 113.74 82.93 113.48 82.79 C 113.25 82.68 113.41 83.13 112.84 83.06 C 112.3 82.99 112.71 82.07 111.64 82.09 C 110.11 82.12 110.5 83.2 109.65 83.11 C 109.16 83.06 109.35 82.39 108.28 82.38 C 107.05 82.38 107.11 81.94 105.82 81.34 C 105.36 81.12 105.25 80.97 104.74 81.39 C 103.84 82.11 103.78 81.98 103.47 81.83 C 103.17 81.68 102.9 81.38 103.34 81.13 C 103.77 80.9 103.73 80.71 103.51 80.56 C 103.13 80.3 103.05 80.33 102.83 80.68 C 102.37 81.43 102.42 80.81 102.08 81.33 C 101.75 81.84 100.98 81.69 99.86 81.67 C 99.18 81.66 99.24 82.22 99.08 82.59 C 98.83 83.13 99.31 83.44 98.7 83.88 C 98.17 84.26 98.32 84.48 97.72 84.73 C 97.04 85.01 96.69 83.49 96.02 83.66 C 95.61 83.76 95.36 82.99 94.97 83.08 C 94.55 83.17 94.73 83.95 94.1 83.99 C 92.81 84.06 92.72 84.37 92.01 83.48 C 90.94 82.15 90.83 82.14 90.83 80.68 C 90.83 78.37 91.95 79.45 91.72 78.49 C 91.57 77.84 91.37 77.35 89.96 77.02 C 88.52 76.68 87.4 77.25 86.31 77.27 C 84.98 77.29 86.27 76.49 86.29 75.94 C 86.31 75.13 86.28 75.02 86.63 74.89 C 88.09 74.34 87.66 73.87 87.69 73 C 87.71 72.27 88.19 71.17 86.39 71.15 C 85.25 71.14 84.57 72.12 84.2 72.74 C 83.33 74.21 82.9 74.02 81.63 73.99 C 79.43 73.95 80.17 73.7 79.46 73.54 C 78.44 73.3 78.69 72.01 78.22 71.43 C 77.66 70.74 77.97 70.14 78 69.6 C 78.09 67.6 78.35 67.97 78.36 67.39 C 78.36 67.15 78.31 66.55 78.93 67.06 C 79.72 67.71 79.58 67.26 79.53 66.62 C 79.4 65.11 79.95 64.48 81.03 64.18 C 82.09 63.89 82.25 63.34 83.29 62.76 C 84.52 62.08 85.39 62.06 86.33 62.69 C 86.95 63.09 87.58 62.89 88.46 62.08 C 89.6 61.03 89.89 61.7 90.87 61.73 C 91.84 61.77 92.29 62.21 93.34 62.37 C 94.58 62.57 94.43 63.49 94.25 64.71 C 94.11 65.61 95.49 65.69 96.39 65.88 C 97.14 66.04 97.02 65.83 96.99 65.61 C 96.77 63.87 96.79 62.87 96.83 62.09 C 96.89 61.12 97.97 59.86 99.13 59.61 C 99.65 59.51 99.18 58.73 101.24 58.09 C 102.76 57.63 102.72 57.39 103.53 56.7 C 103.73 56.53 104.13 55.43 103.75 55.01 C 103.18 54.38 103.89 54.42 104.21 54.46 C 104.78 54.53 104.91 54.54 105 54.08 C 105.13 53.45 105.18 53.42 105.63 53.14 C 106.12 52.82 106.61 52.61 106.86 52.2 C 107.19 51.65 107.37 51.54 107.9 51.49 C 108.28 51.45 108.35 51.57 108.7 51.23 C 108.89 51.03 109.67 50.93 110.41 50.99 C 110.94 51.03 111.11 51.02 111.1 50.56 C 111.08 49.04 111.7 49.26 112.63 48.71 C 114.62 47.53 115.49 47.54 116.1 47.5 C 117.78 47.39 115.66 48.15 115.43 48.73 C 115.24 49.23 115.86 49.23 116.28 49.01 C 117 48.63 117.36 48.69 117.85 47.96 C 118.31 47.27 118.83 47.79 120.17 47.45 C 121.51 47.1 121.38 47.02 121.77 46.78 C 122.33 46.42 121.62 45.82 121.35 45.65 C 120.99 45.44 120.59 45.78 120.5 46.06 C 120.15 47.15 119.69 47.1 119.49 47.11 C 118.51 47.15 118.04 46.36 117.82 46.01 C 117.45 45.44 118.46 45.11 118.76 44.66 C 119.41 43.72 118.76 43.76 118.27 43.91 C 117.34 44.18 117 43.81 117.33 43.16 C 118 41.89 118.93 42.51 119.47 42.45 C 120.44 42.33 119.6 42.79 120.19 43.36 C 120.6 43.76 121.09 43.53 121.29 43.09 C 121.54 42.49 120.21 43.08 120.45 42.54 C 120.72 41.91 121.62 42.31 122.66 42.35 C 123.44 42.39 123.41 42.46 123.72 42.18 C 124.36 41.63 124.53 42.01 124.81 41.83 C 125.65 41.28 125.93 41.17 126.38 41.8 C 126.87 42.5 126.22 42.32 125.59 42.71 C 124.67 43.28 123.88 44.18 123.59 44.67 C 123.04 45.62 124.37 44.88 125.62 44.86 C 126.66 44.84 126.88 44.71 127.5 45.15 C 128.14 45.6 128.08 45.26 128.47 45.1 C 129.27 44.75 127.56 44.01 128.09 43.43 C 128.42 43.07 128.66 42.94 128.06 42.88 C 126.91 42.78 127.01 42.33 127 41.95 C 126.97 41.06 127.48 41.69 127.54 41.17 C 127.64 40.45 128.15 40.66 128.18 40.07 C 128.22 39.23 128.11 39.54 128.05 38.86 C 127.99 38.1 127.62 38.54 127.5 38.13 C 127.41 37.79 127.47 37.62 127.5 37.53 Z M 11.72 5.29 L 179.27 5.29 C 182.88 5.29 185.7 8.11 185.7 11.72 L 185.7 180.17 C 185.7 183.78 182.88 186.6 179.27 186.6 L 11.72 186.6 C 8.11 186.6 5.29 183.78 5.29 180.17 L 5.29 11.72 C 5.29 8.11 8.11 5.29 11.72 5.29 Z M 11.72 0 C 5.27 0 0 5.27 0 11.72 L 0 180.17 C 0 186.62 5.27 191.89 11.72 191.89 L 179.27 191.89 C 185.72 191.89 190.99 186.62 190.99 180.17 L 190.99 11.72 C 190.99 5.27 185.72 0 179.27 0 Z" fill="var(--icon-primary, #dae8fc)" stroke="none" stroke-width="0"/></svg>