<svg xmlns="http://www.w3.org/2000/svg" viewBox="0 0 248.19 191.89" width="248.19" height="191.89"><path d="M 48.5 85.68 C 52.48 85.68 56.46 85.68 60.44 85.68 C 59.85 87.54 61.74 91.87 59.26 91.83 C 55.68 91.83 52.09 91.83 48.5 91.83 C 48.5 89.78 48.5 87.73 48.5 85.68 Z M 65.14 85.68 C 74.74 85.68 84.33 85.68 93.93 85.68 C 93.34 87.54 95.23 91.87 92.75 91.83 C 83.55 91.83 74.34 91.83 65.14 91.83 C 65.14 89.78 65.14 87.73 65.14 85.68 Z M 97.96 85.68 C 107.55 85.68 117.15 85.68 126.75 85.68 C 126.16 87.54 128.04 91.87 125.57 91.83 C 116.37 91.83 107.16 91.83 97.96 91.83 C 97.96 89.78 97.96 87.73 97.96 85.68 Z M 130.78 85.68 C 134.78 85.68 138.78 85.68 142.78 85.68 C 142.2 87.54 144.08 91.87 141.61 91.83 C 138 91.83 134.39 91.83 130.78 91.83 C 130.78 89.78 130.78 87.73 130.78 85.68 Z M 114.1 74.98 C 123.66 74.98 133.22 74.98 142.78 74.98 C 142.2 76.83 144.08 81.16 141.61 81.12 C 132.44 81.12 123.27 81.12 114.1 81.12 C 114.1 79.07 114.1 77.03 114.1 74.98 Z M 81.28 74.98 C 90.87 74.98 100.47 74.98 110.07 74.98 C 109.48 76.83 111.36 81.16 108.89 81.12 C 99.68 81.12 90.48 81.12 81.28 81.12 C 81.28 79.07 81.28 77.03 81.28 74.98 Z M 48.5 74.98 C 58.08 74.98 67.66 74.98 77.25 74.98 C 76.66 76.83 78.54 81.16 76.07 81.12 C 66.88 81.12 57.69 81.12 48.5 81.12 C 48.5 79.07 48.5 77.03 48.5 74.98 Z M 48.5 107.1 C 52.48 107.1 56.46 107.1 60.44 107.1 C 59.85 108.95 61.74 113.28 59.26 113.25 C 55.68 113.25 52.09 113.25 48.5 113.25 C 48.5 111.2 48.5 109.15 48.5 107.1 Z M 65.14 107.1 C 74.74 107.1 84.33 107.1 93.93 107.1 C 93.34 108.95 95.23 113.28 92.75 113.25 C 83.55 113.25 74.34 113.25 65.14 113.25 C 65.14 111.2 65.14 109.15 65.14 107.1 Z M 97.96 107.1 C 107.55 107.1 117.15 107.1 126.75 107.1 C 126.16 108.95 128.04 113.28 125.57 113.25 C 116.37 113.25 107.16 113.25 97.96 113.25 C 97.96 111.2 97.96 109.15 97.96 107.1 Z M 130.78 107.1 C 134.78 107.1 138.78 107.1 142.78 107.1 C 142.2 108.95 144.08 113.28 141.61 113.25 C 138 113.25 134.39 113.25 130.78 113.25 C 130.78 111.2 130.78 109.15 130.78 107.1 Z M 114.1 96.39 C 123.66 96.39 133.22 96.39 142.78 96.39 C 142.2 98.25 144.08 102.57 141.61 102.54 C 132.44 102.54 123.27 102.54 114.1 102.54 C 114.1 100.49 114.1 98.44 114.1 96.39 Z M 81.28 96.39 C 90.87 96.39 100.47 96.39 110.07 96.39 C 109.48 98.25 111.36 102.57 108.89 102.54 C 99.68 102.54 90.48 102.54 81.28 102.54 C 81.28 100.49 81.28 98.44 81.28 96.39 Z M 48.5 96.39 C 58.08 96.39 67.66 96.39 77.25 96.39 C 76.66 98.25 78.54 102.57 76.07 102.54 C 66.88 102.54 57.69 102.54 48.5 102.54 C 48.5 100.49 48.5 98.44 48.5 96.39 Z M 48.5 128.52 C 52.48 128.52 56.46 128.52 60.44 128.52 C 59.85 130.37 61.74 134.7 59.26 134.66 C 55.68 134.66 52.09 134.66 48.5 134.66 C 48.5 132.61 48.5 130.56 48.5 128.52 Z M 65.14 128.52 C 74.74 128.52 84.33 128.52 93.93 128.52 C 93.34 130.37 95.23 134.7 92.75 134.66 C 83.55 134.66 74.34 134.66 65.14 134.66 C 65.14 132.61 65.14 130.56 65.14 128.52 Z M 97.96 128.52 C 107.55 128.52 117.15 128.52 126.75 128.52 C 126.16 130.37 128.04 134.7 125.57 134.66 C 116.37 134.66 107.16 134.66 97.96 134.66 C 97.96 132.61 97.96 130.56 97.96 128.52 Z M 130.78 128.52 C 134.78 128.52 138.78 128.52 142.78 128.52 C 142.2 130.37 144.08 134.7 141.61 134.66 C 138 134.66 134.39 134.66 130.78 134.66 C 130.78 132.61 130.78 130.56 130.78 128.52 Z M 114.1 117.81 C 123.66 117.81 133.22 117.81 142.78 117.81 C 142.2 119.66 144.08 123.99 141.61 123.96 C 132.44 123.96 123.27 123.96 114.1 123.96 C 114.1 121.91 114.1 119.86 114.1 117.81 Z M 81.28 117.81 C 90.87 117.81 100.47 117.81 110.07 117.81 C 109.48 119.66 111.36 123.99 108.89 123.96 C 99.68 123.96 90.48 123.96 81.28 123.96 C 81.28 121.91 81.28 119.86 81.28 117.81 Z M 48.5 117.81 C 58.08 117.81 67.66 117.81 77.25 117.81 C 76.66 119.66 78.54 123.99 76.07 123.96 C 66.88 123.96 57.69 123.96 48.5 123.96 C 48.5 121.91 48.5 119.86 48.5 117.81 Z M 139.13 30.81 C 114.12 30.45 90.11 47.04 81.38 70.44 C 83.74 69.86 87.78 71.89 88.56 68.87 C 92.21 61.11 97.68 54.22 104.39 48.9 C 104.98 50.89 103.32 53.25 106.06 53.17 C 103.93 56.01 105.7 59.08 105.13 61.68 C 104.58 64.38 96.23 70.66 101.48 70.44 C 116.92 70.44 132.36 70.44 147.8 70.44 C 148.23 72.7 146.38 79.59 150.16 75.57 C 150.16 72.02 154.7 68.95 158.94 68.79 C 160.2 64.31 166.52 64.21 165.24 66.47 C 166.59 65.07 174.92 63.12 170.22 63 C 168.64 66.27 165.53 61.82 168.38 60.41 C 163.54 60.67 169.71 56.93 170.6 60.01 C 169.25 57.84 175.04 58.33 177.17 57.96 C 175.52 59.8 171.41 63.15 177.57 61.54 C 182.76 62.73 176.36 58.45 178.71 56.74 C 180.51 54.92 176.59 51.12 180.35 54.92 C 197.25 72.73 199.81 101.94 186.44 122.49 C 182.81 121.42 179.67 120.59 176.11 119.72 C 172.76 117.6 175.14 113.44 170.65 112.59 C 166.36 113.03 162.93 108.06 161.17 106.73 C 158.77 105.13 155.32 107.59 152.25 104.44 C 148.91 106.99 150.59 101.37 147.8 105.47 C 147.8 116.66 147.8 127.85 147.8 139.04 C 150.44 139.47 156.24 148.52 148.29 147.84 C 134.35 150.17 119.56 147.02 107.87 139.04 C 104.64 139.04 101.4 139.04 98.16 139.04 C 118.03 157.23 150.04 159.73 172.48 144.82 C 194.22 131.34 205.52 103.55 199.44 78.73 C 193.44 51.24 167.3 30.38 139.13 30.81 Z M 137.44 36.83 C 136.79 38.53 133.96 36.05 137.44 36.83 Z M 148.34 37.97 C 158.67 40.37 140.33 39.64 148.34 37.97 Z M 159.14 41.71 C 161.25 42.53 155.45 45.5 160.29 44.12 C 165.07 46.05 162.81 42.55 162.35 42.26 C 165.22 42.96 171.48 46.99 164.48 45.15 C 160.99 45.61 163.52 53.77 157.54 53.36 C 156.99 55.13 152.47 59.28 153.05 54.43 C 152.58 52.65 155.71 52.35 151.36 52.59 C 143.98 52.01 144.7 44.99 151.97 44.12 C 154.77 44.18 156.62 41.67 159.14 41.71 Z M 170.49 46.4 C 176.28 48.89 169.31 48.82 170.49 46.4 Z M 175.6 50.78 C 181.85 53.38 175.22 53.87 175.6 50.78 Z M 11.72 0 C 5.27 0 0 5.27 0 11.72 L 0 180.17 C 0 186.62 5.27 191.89 11.72 191.89 L 236.47 191.89 C 242.91 191.89 248.19 186.62 248.19 180.17 L 248.19 11.72 C 248.19 5.27 242.91 0 236.47 0 Z M 11.72 5.29 L 236.47 5.29 C 240.07 5.29 242.89 8.11 242.89 11.72 L 242.89 180.17 C 242.89 183.78 240.07 186.6 236.47 186.6 L 11.72 186.6 C 8.11 186.6 5.29 183.78 5.29 180.17 L 5.29 11.72 C 5.29 8.11 8.11 5.29 11.72 5.29 Z" fill="var(--icon-primary, #dae8fc)" stroke="none" stroke-width="0"/></svg>