<svg xmlns="http://www.w3.org/2000/svg" viewBox="0 0 938.03 725.26" width="938.03" height="725.26"><path d="M 401.56 117.22 C 390.98 117.29 380.18 118.14 369.21 119.84 A 13.23 13.23 0 0 0 368.97 119.87 C 251.66 140.33 197.4 229.91 180.83 309.68 C 137.16 324.69 96.13 361.42 96.13 415.17 C 96.13 463.64 122.32 494.26 154.87 509.37 C 162.96 513.13 171.39 516.09 179.98 518.45 L 147.5 551.58 L 177.19 580.69 L 230.33 526.47 C 237.55 526.99 244.61 527.31 251.35 527.53 C 293.81 571.94 352.16 587.95 400.14 591.16 A 13.23 13.23 0 0 0 400.7 591.19 C 467.24 592.84 519.08 562.68 563.05 521.98 C 625.29 531.72 699.75 540.18 773.73 514.23 A 13.23 13.23 0 0 0 774.66 513.87 C 837.08 486.55 856.51 422.77 835.48 376.27 A 13.23 13.23 0 0 0 835.28 375.85 C 816.07 337.12 779.94 317.28 751.41 306.98 C 740.27 285 728.49 261.02 699.98 239.71 A 13.23 13.23 0 0 0 699.63 239.46 C 670.08 218.83 630.03 212.33 591.11 221.95 C 553.81 164.34 486.52 118.35 406.09 117.23 C 404.58 117.21 403.07 117.21 401.56 117.22 Z M 401.84 143.69 C 403.17 143.68 404.5 143.68 405.82 143.7 C 480.15 144.83 542.12 189.44 573.73 243.28 A 13.23 13.23 0 0 0 589.22 249.16 C 623.36 238.07 659.79 244.01 684.35 261.08 C 709.61 280.04 718.13 299.62 730.33 323.48 A 13.23 13.23 0 0 0 737.92 330.02 C 763.23 338.45 795.74 355.9 811.46 387.44 C 826.11 420.19 814.66 467.23 764.4 489.43 C 695.47 513.43 623.6 504.96 561.16 495.02 A 13.23 13.23 0 0 0 549.93 498.52 C 507.68 538.94 462.13 566.15 401.63 564.73 C 356.64 561.67 303.15 546.36 266.83 505.71 A 13.23 13.23 0 0 0 257.29 501.3 C 256.56 501.29 255.8 501.26 255.06 501.24 L 259.39 496.82 C 282.47 513.73 310.91 523.73 341.63 523.73 C 410.88 523.73 468.53 472.97 479.36 406.73 L 495.23 456.89 L 518.33 456.89 L 533.57 399.09 L 549.05 456.89 L 571.91 456.89 L 600.77 367.01 L 577.32 367.01 L 560.14 425.91 L 545.16 367.01 L 522.22 367.01 L 506.74 425.91 L 489.89 367.01 L 480.13 367.01 C 471.64 298.15 412.74 244.62 341.63 244.62 C 264.72 244.62 202.08 307.26 202.08 384.18 C 202.08 415.41 212.41 444.3 229.83 467.59 L 201.82 496.17 C 189.01 493.78 176.73 490.35 166.02 485.38 C 139.91 473.25 122.59 454.95 122.59 415.17 C 122.59 372.64 157.51 343.27 195.63 332.46 A 13.23 13.23 0 0 0 205.04 322.06 C 218.32 247.88 264.14 165.07 373.41 145.97 C 383.05 144.48 392.54 143.74 401.84 143.69 Z M 341.63 271.08 C 404.26 271.08 454.73 321.56 454.73 384.18 C 454.73 446.8 404.26 497.27 341.63 497.27 C 279.01 497.27 228.54 446.8 228.54 384.18 C 228.54 321.56 279.01 271.08 341.63 271.08 Z M 259.74 332.9 L 289.37 456.98 L 316.54 456.98 L 341.16 364.22 L 365.88 456.98 L 392.45 456.98 L 422.58 332.9 L 397.36 332.9 L 378.32 419.57 L 356.57 332.9 L 326.78 332.9 L 304.09 418.13 L 285.39 332.9 Z M 621.03 366.34 L 649.46 456.22 L 672.57 456.22 L 687.8 398.41 L 703.29 456.22 L 726.14 456.22 L 755.01 366.34 L 731.56 366.34 L 714.38 425.24 L 699.4 366.34 L 676.46 366.34 L 660.97 425.24 L 644.13 366.34 Z M 44.28 0 C 19.92 0 0 19.92 0 44.28 L 0 680.96 C 0 705.33 19.92 725.26 44.28 725.26 L 893.74 725.26 C 918.1 725.26 938.03 705.33 938.03 680.96 L 938.03 44.28 C 938.03 19.92 918.1 0 893.74 0 Z M 44.28 20 L 893.74 20 C 907.37 20 918.03 30.66 918.03 44.28 L 918.03 680.96 C 918.03 694.59 907.37 705.25 893.74 705.25 L 44.28 705.25 C 30.66 705.25 20 694.59 20 680.96 L 20 44.28 C 20 30.66 30.66 20 44.28 20 Z" fill="var(--icon-primary, #dae8fc)" stroke="none" stroke-width="0"/></svg>