<svg xmlns="http://www.w3.org/2000/svg" viewBox="0 0 191.44 191.44" width="191.44" height="191.44"><ellipse cx="95.72" cy="95.72" rx="95.72" ry="95.72" fill="var(--icon-secondary, #6c8ebf)" stroke="none" stroke-width="0"/><ellipse cx="95.72" cy="95.72" rx="76.48" ry="76.48" fill="var(--icon-secondary, #6c8ebf)" stroke="none" stroke-width="0"/><path d="M 191.44 95.72 C 191.44 148.59 148.59 191.44 95.72 191.44 C 88.25 191.44 82.92 148.47 82.92 95.61 C 82.92 77.76 84.83 46.62 86.11 31.96 C 87.03 21.36 89.75 7.07 92.69 2.46 C 93.46 1.27 94.41 0 95.72 0 C 148.59 0 191.44 42.86 191.44 95.72 Z" fill="var(--icon-secondary, #6c8ebf)" stroke="none" stroke-width="0"/><path d="M 172.2 95.72 C 172.2 137.96 137.96 172.2 95.72 172.2 C 92.75 172.2 90.08 172.1 87.78 171.77 C 85.93 161.74 82.92 134.98 82.92 95.72 C 82.92 71.35 85.87 29.96 87.71 19.64 C 90.21 19.4 92.65 19.24 95.72 19.24 C 137.96 19.24 172.2 53.48 172.2 95.72 Z" fill="var(--icon-secondary, #6c8ebf)" stroke="none" stroke-width="0"/></svg>