<svg xmlns="http://www.w3.org/2000/svg" viewBox="0 0 744.45 889.9" width="744.45" height="889.9"><path d="M 107.35 0 L 107.35 51.13 L 114.46 51.13 L 114.46 120.94 C 100.75 125.35 94.13 130.66 94.13 149.07 L 94.13 270.3 C 35.58 336.07 0 422.73 0 517.67 C 0 723.19 166.7 889.9 372.22 889.9 C 577.74 889.9 744.45 723.19 744.45 517.67 C 744.45 422.4 708.62 335.47 649.71 269.62 L 649.71 149.07 C 649.71 130.66 643.09 125.35 629.38 120.94 L 629.38 51.13 L 636.49 51.13 L 636.49 0 L 604.75 0 L 604.75 51.13 L 611.93 51.13 L 611.93 120.94 C 597.75 124.69 590.87 134.57 590.87 149.07 L 590.87 216.43 C 529.47 171.79 453.91 145.45 372.22 145.45 C 290.26 145.45 214.48 171.96 152.97 216.87 L 152.97 149.07 C 152.97 134.57 146.09 124.69 131.91 120.94 L 131.91 51.13 L 139.09 51.13 L 139.09 0 Z M 372.22 154.9 C 572.63 154.9 735 317.26 735 517.67 C 735 718.08 572.63 880.45 372.22 880.45 C 171.81 880.45 9.45 718.08 9.45 517.67 C 9.45 317.26 171.81 154.9 372.22 154.9 Z M 163.97 266.85 L 124.77 306.83 L 226.62 406.71 L 185.54 448.6 L 338.96 476.87 L 307.27 324.46 L 265.82 366.73 Z M 598.34 284.52 L 445.93 316.21 L 488.2 357.66 L 388.32 459.51 L 428.3 498.71 L 528.18 396.86 L 570.07 437.94 Z M 316.26 531.19 L 216.38 633.04 L 174.49 591.96 L 146.22 745.38 L 298.62 713.7 L 256.36 672.25 L 356.23 570.4 Z M 409.79 554.19 L 441.48 706.6 L 482.93 664.33 L 584.78 764.21 L 623.98 724.23 L 522.13 624.35 L 563.21 582.46 Z" fill="var(--icon-primary, #dae8fc)" stroke="none" stroke-width="0"/></svg>