<svg xmlns="http://www.w3.org/2000/svg" viewBox="0 0 248.19 191.89" width="248.19" height="191.89"><path d="M 142.95 87.85 L 171.6 81.63 L 167.37 92.43 L 192.59 102.29 L 189.23 110.9 L 164.01 101.05 L 159.79 111.85 Z M 103.14 87.85 L 74.49 81.63 L 78.72 92.43 L 53.5 102.29 L 56.86 110.9 L 82.08 101.05 L 86.3 111.85 Z M 123.52 87.78 L 107.3 112.19 L 118.9 112.19 L 118.9 139.26 L 128.15 139.26 L 128.15 112.19 L 139.75 112.19 Z M 123.52 20.12 L 102.6 42.02 L 111.72 42.02 L 111.72 79.81 L 135.33 79.81 L 135.33 42.02 L 144.45 42.02 Z M 191.64 154.1 C 195.8 154.1 198.28 157.43 198.28 160.54 L 199.84 160.54 C 199.84 161.19 198.98 163.65 197.43 165.53 C 195.88 167.42 193.82 168.83 191.64 168.83 C 189.32 168.83 188.13 167.88 186.9 166.22 C 186.07 165.12 185.34 163.7 184.52 162.22 C 184.55 162.16 184.58 162.1 184.62 162.04 C 186 159.53 186.98 157.25 188 155.93 C 189.01 154.61 189.59 154.1 191.64 154.1 Z M 152.66 154.1 C 154.07 154.1 154.75 154.58 155.91 156.01 C 157.07 157.45 158.27 159.75 159.77 162.17 C 159.77 162.18 159.78 162.19 159.78 162.21 C 158.87 163.77 158.02 165.23 157.12 166.34 C 155.8 167.97 154.59 168.83 152.66 168.83 C 150.71 168.83 149.51 167.99 148.2 166.39 C 147.3 165.28 146.44 163.82 145.52 162.23 C 145.54 162.2 145.56 162.17 145.58 162.14 C 147.06 159.67 148.25 157.38 149.4 155.97 C 150.55 154.57 151.22 154.1 152.66 154.1 Z M 113.68 154.1 C 114.73 154.1 115.62 154.66 116.88 156.18 C 118.13 157.7 119.4 159.97 120.78 162.17 C 119.89 163.63 119.01 165.05 118.07 166.19 C 116.68 167.88 115.34 168.83 113.68 168.83 C 111.89 168.83 110.7 168.1 109.37 166.58 C 108.43 165.5 107.5 164 106.52 162.28 C 106.56 162.2 106.6 162.12 106.65 162.05 C 108.12 159.38 109.39 157.14 110.54 155.82 C 111.69 154.5 112.37 154.1 113.68 154.1 Z M 74.7 154.1 C 75.74 154.1 76.74 154.72 78.03 156.28 C 79.31 157.83 80.55 160.08 81.78 162.14 C 81.79 162.16 81.81 162.19 81.83 162.22 C 81.01 163.59 80.15 164.97 79.22 166.09 C 77.8 167.82 76.37 168.83 74.7 168.83 C 72.99 168.83 71.49 167.86 70.05 166.19 C 69.11 165.1 68.26 163.76 67.5 162.39 C 67.58 162.23 67.66 162.06 67.74 161.91 C 68.74 159.87 69.94 157.69 71.22 156.21 C 72.5 154.72 73.58 154.1 74.7 154.1 Z M 172.15 152.55 C 173.82 152.55 175.14 153.55 176.54 155.33 C 177.41 156.45 178.24 157.82 179.08 159.22 C 177.82 161.51 176.6 163.76 175.4 165.23 C 174.16 166.74 173.29 167.28 172.15 167.28 C 171.03 167.28 170.25 166.77 169.03 165.23 C 167.85 163.76 166.62 161.49 165.21 159.18 C 166.08 157.69 166.93 156.28 167.81 155.18 C 169.18 153.46 170.44 152.55 172.15 152.55 Z M 133.17 152.55 C 134.9 152.55 136.15 153.44 137.51 155.13 C 138.4 156.23 139.25 157.65 140.13 159.16 C 138.72 161.53 137.48 163.81 136.3 165.28 C 135.09 166.79 134.32 167.28 133.17 167.28 C 132.13 167.28 131.25 166.7 129.99 165.1 C 128.78 163.57 127.58 161.34 126.24 159.19 C 127.07 157.79 127.89 156.43 128.77 155.32 C 130.17 153.55 131.5 152.55 133.17 152.55 Z M 94.19 152.55 C 95.25 152.55 96.62 153.33 98.12 154.97 C 99.12 156.08 100.15 157.53 101.15 159.16 C 99.76 161.65 98.3 163.9 96.97 165.36 C 95.62 166.85 94.58 167.28 94.19 167.28 C 94.21 167.28 92.72 166.61 91.23 164.9 C 89.82 163.27 88.39 161.07 87.28 159.23 C 88.13 157.92 89.09 156.59 90.06 155.46 C 91.66 153.62 93.33 152.55 94.19 152.55 Z M 55.21 152.55 C 57.01 152.55 58.49 153.57 59.91 155.31 C 60.77 156.37 61.55 157.66 62.26 158.98 C 62.23 159.04 62.2 159.11 62.16 159.18 C 61.14 161.28 59.96 163.55 58.7 165.09 C 57.44 166.63 56.41 167.28 55.21 167.28 C 54.14 167.28 52.27 166.31 50.82 164.72 C 49.37 163.13 48.56 160.92 48.56 160.54 L 47.03 160.54 C 47.19 159.37 48.16 157.27 49.67 155.61 C 51.32 153.81 53.47 152.55 55.21 152.55 Z M 74.7 147.89 C 71.2 147.89 68.45 149.92 66.52 152.15 C 65.54 153.29 64.71 154.52 63.99 155.74 C 63.48 154.91 62.93 154.1 62.31 153.35 C 60.58 151.22 58.22 149.44 55.21 149.44 C 52.13 149.44 49.41 151.3 47.38 153.52 C 45.43 155.66 44.03 158.13 43.92 160.54 L 42.36 160.54 C 42.36 163.76 44.02 166.47 46.23 168.9 C 48.45 171.33 51.46 173.49 55.21 173.49 C 58.82 173.49 61.62 171.33 63.51 169.01 C 64.4 167.93 65.15 166.77 65.81 165.63 C 66.37 166.53 67 167.4 67.7 168.21 C 69.46 170.26 71.8 171.94 74.7 171.94 C 77.63 171.94 79.91 170.14 81.62 168.07 C 82.38 167.14 83.06 166.15 83.68 165.15 C 84.53 166.43 85.49 167.75 86.54 168.96 C 88.48 171.19 90.69 173.49 94.19 173.49 C 97.28 173.49 99.64 171.65 101.56 169.54 C 102.69 168.29 103.73 166.86 104.7 165.34 C 105.43 166.54 106.19 167.65 107.03 168.62 C 108.71 170.54 110.92 171.94 113.68 171.94 C 116.56 171.94 118.79 170.2 120.47 168.16 C 121.24 167.22 121.93 166.2 122.58 165.18 C 123.33 166.42 124.15 167.72 125.11 168.95 C 126.91 171.23 129.59 173.49 133.17 173.49 C 136.63 173.49 139.33 171.41 141.14 169.17 C 142.12 167.95 142.95 166.63 143.73 165.32 C 144.36 166.39 145.03 167.42 145.8 168.35 C 147.43 170.35 149.69 171.94 152.66 171.94 C 155.64 171.94 157.9 170.3 159.53 168.29 C 160.29 167.35 160.96 166.32 161.59 165.26 C 162.36 166.56 163.19 167.87 164.17 169.1 C 165.97 171.35 168.66 173.49 172.15 173.49 C 175.63 173.49 178.36 171.42 180.2 169.16 C 181.17 167.98 181.99 166.71 182.73 165.44 C 183.23 166.33 183.78 167.23 184.41 168.08 C 185.97 170.17 188.32 171.94 191.64 171.94 C 195.11 171.94 197.91 169.83 199.83 167.5 C 201.75 165.16 202.94 162.7 202.94 160.54 L 204.49 160.54 C 204.49 154.06 199.17 147.89 191.64 147.89 C 187.85 147.89 184.83 149.85 183.07 152.15 C 182.11 153.4 181.39 154.7 180.75 155.97 C 180.2 155.1 179.62 154.23 178.98 153.42 C 177.32 151.3 175.1 149.44 172.15 149.44 C 169.25 149.44 167.04 151.17 165.39 153.24 C 164.67 154.14 164.03 155.12 163.41 156.12 C 162.62 154.78 161.78 153.4 160.73 152.11 C 158.95 149.91 156.17 147.89 152.66 147.89 C 149.18 147.89 146.39 149.85 144.6 152.04 C 143.55 153.32 142.7 154.7 141.91 156.06 C 141.3 155.06 140.65 154.08 139.93 153.18 C 138.27 151.13 136.05 149.44 133.17 149.44 C 130.22 149.44 128 151.28 126.33 153.39 C 125.63 154.28 125 155.23 124.41 156.19 C 123.61 154.88 122.72 153.51 121.67 152.23 C 119.84 150.03 117.18 147.89 113.68 147.89 C 110.44 147.89 107.71 149.62 105.86 151.74 C 104.72 153.06 103.77 154.53 102.87 156.08 C 102.09 154.91 101.27 153.83 100.41 152.88 C 98.63 150.93 96.6 149.44 94.19 149.44 C 91.57 149.44 89.54 151.33 87.72 153.43 C 86.94 154.33 86.21 155.3 85.53 156.27 C 84.76 154.98 83.87 153.61 82.81 152.33 C 80.96 150.08 78.27 147.89 74.7 147.89 Z M 11.72 0 C 5.27 0 0 5.27 0 11.72 L 0 180.17 C 0 186.62 5.27 191.89 11.72 191.89 L 236.47 191.89 C 242.91 191.89 248.19 186.62 248.19 180.17 L 248.19 11.72 C 248.19 5.27 242.91 0 236.47 0 Z M 11.72 5.29 L 236.47 5.29 C 240.07 5.29 242.89 8.11 242.89 11.72 L 242.89 180.17 C 242.89 183.78 240.07 186.6 236.47 186.6 L 11.72 186.6 C 8.11 186.6 5.29 183.78 5.29 180.17 L 5.29 11.72 C 5.29 8.11 8.11 5.29 11.72 5.29 Z" fill="var(--icon-primary, #dae8fc)" stroke="none" stroke-width="0"/></svg>