<svg xmlns="http://www.w3.org/2000/svg" viewBox="0 0 721.85 725.26" width="721.85" height="725.26"><path d="M 324.26 85.39 L 324.26 199.92 L 345.74 199.92 L 345.74 125.24 L 391.91 199.92 L 415.12 199.92 L 415.12 85.39 L 393.63 85.39 L 393.63 161.88 L 346.76 85.39 Z M 372.42 223.47 L 332.75 282.91 L 358.35 282.91 L 358.35 330.66 A 37.72 37.72 0 0 0 337.45 351.58 L 289.68 351.58 L 289.68 325.98 L 230.24 365.65 L 289.68 405.31 L 289.68 379.71 L 337.44 379.71 A 37.72 37.72 0 0 0 358.35 400.62 L 358.35 448.38 L 332.75 448.38 L 372.42 507.82 L 412.08 448.38 L 386.48 448.38 L 386.48 400.63 A 37.72 37.72 0 0 0 407.39 379.71 L 455.16 379.71 L 455.16 405.31 L 514.59 365.65 L 455.16 325.98 L 455.16 351.58 L 407.4 351.58 A 37.72 37.72 0 0 0 386.48 330.67 L 386.48 282.91 L 412.08 282.91 Z M 543.85 306.73 L 543.85 421.26 L 630.96 421.26 L 630.96 401.97 L 566.97 401.97 L 566.97 370.79 L 624.47 370.79 L 624.47 351.5 L 566.97 351.5 L 566.97 326.11 L 628.77 326.11 L 628.77 306.73 Z M 55.4 307.03 L 82.74 421.56 L 107.82 421.57 L 130.55 335.94 L 153.37 421.56 L 177.9 421.56 L 205.71 307.03 L 182.43 307.03 L 164.85 387.03 L 144.77 307.03 L 117.27 307.03 L 96.33 385.71 L 79.07 307.03 Z M 366.33 541.97 C 357.52 541.97 350 543.29 343.75 545.95 C 337.55 548.61 332.78 552.49 329.45 557.59 C 326.17 562.64 324.53 568.09 324.53 573.92 C 324.53 582.98 328.04 590.66 335.08 596.97 C 340.08 601.45 348.77 605.22 361.17 608.29 C 370.81 610.69 376.98 612.36 379.69 613.29 C 383.64 614.7 386.4 616.37 387.97 618.29 C 389.58 620.17 390.39 622.46 390.39 625.17 C 390.39 629.39 388.49 633.09 384.69 636.26 C 380.94 639.39 375.34 640.95 367.89 640.95 C 360.86 640.95 355.26 639.18 351.09 635.64 C 346.98 632.1 344.24 626.55 342.89 619 L 320.39 621.19 C 321.9 634 326.53 643.76 334.29 650.48 C 342.06 657.15 353.18 660.48 367.65 660.48 C 377.6 660.48 385.91 659.1 392.58 656.34 C 399.24 653.53 404.4 649.26 408.04 643.53 C 411.69 637.8 413.51 631.65 413.51 625.09 C 413.51 617.85 411.98 611.78 408.9 606.89 C 405.88 601.94 401.66 598.06 396.25 595.25 C 390.88 592.38 382.58 589.62 371.33 586.97 C 360.08 584.31 352.99 581.76 350.08 579.31 C 347.78 577.38 346.64 575.07 346.64 572.36 C 346.64 569.39 347.86 567.02 350.31 565.25 C 354.11 562.49 359.37 561.11 366.09 561.11 C 372.6 561.11 377.47 562.41 380.7 565.01 C 383.98 567.57 386.12 571.78 387.11 577.67 L 410.23 576.65 C 409.87 566.13 406.04 557.72 398.75 551.42 C 391.51 545.12 380.7 541.97 366.33 541.97 Z M 44.28 20 L 677.57 20 C 691.2 20 701.86 30.66 701.86 44.28 L 701.86 680.96 C 701.86 694.59 691.2 705.25 677.57 705.25 L 44.28 705.25 C 30.66 705.25 20 694.59 20 680.96 L 20 44.28 C 20 30.66 30.66 20 44.28 20 Z M 44.28 0 C 19.92 0 0 19.92 0 44.28 L 0 680.96 C 0 705.33 19.92 725.26 44.28 725.26 L 677.57 725.26 C 701.93 725.26 721.85 705.33 721.85 680.96 L 721.85 44.28 C 721.85 19.92 701.93 0 677.57 0 Z" fill="var(--icon-primary, #dae8fc)" stroke="none" stroke-width="0"/></svg>