<svg xmlns="http://www.w3.org/2000/svg" viewBox="0 0 938.03 725.26" width="938.03" height="725.26"><path d="M 44.28 0 C 19.92 0 0 19.92 0 44.28 L 0 680.96 C 0 705.33 19.92 725.26 44.28 725.26 L 893.74 725.26 C 918.1 725.26 938.03 705.33 938.03 680.96 L 938.03 44.28 C 938.03 19.92 918.1 0 893.74 0 Z M 44.28 20 L 893.74 20 C 907.37 20 918.03 30.66 918.03 44.28 L 918.03 442.16 C 910.04 432.79 907.37 433.19 893.74 433.19 L 825.04 433.19 L 825.04 174.14 C 879.32 140.73 904.54 99.47 904.54 37.86 L 35.54 37.1 C 35.54 104.14 59.81 136.63 90.09 159.3 L 90.09 433.19 L 44.28 433.19 C 30.66 433.19 25.98 434.31 20 442.16 L 20 44.28 C 20 30.66 30.66 20 44.28 20 Z M 119.93 178.57 C 126.42 182.38 132.92 186.12 139.28 189.96 C 177.64 210.48 220.84 225.86 266.37 236.84 L 266.37 433.19 L 119.93 433.19 Z M 795.2 190.38 L 795.2 433.19 L 648.76 433.19 L 648.76 240.32 C 662.46 237.4 675.62 234.19 688.09 230.69 C 730.26 217.66 765.84 204.62 795.2 190.38 Z M 296.21 243.35 C 344.01 252.72 393.72 257.56 442.64 258.62 L 442.64 433.19 L 296.21 433.19 Z M 618.92 246.04 L 618.92 433.19 L 472.48 433.19 L 472.48 258.8 C 523.89 258.32 573.77 253.77 618.92 246.04 Z M 244.25 520.84 C 261.72 520.84 274.92 531.56 283.99 542.54 C 289.17 548.82 293.51 555.54 297.3 561.86 C 300.63 557.09 304.21 552.34 308 547.96 C 316.91 537.68 326.86 528.43 339.68 528.43 C 351.5 528.43 361.46 535.7 370.15 545.27 C 374.36 549.89 378.36 555.19 382.2 560.93 C 386.61 553.32 391.24 546.12 396.84 539.69 C 405.9 529.29 419.26 520.84 435.12 520.84 C 452.24 520.84 465.31 531.28 474.22 542.08 C 479.39 548.35 483.73 555.06 487.66 561.48 C 490.56 556.78 493.65 552.11 497.07 547.77 C 505.23 537.44 516.13 528.43 530.55 528.43 C 544.67 528.43 555.54 536.67 563.65 546.74 C 567.17 551.11 570.34 555.9 573.36 560.84 C 577.23 554.16 581.38 547.43 586.5 541.17 C 595.29 530.41 608.95 520.84 625.98 520.84 C 643.16 520.84 656.78 530.7 665.52 541.49 C 670.62 547.8 674.76 554.54 678.62 561.14 C 681.63 556.23 684.8 551.43 688.3 547.03 C 696.38 536.9 707.22 528.43 721.42 528.43 C 735.87 528.43 746.73 537.54 754.85 547.89 C 757.96 551.86 760.81 556.11 763.5 560.39 C 766.67 554.17 770.2 547.79 774.88 541.68 C 783.51 530.43 798.28 520.84 816.85 520.84 C 853.7 520.84 879.76 551.05 879.76 582.77 L 872.17 582.77 C 872.17 593.34 866.32 605.4 856.94 616.83 C 847.56 628.26 833.82 638.55 816.85 638.55 C 800.6 638.55 789.07 629.9 781.44 619.68 C 778.34 615.54 775.69 611.13 773.21 606.74 C 769.58 612.96 765.57 619.2 760.84 624.97 C 751.8 636.01 738.45 646.15 721.42 646.15 C 704.32 646.15 691.13 635.7 682.36 624.7 C 677.55 618.67 673.5 612.22 669.73 605.88 C 666.61 611.06 663.34 616.12 659.61 620.72 C 651.64 630.57 640.59 638.55 625.98 638.55 C 611.45 638.55 600.38 630.8 592.38 621.02 C 588.64 616.45 585.36 611.4 582.24 606.18 C 578.45 612.59 574.38 619.04 569.56 625.03 C 560.74 635.98 547.49 646.15 530.55 646.15 C 513.02 646.15 499.92 635.09 491.11 623.93 C 486.36 617.92 482.35 611.56 478.71 605.47 C 475.53 610.49 472.14 615.49 468.36 620.07 C 460.13 630.04 449.25 638.55 435.12 638.55 C 421.62 638.55 410.78 631.74 402.57 622.32 C 398.43 617.56 394.74 612.12 391.17 606.24 C 386.4 613.72 381.32 620.72 375.77 626.83 C 366.38 637.16 354.8 646.15 339.68 646.15 C 322.54 646.15 311.71 634.91 302.26 624.01 C 297.1 618.06 292.41 611.6 288.23 605.35 C 285.18 610.21 281.86 615.1 278.13 619.62 C 269.76 629.75 258.63 638.55 244.25 638.55 C 230.05 638.55 218.6 630.34 209.97 620.33 C 206.56 616.37 203.5 612.07 200.71 607.67 C 197.49 613.27 193.82 618.94 189.49 624.25 C 180.23 635.6 166.5 646.15 148.82 646.15 C 130.45 646.15 115.74 635.61 104.88 623.7 C 94.03 611.8 85.9 598.51 85.9 582.77 L 93.55 582.77 C 94.08 570.96 100.97 558.85 110.5 548.4 C 120.42 537.53 133.74 528.43 148.82 528.43 C 163.56 528.43 175.12 537.14 183.6 547.54 C 186.62 551.24 189.33 555.21 191.82 559.26 C 195.36 553.27 199.43 547.26 204.22 541.7 C 213.64 530.77 227.13 520.84 244.25 520.84 Z M 148.82 543.63 C 140.31 543.63 129.77 549.82 121.72 558.64 C 114.34 566.74 109.54 577.02 108.81 582.77 L 116.29 582.77 C 116.29 584.62 120.23 595.43 127.34 603.23 C 134.44 611.02 143.59 615.77 148.82 615.77 C 154.72 615.77 159.77 612.6 165.94 605.04 C 172.11 597.48 177.86 586.37 182.89 576.1 C 183.04 575.78 183.21 575.44 183.37 575.12 C 179.88 568.64 176.05 562.32 171.83 557.15 C 164.89 548.64 157.67 543.63 148.82 543.63 Z M 339.68 543.63 C 335.49 543.63 327.31 548.89 319.48 557.91 C 314.7 563.42 310.04 569.95 305.84 576.35 C 311.29 585.36 318.3 596.11 325.22 604.1 C 332.5 612.5 339.8 615.77 339.68 615.77 C 341.59 615.77 346.68 613.65 353.29 606.38 C 359.8 599.22 366.98 588.21 373.79 575.98 C 368.87 568.03 363.85 560.92 358.91 555.49 C 351.61 547.46 344.89 543.63 339.68 543.63 Z M 530.55 543.63 C 522.36 543.63 515.84 548.52 509 557.18 C 504.72 562.61 500.67 569.31 496.6 576.15 C 503.16 586.69 509.06 597.61 514.97 605.1 C 521.15 612.93 525.47 615.77 530.55 615.77 C 536.21 615.77 539.95 613.35 545.89 605.96 C 551.67 598.79 557.71 587.63 564.63 575.98 C 560.32 568.59 556.15 561.65 551.81 556.26 C 545.15 547.99 539.03 543.63 530.55 543.63 Z M 721.42 543.63 C 713.02 543.63 706.87 548.12 700.18 556.51 C 695.86 561.92 691.71 568.82 687.42 576.09 C 694.35 587.43 700.35 598.5 706.12 605.75 C 712.12 613.27 715.92 615.77 721.42 615.77 C 726.99 615.77 731.27 613.11 737.32 605.72 C 743.22 598.51 749.17 587.52 755.35 576.3 C 751.24 569.46 747.18 562.73 742.89 557.26 C 736.06 548.55 729.58 543.63 721.42 543.63 Z M 244.25 551.23 C 238.79 551.23 233.5 554.29 227.24 561.54 C 220.98 568.8 215.06 579.48 210.18 589.45 C 209.82 590.19 209.39 591.03 209.02 591.8 C 212.74 598.54 216.91 605.11 221.48 610.41 C 228.53 618.58 235.88 623.36 244.25 623.36 C 252.45 623.36 259.43 618.38 266.41 609.93 C 270.96 604.43 275.16 597.7 279.16 590.96 C 279.09 590.84 279 590.7 278.93 590.58 C 272.91 580.52 266.84 569.5 260.56 561.89 C 254.28 554.29 249.35 551.23 244.25 551.23 Z M 435.12 551.23 C 428.71 551.23 425.4 553.16 419.76 559.64 C 414.12 566.12 407.91 577.1 400.69 590.14 C 400.48 590.52 400.27 590.89 400.05 591.27 C 404.88 599.72 409.41 607.02 414.03 612.34 C 420.52 619.8 426.34 623.36 435.12 623.36 C 443.25 623.36 449.79 618.7 456.64 610.4 C 461.22 604.85 465.55 597.88 469.9 590.75 C 463.12 579.99 456.92 568.86 450.78 561.43 C 444.62 553.96 440.25 551.23 435.12 551.23 Z M 625.98 551.23 C 618.95 551.23 615.64 553.53 610.02 560.39 C 604.41 567.26 598.54 578.48 591.3 590.58 C 591.22 590.72 591.13 590.88 591.04 591.03 C 595.52 598.81 599.72 605.99 604.14 611.4 C 610.55 619.24 616.45 623.36 625.98 623.36 C 635.44 623.36 641.36 619.12 647.8 611.16 C 652.21 605.71 656.4 598.55 660.87 590.91 C 660.84 590.86 660.8 590.81 660.77 590.75 C 653.45 578.89 647.57 567.61 641.9 560.6 C 636.23 553.6 632.86 551.23 625.98 551.23 Z M 816.85 551.23 C 806.83 551.23 803.96 553.7 799 560.17 C 794.03 566.64 789.23 577.8 782.45 590.11 C 782.29 590.4 782.12 590.7 781.96 590.99 C 785.98 598.23 789.57 605.17 793.61 610.59 C 799.67 618.7 805.48 623.36 816.85 623.36 C 827.5 623.36 837.62 616.42 845.2 607.2 C 852.77 597.97 856.97 585.93 856.97 582.77 L 849.37 582.77 C 849.37 567.54 837.22 551.23 816.85 551.23 Z" fill="var(--icon-primary, #dae8fc)" stroke="none" stroke-width="0"/></svg>