<svg xmlns="http://www.w3.org/2000/svg" viewBox="0 0 461.27 396.58" width="461.27" height="396.58"><path d="M 415.54 0 L 45.74 0 C 20.57 0 0 20.57 0 45.74 L 0 262.92 C 0 288.09 20.57 308.66 45.74 308.66 L 189.55 308.66 L 189.55 353.9 L 120.84 353.9 C 109.1 353.74 99.45 363.13 99.29 374.88 C 99.13 386.62 108.52 396.26 120.26 396.42 L 338.28 396.42 C 350.02 396.58 359.67 387.2 359.83 375.45 C 359.99 363.71 350.6 354.06 338.86 353.9 L 278.99 353.9 L 278.99 308.66 L 415.54 308.66 C 440.7 308.66 461.27 288.09 461.27 262.92 L 461.27 45.74 C 461.27 20.57 440.7 0 415.54 0 Z" fill="var(--icon-secondary, #6c8ebf)" stroke="none" stroke-width="0"/><path d="M 415.54 19.84 L 45.74 19.84 C 31.22 19.84 19.84 31.22 19.84 45.74 L 19.84 262.92 C 19.84 277.44 31.22 288.82 45.74 288.82 L 415.54 288.82 C 430.05 288.82 441.43 277.44 441.43 262.92 L 441.43 45.74 C 441.43 31.22 430.05 19.84 415.54 19.84 L 415.54 19.84 Z M 404.41 260.1 L 53.96 260.1 L 53.96 46.08 L 404.41 46.08 L 404.41 260.1 Z" fill="var(--icon-secondary, #6c8ebf)" stroke="none" stroke-width="0"/></svg>