<svg xmlns="http://www.w3.org/2000/svg" viewBox="0 0 190.99 191.89" width="190.99" height="191.89"><path d="M 11.72 5.29 L 179.27 5.29 C 182.88 5.29 185.7 8.11 185.7 11.72 L 185.7 180.17 C 185.7 183.78 182.88 186.6 179.27 186.6 L 11.72 186.6 C 8.11 186.6 5.29 183.78 5.29 180.17 L 5.29 11.72 C 5.29 8.11 8.11 5.29 11.72 5.29 Z M 11.72 0 C 5.27 0 0 5.27 0 11.72 L 0 180.17 C 0 186.62 5.27 191.89 11.72 191.89 L 179.27 191.89 C 185.72 191.89 190.99 186.62 190.99 180.17 L 190.99 11.72 C 190.99 5.27 185.72 0 179.27 0 Z M 106.41 69.82 L 67.24 69.82 L 67.24 53.57 L 31.72 77.35 L 67.24 101.31 L 67.24 85.2 L 106.41 85.2 Z M 87.7 141.84 L 48.53 141.84 L 48.53 125.58 L 13.01 149.37 L 48.53 173.32 L 48.53 157.21 L 87.7 157.21 Z M 103.07 34.33 L 142.25 34.33 L 142.25 18.08 L 177.76 41.87 L 142.25 65.82 L 142.25 49.71 L 103.07 49.71 Z M 84.1 106.35 L 123.27 106.35 L 123.27 90.09 L 158.79 113.88 L 123.27 137.84 L 123.27 121.73 L 84.1 121.73 Z" fill="var(--icon-primary, #dae8fc)" stroke="none" stroke-width="0"/></svg>