<svg xmlns="http://www.w3.org/2000/svg" viewBox="0 0 162.73 139.89" width="162.73" height="139.89"><path d="M 19.04 16.25 L 142.67 16.25 L 142.67 91.76 L 19.04 91.76 Z M 16.13 7 L 146.59 7 C 151.71 7 155.73 11.01 155.73 16.13 L 155.73 92.75 C 155.73 97.87 151.71 101.89 146.59 101.89 L 16.13 101.89 C 11.01 101.89 7 97.87 7 92.75 L 7 16.13 C 7 11.01 11.01 7 16.13 7 Z M 16.13 0 C 7.26 0 0 7.26 0 16.13 L 0 92.75 C 0 101.63 7.26 108.89 16.13 108.89 L 66.87 108.89 L 66.87 124.85 L 42.63 124.85 A 7.5 7.5 0 1 0 42.63 139.85 L 119.34 139.85 A 7.5 7.5 0 1 0 119.34 124.85 L 98.42 124.85 L 98.42 108.89 L 146.59 108.89 C 155.47 108.89 162.73 101.63 162.73 92.75 L 162.73 16.13 C 162.73 7.26 155.47 0 146.59 0 Z" fill="var(--icon-primary, #dae8fc)" stroke="none" stroke-width="0"/></svg>