<svg xmlns="http://www.w3.org/2000/svg" viewBox="0 0 721.85 652.91" width="721.85" height="652.91"><path d="M 44.28 0 C 19.92 0 0 19.92 0 44.28 L 0 552.39 C 0 576.75 19.92 596.68 44.28 596.68 L 512.18 596.68 L 512.18 652.91 L 567.03 621.36 L 621.88 652.91 L 621.88 596.68 L 677.57 596.68 C 701.93 596.68 721.85 576.75 721.85 552.39 L 721.85 44.28 C 721.85 19.92 701.93 0 677.57 0 Z M 44.28 20 L 677.57 20 C 691.2 20 701.86 30.66 701.86 44.28 L 701.86 552.39 C 701.86 566.02 691.2 576.68 677.57 576.68 L 621.88 576.68 L 621.88 538.76 A 91.78 91.78 0 0 0 658.33 465.64 A 91.78 91.78 0 0 0 566.55 373.86 A 91.78 91.78 0 0 0 474.78 465.64 A 91.78 91.78 0 0 0 512.18 539.44 L 512.18 576.68 L 44.28 576.68 C 30.66 576.68 20 566.02 20 552.39 L 20 44.28 C 20 30.66 30.66 20 44.28 20 Z M 141.4 139.57 L 141.4 172.7 L 584.86 172.7 L 584.86 139.57 Z M 141.4 229.37 L 141.4 262.5 L 584.86 262.5 L 584.86 229.37 Z M 141.4 320.24 L 141.4 353.37 L 384.14 353.37 L 384.14 320.24 Z" fill="var(--icon-primary, #dae8fc)" stroke="none" stroke-width="0"/></svg>