<svg xmlns="http://www.w3.org/2000/svg" viewBox="0 0 2046.2 1850.77" width="2046.2" height="1850.77"><path d="M 400.81 907.77 L 400.81 1001.68 L 1088.9 1001.68 L 1088.9 907.77 L 400.81 907.77 Z M 400.81 650.19 L 400.81 744.09 L 1657.86 744.09 L 1657.86 650.19 L 400.81 650.19 Z M 400.81 395.64 L 400.81 489.55 L 1657.86 489.55 L 1657.86 395.64 L 400.81 395.64 Z M 400.81 744.09 L 1657.86 744.09 L 1657.86 650.19 L 400.81 650.19 L 400.81 744.09 Z M 400.81 395.64 L 400.81 489.55 L 1657.86 489.55 L 1657.86 395.64 L 400.81 395.64 Z M 400.81 1001.68 L 1088.9 1001.68 L 1088.9 907.77 L 400.81 907.77 L 400.81 1001.68 Z M 1920.67 0 L 125.53 0 C 56.47 0 0 56.47 0 125.53 L 0 1565.84 C 0 1634.89 56.47 1691.39 125.53 1691.39 L 1451.84 1691.39 L 1451.84 1850.77 L 1607.32 1761.33 L 1762.8 1850.77 L 1762.8 1691.39 L 1920.67 1691.39 C 1989.72 1691.39 2046.2 1634.89 2046.2 1565.84 L 2046.2 125.53 C 2046.2 56.47 1989.72 0 1920.67 0 Z M 1989.51 1565.84 C 1989.51 1604.47 1959.29 1634.68 1920.67 1634.68 L 1762.8 1634.68 L 1762.8 1527.2 C 1827.79 1478.09 1866.03 1401.38 1866.12 1319.92 C 1866.12 1176.24 1749.65 1059.77 1605.97 1059.77 C 1534.13 1059.77 1469.09 1088.89 1422.02 1135.96 C 1374.94 1183.04 1345.82 1248.08 1345.82 1319.92 C 1345.88 1361.22 1355.75 1401.29 1373.92 1437.15 C 1392.09 1473 1418.56 1504.66 1451.84 1529.13 L 1451.84 1634.68 L 125.53 1634.68 C 86.9 1634.68 56.69 1604.47 56.69 1565.84 L 56.69 125.53 C 56.69 86.9 86.9 56.69 125.53 56.69 L 1920.67 56.69 C 1959.29 56.69 1989.51 86.9 1989.51 125.53 L 1989.51 1565.84 Z M 400.81 744.09 L 1657.86 744.09 L 1657.86 650.19 L 400.81 650.19 L 400.81 744.09 Z M 400.81 489.55 L 1657.86 489.55 L 1657.86 395.64 L 400.81 395.64 L 400.81 489.55 Z M 400.81 1001.68 L 1088.9 1001.68 L 1088.9 907.77 L 400.81 907.77 L 400.81 1001.68 Z" fill="var(--icon-secondary, #6c8ebf)" stroke="none" stroke-width="0"/><path d="M 1920.67 56.69 L 125.53 56.69 C 86.9 56.69 56.69 86.9 56.69 125.53 L 56.69 1565.84 C 56.69 1604.47 86.9 1634.68 125.53 1634.68 L 1451.84 1634.68 L 1451.84 1529.13 C 1418.56 1504.66 1392.09 1473 1373.92 1437.15 C 1355.75 1401.29 1345.88 1361.22 1345.82 1319.92 C 1345.82 1248.08 1374.94 1183.04 1422.02 1135.96 C 1469.09 1088.89 1534.13 1059.77 1605.97 1059.77 C 1749.65 1059.77 1866.12 1176.24 1866.12 1319.92 C 1866.03 1401.38 1827.79 1478.09 1762.8 1527.2 L 1762.8 1634.68 L 1920.67 1634.68 C 1959.29 1634.68 1989.51 1604.47 1989.51 1565.84 L 1989.51 125.53 C 1989.51 86.9 1959.29 56.69 1920.67 56.69 Z M 1088.9 1001.68 L 400.81 1001.68 L 400.81 907.77 L 1088.9 907.77 L 1088.9 1001.68 Z M 1657.86 744.09 L 400.81 744.09 L 400.81 650.19 L 1657.86 650.19 L 1657.86 744.09 Z M 1657.86 489.55 L 400.81 489.55 L 400.81 395.64 L 1657.86 395.64 L 1657.86 489.55 Z" fill="var(--icon-secondary, #6c8ebf)" stroke="none" stroke-width="0"/></svg>