<svg xmlns="http://www.w3.org/2000/svg" viewBox="0 0 49 33" width="49" height="33"><path d="M 49 9.66 C 49 14.66 38 19 24.67 19 C 11 19 0 14.66 0 9.66 C 0 23.33 0 23.33 0 23.33 C 0 28.66 11 33 24.67 33 C 38 33 49 28.66 49 23.33 Z M 24.67 19 C 38 19 49 14.66 49 9.66 C 49 4.33 38 0 24.67 0 C 11 0 0 4.33 0 9.66 C 0 14.66 11 19 24.67 19 Z" fill="var(--icon-primary, #dae8fc)" stroke="var(--icon-secondary, #6c8ebf)" stroke-width="1" stroke-linejoin="round"/><path d="M 19 5.66 L 21 8.66 L 13.33 10.66 L 15 9.33 L 3 7.33 L 6 5 L 17.67 7 Z M 29.67 13 L 28.33 10 L 35.33 8.66 L 34 9.66 L 45.67 11.66 L 42.67 14 L 31.33 11.66 Z M 26 4 L 33.67 2 L 33.67 5.33 L 31.67 5 L 28 8 L 24.33 7.66 L 28.33 4.66 Z M 22.67 16 L 15.33 17.33 L 15 14 L 17 14.33 L 21 11 L 24.67 11.66 L 20.33 15.33 Z" fill="var(--icon-secondary, #6c8ebf)" stroke="none" stroke-width="0"/><path d="M 35.67 26 C 35.67 29 31 31.66 25 31.66 C 19 31.66 14.33 29 14.33 26 C 14.33 23 19 20.66 25 20.66 C 31 20.66 35.67 23 35.67 26 Z" fill="var(--icon-secondary, #6c8ebf)" stroke="none" stroke-width="0"/><rect x="0" y="0" width="0" height="0" fill="none" stroke="var(--icon-secondary, #6c8ebf)" stroke-width="1"/><path d="M 18.33 27 L 21.67 23.66 L 20 22 L 25 21.66 L 24.67 26.66 L 23 25 L 19.67 28.33 Z" fill="var(--icon-primary, #dae8fc)" stroke="none" stroke-width="0"/><path d="M 24.33 29.66 L 27.67 26.33 L 26 24.66 L 31 24.33 L 30.67 29.33 L 29 27.66 L 25.67 31 Z" fill="var(--icon-primary, #dae8fc)" stroke="none" stroke-width="0"/></svg>