<svg xmlns="http://www.w3.org/2000/svg" viewBox="0 0 60.66 36" width="60.66" height="36"><path d="M 4.67 6.67 L 48.67 6.67 L 53.33 11.33 L 53.33 32 L 48.67 36 L 4.67 36 L 0 32 L 0 11.33 Z M 4.67 6.67 L 48.67 6.67 L 56 0 L 12.33 0 Z M 48.33 6.67 L 53.33 11.33 L 60.66 4.67 L 56 0 Z M 53.33 11.33 L 53.33 32 L 60.66 25.33 L 60.66 4.67 Z" fill="var(--icon-primary, #dae8fc)" stroke="var(--icon-secondary, #6c8ebf)" stroke-width="1" stroke-linejoin="round"/><rect x="0" y="0" width="0" height="0" fill="none" stroke="var(--icon-secondary, #6c8ebf)" stroke-width="1"/><path d="M 2 18.67 L 52 18.67 L 52 24 L 2 24 Z" fill="var(--icon-secondary, #6c8ebf)" stroke="none" stroke-width="0"/><path d="M 32 21.33 C 24.67 21.33 19 16 19 9.33 M 32 20.67 C 24.67 20.67 19 16 19 9.33 M 3.33 20.67 C 10.33 20.67 16 16 16 9.33 M 51 20.67 C 43.67 20.67 38.33 16 38.33 9.33 M 22.33 20.67 C 29.33 20.67 35 16 35 9.33 M 32 22.33 C 24.67 22.33 19 26.67 19 33.33 M 3.33 22.33 C 10.33 22.33 16 26.67 16 33.33 M 51 22.33 C 43.67 22.33 38.33 26.67 38.33 33.33 M 22.33 22.33 C 29.33 22.33 35 26.67 35 33.33" fill="none" stroke="var(--icon-secondary, #6c8ebf)" stroke-width="1.67" stroke-linecap="round"/></svg>