<svg xmlns="http://www.w3.org/2000/svg" viewBox="0 0 40 40.66" width="40" height="40.66"><path d="M 35.66 40.66 L 35.66 4.66 L 0 4.66 L 0 40.66 Z M 35.66 4.66 L 0 4.66 L 5.66 0 L 40 0 L 40 0.33 L 40 36 L 35.66 40.66 Z" fill="var(--icon-primary, #dae8fc)" stroke="var(--icon-secondary, #6c8ebf)" stroke-width="1" stroke-linejoin="round"/><path d="M 8 19.33 C 9.33 19.33 10.66 18.33 10.66 16.66 C 10.66 15.33 9.33 14 8 14 C 6.33 14 5.33 15.33 5.33 16.66 C 5.33 18.33 6.33 19.33 8 19.33 Z" fill="none" stroke="var(--icon-secondary, #6c8ebf)" stroke-width="1.33" stroke-linejoin="round"/><path d="M 8 14 L 12.66 14" fill="none" stroke="var(--icon-secondary, #6c8ebf)" stroke-width="1.33" stroke-linejoin="round"/><path d="M 12.66 12.33 L 12.66 15.66 L 14.66 14 Z" fill="var(--icon-secondary, #6c8ebf)" stroke="none" stroke-width="0"/><path d="M 5.33 16.66 L 5.33 12" fill="none" stroke="var(--icon-secondary, #6c8ebf)" stroke-width="1.33" stroke-linejoin="round"/><path d="M 3.33 12 L 7 12 L 5.33 10 Z" fill="var(--icon-secondary, #6c8ebf)" stroke="none" stroke-width="0"/><path d="M 10.66 16.66 L 10.66 21.33" fill="none" stroke="var(--icon-secondary, #6c8ebf)" stroke-width="1.33" stroke-linejoin="round"/><path d="M 12.33 21.33 L 9 21.33 L 10.66 23.33 Z" fill="var(--icon-secondary, #6c8ebf)" stroke="none" stroke-width="0"/><path d="M 8 19.33 L 3.33 19.33" fill="none" stroke="var(--icon-secondary, #6c8ebf)" stroke-width="1.33" stroke-linejoin="round"/><path d="M 3.33 21.33 L 3.33 17.66 L 1 19.33 Z" fill="var(--icon-secondary, #6c8ebf)" stroke="none" stroke-width="0"/><rect x="0" y="0" width="0" height="0" fill="none" stroke="var(--icon-secondary, #6c8ebf)" stroke-width="1"/><path d="M 35.66 4.66 L 40 0" fill="none" stroke="var(--icon-secondary, #6c8ebf)" stroke-width="1"/><path d="M 35.66 28 L 0 28" fill="none" stroke="var(--icon-secondary, #6c8ebf)" stroke-width="1"/><path d="M 24.33 28 L 24.33 4.66" fill="none" stroke="var(--icon-secondary, #6c8ebf)" stroke-width="1"/><path d="M 20.33 28 L 20.33 4.66" fill="none" stroke="var(--icon-secondary, #6c8ebf)" stroke-width="1"/><path d="M 32 28 L 32 4.66" fill="none" stroke="var(--icon-secondary, #6c8ebf)" stroke-width="1"/><path d="M 28 28 L 28 4.66" fill="none" stroke="var(--icon-secondary, #6c8ebf)" stroke-width="1"/><path d="M 16.33 28 L 16.33 27.66" fill="none" stroke="var(--icon-secondary, #6c8ebf)" stroke-width="1"/><path d="M 16.33 28 L 16.33 4.66" fill="none" stroke="var(--icon-secondary, #6c8ebf)" stroke-width="1"/><path d="M 13.33 32 L 3 32 L 3 30.33 L 13.33 30.33 Z" fill="none" stroke="var(--icon-secondary, #6c8ebf)" stroke-width="0.67"/><path d="M 23 35 L 12.66 35 L 12.66 33.66 L 23 33.66 Z" fill="none" stroke="var(--icon-secondary, #6c8ebf)" stroke-width="0.67"/><path d="M 32.66 38 L 22.33 38 L 22.33 36.66 L 32.66 36.66 Z" fill="none" stroke="var(--icon-secondary, #6c8ebf)" stroke-width="0.67"/></svg>