<svg xmlns="http://www.w3.org/2000/svg" viewBox="0 0 49 49" width="49" height="49"><path d="M 49 9.33 C 49 14.66 38 19 24.67 19 C 11 19 0 14.66 0 9.33 C 0 39.33 0 39.33 0 39.33 C 0 44.66 11 49 24.67 49 C 38 49 49 44.66 49 39.33 Z" fill="var(--icon-primary, #dae8fc)" stroke="var(--icon-secondary, #6c8ebf)" stroke-width="1" stroke-linejoin="round"/><path d="M 24.67 19 C 38 19 49 14.66 49 9.33 C 49 4.33 38 0 24.67 0 C 11 0 0 4.33 0 9.33 C 0 14.66 11 19 24.67 19 Z" fill="var(--icon-primary, #dae8fc)" stroke="var(--icon-secondary, #6c8ebf)" stroke-width="1" stroke-linejoin="round"/><path d="M 19 5.66 L 21 8.66 L 13.33 10.66 L 15 9 L 3.33 7 L 6.33 5 L 17.67 6.66 Z M 29.66 13 L 28.33 10 L 35.33 8.66 L 34 9.66 L 45.66 11.66 L 43 13.66 L 31.33 11.66 Z M 22.67 16 L 15.33 17.33 L 15 14 L 17 14.33 L 21.33 11 L 24.67 11.66 L 20.33 15.33 Z M 25.33 4 L 33.33 1.66 L 33.33 5 L 31.33 4.66 L 27.66 8 L 24 7.33 L 28 4.33 Z" fill="var(--icon-secondary, #6c8ebf)" stroke="none" stroke-width="0"/><path d="M 45.33 18 L 45.33 40.66 M 42.66 19.33 L 42.66 42 M 40 20.33 L 40 43 M 36.66 21.33 L 36.66 44 M 33.66 22 L 33.66 44.66 M 30.66 22.33 L 30.66 45 M 27.33 23 L 27.33 45.66 M 3 18 L 3 40.66 M 5.67 19.33 L 5.67 42 M 8.33 20.33 L 8.33 43 M 11.67 21.33 L 11.67 44 M 14.67 22 L 14.67 44.66 M 17.67 22.33 L 17.67 45 M 21 23 L 21 45.66 M 24.33 23 L 24.33 45.66" fill="none" stroke="var(--icon-secondary, #6c8ebf)" stroke-width="1" stroke-linejoin="round"/></svg>