<svg xmlns="http://www.w3.org/2000/svg" viewBox="0 0 47.67 21" width="47.67" height="21"><path d="M 0 7.67 L 10.34 0 L 47.67 0 L 40.34 7.67 Z M 40.34 20.67 L 47.67 13 L 47.67 0 L 40.34 7.67 Z M 40.34 20.67 L 40.34 7.67 L 0 7.67 L 0 20.67 Z" fill="var(--icon-primary, #dae8fc)" stroke="var(--icon-secondary, #6c8ebf)" stroke-width="1" stroke-linejoin="round"/><path d="M 37.67 14.33 C 37.67 14.33 35 21 32 14.33 C 28.67 7.67 26.34 14.33 26.34 14.33 C 26.34 14.33 23.67 21 20.34 14.33 C 17.34 7.67 14.67 14.33 14.67 14.33 C 14.67 14.33 12 21 9 14.33 C 5.67 7.67 3.34 14.33 3.34 14.33" fill="none" stroke="var(--icon-secondary, #6c8ebf)" stroke-width="0.67" stroke-linecap="round" stroke-linejoin="round"/><path d="M 3.34 14.33 C 3.34 14.33 5.67 21 9 14.33 C 12 7.67 14.67 14.33 14.67 14.33 C 14.67 14.33 17.34 21 20.34 14.33 C 23.67 7.67 26.34 14.33 26.34 14.33 C 26.34 14.33 28.67 21 32 14.33 C 35 7.67 37.67 14.33 37.67 14.33" fill="none" stroke="var(--icon-secondary, #6c8ebf)" stroke-width="1.33" stroke-linecap="round" stroke-linejoin="round"/><path d="M 37 14.33 C 37 14.33 34.34 21 31.34 14.33 C 28.34 7.67 25.67 14.33 25.67 14.33 C 25.67 14.33 23 21 19.67 14.33 C 16.67 7.67 14 14.33 14 14.33 C 14 14.33 11.34 21 8.34 14.33 C 5.34 7.67 2.67 14.33 2.67 14.33" fill="none" stroke="var(--icon-secondary, #6c8ebf)" stroke-width="0.67" stroke-linecap="round" stroke-linejoin="round"/><path d="M 2.67 14.33 C 2.67 14.33 5.34 21 8.34 14.33 C 11.34 7.67 14 14.33 14 14.33 C 14 14.33 16.67 21 20 14.33 C 23 7.67 25.67 14.33 25.67 14.33 C 25.67 14.33 28.34 21 31.34 14.33 C 34.34 7.67 37 14.33 37 14.33" fill="none" stroke="var(--icon-secondary, #6c8ebf)" stroke-width="1.33" stroke-linecap="round" stroke-linejoin="round"/></svg>