<svg xmlns="http://www.w3.org/2000/svg" viewBox="0 0 56.66 40.34" width="56.66" height="40.34"><path d="M 0 40.34 L 51 40.34 L 51 7 L 0 7 Z M 56.66 32 L 51 40.34 L 51 7 L 56.66 0 Z M 9 0 L 56.66 0 L 51 7 L 0 7 Z" fill="var(--icon-primary, #dae8fc)" stroke="var(--icon-secondary, #6c8ebf)" stroke-width="1" stroke-linejoin="round"/><path d="M 44 24.34 L 35.33 24.34 L 35.33 23 L 44 23 L 44 20.67 L 49 23.67 L 44 26.34 Z M 10 24.34 L 1.33 24.34 L 1.33 23 L 10 23 L 10 20.67 L 15 23.67 L 10 26.34 Z M 42.66 15.34 L 35.33 20 L 34.66 18.67 L 41.66 14 L 40.66 12.34 L 46.33 12 L 43.66 17 Z M 42.66 32 L 35.33 27.34 L 34.66 28.34 L 41.66 33 L 40.66 35 L 46.33 35.34 L 43.66 30.34 Z" fill="var(--icon-secondary, #6c8ebf)" stroke="none" stroke-width="0"/><path d="M 33.66 23.34 C 33.66 28 30 31.67 25.33 31.67 C 20.66 31.67 17 28 17 23.34 C 17 18.67 20.66 15 25.33 15 C 30 15 33.66 18.67 33.66 23.34 Z" fill="none" stroke="var(--icon-secondary, #6c8ebf)" stroke-width="1" stroke-linejoin="round"/></svg>