<svg xmlns="http://www.w3.org/2000/svg" viewBox="0 0 47.67 33.67" width="47.67" height="33.67"><path d="M 0 4 L 5.67 0 L 47.67 0 L 42.33 4 Z M 42.33 4 L 42.33 33.67 L 0 33.67 L 0 4 Z M 47.67 29 L 47.67 0 L 42.33 4 L 42.33 33.67 Z" fill="var(--icon-primary, #dae8fc)" stroke="var(--icon-secondary, #6c8ebf)" stroke-width="1" stroke-linejoin="round"/><path d="M 38.67 22.33 L 33 22.33 L 33 21.33 L 30.33 23 L 33 24.67 L 33 24 L 38.67 24 Z M 11.33 12.67 L 5.67 12.67 L 5.67 12 L 3 13.67 L 5.67 15.33 L 5.67 14.67 L 11.33 14.67 Z M 31.33 14.67 L 36.67 14.67 L 36.67 15.33 L 39.33 13.67 L 36.67 12 L 36.67 13 L 31.33 13 Z M 3.33 24 L 8.67 24 L 8.67 25 L 11.33 23.33 L 8.67 21.33 L 8.67 22.33 L 3.33 22.33 Z" fill="var(--icon-secondary, #6c8ebf)" stroke="none" stroke-width="0"/><path d="M 8.33 31 C 8.33 30.33 8.67 29.67 9.33 29.67 C 10 29.67 10.33 30.33 10.33 30.67 C 10.33 31.33 10 31.67 9.33 31.67 C 9 32 8.33 31.33 8.33 31 Z" fill="var(--icon-secondary, #6c8ebf)" stroke="var(--icon-secondary, #6c8ebf)" stroke-width="0.67" stroke-linejoin="round"/><path d="M 10.67 31.67 L 8.33 29.67 L 14 23.67 L 16 25.67 Z" fill="var(--icon-secondary, #6c8ebf)" stroke="var(--icon-secondary, #6c8ebf)" stroke-width="0.67" stroke-linejoin="round"/><path d="M 12.33 16 C 12 21.33 15.67 26 20.67 26.67 C 26 27.33 30.67 23.33 31.33 18.33 C 31.67 13 28 8.33 23 7.67 C 17.67 7.33 13 11 12.33 16 Z M 13.67 16.33 C 14.33 11.67 18.33 8.67 22.67 9 C 27.33 9.67 30.33 13.67 30 18 C 29.33 22.67 25.33 25.67 21 25.33 C 16.33 24.67 13.33 20.67 13.67 16.33 Z" fill="var(--icon-secondary, #6c8ebf)" stroke="var(--icon-secondary, #6c8ebf)" stroke-width="0.67" stroke-linejoin="round"/><path d="M 11.33 16.67 C 10.67 21.67 14.33 26.33 19.67 27 C 24.67 27.67 29.33 24 30 18.67 C 30.67 13.67 27 9 21.67 8.33 C 16.67 7.67 12 11.33 11.33 16.67 Z M 12.67 16.67 C 13 12.33 17 9 21.67 9.67 C 26 10 29.33 14 28.67 18.67 C 28.33 23 24.33 26.33 19.67 25.67 C 15.33 25.33 12 21 12.67 16.67 Z" fill="var(--icon-secondary, #6c8ebf)" stroke="var(--icon-secondary, #6c8ebf)" stroke-width="0.67" stroke-linejoin="round"/><rect x="0" y="0" width="0" height="0" fill="none" stroke="var(--icon-secondary, #6c8ebf)" stroke-width="1"/><path d="M 24.33 22.67 C 24.67 22.67 24.67 22.67 24.67 22.33 C 24.67 17.67 24.67 17.67 24.67 17.67 C 24.67 17.33 24.67 17.33 24.33 17.33 C 17 17.33 17 17.33 17 17.33 C 17 17.33 16.67 17.33 16.67 17.67 C 16.67 22.33 16.67 22.33 16.67 22.33 C 16.67 22.67 17 22.67 17 22.67 Z" fill="none" stroke="var(--icon-secondary, #6c8ebf)" stroke-width="0.4" stroke-linecap="round" stroke-linejoin="round"/><path d="M 24.67 17.33 L 26.33 15.67 L 18.33 15.67 L 16.67 17.33 Z M 26.33 21.33 L 26.33 15.67 L 24.67 17.33 L 24.67 22.67 Z" fill="none" stroke="var(--icon-secondary, #6c8ebf)" stroke-width="0.4" stroke-linecap="round" stroke-linejoin="round"/><path d="M 21.67 12.33 C 20.33 12.33 19.33 13.33 19.33 14.33 C 19.33 16.33 19.33 16.33 19.33 16.33 C 19.67 16.33 19.33 16.67 19 16.67 C 19 16.67 18.67 16.67 18.67 16.33 C 18.67 14.67 18.67 14.67 18.67 14.67 C 18.67 13 20 11.67 21.67 11.67 C 23 11.67 24.33 13 24.33 14.67 C 24.33 16.67 24.33 16.67 24.33 16.67 C 24.33 16.67 24.33 17 24 17 C 23.67 16.67 23.67 16.67 23.67 16.33 C 23.67 14.33 23.67 14.33 23.67 14.33 C 23.67 13.33 22.67 12.33 21.67 12.33 Z" fill="var(--icon-primary, #dae8fc)" stroke="var(--icon-secondary, #6c8ebf)" stroke-width="0.4" stroke-linecap="round" stroke-linejoin="round"/><path d="M 20.67 20.67 C 21 20.67 21.33 20 21.33 19.67 C 21.33 19.33 21 18.67 20.67 18.67 C 20.33 18.67 20 19.33 20 19.67 C 20 20 20.33 20.67 20.67 20.67 Z" fill="var(--icon-secondary, #6c8ebf)" stroke="var(--icon-secondary, #6c8ebf)" stroke-width="0.4"/><path d="M 21 21.33 L 21 19.67 L 20.67 20 L 20.67 21.67 L 21 21.33 Z" fill="var(--icon-secondary, #6c8ebf)" stroke="var(--icon-secondary, #6c8ebf)" stroke-width="0.35"/></svg>