<svg xmlns="http://www.w3.org/2000/svg" viewBox="0 0 49.66 32.33" width="49.66" height="32.33"><path d="M 0 32.33 L 44.33 32.33 L 44.33 6.33 L 0 6.33 Z M 49.66 24.67 L 44.33 32.33 L 44.33 6.33 L 49.66 0 Z M 8 0 L 49.66 0 L 44.33 6.33 L 0 6.33 Z" fill="var(--icon-primary, #dae8fc)" stroke="var(--icon-secondary, #6c8ebf)" stroke-width="1" stroke-linejoin="round"/><path d="M 21 22 L 21 25.33 L 18.66 25.33 L 22.33 31 L 26 25.33 L 23.33 25.33 L 23.33 22 Z" fill="var(--icon-secondary, #6c8ebf)" stroke="none" stroke-width="0"/><path d="M 28.33 20 L 9 20 L 9 17.33 L 3.33 21 L 9 25 L 9 22 L 21 22 Z" fill="var(--icon-secondary, #6c8ebf)" stroke="none" stroke-width="0"/><path d="M 23.33 22 L 36.33 22 L 36.33 24.67 L 42 21 L 36.33 17 L 36.33 20 L 16.66 20 Z" fill="var(--icon-secondary, #6c8ebf)" stroke="none" stroke-width="0"/></svg>