<svg xmlns="http://www.w3.org/2000/svg" viewBox="0 0 37.34 42.33" width="37.34" height="42.33"><path d="M 0 29.33 L 0 42.33 L 31.67 42.33 L 31.67 29.33 Z" fill="var(--icon-secondary, #6c8ebf)" stroke="var(--icon-secondary, #6c8ebf)" stroke-width="1" stroke-linejoin="round"/><path d="M 0 4 L 5.67 0 L 37.34 0 L 31.67 4 L 0 4 Z" fill="var(--icon-primary, #dae8fc)" stroke="var(--icon-secondary, #6c8ebf)" stroke-width="1" stroke-linejoin="round"/><path d="M 31.67 42.33 L 37.34 37.66 L 37.34 25 L 31.67 29.33 Z" fill="var(--icon-secondary, #6c8ebf)" stroke="var(--icon-secondary, #6c8ebf)" stroke-width="1" stroke-linecap="round" stroke-linejoin="round"/><path d="M 31.67 33.66 L 0 33.66 M 31.67 38 L 0 38 M 36.67 34 L 32 38 M 9.34 38 L 9.34 42 M 21.67 38 L 21.67 42 M 15.67 33.66 L 15.67 37.66 M 3.67 33.66 L 3.67 37.66 M 28 33.66 L 28 37.66" fill="none" stroke="var(--icon-secondary, #6c8ebf)" stroke-width="1" stroke-linecap="round" stroke-linejoin="round"/><path d="M 31.67 4 L 31.67 33.66 L 0 33.66 L 0 4 Z M 37.34 29 L 37.34 0 L 31.67 4 L 31.67 33.33 Z" fill="var(--icon-primary, #dae8fc)" stroke="var(--icon-secondary, #6c8ebf)" stroke-width="1" stroke-linejoin="round"/><path d="M 36 30 L 36 34.67 M 34 36.33 L 34 40.33" fill="none" stroke="var(--icon-secondary, #6c8ebf)" stroke-width="1" stroke-linejoin="round"/><path d="M 6 15.33 L 18.34 15.33 L 18.34 14.33 L 21 16 L 18.34 17.66 L 18.34 17 L 6 17 Z M 25 19.66 L 14.67 19.66 L 14.67 18.66 L 11.67 20.33 L 14.67 22 L 14.67 21.33 L 25 21.33 Z" fill="var(--icon-secondary, #6c8ebf)" stroke="none" stroke-width="0"/><path d="M 29 30 C 28.34 30.33 27.67 29.66 27.67 29.33 C 27.67 28.66 28 28.33 28.67 28 C 29.34 28 29.67 28.33 29.67 29 C 30 29.66 29.34 30 29 30 Z" fill="var(--icon-secondary, #6c8ebf)" stroke="var(--icon-secondary, #6c8ebf)" stroke-width="0.5" stroke-linejoin="round"/><path d="M 29.67 28 L 27.67 30 L 21.34 25 L 23.34 23 Z" fill="var(--icon-secondary, #6c8ebf)" stroke="var(--icon-secondary, #6c8ebf)" stroke-width="0.5" stroke-linejoin="round"/><path d="M 7 16.66 C 6.34 22 10 26.66 15.34 27.33 C 20.34 28 25 24 25.67 19 C 26.34 13.66 22.34 9 17.34 8.33 C 12 8 7.34 11.66 7 16.66 Z M 8.34 17 C 8.67 12.66 12.67 9.33 17.34 9.66 C 21.67 10.33 24.67 14.33 24.34 18.66 C 23.67 23.33 19.67 26.33 15.34 26 C 11 25.33 7.67 21.33 8.34 17 Z" fill="var(--icon-secondary, #6c8ebf)" stroke="var(--icon-secondary, #6c8ebf)" stroke-width="0.5" stroke-linejoin="round"/><path d="M 5.67 17.33 C 5 22.33 9 27 14 27.66 C 19.34 28.33 24 24.66 24.34 19.33 C 25 14.33 21.34 9.66 16 9 C 11 8.33 6.34 12 5.67 17.33 Z M 7 17.33 C 7.67 13 11.67 9.66 16 10.33 C 20.34 10.66 23.67 14.66 23 19.33 C 22.67 23.66 18.67 27 14.34 26.33 C 9.67 26 6.67 21.66 7 17.33 Z" fill="var(--icon-secondary, #6c8ebf)" stroke="var(--icon-secondary, #6c8ebf)" stroke-width="0.5" stroke-linejoin="round"/><path d="M 25 20.66 L 30 20.66 M 1.67 16 L 7 16" fill="none" stroke="var(--icon-secondary, #6c8ebf)" stroke-width="0.5" stroke-linejoin="round"/></svg>