<svg xmlns="http://www.w3.org/2000/svg" viewBox="0 0 36.66 52" width="36.66" height="52"><path d="M 4.66 15.67 L 0 20.33 L 0 52 L 32 52 L 36.66 47.67 L 36.66 15.67 Z M 32 20.33 L 32 52" fill="var(--icon-primary, #dae8fc)" stroke="var(--icon-secondary, #6c8ebf)" stroke-width="1" stroke-linejoin="round"/><path d="M 4.66 0 L 0 4.33 L 0 20.33 L 32 20.33 L 36.66 15.67 L 36.66 0 Z" fill="var(--icon-primary, #dae8fc)" stroke="var(--icon-secondary, #6c8ebf)" stroke-width="1" stroke-linejoin="round"/><path d="M 0 4.33 L 32 4.33 L 36.66 0 M 32 4.33 L 32 20.33" fill="none" stroke="var(--icon-secondary, #6c8ebf)" stroke-width="1" stroke-linejoin="round"/><path d="M 2.33 6.67 L 11.33 6.67 L 11.33 11.33 L 2.33 11.33 Z" fill="var(--icon-secondary, #6c8ebf)" stroke="none" stroke-width="0"/><rect x="0" y="0" width="0" height="0" fill="none" stroke="var(--icon-secondary, #6c8ebf)" stroke-width="1"/><path d="M 4.66 25 L 27.33 25 L 27.33 47.67 L 4.66 47.67 Z" fill="var(--icon-secondary, #6c8ebf)" stroke="var(--icon-secondary, #6c8ebf)" stroke-width="1"/><path d="M 9 29.33 L 23 29.33 L 23 43 L 9 43 Z M 20.66 6.67 L 29.66 6.67 L 29.66 11.33 L 20.66 11.33 Z M 2.33 13.67 L 11.33 13.67 L 11.33 18 L 2.33 18 Z M 20.66 13.67 L 29.66 13.67 L 29.66 18 L 20.66 18 Z" fill="var(--icon-secondary, #6c8ebf)" stroke="none" stroke-width="0"/><path d="M 11.33 9 L 20.66 9 M 11.33 15.67 L 20.66 15.67 M 11.33 13.67 L 20.66 11.33 M 11.33 11.33 L 20.66 13.67" fill="none" stroke="var(--icon-secondary, #6c8ebf)" stroke-width="1"/></svg>