<svg xmlns="http://www.w3.org/2000/svg" viewBox="0 0 55.33 54" width="55.33" height="54"><path d="M 55.33 17.67 L 55.33 43.34 L 41.66 54 L 13.66 54 L 0 43.34 L 0 17.67 Z" fill="var(--icon-primary, #dae8fc)" stroke="var(--icon-secondary, #6c8ebf)" stroke-width="1" stroke-linejoin="round"/><path d="M 55.33 17.67 L 55.33 43.34 L 41.66 54 L 13.66 54 L 0 43.34 L 0 17.67" fill="none" stroke="var(--icon-secondary, #6c8ebf)" stroke-width="1" stroke-linejoin="round"/><path d="M 13.66 53.67 L 13.66 28.34 Z" fill="none" stroke="var(--icon-secondary, #6c8ebf)" stroke-width="1" stroke-linejoin="round"/><path d="M 41.66 53.67 L 41.66 28.34 Z" fill="none" stroke="var(--icon-secondary, #6c8ebf)" stroke-width="1" stroke-linejoin="round"/><path d="M 55.33 10.34 L 55.33 18 L 41.66 28.67 L 13.66 28.67 L 0 18 L 0 10.34 Z" fill="var(--icon-primary, #dae8fc)" stroke="var(--icon-secondary, #6c8ebf)" stroke-width="1" stroke-linejoin="round"/><path d="M 41.33 0 L 14 0 L 0 10.34 L 13.66 21.34 L 41.66 21.34 L 55.33 10.34 L 41.33 0 Z" fill="var(--icon-primary, #dae8fc)" stroke="var(--icon-secondary, #6c8ebf)" stroke-width="1" stroke-linejoin="round"/><path d="M 13.66 28.34 L 13.66 21.34 M 41.66 28.34 L 41.66 21.34" fill="none" stroke="var(--icon-secondary, #6c8ebf)" stroke-width="1" stroke-linejoin="round"/><path d="M 22 11 L 28.66 12 M 8.33 9.34 L 15 10 M 5.66 6 L 11 6.67 M 11.66 6.67 L 3.66 12.34 M 18.33 8 L 7.33 15.67 M 25.66 8.67 L 12 19.34 M 11 13 L 18.67 14.33 M 40.66 16 L 47.33 16.67 M 27 14 L 33.66 15 M 30.33 11.34 L 17.33 21 M 37.33 12.34 L 26 20.67 M 44 13.34 L 34.33 20.67 M 51.66 13 L 45 18.67 M 16.33 15.67 L 23 16.67 M 30 17.67 L 36.66 18.67 M 20 0.34 L 11.33 7 M 29 0 L 18.33 8.34 M 44.33 7.34 L 50.33 8.34 M 36.66 0.34 L 22.66 11 M 43.33 2 L 29.33 12 M 47.33 5 L 36.66 13 M 51.66 8 L 43.66 14 M 20 7 L 26.66 8 M 33.66 9 L 40.66 10 M 47.66 11 L 53 12" fill="none" stroke="var(--icon-secondary, #6c8ebf)" stroke-width="0.4" stroke-linejoin="round"/><path d="M 22.33 6.34 L 24.33 9.67 L 16.33 11 L 18.33 9.67 L 6.66 6.67 L 9.66 4.67 L 21 7.34 Z M 32.66 14.67 L 31.33 11.34 L 38.33 10.67 L 37 11.67 L 48.33 14.34 L 45.66 16.34 L 34.33 13.34 Z M 29.33 5.34 L 37.33 3.67 L 37.33 7 L 35.33 6.67 L 31.33 9.34 L 27.66 8.67 L 32 6 Z M 25.33 17 L 18 17.67 L 17.66 14.34 L 20 15 L 24.33 11.67 L 27.66 12.67 L 23 16 Z" fill="var(--icon-secondary, #6c8ebf)" stroke="none" stroke-width="0"/></svg>