<svg xmlns="http://www.w3.org/2000/svg" viewBox="0 0 63.66 31.33" width="63.66" height="31.33"><path d="M 0 15.67 L 19.33 0 L 63.66 0 L 47.66 15.67 Z M 47.66 31.33 L 63.66 15.67 L 63.66 0 L 47.66 15.67 Z M 47.66 31.33 L 47.66 15.67 L 0 15.67 L 0 31.33 Z" fill="var(--icon-primary, #dae8fc)" stroke="var(--icon-secondary, #6c8ebf)" stroke-width="1" stroke-linejoin="round"/><path d="M 28.33 18 C 28.33 18 29 18 29.33 18.67 C 29.33 21 29.33 21 29.33 21 C 33.66 22 33.66 22 33.66 22 C 34 21 34 21 34 21 C 33 18 33 18 33 18 C 27.33 16.67 24 17 24 17 C 24 17 24 17 24 17 C 24 17 21.33 16.67 15.66 18 C 14.66 21 14.66 21 14.66 21 C 15 22 15 22 15 22 C 19.33 21 19.33 21 19.33 21 C 19.33 18.67 19.33 18.67 19.33 18.67 C 19.66 18 20.33 18 20.33 18 Z" fill="none" stroke="none" stroke-width="0.85" stroke-linejoin="round"/><rect x="0" y="0" width="0" height="0" fill="none" stroke="var(--icon-secondary, #6c8ebf)" stroke-width="1"/><rect x="20" y="20.67" width="8.66" height="9" fill="var(--icon-secondary, #6c8ebf)" stroke="var(--icon-secondary, #6c8ebf)" stroke-width="1"/><path d="M 18 12 C 18 13 16 13.67 13.66 13.67 C 11.33 13.67 9.33 13 9.33 12 C 9.33 11 11.33 10.33 13.66 10.33 C 16 10.33 18 11 18 12 Z" fill="var(--icon-secondary, #6c8ebf)" stroke="none" stroke-width="0"/><path d="M 18 11 C 18 12 16 12.67 13.66 12.67 C 11.33 12.67 9.33 12 9.33 11 C 9.33 10 11.33 9.33 13.66 9.33 C 16 9.33 18 10 18 11 Z" fill="var(--icon-secondary, #6c8ebf)" stroke="none" stroke-width="0"/></svg>