<svg xmlns="http://www.w3.org/2000/svg" viewBox="0 0 40.33 51.66" width="40.33" height="51.66"><path d="M 0 51.66 L 0 19 L 36 19 L 36 51.66 Z M 40.33 47 L 40.33 14.66 L 36 19 L 36 51.66 Z M 6.66 0 L 0 4.66 L 36 4.66 L 40.33 0 Z M 0 19 L 0 4.66 L 36 4.66 L 36 19 Z M 40.33 14.66 L 40.33 0 L 36 4.66 L 36 19 Z" fill="var(--icon-primary, #dae8fc)" stroke="var(--icon-secondary, #6c8ebf)" stroke-width="1" stroke-linejoin="round"/><path d="M 12.33 8.66 L 12.33 5.66 L 6.66 5.66 L 6.66 8.66 Z M 25.66 8.66 L 25.66 5.66 L 31.33 5.66 L 31.33 8.66 Z M 12.33 16.33 L 12.33 13.33 L 6.66 13.33 L 6.66 16.33 Z M 25.66 16.33 L 25.66 13.33 L 31.33 13.33 L 31.33 16.33 Z" fill="var(--icon-secondary, #6c8ebf)" stroke="none" stroke-width="0"/><path d="M 10.66 7.66 L 28.33 7.66 M 10.66 15 L 28.33 15 M 9.66 15 L 28.33 7.66 M 9.66 7.66 L 28.33 15" fill="none" stroke="var(--icon-secondary, #6c8ebf)" stroke-width="0.67" stroke-linejoin="round"/><path d="M 11.66 9.66 L 11.66 6.66 L 6 6.66 L 6 9.66 Z M 25 9.66 L 25 6.66 L 30.66 6.66 L 30.66 9.66 Z M 11.66 17 L 11.66 14 L 6 14 L 6 17 Z M 25 17 L 25 14 L 30.66 14 L 30.66 17 Z" fill="var(--icon-secondary, #6c8ebf)" stroke="none" stroke-width="0"/><path d="M 9.66 8 L 27.66 8 M 9.66 15.66 L 27.66 15.66 M 8.66 15.66 L 27.66 8 M 8.66 8 L 27.66 15.66" fill="none" stroke="var(--icon-secondary, #6c8ebf)" stroke-width="0.67" stroke-linejoin="round"/><path d="M 8.33 43.66 L 15 43.66 L 23.66 25.66 L 29.66 25.66" fill="none" stroke="var(--icon-secondary, #6c8ebf)" stroke-width="2" stroke-linejoin="round"/><path d="M 28 22.33 L 28 28.66 L 32 25.66 Z M 9.66 46.66 L 9.66 40.33 L 5.66 43.66 Z" fill="var(--icon-secondary, #6c8ebf)" stroke="none" stroke-width="0"/><path d="M 8.66 47.33 L 8.66 41 L 5 44 Z M 27.33 22.66 L 27.33 29.33 L 31 26 Z" fill="var(--icon-secondary, #6c8ebf)" stroke="none" stroke-width="0"/><path d="M 9.66 28.66 L 9.66 22.33 L 5.66 25.66 Z" fill="var(--icon-secondary, #6c8ebf)" stroke="none" stroke-width="0"/><path d="M 8.66 29.33 L 8.66 23 L 5 26 Z" fill="var(--icon-secondary, #6c8ebf)" stroke="none" stroke-width="0"/><path d="M 30 43.66 L 23.66 43.66 L 14.66 25.33 L 9.33 25.33" fill="none" stroke="var(--icon-secondary, #6c8ebf)" stroke-width="2" stroke-linejoin="round"/><path d="M 29.66 44 L 23 44 L 14 26 L 7.33 26 M 7.33 44 L 13.66 44 L 22.66 26 L 29.66 26" fill="none" stroke="var(--icon-secondary, #6c8ebf)" stroke-width="2" stroke-linejoin="round"/><path d="M 28 40.33 L 28 46.66 L 32 43.66 Z" fill="var(--icon-secondary, #6c8ebf)" stroke="none" stroke-width="0"/><path d="M 27.33 41 L 27.33 47.33 L 31 44.33 Z" fill="var(--icon-secondary, #6c8ebf)" stroke="none" stroke-width="0"/></svg>