<svg xmlns="http://www.w3.org/2000/svg" viewBox="0 0 34.67 35.33" width="34.67" height="35.33"><path d="M 28.67 35.33 L 28.67 6 L 0 6 L 0 35.33 Z M 28.67 6 L 0 6 L 7.34 0 L 34.67 0 L 34.67 0 L 34.67 29.33 L 28.67 35.33 Z M 28.67 6 L 34.67 0" fill="var(--icon-primary, #dae8fc)" stroke="var(--icon-secondary, #6c8ebf)" stroke-width="1" stroke-linejoin="round"/><rect x="0" y="0" width="0" height="0" fill="none" stroke="var(--icon-secondary, #6c8ebf)" stroke-width="1"/><path d="M 25 29.33 L 18.67 29.33 L 10 12 L 4.34 12 M 4 29.33 L 10 29.33 L 18.67 12 L 25.34 12" fill="none" stroke="var(--icon-secondary, #6c8ebf)" stroke-width="2"/><path d="M 23 9 L 23 15 L 26.67 12 Z M 23 26 L 23 32.33 L 26.67 29.33 Z M 5.34 15.33 L 5.34 9 L 1.67 12 Z M 5.34 32.33 L 5.34 26.33 L 1.67 29.33 Z" fill="var(--icon-secondary, #6c8ebf)" stroke="none" stroke-width="0"/></svg>