<svg xmlns="http://www.w3.org/2000/svg" viewBox="0 0 40.33 40" width="40.33" height="40"><path d="M 30.33 40 L 30.33 9 L 0 9 L 0 40 Z M 40.33 0 L 30.33 9 L 0 9 L 11 0 Z M 40.33 28 L 40.33 0 L 30.33 9 L 30.33 40 Z" fill="var(--icon-primary, #dae8fc)" stroke="var(--icon-secondary, #6c8ebf)" stroke-width="1" stroke-linejoin="round"/><rect x="0" y="0" width="0" height="0" fill="none" stroke="var(--icon-secondary, #6c8ebf)" stroke-width="1"/><path d="M 5.67 33 L 12 33 L 20.67 15 L 27 15" fill="none" stroke="var(--icon-secondary, #6c8ebf)" stroke-width="2"/><path d="M 25 11.67 L 25 18.33 L 29 15 Z M 6.67 36.33 L 6.67 30 L 3 33 Z" fill="var(--icon-secondary, #6c8ebf)" stroke="none" stroke-width="0"/><path d="M 5.67 37 L 5.67 30.67 L 2 33.67 Z M 24.33 12.33 L 24.33 18.67 L 28.33 15.67 Z" fill="var(--icon-secondary, #6c8ebf)" stroke="none" stroke-width="0"/><path d="M 6.67 18.33 L 6.67 12 L 3 15 Z" fill="var(--icon-secondary, #6c8ebf)" stroke="none" stroke-width="0"/><path d="M 5.67 19 L 5.67 12.67 L 2 15.67 Z" fill="var(--icon-secondary, #6c8ebf)" stroke="none" stroke-width="0"/><path d="M 27 33 L 20.67 33 L 11.67 15 L 6.33 15" fill="none" stroke="var(--icon-secondary, #6c8ebf)" stroke-width="2"/><path d="M 27 33.67 L 20.33 33.67 L 11.33 15.67 L 4.33 15.67" fill="none" stroke="var(--icon-secondary, #6c8ebf)" stroke-width="2"/><path d="M 4.33 33.67 L 11 33.67 L 19.67 15.67 L 26.67 15.67" fill="none" stroke="var(--icon-secondary, #6c8ebf)" stroke-width="2"/><path d="M 25 30 L 25 36.33 L 29 33.33 Z" fill="var(--icon-secondary, #6c8ebf)" stroke="none" stroke-width="0"/><path d="M 24.33 30.33 L 24.33 36.67 L 28.33 33.67 Z" fill="var(--icon-secondary, #6c8ebf)" stroke="none" stroke-width="0"/><path d="M 30.33 1.67 L 31.67 0.67 L 35.67 2 L 28.67 3.67 L 30.33 2 L 23.33 2 L 23.67 1.67 Z" fill="var(--icon-secondary, #6c8ebf)" stroke="none" stroke-width="0"/><path d="M 25 5.67 L 26.33 4.67 L 29.67 5.67 L 22.67 7.33 L 24 6 L 17 6 L 18 5.67 Z M 21.67 3 L 21 3.67 L 15.33 3.67 L 14 4.33 L 10.67 3.33 L 17.67 1.67 L 15.67 3 Z M 16.67 7 L 15.67 7.67 L 10 7.67 L 9 8.33 L 5.67 7 L 12.67 5.67 L 10.67 7 Z M 30.33 2 L 31.67 1 L 35.33 2.33 L 28.33 3.67 L 29.33 2.67 L 22.67 2.67 L 23.33 2 Z" fill="var(--icon-secondary, #6c8ebf)" stroke="none" stroke-width="0"/></svg>