<svg xmlns="http://www.w3.org/2000/svg" viewBox="0 0 49 33.33" width="49" height="33.33"><path d="M 49 9.67 C 49 15 38 19.33 24.66 19.33 C 11 19.33 0 15 0 9.67 C 0 23.67 0 23.67 0 23.67 C 0 29 11 33.33 24.66 33.33 C 38 33.33 49 29 49 23.67 Z M 24.66 19.33 C 38 19.33 49 15 49 9.67 C 49 4.33 38 0 24.66 0 C 11 0 0 4.33 0 9.67 C 0 15 11 19.33 24.66 19.33 Z" fill="var(--icon-primary, #dae8fc)" stroke="var(--icon-secondary, #6c8ebf)" stroke-width="1" stroke-linejoin="round"/><path d="M 19 6 L 21 9 L 13.33 10.67 L 15 9.33 L 3.33 7.33 L 6.33 5 L 17.66 7 Z M 29.66 13.33 L 28.33 10.33 L 35.33 8.67 L 34 10 L 45.66 12 L 43 14 L 31.33 12 Z M 26 4.33 L 33.66 2.33 L 34 5.33 L 32 5 L 28 8.33 L 24.66 7.67 L 28.33 4.67 Z M 22.66 16.33 L 15.33 17.67 L 15 14 L 17.33 14.67 L 21.33 11 L 24.66 11.67 L 20.33 15.67 Z M 25 25.67 L 29.33 29 L 31 29 L 31 28 L 35.66 29.67 L 31 31.33 L 31 30.33 L 28.66 30.33 L 23.66 26.67 L 19 30.33 L 16.66 30.33 L 16.66 31.33 L 12 29.67 L 16.66 28 L 16.66 29 L 18.33 29 L 22.66 25.67 L 18.33 22.33 L 16.66 22.33 L 16.66 23.33 L 12 21.67 L 16.66 20 L 16.66 21 L 19 21 L 23.66 24.67 L 28.66 21 L 31 21 L 31 20 L 35.66 21.67 L 31 23.33 L 31 22.33 L 29.33 22.33 Z" fill="var(--icon-secondary, #6c8ebf)" stroke="none" stroke-width="0"/></svg>