<svg xmlns="http://www.w3.org/2000/svg" viewBox="0 0 56.67 40.33" width="56.67" height="40.33"><path d="M 0 40.33 L 51 40.33 L 51 7 L 0 7 Z M 56.67 32 L 51 40.33 L 51 7 L 56.67 0 Z M 8.67 0 L 56.67 0 L 51 7 L 0 7 Z" fill="var(--icon-primary, #dae8fc)" stroke="var(--icon-secondary, #6c8ebf)" stroke-width="1" stroke-linejoin="round"/><path d="M 7.33 16 L 3 16 L 3 14.33 L 7.33 14.33 L 7.33 12.33 L 12.33 15.33 L 7.33 18 Z M 7.33 24.33 L 3 24.33 L 3 23 L 7.33 23 L 7.33 20.67 L 12.33 23.67 L 7.33 26.33 Z M 7.33 32.67 L 3 32.67 L 3 31.33 L 7.33 31.33 L 7.33 29.33 L 12.33 32 L 7.33 35 Z M 45.33 24.33 L 39.67 24.33 L 39.67 23 L 45.33 23 L 45.33 21 L 50.33 23.67 L 45.33 26.33 Z" fill="var(--icon-secondary, #6c8ebf)" stroke="none" stroke-width="0"/><path d="M 16.33 24.33 C 16.33 29.67 20.67 34 26.33 34 C 26.33 24.33 26.33 24.33 26.33 24.33 Z" fill="var(--icon-secondary, #6c8ebf)" stroke="none" stroke-width="0"/><path d="M 26.33 14.33 C 31.67 14.33 36 18.67 36 24.33 C 26.33 24.33 26.33 24.33 26.33 24.33 Z" fill="var(--icon-secondary, #6c8ebf)" stroke="none" stroke-width="0"/></svg>