<svg xmlns="http://www.w3.org/2000/svg" viewBox="0 0 49 46.67" width="49" height="46.67"><rect x="0" y="0" width="0" height="0" fill="none" stroke="var(--icon-secondary, #6c8ebf)" stroke-width="1"/><path d="M 49 9.67 C 49 14.67 38 19 24.67 19 C 11 19 0 14.67 0 9.67 C 0 20.67 0 20.67 0 20.67 C 0 26 11 30.33 24.67 30.33 C 38 30.33 49 26 49 20.67 Z" fill="var(--icon-secondary, #6c8ebf)" stroke="var(--icon-secondary, #6c8ebf)" stroke-width="1" stroke-linejoin="round"/><rect x="0" y="0" width="0" height="0" fill="none" stroke="var(--icon-secondary, #6c8ebf)" stroke-width="1"/><path d="M 49 20.33 C 49 25.67 38 30 24.67 30 C 11 30 0 25.67 0 20.33 C 0 37.33 0 37.33 0 37.33 C 0 42.67 11 46.67 24.67 46.67 C 38 46.67 49 42.67 49 37.33 Z" fill="var(--icon-primary, #dae8fc)" stroke="var(--icon-secondary, #6c8ebf)" stroke-width="1" stroke-linejoin="round"/><path d="M 24.67 19 C 38 19 49 14.67 49 9.67 C 49 4.33 38 0 24.67 0 C 11 0 0 4.33 0 9.67 C 0 14.67 11 19 24.67 19 Z" fill="var(--icon-secondary, #6c8ebf)" stroke="var(--icon-secondary, #6c8ebf)" stroke-width="1" stroke-linejoin="round"/><path d="M 19 5.67 L 21 8.67 L 13.33 10.67 L 15 9.33 L 3.33 7.33 L 6 5 L 17.67 7 Z M 29.67 13 L 28.33 10 L 35.33 8.67 L 34 9.67 L 45.67 11.67 L 42.67 14 L 31.33 11.67 Z M 26 4 L 33.67 2 L 33.67 5.33 L 32 5 L 28 8 L 24.33 7.67 L 28.33 4.33 Z M 22.67 16 L 15.33 17.33 L 15 14 L 17 14.33 L 21.33 11 L 24.67 11.67 L 20.33 15.33 Z" fill="var(--icon-secondary, #6c8ebf)" stroke="none" stroke-width="0"/><path d="M 22.33 27.67 L 22.33 28.67 L 18 28.67 L 24.33 36.67 L 30.33 28.67 L 26.33 28.67 L 26.33 27.67 Z" fill="var(--icon-secondary, #6c8ebf)" stroke="none" stroke-width="0"/><path d="M 18.33 43.67 L 33 29 L 31.67 28.33 L 17 43 Z" fill="var(--icon-secondary, #6c8ebf)" stroke="none" stroke-width="0"/><path d="M 30 43.33 L 15.67 29 L 17 28.33 L 31.33 42.67 Z" fill="var(--icon-secondary, #6c8ebf)" stroke="none" stroke-width="0"/><path d="M 26.33 42.67 C 26.33 44 26.33 44 26.33 44 C 30 43.67 36 43.33 39 42.33 C 39.33 41 39.33 41 39.33 41 C 36 42 30 42.33 26.33 42.67 Z" fill="var(--icon-secondary, #6c8ebf)" stroke="none" stroke-width="0"/><path d="M 10 42.33 C 13.33 43.33 18.33 43.67 22.33 44 C 22.33 42.67 22.33 42.67 22.33 42.67 C 18.33 42.67 13 41.67 10 41 Z" fill="var(--icon-secondary, #6c8ebf)" stroke="none" stroke-width="0"/><path d="M 9.67 28.33 C 12.67 29 18 29.67 22 30 C 22 28.67 22 28.67 22 28.67 C 17.67 28.33 12.33 27.67 9.67 27 Z" fill="var(--icon-secondary, #6c8ebf)" stroke="none" stroke-width="0"/><path d="M 26.33 28.67 C 26.33 30 26.33 30 26.33 30 C 30.33 30 36 29.33 39.33 28.33 C 39.33 27 39.33 27 39.33 27 C 36.33 28 30.33 28.67 26.33 28.67 Z" fill="var(--icon-secondary, #6c8ebf)" stroke="none" stroke-width="0"/><path d="M 12.67 39.33 L 11 39 L 13.67 32 L 15.67 32.33 L 18.33 40.33 L 16.33 40 L 16 38.33 L 13 38 Z M 13.67 36.67 L 15.67 37 L 14.67 33.67 L 14.67 33.67 Z" fill="var(--icon-secondary, #6c8ebf)" stroke="none" stroke-width="0"/><path d="M 33.33 40 C 31.67 40.33 31.67 40.33 31.67 40.33 C 31.67 32.67 31.67 32.67 31.67 32.67 C 35 32 35 32 35 32 C 36.67 32 37.67 32.67 37.67 34.33 C 37.67 35 37 36.67 35 37 C 33.33 37.33 33.33 37.33 33.33 37.33 Z M 34.67 35.67 C 36 35.67 36 34.67 36 34.33 C 36 33.67 35.67 33.33 34.67 33.33 C 33.33 33.67 33.33 33.67 33.33 33.67 C 33.33 36 33.33 36 33.33 36 Z" fill="var(--icon-secondary, #6c8ebf)" stroke="none" stroke-width="0"/></svg>