<svg xmlns="http://www.w3.org/2000/svg" viewBox="0 0 63.66 26" width="63.66" height="26"><path d="M 47.66 26 L 47.66 15.33 L 0 15.33 L 0 26 Z M 0 15.33 L 19.33 0 L 63.66 0 L 47.66 15.33 Z M 47.66 26 L 63.66 10.33 L 63.66 0 L 47.66 15.33 Z" fill="var(--icon-primary, #dae8fc)" stroke="var(--icon-secondary, #6c8ebf)" stroke-width="1" stroke-linejoin="round"/><rect x="0" y="0" width="0" height="0" fill="none" stroke="var(--icon-secondary, #6c8ebf)" stroke-width="1"/><path d="M 31 4 L 32 7.33 L 24.66 6.66 L 26.66 5.66 L 19.33 1.66 L 22 0.66 L 29.33 4.33 Z M 34.66 11.33 L 33.33 8 L 40.66 9 L 39.33 9.33 L 47.33 13.33 L 44.33 14.33 L 36.33 10.66 Z M 49.66 1 L 57.66 1.66 L 56.66 4.66 L 55 3.66 L 38.66 7.66 L 35.33 6 L 52 2.33 Z M 15 14.33 L 7.66 13.33 L 8.33 10 L 10.33 11 L 27 7.66 L 30 9.33 L 13 13 Z" fill="var(--icon-secondary, #6c8ebf)" stroke="none" stroke-width="0"/><path d="M 13.66 22.33 L 3.33 22.33 L 3.33 18.33 L 13.66 18.33 Z M 43.66 22.33 L 33.33 22.33 L 33.33 18.33 L 43.66 18.33 Z" fill="var(--icon-secondary, #6c8ebf)" stroke="none" stroke-width="0"/></svg>