<svg xmlns="http://www.w3.org/2000/svg" viewBox="0 0 27.33 47" width="27.33" height="47"><path d="M 27.33 42 L 22.33 47 L 22.33 5 L 27.33 0 Z M 0 47 L 22.33 47 L 22.33 5 L 0 5 Z M 5 0 L 27.33 0 L 22.33 5 L 0 5 Z" fill="var(--icon-primary, #dae8fc)" stroke="var(--icon-secondary, #6c8ebf)" stroke-width="1" stroke-linejoin="round"/><path d="M 15.66 15.34 L 15.66 9.67 L 6 9.67 L 6 15.34 Z" fill="var(--icon-secondary, #6c8ebf)" stroke="none" stroke-width="0"/><path d="M 4.33 21.67 C 5 21.67 5.66 21 5.66 20 C 5.66 19.34 5 18.67 4.33 18.67 C 3.33 18.67 2.66 19.34 2.66 20 C 2.66 21 3.33 21.67 4.33 21.67 Z" fill="var(--icon-secondary, #6c8ebf)" stroke="none" stroke-width="0"/><path d="M 4.33 26.67 C 5 26.67 5.66 26 5.66 25.34 C 5.66 24.34 5 23.67 4.33 23.67 C 3.33 23.67 2.66 24.34 2.66 25.34 C 2.66 26 3.33 26.67 4.33 26.67 Z" fill="var(--icon-secondary, #6c8ebf)" stroke="none" stroke-width="0"/><path d="M 4.33 31.67 C 5 31.67 5.66 31 5.66 30.34 C 5.66 29.67 5 29 4.33 29 C 3.33 29 2.66 29.67 2.66 30.34 C 2.66 31 3.33 31.67 4.33 31.67 Z" fill="var(--icon-secondary, #6c8ebf)" stroke="none" stroke-width="0"/><path d="M 4.33 37 C 5 37 5.66 36.34 5.66 35.34 C 5.66 34.67 5 34 4.33 34 C 3.33 34 2.66 34.67 2.66 35.34 C 2.66 36.34 3.33 37 4.33 37 Z" fill="var(--icon-secondary, #6c8ebf)" stroke="none" stroke-width="0"/><path d="M 4.33 42 C 5 42 5.66 41.34 5.66 40.67 C 5.66 39.67 5 39 4.33 39 C 3.33 39 2.66 39.67 2.66 40.67 C 2.66 41.34 3.33 42 4.33 42 Z" fill="var(--icon-secondary, #6c8ebf)" stroke="none" stroke-width="0"/><path d="M 6 19.67 L 15 19.67 M 6 24.67 L 15 24.67 M 6 30 L 15 30 M 6 35 L 15 35 M 6 40 L 15 40" fill="none" stroke="var(--icon-secondary, #6c8ebf)" stroke-width="0.67" stroke-linejoin="round"/><path d="M 17.33 21.67 C 18 21.67 18.66 21 18.66 20 C 18.66 19.34 18 18.67 17.33 18.67 C 16.33 18.67 15.66 19.34 15.66 20 C 15.66 21 16.33 21.67 17.33 21.67 Z" fill="var(--icon-secondary, #6c8ebf)" stroke="none" stroke-width="0"/><path d="M 17.33 26.67 C 18 26.67 18.66 26 18.66 25.34 C 18.66 24.34 18 23.67 17.33 23.67 C 16.33 23.67 15.66 24.34 15.66 25.34 C 15.66 26 16.33 26.67 17.33 26.67 Z" fill="var(--icon-secondary, #6c8ebf)" stroke="none" stroke-width="0"/><path d="M 17.33 31.67 C 18 31.67 18.66 31 18.66 30.34 C 18.66 29.67 18 29 17.33 29 C 16.33 29 15.66 29.67 15.66 30.34 C 15.66 31 16.33 31.67 17.33 31.67 Z" fill="var(--icon-secondary, #6c8ebf)" stroke="none" stroke-width="0"/><path d="M 17.33 37 C 18 37 18.66 36.34 18.66 35.34 C 18.66 34.67 18 34 17.33 34 C 16.33 34 15.66 34.67 15.66 35.34 C 15.66 36.34 16.33 37 17.33 37 Z" fill="var(--icon-secondary, #6c8ebf)" stroke="none" stroke-width="0"/><path d="M 17.33 42 C 18 42 18.66 41.34 18.66 40.67 C 18.66 39.67 18 39 17.33 39 C 16.33 39 15.66 39.67 15.66 40.67 C 15.66 41.34 16.33 42 17.33 42 Z" fill="var(--icon-secondary, #6c8ebf)" stroke="none" stroke-width="0"/></svg>