<svg xmlns="http://www.w3.org/2000/svg" viewBox="0 0 46.67 35.67" width="46.67" height="35.67"><rect x="0" y="0" width="0" height="0" fill="none" stroke="var(--icon-secondary, #6c8ebf)" stroke-width="1"/><path d="M 41.67 6 C 41.67 6 41.67 6 41.67 6 C 41.67 6 26.67 22.67 0 6 C 0 6 0 6 0 6 C 7.67 0 7.67 0 7.67 0 C 35.33 20 46.67 0 46.67 0" fill="var(--icon-primary, #dae8fc)" stroke="var(--icon-secondary, #6c8ebf)" stroke-width="1" stroke-linejoin="round"/><path d="M 0 35.67 C 0 6 0 6 0 6 C 0 6 0 6 0 6 C 0 6 0 6 0 6 C 0 6 0 6 0 6 C 24.33 21.67 40 5.67 40 5.67 C 40 5.67 40 5.67 40 5.67 C 40 35.67 40 35.67 40 35.67 Z" fill="var(--icon-primary, #dae8fc)" stroke="var(--icon-secondary, #6c8ebf)" stroke-width="1" stroke-linejoin="round"/><path d="M 40 5.67 L 40 35.67 L 46.67 28 L 46.67 0 L 40 5.67 Z" fill="var(--icon-primary, #dae8fc)" stroke="var(--icon-secondary, #6c8ebf)" stroke-width="1" stroke-linejoin="round"/></svg>