<svg xmlns="http://www.w3.org/2000/svg" viewBox="0 0 49 49.34" width="49" height="49.34"><path d="M 49 9.67 C 49 14.67 38 19 24.33 19 C 11 19 0 14.67 0 9.67 C 0 39.67 0 39.67 0 39.67 C 0 45 11 49.34 24.33 49.34 C 38 49.34 49 45 49 39.67 Z M 24.33 19 C 38 19 49 14.67 49 9.67 C 49 4.34 38 0 24.33 0 C 11 0 0 4.34 0 9.67 C 0 14.67 11 19 24.33 19 Z" fill="var(--icon-primary, #dae8fc)" stroke="var(--icon-secondary, #6c8ebf)" stroke-width="1" stroke-linejoin="round"/><rect x="0" y="0" width="0" height="0" fill="none" stroke="var(--icon-secondary, #6c8ebf)" stroke-width="1"/><path d="M 21.67 24 L 21.67 42.34 L 43 33.67 Z" fill="var(--icon-secondary, #6c8ebf)" stroke="none" stroke-width="0"/><rect x="12.67" y="24" width="6.66" height="3.67" fill="var(--icon-secondary, #6c8ebf)" stroke="var(--icon-secondary, #6c8ebf)" stroke-width="1"/><rect x="12.67" y="29" width="6.66" height="3.67" fill="var(--icon-secondary, #6c8ebf)" stroke="var(--icon-secondary, #6c8ebf)" stroke-width="1"/><rect x="12.67" y="34" width="6.66" height="3.67" fill="var(--icon-secondary, #6c8ebf)" stroke="var(--icon-secondary, #6c8ebf)" stroke-width="1"/><rect x="12.67" y="39" width="6.66" height="3.67" fill="var(--icon-secondary, #6c8ebf)" stroke="var(--icon-secondary, #6c8ebf)" stroke-width="1"/><path d="M 19 5.34 L 21.33 8.67 L 13.67 10.34 L 15.33 9 L 3.33 7 L 6.33 4.67 L 17.67 6.67 Z M 30 13 L 28.67 9.67 L 35.33 8.34 L 34.33 9.34 L 45.67 11.34 L 43 13.67 L 31.67 11.34 Z M 26 3.67 L 34 1.67 L 34 5 L 32 4.67 L 28.33 7.67 L 24.67 7.34 L 28.67 4.34 Z M 23 15.67 L 15.33 17 L 15.33 13.67 L 17.33 14 L 21.33 10.67 L 25 11.34 L 20.67 15 Z" fill="var(--icon-secondary, #6c8ebf)" stroke="none" stroke-width="0"/></svg>