<svg xmlns="http://www.w3.org/2000/svg" viewBox="0 0 31 47.33" width="31" height="47.33"><path d="M 0 47.33 L 0 5 L 24.67 5 L 24.67 47.33 Z M 7.34 0 L 0 5 L 24.67 5 L 31 0 Z M 31 39.67 L 31 0 L 24.67 5.33 L 24.67 47.33 Z" fill="var(--icon-primary, #dae8fc)" stroke="var(--icon-secondary, #6c8ebf)" stroke-width="1" stroke-linejoin="round"/><path d="M 12.67 5.67 L 1 26 L 12.67 46.33 L 24.67 26 Z" fill="var(--icon-secondary, #6c8ebf)" stroke="none" stroke-width="0"/><rect x="0" y="0" width="0" height="0" fill="none" stroke="var(--icon-secondary, #6c8ebf)" stroke-width="1"/><path d="M 11.34 30.33 C 14 27.67 14 27.67 14 27.67 C 11.34 27.67 10 28 8 28 C 7.34 31 6.67 33 5.67 35 C 8.67 32.67 8.67 32.67 8.67 32.67 C 10.67 34.33 13 35 15 34 C 15 34 15.34 34 15.34 33.67 C 18.67 30.67 18.67 30.67 18.67 30.67 C 16.67 32.67 13.34 32.67 11.34 30.33 Z" fill="var(--icon-primary, #dae8fc)" stroke="none" stroke-width="0"/><path d="M 8.67 26 C 8 23.33 8.34 20.33 10 18 C 10.34 17.67 10.67 17.33 11 17 C 7.67 20 7.67 20 7.67 20 C 7.34 20.33 7 20.67 6.67 21 C 5 23.33 4.67 26.33 5.34 29 Z" fill="var(--icon-primary, #dae8fc)" stroke="none" stroke-width="0"/><path d="M 15.34 17 C 14 16.33 12.67 16.33 11.34 16.67 C 11.34 16.67 11 17 11 17 C 7.67 20 7.67 20 7.67 20 C 9 18.67 11 18.33 13 19.33 C 11 20.67 11 20.67 11 20.67 C 16.67 20.67 16.67 20.67 16.67 20.67 C 17.67 15 17.67 15 17.67 15 Z" fill="var(--icon-primary, #dae8fc)" stroke="none" stroke-width="0"/><path d="M 19.67 19 C 22 23.33 21 27.67 19.67 29.67 C 19.34 30 19 30.33 18.67 30.67 C 15.34 33.67 15.34 33.67 15.34 33.67 C 15.67 33.67 16 33.33 16.34 32.67 C 19 28.67 17.34 24.67 16.34 22 Z" fill="var(--icon-primary, #dae8fc)" stroke="none" stroke-width="0"/></svg>