<svg xmlns="http://www.w3.org/2000/svg" viewBox="0 0 46 22.33" width="46" height="22.33"><path d="M 0 11.33 L 13.67 0 L 46 0 L 34.34 11.33 Z M 34.34 22.33 L 46 10 L 46 0 L 34.34 11.33 Z M 34.34 22.33 L 34.34 11.33 L 0 11.33 L 0 22.33 Z" fill="var(--icon-primary, #dae8fc)" stroke="var(--icon-secondary, #6c8ebf)" stroke-width="1" stroke-linejoin="round"/><path d="M 18.67 17.66 L 5.34 17.66 L 5.34 16 L 18.67 16 L 18.67 13.33 L 24.67 16.66 L 18.67 20 Z" fill="var(--icon-secondary, #6c8ebf)" stroke="none" stroke-width="0"/><path d="M 6.67 16 L 6.67 13.33 L 0.67 16.66 L 6.67 20 L 6.67 17.66 Z" fill="var(--icon-secondary, #6c8ebf)" stroke="none" stroke-width="0"/><path d="M 33 16 L 33 13.33 L 27 16.66 L 33 20 L 33 17.66 Z" fill="var(--icon-secondary, #6c8ebf)" stroke="none" stroke-width="0"/></svg>