<svg xmlns="http://www.w3.org/2000/svg" viewBox="0 0 38.67 24.33" width="38.67" height="24.33"><path d="M 33 24.33 L 33 5 L 0 5 L 0 24.33 Z M 38.67 0 L 5.67 0 L 0 5 L 33 5 Z M 38.67 19.33 L 38.67 0 L 33 5 L 33 24.33 Z" fill="var(--icon-primary, #dae8fc)" stroke="var(--icon-secondary, #6c8ebf)" stroke-width="1" stroke-linejoin="round"/><path d="M 29.67 20.33 L 29.67 14.33 L 26 17 Z M 3.67 20.33 L 3.67 14.33 L 7.33 17 Z M 6 8.33 L 6 14.33 L 2.33 11.33 Z M 27 8.33 L 27 14.33 L 30.67 11.33 Z" fill="var(--icon-secondary, #6c8ebf)" stroke="none" stroke-width="0"/><path d="M 27.67 11 L 25.67 11 M 28.67 17 L 31.33 17 M 4.67 17 L 1.67 17 M 4.67 11.33 L 7.67 11.33" fill="none" stroke="var(--icon-secondary, #6c8ebf)" stroke-width="1" stroke-linejoin="round"/><path d="M 23 11.33 L 23 22.67 L 10.33 22.67 L 10.33 11.33 Z" fill="var(--icon-secondary, #6c8ebf)" stroke="none" stroke-width="0"/><rect x="0" y="0" width="0" height="0" fill="none" stroke="var(--icon-secondary, #6c8ebf)" stroke-width="1"/><path d="M 21.67 15.33 L 11.67 15.33 L 11.67 12 L 21.67 12 Z M 21.67 22 L 11.67 22 L 11.67 16.33 L 21.67 16.33 Z" fill="none" stroke="var(--icon-secondary, #6c8ebf)" stroke-width="1"/><path d="M 19.33 7.67 C 19.33 7.67 20 7.33 20 8 C 20.33 10 20.33 10 20.33 10 C 24.33 11 24.33 11 24.33 11 C 25 10 25 10 25 10 C 23.67 7.33 23.67 7.33 23.67 7.33 C 18.33 6 16.33 6.33 16.33 6.33 C 16.67 6.33 16.67 6.33 16.67 6.33 C 16.67 6.33 14.67 6 9.33 7.33 C 8.33 10 8.33 10 8.33 10 C 8.67 11 8.67 11 8.67 11 C 13 10 13 10 13 10 C 13 8 13 8 13 8 C 13.33 7.33 13.67 7.67 13.67 7.67 Z" fill="var(--icon-secondary, #6c8ebf)" stroke="none" stroke-width="0"/></svg>