<svg xmlns="http://www.w3.org/2000/svg" viewBox="0 0 43.67 23" width="43.67" height="23"><path d="M 43.67 21 L 43.67 0 L 41.67 1.66 L 41.67 23 Z M 41.67 23 L 41.67 1.66 L 0 1.66 L 0 23 Z M 43.67 0 L 2.33 0 L 0 1.66 L 41.67 1.66 Z M 43.67 0 L 41.67 1.66" fill="var(--icon-primary, #dae8fc)" stroke="var(--icon-secondary, #6c8ebf)" stroke-width="1" stroke-linejoin="round"/><rect x="0" y="0" width="0" height="0" fill="none" stroke="var(--icon-secondary, #6c8ebf)" stroke-width="1"/><path d="M 24.33 5.66 C 26.67 3.66 26.67 3.66 26.67 3.66 C 34.33 12.66 28.33 19.66 28.33 19.66 C 38.67 19.66 38.67 19.66 38.67 19.66 M 8 7.66 C 8 5.66 10 5.33 10 5.33 C 10 5.33 21 5.33 23.33 5.33 C 26 5.33 25.67 8 25.67 8 C 25.67 8 25.67 17 25.67 18.33 C 25.67 20 23.67 20.66 23.67 20.66 C 23.67 20.66 12.33 20.66 10.33 20.66 C 8.67 20.66 8 18.66 8 18.66 Z M 38.67 6.33 L 28.33 6.33 M 6.33 6.33 L 1.33 6.33" fill="none" stroke="var(--icon-secondary, #6c8ebf)" stroke-width="1"/></svg>