<svg xmlns="http://www.w3.org/2000/svg" viewBox="0 0 49 49.67" width="49" height="49.67"><path d="M 24.66 19.34 C 38 19.34 49 15 49 9.67 C 49 4.34 38 0 24.66 0 C 11 0 0 4.34 0 9.67 C 0 15 11 19.34 24.66 19.34 Z M 49 9.67 C 49 15 38 19.34 24.66 19.34 C 11 19.34 0 15 0 9.67 C 0 40 0 40 0 40 C 0 45.34 11 49.67 24.66 49.67 C 38 49.67 49 45.34 49 40 Z" fill="var(--icon-primary, #dae8fc)" stroke="var(--icon-secondary, #6c8ebf)" stroke-width="1" stroke-linejoin="round"/><path d="M 19.33 5.67 L 21.33 8.67 L 13.66 10.34 L 15.33 9 L 3.33 7 L 6.33 4.67 L 18 6.67 Z M 30 13 L 28.66 10 L 35.66 8.34 L 34.33 9.67 L 46 11.67 L 43 13.67 L 31.66 11.67 Z M 26.33 4 L 34 2 L 34 5.34 L 32.33 4.67 L 28.33 8 L 24.66 7.34 L 28.66 4.34 Z M 23 16 L 15.66 17.34 L 15.33 14 L 17.33 14.34 L 21.33 11 L 25 11.34 L 20.66 15.34 Z" fill="var(--icon-secondary, #6c8ebf)" stroke="none" stroke-width="0"/><path d="M 28.66 37.34 L 19.66 37.34 L 19.66 28 L 28.66 28 Z M 13.33 21.67 L 13.33 25.34 L 6.66 25.34 L 6.66 21.67 Z M 13.33 31 L 13.33 35 L 6.66 35 L 6.66 31 Z M 13.33 40 L 13.33 43.67 L 6.66 43.67 L 6.66 40 Z M 27.66 40 L 27.66 43.67 L 20.66 43.67 L 20.66 40 Z M 42.33 21.67 L 42.33 25.34 L 35.33 25.34 L 35.33 21.67 Z M 27.66 21.67 L 27.66 25.34 L 20.66 25.34 L 20.66 21.67 Z M 42.33 31 L 42.33 35 L 35.33 35 L 35.33 31 Z M 42.33 40 L 42.33 43.67 L 35.33 43.67 L 35.33 40 Z" fill="var(--icon-secondary, #6c8ebf)" stroke="var(--icon-secondary, #6c8ebf)" stroke-width="0.67" stroke-linejoin="round"/><path d="M 10.33 32.67 L 39 32.67 M 24.33 24 L 24.33 42 M 11.33 42 L 38 23.67 M 37.33 42 L 11 23.67" fill="none" stroke="var(--icon-secondary, #6c8ebf)" stroke-width="1" stroke-linejoin="round"/></svg>