<svg xmlns="http://www.w3.org/2000/svg" viewBox="0 0 63.66 31" width="63.66" height="31"><path d="M 0 15.34 L 19.33 0 L 63.66 0 L 47.66 15.34 Z M 47.66 31 L 63.66 13.67 L 63.66 0 L 47.66 15.34 Z M 47.66 31 L 47.66 15.34 L 0 15.34 L 0 31 Z" fill="var(--icon-primary, #dae8fc)" stroke="var(--icon-secondary, #6c8ebf)" stroke-width="1" stroke-linejoin="round"/><path d="M 40.66 2.34 C 29.66 2 17 4 12.33 7.34 C 8 10.67 13.33 13.67 24.33 14 C 35.33 14.34 48.33 12.34 52.66 9 C 57.33 5.67 52 2.67 40.66 2.34 Z M 38.66 4.67 C 29.66 4.34 19.33 5.67 16 7.67 C 12.33 9.67 17 11.34 26.33 11.67 C 35.33 12 45.66 10.67 49 8.67 C 52.66 6.67 48 5 38.66 4.67 Z" fill="none" stroke="var(--icon-secondary, #6c8ebf)" stroke-width="1" stroke-linejoin="round"/></svg>