<svg xmlns="http://www.w3.org/2000/svg" viewBox="0 0 58 37.67" width="58" height="37.67"><path d="M 0 13.33 L 0 37.67 L 44.33 37.67 L 44.33 13.33 Z M 0 13.33 L 16.33 0 L 58 0 L 44.33 13.33 Z M 44.33 13.33 L 44.33 37.67 L 58 23.33 L 58 0 Z" fill="var(--icon-primary, #dae8fc)" stroke="var(--icon-secondary, #6c8ebf)" stroke-width="1" stroke-linejoin="round"/><path d="M 28 23.67 C 28 24.67 25.66 25.33 23 25.33 C 20.33 25.33 18 24.67 18 23.67 C 18 30 18 30 18 30 C 18 31 20.33 31.67 23 31.67 C 25.66 31.67 28 31 28 30 Z" fill="var(--icon-secondary, #6c8ebf)" stroke="none" stroke-width="0"/><rect x="0" y="0" width="0" height="0" fill="none" stroke="var(--icon-secondary, #6c8ebf)" stroke-width="1"/><path d="M 23 25.33 C 25.66 25.33 28 24.67 28 23.67 C 28 23 25.66 22.33 23 22.33 C 20.33 22.33 18 23 18 23.67 C 18 24.67 20.33 25.33 23 25.33 Z" fill="var(--icon-primary, #dae8fc)" stroke="var(--icon-secondary, #6c8ebf)" stroke-width="1"/><path d="M 23 32.33 C 25.66 32.33 28 31.67 28 30.67 C 28 30 25.66 29.33 23 29.33 C 20.33 29.33 18 30 18 30.67 C 18 31.67 20.33 32.33 23 32.33 Z" fill="var(--icon-secondary, #6c8ebf)" stroke="var(--icon-secondary, #6c8ebf)" stroke-width="1"/><path d="M 38.66 26.33 L 30.66 26.33 L 30.66 25 L 38.66 25 L 38.66 23 L 43.33 25.67 L 38.66 28.33 Z M 37.33 19.67 L 30.33 24.33 L 29.66 23 L 36.66 18.67 L 35.33 17 L 40.66 16.67 L 38.33 21.67 Z M 37.33 31.33 L 30.33 27 L 29.66 28 L 36.66 32.67 L 35.33 34.33 L 40.66 34.67 L 38.33 29.67 Z M 6.33 26.33 L 14.33 26.33 L 14.33 25 L 6.33 25 L 6.33 23 L 1.66 25.67 L 6.33 28.33 Z M 23.33 16 L 23.33 13.33 L 22 13.33 L 22 16 L 20 16 L 22.66 21 L 25.33 16 Z M 7.66 19.67 L 14.33 24.33 L 15.33 23 L 8.33 18.67 L 9.33 17 L 4 16.67 L 6.66 21.67 Z M 7.66 31.33 L 14.33 27 L 15.33 28 L 8.33 32.67 L 9.33 34.33 L 4 34.67 L 6.66 29.67 Z" fill="var(--icon-secondary, #6c8ebf)" stroke="none" stroke-width="0"/></svg>