<svg xmlns="http://www.w3.org/2000/svg" viewBox="0 0 21 36.33" width="21" height="36.33"><path d="M 19 15.33 C 19.33 14.33 20.67 8.66 20.67 8 C 21 7 20.67 6 20 6 C 20.33 5.66 20.33 5.66 20.33 5.66 C 20 5.33 20 5.33 20 5.33 C 20 5.33 20 5.33 20 5.33 C 20 5.33 20.33 4 20.33 3.33 C 20.67 1.66 20.67 0.66 20.67 0.66 C 20.67 0.66 20.67 0.33 20.33 0.33 C 19.33 0 19.33 0 19.33 0 C 19.33 0 19 0 19 0.33 C 19 0.33 18.67 1 18 2.66 C 17.67 3.33 17.67 4.66 17.67 4.66 C 17.67 4.66 17.67 4.66 17.67 4.66 C 17 4.33 16.33 4.33 15.67 4 C 14.33 3.66 12.67 3.33 11.33 3 C 11.33 3 11 3 11 3.33 C 11 3.33 11 3.33 11 3.33 C 10.67 3.33 9.67 4 9.33 4.66 C 9 5.33 7.33 11 7 12 C 6.67 13.33 6 16 5.67 17.66 C 5.67 19 5.33 21.33 4.33 24.66 C 3.67 26.66 3 29.66 2.33 31 C 2.33 31.33 1.33 33 2.67 33.33 C 4.33 34 6.33 34.66 7.33 35 C 8.33 35 10.33 35.66 11.67 36 C 13.33 36 13.33 34.33 13.33 34 C 13.67 32.66 14.33 29.66 15 27.66 C 15.67 24.33 17 22 17.33 20.66 C 18 19.33 18.67 16.66 19 15.33 Z" fill="var(--icon-primary, #dae8fc)" stroke="var(--icon-secondary, #6c8ebf)" stroke-width="1"/><path d="M 19.33 0.66 C 19.33 0.66 18.67 0.66 18.33 0.66 C 18 0.33 17.67 0.33 17.67 0.33" fill="var(--icon-primary, #dae8fc)" stroke="var(--icon-secondary, #6c8ebf)" stroke-width="1"/><path d="M 19.33 0.66 C 19.33 0.66 18.67 0.66 18.33 0.66 C 18 0.33 17.67 0.33 17.67 0.33" fill="var(--icon-primary, #dae8fc)" stroke="var(--icon-secondary, #6c8ebf)" stroke-width="1"/><path d="M 17.67 15.66 C 18 14.66 19.33 9 19.33 8 C 19.33 7.33 19 6.33 18.67 6 C 18.67 5.66 18.67 5.66 18.67 5.66 C 18.67 5.66 18.33 5.66 18.33 5.66 C 18.33 5.66 18.33 5.66 18.33 5.66 C 18.33 5.66 18.67 4.33 19 3.33 C 19.33 1.66 19.33 1 19.33 1 C 19.33 0.66 19 0.33 19 0.33 C 18 0 18 0 18 0 C 17.67 0 17.67 0.33 17.33 0.33 C 17.33 0.33 17 1.33 16.67 2.66 C 16.33 3.66 16 4.66 16 4.66 C 16 4.66 16 4.66 16 4.66 C 15.33 4.33 15 4.33 14.33 4 C 12.67 3.66 11.33 3.33 9.67 3.33 C 9.67 3.33 9.67 3.33 9.33 3.66 C 9.33 3.66 9.33 3.66 9.33 3.66 C 9 3.66 8.33 4.33 8 5 C 7.67 5.66 5.67 11 5.33 12.33 C 5 13.33 4.67 16.33 4.33 17.66 C 4 19 3.67 21.66 3 25 C 2.33 27 1.33 30 1 31 C 1 31.33 0 33 1.33 33.66 C 2.67 34 4.67 34.66 5.67 35 C 6.67 35.33 8.67 35.66 10.33 36 C 11.67 36.33 11.67 34.33 11.67 34 C 12 32.66 12.67 29.66 13.33 28 C 14.33 24.66 15.33 22.33 16 21 C 16.33 19.66 17.33 16.66 17.67 15.66 Z" fill="var(--icon-primary, #dae8fc)" stroke="var(--icon-secondary, #6c8ebf)" stroke-width="1"/><path d="M 7 23.66 C 6.67 24 6.33 24.33 5.67 24.33 C 5 24 4.67 23.66 5 23 C 5 22.33 5.67 22 6.33 22.33 C 6.67 22.33 7 23 7 23.66 Z" fill="var(--icon-secondary, #6c8ebf)" stroke="var(--icon-secondary, #6c8ebf)" stroke-width="1"/><path d="M 9.67 24.66 C 9.67 25.33 9 25.66 8.33 25.33 C 7.67 25.33 7.33 24.66 7.67 24 C 7.67 23.66 8.33 23.33 9 23.33 C 9.67 23.66 10 24 9.67 24.66 Z" fill="var(--icon-secondary, #6c8ebf)" stroke="var(--icon-secondary, #6c8ebf)" stroke-width="1"/><path d="M 12.67 25 C 12.67 25.66 12 26 11.33 26 C 10.67 25.66 10.33 25 10.67 24.66 C 10.67 24 11.33 23.66 12 23.66 C 12.33 24 12.67 24.66 12.67 25 Z" fill="var(--icon-secondary, #6c8ebf)" stroke="var(--icon-secondary, #6c8ebf)" stroke-width="1"/><path d="M 6.33 26 C 6 26.66 5.67 27 5 26.66 C 4.33 26.66 4 26 4.33 25.33 C 4.33 24.66 5 24.33 5.67 24.66 C 6 24.66 6.33 25.33 6.33 26 Z" fill="var(--icon-secondary, #6c8ebf)" stroke="var(--icon-secondary, #6c8ebf)" stroke-width="1"/><path d="M 9 27 C 9 27.66 8.33 28 7.67 28 C 7 27.66 6.67 27 7 26.66 C 7 26 7.67 25.66 8.33 25.66 C 9 26 9.33 26.66 9 27 Z" fill="var(--icon-secondary, #6c8ebf)" stroke="var(--icon-secondary, #6c8ebf)" stroke-width="1"/><path d="M 12 27.66 C 12 28 11.33 28.33 10.67 28.33 C 10 28 9.67 27.66 10 27 C 10 26.33 10.67 26 11.33 26.33 C 11.67 26.33 12 27 12 27.66 Z" fill="var(--icon-secondary, #6c8ebf)" stroke="var(--icon-secondary, #6c8ebf)" stroke-width="1"/><path d="M 5.67 28.33 C 5.33 29 5 29.33 4.33 29 C 3.67 29 3.33 28.33 3.67 27.66 C 3.67 27.33 4.33 26.66 5 27 C 5.33 27 5.67 27.66 5.67 28.33 Z" fill="var(--icon-secondary, #6c8ebf)" stroke="var(--icon-secondary, #6c8ebf)" stroke-width="1"/><path d="M 8.33 29.33 C 8.33 30 7.67 30.33 7 30.33 C 6.33 30 6 29.33 6.33 29 C 6.33 28.33 7 28 7.67 28 C 8.33 28.33 8.67 29 8.33 29.33 Z" fill="var(--icon-secondary, #6c8ebf)" stroke="var(--icon-secondary, #6c8ebf)" stroke-width="1"/><path d="M 11.33 30 C 11.33 30.33 10.67 30.66 10 30.66 C 9.33 30.66 9 30 9.33 29.33 C 9.33 28.66 10 28.33 10.67 28.66 C 11 28.66 11.67 29.33 11.33 30 Z" fill="var(--icon-secondary, #6c8ebf)" stroke="var(--icon-secondary, #6c8ebf)" stroke-width="1"/><path d="M 5 30.66 C 4.67 31.33 4.33 31.66 3.67 31.33 C 3 31.33 2.67 30.66 3 30 C 3 29.66 3.67 29.33 4.33 29.33 C 4.67 29.66 5 30 5 30.66 Z M 7.67 32 C 7.67 32.33 7 32.66 6.33 32.66 C 5.67 32.33 5.33 32 5.67 31.33 C 5.67 30.66 6.33 30.33 7 30.66 C 7.67 30.66 8 31.33 7.67 32 Z" fill="var(--icon-secondary, #6c8ebf)" stroke="var(--icon-secondary, #6c8ebf)" stroke-width="1"/><path d="M 10.67 32.33 C 10.67 33 10 33.33 9.33 33 C 8.67 33 8.33 32.33 8.67 31.66 C 8.67 31 9.33 30.66 10 31 C 10.67 31 11 31.66 10.67 32.33 Z" fill="var(--icon-secondary, #6c8ebf)" stroke="var(--icon-secondary, #6c8ebf)" stroke-width="1"/><path d="M 6.33 33.33 C 6.33 33.66 6.33 33.66 6 33.66 C 6 33.66 6 33.33 6 33.33 C 6 33.33 6 33.33 6.33 33.33 C 6.33 33.33 6.33 33.33 6.33 33.33 Z M 6 33.33 C 5.67 34.66 5.67 34.66 5.67 34.66 M 6 33.66 C 5.67 34.66 5.67 34.66 5.67 34.66 M 6.33 33.33 C 6 34.66 6 34.66 6 34.66 M 6.33 33.66 C 6 34.66 6 34.66 6 34.66 M 8.33 15.33 C 8.33 16.33 8.33 16.33 8.33 16.33 M 8.67 15.66 C 8.33 16.33 8.33 16.33 8.33 16.33 M 13.33 17 C 13.33 17.66 13.33 17.66 13.33 17.66 M 13.33 16.66 C 13 17.66 13 17.66 13 17.66" fill="var(--icon-secondary, #6c8ebf)" stroke="var(--icon-secondary, #6c8ebf)" stroke-width="1"/><path d="M 6.33 33.33 C 6.33 33.66 6.33 33.66 6 33.66 C 6 33.66 6 33.33 6 33.33 C 6 33.33 6 33.33 6.33 33.33 C 6.33 33.33 6.33 33.33 6.33 33.33 Z M 6 33.33 C 5.67 34.66 5.67 34.66 5.67 34.66 M 6 33.66 C 5.67 34.66 5.67 34.66 5.67 34.66 M 6.33 33.33 C 6 34.66 6 34.66 6 34.66 M 6.33 33.66 C 6 34.66 6 34.66 6 34.66 M 8.33 15.33 C 8.33 16.33 8.33 16.33 8.33 16.33 M 8.67 15.66 C 8.33 16.33 8.33 16.33 8.33 16.33 M 13.33 17 C 13.33 17.66 13.33 17.66 13.33 17.66 M 13.33 16.66 C 13 17.66 13 17.66 13 17.66" fill="var(--icon-secondary, #6c8ebf)" stroke="var(--icon-secondary, #6c8ebf)" stroke-width="1"/><path d="M 18.33 5.66 C 18.33 5.66 18.67 4.33 19 3.33 C 19.33 1.66 19.33 1 19.33 1 C 19.33 0.66 19 0.33 19 0.33 C 18 0 18 0 18 0 C 17.67 0 17.67 0.33 17.33 0.33 C 17.33 0.33 17 1.33 16.67 2.66 C 16.33 3.66 16 4.66 16 4.66 M 15.67 17 C 15.67 17.33 15.33 17.33 15 17.33 C 6.67 15 6.67 15 6.67 15 C 6.67 15 6.33 14.66 6.33 14.66 C 8 9.33 8 9.33 8 9.33 C 8 9 8.33 9 8.33 9 C 16.67 11.33 16.67 11.33 16.67 11.33 C 17 11.33 17 11.66 17 11.66 Z M 18.67 5 C 17.67 4.66 17 4.66 16 4.33 M 10 3.33 C 10 3.33 8 7.33 6.67 11.33 C 5.33 16.33 5.33 18 5.33 20.33 C 5.33 20.66 6 21.33 6.33 21.66 C 6.67 21.66 7 21.66 7 21.66 C 7 21.66 7.33 21.66 7.67 22 C 8 22.33 8.33 22.33 8.33 22.33 C 8.67 22.66 8.67 22.66 9 22.66 C 9.67 23 9.67 23 10 23 C 10 23 10.33 23 10.67 22.66 C 11 22.66 11.33 23 11.67 23 C 11.67 23 12 23 12 23 C 12.67 23.33 13.33 23 13.67 22.66 C 15 20.66 15.67 19.33 17 14.33 C 18 10 18.33 5.66 18.33 5.66 M 8.67 5.33 C 10.33 5.33 12 6 13.67 6.33 C 15.33 6.66 17 7.33 18.33 8" fill="var(--icon-primary, #dae8fc)" stroke="var(--icon-secondary, #6c8ebf)" stroke-width="1"/><path d="M 12.33 20.33 C 12 21.66 10.67 22.33 9.33 22 C 8 21.66 7.33 20.33 7.67 19 C 8 17.66 9.33 17 10.67 17.33 C 12 17.66 12.67 19 12.33 20.33 Z M 7.67 16.33 C 8 16.33 8.33 16.66 8.67 16.66 C 8.67 16.66 8.67 17 8.67 17 C 8.33 17 8.33 17 8 17.33 C 8 17.33 8 17.33 7.67 17.33 C 7.33 17 6.67 16.66 6.67 16.33 C 6.33 16.33 6.67 16.33 6.67 16.33 C 7 16 7.33 16.33 7.67 16.33 Z M 6 19 C 6.33 19 6.67 19.33 7 19.33 C 7 19.33 7.33 19.66 7 19.66 C 7 20 7 20.66 7.33 21 C 7.33 21 7.33 21.33 7.33 21.33 C 7 21.33 6.67 21 6.33 21 C 6.33 21 6 20.66 6 20.66 C 6 20.33 6 19.33 6 19 C 6 19 6 19 6 19 Z" fill="var(--icon-primary, #dae8fc)" stroke="var(--icon-secondary, #6c8ebf)" stroke-width="1"/><path d="M 13.67 18 C 13.33 17.66 13 17.66 12.67 17.66 C 12.67 17.66 12.67 18 12.67 18 C 12.67 18 12.67 18.33 12.67 18.66 C 12.67 18.66 13 18.66 13 18.66 C 13.33 18.66 14.33 18.66 14.67 18.66 C 14.67 18.66 14.67 18.33 14.67 18.33 C 14.33 18.33 14 18 13.67 18 Z M 13.67 21 C 13.33 21 13 21 13 21 C 12.67 21 12.33 21 12.33 21.33 C 12.33 21.33 12 22 11.67 22 C 11.33 22.33 11.33 22.33 11.67 22.33 C 11.67 22.33 12.33 22.66 12.33 22.66 C 12.67 22.66 12.67 22.66 13 22.33 C 13.33 22.33 13.67 21.66 13.67 21.33 C 13.67 21 13.67 21 13.67 21 Z" fill="var(--icon-secondary, #6c8ebf)" stroke="var(--icon-secondary, #6c8ebf)" stroke-width="1"/><path d="M 13.67 7 L 14.33 4.33" fill="none" stroke="var(--icon-secondary, #6c8ebf)" stroke-width="1"/><path d="M 19 15.33 C 19.33 14.33 20.67 8.66 20.67 8 C 21 7 20.67 6 20 6 C 20.33 5.66 20.33 5.66 20.33 5.66 C 20 5.33 20 5.33 20 5.33 C 20 5.33 20 5.33 20 5.33 C 20 5.33 20.33 4 20.33 3.33 C 20.67 1.66 20.67 0.66 20.67 0.66 C 20.67 0.66 20.67 0.33 20.33 0.33 C 19.33 0 19.33 0 19.33 0 C 19.33 0 19 0 19 0.33 C 19 0.33 18.67 1 18 2.66 C 17.67 3.33 17.67 4.66 17.67 4.66 C 17.67 4.66 17.67 4.66 17.67 4.66 C 17 4.33 16.33 4.33 15.67 4 C 14.33 3.66 12.67 3.33 11.33 3 C 11.33 3 11 3 11 3.33 C 11 3.33 11 3.33 11 3.33 C 10.67 3.33 9.67 4 9.33 4.66 C 9 5.33 7.33 11 7 12 C 6.67 13.33 6 16 5.67 17.66 C 5.67 19 5.33 21.33 4.33 24.66 C 3.67 26.66 3 29.66 2.33 31 C 2.33 31.33 1.33 33 2.67 33.33 C 4.33 34 6.33 34.66 7.33 35 C 8.33 35 10.33 35.66 11.67 36 C 13.33 36 13.33 34.33 13.33 34 C 13.67 32.66 14.33 29.66 15 27.66 C 15.67 24.33 17 22 17.33 20.66 C 18 19.33 18.67 16.66 19 15.33 Z" fill="none" stroke="var(--icon-secondary, #6c8ebf)" stroke-width="1"/><path d="M 19.33 0.66 C 19.33 0.66 18.67 0.66 18.33 0.66 C 18 0.33 17.67 0.33 17.67 0.33" fill="none" stroke="var(--icon-secondary, #6c8ebf)" stroke-width="1"/><path d="M 17.67 15.66 C 18 14.66 19.33 9 19.33 8 C 19.33 7.33 19 6.33 18.67 6 C 18.67 5.66 18.67 5.66 18.67 5.66 C 18.67 5.66 18.33 5.66 18.33 5.66 C 18.33 5.66 18.33 5.66 18.33 5.66 C 18.33 5.66 18.67 4.33 19 3.33 C 19.33 1.66 19.33 1 19.33 1 C 19.33 0.66 19 0.33 19 0.33 C 18 0 18 0 18 0 C 17.67 0 17.67 0.33 17.33 0.33 C 17.33 0.33 17 1.33 16.67 2.66 C 16.33 3.66 16 4.66 16 4.66 C 16 4.66 16 4.66 16 4.66 C 15.33 4.33 15 4.33 14.33 4 C 12.67 3.66 11.33 3.33 9.67 3.33 C 9.67 3.33 9.67 3.33 9.33 3.66 C 9.33 3.66 9.33 3.66 9.33 3.66 C 9 3.66 8.33 4.33 8 5 C 7.67 5.66 5.67 11 5.33 12.33 C 5 13.33 4.67 16.33 4.33 17.66 C 4 19 3.67 21.66 3 25 C 2.33 27 1.33 30 1 31 C 1 31.33 0 33 1.33 33.66 C 2.67 34 4.67 34.66 5.67 35 C 6.67 35.33 8.67 35.66 10.33 36 C 11.67 36.33 11.67 34.33 11.67 34 C 12 32.66 12.67 29.66 13.33 28 C 14.33 24.66 15.33 22.33 16 21 C 16.33 19.66 17.33 16.66 17.67 15.66 Z" fill="none" stroke="var(--icon-secondary, #6c8ebf)" stroke-width="1"/><path d="M 7 23.66 C 6.67 24 6.33 24.33 5.67 24.33 C 5 24 4.67 23.66 5 23 C 5 22.33 5.67 22 6.33 22.33 C 6.67 22.33 7 23 7 23.66 Z" fill="none" stroke="var(--icon-secondary, #6c8ebf)" stroke-width="1"/><path d="M 9.67 24.66 C 9.67 25.33 9 25.66 8.33 25.33 C 7.67 25.33 7.33 24.66 7.67 24 C 7.67 23.66 8.33 23.33 9 23.33 C 9.67 23.66 10 24 9.67 24.66 Z" fill="none" stroke="var(--icon-secondary, #6c8ebf)" stroke-width="1"/><path d="M 12.67 25 C 12.67 25.66 12 26 11.33 26 C 10.67 25.66 10.33 25 10.67 24.66 C 10.67 24 11.33 23.66 12 23.66 C 12.33 24 12.67 24.66 12.67 25 Z" fill="none" stroke="var(--icon-secondary, #6c8ebf)" stroke-width="1"/><path d="M 6.33 26 C 6 26.66 5.67 27 5 26.66 C 4.33 26.66 4 26 4.33 25.33 C 4.33 24.66 5 24.33 5.67 24.66 C 6 24.66 6.33 25.33 6.33 26 Z" fill="none" stroke="var(--icon-secondary, #6c8ebf)" stroke-width="1"/><path d="M 9 27 C 9 27.66 8.33 28 7.67 28 C 7 27.66 6.67 27 7 26.66 C 7 26 7.67 25.66 8.33 25.66 C 9 26 9.33 26.66 9 27 Z" fill="none" stroke="var(--icon-secondary, #6c8ebf)" stroke-width="1"/><path d="M 12 27.66 C 12 28 11.33 28.33 10.67 28.33 C 10 28 9.67 27.66 10 27 C 10 26.33 10.67 26 11.33 26.33 C 11.67 26.33 12 27 12 27.66 Z" fill="none" stroke="var(--icon-secondary, #6c8ebf)" stroke-width="1"/><path d="M 5.67 28.33 C 5.33 29 5 29.33 4.33 29 C 3.67 29 3.33 28.33 3.67 27.66 C 3.67 27.33 4.33 26.66 5 27 C 5.33 27 5.67 27.66 5.67 28.33 Z" fill="none" stroke="var(--icon-secondary, #6c8ebf)" stroke-width="1"/><path d="M 8.33 29.33 C 8.33 30 7.67 30.33 7 30.33 C 6.33 30 6 29.33 6.33 29 C 6.33 28.33 7 28 7.67 28 C 8.33 28.33 8.67 29 8.33 29.33 Z" fill="none" stroke="var(--icon-secondary, #6c8ebf)" stroke-width="1"/><path d="M 11.33 30 C 11.33 30.33 10.67 30.66 10 30.66 C 9.33 30.66 9 30 9.33 29.33 C 9.33 28.66 10 28.33 10.67 28.66 C 11 28.66 11.67 29.33 11.33 30 Z" fill="none" stroke="var(--icon-secondary, #6c8ebf)" stroke-width="1"/><path d="M 5 30.66 C 4.67 31.33 4.33 31.66 3.67 31.33 C 3 31.33 2.67 30.66 3 30 C 3 29.66 3.67 29.33 4.33 29.33 C 4.67 29.66 5 30 5 30.66 Z M 7.67 32 C 7.67 32.33 7 32.66 6.33 32.66 C 5.67 32.33 5.33 32 5.67 31.33 C 5.67 30.66 6.33 30.33 7 30.66 C 7.67 30.66 8 31.33 7.67 32 Z" fill="none" stroke="var(--icon-secondary, #6c8ebf)" stroke-width="1"/><path d="M 10.67 32.33 C 10.67 33 10 33.33 9.33 33 C 8.67 33 8.33 32.33 8.67 31.66 C 8.67 31 9.33 30.66 10 31 C 10.67 31 11 31.66 10.67 32.33 Z" fill="none" stroke="var(--icon-secondary, #6c8ebf)" stroke-width="1"/><path d="M 6.33 33.33 C 6.33 33.66 6.33 33.66 6 33.66 C 6 33.66 6 33.33 6 33.33 C 6 33.33 6 33.33 6.33 33.33 C 6.33 33.33 6.33 33.33 6.33 33.33 Z M 6 33.33 C 5.67 34.66 5.67 34.66 5.67 34.66 M 6 33.66 C 5.67 34.66 5.67 34.66 5.67 34.66 M 6.33 33.33 C 6 34.66 6 34.66 6 34.66 M 6.33 33.66 C 6 34.66 6 34.66 6 34.66 M 8.33 15.33 C 8.33 16.33 8.33 16.33 8.33 16.33 M 8.67 15.66 C 8.33 16.33 8.33 16.33 8.33 16.33 M 13.33 17 C 13.33 17.66 13.33 17.66 13.33 17.66 M 13.33 16.66 C 13 17.66 13 17.66 13 17.66" fill="none" stroke="var(--icon-secondary, #6c8ebf)" stroke-width="1"/><path d="M 18.33 5.66 C 18.33 5.66 18.67 4.33 19 3.33 C 19.33 1.66 19.33 1 19.33 1 C 19.33 0.66 19 0.33 19 0.33 C 18 0 18 0 18 0 C 17.67 0 17.67 0.33 17.33 0.33 C 17.33 0.33 17 1.33 16.67 2.66 C 16.33 3.66 16 4.66 16 4.66 M 15.67 17 C 15.67 17.33 15.33 17.33 15 17.33 C 6.67 15 6.67 15 6.67 15 C 6.67 15 6.33 14.66 6.33 14.66 C 8 9.33 8 9.33 8 9.33 C 8 9 8.33 9 8.33 9 C 16.67 11.33 16.67 11.33 16.67 11.33 C 17 11.33 17 11.66 17 11.66 Z M 18.67 5 C 17.67 4.66 17 4.66 16 4.33 M 10 3.33 C 10 3.33 8 7.33 6.67 11.33 C 5.33 16.33 5.33 18 5.33 20.33 C 5.33 20.66 6 21.33 6.33 21.66 C 6.67 21.66 7 21.66 7 21.66 C 7 21.66 7.33 21.66 7.67 22 C 8 22.33 8.33 22.33 8.33 22.33 C 8.67 22.66 8.67 22.66 9 22.66 C 9.67 23 9.67 23 10 23 C 10 23 10.33 23 10.67 22.66 C 11 22.66 11.33 23 11.67 23 C 11.67 23 12 23 12 23 C 12.67 23.33 13.33 23 13.67 22.66 C 15 20.66 15.67 19.33 17 14.33 C 18 10 18.33 5.66 18.33 5.66 M 8.67 5.33 C 10.33 5.33 12 6 13.67 6.33 C 15.33 6.66 17 7.33 18.33 8" fill="none" stroke="var(--icon-secondary, #6c8ebf)" stroke-width="1"/><path d="M 12.33 20.33 C 12 21.66 10.67 22.33 9.33 22 C 8 21.66 7.33 20.33 7.67 19 C 8 17.66 9.33 17 10.67 17.33 C 12 17.66 12.67 19 12.33 20.33 Z M 7.67 16.33 C 8 16.33 8.33 16.66 8.67 16.66 C 8.67 16.66 8.67 17 8.67 17 C 8.33 17 8.33 17 8 17.33 C 8 17.33 8 17.33 7.67 17.33 C 7.33 17 6.67 16.66 6.67 16.33 C 6.33 16.33 6.67 16.33 6.67 16.33 C 7 16 7.33 16.33 7.67 16.33 Z M 6 19 C 6.33 19 6.67 19.33 7 19.33 C 7 19.33 7.33 19.66 7 19.66 C 7 20 7 20.66 7.33 21 C 7.33 21 7.33 21.33 7.33 21.33 C 7 21.33 6.67 21 6.33 21 C 6.33 21 6 20.66 6 20.66 C 6 20.33 6 19.33 6 19 C 6 19 6 19 6 19 Z" fill="none" stroke="var(--icon-secondary, #6c8ebf)" stroke-width="1"/><path d="M 13.67 18 C 13.33 17.66 13 17.66 12.67 17.66 C 12.67 17.66 12.67 18 12.67 18 C 12.67 18 12.67 18.33 12.67 18.66 C 12.67 18.66 13 18.66 13 18.66 C 13.33 18.66 14.33 18.66 14.67 18.66 C 14.67 18.66 14.67 18.33 14.67 18.33 C 14.33 18.33 14 18 13.67 18 Z M 13.67 21 C 13.33 21 13 21 13 21 C 12.67 21 12.33 21 12.33 21.33 C 12.33 21.33 12 22 11.67 22 C 11.33 22.33 11.33 22.33 11.67 22.33 C 11.67 22.33 12.33 22.66 12.33 22.66 C 12.67 22.66 12.67 22.66 13 22.33 C 13.33 22.33 13.67 21.66 13.67 21.33 C 13.67 21 13.67 21 13.67 21 Z" fill="none" stroke="var(--icon-secondary, #6c8ebf)" stroke-width="1"/><path d="M 13.33 7 L 14 4 M 13.67 7 L 14.33 4.33" fill="none" stroke="var(--icon-secondary, #6c8ebf)" stroke-width="1"/></svg>