<svg xmlns="http://www.w3.org/2000/svg" viewBox="0 0 27 39.34" width="27" height="39.34"><path d="M 20.34 6.67 L 0 6.67 L 0 39.34 L 20.34 39.34 Z M 20.34 39.34 L 27 32.67 L 27 0 L 6.34 0 L 0 6.67 L 20.34 6.67 Z M 20.34 6.67 L 27 0 M 0 16 L 20.34 16" fill="var(--icon-primary, #dae8fc)" stroke="var(--icon-secondary, #6c8ebf)" stroke-width="1" stroke-linejoin="round"/><rect x="0" y="0" width="0" height="0" fill="none" stroke="var(--icon-secondary, #6c8ebf)" stroke-width="1"/><path d="M 5 11.67 L 10.67 11.67 M 13 13.67 L 13 9.67 L 2.67 9.67 L 2.67 13.67 Z" fill="none" stroke="var(--icon-secondary, #6c8ebf)" stroke-width="1"/><path d="M 4 31.34 L 4 23.34 L 11.67 27.34 L 4 31.34 Z M 15 31 L 15 23.67 L 12.67 23.67 L 12.67 31 Z" fill="var(--icon-secondary, #6c8ebf)" stroke="none" stroke-width="0"/><path d="M 9.67 35.67 C 14.34 35.67 18.34 32 18.34 27.34 C 18.34 22.67 14.34 19 9.67 19 C 5 19 1.34 22.67 1.34 27.34 C 1.34 32 5 35.67 9.67 35.67 Z" fill="none" stroke="var(--icon-secondary, #6c8ebf)" stroke-width="1"/></svg>