<svg xmlns="http://www.w3.org/2000/svg" viewBox="0 0 53 42.67" width="53" height="42.67"><path d="M 6 34 L 6 28.33 L 36.67 28.33 L 36.67 34 Z" fill="var(--icon-primary, #dae8fc)" stroke="var(--icon-secondary, #6c8ebf)" stroke-width="1" stroke-linejoin="round"/><path d="M 41.67 23.33 L 41.67 29 L 36.67 34 L 36.67 28.33 L 6 28.33 Z" fill="var(--icon-primary, #dae8fc)" stroke="var(--icon-secondary, #6c8ebf)" stroke-width="1" stroke-linejoin="round"/><path d="M 35 38.33 L 35 35 L 0 35 L 4 31 L 39 31 L 39 34.33 Z M 35 35 L 35 38.33 L 0 38.33 L 0 35 Z" fill="var(--icon-primary, #dae8fc)" stroke="var(--icon-secondary, #6c8ebf)" stroke-width="1" stroke-linejoin="round"/><path d="M 35 35 L 39 31" fill="none" stroke="var(--icon-secondary, #6c8ebf)" stroke-width="1" stroke-linejoin="round"/><path d="M 36.67 28.33 L 36.67 5.33 L 6 5.33 L 6 28.33 Z M 36.67 28.33 L 41.67 23.33 L 41.67 0 L 11.33 0 L 6 5.33 L 36.67 5.33 Z M 34 25.67 L 34 8 L 8.67 8 L 8.67 25.67 Z" fill="var(--icon-primary, #dae8fc)" stroke="var(--icon-secondary, #6c8ebf)" stroke-width="1" stroke-linejoin="round"/><path d="M 36.67 5.33 L 41.67 0" fill="none" stroke="var(--icon-secondary, #6c8ebf)" stroke-width="1" stroke-linejoin="bevel"/><path d="M 53 39.33 L 48 32 L 43 35.67 L 48 42.67 Z" fill="var(--icon-primary, #dae8fc)" stroke="var(--icon-secondary, #6c8ebf)" stroke-width="1"/><path d="M 45.33 33.67 C 44.67 32 43 33 43.33 30.67 C 43.67 28 42 26.33 38.67 27.67" fill="none" stroke="var(--icon-secondary, #6c8ebf)" stroke-width="1"/><path d="M 16 15.67 C 17.67 15.67 19 14.33 19 12.67 C 19 11 17.67 9.67 16 9.67 C 14.67 9.67 13.33 11 13.33 12.67 C 13.33 14.33 14.67 15.67 16 15.67 Z" fill="none" stroke="var(--icon-secondary, #6c8ebf)" stroke-width="1"/><path d="M 26.33 15.67 C 28 15.67 29.33 14.33 29.33 12.67 C 29.33 11 28 9.67 26.33 9.67 C 24.67 9.67 23.67 11 23.67 12.67 C 23.67 14.33 24.67 15.67 26.33 15.67 Z" fill="none" stroke="var(--icon-secondary, #6c8ebf)" stroke-width="1"/><path d="M 21.33 24.33 C 23 24.33 24 23 24 21.67 C 24 20 23 18.67 21.33 18.67 C 19.67 18.67 18.33 20 18.33 21.67 C 18.33 23 19.67 24.33 21.33 24.33 Z" fill="none" stroke="var(--icon-secondary, #6c8ebf)" stroke-width="1"/><path d="M 16 15.67 L 17.67 18.33 L 18.33 16.67 L 20 19 M 22.67 19.33 L 24 16.67 L 25 18 L 26.33 15.67 M 23.67 12.67 L 21 13.33 L 21.67 12 L 19 12.67" fill="none" stroke="var(--icon-secondary, #6c8ebf)" stroke-width="1"/></svg>