<svg xmlns="http://www.w3.org/2000/svg" viewBox="0 0 56.67 40.33" width="56.67" height="40.33"><path d="M 0 40.33 L 51 40.33 L 51 7 L 0 7 Z M 56.67 31.66 L 51 40.33 L 51 7 L 56.67 0 Z M 8.67 0 L 56.67 0 L 51 7 L 0 7 Z" fill="var(--icon-primary, #dae8fc)" stroke="var(--icon-secondary, #6c8ebf)" stroke-width="1" stroke-linejoin="round"/><path d="M 7.33 15.66 L 3 15.66 L 3 14.33 L 7.33 14.33 L 7.33 12.33 L 12.33 15 L 7.33 18 Z M 7.33 24.33 L 3 24.33 L 3 22.66 L 7.33 22.66 L 7.33 20.66 L 12.33 23.66 L 7.33 26.33 Z M 7.33 32.66 L 3 32.66 L 3 31.33 L 7.33 31.33 L 7.33 29 L 12.33 32 L 7.33 34.66 Z M 42 23 L 48 23 L 48 24.33 L 42 24.33 L 42 26.66 L 37 23.66 L 42 21 Z M 45.33 24.33 L 39.67 24.33 L 39.67 23 L 45.33 23 L 45.33 20.66 L 50.33 23.66 L 45.33 26.33 Z" fill="var(--icon-secondary, #6c8ebf)" stroke="none" stroke-width="0"/><rect x="0" y="0" width="0" height="0" fill="none" stroke="var(--icon-secondary, #6c8ebf)" stroke-width="1"/><path d="M 17 26.66 C 35.67 26.66 35.67 26.66 35.67 26.66 C 35.67 16 35.67 16 35.67 16 C 35.67 15.33 34.33 15.33 34.33 15.33 C 25 15.33 25 15.33 25 15.33 C 25 13.33 25 13.33 25 13.33 C 18.67 13.33 18.67 13.33 18.67 13.33 C 18.67 15 18.67 15 18.67 15 C 17 15 17 15 17 15 Z" fill="var(--icon-primary, #dae8fc)" stroke="var(--icon-secondary, #6c8ebf)" stroke-width="0.67"/><path d="M 15.67 28.33 C 34.33 28.33 34.33 28.33 34.33 28.33 C 34.33 17.66 34.33 17.66 34.33 17.66 C 34.33 17 32.67 17 32.67 17 C 23.33 17 23.33 17 23.33 17 C 23.33 15 23.33 15 23.33 15 C 17.33 15 17.33 15 17.33 15 C 17.33 16.66 17.33 16.66 17.33 16.66 C 15.67 16.66 15.67 16.66 15.67 16.66 Z" fill="var(--icon-primary, #dae8fc)" stroke="var(--icon-secondary, #6c8ebf)" stroke-width="0.67"/><path d="M 13.67 30 C 32.33 30 32.33 30 32.33 30 C 32.33 19.66 32.33 19.66 32.33 19.66 C 32.33 18.66 31 19 31 19 C 21.67 19 21.67 19 21.67 19 C 21.67 17 21.67 17 21.67 17 C 15.33 17 15.33 17 15.33 17 C 15.33 18.33 15.33 18.33 15.33 18.33 C 13.67 18.33 13.67 18.33 13.67 18.33 Z" fill="var(--icon-primary, #dae8fc)" stroke="var(--icon-secondary, #6c8ebf)" stroke-width="0.67"/></svg>