<svg xmlns="http://www.w3.org/2000/svg" viewBox="0 0 49 44" width="49" height="44"><path d="M 42 37.67 L 42 29.67 L 0 29.67 L 0 37.67 Z" fill="var(--icon-primary, #dae8fc)" stroke="var(--icon-secondary, #6c8ebf)" stroke-width="1" stroke-linejoin="round"/><path d="M 29 33.67 L 39.67 33.67" fill="none" stroke="var(--icon-secondary, #6c8ebf)" stroke-width="0.67" stroke-linejoin="round"/><path d="M 49 30 L 49 23 L 42 29.67 L 42 37.67 Z M 34.33 44 L 34.33 42.34 L 38.33 37 L 38.33 40.34 Z M 34.33 42.34 L 34.33 44 L 0.67 44 L 0.67 42.34 Z M 34.33 42.34 L 1 42.34 L 4.67 37 L 38.33 37 Z M 49 23 L 7 23 L 0 29.67 L 42 29.67 Z M 41 23 L 13 23 L 8.33 27.67 L 36.33 27.67 Z" fill="var(--icon-primary, #dae8fc)" stroke="var(--icon-secondary, #6c8ebf)" stroke-width="0.67" stroke-linejoin="round"/><path d="M 36.33 25.67 L 36.33 4.67 L 7.33 4.67 L 7.33 25.67 Z" fill="var(--icon-primary, #dae8fc)" stroke="var(--icon-secondary, #6c8ebf)" stroke-width="0.67" stroke-linejoin="round"/><path d="M 10 9.34 C 10 7 12 6.67 12 6.67 C 12 6.67 29 6.67 31 6.67 C 34 6.67 33.67 9.34 33.67 9.34 C 33.67 9.34 33.67 19.67 33.67 21.34 C 33.67 22.67 31.67 23.34 31.67 23.34 C 31.67 23.34 14.33 23.34 12.33 23.34 C 10.67 23.34 10 21.34 10 21.34 Z" fill="none" stroke="var(--icon-secondary, #6c8ebf)" stroke-width="0.67" stroke-linejoin="round"/><path d="M 41.33 0 L 12.33 0 L 7.33 4.67 L 36.33 4.67 Z" fill="var(--icon-primary, #dae8fc)" stroke="var(--icon-secondary, #6c8ebf)" stroke-width="0.67" stroke-linejoin="round"/><path d="M 41.33 21.34 L 41.33 0 L 36.33 4.67 L 36.33 25.67 Z" fill="var(--icon-primary, #dae8fc)" stroke="var(--icon-secondary, #6c8ebf)" stroke-width="0.67" stroke-linejoin="round"/><path d="M 26.33 10.34 L 26.33 20" fill="none" stroke="var(--icon-secondary, #6c8ebf)" stroke-width="0.67"/><path d="M 17 20 C 19 24.67 20.67 19.34 20.67 19.34 C 29.67 19.34 29.67 19.34 29.67 19.34 C 28.67 21.67 27.33 22 27.33 22 C 19.33 22 19.33 22 19.33 22 C 17.67 21.67 17 20 17 20 Z" fill="var(--icon-primary, #dae8fc)" stroke="var(--icon-secondary, #6c8ebf)" stroke-width="0.67" stroke-linejoin="round"/><path d="M 19.33 14.34 L 24.33 14.34 M 19.33 15.34 L 24.33 15.34 M 19.33 17 L 24.33 17 M 19.33 18 L 24.33 18" fill="none" stroke="var(--icon-secondary, #6c8ebf)" stroke-width="0.67" stroke-linejoin="round"/><path d="M 26.33 10 C 25.67 8.34 25.67 8.34 25.67 8.34 C 17 8.34 17 8.34 17 8.34 C 17 8.34 15.67 8.34 15.33 10.67 C 15.33 12.67 15.33 12.67 15.33 12.67 C 17 12.67 17 12.67 17 12.67 C 17 10 17 10 17 10" fill="var(--icon-primary, #dae8fc)" stroke="var(--icon-secondary, #6c8ebf)" stroke-width="0.67" stroke-linejoin="round"/><path d="M 19.33 11.67 L 24.33 11.67 M 19.33 10.67 L 24.33 10.67 M 17.33 20 L 17.33 9.67" fill="var(--icon-primary, #dae8fc)" stroke="var(--icon-secondary, #6c8ebf)" stroke-width="0.67" stroke-linejoin="round"/></svg>