<svg xmlns="http://www.w3.org/2000/svg" viewBox="0 0 48.33 42" width="48.33" height="42"><path d="M 48.33 9.33 C 48.33 14.67 37.67 19 24.33 19 C 10.67 19 0 14.67 0 9.33 C 0 32.67 0 32.67 0 32.67 C 0 37.67 10.67 42 24.33 42 C 37.67 42 48.33 37.67 48.33 32.67 Z" fill="var(--icon-primary, #dae8fc)" stroke="var(--icon-secondary, #6c8ebf)" stroke-width="1" stroke-linejoin="round"/><path d="M 24.33 19 C 37.67 19 48.33 14.67 48.33 9.33 C 48.33 4.33 37.67 0 24.33 0 C 10.67 0 0 4.33 0 9.33 C 0 14.67 10.67 19 24.33 19 Z" fill="var(--icon-primary, #dae8fc)" stroke="var(--icon-secondary, #6c8ebf)" stroke-width="1" stroke-linejoin="round"/><path d="M 19 5.67 L 21 8.67 L 13.33 10.33 L 15 9 L 3 7 L 6 5 L 17.33 6.67 Z M 29.67 13 L 28.33 10 L 35.33 8.67 L 34 9.67 L 45.33 11.67 L 42.67 13.67 L 31.33 11.67 Z M 26 4 L 33.67 2 L 33.67 5.33 L 31.67 5 L 28 8 L 24.33 7.33 L 28.33 4.33 Z M 22.67 16 L 15.33 17.33 L 15 14 L 17 14.33 L 21 11 L 24.67 11.33 L 20.33 15.33 Z" fill="var(--icon-secondary, #6c8ebf)" stroke="none" stroke-width="0"/><rect x="0" y="0" width="0" height="0" fill="none" stroke="var(--icon-secondary, #6c8ebf)" stroke-width="1"/><path d="M 44.33 35.67 L 44.33 27.33 L 39.33 31.33 Z M 4 35.67 L 4 27.33 L 9 31.33 Z M 7.33 19.33 L 7.33 27.67 L 2.33 23.67 Z M 40.67 19.33 L 40.67 27.67 L 45.67 23.67 Z" fill="var(--icon-secondary, #6c8ebf)" stroke="var(--icon-secondary, #6c8ebf)" stroke-width="0.4"/><path d="M 41.67 23.33 L 38.67 23.33 M 43 31.33 L 46.67 31.33 M 5.33 31.33 L 1.33 31.33 M 5.67 23.67 L 9.33 23.67" fill="none" stroke="var(--icon-secondary, #6c8ebf)" stroke-width="1"/><path d="M 35 26 L 35 40.67 L 13.33 40.67 L 13 26 Z" fill="var(--icon-secondary, #6c8ebf)" stroke="var(--icon-secondary, #6c8ebf)" stroke-width="0.4"/><path d="M 29.67 21.67 C 29.67 21.67 30.67 21.67 30.67 22.33 C 31 25.33 31 25.33 31 25.33 C 36.67 26.33 36.67 26.33 36.67 26.33 C 37.33 25 37.33 25 37.33 25 C 36 21.67 36 21.67 36 21.67 C 28.67 19.67 21.67 20.33 21.67 20.33 C 21.67 20.33 21.67 20.33 21.67 20.33 C 21.67 20.33 19.33 19.67 12 21.67 C 10.67 25 10.67 25 10.67 25 C 11 26.33 11 26.33 11 26.33 C 16.67 25.33 16.67 25.33 16.67 25.33 C 17 22.33 17 22.33 17 22.33 C 17.33 21.67 18 21.67 18 21.67 Z" fill="var(--icon-secondary, #6c8ebf)" stroke="var(--icon-secondary, #6c8ebf)" stroke-width="0.4"/><path d="M 33.67 26.67 L 33.67 29.33 L 14.33 29.33 L 14.33 26.67 Z M 33.67 30.67 L 33.67 39.67 L 14.33 39.67 L 14.33 30.67 Z" fill="none" stroke="var(--icon-secondary, #6c8ebf)" stroke-width="0.4"/><path d="M 32.33 39 L 15.67 39 L 15.67 31 L 32.33 31 Z" fill="none" stroke="var(--icon-secondary, #6c8ebf)" stroke-width="0.4"/><path d="M 14.33 30.67 L 24.33 35.67 L 33.67 30.67 Z" fill="var(--icon-secondary, #6c8ebf)" stroke="var(--icon-secondary, #6c8ebf)" stroke-width="0.4"/></svg>