<svg xmlns="http://www.w3.org/2000/svg" viewBox="0 0 34.34 42.33" width="34.34" height="42.33"><path d="M 21.34 42.33 L 21.34 4.67 L 0 4.67 L 0 42.33 Z M 0 4.67 L 7.34 0 L 28 0 L 21.34 4.67 Z M 21.34 42.33 L 28 37 L 28 0 L 21.34 4.67 Z" fill="var(--icon-primary, #dae8fc)" stroke="var(--icon-secondary, #6c8ebf)" stroke-width="1" stroke-linejoin="round"/><path d="M 0 39.67 L 21.34 39.67" fill="none" stroke="var(--icon-secondary, #6c8ebf)" stroke-width="1" stroke-linejoin="round"/><path d="M 20.34 33.67 C 20.34 36 18.67 37.67 16.34 37.67 C 14 37.67 12 36 12 33.67 C 12 31.33 14 29.33 16.34 29.33 C 18.67 29.33 20.34 31.33 20.34 33.67 Z" fill="none" stroke="var(--icon-secondary, #6c8ebf)" stroke-width="1" stroke-linejoin="round"/><path d="M 17.34 33.67 C 17.34 34.33 17 34.67 16.34 34.67 C 15.67 34.67 15 34.33 15 33.67 C 15 33 15.67 32.33 16.34 32.33 C 17 32.33 17.34 33 17.34 33.67 Z" fill="var(--icon-secondary, #6c8ebf)" stroke="var(--icon-secondary, #6c8ebf)" stroke-width="1" stroke-linejoin="round"/><path d="M 9.34 33.67 C 9.34 36 7.34 37.67 5 37.67 C 3 37.67 1 36 1 33.67 C 1 31.33 3 29.33 5 29.33 C 7.34 29.33 9.34 31.33 9.34 33.67 Z" fill="none" stroke="var(--icon-secondary, #6c8ebf)" stroke-width="1" stroke-linejoin="round"/><path d="M 3.34 35.33 L 6.67 32 M 3.34 32 L 6.67 35.33" fill="none" stroke="var(--icon-secondary, #6c8ebf)" stroke-width="1" stroke-linecap="round" stroke-linejoin="round"/><path d="M 14.67 24.67 C 14.67 26.67 13 28.67 10.67 28.67 C 8.34 28.67 6.34 26.67 6.34 24.67 C 6.34 22.33 8.34 20.33 10.67 20.33 C 13 20.33 14.67 22.33 14.67 24.67 Z" fill="none" stroke="var(--icon-secondary, #6c8ebf)" stroke-width="1" stroke-linejoin="round"/><path d="M 9.67 26.33 L 8.34 25 M 13 23.33 L 9.67 26.33" fill="none" stroke="var(--icon-secondary, #6c8ebf)" stroke-width="1" stroke-linecap="round" stroke-linejoin="round"/><rect x="0" y="0" width="0" height="0" fill="none" stroke="var(--icon-secondary, #6c8ebf)" stroke-width="1"/><path d="M 0 19 L 21.34 19" fill="none" stroke="var(--icon-secondary, #6c8ebf)" stroke-width="1"/><path d="M 11.67 11.33 L 11.67 7.33 L 1.67 7.33 L 1.67 11.33 Z" fill="var(--icon-primary, #dae8fc)" stroke="var(--icon-secondary, #6c8ebf)" stroke-width="1"/><path d="M 2.67 9.67 L 10.67 9.67" fill="none" stroke="var(--icon-secondary, #6c8ebf)" stroke-width="1"/><path d="M 28 17.33 C 28.67 17.33 28.67 17.33 28.67 17.33 C 33.34 17.33 34.34 21.67 34.34 21.67 C 34.34 17 34.34 17 34.34 17 C 34.34 17 33.34 12.67 28.67 12.67 C 28 12.67 28 12.67 28 12.67" fill="var(--icon-secondary, #6c8ebf)" stroke="var(--icon-secondary, #6c8ebf)" stroke-width="0.67" stroke-linejoin="round"/><path d="M 34.34 16.67 C 34.34 22 34.34 22 34.34 22 C 33.67 28.33 22.34 28 22.34 28 C 22.34 28.33 22.34 28.33 22.34 28.33 C 22.34 32.67 22.34 32.67 22.34 32.67 C 15 25.33 15 25.33 15 25.33 C 22.34 18 22.34 18 22.34 18 C 22.34 22.67 22.34 22.67 22.34 22.67 C 22.34 22.67 34 23 34.34 16.67" fill="var(--icon-secondary, #6c8ebf)" stroke="var(--icon-secondary, #6c8ebf)" stroke-width="0.67"/></svg>