<svg xmlns="http://www.w3.org/2000/svg" viewBox="0 0 41 36.67" width="41" height="36.67"><path d="M 0 36.67 L 0 4.34 L 36.66 4.34 L 36.66 36.67 Z M 4 0 L 0 4.34 L 36.66 4.34 L 41 0 Z M 41 32.34 L 41 0 L 36.66 4.34 L 36.66 36.67 Z" fill="var(--icon-primary, #dae8fc)" stroke="var(--icon-secondary, #6c8ebf)" stroke-width="1" stroke-linejoin="round"/><rect x="0" y="0" width="0" height="0" fill="none" stroke="var(--icon-secondary, #6c8ebf)" stroke-width="1"/><path d="M 33.66 7.34 L 3.33 7.34 L 3.33 34 L 33.66 34 Z" fill="none" stroke="var(--icon-secondary, #6c8ebf)" stroke-width="1"/><path d="M 32 17 C 32 20 26 22.34 18.66 22.34 C 11.33 22.34 5.33 20 5.33 17 C 5.33 24.67 5.33 24.67 5.33 24.67 C 5.33 27.67 11.33 30 18.66 30 C 26 30 32 27.67 32 24.67 Z" fill="var(--icon-primary, #dae8fc)" stroke="var(--icon-secondary, #6c8ebf)" stroke-width="1" stroke-linejoin="round"/><path d="M 18.66 22.34 C 26 22.34 32 20 32 17 C 32 14.34 26 12 18.66 12 C 11.33 12 5.33 14.34 5.33 17 C 5.33 20 11.33 22.34 18.66 22.34 Z" fill="var(--icon-primary, #dae8fc)" stroke="var(--icon-secondary, #6c8ebf)" stroke-width="1" stroke-linejoin="round"/><path d="M 15.66 15 L 16.66 16.67 L 12.66 17.67 L 13.33 17 L 7 16 L 8.66 14.67 L 14.66 15.67 Z M 21.33 19 L 20.66 17.34 L 24.33 16.67 L 23.66 17.34 L 30 18.34 L 28.66 19.67 L 22.33 18.34 Z M 19.33 14.34 L 23.66 13 L 23.66 15 L 22.66 14.67 L 20.66 16.34 L 18.66 16 L 20.66 14.34 Z M 17.66 20.67 L 13.66 21.34 L 13.33 19.67 L 14.66 19.67 L 16.66 18 L 18.66 18.34 L 16.33 20.34 Z" fill="var(--icon-secondary, #6c8ebf)" stroke="none" stroke-width="0"/></svg>