<svg xmlns="http://www.w3.org/2000/svg" viewBox="0 0 52.33 42.67" width="52.33" height="42.67"><path d="M 41.33 24.34 L 37.33 29.34 L 5.67 29.34 L 10.67 24.34 Z" fill="var(--icon-secondary, #6c8ebf)" stroke="var(--icon-secondary, #6c8ebf)" stroke-width="1" stroke-linejoin="round"/><path d="M 5.67 35.34 L 5.67 29.34 L 36 29.34 L 36 35.34 Z M 5.33 5.34 L 36 5.34 L 36 28.34 L 5.33 28.34 Z M 36 28.34 L 41 23 L 41 0 L 36 5.34 Z M 47.33 40.34 L 49.67 35.67 L 44.33 35.67 L 42 40.34 Z M 42 40.34 L 47.33 40.34 L 47.33 41.67 L 42 41.67 Z M 47.33 41.67 L 47.33 40.34 L 49.67 35.67 L 49.67 38.67 Z M 36 35.34 L 36 29.67 L 41.33 24.34 L 41.33 30 Z" fill="var(--icon-primary, #dae8fc)" stroke="var(--icon-secondary, #6c8ebf)" stroke-width="1" stroke-linejoin="round"/><path d="M 10.33 8 C 30.67 8 30.67 8 30.67 8 C 32 8 33.33 9 33.33 10.34 C 33.33 23 33.33 23 33.33 23 C 33.33 24.34 32 25.67 30.67 25.67 C 10.33 25.67 10.33 25.67 10.33 25.67 C 9 25.67 8 24.34 8 23 C 8 10.34 8 10.34 8 10.34 C 8 9 9 8 10.33 8 Z" fill="none" stroke="var(--icon-secondary, #6c8ebf)" stroke-width="1" stroke-linejoin="round"/><path d="M 41 0 L 11.33 0 L 5.33 5.34 L 36 5.34 Z M 35 42.67 L 35 40.67 L 39 35.34 L 39 38.67 Z M 35 40.67 L 0 40.67 L 4 35.34 L 39 35.34 Z M 35 40.67 L 35 42.67 L 0 42.67 L 0 40.67 Z" fill="var(--icon-primary, #dae8fc)" stroke="var(--icon-secondary, #6c8ebf)" stroke-width="1" stroke-linejoin="round"/><path d="M 48.33 35.67 C 52.33 33.67 49 25.34 41 29.34" fill="none" stroke="var(--icon-secondary, #6c8ebf)" stroke-width="0.67" stroke-linejoin="round"/><path d="M 20 15.67 C 21 15.67 21 15.67 21 15.67 C 21.33 16 21.33 16 21.33 16 C 22.33 16 22.33 16 22.33 16 C 23.33 15 23.33 15 23.33 15 C 24.33 15 24.33 15 24.33 15 C 25 16 25 16 25 16 C 26 16 26 16 26 16 C 27 15 27 15 27 15 C 28 15 28 15 28 15 C 28.67 16 28.67 16 28.67 16 C 29.67 16 29.67 16 29.67 16 C 30 15.34 30 15.34 30 15.34 C 32.67 17 32.67 17 32.67 17 C 30.67 18.34 30.67 18.34 30.67 18.34 C 20 18.34 20 18.34 20 18.34 C 20 18.67 20 18.67 20 18.67 C 18.33 18.67 18.33 18.67 18.33 18.67 C 18 18.67 17.67 19 17.33 19.34 C 16.67 20.67 15.33 21.34 13.67 21.34 C 11 21.34 9 19.34 9 17 C 9 14.34 11 12.34 13.67 12.34 C 15.33 12.34 16.67 13.34 17.33 14.67 C 17.67 15 18 15 18.33 15 C 20 15 20 15 20 15 C 20 15.67 20 15.67 20 15.67" fill="var(--icon-secondary, #6c8ebf)" stroke="none" stroke-width="0"/><path d="M 31.67 17.67 C 20 17.67 20 17.67 20 17.67 C 19.67 17.67 19 17.67 18.33 18 C 19 18.34 19.67 18.34 20 18.34" fill="none" stroke="var(--icon-secondary, #6c8ebf)" stroke-width="0.5" stroke-linejoin="round"/><path d="M 32 16.67 C 20.67 16.67 20.67 16.67 20.67 16.67 C 20 16.67 19 16.67 18.67 16.34" fill="none" stroke="var(--icon-secondary, #6c8ebf)" stroke-width="0.5" stroke-linejoin="round"/><path d="M 13.67 21 C 15.67 21 17.67 19.34 17.67 17 C 17.67 14.67 15.67 13 13.67 13 C 11.33 13 9.67 14.67 9.67 17 C 9.67 19.34 11.33 21 13.67 21 Z" fill="none" stroke="var(--icon-secondary, #6c8ebf)" stroke-width="0.5" stroke-linejoin="round"/><path d="M 11.33 18 C 12 18 12.33 17.67 12.33 17 C 12.33 16.34 12 16 11.33 16 C 10.67 16 10.33 16.34 10.33 17 C 10.33 17.67 10.67 18 11.33 18 Z" fill="none" stroke="var(--icon-secondary, #6c8ebf)" stroke-width="0.5" stroke-linejoin="round"/></svg>