<svg xmlns="http://www.w3.org/2000/svg" viewBox="0 0 33 29.33" width="33" height="29.33"><path d="M 25.34 0 L 11.67 0 L 7.67 2.67 L 21.34 2.67 Z M 29 23.33 L 29 29.33 L 33 27 L 33 21 L 25.34 6 L 25.34 0 L 21.34 2.67 L 21.34 8.67 Z M 29 23.33 L 21.34 8.67 L 21.34 8.67 L 21.34 2.67 L 7.67 2.67 L 7.67 8.67 L 7.67 8.67 L 0 23.33 L 0 23.33 L 0 29.33 L 29 29.33 Z" fill="var(--icon-primary, #dae8fc)" stroke="var(--icon-secondary, #6c8ebf)" stroke-width="1" stroke-linejoin="round"/><rect x="0" y="0" width="0" height="0" fill="none" stroke="var(--icon-secondary, #6c8ebf)" stroke-width="1"/><path d="M 14.34 16 L 15 16 L 15 21.67 L 19 21.67 L 14.67 27 L 10.34 21.67 L 14.34 21.67 Z M 15 15.67 L 14.34 15.67 L 14.34 10 L 10.34 10 L 14.67 4.67 L 19 10 L 15 10 Z" fill="var(--icon-secondary, #6c8ebf)" stroke="none" stroke-width="0"/></svg>