<svg xmlns="http://www.w3.org/2000/svg" viewBox="0 0 34.66 35.33" width="34.66" height="35.33"><path d="M 28.66 35.33 L 28.66 6 L 0 6 L 0 35.33 Z M 28.66 6 L 0 6 L 7.33 0 L 34.66 0 L 34.66 0.33 L 34.66 29.33 L 28.66 35.33 L 28.66 6 Z M 28.66 6 L 34.66 0" fill="var(--icon-primary, #dae8fc)" stroke="var(--icon-secondary, #6c8ebf)" stroke-width="1" stroke-linejoin="round"/><path d="M 14.33 25.67 C 17 25.67 19.33 23.33 19.33 20.67 C 19.33 17.67 17 15.33 14.33 15.33 C 11.66 15.33 9.33 17.67 9.33 20.67 C 9.33 23.33 11.66 25.67 14.33 25.67 Z" fill="none" stroke="var(--icon-secondary, #6c8ebf)" stroke-width="2" stroke-linejoin="round"/><path d="M 14.33 15.33 L 23.33 15.33" fill="none" stroke="var(--icon-secondary, #6c8ebf)" stroke-width="2" stroke-linejoin="round"/><path d="M 23.33 12 L 23.33 18.67 L 27 15.33 Z M 6 11.67 L 12.33 11.67 L 9.33 7.67 Z M 22.66 29.33 L 16.33 29.33 L 19.33 33.33 Z M 5.33 29 L 5.33 22.67 L 1.66 25.67 Z" fill="var(--icon-secondary, #6c8ebf)" stroke="none" stroke-width="0"/><path d="M 9.33 20.67 L 9.33 11.33 M 19.33 20.67 L 19.33 29.33 M 14.33 25.67 L 5 25.67" fill="none" stroke="var(--icon-secondary, #6c8ebf)" stroke-width="2" stroke-linejoin="round"/></svg>