<svg xmlns="http://www.w3.org/2000/svg" viewBox="0 0 40 54" width="40" height="54"><path d="M 40 47.66 L 40 0 L 33.33 6.33 L 33.33 54 Z M 40 0 L 33.33 6.33 L 0 6.33 L 8.66 0 Z M 33.33 39.33 L 33.33 6.33 L 0 6.33 L 0 39.33 Z M 33.33 54 L 33.33 39.66 L 0 39.66 L 0 54 Z" fill="var(--icon-primary, #dae8fc)" stroke="var(--icon-secondary, #6c8ebf)" stroke-width="1" stroke-linejoin="round"/><path d="M 13.66 19 L 8.66 13.66 L 9.66 13 L 6.33 12.33 L 7 15.33 L 7.66 14.66 L 13 19.66 Z M 12 22 L 4.66 22 L 4.66 21 L 2 22.66 L 4.66 24.66 L 4.66 23.33 L 12 23.33 Z M 13 25.66 L 7.66 31 L 7 30 L 6.33 33.33 L 9.66 32.66 L 8.66 31.66 L 13.66 26.66 Z M 16.33 27.66 L 16.33 34.66 L 15 34.66 L 16.66 37.33 L 18.66 34.66 L 17.33 34.66 L 17.33 27.66 Z M 16.33 18 L 16.33 11 L 15 11 L 16.66 8.33 L 18.66 11 L 17.33 11 L 17.33 18 Z M 19.66 26.66 L 25 31.66 L 24 32.66 L 27.33 33.33 L 26.66 30 L 25.66 31 L 20.66 25.66 Z M 21.66 23.33 L 28.66 23.33 L 28.66 24.66 L 31.66 22.66 L 28.66 21 L 28.66 22 L 21.66 22 Z M 20.66 19.66 L 25.66 14.66 L 26.66 15.33 L 27.33 12.33 L 24 13 L 25 13.66 L 19.66 19 Z" fill="var(--icon-secondary, #6c8ebf)" stroke="none" stroke-width="0"/><path d="M 21 28.66 C 24.66 26.33 25.33 21.66 23 18.33 C 20.66 15 16 14.33 12.66 16.66 C 9.33 19 8.33 23.66 10.66 27 C 13 30.33 17.66 31 21 28.66 Z" fill="var(--icon-secondary, #6c8ebf)" stroke="var(--icon-secondary, #6c8ebf)" stroke-width="0.67" stroke-linejoin="round"/><path d="M 17 47.33 L 24.33 47.33 L 24.33 48.66 L 27 46.66 L 24.33 45 L 24.33 46 L 17 46 Z M 17 45.33 L 23.66 43 L 24 44 L 26 41.33 L 22.66 40.66 L 23.33 41.66 L 16.66 44.33 Z M 17 48 L 23.66 50.66 L 24 49.33 L 26 52 L 22.66 52.66 L 23.33 51.66 L 16.66 49 Z M 6 47.33 L 13 47.33 L 13 48.66 L 15.66 46.66 L 13 45 L 13 46 L 6 46 Z" fill="var(--icon-secondary, #6c8ebf)" stroke="none" stroke-width="0"/></svg>