<svg xmlns="http://www.w3.org/2000/svg" viewBox="0 0 60.34 40.67" width="60.34" height="40.67"><path d="M 0 40.67 L 54.34 40.67 L 54.34 7.34 L 0 7.34 Z M 60.34 32 L 54.34 40.67 L 54.34 7.34 L 60.34 0 Z M 8.67 0 L 60.34 0 L 54.34 7.34 L 0 7.34 Z" fill="var(--icon-primary, #dae8fc)" stroke="var(--icon-secondary, #6c8ebf)" stroke-width="1" stroke-linejoin="round"/><path d="M 11.34 24.34 L 3 24.34 L 3 23 L 11.34 23 L 11.34 21 L 16.34 23.67 L 11.34 26.67 Z M 44 16 L 35.34 16 L 35.34 14.67 L 44 14.67 L 44 12.34 L 48.67 15.34 L 44 18 Z M 48 24.34 L 35.34 24.34 L 35.34 23 L 48 23 L 48 21 L 52.67 23.67 L 48 26.67 Z M 44 33 L 35.34 33 L 35.34 31.34 L 44 31.34 L 44 29.34 L 48.67 32.34 L 44 35 Z" fill="var(--icon-secondary, #6c8ebf)" stroke="none" stroke-width="0"/><rect x="0" y="0" width="0" height="0" fill="none" stroke="var(--icon-secondary, #6c8ebf)" stroke-width="1"/><path d="M 33.34 20 C 33.34 21.34 30 22.67 25.67 22.67 C 21.67 22.67 18.34 21.34 18.34 20 C 18.34 26.34 18.34 26.34 18.34 26.34 C 18.34 28 21.67 29 25.67 29 C 30 29 33.34 28 33.34 26.34 Z" fill="none" stroke="var(--icon-secondary, #6c8ebf)" stroke-width="0.67" stroke-linejoin="round"/><path d="M 25.67 22.67 C 30 22.67 33.34 21.34 33.34 20 C 33.34 18.34 30 17.34 25.67 17.34 C 21.67 17.34 18.34 18.34 18.34 20 C 18.34 21.34 21.67 22.67 25.67 22.67 Z" fill="none" stroke="var(--icon-secondary, #6c8ebf)" stroke-width="0.67" stroke-linejoin="round"/></svg>