<svg xmlns="http://www.w3.org/2000/svg" viewBox="0 0 61.34 40.67" width="61.34" height="40.67"><path d="M 57 40.67 L 0 40.67 L 0 5 L 57 5 Z M 4.34 0 L 61.34 0 L 57 5 L 0 5 Z M 61.34 34 L 57 40.67 L 57 5 L 61.34 0 Z" fill="var(--icon-primary, #dae8fc)" stroke="var(--icon-secondary, #6c8ebf)" stroke-width="1" stroke-linejoin="round"/><rect x="0" y="0" width="0" height="0" fill="none" stroke="var(--icon-secondary, #6c8ebf)" stroke-width="1"/><path d="M 26.34 29 C 30.34 26 30.34 26 30.34 26 C 26.34 26 24.34 26 21.67 26.34 C 20.34 30 20.34 31 19 33.67 C 22.34 32 22.34 32 22.34 32 C 25.34 34.34 29 34.67 32.34 33.67 C 32.34 33.67 32.34 33.34 32.34 33.34 C 37.67 29.67 37.67 29.67 37.67 29.67 C 34.34 32 29.67 31.67 26.34 29 Z" fill="var(--icon-secondary, #6c8ebf)" stroke="var(--icon-secondary, #6c8ebf)" stroke-width="0.33" stroke-linejoin="round"/><path d="M 22.67 23.67 C 21.67 20.34 22 16.67 24.34 14 C 25 13.67 25.34 13.34 25.67 12.67 C 20.67 16.67 20.67 16.67 20.67 16.67 C 20.34 17 19.67 17.34 19.34 17.67 C 17 20.34 16.67 24 17.67 27.34 Z" fill="var(--icon-secondary, #6c8ebf)" stroke="var(--icon-secondary, #6c8ebf)" stroke-width="0.33" stroke-linejoin="round"/><path d="M 32.67 12.67 C 30.67 12 28.67 11.67 26.67 12.34 C 26.34 12.34 26 12.67 25.67 12.67 C 20.67 16.67 20.67 16.67 20.67 16.67 C 23 14.67 26 14.34 29 15.34 C 26 17.34 26 17.34 26 17.34 C 34.67 17.34 34.67 17.34 34.67 17.34 C 35.34 11 35.34 11 35.34 11 Z" fill="var(--icon-secondary, #6c8ebf)" stroke="var(--icon-secondary, #6c8ebf)" stroke-width="0.33" stroke-linejoin="round"/><path d="M 39.34 15.34 C 42.34 20.34 41.34 25.67 39 28.34 C 38.67 29 38 29.34 37.67 29.67 C 32.34 33.34 32.34 33.34 32.34 33.34 C 33 33 33.34 32.67 34 32 C 38 27 35.67 22.34 34.34 19 Z" fill="var(--icon-secondary, #6c8ebf)" stroke="var(--icon-secondary, #6c8ebf)" stroke-width="0.33" stroke-linejoin="round"/><path d="M 10.67 24.67 L 2.34 24.34 L 2.34 22.67 L 10.67 22.67 L 10.67 20.34 L 15.67 23.67 L 10.67 27 Z M 47.34 24.67 L 55.67 24.34 L 55.67 22.67 L 47.34 22.67 L 47.34 20.34 L 42.34 23.67 L 47.34 27 Z" fill="var(--icon-secondary, #6c8ebf)" stroke="none" stroke-width="0"/></svg>