<svg xmlns="http://www.w3.org/2000/svg" viewBox="0 0 38.66 41" width="38.66" height="41"><path d="M 0 41 L 0 4 L 35 4 L 35 41 Z M 3.66 0 L 0 4 L 35 4 L 38.66 0 Z M 38.66 37.33 L 38.66 0 L 35 4 L 35 41 Z" fill="var(--icon-primary, #dae8fc)" stroke="var(--icon-secondary, #6c8ebf)" stroke-width="1" stroke-linejoin="round"/><rect x="0" y="0" width="0" height="0" fill="none" stroke="var(--icon-secondary, #6c8ebf)" stroke-width="1"/><path d="M 32.66 5.67 L 3 5.67 L 3 39 L 32.66 39 Z" fill="none" stroke="var(--icon-secondary, #6c8ebf)" stroke-width="0.67"/><path d="M 22 33.33 C 22 35.67 20 37.33 17.66 37.33 C 15.66 37.33 13.66 35.67 13.66 33.33 C 13.66 31 15.66 29.33 17.66 29.33 C 20 29.33 22 31 22 33.33 Z" fill="var(--icon-primary, #dae8fc)" stroke="var(--icon-secondary, #6c8ebf)" stroke-width="0.67"/><path d="M 7.66 27.33 L 30.33 27.33" fill="none" stroke="var(--icon-secondary, #6c8ebf)" stroke-width="0.67"/><path d="M 9.66 25.33 L 8.66 27.33 L 9.66 29.33 L 5 27.33 Z" fill="var(--icon-secondary, #6c8ebf)" stroke="none" stroke-width="0"/><path d="M 28.33 14.67 L 5.66 14.67" fill="none" stroke="var(--icon-secondary, #6c8ebf)" stroke-width="0.67"/><path d="M 26.33 16.67 L 27.33 14.67 L 26.33 13 L 31 14.67 Z" fill="var(--icon-secondary, #6c8ebf)" stroke="none" stroke-width="0"/><path d="M 25 24.33 L 11.33 24.33 L 11.33 17.33 L 25 17.33 Z" fill="none" stroke="var(--icon-secondary, #6c8ebf)" stroke-width="0.67"/><path d="M 11.33 17.33 L 18 20.67 L 25 17.33" fill="none" stroke="var(--icon-secondary, #6c8ebf)" stroke-width="0.67"/></svg>