<svg xmlns="http://www.w3.org/2000/svg" viewBox="0 0 49 33" width="49" height="33"><path d="M 49 9.33 C 49 14.66 38 19 24.34 19 C 11 19 0 14.66 0 9.33 C 0 23.33 0 23.33 0 23.33 C 0 28.66 11 33 24.34 33 C 38 33 49 28.66 49 23.33 Z M 24.34 19 C 38 19 49 14.66 49 9.33 C 49 4 38 0 24.34 0 C 11 0 0 4 0 9.33 C 0 14.66 11 19 24.34 19 Z" fill="var(--icon-primary, #dae8fc)" stroke="var(--icon-secondary, #6c8ebf)" stroke-width="1" stroke-linejoin="round"/><path d="M 19 5.66 L 21 8.66 L 13.34 10.33 L 15 9 L 3 7 L 6 4.66 L 17.34 6.66 Z M 29.67 13 L 28.34 10 L 35 8.66 L 34 9.66 L 45.34 11.66 L 42.67 13.66 L 31.34 11.66 Z M 25.67 4 L 33.67 2 L 33.67 5.33 L 31.67 4.66 L 28 8 L 24.34 7.33 L 28.34 4.33 Z M 22.67 16 L 15 17.33 L 15 14 L 17 14.33 L 21 11 L 24.67 11.33 L 20.34 15.33 Z M 23.34 26 L 30.34 26 L 30.34 27 L 33 25.33 L 30.34 23.66 L 30.34 24.66 L 23.34 24.66 Z M 23 24 L 29.67 21.33 L 30.34 22.66 L 32 20 L 29 19.33 L 29.34 20.33 L 22.67 23 Z M 23 26.66 L 29.67 29 L 30.34 28 L 32 30.66 L 29 31.33 L 29.34 30.33 L 22.67 27.66 Z M 12 26 L 19 26 L 19 27 L 21.67 25.33 L 19 23.66 L 19 24.66 L 12 24.66 Z" fill="var(--icon-secondary, #6c8ebf)" stroke="none" stroke-width="0"/></svg>