<svg xmlns="http://www.w3.org/2000/svg" viewBox="0 0 59 40.34" width="59" height="40.34"><path d="M 47.67 40.34 L 47.67 11 L 0 11 L 0 40.34 Z M 0 11 L 14.34 0 L 59 0 L 47.67 11 Z M 47.67 40.34 L 59 27.67 L 59 0 L 47.67 11 Z" fill="var(--icon-primary, #dae8fc)" stroke="var(--icon-secondary, #6c8ebf)" stroke-width="1" stroke-linejoin="round"/><path d="M 18.34 21.34 C 19.34 17 16.67 14.67 14.34 15 C 14 15 14 15 14 15 C 13.34 11.67 8.34 12.67 8.34 14.34 C 8.34 14.34 8.34 14.34 8.34 14.34 C 6 14 3.34 18 4.67 20.34 C 5 20.34 5 20.34 5 20.34 C 2.67 21.34 2.34 24 2.34 26.67 C 2.34 29.34 2.34 30.67 3.67 31.67 C 3.67 32 3.67 32 3.67 32 C 3.34 35.67 6.67 37.67 9 36.67 C 9.34 37 9.34 37 9.34 37 C 9.67 38.34 13.34 38.34 14 36 C 14.34 36.34 14.34 36.34 14.34 36.34 C 16.67 37.34 19 35 18.67 31.67 C 18.67 31.34 18.67 31.34 18.67 31.34 C 21.34 29 21 22.34 18.34 21.67 Z M 42.67 21.34 C 43.67 17 41 14.67 38.34 15 C 38.34 15 38.34 15 38.34 15 C 37.67 11.67 32.34 12.67 32.34 14.34 C 32.34 14.34 32.34 14.34 32.34 14.34 C 30 14 27.67 18 29 20.34 C 29 20.34 29 20.34 29 20.34 C 27 21.34 26.67 24 26.34 26.67 C 26.34 29.34 26.67 30.67 28 31.67 C 28 32 28 32 28 32 C 27.34 35.67 31 37.67 33.34 36.67 C 33.34 37 33.34 37 33.34 37 C 33.67 38.34 37.67 38.34 38.34 36 C 38.34 36.34 38.34 36.34 38.34 36.34 C 41 37.34 43.34 35 42.67 31.67 C 43 31.34 43 31.34 43 31.34 C 45.67 29 45 22.34 42.67 21.67 Z" fill="var(--icon-secondary, #6c8ebf)" stroke="none" stroke-width="0"/><rect x="0" y="0" width="0" height="0" fill="none" stroke="var(--icon-secondary, #6c8ebf)" stroke-width="1"/><path d="M 12.67 22 L 10 19 L 8.67 20.34 L 8.34 16.34 L 12.34 16.67 L 11 18 L 13.67 20.67 Z M 12.67 30 L 10 32.67 L 8.67 31.34 L 8.34 35.34 L 12.34 35.34 L 11 33.67 L 13.67 31 Z M 10 26.67 L 6 26.67 L 6 28.67 L 3 26 L 6 23 L 6 25 L 10 25 Z M 34.67 22 L 37.34 19 L 39 20.34 L 39 16.34 L 35 16.67 L 36.34 18 L 33.67 20.67 Z M 34.67 30 L 37.34 32.67 L 39 31.34 L 39 35.34 L 35 35.34 L 36.34 33.67 L 33.67 31 Z M 37 26.67 L 41 26.67 L 41 28.67 L 44 26 L 41 23 L 41 25 L 37 25 Z" fill="var(--icon-primary, #dae8fc)" stroke="none" stroke-width="0"/><path d="M 19.67 25.34 L 27.34 25.34 L 27.34 26.67 L 19.67 26.67 Z" fill="var(--icon-secondary, #6c8ebf)" stroke="none" stroke-width="0"/><path d="M 26.34 26.67 L 30.34 26.67 L 30.34 28.67 L 33.34 26 L 30.34 23 L 30.34 25 L 26.34 25 Z M 20.34 26.67 L 16.34 26.67 L 16.34 28.67 L 13.34 26 L 16.34 23 L 16.34 25 L 20.34 25 Z" fill="var(--icon-primary, #dae8fc)" stroke="none" stroke-width="0"/></svg>