<svg xmlns="http://www.w3.org/2000/svg" viewBox="0 0 47.33 31" width="47.33" height="31"><path d="M 0 31 L 42.33 31 L 42.33 6.34 L 0 6.34 Z M 47.33 23.67 L 42.33 31 L 42.33 6.34 L 47.33 0 Z M 7.67 0 L 47.33 0 L 42.33 6.34 L 0 6.34 Z" fill="var(--icon-primary, #dae8fc)" stroke="var(--icon-secondary, #6c8ebf)" stroke-width="1" stroke-linejoin="round"/><path d="M 31.33 18.34 L 37.33 18.34 L 37.33 19.67 L 40.33 17.67 L 37.33 15.67 L 37.33 17.34 L 31.33 17.34 Z" fill="var(--icon-secondary, #6c8ebf)" stroke="none" stroke-width="0"/><path d="M 36.33 28.34 C 36 28.34 35.33 28 35.33 27.34 C 35 27 35.33 26.34 36 26.34 C 36.67 26 37.33 26.34 37.33 27 C 37.33 27.67 37 28.34 36.33 28.34 Z" fill="var(--icon-secondary, #6c8ebf)" stroke="var(--icon-secondary, #6c8ebf)" stroke-width="0.67" stroke-linejoin="round"/><path d="M 38.33 28.34 C 38.33 29 37.67 30 36.67 30 C 36 30 35.33 29 35.33 28.34 C 35.33 27.34 36 26.67 36.67 26.67 C 37.67 26.67 38.33 27.34 38.33 28.34 Z" fill="var(--icon-secondary, #6c8ebf)" stroke="var(--icon-secondary, #6c8ebf)" stroke-width="0.67" stroke-linejoin="round"/><path d="M 38 27 L 36 30 L 27 24.34 L 29 21 Z" fill="var(--icon-secondary, #6c8ebf)" stroke="var(--icon-secondary, #6c8ebf)" stroke-width="0.67" stroke-linejoin="round"/><path d="M 18 8 C 12.67 9 9 14.67 10.33 20 C 11.67 25.34 17 29 22.33 27.67 C 28 26.67 31.33 21 30 15.67 C 29 10.34 23.67 6.67 18 8 Z" fill="var(--icon-secondary, #6c8ebf)" stroke="var(--icon-secondary, #6c8ebf)" stroke-width="0.67" stroke-linejoin="round"/><path d="M 10 17.34 L 7 17.34 L 7 18.67 L 10.33 18.67 Z" fill="var(--icon-secondary, #6c8ebf)" stroke="none" stroke-width="0"/><path d="M 12.33 23.67 L 8 26.67 L 8.67 27.34 L 13 24.67 Z" fill="var(--icon-secondary, #6c8ebf)" stroke="none" stroke-width="0"/><path d="M 12 11.34 L 8.33 9 L 7.67 10 L 11.33 12.34 Z" fill="var(--icon-secondary, #6c8ebf)" stroke="none" stroke-width="0"/><path d="M 22 26.34 C 17.33 27.34 12.67 24.34 11.67 19.67 C 10.67 15 13.67 10.34 18.33 9.34 C 23 8.34 27.67 11.34 28.67 16 C 29.67 20.67 26.67 25.34 22 26.34 Z" fill="var(--icon-secondary, #6c8ebf)" stroke="var(--icon-secondary, #6c8ebf)" stroke-width="0.67" stroke-linejoin="round"/><path d="M 17 11.34 L 17 24.67 L 25 19 L 28.67 19 L 28.67 17 L 25 17 L 17 11.34 Z M 10 18.67 L 13.67 18.67 L 13.67 20 L 16.67 18 L 13.67 16 L 13.67 17.34 L 10 17.34 Z M 13 24.67 L 14.33 24 L 15 25 L 16.33 21.67 L 13 21.67 L 13.67 23 L 12.33 23.67 Z M 11.67 12.34 L 13.67 13.34 L 13 14.67 L 16.33 14.67 L 15 11.34 L 14.33 12.67 L 12.33 11.34 Z" fill="var(--icon-secondary, #6c8ebf)" stroke="none" stroke-width="0"/></svg>