<svg xmlns="http://www.w3.org/2000/svg" viewBox="0 0 40.33 53.99" width="40.33" height="53.99"><path d="M 40.33 47.66 L 40.33 0 L 33.33 6.33 L 33.33 53.99 Z M 40.33 0 L 33.33 6.33 L 0 6.33 L 8.66 0 Z M 33.33 39.33 L 33.33 6.33 L 0 6.33 L 0 39.33 Z M 33.33 53.99 L 33.33 39.66 L 0 39.66 L 0 53.99 Z" fill="var(--icon-primary, #dae8fc)" stroke="var(--icon-secondary, #6c8ebf)" stroke-width="1" stroke-linejoin="round"/><path d="M 13.66 19 L 8.66 14 L 9.66 13 L 6.33 12.33 L 7 15.66 L 8 14.66 L 13 19.66 Z M 12 22.33 L 4.66 22.33 L 4.66 21 L 2 23 L 4.66 24.66 L 4.66 23.33 L 12 23.33 Z M 13 26 L 8 31 L 7 30 L 6.33 33.33 L 9.66 32.66 L 8.66 31.66 L 13.66 26.66 Z M 16.33 27.66 L 16.33 35 L 15 35 L 17 37.66 L 18.66 35 L 17.33 35 L 17.33 27.66 Z M 16.33 18 L 16.33 11 L 15 11 L 17 8.33 L 18.66 11 L 17.33 11 L 17.33 18 Z M 20 26.66 L 25 31.66 L 24 32.66 L 27.33 33.33 L 26.66 30 L 25.66 31 L 20.66 26 Z M 21.66 23.33 L 29 23.33 L 29 24.66 L 31.66 23 L 29 21 L 29 22.33 L 21.66 22.33 Z M 20.66 19.66 L 25.66 14.66 L 26.66 15.66 L 27.33 12.33 L 24 13 L 25 14 L 20 19 Z" fill="var(--icon-secondary, #6c8ebf)" stroke="none" stroke-width="0"/><path d="M 21.33 29 C 24.66 26.66 25.33 22 23 18.66 C 20.66 15 16 14.33 12.66 16.66 C 9.33 19 8.66 23.66 11 27 C 13.33 30.33 18 31.33 21.33 29 Z" fill="var(--icon-secondary, #6c8ebf)" stroke="none" stroke-width="0"/><path d="M 21.33 47.33 L 28.33 47.33 L 28.33 48.66 L 31 46.66 L 28.33 45 L 28.33 46.33 L 21.33 46.33 Z M 21 45.33 L 28 43 L 28.33 44 L 30.33 41.66 L 27 40.66 L 27.33 42 L 20.66 44.33 Z M 21 48.33 L 28 50.66 L 28.33 49.33 L 30.33 52 L 27 53 L 27.33 51.66 L 20.66 49.33 Z M 10.33 47.33 L 17 47.33 L 17 48.66 L 19.66 46.66 L 17 45 L 17 46.33 L 10.33 46.33 Z" fill="var(--icon-secondary, #6c8ebf)" stroke="none" stroke-width="0"/><rect x="0" y="0" width="0" height="0" fill="none" stroke="var(--icon-secondary, #6c8ebf)" stroke-width="1" stroke-linejoin="round"/><path d="M 7.33 41.66 C 5.66 41.66 4.66 42.66 4.66 44 C 4.66 46 4.66 46 4.66 46 C 4.66 46.33 4.66 46.33 4.33 46.66 C 4 46.66 3.66 46.33 3.66 46.33 C 3.66 44 3.66 44 3.66 44 C 3.66 42.33 5.33 40.66 7 40.66 C 9 40.66 10.33 42.33 10.33 44 C 10.33 46.33 10.33 46.33 10.33 46.33 C 10.33 46.66 10.33 46.66 10 46.66 C 9.66 46.66 9.66 46.33 9.66 46.33 C 9.66 44 9.66 44 9.66 44 C 9.66 42.66 8.66 41.66 7.33 41.66 Z" fill="none" stroke="var(--icon-secondary, #6c8ebf)" stroke-width="0.67" stroke-linejoin="round"/><path d="M 11.33 52.33 C 11.66 52.33 11.66 52 11.66 52 C 11.66 46.33 11.66 46.33 11.66 46.33 C 11.66 46 11.66 46 11.33 46 C 2.66 46 2.66 46 2.66 46 C 2.66 46 2.33 46 2.33 46.33 C 2.33 52 2.33 52 2.33 52 C 2.33 52 2.66 52.33 2.66 52.33 Z" fill="var(--icon-secondary, #6c8ebf)" stroke="var(--icon-secondary, #6c8ebf)" stroke-width="0.67" stroke-linejoin="round"/></svg>