<svg xmlns="http://www.w3.org/2000/svg" viewBox="0 0 65.33 33.67" width="65.33" height="33.67"><path d="M 59.33 33.67 L 59.33 6 L 0 6 L 0 33.67 Z M 59 6 L 0 6 L 7.33 0 L 65 0 L 65 0.34 L 65 27.67 L 59.33 33.67 L 59.33 6 Z M 59.33 6 L 65 0" fill="var(--icon-primary, #dae8fc)" stroke="var(--icon-secondary, #6c8ebf)" stroke-width="1" stroke-linejoin="round"/><path d="M 45.33 26.67 C 48 26.67 50.33 24.34 50.33 21.34 C 50.33 18.67 48 16.34 45.33 16.34 C 42.33 16.34 40 18.67 40 21.34 C 40 24.34 42.33 26.67 45.33 26.67 Z M 45.33 16.34 L 54 16.34 M 40 21.34 L 40 12.67 M 45.33 26.67 L 36.33 26.67 M 14 26.67 C 11 26.67 8.67 24.34 8.67 21.34 C 8.67 18.67 11 16.34 14 16.34 C 16.67 16.34 19 18.67 19 21.34 C 19 24.34 16.67 26.67 14 26.67 Z M 14 16.34 L 5 16.34 M 19 21.34 L 19 12.67 M 13.67 26.67 L 22.67 26.67" fill="none" stroke="var(--icon-secondary, #6c8ebf)" stroke-width="2" stroke-linejoin="round"/><path d="M 54 13 L 54 19.34 L 58 16.34 Z M 37 12.67 L 43.33 12.67 L 40.33 8.67 Z M 36.33 30 L 36.33 23.34 L 32.33 26.67 Z M 5 13 L 5 19.34 L 1 16.34 Z M 22.33 12.67 L 15.67 12.67 L 19 8.67 Z M 22.67 30 L 22.67 23.34 L 26.67 26.67 Z" fill="var(--icon-secondary, #6c8ebf)" stroke="none" stroke-width="0"/><path d="M 29.67 12.34 L 29.67 28.34" fill="none" stroke="var(--icon-secondary, #6c8ebf)" stroke-width="1.33" stroke-linejoin="round"/></svg>