<svg xmlns="http://www.w3.org/2000/svg" viewBox="0 0 48 34" width="48" height="34"><path d="M 40.34 34 L 40.34 6.33 L 0 6.33 L 0 34 Z M 40.34 6.33 L 48 0 L 10.34 0 L 0 6.33 Z M 48 27.67 L 48 0 L 40.34 6.33 L 40.34 34 Z" fill="var(--icon-primary, #dae8fc)" stroke="var(--icon-secondary, #6c8ebf)" stroke-width="1" stroke-linejoin="round"/><path d="M 2.67 23 L 14.67 23 L 20.67 11 L 29 28 L 32 23 L 38 23" fill="none" stroke="var(--icon-secondary, #6c8ebf)" stroke-width="1.33" stroke-linecap="round" stroke-linejoin="round"/><path d="M 6.34 32.66 C 7 32.66 7.67 32 7.67 31.33 C 7.67 30.66 7 30.33 6.34 30.33 C 5.67 30.33 5.34 30.66 5.34 31.33 C 5.34 32 5.67 32.66 6.34 32.66 Z" fill="var(--icon-secondary, #6c8ebf)" stroke="var(--icon-secondary, #6c8ebf)" stroke-width="0.4"/><path d="M 5.34 30 L 8 32.66 L 15 25.33 L 12.34 23 Z" fill="var(--icon-secondary, #6c8ebf)" stroke="var(--icon-secondary, #6c8ebf)" stroke-width="0.4"/><path d="M 11.34 17.67 C 11.34 23 15.67 27 21 27 C 26.34 27 30.34 23 30.34 17.67 C 30.34 12.33 26.34 8 21 8 C 15.67 8 11.34 12.33 11.34 17.67 Z M 12.67 17.67 C 12.67 13 16.34 9.33 21 9.33 C 25.34 9.33 29 13 29 17.67 C 29 22 25.34 25.67 21 25.67 C 16.34 25.67 12.67 22 12.67 17.67 Z" fill="var(--icon-secondary, #6c8ebf)" stroke="var(--icon-secondary, #6c8ebf)" stroke-width="0.4"/><path d="M 10.34 18 C 10.34 23.33 14.67 27.67 19.67 27.67 C 25 27.67 29.34 23.33 29.34 18 C 29.34 13 25 8.67 19.67 8.67 C 14.67 8.67 10.34 13 10.34 18 Z M 11.67 18 C 11.67 13.67 15.34 10 19.67 10 C 24.34 10 28 13.67 28 18 C 28 22.67 24.34 26.33 19.67 26.33 C 15.34 26.33 11.67 22.67 11.67 18 Z" fill="var(--icon-secondary, #6c8ebf)" stroke="var(--icon-secondary, #6c8ebf)" stroke-width="0.4"/></svg>