<svg xmlns="http://www.w3.org/2000/svg" viewBox="0 0 45 37.34" width="45" height="37.34"><path d="M 40 37.34 L 45 33.67 L 24.33 0 L 19 3 Z M 0 37.34 L 40 37.34 L 19 3 L 0 37 Z" fill="var(--icon-primary, #dae8fc)" stroke="var(--icon-secondary, #6c8ebf)" stroke-width="1" stroke-linejoin="round"/><path d="M 19.33 26.67 C 20.67 26.67 22 25.34 22 23.67 C 22 22.34 20.67 21 19.33 21 C 17.67 21 16.33 22.34 16.33 23.67 C 16.33 25.34 17.67 26.67 19.33 26.67 Z" fill="var(--icon-secondary, #6c8ebf)" stroke="none" stroke-width="0"/><path d="M 19.33 16 C 20.67 16 22 14.67 22 13.34 C 22 11.67 20.67 10.34 19.33 10.34 C 17.67 10.34 16.33 11.67 16.33 13.34 C 16.33 14.67 17.67 16 19.33 16 Z" fill="var(--icon-secondary, #6c8ebf)" stroke="none" stroke-width="0"/><path d="M 27 34.34 C 28.67 34.34 30 33.34 30 31.67 C 30 30 28.67 28.67 27 28.67 C 25.33 28.67 24 30 24 31.67 C 24 33.34 25.33 34.34 27 34.34 Z" fill="var(--icon-secondary, #6c8ebf)" stroke="none" stroke-width="0"/><path d="M 11.33 34.34 C 13 34.34 14.33 33 14.33 31.67 C 14.33 30 13 28.67 11.33 28.67 C 10 28.67 8.67 30 8.67 31.67 C 8.67 33 10 34.34 11.33 34.34 Z" fill="var(--icon-secondary, #6c8ebf)" stroke="none" stroke-width="0"/><path d="M 19 13.67 L 19 23.67 L 11.33 31.67 M 19 24 L 26.33 31.34" fill="none" stroke="var(--icon-secondary, #6c8ebf)" stroke-width="1.33"/></svg>