<svg xmlns="http://www.w3.org/2000/svg" viewBox="0 0 32 31.33" width="32" height="31.33"><path d="M 32 0 L 31 0.33 L 0 0.33 L 0.67 0 Z M 32 30.67 L 32 0 L 31 0 L 31 31.33 Z M 1.33 31.33 L 31 31.33 L 31 0.33 L 0 0.33 L 0 30 Z" fill="var(--icon-primary, #dae8fc)" stroke="var(--icon-secondary, #6c8ebf)" stroke-width="1" stroke-linejoin="round"/><path d="M 28.67 0.33 C 28.67 18.33 28.67 18.33 28.67 18.33 C 28.67 19.67 27.67 19.33 27.67 19.33 C 3.33 19.33 3.33 19.33 3.33 19.33 C 3.33 19.33 2.33 19.33 2.33 18.33 C 2.33 0.33 2.33 0.33 2.33 0.33" fill="none" stroke="var(--icon-secondary, #6c8ebf)" stroke-width="0.67" stroke-linejoin="round"/><path d="M 1.67 3.67 L 1.67 2 L 0.33 2 L 0.33 3.67 Z M 30.67 3.67 L 30.67 2 L 29.33 2 L 29.33 3.67 Z" fill="none" stroke="var(--icon-secondary, #6c8ebf)" stroke-width="0.67" stroke-linejoin="round"/><path d="M 23.67 22.33 C 23.67 31 23.67 31 23.67 31 C 5 31 5 31 5 31 C 5 22.33 5 22.33 5 22.33 C 5 21.33 6.33 21.33 6.33 21.33 C 22.67 21.33 22.67 21.33 22.67 21.33 C 23.67 21.33 23.67 22.33 23.67 22.33 Z" fill="var(--icon-secondary, #6c8ebf)" stroke="var(--icon-secondary, #6c8ebf)" stroke-width="0.67" stroke-linejoin="round"/><path d="M 28.67 31.33 C 28.67 22.33 28.67 22.33 28.67 22.33 C 28.67 22.33 28.67 21.33 27.67 21.33 C 6.33 21.33 6.33 21.33 6.33 21.33 C 6.33 21.33 5 21.33 5 22.33 C 5 31 5 31 5 31" fill="none" stroke="var(--icon-secondary, #6c8ebf)" stroke-width="0.67" stroke-linejoin="round"/><path d="M 12.33 30.67 L 12.33 22 L 8.67 22 L 8.67 30.67 Z" fill="var(--icon-primary, #dae8fc)" stroke="none" stroke-width="0"/><path d="M 31 0.33 L 32 0" fill="none" stroke="var(--icon-secondary, #6c8ebf)" stroke-width="0.67" stroke-linejoin="round"/></svg>