<svg xmlns="http://www.w3.org/2000/svg" viewBox="0 0 23.67 5" width="23.67" height="5"><path d="M 1.67 3.83 C 0.67 3.83 0 3.16 0 2.5 C 0 1.83 0.67 1.16 1.67 1.16 C 2.33 1.16 3 1.83 3 2.5 C 3 3.16 2.33 3.83 1.67 3.83 Z M 8.33 3.83 C 7.67 3.83 7 3.16 7 2.5 C 7 1.83 7.67 1.16 8.33 1.16 C 9 1.16 9.67 1.83 9.67 2.5 C 9.67 3.16 9 3.83 8.33 3.83 Z M 15 3.83 C 14.33 3.83 13.67 3.16 13.67 2.5 C 13.67 1.83 14.33 1.16 15 1.16 C 16 1.16 16.67 1.83 16.67 2.5 C 16.67 3.16 16 3.83 15 3.83 Z M 22.33 3.83 C 21.67 3.83 21 3.16 21 2.5 C 21 1.83 21.67 1.16 22.33 1.16 C 23 1.16 23.67 1.83 23.67 2.5 C 23.67 3.16 23 3.83 22.33 3.83 Z" fill="var(--icon-primary, #dae8fc)" stroke="none" stroke-width="0"/></svg>