<svg xmlns="http://www.w3.org/2000/svg" viewBox="0 0 29.33 32.67" width="29.33" height="32.67"><path d="M 29.33 7.34 L 29.33 21 L 27 25.34 L 27 11.67 Z M 6 3.67 L 0 3.67 L 2.33 0 L 8.33 0 L 23.33 7.34 L 29.33 7.34 L 27 11.67 L 21 11.67 Z M 6 3.67 L 21 11.67 L 21 11.67 L 27 11.67 L 27 25.34 L 21 25.34 L 21 25.34 L 6 32.67 L 6 32.67 L 0 32.67 L 0 3.67 L 6 3.67 Z" fill="var(--icon-primary, #dae8fc)" stroke="var(--icon-secondary, #6c8ebf)" stroke-width="1" stroke-linejoin="round"/><path d="M 19.66 18 L 19.66 16.34 L 24.66 18.34 L 19.66 20.67 L 19.66 18.67 L 7.66 18.67 L 7.66 18 Z M 7.33 11.67 L 7.33 11 L 15.66 11 L 20.66 13.67 L 21.66 12 L 25.33 16.67 L 19.66 16 L 20.33 14.34 L 15.66 11.67 Z M 15.66 25.34 L 20.33 22.67 L 19.66 21 L 25.33 20.34 L 21.66 24.67 L 20.66 23.34 L 15.66 26 L 7.33 26 L 7.33 25.34 Z" fill="var(--icon-secondary, #6c8ebf)" stroke="none" stroke-width="0"/></svg>