<svg xmlns="http://www.w3.org/2000/svg" viewBox="0 0 47.67 34" width="47.67" height="34"><path d="M 0 7.67 L 10.33 0 L 47.67 0 L 40.33 7.67 Z M 40.33 33.67 L 47.67 26 L 47.67 0 L 40.33 7.67 Z M 40.33 33.67 L 40.33 7.67 L 0 7.67 L 0 33.67 Z" fill="var(--icon-primary, #dae8fc)" stroke="var(--icon-secondary, #6c8ebf)" stroke-width="1" stroke-linejoin="round"/><path d="M 37.67 14.33 C 37.67 14.33 35 21 32 14.33 C 28.67 7.67 26.33 14.33 26.33 14.33 C 26.33 14.33 23.67 21 20.33 14.33 C 17.33 7.67 14.67 14.33 14.67 14.33 C 14.67 14.33 12 21 9 14.33 C 6 7.67 3.33 14.33 3.33 14.33" fill="none" stroke="var(--icon-secondary, #6c8ebf)" stroke-width="0.67" stroke-linecap="round" stroke-linejoin="round"/><path d="M 3.33 14.33 C 3.33 14.33 6 21 9 14.33 C 12 7.67 14.67 14.33 14.67 14.33 C 14.67 14.33 17.33 21 20.33 14.33 C 23.67 7.67 26.33 14.33 26.33 14.33 C 26.33 14.33 28.67 21 32 14.33 C 35 7.67 37.67 14.33 37.67 14.33" fill="none" stroke="var(--icon-secondary, #6c8ebf)" stroke-width="1.33" stroke-linecap="round" stroke-linejoin="round"/><path d="M 37 14.33 C 37 14.33 34.33 21 31.33 14.33 C 28.33 7.67 25.67 14.33 25.67 14.33 C 25.67 14.33 23 21 20 14.33 C 16.67 7.67 14 14.33 14 14.33 C 14 14.33 11.67 21 8.33 14.33 C 5.33 7.67 2.67 14.33 2.67 14.33" fill="none" stroke="var(--icon-secondary, #6c8ebf)" stroke-width="0.67" stroke-linecap="round" stroke-linejoin="round"/><path d="M 2.67 14.33 C 2.67 14.33 5.33 21 8.33 14.33 C 11.67 7.67 14 14.33 14 14.33 C 14 14.33 16.67 21 20 14.33 C 23 7.67 25.67 14.33 25.67 14.33 C 25.67 14.33 28.33 21 31.33 14.33 C 34.33 7.67 37 14.33 37 14.33" fill="none" stroke="var(--icon-secondary, #6c8ebf)" stroke-width="1.33" stroke-linecap="round" stroke-linejoin="round"/><path d="M 37.67 27.33 C 37.67 27.33 35 34 32 27.33 C 28.67 20.33 26.33 27.33 26.33 27.33 C 26.33 27.33 23.67 34 20.33 27.33 C 17.33 20.33 14.67 27.33 14.67 27.33 C 14.67 27.33 12 34 9 27.33 C 6 20.33 3.33 27.33 3.33 27.33" fill="none" stroke="var(--icon-secondary, #6c8ebf)" stroke-width="0.67" stroke-linecap="round" stroke-linejoin="round"/><path d="M 3.33 27.33 C 3.33 27.33 6 34 9 27.33 C 12 20.33 14.67 27.33 14.67 27.33 C 14.67 27.33 17.33 34 20.33 27.33 C 23.67 20.33 26.33 27.33 26.33 27.33 C 26.33 27.33 28.67 34 32 27.33 C 35 20.33 37.67 27.33 37.67 27.33" fill="none" stroke="var(--icon-secondary, #6c8ebf)" stroke-width="1.33" stroke-linecap="round" stroke-linejoin="round"/><path d="M 37 27.33 C 37 27.33 34.33 34 31.33 27.33 C 28.33 20.33 25.67 27.33 25.67 27.33 C 25.67 27.33 23 34 20 27.33 C 16.67 20.33 14 27.33 14 27.33 C 14 27.33 11.67 34 8.33 27.33 C 5.33 20.33 2.67 27.33 2.67 27.33" fill="none" stroke="var(--icon-secondary, #6c8ebf)" stroke-width="0.67" stroke-linecap="round" stroke-linejoin="round"/><path d="M 2.67 27.33 C 2.67 27.33 5.33 34 8.33 27.33 C 11.67 20.33 14 27.33 14 27.33 C 14 27.33 16.67 34 20 27.33 C 23 20.33 25.67 27.33 25.67 27.33 C 25.67 27.33 28.33 34 31.33 27.33 C 34.33 20.33 37 27.33 37 27.33" fill="none" stroke="var(--icon-secondary, #6c8ebf)" stroke-width="1.33" stroke-linecap="round" stroke-linejoin="round"/></svg>