<svg xmlns="http://www.w3.org/2000/svg" viewBox="0 0 32 44.66" width="32" height="44.66"><path d="M 13.67 12.66 L 6.67 2 L 8.34 0 L 15.67 10.66 Z M 6.67 44.66 L 13.67 34 L 13.67 12.66 L 6.67 2 L 6.67 44.66 Z M 24 34 L 24 12.66 L 26 10.66 L 26 32 Z M 24 12.66 L 13.67 12.66 L 15.67 10.66 L 26 10.66 Z M 13.67 12.66 L 13.67 34 L 24 34 L 24 12.66 L 13.67 12.66 Z" fill="var(--icon-primary, #dae8fc)" stroke="var(--icon-secondary, #6c8ebf)" stroke-width="1" stroke-linejoin="round"/><path d="M 13.34 22 L 6.67 10.66 M 13.34 22 L 6.67 17.66 M 13.34 22.33 L 6.67 33.66 M 13.34 22.33 L 6.67 26.66 M 13.34 22 L 6.67 22" fill="none" stroke="var(--icon-secondary, #6c8ebf)" stroke-width="0.4" stroke-linecap="round" stroke-linejoin="round"/><path d="M 6.67 10.66 L 0 10.66 M 6.67 17.66 L 0 17.66 M 6.67 22.33 L 0 22.33 M 6.67 26.33 L 0 26.33 M 6.67 33.66 L 0 33.66" fill="none" stroke="var(--icon-secondary, #6c8ebf)" stroke-width="0.67" stroke-linecap="round" stroke-linejoin="round"/><path d="M 32 22.33 L 25 22.33" fill="none" stroke="var(--icon-secondary, #6c8ebf)" stroke-width="2.33" stroke-linejoin="round"/></svg>