<svg xmlns="http://www.w3.org/2000/svg" viewBox="0 0 79.33 37.67" width="79.33" height="37.67"><path d="M 0 37.67 L 0 20 L 53 20 L 53 37.67 Z M 0 20 L 53 20 L 61.33 11.67 L 10.33 11.67 Z M 53 37.67 L 61.33 28 L 61.33 11.67 L 53 20 Z M 14.67 9.67 L 14 13.33 L 20.33 13.33 L 19.67 9.67 Z M 6.33 15.33 L 5.67 19 L 12.33 19 L 11.67 15.33 Z M 15.33 14 L 19.33 14 L 18.33 12 Z" fill="var(--icon-primary, #dae8fc)" stroke="var(--icon-secondary, #6c8ebf)" stroke-width="1" stroke-linejoin="round"/><path d="M 14.67 9.67 C 10.33 9.33 6.33 14.33 6.33 15.33 C 11.67 15.33 11.67 15.33 11.67 15.33 C 11.67 14.33 15.33 9.33 19.67 9.67 Z" fill="var(--icon-primary, #dae8fc)" stroke="var(--icon-secondary, #6c8ebf)" stroke-width="1" stroke-linejoin="round"/><path d="M 20.33 13.33 C 19.33 14 19.33 14 19.33 14 C 18.33 12 18.33 12 18.33 12 C 15 14.33 15 14.33 15 14.33 C 14.67 17.33 14.67 17.33 14.67 17.33 C 12.33 19 12.33 19 12.33 19 C 11.67 15.33 11.67 15.33 11.67 15.33 C 11.67 14.33 15.33 9.33 19.67 9.67 Z" fill="var(--icon-primary, #dae8fc)" stroke="var(--icon-secondary, #6c8ebf)" stroke-width="1" stroke-linejoin="round"/><path d="M 27 0 L 18.67 8.67 L 19.67 8.67 L 28 0 Z M 35.33 11.67 L 27 20 L 19.67 8.67 L 28 0 Z" fill="var(--icon-primary, #dae8fc)" stroke="var(--icon-secondary, #6c8ebf)" stroke-width="1" stroke-linejoin="round"/><path d="M 25.67 20 L 18.67 8.67 L 19.67 8.67 L 27 20 Z" fill="var(--icon-primary, #dae8fc)" stroke="var(--icon-secondary, #6c8ebf)" stroke-width="1" stroke-linejoin="round"/><path d="M 79.33 14.33 L 71 23 L 53 29.33 L 61.67 20.67 Z M 79.33 15.67 L 71 24.33 L 71 23 L 79.33 14.33 Z M 53 29.33 L 53 30.33 L 71 24.33 L 71 23 Z" fill="var(--icon-primary, #dae8fc)" stroke="var(--icon-secondary, #6c8ebf)" stroke-width="1" stroke-linejoin="round"/><path d="M 26.67 2 L 33.67 13" fill="none" stroke="var(--icon-secondary, #6c8ebf)" stroke-width="1" stroke-linejoin="round"/><path d="M 25 3.67 L 32 14.67" fill="none" stroke="var(--icon-secondary, #6c8ebf)" stroke-width="1" stroke-linejoin="round"/><path d="M 23.33 5.33 L 30 16.33" fill="none" stroke="var(--icon-secondary, #6c8ebf)" stroke-width="1" stroke-linejoin="round"/><path d="M 21.67 7 L 28.33 18" fill="none" stroke="var(--icon-secondary, #6c8ebf)" stroke-width="1" stroke-linejoin="round"/></svg>