<svg xmlns="http://www.w3.org/2000/svg" viewBox="0 0 48 27.33" width="48" height="27.33"><path d="M 0 3.66 L 3.67 0 L 48 0 L 44.33 3.66 Z M 44.33 27.33 L 44.33 3.66 L 0 3.66 L 0 27.33 Z M 44.33 27.33 L 48 24.66 L 48 0 L 44.33 3.66 Z" fill="var(--icon-primary, #dae8fc)" stroke="var(--icon-secondary, #6c8ebf)" stroke-width="1" stroke-linejoin="round"/><rect x="0" y="0" width="0" height="0" fill="none" stroke="var(--icon-secondary, #6c8ebf)" stroke-width="1"/><path d="M 3.67 11.66 L 3.67 19.66 L 4.67 20.66 L 12.67 20.66 L 13.67 19.66 L 13.67 11.66 L 12.67 10.66 L 4.67 10.66 L 3.67 11.66 M 3.67 11.66 L 4.67 12.66 L 9 13.33 L 12.67 12.66 L 13.67 11.66 M 17.33 11.66 L 17.33 19.66 L 18 20.66 L 26.33 20.66 L 27 19.66 L 27 11.66 L 26.33 10.66 L 18 10.66 L 17.33 11.66 M 17.33 11.66 L 18 12.66 L 22.67 13.33 L 26.33 12.66 L 27 11.66 M 30.67 12.66 L 30.67 19.66 L 31.67 20.66 L 36 21.66 L 39.67 20.66 L 40.67 19.66 L 40.67 12.66 L 39.67 11.66 L 36 10.66 L 31.67 11.66 L 30.67 12.66 M 30.67 12.66 L 31.67 13.33 L 36 13.33 L 39.67 13.33 L 40.67 12.66" fill="none" stroke="var(--icon-secondary, #6c8ebf)" stroke-width="0.67"/></svg>