<svg xmlns="http://www.w3.org/2000/svg" viewBox="0 0 85.67 30" width="85.67" height="30"><rect x="0" y="0" width="0" height="0" fill="none" stroke="var(--icon-secondary, #6c8ebf)" stroke-width="1"/><path d="M 54.67 27.67 C 70 27.67 82.34 22 82.34 15 C 82.34 8.33 70 2.67 54.67 2.67 C 39.34 2.67 27 8.33 27 15 C 27 22 39.34 27.67 54.67 27.67 Z" fill="none" stroke="var(--icon-secondary, #6c8ebf)" stroke-width="1"/><path d="M 54.67 30 C 71.67 30 85.67 23.33 85.67 15 C 85.67 6.67 71.67 0 54.67 0 C 37.67 0 23.67 6.67 23.67 15 C 23.67 23.33 37.67 30 54.67 30 Z" fill="none" stroke="var(--icon-secondary, #6c8ebf)" stroke-width="1"/><path d="M 3.34 17 L 27.34 17 M 0 14 L 24 14" fill="none" stroke="var(--icon-secondary, #6c8ebf)" stroke-width="1"/></svg>