<svg xmlns="http://www.w3.org/2000/svg" viewBox="0 0 63.67 46.66" width="63.67" height="46.66"><path d="M 47.67 31 L 47.67 15.66 L 0 15.66 L 0 31 Z M 0 15.66 L 19.34 0 L 63.67 0 L 47.67 15.66 Z M 47.67 31 L 63.67 15 L 63.67 0 L 47.67 15.66 Z M 47.67 46 L 47.67 31 L 0 31 L 0 46 Z M 47.67 46 L 63.67 29.33 L 63.67 15 L 47.67 31 Z" fill="var(--icon-primary, #dae8fc)" stroke="var(--icon-secondary, #6c8ebf)" stroke-width="1" stroke-linejoin="round"/><path d="M 28 11.66 L 27 12.33 L 15 12.33 L 14 13.33 L 10.67 12 L 17.34 10.33 L 16 11.66 Z M 37.34 5.66 L 36.34 6.33 L 24.34 6.33 L 23.34 7.66 L 20 6.33 L 26.67 4.33 L 25.34 5.66 Z M 30 9.33 L 31 8.66 L 42.67 8.66 L 44 7.66 L 47.34 9 L 40.67 10.66 L 42 9.33 Z M 36.34 3.66 L 37 3 L 49 3 L 50.34 1.66 L 53.34 3 L 47 5 L 48 3.66 Z" fill="var(--icon-secondary, #6c8ebf)" stroke="none" stroke-width="0"/><path d="M 18.34 22.66 L 9.34 22.66 L 9.34 22 L 6 23.33 L 9.34 24.33 L 9.34 23.66 L 18.34 23.66 Z M 23.34 25.33 L 23.34 28.66 L 21 28.66 L 24.34 29.66 L 28 28.66 L 25.67 28.66 L 25.67 25.33 Z M 23.34 21 L 23.34 18 L 21 18 L 24.34 16.66 L 28 18 L 25.67 18 L 25.67 21 Z M 30.67 23.66 L 39.34 23.66 L 39.34 24.33 L 43 23.33 L 39.34 22 L 39.34 22.66 L 30.67 22.66 Z" fill="var(--icon-secondary, #6c8ebf)" stroke="none" stroke-width="0"/><path d="M 38.67 28.33 C 37 29 29.34 27.33 21.67 24.33 C 13.67 21.66 9 19 10.67 18.33 C 12.34 17.66 20 19.33 27.67 22.33 C 35.34 25 40.34 27.66 38.67 28.33 Z" fill="none" stroke="var(--icon-secondary, #6c8ebf)" stroke-width="0.67" stroke-linejoin="round"/><path d="M 38.34 18.33 C 40 19 35.34 21.66 27.34 24.33 C 19.67 27 12 29 10.34 28.33 C 8.34 27.66 13.34 25 21 22.33 C 29 19.33 36.67 17.66 38.34 18.33 Z" fill="none" stroke="var(--icon-secondary, #6c8ebf)" stroke-width="0.67" stroke-linejoin="round"/><path d="M 28 25 C 31 24.33 31.67 23 29.67 22 C 27.67 20.66 23.67 20.66 20.67 21.33 C 17.67 22 17 23.33 19 24.33 C 21 25.66 25 25.66 28 25 Z" fill="var(--icon-secondary, #6c8ebf)" stroke="none" stroke-width="0"/></svg>