<svg xmlns="http://www.w3.org/2000/svg" viewBox="0 0 32 39.34" width="32" height="39.34"><path d="M 25.33 6.67 L 5 6.67 L 5 39.34 L 25.33 39.34 Z M 25.33 39.34 L 32 32.67 L 32 0 L 11.33 0 L 5 6.67 L 25.33 6.67 L 25.33 39.34 Z" fill="var(--icon-primary, #dae8fc)" stroke="var(--icon-secondary, #6c8ebf)" stroke-width="1" stroke-linejoin="round"/><rect x="0" y="0" width="0" height="0" fill="none" stroke="var(--icon-secondary, #6c8ebf)" stroke-width="1"/><path d="M 5.33 16.67 L 25.33 16.67" fill="none" stroke="var(--icon-secondary, #6c8ebf)" stroke-width="1"/><path d="M 12.66 11.34 L 18.33 11.34" fill="none" stroke="var(--icon-secondary, #6c8ebf)" stroke-width="1"/><path d="M 20.66 13.34 L 20.66 9.34 L 10.33 9.34 L 10.33 13.34 Z" fill="none" stroke="var(--icon-secondary, #6c8ebf)" stroke-width="1"/><path d="M 12.66 32.34 L 18.33 32.34" fill="none" stroke="var(--icon-secondary, #6c8ebf)" stroke-width="1"/><path d="M 20.66 34.34 L 20.66 30 L 10.33 30 L 10.33 34.34 Z" fill="none" stroke="var(--icon-secondary, #6c8ebf)" stroke-width="1"/><path d="M 5.33 37 L 25.33 37" fill="none" stroke="var(--icon-secondary, #6c8ebf)" stroke-width="1"/><path d="M 20.66 31.34 L 25.33 27 L 25.33 19.34 L 4.66 19.34 L 0 24 L 20.66 24 Z" fill="var(--icon-primary, #dae8fc)" stroke="var(--icon-secondary, #6c8ebf)" stroke-width="1" stroke-linejoin="round"/><path d="M 20.66 24 L 25.33 19.34" fill="none" stroke="var(--icon-secondary, #6c8ebf)" stroke-width="1" stroke-linejoin="round"/><path d="M 20.66 31.34 L 0 31.34 L 0 21 L 20.66 21 Z" fill="var(--icon-primary, #dae8fc)" stroke="var(--icon-secondary, #6c8ebf)" stroke-width="1"/><path d="M 8 26.34 L 13.66 26.34" fill="none" stroke="var(--icon-secondary, #6c8ebf)" stroke-width="1"/><path d="M 16 28.34 L 16 24.34 L 5.66 24.34 L 5.66 28.34 Z" fill="none" stroke="var(--icon-secondary, #6c8ebf)" stroke-width="1"/><path d="M 25.2 7 L 32 0" fill="none" stroke="var(--icon-secondary, #6c8ebf)" stroke-width="1"/></svg>