<svg xmlns="http://www.w3.org/2000/svg" viewBox="0 0 27.33 36" width="27.33" height="36"><path d="M 20.67 6.67 L 0 6.67 L 0 36 L 20.67 36 Z M 20.67 36 L 27.33 29.67 L 27.33 0 L 6.67 0 L 0 6.67 L 20.67 6.67 L 20.67 36 Z" fill="var(--icon-primary, #dae8fc)" stroke="var(--icon-secondary, #6c8ebf)" stroke-width="1" stroke-linejoin="round"/><rect x="0" y="0" width="0" height="0" fill="none" stroke="var(--icon-secondary, #6c8ebf)" stroke-width="1"/><path d="M 20.67 6.67 L 27.33 0 M 0 14.67 L 20.67 14.67 M 0 24 L 20.67 24 M 7.33 20.34 L 13 20.34 M 7.33 18.67 L 13 18.67 M 10 20.34 L 10 20.34 M 15.33 22.34 L 15.33 16.67 L 5 16.67 L 5 22.34 Z" fill="none" stroke="var(--icon-secondary, #6c8ebf)" stroke-width="1"/></svg>