<svg xmlns="http://www.w3.org/2000/svg" viewBox="0 0 18.67 42.67" width="18.67" height="42.67"><path d="M 0 42.67 L 0 7.34 L 10.67 7.34 L 10.67 42.67 Z M 10.67 7.34 L 0 7.34 L 9.67 0 L 18.67 0 Z M 18.67 0 L 18.67 33.67 L 10.67 42.67 L 10.67 7.34 Z" fill="var(--icon-primary, #dae8fc)" stroke="var(--icon-secondary, #6c8ebf)" stroke-width="1" stroke-linejoin="round"/><path d="M 16.33 7.67 L 16.33 2 M 16.33 19.34 L 16.33 13.67 M 16.33 30.67 L 16.33 25 M 18.67 28 L 10.67 37 M 18.67 22.34 L 10.67 31 M 18.67 16.67 L 10.67 25 M 18.67 11 L 10.67 19.34 M 18.67 5.67 L 10.67 13.34 M 10.67 7.34 L 18.67 0 M 10.67 37 L 0 37 M 10.67 31 L 0 31 M 10.67 25 L 0 25 M 10.67 19 L 0 19 M 10.67 13.34 L 0 13.34 M 13.67 39.33 L 13.67 33.67 M 13.67 28 L 13.67 22.34 M 13.67 16.34 L 13.67 10.67" fill="none" stroke="var(--icon-secondary, #6c8ebf)" stroke-width="1" stroke-linejoin="round"/></svg>