<svg xmlns="http://www.w3.org/2000/svg" viewBox="0 0 26.66 32.66" width="26.66" height="32.66"><rect x="0" y="0" width="0" height="0" fill="none" stroke="var(--icon-secondary, #6c8ebf)" stroke-width="1"/><path d="M 7 5.33 L 0 5.33 L 0 32.66 L 7 32.66 Z M 7 32.66 L 12.33 27.33 L 12.33 0 L 5 0 L 0 5.33 L 7 5.33 L 7 32.66 Z" fill="var(--icon-primary, #dae8fc)" stroke="var(--icon-secondary, #6c8ebf)" stroke-width="1" stroke-linejoin="round"/><path d="M 14.33 5.33 L 7 5.33 L 7 32.66 L 14.33 32.66 Z M 14.33 32.66 L 19.33 27.33 L 19.33 0 L 12.33 0 L 7 5.33 L 14.33 5.33 Z" fill="var(--icon-primary, #dae8fc)" stroke="var(--icon-secondary, #6c8ebf)" stroke-width="1" stroke-linejoin="round"/><path d="M 21.33 5.33 L 14.33 5.33 L 14.33 32.66 L 21.33 32.66 Z M 21.33 32.66 L 26.66 27.33 L 26.66 0 L 19.33 0 L 14.33 5.33 L 21.33 5.33 Z M 21.33 5.33 L 26.66 0" fill="var(--icon-primary, #dae8fc)" stroke="var(--icon-secondary, #6c8ebf)" stroke-width="1" stroke-linejoin="round"/><rect x="0" y="0" width="0" height="0" fill="none" stroke="var(--icon-secondary, #6c8ebf)" stroke-width="1"/><path d="M 20.33 10 L 20.33 6 L 15.33 6 L 15.33 10 Z M 20.33 14.33 L 20.33 10.66 L 15.33 10.66 L 15.33 14.33 Z M 20.33 29.66 L 20.33 25.66 L 15.33 25.66 L 15.33 29.66 Z" fill="var(--icon-primary, #dae8fc)" stroke="var(--icon-secondary, #6c8ebf)" stroke-width="1"/></svg>