<svg xmlns="http://www.w3.org/2000/svg" viewBox="0 0 53.67 37.34" width="53.67" height="37.34"><path d="M 19.67 4.67 C 11 3 6.34 7.34 7 11.34 C 7 11.67 7 11.67 7 11.67 C 0 12.67 2 21 5.34 21 C 5.67 21 5.67 21 5.67 21 C 4.67 24.67 12.67 28.67 17.34 26.67 C 17.67 26.34 17.67 26.34 17.67 26.34 C 19.34 29.67 25 30.34 30.67 30.67 C 35.34 30.67 38.34 30.34 40.34 28 C 40.67 28.34 40.67 28.34 40.67 28.34 C 48.34 29 52 23.34 50.34 19.67 C 50.67 19.34 50.67 19.34 50.67 19.34 C 53.34 18.67 53.67 12.67 49 11.67 C 49.34 11.34 49.34 11.34 49.34 11.34 C 51.34 7.34 46.67 3.67 40 4.34 C 39.67 4 39.67 4 39.67 4 C 35 0 21.67 0.67 20 4.67 Z" fill="var(--icon-primary, #dae8fc)" stroke="var(--icon-secondary, #6c8ebf)" stroke-width="1"/><path d="M 23.67 11 L 23.67 33.67 L 45 33.67 L 45 11 Z M 23.67 11 L 45 33.67 M 23.67 33.67 L 45 11" fill="none" stroke="var(--icon-secondary, #6c8ebf)" stroke-width="2.67"/><path d="M 27 14.34 L 27 7.34 L 20.34 7.34 L 20.34 14.34 Z M 48.34 14.34 L 48.34 7.34 L 41.67 7.34 L 41.67 14.34 Z M 27 37.34 L 27 30.34 L 20.34 30.34 L 20.34 37.34 Z M 48.34 37.34 L 48.34 30.34 L 41.67 30.34 L 41.67 37.34 Z M 37.67 25.67 L 37.67 18.67 L 30.67 18.67 L 30.67 25.67 Z" fill="var(--icon-primary, #dae8fc)" stroke="var(--icon-secondary, #6c8ebf)" stroke-width="0.67"/></svg>