<svg xmlns="http://www.w3.org/2000/svg" viewBox="0 0 40 36.66" width="40" height="36.66"><path d="M 33.33 36.66 L 40 30 L 40 0 L 33.33 6.66 Z M 40 0 L 33.33 6.66 L 0 6.66 L 8.66 0 Z M 33.33 36.66 L 33.33 6.66 L 0 6.66 L 0 36.66 Z" fill="var(--icon-primary, #dae8fc)" stroke="var(--icon-secondary, #6c8ebf)" stroke-width="1" stroke-linejoin="round"/><rect x="0" y="0" width="0" height="0" fill="none" stroke="var(--icon-secondary, #6c8ebf)" stroke-width="1"/><path d="M 16 10 L 16 31.66 L 15 31.66 L 16.66 34.33 L 18.66 31.66 L 17.33 31.66 L 17.33 10 Z M 7 10 L 7 31.66 L 5.66 31.66 L 7.33 34.33 L 9.33 31.66 L 8 31.66 L 8 10 Z M 25 10 L 25 31.66 L 23.66 31.66 L 25.66 34.33 L 27.33 31.66 L 26 31.66 L 26 10 Z" fill="var(--icon-secondary, #6c8ebf)" stroke="var(--icon-secondary, #6c8ebf)" stroke-width="1"/><path d="M 30 18 L 3.66 18 L 3.66 9.66 L 30 9.66 Z" fill="none" stroke="var(--icon-secondary, #6c8ebf)" stroke-width="1.33"/></svg>