<svg xmlns="http://www.w3.org/2000/svg" viewBox="0 0 41.66 46.66" width="41.66" height="46.66"><path d="M 41.66 8 C 41.66 12.66 32.33 16.33 21 16.33 C 9.33 16.33 0 12.66 0 8 C 0 38.66 0 38.66 0 38.66 C 0 43 9.33 46.66 21 46.66 C 32.33 46.66 41.66 43 41.66 38.66 Z M 21 16.33 C 32.33 16.33 41.66 12.66 41.66 8 C 41.66 3.66 32.33 0 21 0 C 9.33 0 0 3.66 0 8 C 0 12.66 9.33 16.33 21 16.33 Z" fill="var(--icon-primary, #dae8fc)" stroke="var(--icon-secondary, #6c8ebf)" stroke-width="1" stroke-linejoin="round"/><rect x="0" y="0" width="0" height="0" fill="none" stroke="var(--icon-secondary, #6c8ebf)" stroke-width="1"/><path d="M 16 5 L 18 7.66 L 11.33 9 L 12.66 8 L 2.66 6 L 5.33 4.33 L 15 6 Z M 25.33 11.33 L 24 8.66 L 30 7.33 L 29 8.33 L 38.66 10 L 36.33 11.66 L 26.66 10 Z M 22 3.66 L 28.66 1.66 L 28.66 4.66 L 27 4.33 L 24 7 L 20.66 6.33 L 24 4 Z M 19.33 13.66 L 13 14.66 L 12.66 12 L 14.66 12.33 L 18 9.33 L 21 10 L 17.33 13 Z M 21.33 27 L 21.33 20.33 L 22.33 20.33 L 20.66 18 L 19 20.33 L 20 20.33 L 20 27 Z M 18 28 L 13.33 23.33 L 14 22.33 L 11 21.66 L 11.66 24.66 L 12.33 24 L 17 28.66 Z M 16 31 L 9.66 31 L 9.66 29.66 L 7 31.33 L 9.66 33 L 9.66 32 L 16 32 Z M 17 34.33 L 12.33 39 L 11.66 38 L 11 41 L 14 40.33 L 13.33 39.66 L 18 35 Z M 20 36 L 20 42.66 L 19 42.66 L 20.66 45 L 22.33 42.66 L 21.33 42.66 L 21.33 36 Z M 23.33 35 L 28 39.66 L 27.33 40.33 L 30.33 41 L 29.66 38 L 29 39 L 24.33 34.33 Z M 25.33 32 L 31.66 32 L 31.66 33 L 34.33 31.33 L 31.66 29.66 L 31.66 31 L 25.33 31 Z M 24.33 28.66 L 29 24 L 29.66 24.66 L 30.33 21.66 L 27.33 22.33 L 28 23.33 L 23.33 28 Z" fill="var(--icon-secondary, #6c8ebf)" stroke="none" stroke-width="0"/><path d="M 24.66 37 C 27.66 34.66 28.66 30.66 26.33 27.33 C 24.33 24.33 20 23.66 17 25.66 C 13.66 28 13 32.33 15.33 35.33 C 17.33 38.33 21.66 39 24.66 37 Z" fill="var(--icon-secondary, #6c8ebf)" stroke="none" stroke-width="0"/></svg>