<svg xmlns="http://www.w3.org/2000/svg" viewBox="0 0 36.67 52" width="36.67" height="52"><path d="M 4.67 15.67 L 0 20.33 L 0 52 L 32 52 L 36.67 47.67 L 36.67 15.67 Z M 0 20.33 L 32 20.33 L 36.67 15.67 L 4.67 15.67 Z M 32 20.33 L 36.67 15.67 L 36.67 47.67 L 32 52 Z M 4.67 15.67 L 0 20.33 L 0 52 L 32 52 L 36.67 47.67 L 36.67 15.67 Z" fill="var(--icon-primary, #dae8fc)" stroke="var(--icon-secondary, #6c8ebf)" stroke-width="1" stroke-linejoin="round"/><path d="M 4.67 0 L 0 4.33 L 0 20.33 L 32 20.33 L 36.67 15.67 L 36.67 0 Z M 32 4.33 L 36.67 0 L 36.67 15.67 L 32 20.33 Z M 4.67 0 L 0 4.33 L 0 20.33 L 32 20.33 L 36.67 15.67 L 36.67 0 Z" fill="var(--icon-primary, #dae8fc)" stroke="var(--icon-secondary, #6c8ebf)" stroke-width="1" stroke-linejoin="round"/><path d="M 32 20.33 L 32 4.33 L 0 4.33" fill="none" stroke="var(--icon-secondary, #6c8ebf)" stroke-width="1" stroke-linejoin="round"/><path d="M 2.33 6.67 L 11.33 6.67 L 11.33 11.33 L 2.33 11.33 Z" fill="none" stroke="none" stroke-width="1" stroke-linejoin="round"/><path d="M 4.67 25 L 27.33 25 L 27.33 47.67 L 4.67 47.67 Z" fill="none" stroke="none" stroke-width="1" stroke-linejoin="round"/><path d="M 20.67 6.67 L 29.67 6.67 L 29.67 11.33 L 20.67 11.33 Z M 2.33 13.67 L 11.33 13.67 L 11.33 18 L 2.33 18 Z M 20.67 13.67 L 29.67 13.67 L 29.67 18 L 20.67 18 Z" fill="none" stroke="none" stroke-width="1" stroke-linejoin="round"/><path d="M 11.33 9 L 20.67 9" fill="none" stroke="none" stroke-width="0.67" stroke-linejoin="round"/><path d="M 11.33 15.67 L 20.67 15.67" fill="none" stroke="none" stroke-width="0.67" stroke-linejoin="round"/><path d="M 11.33 13.67 L 20.67 11.33" fill="none" stroke="none" stroke-width="0.67" stroke-linejoin="round"/><path d="M 11.33 11.33 L 20.67 13.67" fill="none" stroke="none" stroke-width="0.67" stroke-linejoin="round"/><rect x="0" y="0" width="0" height="0" fill="none" stroke="var(--icon-secondary, #6c8ebf)" stroke-width="1"/><path d="M 16 29.33 C 19.67 29.33 23 32.33 23 36.33 C 23 40 19.67 43 16 43 C 12 43 9.33 40 9.33 36.33 C 9.33 32.33 12 29.33 16 29.33" fill="var(--icon-primary, #dae8fc)" stroke="none" stroke-width="0"/><path d="M 16 34 C 17.33 34 18.33 34.67 18.33 36.33 C 18.33 37.33 17.33 38.33 16 38.33 C 14.67 38.33 13.67 37.33 13.67 36.33 C 13.67 34.67 14.67 34 16 34" fill="var(--icon-secondary, #6c8ebf)" stroke="none" stroke-width="0"/></svg>