<svg xmlns="http://www.w3.org/2000/svg" viewBox="0 0 49 49.34" width="49" height="49.34"><path d="M 49 9.34 C 49 14.67 38 19 24.34 19 C 11 19 0 14.67 0 9.34 C 0 39.67 0 39.67 0 39.67 C 0 45 11 49.34 24.34 49.34 C 38 49.34 49 45 49 39.67 Z M 24.34 19 C 38 19 49 14.67 49 9.34 C 49 4 38 0 24.34 0 C 11 0 0 4 0 9.34 C 0 14.67 11 19 24.34 19 Z" fill="var(--icon-primary, #dae8fc)" stroke="var(--icon-secondary, #6c8ebf)" stroke-width="1" stroke-linejoin="round"/><rect x="0" y="0" width="0" height="0" fill="none" stroke="var(--icon-secondary, #6c8ebf)" stroke-width="1"/><path d="M 26 4 L 33.67 2 L 33.67 5.34 L 31.67 5 L 28 8 L 24.34 7.34 L 28.34 4.34 Z M 29.67 13 L 28.34 10 L 35 8.67 L 34 9.67 L 45.34 11.67 L 42.67 13.67 L 31.34 11.67 Z M 22.67 16 L 15 17.34 L 15 14 L 17 14.34 L 21 11 L 24.67 11.34 L 20.34 15.34 Z M 19 5.67 L 21 8.67 L 13.34 10.34 L 15 9 L 3 7 L 6 4.67 L 17.34 6.67 Z" fill="var(--icon-secondary, #6c8ebf)" stroke="none" stroke-width="0"/><path d="M 14 41.67 L 21 41.67 L 29.67 23.67 L 35 23.67" fill="none" stroke="var(--icon-secondary, #6c8ebf)" stroke-width="2"/><path d="M 33.34 20.34 L 33.34 26.67 L 37.34 23.67 Z M 15 45 L 15 38.67 L 11 41.67 Z" fill="var(--icon-secondary, #6c8ebf)" stroke="none" stroke-width="0"/><path d="M 15 45.34 L 15 39 L 11 42 Z M 33.67 21 L 33.67 27.34 L 37.34 24.34 Z" fill="var(--icon-secondary, #6c8ebf)" stroke="none" stroke-width="0"/><path d="M 15 27 L 15 20.67 L 11 23.67 Z" fill="var(--icon-secondary, #6c8ebf)" stroke="none" stroke-width="0"/><path d="M 15 27.34 L 15 21 L 11 24 Z" fill="var(--icon-secondary, #6c8ebf)" stroke="none" stroke-width="0"/><path d="M 35.34 41.67 L 29.34 41.67 L 20.34 23.67 L 14.67 23.67" fill="none" stroke="var(--icon-secondary, #6c8ebf)" stroke-width="2"/><path d="M 36 42.34 L 29.34 42.34 L 20.34 24 L 13.67 24 M 13.67 42.34 L 20 42.34 L 29 24.34 L 36 24.34" fill="none" stroke="var(--icon-secondary, #6c8ebf)" stroke-width="2"/><path d="M 33.34 38.67 L 33.34 45 L 37.34 42 Z" fill="none" stroke="none" stroke-width="1"/><path d="M 33.67 39 L 33.67 45.34 L 37.34 42.34 Z" fill="none" stroke="none" stroke-width="1"/></svg>