<svg xmlns="http://www.w3.org/2000/svg" viewBox="0 0 62.33 76.33" width="62.33" height="76.33"><path d="M 27.33 32.66 C 36.33 32.66 36.33 32.66 36.33 32.66 C 36.33 44.66 36.33 44.66 36.33 44.66 C 36.33 44.66 27 47.66 27.33 47.66 C 27.33 47.66 27.33 32.66 27.33 32.66 Z" fill="var(--icon-primary, #dae8fc)" stroke="none" stroke-width="0"/><rect x="0" y="0" width="0" height="0" fill="none" stroke="var(--icon-secondary, #6c8ebf)" stroke-width="1"/><path d="M 31.33 33.66 C 48.67 33.66 62.33 20.66 62.33 17.33 C 62.33 14.33 48.33 11.66 31 11.66 C 14 11.66 0 14.33 0 17.33 C 0 20.66 14 33.66 31.33 33.66 Z" fill="var(--icon-primary, #dae8fc)" stroke="none" stroke-width="0"/><path d="M 31 23.33 C 48.33 23.33 62.33 20.66 62.33 17.33 C 62.33 14.33 48.33 11.66 31 11.66 C 14 11.66 0 14.33 0 17.33 C 0 20.66 14 23.33 31 23.33 Z" fill="var(--icon-secondary, #6c8ebf)" stroke="var(--icon-secondary, #6c8ebf)" stroke-width="0.67"/><path d="M 23 13 C 18 13.33 13.67 14 10.33 14.66 M 23.33 14.33 C 18.67 14.66 14.33 15.33 11.33 16 M 23.67 15.66 C 19 16 15 16.66 12 17.66 M 24.33 17.33 C 20 17.66 16 18.33 13.33 19.33 M 24.67 18.66 C 20.33 19 16.67 20 14.33 21 M 25.33 20.33 C 22 20.66 19 21.33 17 22.33 M 25.67 22 C 24 22 23 22.33 21.67 22.66 M 0 18 L 31.33 2.33 L 62.33 17.33" fill="none" stroke="var(--icon-secondary, #6c8ebf)" stroke-width="0.67"/><path d="M 31.33 6.33 C 32.67 6.33 33.67 6 33.67 5.33 C 33.67 4.66 32.67 4.33 31.33 4.33 C 30.33 4.33 29.33 4.66 29.33 5.33 C 29.33 6 30.33 6.33 31.33 6.33 Z" fill="var(--icon-primary, #dae8fc)" stroke="none" stroke-width="0"/><path d="M 31.33 0 L 30.67 22 L 32.33 22 Z M 38.67 41 L 38.67 35 L 23.67 35 L 23.67 41 Z" fill="var(--icon-primary, #dae8fc)" stroke="none" stroke-width="0"/><path d="M 30.33 39 L 25.67 39 L 25.67 37.66 L 30.33 37.66 Z M 36.67 39 L 32 39 L 32 37.66 L 36.67 37.66 Z" fill="var(--icon-secondary, #6c8ebf)" stroke="none" stroke-width="0"/><path d="M 55.67 52.66 C 55.67 58 44.67 62.33 31 62.33 C 17.67 62.33 6.67 58 6.67 52.66 C 6.67 66.66 6.67 66.66 6.67 66.66 C 6.67 71.99 17.67 76.33 31 76.33 C 44.67 76.33 55.67 71.99 55.67 66.66 Z M 31 62.33 C 44.67 62.33 55.67 58 55.67 52.66 C 55.67 47.33 44.67 43.33 31 43.33 C 17.67 43.33 6.67 47.33 6.67 52.66 C 6.67 58 17.67 62.33 31 62.33 Z" fill="var(--icon-primary, #dae8fc)" stroke="var(--icon-secondary, #6c8ebf)" stroke-width="1" stroke-linejoin="round"/><path d="M 25.67 49 L 27.67 52 L 20 53.66 L 21.67 52.33 L 9.67 50.33 L 12.67 48 L 24 50 Z M 36.33 56.33 L 35 53.33 L 42 52 L 40.67 53 L 52 55 L 49.33 57 L 38 55 Z M 32.67 47.33 L 40.33 45.33 L 40.33 48.66 L 38.33 48 L 34.67 51.33 L 31 50.66 L 35 47.66 Z M 29.33 59.33 L 22 60.66 L 21.67 57.33 L 23.67 57.66 L 27.67 54.33 L 31.33 54.66 L 27 58.66 Z" fill="var(--icon-secondary, #6c8ebf)" stroke="none" stroke-width="0"/></svg>