<svg xmlns="http://www.w3.org/2000/svg" viewBox="0 0 55.33 34.33" width="55.33" height="34.33"><path d="M 47.66 34.33 L 47.66 6.33 L 7.66 6.33 L 7.66 34.33 Z M 47.66 6.33 L 55.33 0 L 18 0 L 7.66 6.33 Z M 55.33 28 L 55.33 0 L 47.66 6.33 L 47.66 34.33 Z" fill="var(--icon-primary, #dae8fc)" stroke="var(--icon-secondary, #6c8ebf)" stroke-width="1" stroke-linejoin="round"/><path d="M 45 15 L 8 15" fill="none" stroke="var(--icon-secondary, #6c8ebf)" stroke-width="1" stroke-dasharray="4 2" stroke-linecap="square" stroke-linejoin="round"/><rect x="0" y="0" width="0" height="0" fill="none" stroke="var(--icon-secondary, #6c8ebf)" stroke-width="1"/><path d="M 47 15 L 41.33 17.66 L 42.66 15 L 41.33 12.66 Z" fill="var(--icon-secondary, #6c8ebf)" stroke="none" stroke-width="0"/><path d="M 34 29 L 39.33 24.66 L 8 24.66" fill="none" stroke="var(--icon-secondary, #6c8ebf)" stroke-width="1" stroke-dasharray="4 2" stroke-linecap="square" stroke-linejoin="round"/><path d="M 30.66 31.66 L 33.33 26.33 L 34 29 L 36.33 30 Z" fill="var(--icon-secondary, #6c8ebf)" stroke="none" stroke-width="0"/><path d="M 42.33 27.33 L 42.33 9.33 L 37.33 13.33 L 37.33 31.33 Z M 16.66 27.33 L 16.66 9.33 L 11.66 13.33 L 11.66 31.33 Z M 29.33 27.33 L 29.33 9.33 L 24.66 13.33 L 24.66 31.33 Z" fill="none" stroke="var(--icon-secondary, #6c8ebf)" stroke-width="0.85"/><path d="M 7.66 15 L 0 15" fill="none" stroke="var(--icon-secondary, #6c8ebf)" stroke-width="1" stroke-dasharray="4 2" stroke-linecap="square"/><path d="M 7.66 24.66 L 0 24.66" fill="none" stroke="var(--icon-secondary, #6c8ebf)" stroke-width="1" stroke-dasharray="4 2" stroke-linecap="square"/></svg>