<svg xmlns="http://www.w3.org/2000/svg" viewBox="0 0 32.66 32" width="32.66" height="32"><path d="M 28 32 L 28 11 L 0 11 L 0 32 Z M 28 32 L 32.66 27.34 L 32.66 6.34 L 4.66 6.34 L 0 11 L 28 11 Z" fill="var(--icon-primary, #dae8fc)" stroke="var(--icon-secondary, #6c8ebf)" stroke-width="1" stroke-linejoin="round"/><path d="M 18 10.67 L 18 3.67 L 10.66 3.67 L 10.66 10.67 Z M 18 10.67 L 22.33 6.67 L 22.33 0 L 14.66 0 L 10.66 3.67 L 18 3.67 Z" fill="var(--icon-primary, #dae8fc)" stroke="var(--icon-secondary, #6c8ebf)" stroke-width="1" stroke-linejoin="round"/><rect x="0" y="0" width="0" height="0" fill="none" stroke="var(--icon-secondary, #6c8ebf)" stroke-width="1"/><path d="M 25.33 29.67 L 25.33 13.34 L 2.33 13.34 L 2.33 29.67 Z M 28 11 L 32.66 6.34 M 18 3.67 L 22.33 0" fill="none" stroke="var(--icon-secondary, #6c8ebf)" stroke-width="1"/></svg>