<svg xmlns="http://www.w3.org/2000/svg" viewBox="0 0 42.67 23" width="42.67" height="23"><path d="M 42.67 21.34 L 42.67 0 L 40.34 2 L 40.34 23 Z M 40.34 23 L 40.34 2 L 0 2 L 0 23 Z M 42.67 0 L 2.34 0 L 0 2 L 40.34 2 Z" fill="var(--icon-primary, #dae8fc)" stroke="var(--icon-secondary, #6c8ebf)" stroke-width="1" stroke-linejoin="round"/><path d="M 2.67 6.67 C 2.67 4.34 4.67 4 4.67 4 C 4.67 4 28 4 30 4 C 32.67 4 32.67 6.67 32.67 6.67 C 32.67 6.67 32.67 17 32.67 18.67 C 32.67 20 30.67 20.67 30.67 20.67 C 30.67 20.67 7 20.67 5 20.67 C 3.34 20.67 2.67 18.67 2.67 18.67 Z M 37.34 6.34 C 37.34 6.67 37 7 36.34 7 C 35.67 7 35.34 6.67 35.34 6.34 C 35.34 6 35.67 5.67 36.34 5.67 C 37 5.67 37.34 6 37.34 6.34 Z M 37.34 10.67 C 37.34 11 37 11.34 36.34 11.34 C 35.67 11.34 35.34 11 35.34 10.67 C 35.34 10.34 35.67 10 36.34 10 C 37 10 37.34 10.34 37.34 10.67 Z M 37.34 15 C 37.34 15.34 37 15.67 36.34 15.67 C 35.67 15.67 35.34 15.34 35.34 15 C 35.34 14.67 35.67 14.67 36.34 14.67 C 37 14.67 37.34 14.67 37.34 15 Z M 37.34 19.67 C 37.34 20 37 20.34 36.34 20.34 C 35.67 20.34 35.34 20 35.34 19.67 C 35.34 19.34 35.67 19 36.34 19 C 37 19 37.34 19.34 37.34 19.67 Z" fill="none" stroke="var(--icon-secondary, #6c8ebf)" stroke-width="1" stroke-linejoin="round"/></svg>