<svg xmlns="http://www.w3.org/2000/svg" viewBox="0 0 40 29.33" width="40" height="29.33"><path d="M 0 29.33 L 0 22.66 L 28 22.66 L 28 29.33 Z M 28 22.66 L 0 22.66 L 13.33 3.66 L 40 3.66 Z M 40 3.66 L 40 16 L 28 29.33 L 28 23 Z" fill="var(--icon-primary, #dae8fc)" stroke="var(--icon-secondary, #6c8ebf)" stroke-width="1" stroke-linejoin="round"/><path d="M 18.66 7 C 17 9 15 11.33 13.66 13.66 C 13.66 15.66 13.66 15.66 13.66 15.66 C 9.33 22 9.33 22 9.33 22 C 9 17.33 9 17.33 9 17.33 C 9.66 14 19.66 1.33 22 0 C 22.66 4 22.66 4 22.66 4 C 19 9 19 9 19 9 Z" fill="var(--icon-primary, #dae8fc)" stroke="var(--icon-secondary, #6c8ebf)" stroke-width="1" stroke-linejoin="round"/><path d="M 4 17.33 L 3.33 22 L 9.33 22 L 9 17.33 Z" fill="var(--icon-primary, #dae8fc)" stroke="var(--icon-secondary, #6c8ebf)" stroke-width="1" stroke-linejoin="round"/><path d="M 22 0 C 19.66 1.33 9.66 14 9 17.33 C 4 17.33 4 17.33 4 17.33 C 4.66 14 14.66 1.33 17 0 Z" fill="var(--icon-primary, #dae8fc)" stroke="var(--icon-secondary, #6c8ebf)" stroke-width="1" stroke-linejoin="round"/><rect x="0" y="0" width="0" height="0" fill="none" stroke="var(--icon-secondary, #6c8ebf)" stroke-width="1"/><path d="M 14.66 21 L 12.66 21 L 13.66 20 L 15.33 20 Z M 18.66 21 L 16.66 21 L 17.66 20 L 19.33 20 Z M 22.66 21 L 20.66 21 L 21.66 20 L 23.33 20 Z M 26.66 21 L 24.66 21 L 25.66 20 L 27.33 20 Z" fill="var(--icon-primary, #dae8fc)" stroke="var(--icon-secondary, #6c8ebf)" stroke-width="1"/></svg>