<svg xmlns="http://www.w3.org/2000/svg" viewBox="0 0 49 33" width="49" height="33"><path d="M 49 9.67 C 49 15 38 19 24.66 19 C 11 19 0 15 0 9.67 C 0 23.67 0 23.67 0 23.67 C 0 28.67 11 33 24.66 33 C 38 33 49 28.67 49 23.67 Z M 24.66 19 C 38 19 49 15 49 9.67 C 49 4.33 38 0 24.66 0 C 11 0 0 4.33 0 9.67 C 0 15 11 19 24.66 19 Z" fill="var(--icon-primary, #dae8fc)" stroke="var(--icon-secondary, #6c8ebf)" stroke-width="1" stroke-linejoin="round"/><path d="M 19 6 L 21 9 L 13.33 10.67 L 15 9.33 L 3.33 7.33 L 6 5 L 17.66 7 Z M 29.66 13.33 L 28.33 10 L 35.33 8.67 L 34 9.67 L 45.66 11.67 L 42.66 14 L 31.33 11.67 Z M 26 4.33 L 33.66 2 L 33.66 5.33 L 32 5 L 28 8 L 24.33 7.67 L 28.33 4.67 Z M 22.66 16 L 15.33 17.33 L 15 14 L 17 14.67 L 21.33 11 L 24.66 11.67 L 20.33 15.33 Z" fill="var(--icon-secondary, #6c8ebf)" stroke="none" stroke-width="0"/></svg>