<svg xmlns="http://www.w3.org/2000/svg" viewBox="0 0 26.66 48" width="26.66" height="48"><path d="M 22 46.33 L 22 3.67 L 2 3.67 L 2 46.33 L 22 46.33 Z M 2 3.67 L 6 0 L 25 0 L 22 3.67 L 2 3.67 Z M 22 46.33 L 25 40.33 L 25 0 L 22 3.67 L 22 46.33 Z M 23.66 48 L 22 46.33 L 2 46.33 L 0 48 L 23.66 48 Z M 23.66 48 L 26.66 41.67 L 25 40.33 L 22 46.33 L 23.66 48 Z M 2 6 L 22 6" fill="var(--icon-primary, #dae8fc)" stroke="var(--icon-secondary, #6c8ebf)" stroke-width="1" stroke-linejoin="round"/><rect x="0" y="0" width="0" height="0" fill="none" stroke="var(--icon-secondary, #6c8ebf)" stroke-width="1"/><path d="M 18 11 L 3.33 11 L 3.33 12.33 L 6 12.33 Z M 18 13.33 L 3.33 13.33 L 3.33 14.67 L 6 14.67 Z M 18 16 L 3.33 16 L 3.33 17.33 L 6 17.33 Z M 18 18.33 L 3.33 18.33 L 3.33 19.67 L 6 19.67 Z M 18 21 L 3.33 21 L 3.33 22.33 L 6 22.33 Z M 18 23.33 L 3.33 23.33 L 3.33 24.67 L 6 24.67 Z M 18 25.67 L 3.33 25.67 L 3.33 27 L 6 27 Z M 18 28.33 L 3.33 28.33 L 3.33 29.67 L 6 29.67 Z M 18 30.67 L 3.33 30.67 L 3.33 32 L 6 32 Z M 18 33.33 L 3.33 33.33 L 3.33 34.67 L 6 34.67 Z M 18 35.67 L 3.33 35.67 L 3.33 37 L 6 37 Z M 18 38 L 3.33 38 L 3.33 39.33 L 6 39.33 Z M 18 40.67 L 3.33 40.67 L 3.33 42 L 6 42 Z M 18 43 L 3.33 43 L 3.33 44.33 L 6 44.33 Z" fill="var(--icon-secondary, #6c8ebf)" stroke="none" stroke-width="0"/><path d="M 18 11 L 3.33 11 L 3.33 12.33 L 6 12.33 M 18 13.33 L 3.33 13.33 L 3.33 14.67 L 6 14.67 M 18 16 L 3.33 16 L 3.33 17.33 L 6 17.33 M 18 18.33 L 3.33 18.33 L 3.33 19.67 L 6 19.67 M 18 21 L 3.33 21 L 3.33 22.33 L 6 22.33 M 18 23.33 L 3.33 23.33 L 3.33 24.67 L 6 24.67 M 18 25.67 L 3.33 25.67 L 3.33 27 L 6 27 M 18 28.33 L 3.33 28.33 L 3.33 29.67 L 6 29.67 M 18 30.67 L 3.33 30.67 L 3.33 32 L 6 32 M 18 33.33 L 3.33 33.33 L 3.33 34.67 L 6 34.67 M 18 35.67 L 3.33 35.67 L 3.33 37 L 6 37 M 18 38 L 3.33 38 L 3.33 39.33 L 6 39.33 M 18 40.67 L 3.33 40.67 L 3.33 42 L 6 42 M 18 43 L 3.33 43 L 3.33 44.33 L 6 44.33" fill="none" stroke="var(--icon-secondary, #6c8ebf)" stroke-width="1"/></svg>