<svg xmlns="http://www.w3.org/2000/svg" viewBox="0 0 23.33 48.67" width="23.33" height="48.67"><path d="M 1.66 48.33 L 4 48.67 L 13.66 48.67 L 16 48.33 L 17.33 47.33 L 17.66 46.67 L 17.66 8.67 L 0 8.67 L 0 47.33 Z M 23.33 0 L 17.66 5.33 L 17.66 46.67 L 23.33 40 L 23.33 0 Z" fill="var(--icon-primary, #dae8fc)" stroke="var(--icon-secondary, #6c8ebf)" stroke-width="1" stroke-linejoin="round"/><rect x="0" y="0" width="0" height="0" fill="none" stroke="var(--icon-secondary, #6c8ebf)" stroke-width="1"/><path d="M 17.66 8.67 L 23.33 3.33 M 17.66 43.67 L 23.33 37.33" fill="none" stroke="var(--icon-secondary, #6c8ebf)" stroke-width="1"/><path d="M 5 0 C 23.33 0 23.33 0 23.33 0 C 17.66 5.33 17.66 5.33 17.66 5.33 C 17.66 5.33 17.66 5.33 17.66 5.33 C 17.66 5.33 10.33 8 0 5 Z M 0 5 C 10.33 8 17.66 5.33 17.66 5.33 C 17.66 8.67 17.66 8.67 17.66 8.67 C 17.66 8.67 10.33 11.33 0 8.33 Z" fill="var(--icon-primary, #dae8fc)" stroke="var(--icon-secondary, #6c8ebf)" stroke-width="1" stroke-linejoin="round"/><path d="M 17.33 21 L 0 21 L 0 21.33 M 0 14.67 L 17.67 14.67 M 0 17.33 L 17.67 17.33 M 0.33 22.67 L 1.66 24 L 4 24 M 16.66 13.33 L 1.33 13.33 L 1.33 11.33 L 16.66 11.33 Z M 4 22.33 L 13.66 22.33 L 16 22 L 17.33 21 M 4 24 L 13.66 24 L 16 24 L 17.33 22.67 M 0.33 21 L 1.66 22 L 4 22.33 M 0.33 26.67 L 1.66 27.67 L 4 28 M 4 26 L 13.66 26 L 16 25.67 L 17.33 24.67 M 4 28 L 13.66 28 L 16 27.67 L 17.33 26.67 M 0.33 24.67 L 1.66 25.67 L 4 26 M 0.33 30.33 L 1.66 31.33 L 4 31.67 M 4 30 L 13.66 30 L 16 29.67 L 17.33 28.67 M 4 31.67 L 13.66 31.67 L 16 31.33 L 17.33 30.33 M 0.33 28.67 L 1.66 29.67 L 4 30 M 0.33 34.33 L 1.66 35.33 L 4 35.33 M 4 33.67 L 13.66 33.67 L 16 33.33 L 17.33 32.33 M 4 35.33 L 13.66 35.33 L 16 35.33 L 17.33 34.33 M 0.33 32.33 L 1.66 33.33 L 4 33.67 M 0.33 38 L 1.66 39 L 4 39.33 M 4 37.33 L 13.66 37.33 L 16 37.33 L 17.33 36 M 4 39.33 L 13.66 39.33 L 16 39 L 17.33 38 M 0.33 36 L 1.66 37.33 L 4 37.33 M 0.33 41.67 L 1.66 42.67 L 4 43 M 4 41.33 L 13.66 41.33 L 16 41 L 17.33 40 M 4 43 L 13.66 43 L 16 42.67 L 17.33 41.67 M 0.33 40 L 1.66 41 L 4 41.33 M 0.33 45.67 L 1.66 46.67 L 4 47 M 4 45 L 13.66 45 L 16 44.67 L 17.33 43.67 M 4 47 L 13.66 47 L 16 46.67 L 17.33 45.67 M 0.33 43.67 L 1.66 44.67 L 4 45" fill="none" stroke="var(--icon-secondary, #6c8ebf)" stroke-width="1"/></svg>