<svg xmlns="http://www.w3.org/2000/svg" viewBox="0 0 44.67 48" width="44.67" height="48"><path d="M 22.33 48 L 0 36.33 L 0 11.66 L 22.33 23.33 Z M 22.33 23.33 L 44.67 11.66 L 22.33 0 L 0 11.66 Z M 44.67 36.33 L 22.33 48 L 22.33 23.33 L 44.67 11.66 Z" fill="var(--icon-primary, #dae8fc)" stroke="var(--icon-secondary, #6c8ebf)" stroke-width="1" stroke-linejoin="round"/><rect x="0" y="0" width="0" height="0" fill="none" stroke="var(--icon-secondary, #6c8ebf)" stroke-width="1"/><path d="M 22.33 13 L 27 15.33 L 24.33 15.33 L 24.33 20 L 20.67 20 L 20.67 15.33 L 17.67 15.33 Z M 39.33 11.66 L 34.67 14 L 34.67 12.66 L 26 12.66 L 26 10.66 L 34.67 10.66 L 34.67 9 Z M 22.33 10.33 L 17.67 8 L 20.67 8 L 20.67 3.33 L 24.33 3.33 L 24.33 8 L 27 8 Z M 5.33 11.66 L 10 9 L 10 10.66 L 18.67 10.66 L 18.67 12.66 L 10 12.66 L 10 14 Z" fill="var(--icon-secondary, #6c8ebf)" stroke="none" stroke-width="0"/><path d="M 42.67 29.33 L 42.67 15 L 25.33 24 L 25.33 38.33 Z" fill="var(--icon-secondary, #6c8ebf)" stroke="var(--icon-secondary, #6c8ebf)" stroke-width="1"/><path d="M 28 24.33 C 40 18 40 18 40 18 C 40.67 17.66 41.33 18 41.33 18.66 C 41.33 27 41.33 27 41.33 27 C 41.33 28 40.67 29 40 29.33 C 28 35.66 28 35.66 28 35.66 C 27 36 26.67 35.66 26.67 35 C 26.67 26.66 26.67 26.66 26.67 26.66 C 26.67 25.66 27 24.66 28 24.33 Z M 38.67 33 L 29.33 38 L 29.33 36.33 L 38.67 31.33 Z M 42.67 35 L 25.33 44 L 25.33 40 L 42.67 31 Z M 43 35.66 L 25 45.33 L 25 43.66 L 43 34 Z" fill="var(--icon-secondary, #6c8ebf)" stroke="var(--icon-secondary, #6c8ebf)" stroke-width="1"/><path d="M 34.33 27.66 L 32.33 31 L 32.33 23.66 L 37.33 26.33 Z" fill="var(--icon-primary, #dae8fc)" stroke="none" stroke-width="0"/><path d="M 34.33 28 L 35.67 30.66 L 36 30.33 L 34.67 27.66 Z" fill="var(--icon-secondary, #6c8ebf)" stroke="none" stroke-width="0"/><path d="M 20.67 40.33 L 20.67 35 L 17.33 36 Z M 2 30.66 L 2 25 L 5.33 29.33 Z M 4 20.66 L 4 26.33 L 0.67 22 Z M 18.33 28.33 L 18.33 33.66 L 21.67 32.66 Z" fill="var(--icon-secondary, #6c8ebf)" stroke="none" stroke-width="0"/><path d="M 16.67 31 L 18.67 32 L 19.33 31 L 17 30 Z" fill="var(--icon-secondary, #6c8ebf)" stroke="none" stroke-width="0"/><path d="M 19.67 37 L 22.33 38.33" fill="none" stroke="var(--icon-secondary, #6c8ebf)" stroke-width="1"/><path d="M 2.67 28 L 0 26.66" fill="none" stroke="var(--icon-secondary, #6c8ebf)" stroke-width="1"/><path d="M 2.67 23.33 L 5.67 25 L 5.67 24 L 3 22.66 Z M 15.33 29.33 L 15.33 40.33 L 7.33 36.33 L 7.33 25 Z" fill="var(--icon-secondary, #6c8ebf)" stroke="none" stroke-width="0"/><path d="M 14 31.66 L 8.67 29 L 8.67 27 L 14 29.66 Z M 14 38.66 L 8.67 36 L 8.67 31 L 14 33.66 Z" fill="var(--icon-secondary, #6c8ebf)" stroke="var(--icon-secondary, #6c8ebf)" stroke-width="1"/><path d="M 13 25 C 13 25 13.33 25 13.67 25.66 C 13.67 27 13.67 27 13.67 27 C 17 29 17 29 17 29 C 17.33 28.33 17.33 28.33 17.33 28.33 C 16.33 26 16.33 26 16.33 26 C 13.33 24 12.67 23.66 12.67 23.66 C 11.67 23 11.67 23 11.67 23 C 11.67 23 9 22 7.67 21.66 C 6 22.33 6 22.33 6 22.33 C 6 23.33 6 23.33 6 23.33 C 9.33 24.66 9.33 24.66 9.33 24.66 C 9.33 23.66 9.33 23.66 9.33 23.66 C 9.67 23 10.33 23.33 10.33 23.33 Z" fill="var(--icon-secondary, #6c8ebf)" stroke="none" stroke-width="0"/><path d="M 14 32.66 L 8.67 30" fill="none" stroke="var(--icon-secondary, #6c8ebf)" stroke-width="1"/></svg>