<svg xmlns="http://www.w3.org/2000/svg" viewBox="0 0 41.67 43.99" width="41.67" height="43.99"><rect x="0" y="0" width="0" height="0" fill="none" stroke="var(--icon-secondary, #6c8ebf)" stroke-width="1"/><path d="M 31.33 43.99 L 31.33 34 L 0 34 L 0 43.99 Z" fill="var(--icon-primary, #dae8fc)" stroke="var(--icon-secondary, #6c8ebf)" stroke-width="1" stroke-linejoin="round"/><path d="M 41.67 24.66 L 31.33 34 L 0 34 L 11.33 24.66 Z" fill="var(--icon-secondary, #6c8ebf)" stroke="var(--icon-secondary, #6c8ebf)" stroke-width="1" stroke-linejoin="round"/><path d="M 41.67 34.33 L 41.67 24.66 L 31.33 34 L 31.33 43.99 Z M 31.33 31.66 L 31.33 21.66 L 0 21.66 L 0 31.66 Z" fill="var(--icon-primary, #dae8fc)" stroke="var(--icon-secondary, #6c8ebf)" stroke-width="1" stroke-linejoin="round"/><path d="M 41.67 12 L 31.33 21.33 L 0 21.33 L 11.33 12 Z" fill="var(--icon-secondary, #6c8ebf)" stroke="var(--icon-secondary, #6c8ebf)" stroke-width="1" stroke-linejoin="round"/><path d="M 41.67 22.67 L 41.67 12 L 31.33 21.33 L 31.33 31.67 Z M 31.33 19.33 L 31.33 9.33 L 0 9.33 L 0 19.33 Z M 41.67 0 L 31.33 9.33 L 0 9.33 L 11.33 0 Z M 41.67 10 L 41.67 0 L 31.33 9.33 L 31.33 19.33 Z" fill="var(--icon-primary, #dae8fc)" stroke="var(--icon-secondary, #6c8ebf)" stroke-width="1" stroke-linejoin="round"/><path d="M 25.67 5.33 L 27 4.33 L 30.67 5.33 L 23.33 7 L 24.67 5.66 L 17.67 5.66 L 18.67 5.33 Z M 22.33 2.66 L 21.67 3.33 L 15.67 3.33 L 14.67 4 L 11 2.66 L 18 1.33 L 16.33 2.66 Z M 17 6.66 L 16.33 7.33 L 10.33 7.33 L 9.33 8 L 5.67 7 L 13 5.33 L 11.33 6.66 Z M 31.33 1.66 L 32.67 0.66 L 36.33 1.66 L 29 3.33 L 30.33 2.33 L 23.33 2.33 L 24.33 1.66 Z" fill="var(--icon-secondary, #6c8ebf)" stroke="none" stroke-width="0"/><path d="M 25.67 5.66 L 27 4.66 L 30.67 5.66 L 23.33 7.33 L 24.67 6 L 17.67 6 L 18.67 5.66 Z M 22.33 3 L 21.67 3.66 L 15.67 3.66 L 14.67 4.33 L 11 3 L 18 1.66 L 16.33 3 Z M 17 7 L 16.33 7.66 L 10.33 7.66 L 9.33 8.33 L 5.67 7.33 L 13 5.66 L 11.33 7 Z M 31.33 2 L 32.67 1 L 36.33 2 L 29 3.66 L 30.33 2.66 L 23.33 2.66 L 24.33 2 Z M 17 20.66 L 17 13.66 L 18 13.66 L 16.33 11 L 14.67 13.66 L 15.67 13.66 L 15.67 20.66 Z M 13.33 23 L 8.33 18 L 9.33 17.33 L 6.33 16.66 L 6.67 19.66 L 7.67 19 L 12.67 23.66 Z M 11.67 26.33 L 4.67 26.33 L 4.67 25 L 2 26.66 L 4.67 28.66 L 4.67 27.33 L 11.67 27.33 Z M 12.67 29.66 L 7.67 34.66 L 6.67 33.66 L 6.33 37 L 9.33 36.33 L 8.33 35.33 L 13.33 30.66 Z M 15.67 31.66 L 15.67 38.33 L 14.67 38.33 L 16.33 41 L 18 38.33 L 17 38.33 L 17 31.66 Z M 19.33 30.66 L 24.33 35.33 L 23.33 36.33 L 26.33 37 L 25.67 33.66 L 25 34.66 L 20 29.66 Z M 21 27.33 L 28 27.33 L 28 28.66 L 30.67 26.66 L 28 25 L 28 26.33 L 21 26.33 Z M 20 23.66 L 25 19 L 25.67 19.66 L 26.33 16.66 L 23.33 17.33 L 24.33 18 L 19.33 23 Z" fill="var(--icon-secondary, #6c8ebf)" stroke="none" stroke-width="0"/><path d="M 19.33 31 C 21.67 29.33 22.33 26.33 20.67 24 C 19 21.66 15.67 21 13.67 22.66 C 11.33 24.33 10.67 27.33 12.33 29.66 C 14 32 17 32.66 19.33 31 Z" fill="var(--icon-secondary, #6c8ebf)" stroke="none" stroke-width="0"/><path d="M 40 22.66 C 39.67 29 37.67 34 35.67 34 C 34 34 32.67 28.33 33.33 22 C 33.67 15.33 35.67 10.33 37.67 10.33 C 39.33 10.66 40.67 16 40 22.66 Z" fill="none" stroke="var(--icon-secondary, #6c8ebf)" stroke-width="1.33" stroke-linejoin="round"/></svg>