<svg xmlns="http://www.w3.org/2000/svg" viewBox="0 0 68.33 46.66" width="68.33" height="46.66"><path d="M 0 5.33 L 0 46.66 L 63.33 46.66 L 63.33 5.33 Z M 0 5.33 L 5 0 L 68.33 0 L 63.33 5.33 Z M 63.33 5.33 L 68.33 0 L 68.33 41.33 L 63.33 46.66 Z" fill="var(--icon-primary, #dae8fc)" stroke="var(--icon-secondary, #6c8ebf)" stroke-width="1" stroke-linejoin="round"/><rect x="0" y="0" width="0" height="0" fill="none" stroke="var(--icon-secondary, #6c8ebf)" stroke-width="1"/><path d="M 50.67 14.33 L 50.67 12 L 56.67 16 L 50.67 20 L 50.67 17.66 L 43 17.66 L 43 14.33 L 50.67 14.33 Z M 19 24.66 L 19 22.33 L 24.67 26.33 L 19 30.33 L 19 28 L 4.33 28 L 4.33 24.66 Z M 50.67 35 L 50.67 32.66 L 56.67 36.66 L 50.67 40.66 L 50.67 38.33 L 43 38.33 L 43 35 Z" fill="var(--icon-secondary, #6c8ebf)" stroke="none" stroke-width="0"/><path d="M 50 13.66 L 50 11.33 L 55.67 15 L 50 19.33 L 50 16.66 L 42.33 16.66 L 42.33 13.66 Z M 18 24 L 18 21.33 L 24 25.66 L 18 29.66 L 18 27 L 3.67 27 L 3.67 24 Z" fill="var(--icon-secondary, #6c8ebf)" stroke="none" stroke-width="0"/><path d="M 56 24.66 L 56 22.33 L 61.67 26.33 L 56 30.33 L 56 28 L 42.67 28 L 42.67 24.66 Z" fill="var(--icon-secondary, #6c8ebf)" stroke="none" stroke-width="0"/><path d="M 55.33 24 L 55.33 21.33 L 61 25.66 L 55.33 29.66 L 55.33 27 L 42 27 L 42 24 Z M 50 34.33 L 50 32 L 55.67 36 L 50 40 L 50 37.66 L 42.33 37.66 L 42.33 34.33 Z" fill="var(--icon-secondary, #6c8ebf)" stroke="none" stroke-width="0"/><path d="M 40 8.66 L 40 43.33 L 25 43.33 L 25 8.66 Z" fill="none" stroke="var(--icon-secondary, #6c8ebf)" stroke-width="1"/><path d="M 36 35.33 L 36 40 L 29.67 40 L 29.67 35.33 Z M 39 40 L 39 41.33 L 38 41.33 L 38 40 Z M 39 37 L 39 38.66 L 38 38.66 L 38 37 Z M 39 34.33 L 39 35.66 L 38 35.66 L 38 34.33 Z M 39 31.66 L 39 33 L 38 33 L 38 31.66 Z M 39 28.66 L 39 30 L 38 30 L 38 28.66 Z M 39 26 L 39 27.33 L 38 27.33 L 38 26 Z M 39 23 L 39 24.66 L 38 24.66 L 38 23 Z M 39 20.33 L 39 21.66 L 38 21.66 L 38 20.33 Z M 39 17.33 L 39 18.66 L 38 18.66 L 38 17.33 Z M 39 14.66 L 39 16 L 38 16 L 38 14.66 Z M 39 12 L 39 13 L 38 13.33 L 38 12 Z M 27.67 40 L 27.67 41.33 L 26.33 41.33 L 26.33 40 Z M 27.67 37 L 27.67 38.66 L 26.33 38.66 L 26.33 37 Z M 27.67 34.33 L 27.67 35.66 L 26.33 35.66 L 26.33 34.33 Z M 27.67 31.66 L 27.67 33 L 26.33 33 L 26.33 31.66 Z M 27.67 28.66 L 27.67 30 L 26.33 30 L 26.33 28.66 Z M 27.67 26 L 27.67 27.33 L 26.33 27.33 L 26.33 26 Z M 27.67 23 L 27.67 24.66 L 26.33 24.66 L 26.33 23 Z M 27.67 20.33 L 27.67 21.66 L 26.33 21.66 L 26.33 20.33 Z M 27.67 17.33 L 27.67 18.66 L 26.33 18.66 L 26.33 17.33 Z M 27.67 14.66 L 27.67 16 L 26.33 16 L 26.33 14.66 Z M 27.67 12 L 27.67 13.33 L 26.33 13.33 L 26.33 12 Z M 36 27.66 L 36 32.33 L 29.67 32.33 L 29.67 27.66 Z M 36 20.33 L 36 25 L 29.67 25 L 29.67 20.33 Z M 36 13 L 36 17.33 L 29.67 17.33 L 29.67 13 Z" fill="var(--icon-secondary, #6c8ebf)" stroke="none" stroke-width="0"/><path d="M 9.33 8.66 C 5.33 8 3.33 10 3.67 11.66 C 3.67 11.66 3.67 11.66 3.67 11.66 C 0.67 12.33 1.67 16 3 16 C 3 16 3 16 3 16 C 2.67 17.66 6.33 19.33 8.33 18.33 C 8.33 18.33 8.33 18.33 8.33 18.33 C 9.33 20 11.67 20 14.33 20.33 C 16.33 20.33 17.67 20 18.67 19 C 18.67 19.33 18.67 19.33 18.67 19.33 C 22.33 19.33 23.67 17 23 15.33 C 23.33 15.33 23.33 15.33 23.33 15.33 C 24.33 15 24.67 12.33 22.33 12 C 22.67 11.66 22.67 11.66 22.67 11.66 C 23.33 10 21.33 8.33 18.33 8.66 C 18.33 8.33 18.33 8.33 18.33 8.33 C 16.33 6.66 10.33 7 9.67 8.66 Z" fill="var(--icon-secondary, #6c8ebf)" stroke="var(--icon-secondary, #6c8ebf)" stroke-width="0.67"/></svg>