<svg xmlns="http://www.w3.org/2000/svg" viewBox="0 0 57.33 28" width="57.33" height="28"><path d="M 43 28 L 43 14 L 0 14 L 0 28 Z M 0 14 L 17.33 0 L 57.33 0 L 43 14 Z M 43 28 L 57.33 14 L 57.33 0 L 43 14 Z" fill="var(--icon-primary, #dae8fc)" stroke="var(--icon-secondary, #6c8ebf)" stroke-width="1" stroke-linejoin="round"/><path d="M 25.33 10.34 L 24.33 11 L 13.67 11 L 12.67 12 L 9.67 11 L 15.67 9.34 L 14.33 10.34 Z M 33.67 5 L 32.67 5.67 L 22 5.67 L 21 7 L 18 5.67 L 24 4 L 23 5 Z M 27 8.67 L 28 8 L 38.67 8 L 39.67 6.67 L 42.67 8 L 36.67 9.67 L 37.67 8.67 Z M 32.67 3.34 L 33.33 2.67 L 44 2.67 L 45.33 1.67 L 48 2.67 L 42.33 4.34 L 43.33 3.34 Z M 21.67 21.67 L 29.33 21.67 L 29.33 23 L 32.33 21 L 29.33 19.34 L 29.33 20.67 L 21.67 20.67 Z M 21.33 19.67 L 28.67 17.34 L 29 18.34 L 31.33 15.67 L 27.67 15 L 28.33 16 L 21 18.67 Z M 21.33 22.34 L 28.67 25 L 29 23.67 L 31.33 26.34 L 27.67 27.34 L 28.33 26 L 21 23.67 Z M 9.67 21.67 L 17 21.67 L 17 23 L 20 21 L 17 19.34 L 17 20.67 L 9.67 20.67 Z" fill="var(--icon-secondary, #6c8ebf)" stroke="none" stroke-width="0"/></svg>