<svg xmlns="http://www.w3.org/2000/svg" viewBox="0 0 25 41" width="25" height="41"><path d="M 21.67 41 L 21.67 17.67 L 0 17.67 L 0 41 Z M 21.67 17.67 L 21.67 3.67 L 0 3.67 L 0 17.67 Z M 0 3.67 L 4 0.33 L 25 0.33 L 21.67 3.67 Z M 21.67 41 L 25 37 L 25 14.33 L 21.67 17.67 Z M 21.67 17.67 L 25 14 L 25 0.33 L 21.67 3.67 Z" fill="var(--icon-primary, #dae8fc)" stroke="var(--icon-secondary, #6c8ebf)" stroke-width="1" stroke-linejoin="round"/><path d="M 0 38.33 L 21.67 38.33 M 0 17.67 L 21.33 17.67" fill="none" stroke="var(--icon-secondary, #6c8ebf)" stroke-width="1" stroke-linejoin="round"/><path d="M 9 30.33 L 9 33.33 L 8 33.33 L 10.33 36.33 L 13 33.33 L 11.67 33.33 L 11.67 30.33 Z M 9 27.67 L 9 24.67 L 8 24.67 L 10.33 21.67 L 13 24.67 L 11.67 24.67 L 11.67 27.67 Z M 3 28 L 6 28 L 6 26.67 L 9 29 L 6 31.67 L 6 30.33 L 3 30.33 Z M 18 28 L 14.67 28 L 14.67 26.67 L 11.67 29 L 14.67 31.67 L 14.67 30.33 L 18 30.33 Z" fill="var(--icon-secondary, #6c8ebf)" stroke="none" stroke-width="0"/><rect x="0" y="0" width="0" height="0" fill="none" stroke="var(--icon-secondary, #6c8ebf)" stroke-width="1"/><path d="M 21.67 8.33 L 0 8.33 M 23.67 1.67 L 2 1.67 M 21.67 13 L 0 13 M 25 5 L 21.67 8.33 M 25 9.33 L 21.67 13 M 23.33 2 L 23.33 15.33 M 6.33 3.67 L 6.33 8.33 M 14.67 3.67 L 14.67 8.33 M 6.33 13.33 L 6.33 17.67 M 14.67 13.33 L 14.67 17.67 M 10.67 8.33 L 10.67 13 M 2.33 8.33 L 2.33 13 M 19 8.33 L 19 13 M 10.67 0.33 L 6.33 3.67 M 19 0.33 L 14.67 3.67 M 25 34.67 L 21.67 38.33" fill="none" stroke="var(--icon-secondary, #6c8ebf)" stroke-width="1"/></svg>