<svg xmlns="http://www.w3.org/2000/svg" viewBox="0 0 40 45.67" width="40" height="45.67"><path d="M 33.34 45.67 L 40 39.33 L 40 0 L 33.34 6.33 Z M 40 0 L 33.34 6.33 L 0 6.33 L 8.67 0 Z M 33.34 45.67 L 33.34 6.33 L 0 6.33 L 0 45.67 Z" fill="var(--icon-primary, #dae8fc)" stroke="var(--icon-secondary, #6c8ebf)" stroke-width="1" stroke-linejoin="round"/><path d="M 17.34 12 L 18.67 12 L 16.67 9.33 L 15 12 L 16.34 12 L 16.34 40.67 L 15 40.67 L 16.67 43.33 L 18.67 40.67 L 17.34 40.67 Z M 8 12 L 9.34 12 L 7.67 9.33 L 5.67 12 L 7 12 L 7 40.67 L 5.67 40.67 L 7.67 43.33 L 9.34 40.67 L 8 40.67 Z M 26.34 12 L 27.34 12 L 25.67 9.33 L 24 12 L 25 12 L 25 40.67 L 24 40.67 L 25.67 43.33 L 27.34 40.67 L 26.34 40.67 Z" fill="var(--icon-secondary, #6c8ebf)" stroke="none" stroke-width="0"/></svg>