<svg xmlns="http://www.w3.org/2000/svg" viewBox="0 0 85.66 46.33" width="85.66" height="46.33"><path d="M 51 24.33 L 55.66 0 L 20.33 0 L 15 24.33 Z M 55.66 0 L 57.33 1.66 L 53 25.66 L 51 24.33 Z M 15 24.33 L 16.66 25.66 L 53 25.66 L 51 24.33 Z" fill="var(--icon-primary, #dae8fc)" stroke="var(--icon-secondary, #6c8ebf)" stroke-width="1" stroke-linejoin="round"/><path d="M 51.33 26 C 51.33 29.66 51.33 29.66 51.33 29.66 C 50.66 30.66 50.66 30.66 50.66 30.66 C 50.66 30.66 48.33 31.33 48.66 32.66 C 39 41.66 39 41.66 39 41.66 C 39 37.66 39 37.66 39 37.66 Z" fill="var(--icon-primary, #dae8fc)" stroke="var(--icon-secondary, #6c8ebf)" stroke-width="1" stroke-linejoin="round"/><rect x="0" y="0" width="0" height="0" fill="none" stroke="var(--icon-secondary, #6c8ebf)" stroke-width="1"/><path d="M 0 37.66 L 0 41.66 L 39 41.66 L 39 37.66 Z" fill="var(--icon-primary, #dae8fc)" stroke="var(--icon-secondary, #6c8ebf)" stroke-width="1"/><path d="M 0 37.66 L 0 41.66 L 39 41.66 L 39 37.66" fill="none" stroke="var(--icon-secondary, #6c8ebf)" stroke-width="1"/><path d="M 15.33 26.33 L 51.33 26 L 39 37.66 L 0 37.66 Z M 48 22 L 52 3 L 23 3 L 19.33 22 Z" fill="var(--icon-primary, #dae8fc)" stroke="var(--icon-secondary, #6c8ebf)" stroke-width="1" stroke-linejoin="round"/><path d="M 16.33 26.66 L 7.33 34 M 19.33 26.66 L 10 34 M 22 26.66 L 13 34 M 25 26.66 L 16 34 M 28 26.66 L 19 34 M 31 26.66 L 21.66 34 M 33.66 26.66 L 24.66 34 M 36.66 26.66 L 27.66 34 M 39.66 26.66 L 30.66 34 M 42.66 26.66 L 33.33 34 M 45.33 26.66 L 36.33 34 M 48.33 26.66 L 39.33 34 M 8.33 33.33 L 40.66 33.33 M 10.33 31.66 L 42.33 31.66 M 12.66 30 L 44.33 30 M 14.66 28.33 L 46.66 28.33" fill="none" stroke="var(--icon-secondary, #6c8ebf)" stroke-width="1" stroke-linejoin="round"/><path d="M 34.33 9 C 39.66 9 39.66 9 39.66 9 C 41 9.66 40.66 10.66 40.66 10.66 C 40.66 11.66 40 11.66 40 11.66 C 30.33 11.66 30.33 11.66 30.33 11.66 C 28.66 11.66 29.33 10.33 29.33 10.33 C 33.33 5.66 33.33 5.66 33.33 5.66 C 34 5 35.33 5.66 35.33 5.66 C 36.33 6.33 36 7.33 36 7.33 Z" fill="var(--icon-secondary, #6c8ebf)" stroke="none" stroke-width="0"/><path d="M 38 16.33 C 33 16.33 33 16.33 33 16.33 C 31.66 16 31.66 15 31.66 15 C 31.66 14 32.66 13.66 32.66 13.66 C 42 13.66 42 13.66 42 13.66 C 44 14 43.33 15.33 43.33 15.33 C 39.33 20 39.33 20 39.33 20 C 38.66 20.66 37 20 37 20 C 36.33 19 36.66 18.33 36.66 18.33 Z" fill="var(--icon-secondary, #6c8ebf)" stroke="none" stroke-width="0"/><path d="M 49 41 C 49 41.66 48.33 42.33 47.66 42.33 C 46.66 42.33 46 41.66 46 41 C 46 40 46.66 39.33 47.66 39.33 C 48.33 39.33 49 40 49 41 Z" fill="var(--icon-secondary, #6c8ebf)" stroke="none" stroke-width="0"/><path d="M 75 43.33 C 70.66 45 62.33 45.33 55.33 44.33 C 51 43.33 48.33 42.33 47.66 41" fill="none" stroke="var(--icon-secondary, #6c8ebf)" stroke-width="0.67" stroke-linejoin="round"/><path d="M 57.66 36 C 58.66 33.33 60.33 31 63 29 C 69.33 23.66 77.66 22.66 81.66 26.33 C 85.66 30 83.66 37 77.66 42.33 C 77 42.66 76.33 43.33 75.66 43.66" fill="none" stroke="var(--icon-secondary, #6c8ebf)" stroke-width="1.33" stroke-linejoin="round"/><path d="M 78.33 43.66 C 78.33 45 77 46.33 75.66 46.33 C 74.33 46.33 73 45 73 43.66 C 73 42.33 74.33 41 75.66 41 C 77 41 78.33 42.33 78.33 43.66 Z" fill="var(--icon-secondary, #6c8ebf)" stroke="none" stroke-width="0"/><path d="M 59 36 C 59 36.66 58.33 37.33 57.66 37.33 C 56.66 37.33 56 36.66 56 36 C 56 35 56.66 34.33 57.66 34.33 C 58.33 34.33 59 35 59 36 Z" fill="var(--icon-secondary, #6c8ebf)" stroke="none" stroke-width="0"/></svg>