<svg xmlns="http://www.w3.org/2000/svg" viewBox="0 0 44 40" width="44" height="40"><path d="M 44 7.66 L 44 21.33 L 32 32.33 L 32 19 Z M 11 11 L 0 11 L 12.33 0 L 23 0 L 38 7.66 L 44 7.66 L 32 19 L 26 19 Z M 11 11 L 26 19 L 26 19 L 32 19 L 32 32.33 L 26 32.33 L 26 32.33 L 11 40 L 11 40 L 0 40 L 0 11 L 11 11 Z" fill="var(--icon-primary, #dae8fc)" stroke="var(--icon-secondary, #6c8ebf)" stroke-width="1" stroke-linejoin="round"/><path d="M 23.33 8 L 18 5" fill="none" stroke="var(--icon-secondary, #6c8ebf)" stroke-width="1" stroke-linecap="round" stroke-linejoin="round"/><path d="M 26 12.33 L 30 9 L 25.33 9.33 Z M 19.33 8.33 L 23.33 5 L 24 8.33 L 19.33 8.33 Z" fill="var(--icon-secondary, #6c8ebf)" stroke="none" stroke-width="0"/><path d="M 31.33 12 L 26.33 9.66 M 25.33 8.33 L 28.33 6" fill="none" stroke="var(--icon-secondary, #6c8ebf)" stroke-width="0.67" stroke-linecap="round" stroke-linejoin="round"/><path d="M 20 9.66 L 24.33 12 L 19.66 12.66 Z M 25.66 5 L 30 7.33 L 29.66 4.66 Z" fill="var(--icon-secondary, #6c8ebf)" stroke="none" stroke-width="0"/><path d="M 21 11.66 L 24 9.33" fill="none" stroke="var(--icon-secondary, #6c8ebf)" stroke-width="0.67" stroke-linecap="round" stroke-linejoin="round"/><path d="M 19.66 31 L 15.33 31 L 9.33 19 L 5.33 19 M 5 31 L 9.33 31 L 15 19 L 19.66 19" fill="none" stroke="var(--icon-secondary, #6c8ebf)" stroke-width="2"/><path d="M 18.33 17 L 18.33 21 L 20.66 19 Z M 18.33 29 L 18.33 33 L 20.66 31 Z M 5.66 21.33 L 5.66 17 L 3.33 19 Z M 5.66 33.33 L 5.66 29 L 3.33 31 Z" fill="var(--icon-secondary, #6c8ebf)" stroke="var(--icon-secondary, #6c8ebf)" stroke-width="1"/></svg>