<svg xmlns="http://www.w3.org/2000/svg" viewBox="0 0 56.66 31.66" width="56.66" height="31.66"><rect x="0" y="0" width="0" height="0" fill="none" stroke="var(--icon-secondary, #6c8ebf)" stroke-width="1"/><path d="M 27 2.33 C 14.33 2.33 14.33 2.33 14.33 2.33 C 0 23 0 23 0 23 C 12.66 23 12.66 23 12.66 23 C 28 25.33 31.66 24 46.33 23 C 56.66 6 56.66 6 56.66 6 C 53 6 53 6 53 6 C 55.66 2.33 55.66 2.33 55.66 2.33 C 30.33 2.33 30.33 2.33 30.33 2.33 C 27.33 6 27.33 6 27.33 6 C 24.33 6 24.33 6 24.33 6 Z" fill="var(--icon-primary, #dae8fc)" stroke="var(--icon-secondary, #6c8ebf)" stroke-width="1" stroke-linejoin="round"/><path d="M 27 21.66 L 18 21.66 L 23 15.33 L 31.66 15.33 Z M 56.66 6 L 56.66 18.33 L 46.33 29.66 L 46.33 23 Z" fill="var(--icon-primary, #dae8fc)" stroke="var(--icon-secondary, #6c8ebf)" stroke-width="1" stroke-linejoin="round"/><path d="M 20.33 7 C 18.66 9 16.66 11.33 15.33 13.66 C 15.33 15 15.33 15 15.33 15 C 11 21.66 11 21.66 11 21.66 C 10.66 17.33 10.66 17.33 10.66 17.33 C 11.33 14 21.33 1.33 23.66 0 C 24.33 4.33 24.33 4.33 24.33 4.33 C 20.33 8.33 20.33 8.33 20.33 8.33 Z" fill="var(--icon-primary, #dae8fc)" stroke="var(--icon-secondary, #6c8ebf)" stroke-width="1" stroke-linejoin="round"/><path d="M 2.66 17.33 L 2.33 21.66 L 11 21.66 L 10.66 17.33 Z" fill="var(--icon-primary, #dae8fc)" stroke="var(--icon-secondary, #6c8ebf)" stroke-width="1" stroke-linejoin="round"/><path d="M 23.66 0 C 21.33 1.33 11.33 14 10.66 17.33 C 2.66 17.33 2.66 17.33 2.66 17.33 C 3.33 14 13.33 1.33 15.66 0 Z" fill="var(--icon-primary, #dae8fc)" stroke="var(--icon-secondary, #6c8ebf)" stroke-width="1" stroke-linejoin="round"/><rect x="0" y="0" width="0" height="0" fill="none" stroke="var(--icon-secondary, #6c8ebf)" stroke-width="1"/><path d="M 26.33 11 L 31.66 4 L 52 4 L 47.33 11 Z" fill="var(--icon-secondary, #6c8ebf)" stroke="var(--icon-secondary, #6c8ebf)" stroke-width="1"/><path d="M 28.66 9.66 L 32 5 L 45.66 5 L 42.66 9.66 Z" fill="var(--icon-primary, #dae8fc)" stroke="none" stroke-width="0"/><path d="M 28.66 15.33 L 24 21.66 M 25.66 15.33 L 21 21.66 M 22 16.66 L 30.66 16.66 M 20.66 18.33 L 29.33 18.33 M 19 20.33 L 28 20.33" fill="none" stroke="var(--icon-secondary, #6c8ebf)" stroke-width="1"/><path d="M 46.33 29.66 C 31.66 30.66 28 31.66 12.66 29.66 C 0 29.66 0 29.66 0 29.66 C 0 23 0 23 0 23 C 12.66 23 12.66 23 12.66 23 C 28 25.33 31.66 24 46.33 23 Z" fill="var(--icon-primary, #dae8fc)" stroke="var(--icon-secondary, #6c8ebf)" stroke-width="1" stroke-linejoin="round"/><path d="M 27 2.33 L 27 6 L 24.33 6 Z" fill="var(--icon-primary, #dae8fc)" stroke="var(--icon-secondary, #6c8ebf)" stroke-width="1" stroke-linejoin="round"/><path d="M 55.66 2.33 L 55.66 6 L 53 6 Z" fill="var(--icon-primary, #dae8fc)" stroke="var(--icon-secondary, #6c8ebf)" stroke-width="1" stroke-linejoin="round"/></svg>