<svg xmlns="http://www.w3.org/2000/svg" viewBox="0 0 49 43" width="49" height="43"><path d="M 49 9.33 C 49 14.66 38 19 24.33 19 C 10.67 19 0 14.66 0 9.33 C 0 33.33 0 33.33 0 33.33 C 0 38.66 10.67 43 24.33 43 C 38 43 49 38.66 49 33.33 Z M 24.33 19 C 38 19 49 14.66 49 9.33 C 49 4.33 38 0 24.33 0 C 10.67 0 0 4.33 0 9.33 C 0 14.66 10.67 19 24.33 19 Z" fill="var(--icon-primary, #dae8fc)" stroke="var(--icon-secondary, #6c8ebf)" stroke-width="1" stroke-linejoin="round"/><rect x="0" y="0" width="0" height="0" fill="none" stroke="var(--icon-secondary, #6c8ebf)" stroke-width="1"/><path d="M 18.67 5.66 L 20.67 8.66 L 13 10.66 L 14.67 9 L 3 7 L 6 5 L 17.33 6.66 Z M 29.67 13 L 28.33 10 L 35 8.66 L 34 9.66 L 45.33 11.66 L 42.67 13.66 L 31.33 11.66 Z M 25.67 4 L 33.67 2 L 33.67 5.33 L 31.67 5 L 28 8 L 24.33 7.33 L 28.33 4.33 Z M 22.33 16 L 15 17.33 L 14.67 14 L 17 14.33 L 21 11 L 24.67 11.66 L 20.33 15.33 Z" fill="var(--icon-secondary, #6c8ebf)" stroke="none" stroke-width="0"/><path d="M 36.67 36 L 36.67 29.66 L 33 32.66 Z M 10.67 36 L 10.67 29.66 L 14.33 32.66 Z M 13 23.66 L 13 30 L 9.33 27 Z M 34 23.66 L 34 30 L 37.67 27 Z" fill="var(--icon-secondary, #6c8ebf)" stroke="none" stroke-width="0"/><path d="M 34.67 26.66 L 32.67 26.66 M 35.67 32.66 L 38.33 32.66 M 11.67 32.66 L 8.67 32.66 M 11.67 27 L 14.67 27" fill="none" stroke="var(--icon-secondary, #6c8ebf)" stroke-width="1"/><path d="M 30 27 L 30 38 L 17.33 38 L 17.33 27 Z" fill="var(--icon-secondary, #6c8ebf)" stroke="var(--icon-secondary, #6c8ebf)" stroke-width="0.4"/><path d="M 28.67 30.33 L 18.67 30.33 L 18.67 28.33 L 28.67 28.33 Z M 28.67 37 L 18.67 37 L 18.67 32 L 28.67 32 Z" fill="none" stroke="var(--icon-secondary, #6c8ebf)" stroke-width="0.4"/><path d="M 26.33 23 C 26.33 23 27 23 27 23.66 C 27.33 25.66 27.33 25.66 27.33 25.66 C 31.33 26.33 31.33 26.33 31.33 26.33 C 32 25.33 32 25.33 32 25.33 C 31 23 31 23 31 23 C 25.33 21.66 23.33 22 23.33 22 C 23.67 22 23.67 22 23.67 22 C 23.67 22 21.67 21.66 16.33 23 C 15.33 25.33 15.33 25.33 15.33 25.33 C 15.67 26.33 15.67 26.33 15.67 26.33 C 20 25.66 20 25.66 20 25.66 C 20 23.66 20 23.66 20 23.66 C 20.33 23 21 23 21 23 Z" fill="var(--icon-secondary, #6c8ebf)" stroke="none" stroke-width="0"/><path d="M 28.67 31 L 18.67 31" fill="none" stroke="var(--icon-secondary, #6c8ebf)" stroke-width="0.4"/></svg>