<svg xmlns="http://www.w3.org/2000/svg" viewBox="0 0 63.67 35.33" width="63.67" height="35.33"><path d="M 0 15.67 L 19.34 0 L 63.67 0 L 48 15.67 Z M 48 35.33 L 63.67 19.33 L 63.67 0 L 48 15.67 Z M 48 35.33 L 48 15.67 L 0 15.67 L 0 35.33 Z" fill="var(--icon-primary, #dae8fc)" stroke="var(--icon-secondary, #6c8ebf)" stroke-width="1" stroke-linejoin="round"/><rect x="0" y="0" width="0" height="0" fill="none" stroke="var(--icon-secondary, #6c8ebf)" stroke-width="1"/><path d="M 15.67 23 L 15.67 19.33 L 8.34 19.33 L 8.34 23 Z M 32 23 L 32 19.33 L 39.34 19.33 L 39.34 23 Z M 15.67 32.33 L 15.67 28.67 L 8.34 28.67 L 8.34 32.33 Z M 32 32.33 L 32 28.67 L 39.34 28.67 L 39.34 32.33 Z" fill="var(--icon-secondary, #6c8ebf)" stroke="none" stroke-width="0"/><path d="M 13.34 21 L 35.34 21 M 13.34 30.33 L 35.34 30.33 M 12 30.67 L 35.34 21 M 12 21 L 35.34 30.67" fill="none" stroke="var(--icon-secondary, #6c8ebf)" stroke-width="1"/><path d="M 27.34 3 L 37.34 2 L 35.34 5.33 L 33 4.67 L 18 10.33 L 15.34 9.67 L 30 4 Z M 39 6.67 L 48.67 5.67 L 47 8.67 L 44.34 8.33 L 29.67 14 L 27 13.33 L 41.34 7.67 Z" fill="var(--icon-secondary, #6c8ebf)" stroke="none" stroke-width="0"/></svg>