<svg xmlns="http://www.w3.org/2000/svg" viewBox="0 0 48.67 32" width="48.67" height="32"><path d="M 0 32 L 0 9 L 40.33 9 L 40.33 32 Z M 40.33 32 L 40.33 9 L 48.67 0 L 48.67 22.67 Z M 40.33 9 L 0 9 L 10 0 L 48.67 0 Z" fill="var(--icon-primary, #dae8fc)" stroke="var(--icon-secondary, #6c8ebf)" stroke-width="1" stroke-linejoin="round"/><rect x="0" y="0" width="0" height="0" fill="none" stroke="var(--icon-secondary, #6c8ebf)" stroke-width="1"/><path d="M 8.33 17.67 L 1 17.67 L 1 16 L 8.33 16 L 8.33 14 L 12.67 16.67 L 8.33 19.67 Z M 34.67 14 L 28.67 14 L 28.67 12.67 L 34.67 12.67 L 34.67 11 L 38.33 13.34 L 34.67 15.67 Z M 34.67 21 L 28.67 21 L 28.67 20 L 34.67 20 L 34.67 18 L 38.33 20.67 L 34.67 23 Z M 34.67 28.34 L 28.67 28.34 L 28.67 27 L 34.67 27 L 34.67 25.34 L 38.33 27.67 L 34.67 30 Z M 24 13 L 24 21.67 L 13.67 21.67 L 13.67 13 Z" fill="var(--icon-secondary, #6c8ebf)" stroke="none" stroke-width="0"/><path d="M 26.67 14.34 L 26.67 18 L 24.67 18 L 24.67 14.34 Z" fill="var(--icon-secondary, #6c8ebf)" stroke="var(--icon-secondary, #6c8ebf)" stroke-width="0.4"/><path d="M 15 27.34 L 18.67 17.34 L 22.67 27.34" fill="none" stroke="var(--icon-secondary, #6c8ebf)" stroke-width="1.33" stroke-linecap="round"/><path d="M 21.67 16.34 L 24.67 16.34" fill="none" stroke="var(--icon-secondary, #6c8ebf)" stroke-width="2" stroke-linecap="round"/></svg>