<svg xmlns="http://www.w3.org/2000/svg" viewBox="0 0 49 32" width="49" height="32"><path d="M 0 32 L 0 9.34 L 40.66 9.34 L 40.66 32 Z M 40.66 32 L 40.66 9.34 L 49 0 L 49 23 Z M 40.66 9.34 L 0 9.34 L 10 0 L 49 0 Z" fill="var(--icon-primary, #dae8fc)" stroke="var(--icon-secondary, #6c8ebf)" stroke-width="1" stroke-linejoin="round"/><rect x="0" y="0" width="0" height="0" fill="none" stroke="var(--icon-secondary, #6c8ebf)" stroke-width="1"/><path d="M 8.66 17.67 L 1.33 17.67 L 1.33 16.34 L 8.66 16.34 L 8.66 14.34 L 12.66 17 L 8.66 19.67 Z M 34.66 26 L 27.33 26 L 27.33 24.34 L 34.66 24.34 L 34.66 22.34 L 39 25 L 34.66 28 Z" fill="var(--icon-secondary, #6c8ebf)" stroke="none" stroke-width="0"/><path d="M 19.66 21.67 L 13.66 21.67 L 13.66 11.67 L 19.66 11.67 Z" fill="var(--icon-secondary, #6c8ebf)" stroke="var(--icon-secondary, #6c8ebf)" stroke-width="1"/><path d="M 23.33 25.67 L 17 25.67 L 17 15.67 L 23.33 15.67 Z" fill="var(--icon-secondary, #6c8ebf)" stroke="var(--icon-secondary, #6c8ebf)" stroke-width="1"/><path d="M 26.66 30 L 20.66 30 L 20.66 20 L 26.66 20 Z" fill="var(--icon-secondary, #6c8ebf)" stroke="var(--icon-secondary, #6c8ebf)" stroke-width="1"/></svg>