<svg xmlns="http://www.w3.org/2000/svg" viewBox="0 0 63.66 47.66" width="63.66" height="47.66"><rect x="0" y="0" width="0" height="0" fill="none" stroke="var(--icon-secondary, #6c8ebf)" stroke-width="1"/><path d="M 48 31 L 48 15.33 L 0 15.33 L 0 31 Z M 0 15.33 L 19.33 0 L 63.66 0 L 48 15.33 Z M 48 31.33 L 63.66 15 L 63.66 0 L 48 15.33 Z" fill="var(--icon-primary, #dae8fc)" stroke="var(--icon-secondary, #6c8ebf)" stroke-width="1" stroke-linejoin="round"/><path d="M 48 47.66 L 48 30.66 L 0 30.66 L 0 47.66 Z M 48 47.66 L 63.66 31.33 L 63.66 15 L 48 30.66 Z" fill="var(--icon-secondary, #6c8ebf)" stroke="var(--icon-secondary, #6c8ebf)" stroke-width="1" stroke-linejoin="round"/><path d="M 34.33 6.66 L 37.33 7.33 L 45.33 5 L 48.33 5.66 L 47 3.66 L 37.33 3.66 L 41.66 4.33 Z M 17.66 4.33 L 20.33 3.66 L 28.66 5.66 L 31.33 5 L 30 7.33 L 20.33 7.33 L 25 6.66 Z M 47.66 11.66 L 44.66 12.33 L 37.33 10.33 L 33.66 11 L 35 8.66 L 44.66 8.66 L 41 9.33 Z M 30.66 9.33 L 27.66 8.66 L 20.33 11 L 16.66 10.33 L 18.33 12.33 L 27.66 12.66 L 23.33 11.66 Z" fill="var(--icon-secondary, #6c8ebf)" stroke="none" stroke-width="0"/><path d="M 24.33 28.66 C 27.33 28.66 30 28 30 27 C 30 26 27.33 25.33 24.33 25.33 C 21 25.33 18.33 26 18.33 27 C 18.33 28 21 28.66 24.33 28.66 Z" fill="var(--icon-secondary, #6c8ebf)" stroke="var(--icon-secondary, #6c8ebf)" stroke-width="0.4" stroke-linecap="round" stroke-linejoin="round"/><path d="M 30 18.66 C 30 19.66 27.33 20.66 24.33 20.66 C 21 20.66 18.33 19.66 18.33 18.66 C 18.33 26 18.33 26 18.33 26 C 18.33 27 21 28 24.33 28 C 27.33 28 30 27 30 26 Z M 24.33 20.66 C 27.33 20.66 30 19.66 30 18.66 C 30 17.66 27.33 17 24.33 17 C 21 17 18.33 17.66 18.33 18.66 C 18.33 19.66 21 20.66 24.33 20.66 Z" fill="var(--icon-secondary, #6c8ebf)" stroke="var(--icon-secondary, #6c8ebf)" stroke-width="0.4" stroke-linecap="round" stroke-linejoin="round"/><path d="M 18.66 38.66 L 9.66 38.66 L 9.66 37.66 L 6.33 39 L 9.66 40.33 L 9.66 39.33 L 18.66 39.33 Z M 23.66 41 L 23.66 44.33 L 21.33 44.33 L 24.66 45.66 L 28 44.33 L 25.66 44.33 L 25.66 41 Z M 23.66 37 L 23.66 33.66 L 21.33 33.66 L 24.66 32.66 L 28 33.66 L 25.66 33.66 L 25.66 37 Z M 30.66 39.33 L 39.66 39.33 L 39.66 40.33 L 43 39 L 39.66 37.66 L 39.66 38.66 L 30.66 38.66 Z" fill="var(--icon-secondary, #6c8ebf)" stroke="none" stroke-width="0"/><path d="M 39 44 C 37.33 44.66 29.66 43 21.66 40.33 C 14 37.33 9 34.66 10.66 34 C 12.33 33.33 20 35.33 28 38 C 35.66 40.66 40.66 43.33 39 44 Z M 38.66 34 C 40.33 34.66 35.33 37.33 27.66 40 C 20 43 12.33 44.66 10.33 44 C 8.66 43.33 13.66 40.66 21.33 38 C 29 35.33 36.66 33.33 38.66 34 Z" fill="none" stroke="var(--icon-secondary, #6c8ebf)" stroke-width="1" stroke-linecap="round" stroke-linejoin="round"/><path d="M 28.33 40.66 C 31.33 40 32 38.66 30 37.66 C 28 36.66 23.66 36.33 21 37 C 18 37.66 17.33 39.33 19.33 40.33 C 21.33 41.33 25.33 41.66 28.33 40.66 Z" fill="var(--icon-secondary, #6c8ebf)" stroke="var(--icon-secondary, #6c8ebf)" stroke-width="1" stroke-linecap="round" stroke-linejoin="round"/></svg>