<svg xmlns="http://www.w3.org/2000/svg" viewBox="0 0 49 33" width="49" height="33"><rect x="0" y="0" width="0" height="0" fill="none" stroke="var(--icon-secondary, #6c8ebf)" stroke-width="1"/><path d="M 15.33 18.33 C 6.33 17 0 13.67 0 9.67 C 0 23.67 0 23.67 0 23.67 C 0 27.67 6.33 31 15.33 32.33 Z" fill="var(--icon-primary, #dae8fc)" stroke="var(--icon-secondary, #6c8ebf)" stroke-width="1" stroke-linejoin="round"/><path d="M 15.33 32.33 C 18 33 21 33 24.33 33 C 38 33 49 29 49 23.67 C 49 9.67 49 9.67 49 9.67 C 49 15 38 19.33 24.33 19.33 C 21.33 19.33 18 19 15.33 18.33 Z" fill="var(--icon-secondary, #6c8ebf)" stroke="var(--icon-secondary, #6c8ebf)" stroke-width="1" stroke-linejoin="round"/><path d="M 34 1 C 31 0.33 27.66 0 24.33 0 C 11 0 0 4.33 0 9.67 C 0 13.67 6 17 14.66 18.33 Z" fill="var(--icon-primary, #dae8fc)" stroke="var(--icon-secondary, #6c8ebf)" stroke-width="1"/><path d="M 14.66 18.33 C 17.66 19 21 19.33 24.33 19.33 C 38 19.33 49 15 49 9.67 C 49 5.67 42.66 2.33 34 1 Z" fill="var(--icon-secondary, #6c8ebf)" stroke="var(--icon-secondary, #6c8ebf)" stroke-width="1"/><path d="M 18.66 6 L 20.66 9 L 13 11 L 14.66 9.33 L 2.66 7.33 L 5.66 5.33 L 17 7 Z M 29.33 13.33 L 28 10.33 L 34.66 9 L 33.66 10 L 45 12 L 42.33 14.33 L 31 12 Z M 25.66 4.33 L 33.33 2.33 L 33.33 5.67 L 31.33 5.33 L 27.66 8.33 L 24 8 L 28 4.67 Z M 22.33 16.33 L 14.66 17.67 L 14.66 14.33 L 16.66 14.67 L 20.66 11.33 L 24.33 12 L 20 15.67 Z" fill="var(--icon-secondary, #6c8ebf)" stroke="none" stroke-width="0"/></svg>