<svg xmlns="http://www.w3.org/2000/svg" viewBox="0 0 18.66 39.33" width="18.66" height="39.33"><path d="M 12.33 6.67 L 0 6.67 L 0 39.33 L 12.33 39.33 Z M 12.33 39.33 L 18.66 32.67 L 18.66 0 L 6.66 0 L 0 6.67 L 12.33 6.67 Z M 12.33 6.67 L 18.66 0" fill="var(--icon-primary, #dae8fc)" stroke="var(--icon-secondary, #6c8ebf)" stroke-width="1" stroke-linecap="round" stroke-linejoin="round"/><path d="M 10 31.33 C 10 32.33 8.33 33 6.33 33 C 4 33 2.33 32.33 2.33 31.33 C 2.33 30.67 4 30 6.33 30 C 8.33 30 10 30.67 10 31.33 Z" fill="var(--icon-secondary, #6c8ebf)" stroke="var(--icon-secondary, #6c8ebf)" stroke-width="1" stroke-linecap="round" stroke-linejoin="round"/><path d="M 7.33 31.33 C 7.33 31.67 7 31.67 6.33 31.67 C 5.66 31.67 5 31.67 5 31.33 C 5 31 5.66 31 6.33 31 C 7 31 7.33 31 7.33 31.33 Z" fill="var(--icon-secondary, #6c8ebf)" stroke="none" stroke-width="0"/><path d="M 7.33 30.67 C 7.33 30.67 7 31 6.33 31 C 5.66 31 5 30.67 5 30.67 C 5 30.33 5.66 30 6.33 30 C 7 30 7.33 30.33 7.33 30.67 Z" fill="var(--icon-secondary, #6c8ebf)" stroke="none" stroke-width="0"/><path d="M 10 30 C 10 30.67 8.33 31.33 6.33 31.33 C 4 31.33 2.33 30.67 2.33 30 C 2.33 29 4 28.33 6.33 28.33 C 8.33 28.33 10 29 10 30 Z" fill="var(--icon-secondary, #6c8ebf)" stroke="var(--icon-secondary, #6c8ebf)" stroke-width="1" stroke-linecap="round" stroke-linejoin="round"/><path d="M 7.33 29.67 C 7.33 30 7 30.33 6.33 30.33 C 5.66 30.33 5 30 5 29.67 C 5 29.67 5.66 29.33 6.33 29.33 C 7 29.33 7.33 29.67 7.33 29.67 Z" fill="var(--icon-secondary, #6c8ebf)" stroke="none" stroke-width="0"/><path d="M 7.33 29 C 7.33 29.33 7 29.33 6.33 29.33 C 5.66 29.33 5 29.33 5 29 C 5 28.67 5.66 28.67 6.33 28.67 C 7 28.67 7.33 28.67 7.33 29 Z" fill="var(--icon-secondary, #6c8ebf)" stroke="none" stroke-width="0"/><path d="M 10 28.33 C 10 29 8.33 29.67 6.33 29.67 C 4 29.67 2.33 29 2.33 28.33 C 2.33 27.33 4 26.67 6.33 26.67 C 8.33 26.67 10 27.33 10 28.33 Z" fill="var(--icon-secondary, #6c8ebf)" stroke="var(--icon-secondary, #6c8ebf)" stroke-width="1" stroke-linecap="round" stroke-linejoin="round"/><path d="M 7.33 28.33 C 7.33 28.33 7 28.67 6.33 28.67 C 5.66 28.67 5 28.33 5 28.33 C 5 28 5.66 27.67 6.33 27.67 C 7 27.67 7.33 28 7.33 28.33 Z" fill="var(--icon-secondary, #6c8ebf)" stroke="none" stroke-width="0"/><path d="M 10 25 C 10 26 8.33 26.67 6.33 26.67 C 4 26.67 2.33 26 2.33 25 C 2.33 24.33 4 23.67 6.33 23.67 C 8.33 23.67 10 24.33 10 25 Z" fill="var(--icon-secondary, #6c8ebf)" stroke="var(--icon-secondary, #6c8ebf)" stroke-width="1" stroke-linecap="round" stroke-linejoin="round"/><path d="M 7.33 25 C 7.33 25.33 7 25.33 6.33 25.33 C 5.66 25.33 5 25.33 5 25 C 5 24.67 5.66 24.67 6.33 24.67 C 7 24.67 7.33 24.67 7.33 25 Z" fill="var(--icon-secondary, #6c8ebf)" stroke="none" stroke-width="0"/><path d="M 7.33 24.33 C 7.33 24.33 7 24.67 6.33 24.67 C 5.66 24.67 5 24.33 5 24.33 C 5 24 5.66 23.67 6.33 23.67 C 7 23.67 7.33 24 7.33 24.33 Z" fill="var(--icon-secondary, #6c8ebf)" stroke="none" stroke-width="0"/><path d="M 10 23.33 C 10 24.33 8.33 25 6.33 25 C 4 25 2.33 24.33 2.33 23.33 C 2.33 22.67 4 22 6.33 22 C 8.33 22 10 22.67 10 23.33 Z" fill="var(--icon-secondary, #6c8ebf)" stroke="var(--icon-secondary, #6c8ebf)" stroke-width="1" stroke-linecap="round" stroke-linejoin="round"/><path d="M 7.33 23.33 C 7.33 23.67 7 23.67 6.33 23.67 C 5.66 23.67 5 23.67 5 23.33 C 5 23 5.66 23 6.33 23 C 7 23 7.33 23 7.33 23.33 Z" fill="var(--icon-secondary, #6c8ebf)" stroke="none" stroke-width="0"/><path d="M 7.33 22.67 C 7.33 22.67 7 23 6.33 23 C 5.66 23 5 22.67 5 22.67 C 5 22.33 5.66 22 6.33 22 C 7 22 7.33 22.33 7.33 22.67 Z" fill="var(--icon-secondary, #6c8ebf)" stroke="none" stroke-width="0"/><path d="M 10 22 C 10 22.67 8.33 23.33 6.33 23.33 C 4 23.33 2.33 22.67 2.33 22 C 2.33 21 4 20.33 6.33 20.33 C 8.33 20.33 10 21 10 22 Z" fill="var(--icon-secondary, #6c8ebf)" stroke="var(--icon-secondary, #6c8ebf)" stroke-width="1" stroke-linecap="round" stroke-linejoin="round"/><path d="M 7.33 21.67 C 7.33 22 7 22.33 6.33 22.33 C 5.66 22.33 5 22 5 21.67 C 5 21.67 5.66 21.33 6.33 21.33 C 7 21.33 7.33 21.67 7.33 21.67 Z" fill="var(--icon-secondary, #6c8ebf)" stroke="none" stroke-width="0"/><path d="M 10 18.67 C 10 19.33 8.33 20 6.33 20 C 4 20 2.33 19.33 2.33 18.67 C 2.33 18 4 17.33 6.33 17.33 C 8.33 17.33 10 18 10 18.67 Z" fill="var(--icon-secondary, #6c8ebf)" stroke="var(--icon-secondary, #6c8ebf)" stroke-width="1" stroke-linecap="round" stroke-linejoin="round"/><path d="M 7.33 18.67 C 7.33 18.67 7 19 6.33 19 C 5.66 19 5 18.67 5 18.67 C 5 18.33 5.66 18 6.33 18 C 7 18 7.33 18.33 7.33 18.67 Z" fill="var(--icon-secondary, #6c8ebf)" stroke="none" stroke-width="0"/><path d="M 7.33 17.67 C 7.33 18 7 18.33 6.33 18.33 C 5.66 18.33 5 18 5 17.67 C 5 17.67 5.66 17.33 6.33 17.33 C 7 17.33 7.33 17.67 7.33 17.67 Z" fill="var(--icon-secondary, #6c8ebf)" stroke="none" stroke-width="0"/><path d="M 10 17 C 10 18 8.33 18.67 6.33 18.67 C 4 18.67 2.33 18 2.33 17 C 2.33 16.33 4 15.67 6.33 15.67 C 8.33 15.67 10 16.33 10 17 Z" fill="var(--icon-secondary, #6c8ebf)" stroke="var(--icon-secondary, #6c8ebf)" stroke-width="1" stroke-linecap="round" stroke-linejoin="round"/><path d="M 7.33 17 C 7.33 17.33 7 17.33 6.33 17.33 C 5.66 17.33 5 17.33 5 17 C 5 16.67 5.66 16.67 6.33 16.67 C 7 16.67 7.33 16.67 7.33 17 Z" fill="var(--icon-secondary, #6c8ebf)" stroke="none" stroke-width="0"/><path d="M 7.33 16.33 C 7.33 16.33 7 16.67 6.33 16.67 C 5.66 16.67 5 16.33 5 16.33 C 5 16 5.66 15.67 6.33 15.67 C 7 15.67 7.33 16 7.33 16.33 Z" fill="var(--icon-secondary, #6c8ebf)" stroke="none" stroke-width="0"/><path d="M 10 15.33 C 10 16.33 8.33 17 6.33 17 C 4 17 2.33 16.33 2.33 15.33 C 2.33 14.67 4 14 6.33 14 C 8.33 14 10 14.67 10 15.33 Z" fill="var(--icon-secondary, #6c8ebf)" stroke="var(--icon-secondary, #6c8ebf)" stroke-width="1" stroke-linecap="round" stroke-linejoin="round"/><path d="M 7.33 15.33 C 7.33 15.67 7 15.67 6.33 15.67 C 5.66 15.67 5 15.67 5 15.33 C 5 15 5.66 15 6.33 15 C 7 15 7.33 15 7.33 15.33 Z" fill="var(--icon-secondary, #6c8ebf)" stroke="none" stroke-width="0"/></svg>