<svg xmlns="http://www.w3.org/2000/svg" viewBox="0 0 46.45 62.6" width="46.45" height="62.6"><rect x="0" y="0" width="0" height="0" fill="none" stroke="var(--icon-secondary, #6c8ebf)" stroke-width="1"/><ellipse cx="34.9" cy="12.4" rx="11.5" ry="11.5" fill="none" stroke="var(--icon-secondary, #6c8ebf)" stroke-width="1"/><path d="M 34.9 24 A 11.5 11.5 0 0 0 34.9 0.9 M 34.9 3 A 9 9 0 0 1 34.9 21.6" fill="var(--icon-secondary, #6c8ebf)" stroke="var(--icon-secondary, #6c8ebf)" stroke-width="1" stroke-linecap="round"/><path d="M 22.7 34.5 A 9.5 9.5 0 1 1 36 34.5 L 36 36.7 L 33.8 38.5 L 33.8 40.7 L 31.8 42.5 L 33.7 44.9 L 33.7 46.7 A 2.3 2.3 0 0 0 33.7 51.1 L 33.7 52.5 L 31.2 54.7 L 33.2 56.8 L 33.1 58.9 L 29.1 62.6 L 25.2 60.4 L 25.9 38.5 Z" fill="var(--icon-secondary, #6c8ebf)" stroke="var(--icon-secondary, #6c8ebf)" stroke-width="1.5"/><path d="M 33.4 38.9 L 30 38.7 L 28.4 38.7" fill="none" stroke="var(--icon-secondary, #6c8ebf)" stroke-width="1"/><path d="M 28.4 38.7 L 27.3 61.1 L 29 62.2 L 30.2 38.7 Z" fill="var(--icon-secondary, #6c8ebf)" stroke="var(--icon-secondary, #6c8ebf)" stroke-width="1"/><path d="M 26.5 19.1 A 4 4 0 0 1 32.8 24.8 L 35.7 30 L 30.1 36 L 26.1 34.8 L 24.8 36.3 L 22.2 36.3 L 20.3 37.8 L 17.9 37.8 L 18.1 40.4 L 16.7 42 A 2 2 0 0 0 14 45 L 12.3 46.6 L 9.9 46.5 L 9.9 49.2 L 8.3 50.9 L 2.8 51.1 L 1.2 46.9 L 16.2 30.8 L 16.1 28 L 17.5 26.6 L 15.8 22.4 L 21.5 16.5 Z" fill="var(--icon-secondary, #6c8ebf)" stroke="var(--icon-secondary, #6c8ebf)" stroke-width="1.5"/><path d="M 2.9 50.6 L 19 33.8 L 18 32.4 L 2.3 49.2 Z" fill="var(--icon-secondary, #6c8ebf)" stroke="var(--icon-secondary, #6c8ebf)" stroke-width="1"/><path d="M 21.8 36.3 L 19.2 34" fill="none" stroke="var(--icon-secondary, #6c8ebf)" stroke-width="1"/><path d="M 28.56 20.44" fill="none" stroke="var(--icon-secondary, #6c8ebf)" stroke-width="1"/><ellipse cx="29.8" cy="21.9" rx="1.8" ry="1.8" fill="var(--icon-secondary, #6c8ebf)" stroke="none" stroke-width="0"/><path d="M 36 3.1 A 9.5 9.5 0 0 0 30.4 20.9 A 1 1 0 0 1 29 22.4 A 11.5 11.5 0 0 1 36.22 1" fill="var(--icon-secondary, #6c8ebf)" stroke="var(--icon-secondary, #6c8ebf)" stroke-width="1" stroke-linecap="round"/></svg>