<svg xmlns="http://www.w3.org/2000/svg" viewBox="0 0 40.33 55" width="40.33" height="55"><path d="M 0 55 L 0 19 L 35.66 19 L 35.66 55 Z M 40.33 50.34 L 40.33 14.67 L 35.66 19 L 35.66 55 Z M 6.66 0 L 0 4.67 L 35.66 4.67 L 40.33 0 Z M 0 19 L 0 4.67 L 35.66 4.67 L 35.66 19 Z M 40.33 14.67 L 40.33 0 L 35.66 4.67 L 35.66 19 Z" fill="var(--icon-primary, #dae8fc)" stroke="var(--icon-secondary, #6c8ebf)" stroke-width="1" stroke-linejoin="round"/><path d="M 35.66 19 L 0 19" fill="none" stroke="var(--icon-secondary, #6c8ebf)" stroke-width="1" stroke-linejoin="round"/><path d="M 35.66 19 L 40.33 14.67" fill="none" stroke="var(--icon-secondary, #6c8ebf)" stroke-width="1" stroke-linejoin="round"/><rect x="0" y="0" width="0" height="0" fill="none" stroke="var(--icon-secondary, #6c8ebf)" stroke-width="1"/><path d="M 11.66 9.67 L 11.66 6.67 L 6 6.67 L 6 9.67 Z M 24.66 9.67 L 24.66 6.67 L 30.66 6.67 L 30.66 9.67 Z M 11.66 17 L 11.66 14 L 6 14 L 6 17 Z M 24.66 17 L 24.66 14 L 30.66 14 L 30.66 17 Z" fill="var(--icon-secondary, #6c8ebf)" stroke="none" stroke-width="0"/><path d="M 9.66 8 L 27.66 8 M 9.66 15.67 L 27.66 15.67 M 8.66 15.67 L 27.66 8 M 8.66 8 L 27.66 15.67" fill="none" stroke="var(--icon-secondary, #6c8ebf)" stroke-width="0.67"/><path d="M 19.66 29 L 22.33 29 L 22.33 29.34 L 23 28.67 L 22.33 28 L 22.33 28.34 L 19.66 28.34 Z M 19.33 27.67 L 21 26 L 21.33 26.34 L 21.66 25 L 20.66 25.34 L 21 25.67 L 19 27.34 Z M 18.33 27 L 18.33 24.67 L 18.66 24.67 L 18 23.67 L 17.33 24.67 L 18 24.67 L 18 27 Z M 17 27.34 L 15.33 25.67 L 15.66 25.34 L 14.33 25 L 14.66 26.34 L 15 26 L 16.66 27.67 Z M 16.33 28.34 L 14 28.34 L 14 28 L 13 28.67 L 14 29.34 L 14 29 L 16.33 29 Z M 19 30 L 21 31.67 L 20.66 32 L 21.66 32.34 L 21.33 31.34 L 21 31.67 L 19.33 29.67 Z" fill="var(--icon-secondary, #6c8ebf)" stroke="var(--icon-secondary, #6c8ebf)" stroke-width="0.67"/><path d="M 16 30.34 C 16.66 31.34 18.33 31.67 19.66 31 C 20.66 30 21 28.34 20 27.34 C 19.33 26 17.66 25.67 16.66 26.67 C 15.33 27.34 15 29 16 30.34 Z" fill="var(--icon-secondary, #6c8ebf)" stroke="var(--icon-secondary, #6c8ebf)" stroke-width="0.67"/><path d="M 18 30 L 18 46.34" fill="none" stroke="var(--icon-secondary, #6c8ebf)" stroke-width="1"/><path d="M 17 47.67 L 15.33 47.67 L 15.33 47.34 L 14.66 47.67 L 15.33 48 L 15.33 47.67 Z M 17.33 48.34 L 16 49.67 L 15.66 49.34 L 15.66 50.34 L 16.33 50 L 16 49.67 L 17.33 48.67 Z M 18 49 L 18 50.67 L 17.66 50.67 L 18 51.34 L 18.66 50.67 L 18.33 50.67 L 18.33 49 Z M 19 48.67 L 20 49.67 L 20 50 L 20.66 50.34 L 20.33 49.34 L 20.33 49.67 L 19 48.34 Z M 19.33 47.67 L 21 47.67 L 21 48 L 21.66 47.67 L 21 47.34 L 21 47.67 Z M 17.33 46.67 L 16 45.34 L 16.33 45.34 L 15.66 45 L 15.66 46 L 16 45.67 L 17.33 47 Z" fill="var(--icon-secondary, #6c8ebf)" stroke="var(--icon-secondary, #6c8ebf)" stroke-width="0.1"/><path d="M 19.66 46.67 C 19 45.67 18 45.67 17 46 C 16.33 46.67 16 48 16.66 48.67 C 17.33 49.34 18.33 49.67 19 49 C 20 48.67 20 47.34 19.66 46.67 Z" fill="var(--icon-secondary, #6c8ebf)" stroke="var(--icon-secondary, #6c8ebf)" stroke-width="0.1"/><path d="M 19 46.67 L 20.33 45.33 L 20.33 45.67 L 20.66 45 L 20 45 L 20 45.34 Z" fill="var(--icon-secondary, #6c8ebf)" stroke="var(--icon-secondary, #6c8ebf)" stroke-width="0.1"/></svg>