<svg xmlns="http://www.w3.org/2000/svg" viewBox="0 0 40.33 40" width="40.33" height="40"><path d="M 0 40 L 0 4.67 L 35.67 4.67 L 35.67 40 Z M 40.33 35.67 L 40.33 0 L 35.67 4.67 L 35.67 40 Z M 6.33 0 L 0 4.67 L 35.67 4.67 L 40.33 0 Z" fill="var(--icon-primary, #dae8fc)" stroke="var(--icon-secondary, #6c8ebf)" stroke-width="1" stroke-linejoin="round"/><path d="M 18.67 17 L 18.67 9.34 L 20 9.34 L 18 6.67 L 16.33 9.34 L 17.33 9.34 L 17.33 17 Z M 14.67 18.34 L 9.33 12.67 L 10.33 12 L 7 11.34 L 7.67 14.67 L 8.33 13.67 L 14 19 Z M 12.67 22 L 5 22 L 5 20.67 L 2.33 22.34 L 5 24.34 L 5 23 L 12.67 23 Z M 14 25.67 L 8.33 31.34 L 7.67 30.34 L 7 33.67 L 10.33 33 L 9.33 32 L 14.67 26.67 Z M 17.33 27.67 L 17.33 35.34 L 16.33 35.34 L 18 38.34 L 20 35.34 L 18.67 35.34 L 18.67 27.67 Z M 21.33 26.67 L 27 32 L 26 33 L 29.33 33.67 L 28.67 30.34 L 27.67 31.34 L 22.33 25.67 Z M 23.33 23 L 31 23 L 31 24.34 L 34 22.34 L 31 20.67 L 31 22 L 23.33 22 Z M 22.33 19 L 27.67 13.67 L 28.67 14.67 L 29.33 11.34 L 26 12 L 27 12.67 L 21.33 18.34 Z" fill="var(--icon-secondary, #6c8ebf)" stroke="none" stroke-width="0"/><path d="M 22.67 29 C 26.33 26.34 27.33 21.34 24.67 17.67 C 22.33 14 17.33 13.34 13.67 15.67 C 10 18.34 9 23.34 11.67 27 C 14.33 30.67 19.33 31.67 22.67 29 Z" fill="var(--icon-secondary, #6c8ebf)" stroke="var(--icon-secondary, #6c8ebf)" stroke-width="0.67"/></svg>