<svg xmlns="http://www.w3.org/2000/svg" viewBox="0 0 38.33 38.66" width="38.33" height="38.66"><path d="M 34 38.66 L 34 4.33 L 0 4.33 L 0 38.66 Z M 34 4.33 L 0 4.33 L 5.33 0 L 38.33 0 L 38.33 0 L 38.33 34.33 L 34 38.66 L 34 4.33 L 34 4.33 Z" fill="var(--icon-primary, #dae8fc)" stroke="var(--icon-secondary, #6c8ebf)" stroke-width="1" stroke-linejoin="round"/><path d="M 34 4.33 L 38.33 0 M 17.33 38.66 L 17.33 4.33" fill="none" stroke="var(--icon-secondary, #6c8ebf)" stroke-width="1" stroke-linejoin="round"/><rect x="0" y="0" width="0" height="0" fill="none" stroke="var(--icon-secondary, #6c8ebf)" stroke-width="1"/><path d="M 19.66 9.33 L 28 9.33 M 19.66 24.33 L 28 24.33 M 31.66 32 L 23.66 32 M 31.66 17.33 L 23.66 17.33" fill="none" stroke="var(--icon-secondary, #6c8ebf)" stroke-width="2"/><path d="M 28 7.66 L 28 11 L 31.33 9.33 Z M 28 22.33 L 28 25.66 L 31.33 24.33 L 28 22.33 Z M 23.33 33.66 L 23.33 30.33 L 20 32 L 23.33 33.66 Z M 23.33 19 L 23.33 15.66 L 20 17.33 L 23.33 19 Z" fill="var(--icon-secondary, #6c8ebf)" stroke="var(--icon-secondary, #6c8ebf)" stroke-width="0.67"/><path d="M 5.66 18.66 L 5.66 16.66 L 3.33 17.66 L 5.66 18.66 Z M 5.66 33 L 5.66 31 L 3.33 32 Z M 12 23.33 L 12 25.33 L 14.33 24.33 L 12 23.33 Z M 12 8.66 L 12 10.66 L 14.33 9.66 L 12 8.66 Z" fill="var(--icon-secondary, #6c8ebf)" stroke="var(--icon-secondary, #6c8ebf)" stroke-width="0.67"/><path d="M 15 17.66 L 5.33 17.66 M 15 32 L 5.33 32 M 2.33 24.33 L 12 24.33 M 2.33 10 L 12 10" fill="none" stroke="var(--icon-secondary, #6c8ebf)" stroke-width="1"/></svg>