<svg xmlns="http://www.w3.org/2000/svg" viewBox="0 0 56.67 38.33" width="56.67" height="38.33"><path d="M 55.34 0 L 56.67 1.67 L 53 22.33 L 51.34 21.33 Z M 15.34 21.33 L 16.67 22.33 L 53 22.33 L 51.34 21.33 Z" fill="var(--icon-primary, #dae8fc)" stroke="var(--icon-secondary, #6c8ebf)" stroke-width="1" stroke-linejoin="round"/><path d="M 51.67 23 C 51.67 26.33 51.67 26.33 51.67 26.33 C 50.67 27.33 50.67 27.33 50.67 27.33 C 50.67 27.33 48.34 28 49 29.33 C 39 38.33 39 38.33 39 38.33 C 39 34.33 39 34.33 39 34.33 Z" fill="var(--icon-primary, #dae8fc)" stroke="var(--icon-secondary, #6c8ebf)" stroke-width="1" stroke-linejoin="round"/><path d="M 0 34.33 L 0 38.33 L 39 38.33 L 39 34.33 Z" fill="var(--icon-primary, #dae8fc)" stroke="var(--icon-secondary, #6c8ebf)" stroke-width="1" stroke-linejoin="round"/><path d="M 15.67 23 L 51.67 23 L 39 34.33 L 0 34.33 Z M 51.34 21.33 L 55.34 0 L 20 0 L 15.34 21.33 Z M 48.34 18.67 L 51.34 2.67 L 22.67 2.67 L 19.34 18.67 Z" fill="var(--icon-primary, #dae8fc)" stroke="var(--icon-secondary, #6c8ebf)" stroke-width="1" stroke-linejoin="round"/><path d="M 16.34 23.33 L 7.34 30.67 M 19.34 23.33 L 10.34 30.67 M 22.34 23.33 L 13.34 30.67 M 25.34 23.33 L 16 30.67 M 28 23.33 L 19 30.67 M 31 23.33 L 22 30.67 M 34 23.33 L 25 30.67 M 37 23.33 L 27.67 30.67 M 39.67 23.33 L 30.67 30.67 M 42.67 23.33 L 33.67 30.67 M 45.67 23.33 L 36.67 30.67 M 48.67 23.33 L 39.34 30.67 M 8.34 30 L 40.67 30 M 10.67 28.33 L 42.34 28.33 M 12.67 26.67 L 44.67 26.67 M 14.67 25 L 46.67 25" fill="none" stroke="var(--icon-secondary, #6c8ebf)" stroke-width="1" stroke-linejoin="round"/></svg>