<svg xmlns="http://www.w3.org/2000/svg" viewBox="0 0 63.67 31" width="63.67" height="31"><path d="M 0 15.34 L 19 0 L 63.67 0 L 47.67 15.34 Z" fill="var(--icon-primary, #dae8fc)" stroke="var(--icon-secondary, #6c8ebf)" stroke-width="1" stroke-linejoin="round"/><rect x="0" y="0" width="0" height="0" fill="none" stroke="var(--icon-secondary, #6c8ebf)" stroke-width="1"/><path d="M 43.67 8.34 L 44.67 7.34 L 48 8.67 L 41.67 10.67 L 43.34 9 L 31.34 9 L 31.67 8.34 Z M 36 4.67 L 35.67 5 L 23.67 5 L 22.67 6 L 19.34 4.67 L 25.67 3 L 24 4.67 Z" fill="var(--icon-secondary, #6c8ebf)" stroke="none" stroke-width="0"/><path d="M 47.67 31 L 63.67 13.67 L 63.67 0 L 47.67 15.34 Z" fill="var(--icon-primary, #dae8fc)" stroke="var(--icon-secondary, #6c8ebf)" stroke-width="1" stroke-linejoin="round"/><path d="M 29.34 11.34 L 29 11.67 L 17 11.67 L 16 12.67 L 12.67 11.34 L 19 9.67 L 17.34 11.34 Z M 50.34 3 L 51.67 1.67 L 54.67 3 L 48.34 5 L 50 3.34 L 38 3.34 L 38.34 3 Z" fill="var(--icon-secondary, #6c8ebf)" stroke="none" stroke-width="0"/><path d="M 47.67 31 L 47.67 15.34 L 0 15.34 L 0 31 Z" fill="var(--icon-primary, #dae8fc)" stroke="var(--icon-secondary, #6c8ebf)" stroke-width="1"/><path d="M 12.67 21.34 L 12.67 18.34 L 13.34 18.34 L 12.34 17 L 11.67 18.34 L 12 18.34 L 12 21.34 Z M 11 21.67 L 9 19.67 L 9.34 19.34 L 8 19 L 8 20.34 L 8.67 20 L 10.67 22 Z M 10.34 23 L 7.34 23 L 7.34 22.67 L 6 23.34 L 7.34 24.34 L 7.34 23.67 L 10.34 23.67 Z M 10.67 24.67 L 8.67 27 L 8 26.67 L 8 28 L 9.34 27.67 L 9 27.34 L 11 25 Z M 12 25.67 L 12 28.67 L 11.67 28.67 L 12.34 29.67 L 13.34 28.67 L 12.67 28.67 L 12.67 25.67 Z M 14 22 L 16.34 20 L 16.67 20.34 L 17 19 L 15.67 19.34 L 16 19.67 L 13.67 21.67 Z" fill="var(--icon-secondary, #6c8ebf)" stroke="none" stroke-width="0"/><path d="M 14.34 26 C 15.67 25 16 23 15 21.67 C 14 20 12 19.67 10.67 20.67 C 9.34 21.67 8.67 23.67 10 25.34 C 11 26.67 13 27 14.34 26 Z" fill="var(--icon-secondary, #6c8ebf)" stroke="none" stroke-width="0"/><path d="M 14 25 L 16.34 27.34 L 16 27.67 L 17.34 28 L 17 26.67 L 16.67 27 L 14.34 24.67 Z" fill="var(--icon-secondary, #6c8ebf)" stroke="none" stroke-width="0"/><path d="M 14.34 23.34 L 34.67 23.34" fill="none" stroke="var(--icon-secondary, #6c8ebf)" stroke-width="1.33"/><path d="M 36 24.67 L 36 27 L 35.67 27 L 36 27.67 L 36.67 27 L 36.34 27 L 36.34 24.67 Z M 37 24.67 L 38.67 26 L 38.34 26.34 L 39.34 26.34 L 39 25.67 L 38.67 25.67 L 37.34 24.34 Z M 37.67 23.34 L 39.67 23.34 L 39.67 24 L 40.67 23.34 L 39.67 22.67 L 39.67 23 L 37.67 23 Z M 37.34 22.34 L 38.67 21 L 39 21 L 39.34 20 L 38.34 20.34 L 38.67 20.67 L 37 22 Z M 36.34 22 L 36.34 19.67 L 36.67 19.67 L 36 19 L 35.67 19.67 L 36 19.67 L 36 22 Z M 35 24.34 L 33.34 25.67 L 33 25.67 L 33 26.34 L 34 26.34 L 33.67 26 L 35.34 24.67 Z" fill="var(--icon-secondary, #6c8ebf)" stroke="none" stroke-width="0"/><path d="M 34.67 21.67 C 33.67 22.34 33.67 23.67 34.34 24.67 C 35 25.67 36.34 26 37.34 25.34 C 38.34 24.34 38.67 23 38 22 C 37.34 21 35.67 20.67 34.67 21.67 Z" fill="var(--icon-secondary, #6c8ebf)" stroke="none" stroke-width="0"/><path d="M 35 22 L 33.34 20.67 L 33.67 20.34 L 32.67 20 L 33 21 L 33.34 21 L 34.67 22.34 Z" fill="var(--icon-secondary, #6c8ebf)" stroke="none" stroke-width="0"/></svg>