<svg xmlns="http://www.w3.org/2000/svg" viewBox="0 0 63.66 35.33" width="63.66" height="35.33"><path d="M 0 15.67 L 19 0 L 63.66 0 L 47.66 15.67 Z M 47.66 35.33 L 63.66 19 L 63.66 0 L 47.66 15.67 Z M 47.66 35.33 L 47.66 15.67 L 0 15.67 L 0 35.33 Z" fill="var(--icon-primary, #dae8fc)" stroke="var(--icon-secondary, #6c8ebf)" stroke-width="1" stroke-linejoin="round"/><path d="M 45.66 26 C 45.66 26 42.66 34 38.66 26 C 35 17.67 31.66 26 31.66 26 C 31.66 26 28.66 34 24.66 26 C 21 17.67 17.66 26 17.66 26 C 17.66 26 14.66 34 10.66 26 C 7 17.67 3.66 26 3.66 26" fill="none" stroke="var(--icon-secondary, #6c8ebf)" stroke-width="0.67" stroke-linecap="round" stroke-linejoin="round"/><path d="M 3.66 26 C 3.66 26 7 34 10.66 26 C 14.66 17.67 17.66 26 17.66 26 C 17.66 26 21 34 24.66 26 C 28.66 17.67 31.66 26 31.66 26 C 31.66 26 35 34 38.66 26 C 42.66 17.67 45.66 26 45.66 26" fill="none" stroke="var(--icon-secondary, #6c8ebf)" stroke-width="1.33" stroke-linecap="round" stroke-linejoin="round"/><path d="M 45 26 C 45 26 41.66 34 38 26 C 34 17.67 31 26 31 26 C 31 26 27.66 34 24 26 C 20.33 17.67 17 26 17 26 C 17 26 14 34 10 26 C 6.33 17.67 3 26 3 26" fill="none" stroke="var(--icon-secondary, #6c8ebf)" stroke-width="0.67" stroke-linecap="round" stroke-linejoin="round"/><path d="M 3 26 C 3 26 6.33 34 10 26 C 14 17.67 17 26 17 26 C 17 26 20.33 34 24 26 C 28 17.67 31 26 31 26 C 31 26 34 34 38 26 C 41.66 17.67 45 26 45 26" fill="none" stroke="var(--icon-secondary, #6c8ebf)" stroke-width="1.33" stroke-linecap="round" stroke-linejoin="round"/></svg>