<svg xmlns="http://www.w3.org/2000/svg" viewBox="0 0 33.34 38.67" width="33.34" height="38.67"><path d="M 26.67 38.67 C 27.34 38.67 28 38 28 37.34 C 28 21 28 21 28 21 C 28 20 27.34 19.67 26.67 19.67 C 1.34 19.67 1.34 19.67 1.34 19.67 C 0.34 19.67 0 20 0 21 C 0 37.34 0 37.34 0 37.34 C 0 38 0.34 38.67 1.34 38.67 Z" fill="var(--icon-primary, #dae8fc)" stroke="var(--icon-secondary, #6c8ebf)" stroke-width="1"/><path d="M 28 19.67 L 33.34 14.34 L 5.34 14.34 L 0 19.67 Z" fill="var(--icon-primary, #dae8fc)" stroke="var(--icon-secondary, #6c8ebf)" stroke-width="1" stroke-linejoin="round"/><path d="M 33.34 33.34 L 33.34 14.34 L 28 19.67 L 28 38.67 Z" fill="var(--icon-primary, #dae8fc)" stroke="var(--icon-secondary, #6c8ebf)" stroke-width="1" stroke-linejoin="round"/><path d="M 16.67 2.34 C 12.67 2.34 9.34 5.67 9.34 9.67 C 9.34 16.34 9.34 16.34 9.34 16.34 C 9.34 16.67 9 17.34 8.34 17.34 C 7.34 17.34 6.67 17 6.67 16.67 C 6.67 10 6.67 10 6.67 10 C 6.67 4.67 11 0 16.67 0 C 22 0 26.67 4.67 26.67 10 C 26.67 17 26.67 17 26.67 17 C 26.34 17.67 26 18 25 18 C 24.34 18 23.67 17 24 16.67 C 24 9.67 24 9.67 24 9.67 C 24 5.67 20.67 2.34 16.67 2.34 Z" fill="var(--icon-primary, #dae8fc)" stroke="var(--icon-secondary, #6c8ebf)" stroke-width="1" stroke-linejoin="round"/><rect x="0" y="0" width="0" height="0" fill="none" stroke="var(--icon-secondary, #6c8ebf)" stroke-width="1"/><path d="M 14 30.67 C 15 30.67 16 29.34 16 27.67 C 16 26 15 24.67 14 24.67 C 12.67 24.67 11.67 26 11.67 27.67 C 11.67 29.34 12.67 30.67 14 30.67 Z" fill="var(--icon-secondary, #6c8ebf)" stroke="none" stroke-width="0"/><path d="M 14.67 33.67 L 14.67 28 L 13 29 L 13 34.67 Z" fill="var(--icon-secondary, #6c8ebf)" stroke="none" stroke-width="0"/></svg>