<svg xmlns="http://www.w3.org/2000/svg" viewBox="0 0 38.66 37.33" width="38.66" height="37.33"><path d="M 32 37.33 L 32 5 L 0 5 L 0 37.33 Z M 38.66 32 L 38.66 0 L 32 5 L 32 37.33 Z M 31.66 5 L 38.66 0 L 7.33 0 L 0 5 Z" fill="var(--icon-primary, #dae8fc)" stroke="var(--icon-secondary, #6c8ebf)" stroke-width="1" stroke-linejoin="round"/><path d="M 26 32 L 5 32 L 5 27.33 L 26 27.33 Z M 26 25.66 L 5 25.66 L 5 22.33 L 26 22.33 Z M 26 21 L 5 21 L 5 18 L 26 18 Z M 26 16.66 L 5 16.66 L 5 14.33 L 26 14.33 Z M 26 13 L 5 13 L 5 11.66 L 26 11.66 Z" fill="var(--icon-secondary, #6c8ebf)" stroke="none" stroke-width="0"/></svg>