<svg xmlns="http://www.w3.org/2000/svg" viewBox="0 0 62.67 40" width="62.67" height="40"><rect x="0" y="0" width="0" height="0" fill="none" stroke="var(--icon-secondary, #6c8ebf)" stroke-width="1"/><path d="M 12.34 2 L 0.33 2 L 0.33 34.66 L 11.67 34.66 Z" fill="var(--icon-primary, #dae8fc)" stroke="var(--icon-secondary, #6c8ebf)" stroke-width="1"/><path d="M 11.67 2 L 11.67 34.66 L 12.67 34 L 12.67 2 Z M 15 2 L 15 34.33 L 20 30 L 20 0 Z" fill="var(--icon-primary, #dae8fc)" stroke="var(--icon-secondary, #6c8ebf)" stroke-width="1" stroke-linejoin="round"/><path d="M 10.67 4 L 1.67 4" fill="none" stroke="var(--icon-secondary, #6c8ebf)" stroke-width="1" stroke-linejoin="round"/><path d="M 10 7.33 L 2.34 7.33" fill="none" stroke="var(--icon-secondary, #6c8ebf)" stroke-width="1" stroke-linejoin="round"/><path d="M 15 2 L 12.67 2 L 12.67 34.33 L 15 34.33 Z" fill="var(--icon-primary, #dae8fc)" stroke="var(--icon-secondary, #6c8ebf)" stroke-width="1" stroke-linejoin="round"/><path d="M 15 2 L 12.67 2 L 12.67 34.33 L 15 34.33" fill="none" stroke="var(--icon-secondary, #6c8ebf)" stroke-width="1" stroke-linejoin="round"/><path d="M 0.34 5.66 L 12 5.66" fill="none" stroke="var(--icon-secondary, #6c8ebf)" stroke-width="1" stroke-linejoin="round"/><path d="M 0.34 9 L 12 9" fill="none" stroke="var(--icon-secondary, #6c8ebf)" stroke-width="1" stroke-linejoin="round"/><path d="M 14 31 C 14 31 14.34 30.66 14.34 30.33 C 14.34 30.33 14 30 14 30 C 13.67 30 13.34 30.33 13.34 30.33 C 13.34 30.66 13.67 31 14 31 Z" fill="var(--icon-primary, #dae8fc)" stroke="var(--icon-secondary, #6c8ebf)" stroke-width="1" stroke-linejoin="round"/><path d="M 14 33.33 C 14 33.33 14.34 33.33 14.34 33 C 14.34 33 14 32.66 14 32.66 C 13.67 32.66 13.34 33 13.34 33 C 13.34 33.33 13.67 33.33 14 33.33 Z" fill="var(--icon-primary, #dae8fc)" stroke="var(--icon-secondary, #6c8ebf)" stroke-width="1" stroke-linejoin="round"/><path d="M 15.34 2 L 20.34 0 L 8.67 0 L 0 2.33 L 11.67 2.33 L 12.34 2 Z" fill="var(--icon-primary, #dae8fc)" stroke="var(--icon-secondary, #6c8ebf)" stroke-width="1" stroke-linejoin="round"/><path d="M 49 27 L 49 4 L 18.67 4 L 18.67 27 Z" fill="var(--icon-primary, #dae8fc)" stroke="var(--icon-secondary, #6c8ebf)" stroke-width="1" stroke-linejoin="round"/><path d="M 49 27 L 52.67 20.66 L 52.67 0.33 L 30.34 0.33 L 18.67 4 L 49 4 Z" fill="var(--icon-primary, #dae8fc)" stroke="var(--icon-secondary, #6c8ebf)" stroke-width="1" stroke-linejoin="round"/><path d="M 46.34 24.33 L 46.34 6.66 L 21.34 6.66 L 21.34 24.33 Z" fill="var(--icon-primary, #dae8fc)" stroke="var(--icon-secondary, #6c8ebf)" stroke-width="1" stroke-linejoin="round"/><path d="M 49 4 L 52.67 0.33" fill="none" stroke="var(--icon-secondary, #6c8ebf)" stroke-width="1" stroke-linejoin="round"/><path d="M 47.34 40 L 47.34 36.66 L 12 36.66 L 18 32.66 L 51.34 32.66 L 51.34 35.66 Z M 47.34 36.66 L 47.34 40 L 12 40 L 12 36.66 Z" fill="var(--icon-primary, #dae8fc)" stroke="var(--icon-secondary, #6c8ebf)" stroke-width="1" stroke-linejoin="round"/><path d="M 47.34 36.66 L 51.34 32.66" fill="none" stroke="var(--icon-secondary, #6c8ebf)" stroke-width="1" stroke-linejoin="round"/><path d="M 49.34 38.33 L 49 40 L 54.67 40 L 54.34 38.33 Z" fill="var(--icon-primary, #dae8fc)" stroke="var(--icon-secondary, #6c8ebf)" stroke-width="1" stroke-linejoin="round"/><path d="M 54.34 38.33 L 54.34 36.33 L 51.67 36.33 L 49.34 38.33 Z" fill="var(--icon-primary, #dae8fc)" stroke="var(--icon-secondary, #6c8ebf)" stroke-width="1" stroke-linejoin="round"/><path d="M 44.34 29.66 L 45.67 32.66 L 49 28.66 L 48.67 27.33 Z" fill="var(--icon-primary, #dae8fc)" stroke="var(--icon-secondary, #6c8ebf)" stroke-width="1" stroke-linejoin="round"/><path d="M 44.34 29.66 L 49 27 L 18.67 27 L 25.34 29.66 Z M 45.67 32.66 L 44.34 29.66 L 25.34 29.66 L 23.67 32.66 Z" fill="var(--icon-primary, #dae8fc)" stroke="var(--icon-secondary, #6c8ebf)" stroke-width="1" stroke-linejoin="round"/><path d="M 53 36.33 C 53.67 35.66 50.67 35 54 34.33 C 56.34 34 62.67 30.33 47.67 30" fill="none" stroke="var(--icon-secondary, #6c8ebf)" stroke-width="1" stroke-linejoin="round"/></svg>