<svg xmlns="http://www.w3.org/2000/svg" viewBox="0 0 31.34 44.66" width="31.34" height="44.66"><path d="M 24.34 7.33 L 12.67 7.33 L 12.67 43 L 24.34 43 Z M 31.34 0 L 24.34 7.33 L 24.34 43 L 31.34 34.66 Z M 12.34 7.33 C 12.34 7.33 9 9.33 5 9 C 0 8.66 0 8.66 0 8.66 C 0 44 0 44 0 44 C 5 44.33 5 44.33 5 44.33 C 10 44.66 12.67 43 12.67 43 Z" fill="var(--icon-primary, #dae8fc)" stroke="var(--icon-secondary, #6c8ebf)" stroke-width="1" stroke-linejoin="round"/><rect x="0" y="0" width="0" height="0" fill="none" stroke="var(--icon-secondary, #6c8ebf)" stroke-width="1"/><path d="M 14.34 12.33 L 22.67 12.33 L 22.67 20.33 L 14.34 20.33 Z" fill="none" stroke="var(--icon-secondary, #6c8ebf)" stroke-width="1"/><path d="M 2.34 7 L 12 7 M 14 6 L 18.34 1" fill="none" stroke="var(--icon-secondary, #6c8ebf)" stroke-width="1" stroke-linejoin="round"/><path d="M 12 7.66 C 12 7.66 12 10 7.67 10 C 0.34 9 0.34 9 0.34 9 C 0.34 8.33 0.34 8.33 0.34 8.33 C 11 0 11 0 11 0 C 31.34 0 31.34 0 31.34 0 C 24.34 7.33 24.34 7.33 24.34 7.33 C 12.67 7.33 12.67 7.33 12.67 7.33" fill="var(--icon-primary, #dae8fc)" stroke="var(--icon-secondary, #6c8ebf)" stroke-width="1" stroke-linejoin="round"/><path d="M 2.34 7 L 12 7 M 15 5.66 L 20.34 0.66" fill="none" stroke="var(--icon-secondary, #6c8ebf)" stroke-width="1" stroke-linejoin="round"/></svg>