<svg xmlns="http://www.w3.org/2000/svg" viewBox="0 0 36.33 37" width="36.33" height="37"><path d="M 30.33 36.67 L 30.33 6 L 0 6 L 0 37 Z M 36.33 0 L 30.33 6 L 0 6 L 6.33 0 Z M 36.33 29.34 L 36.33 0 L 30.33 6 L 30.33 36.67 Z" fill="var(--icon-primary, #dae8fc)" stroke="var(--icon-secondary, #6c8ebf)" stroke-width="1" stroke-linejoin="round"/><rect x="0" y="0" width="0" height="0" fill="none" stroke="var(--icon-secondary, #6c8ebf)" stroke-width="1"/><path d="M 18.33 29.34 L 20.67 26.67 L 17 25.67 Z" fill="var(--icon-secondary, #6c8ebf)" stroke="none" stroke-width="0"/><path d="M 4.33 16 L 7 13.67 L 3 12.34 L 4.33 16 Z" fill="var(--icon-secondary, #6c8ebf)" stroke="none" stroke-width="0"/><path d="M 5.67 23.67 L 5.67 20 L 2 22 L 5.67 23.67 Z" fill="var(--icon-secondary, #6c8ebf)" stroke="none" stroke-width="0"/><path d="M 18.33 14.67 L 20.67 17.34 L 17 18.34 L 18.33 14.67 Z" fill="var(--icon-secondary, #6c8ebf)" stroke="none" stroke-width="0"/><path d="M 4.33 28 L 7 30.34 L 3 31.67 L 4.33 28 Z" fill="var(--icon-secondary, #6c8ebf)" stroke="none" stroke-width="0"/><path d="M 18.67 27 L 23 31.67" fill="none" stroke="var(--icon-secondary, #6c8ebf)" stroke-width="1"/><path d="M 4.67 13.67 L 9.33 18.34" fill="none" stroke="var(--icon-secondary, #6c8ebf)" stroke-width="1"/><path d="M 4 21.67 L 10.67 21.67" fill="none" stroke="var(--icon-secondary, #6c8ebf)" stroke-width="1"/><path d="M 18.67 17 L 23 12.34" fill="none" stroke="var(--icon-secondary, #6c8ebf)" stroke-width="1"/><path d="M 4.67 30.34 L 9.33 25.67" fill="none" stroke="var(--icon-secondary, #6c8ebf)" stroke-width="1"/><rect x="0" y="0" width="0" height="0" fill="none" stroke="var(--icon-secondary, #6c8ebf)" stroke-width="1"/><path d="M 9.33 18 L 16.33 18 L 16.33 25.67 L 9.33 25.67 Z M 22 27 L 28 27 L 28 33 L 22 33 Z M 22 11 L 28 11 L 28 17 L 22 17 Z" fill="var(--icon-primary, #dae8fc)" stroke="var(--icon-secondary, #6c8ebf)" stroke-width="1"/></svg>