<svg xmlns="http://www.w3.org/2000/svg" viewBox="0 0 51.33 16" width="51.33" height="16"><path d="M 0 16 L 0 5 L 44.33 5 L 44.33 16 Z M 44.33 5 L 44.33 5 L 0 5 L 6.67 0 L 51.33 0 Z M 44.33 16 L 44.33 5 L 51.33 0 L 51.33 10 Z" fill="var(--icon-primary, #dae8fc)" stroke="var(--icon-secondary, #6c8ebf)" stroke-width="1" stroke-linejoin="round"/><rect x="0" y="0" width="0" height="0" fill="none" stroke="var(--icon-secondary, #6c8ebf)" stroke-width="1"/><path d="M 10.67 10.34 L 10.67 8.67 L 3 8.67 L 3 10.34 Z M 20.67 10.34 L 20.67 8.67 L 13 8.67 L 13 10.34 Z M 31 10.34 L 31 8.67 L 23 8.67 L 23 10.34 Z M 41 10.34 L 41 8.67 L 33 8.67 L 33 10.34 Z" fill="var(--icon-primary, #dae8fc)" stroke="var(--icon-secondary, #6c8ebf)" stroke-width="1"/></svg>