<svg xmlns="http://www.w3.org/2000/svg" viewBox="0 0 35 40.67" width="35" height="40.67"><path d="M 5.33 9.67 L 4.67 9.67 L 0 9.67 L 0 14 L 4.67 14" fill="var(--icon-secondary, #6c8ebf)" stroke="var(--icon-secondary, #6c8ebf)" stroke-width="1"/><path d="M 28.67 14 C 29.33 14 29.33 14 29.33 14 C 34.33 14 35 18.34 35 18.34 C 35 14 35 14 35 14 C 35 14 34.33 9.67 29.33 9.67 C 28.33 9.67 28.33 9.67 28.33 9.67" fill="var(--icon-secondary, #6c8ebf)" stroke="var(--icon-secondary, #6c8ebf)" stroke-width="1" stroke-linejoin="round"/><path d="M 26 40.67 L 26 3.34 L 4.67 3.34 L 4.67 40.67 Z M 4.67 3.34 L 8.67 0 L 29.67 0 L 26 3.34 Z M 26 40.67 L 29.67 36.67 L 29.67 0 L 26 3.34 Z" fill="var(--icon-primary, #dae8fc)" stroke="var(--icon-secondary, #6c8ebf)" stroke-width="1" stroke-linejoin="round"/><path d="M 35 13.67 C 35 19 35 19 35 19 C 34.33 25.34 23.33 25 23.33 25 C 23.33 25.34 23.33 25.34 23.33 25.34 C 23.33 29.67 23.33 29.67 23.33 29.67 C 16 22.34 16 22.34 16 22.34 C 23.33 15 23.33 15 23.33 15 C 23.33 19.67 23.33 19.67 23.33 19.67 C 23.33 19.67 34.67 20 35 13.67" fill="var(--icon-secondary, #6c8ebf)" stroke="var(--icon-secondary, #6c8ebf)" stroke-width="1" stroke-linejoin="round"/><path d="M 35 13.67 C 35 19 35 19 35 19 C 34.33 25.34 23.33 25 23.33 25 C 23.33 25.34 23.33 25.34 23.33 25.34 C 23.33 29.67 23.33 29.67 23.33 29.67 C 16 22.34 16 22.34 16 22.34 C 23.33 15 23.33 15 23.33 15 C 23.33 19.67 23.33 19.67 23.33 19.67 C 23.33 19.67 34.67 20 35 13.67" fill="var(--icon-secondary, #6c8ebf)" stroke="var(--icon-secondary, #6c8ebf)" stroke-width="1" stroke-linejoin="round"/><path d="M 8.33 10.67 L 7 11.67 L 7 6 L 12.67 6 L 11.67 7.34 L 11.33 7.67 L 19.67 16 L 17 18.67 L 8.67 10.34 Z M 8.33 34.34 L 7 33 L 7 38.67 L 12.67 38.67 L 11.67 37.34 L 11.33 37 L 19.67 28.67 L 17 26 L 8.67 34.34 Z" fill="var(--icon-secondary, #6c8ebf)" stroke="none" stroke-width="0"/></svg>