<svg xmlns="http://www.w3.org/2000/svg" viewBox="0 0 57 30.33" width="57" height="30.33"><path d="M 0 11 L 13.33 0 L 57 0 L 45.66 11 Z M 45.66 30 L 57 18.67 L 57 0 L 45.66 11 Z M 45.66 30.33 L 45.66 11 L 0 11 L 0 30.33 Z" fill="var(--icon-primary, #dae8fc)" stroke="var(--icon-secondary, #6c8ebf)" stroke-width="1" stroke-linejoin="round"/><path d="M 32.33 18 C 32.33 19.67 28.66 21.33 23.66 21.33 C 19 21.33 15.33 19.67 15.33 18 C 15.33 23 15.33 23 15.33 23 C 15.33 24.67 19 26.33 23.66 26.33 C 28.66 26.33 32.33 24.67 32.33 23 Z M 23.66 21.33 C 28.66 21.33 32.33 19.67 32.33 18 C 32.33 16 28.66 14.67 23.66 14.67 C 19 14.67 15.33 16 15.33 18 C 15.33 19.67 19 21.33 23.66 21.33 Z" fill="none" stroke="var(--icon-secondary, #6c8ebf)" stroke-width="1" stroke-linejoin="round"/><path d="M 10.66 14.67 L 0 14.67 M 10.66 20.33 L 0 20.33 M 42 20.33 L 37 20.33 M 10.66 26 L 0 26" fill="none" stroke="var(--icon-secondary, #6c8ebf)" stroke-width="1" stroke-linejoin="round"/><path d="M 14.33 14.67 L 8 17.33 L 9.33 14.67 L 8 12.33 Z M 14.33 20.33 L 8 23 L 9.33 20.33 L 8 17.67 Z M 45 20.33 L 40 22.33 L 41 20.33 L 40 18.33 Z M 14.33 26 L 8 28.67 L 9.33 26 L 8 23.33 Z M 38 18.33 L 37 20.33 L 38 22.33 L 33 20.33 Z" fill="var(--icon-secondary, #6c8ebf)" stroke="none" stroke-width="0"/></svg>