<svg xmlns="http://www.w3.org/2000/svg" viewBox="0 0 46.7 51.7" width="46.7" height="51.7"><path d="M 0 51.55 L 0 8.8 L 11.5 0 L 46.7 0 L 46.7 43 L 37.8 51.7 Z M 0 8.8 L 37.7 8.8 L 37.7 51.5 M 46.3 0.55 L 37.7 8.8" fill="var(--icon-primary, #dae8fc)" stroke="var(--icon-secondary, #6c8ebf)" stroke-width="1" stroke-linejoin="round"/><path d="M 16.5 19 A 5 5 0 0 1 21.8 13.9 L 24.2 13.9 A 4.5 4.5 0 0 0 20.5 19 Z" fill="var(--icon-secondary, #6c8ebf)" stroke="var(--icon-secondary, #6c8ebf)" stroke-width="0.5" stroke-linejoin="round"/><path d="M 21.4 21.1 L 25.5 21.1 A 5 8 0 0 0 20.3 13.9 L 25.2 13.9 A 5 7 0 0 1 29.9 20.9 L 34 21.1 L 27.4 27.5 Z" fill="var(--icon-secondary, #6c8ebf)" stroke="var(--icon-secondary, #6c8ebf)" stroke-width="0.5" stroke-linejoin="round"/><path d="M 19.5 41.5 A 5 5 0 0 1 14.3 46.1 L 12 46.1 A 4.5 4.5 0 0 0 16 41.5 Z" fill="var(--icon-secondary, #6c8ebf)" stroke="var(--icon-secondary, #6c8ebf)" stroke-width="0.5" stroke-linejoin="round"/><path d="M 11.1 38.6 A 6 8 0 0 0 15.7 46.1 L 11.7 46.1 A 6 8 0 0 1 6.6 38.6 L 2.5 38.6 L 8.8 32.4 L 15.1 38.7 Z" fill="var(--icon-secondary, #6c8ebf)" stroke="var(--icon-secondary, #6c8ebf)" stroke-width="0.5" stroke-linejoin="round"/></svg>