<svg xmlns="http://www.w3.org/2000/svg" viewBox="0 0 25.33 40.67" width="25.33" height="40.67"><path d="M 22 40.67 L 22 3.33 L 0 3.33 L 0 40.67 Z M 0 3.33 L 4.33 0 L 25.33 0 L 22 3.33 Z M 22 40.67 L 25.33 36.67 L 25.33 0 L 22 3.33 Z M 0 38 L 22 38 M 0 18 L 22 18" fill="var(--icon-primary, #dae8fc)" stroke="var(--icon-secondary, #6c8ebf)" stroke-width="1" stroke-linejoin="round"/><rect x="0" y="0" width="0" height="0" fill="none" stroke="var(--icon-secondary, #6c8ebf)" stroke-width="1"/><path d="M 9.66 30 L 9.66 33 L 8.33 33 L 10.66 36 L 13.33 33 L 12 33 L 12 30 Z M 9.66 27.67 L 9.66 24.33 L 8.33 24.33 L 10.66 21.33 L 13.33 24.33 L 12 24.33 L 12 27.67 Z M 3.33 27.67 L 6.33 27.67 L 6.33 26.33 L 9.33 29 L 6.33 31.33 L 6.33 30 L 3.33 30 Z M 18.33 27.67 L 15 27.67 L 15 26.33 L 12 29 L 15 31.33 L 15 30 L 18.33 30 Z" fill="var(--icon-secondary, #6c8ebf)" stroke="none" stroke-width="0"/><path d="M 12 10 L 12 6 L 2 6 L 2 10 Z M 3 8 L 11.33 8" fill="none" stroke="var(--icon-secondary, #6c8ebf)" stroke-width="1"/></svg>