<svg xmlns="http://www.w3.org/2000/svg" viewBox="0 0 63.67 35.33" width="63.67" height="35.33"><path d="M 0 15.66 L 19.33 0 L 63.67 0 L 48 15.66 Z M 48 35.33 L 63.67 19.33 L 63.67 0 L 48 15.66 Z M 48 35.33 L 48 15.66 L 0 15.66 L 0 35.33 Z" fill="var(--icon-primary, #dae8fc)" stroke="var(--icon-secondary, #6c8ebf)" stroke-width="1" stroke-linejoin="round"/><path d="M 46 25.99 C 46 25.99 42.67 34.33 39 25.99 C 35 18 32 25.99 32 25.99 C 32 25.99 28.67 34.33 25 25.99 C 21 17.66 18 25.99 18 25.99 C 18 25.99 14.67 34.33 11 25.99 C 7.33 18 4 25.99 4 25.99" fill="none" stroke="var(--icon-secondary, #6c8ebf)" stroke-width="0.67" stroke-linecap="round" stroke-linejoin="round"/><path d="M 4 25.99 C 4 25.99 7.33 34.33 11 25.99 C 14.67 18 18 25.99 18 25.99 C 18 25.99 21 34.33 25 25.99 C 28.67 17.66 32 25.99 32 25.99 C 32 25.99 35 34.33 39 25.99 C 42.67 18 46 25.99 46 25.99" fill="none" stroke="var(--icon-secondary, #6c8ebf)" stroke-width="1.33" stroke-linecap="round" stroke-linejoin="round"/><path d="M 45 25.99 C 45 25.99 42 34.33 38.33 25.99 C 34.33 18 31.33 25.99 31.33 25.99 C 31.33 25.99 28 34.33 24.33 25.99 C 20.33 17.66 17.33 25.99 17.33 25.99 C 17.33 25.99 14 34.33 10.33 25.99 C 6.33 18 3.33 25.99 3.33 25.99" fill="none" stroke="var(--icon-secondary, #6c8ebf)" stroke-width="0.67" stroke-linecap="round" stroke-linejoin="round"/><path d="M 3.33 25.99 C 3.33 25.99 6.33 34.33 10.33 25.99 C 14 18 17.33 25.99 17.33 25.99 C 17.33 25.99 20.33 34.33 24.33 25.99 C 28 17.66 31.33 25.99 31.33 25.99 C 31.33 25.99 34.33 34.33 38.33 25.99 C 42 18 45 25.99 45 25.99" fill="none" stroke="var(--icon-secondary, #6c8ebf)" stroke-width="1.33" stroke-linecap="round" stroke-linejoin="round"/><path d="M 62.67 11 C 62.67 11 61.33 20.33 60.67 13.33 C 59.67 6 58.33 15.66 58.33 15.66 C 58.33 15.66 57 24.99 56 18 C 55.33 10.66 54 20.33 54 20.33 C 54 20.33 52.67 29.66 51.67 22.66 C 51 15.33 49.67 24.99 49.67 24.99" fill="none" stroke="var(--icon-secondary, #6c8ebf)" stroke-width="1" stroke-linecap="round" stroke-linejoin="round"/><path d="M 49.67 24.99 C 49.67 24.99 50 32.33 51.67 22.66 C 53.33 12.66 54 20.33 54 20.33 C 54 20.33 54.67 27.66 56 17.66 C 57.67 8 58.33 15.66 58.33 15.66 C 58.33 15.66 59 23 60.67 13.33 C 62 3.33 62.67 11 62.67 11" fill="none" stroke="var(--icon-secondary, #6c8ebf)" stroke-width="0.67" stroke-linecap="round" stroke-linejoin="round"/><path d="M 62.67 11 C 62.67 11 61 20.66 60.33 13.33 C 59.33 6.33 58 15.66 58 15.66 C 58 15.66 56.67 25.33 56 18 C 55 11 53.67 20.33 53.67 20.33 C 53.67 20.33 52.33 29.99 51.33 22.66 C 50.67 15.66 49.33 24.99 49.33 24.99" fill="none" stroke="var(--icon-secondary, #6c8ebf)" stroke-width="0.5" stroke-linecap="round" stroke-linejoin="round"/><path d="M 49.33 24.99 C 49.33 24.99 50 32.33 51.33 22.66 C 53 13 53.67 20.33 53.67 20.33 C 53.67 20.33 54.33 27.66 56 18 C 57.33 8.33 58 15.66 58 15.66 C 58 15.66 58.67 23.33 60.33 13.33 C 62 3.66 62.67 11 62.67 11" fill="none" stroke="var(--icon-secondary, #6c8ebf)" stroke-width="0.8" stroke-linecap="round" stroke-linejoin="round"/><path d="M 34.67 3.33 L 33 3 L 39 1.66 L 41.33 3.66 L 39.67 3.33 L 39.33 3.33 L 36 5.66 L 31.67 5.66 L 35 3.33 Z M 30.33 12 L 32 12.33 L 26 13.66 L 23.67 11.66 L 25.33 12 L 26 12 L 29 9.66 L 33.33 9.66 L 30 12 Z M 21.33 7.66 L 14.33 7.66 L 16.67 6 L 23.67 6 L 24.33 5 L 27.67 7.33 L 19.67 9.66 Z M 43.33 7 L 50.33 7 L 48.33 8.66 L 41.33 8.66 L 40.33 9.66 L 37 7.33 L 45.33 5.33 Z" fill="var(--icon-secondary, #6c8ebf)" stroke="none" stroke-width="0"/></svg>