<svg xmlns="http://www.w3.org/2000/svg" viewBox="0 0 41.33 36.67" width="41.33" height="36.67"><path d="M 0 36.67 L 0 4.67 L 37 4.67 L 37 36.67 Z M 4.33 0 L 0 4.67 L 37 4.67 L 41.33 0 Z M 41.33 32.33 L 41.33 0 L 37 4.67 L 37 36.67 Z" fill="var(--icon-primary, #dae8fc)" stroke="var(--icon-secondary, #6c8ebf)" stroke-width="1" stroke-linejoin="round"/><rect x="0" y="0" width="0" height="0" fill="none" stroke="var(--icon-secondary, #6c8ebf)" stroke-width="1"/><path d="M 15.66 18.33 L 5 22" fill="none" stroke="var(--icon-secondary, #6c8ebf)" stroke-width="1" stroke-dasharray="4 2"/><path d="M 34 7.33 L 3.66 7.33 L 3.66 34.33 L 34 34.33 Z M 20.66 15.67 L 34 10.67 L 34 13.67 Z" fill="none" stroke="var(--icon-secondary, #6c8ebf)" stroke-width="1"/><path d="M 20.66 15.67 L 34 14 L 34 16.67" fill="none" stroke="var(--icon-secondary, #6c8ebf)" stroke-width="0.67"/><path d="M 20.66 15.67 L 34 16.67 L 34 19.67 L 20.66 15.67" fill="none" stroke="var(--icon-secondary, #6c8ebf)" stroke-width="0.67"/><path d="M 28.66 30 L 9.66 30 L 19 11 Z" fill="var(--icon-secondary, #6c8ebf)" stroke="none" stroke-width="0"/></svg>