<svg xmlns="http://www.w3.org/2000/svg" viewBox="0 0 49 49.33" width="49" height="49.33"><path d="M 49 9.67 C 49 15 38 19 24.67 19 C 11 19 0 15 0 9.67 C 0 40 0 40 0 40 C 0 45 11 49.33 24.67 49.33 C 38 49.33 49 45 49 40 Z M 24.67 19 C 38 19 49 15 49 9.67 C 49 4.33 38 0 24.67 0 C 11 0 0 4.33 0 9.67 C 0 15 11 19 24.67 19 Z" fill="var(--icon-primary, #dae8fc)" stroke="var(--icon-secondary, #6c8ebf)" stroke-width="1" stroke-linejoin="round"/><rect x="0" y="0" width="0" height="0" fill="none" stroke="var(--icon-secondary, #6c8ebf)" stroke-width="1"/><path d="M 26 4.33 L 33.67 2 L 33.67 5.33 L 31.67 5 L 28 8.33 L 24.34 7.67 L 28.34 4.67 Z M 29.67 13.33 L 28.34 10 L 35.34 8.67 L 34 9.67 L 45.67 11.67 L 42.67 14 L 31.34 12 Z M 22.67 16 L 15.34 17.33 L 15 14 L 17 14.67 L 21 11 L 24.67 11.67 L 20.34 15.33 Z M 19 6 L 21 9 L 13.34 10.67 L 15 9.33 L 3 7.33 L 6 5 L 17.67 7 Z" fill="var(--icon-secondary, #6c8ebf)" stroke="none" stroke-width="0"/><path d="M 14 42 L 21 42 L 29.67 24 L 35.34 24" fill="none" stroke="var(--icon-secondary, #6c8ebf)" stroke-width="2"/><path d="M 33.34 20.67 L 33.34 27 L 37.34 24 Z M 15 45.33 L 15 38.67 L 11.34 42 Z" fill="var(--icon-secondary, #6c8ebf)" stroke="none" stroke-width="0"/><path d="M 15 45.67 L 15 39.33 L 11.34 42.33 Z M 33.67 21 L 33.67 27.33 L 37.34 24.33 Z" fill="var(--icon-secondary, #6c8ebf)" stroke="none" stroke-width="0"/><path d="M 15 27.33 L 15 20.67 L 11.34 24 Z" fill="var(--icon-secondary, #6c8ebf)" stroke="none" stroke-width="0"/><path d="M 15 27.67 L 15 21.33 L 11.34 24.33 Z" fill="var(--icon-secondary, #6c8ebf)" stroke="none" stroke-width="0"/><path d="M 35.34 42 L 29.34 42 L 20.34 24 L 14.67 24" fill="none" stroke="var(--icon-secondary, #6c8ebf)" stroke-width="2"/><path d="M 36 42.33 L 29.67 42.33 L 20.67 24.33 L 13.67 24.33 M 13.67 42.33 L 20 42.33 L 29 24.33 L 36 24.33" fill="none" stroke="var(--icon-secondary, #6c8ebf)" stroke-width="2"/><path d="M 33.34 38.67 L 33.34 45 L 37.34 42 Z" fill="var(--icon-secondary, #6c8ebf)" stroke="none" stroke-width="0"/><path d="M 33.67 39 L 33.67 45.67 L 37.34 42.33 Z" fill="var(--icon-secondary, #6c8ebf)" stroke="none" stroke-width="0"/></svg>