<svg xmlns="http://www.w3.org/2000/svg" viewBox="0 0 48.67 32.67" width="48.67" height="32.67"><path d="M 48.67 9.34 C 48.67 14.67 37.67 18.67 24.33 18.67 C 11 18.67 0 14.67 0 9.34 C 0 23.34 0 23.34 0 23.34 C 0 28.34 11 32.67 24.33 32.67 C 37.67 32.67 48.67 28.34 48.67 23.34 Z M 24.33 18.67 C 37.67 18.67 48.67 14.67 48.67 9.34 C 48.67 4.34 37.67 0 24.33 0 C 11 0 0 4.34 0 9.34 C 0 14.67 11 18.67 24.33 18.67 Z" fill="var(--icon-primary, #dae8fc)" stroke="var(--icon-secondary, #6c8ebf)" stroke-width="1" stroke-linejoin="round"/><rect x="0" y="0" width="0" height="0" fill="none" stroke="var(--icon-secondary, #6c8ebf)" stroke-width="1"/><path d="M 35.33 11.5 L 40.67 14 L 35.33 16.67 L 35.33 15 L 9 15 L 9 13 L 35.33 13 Z" fill="none" stroke="var(--icon-secondary, #6c8ebf)" stroke-width="1"/><path d="M 14.33 6.67 C 15.33 6.67 15.33 6.67 15.33 6.67 C 16.33 9.67 16.33 10 16.33 10.67 C 16.33 10.67 16.33 10.67 16.33 10.67 C 16.33 10.34 16.67 9.67 17 6.67 C 18.33 6.67 18.33 6.67 18.33 6.67 C 19 9.67 19 10 19 10.67 C 19 10.67 19 10.67 19 10.67 C 19.33 10.34 19.33 9.67 20 6.67 C 21 6.67 21 6.67 21 6.67 C 19.67 12.34 19.67 12.34 19.67 12.34 C 18.67 12.34 18.67 12.34 18.67 12.34 C 18 9.67 18 9 17.67 8 C 17.67 8 17.67 8 17.67 8 C 17.67 9 17.33 9.34 17 12.34 C 15.67 12.34 15.67 12.34 15.67 12.34 Z" fill="var(--icon-secondary, #6c8ebf)" stroke="none" stroke-width="0"/><path d="M 21.33 6.67 C 22.67 6.67 22.67 6.67 22.67 6.67 C 23.33 9.67 23.33 10 23.33 10.67 C 23.33 10.67 23.33 10.67 23.33 10.67 C 23.67 10.34 23.67 9.67 24.33 6.67 C 25.33 6.67 25.33 6.67 25.33 6.67 C 26 9.67 26 10 26.33 10.67 C 26.33 10.67 26.33 10.67 26.33 10.67 C 26.33 10.34 26.33 9.67 27 6.67 C 28.33 6.67 28.33 6.67 28.33 6.67 C 26.67 12.34 26.67 12.34 26.67 12.34 C 25.67 12.34 25.67 12.34 25.67 12.34 C 25 9.67 25 9 24.67 8 C 24.67 8 24.67 8 24.67 8 C 24.67 9 24.67 9.34 24 12.34 C 23 12.34 23 12.34 23 12.34 Z" fill="var(--icon-secondary, #6c8ebf)" stroke="none" stroke-width="0"/><path d="M 28.33 6.67 C 29.67 6.67 29.67 6.67 29.67 6.67 C 30.33 9.67 30.33 10 30.67 10.67 C 30.67 10.67 30.67 10.67 30.67 10.67 C 30.67 10.34 30.67 9.67 31.33 6.67 C 32.33 6.67 32.33 6.67 32.33 6.67 C 33 9.67 33 10 33.33 10.67 C 33.33 10.67 33.33 10.67 33.33 10.67 C 33.33 10.34 33.33 9.67 34.33 6.67 C 35.33 6.67 35.33 6.67 35.33 6.67 C 33.67 12.34 33.67 12.34 33.67 12.34 C 32.67 12.34 32.67 12.34 32.67 12.34 C 32 9.67 32 9 32 8 C 32 8 32 8 32 8 C 31.67 9 31.67 9.34 31 12.34 C 30 12.34 30 12.34 30 12.34 Z" fill="var(--icon-secondary, #6c8ebf)" stroke="none" stroke-width="0"/></svg>