<svg xmlns="http://www.w3.org/2000/svg" viewBox="0 0 50 60" width="50" height="60"><path d="M 13.67 8.67 C 24.67 28.33 24.67 28.33 24.67 28.33 C 26 31 25 34.67 22.34 36 C 22.34 36 22.34 36 22.34 36 C 19.67 37.67 16.34 36.67 14.67 34 C 4 14.67 4 14.67 4 14.67" fill="var(--icon-primary, #dae8fc)" stroke="var(--icon-secondary, #6c8ebf)" stroke-width="1"/><path d="M 17 60 C 8.67 60 2 58 2 55.33 C 2 52.67 8.67 50.67 17 50.67 C 25.34 50.67 32 52.67 32 55.33 C 32 58 25.34 60 17 60 Z" fill="var(--icon-primary, #dae8fc)" stroke="var(--icon-secondary, #6c8ebf)" stroke-width="1"/><path d="M 17 54 C 13 54 9.67 53 9.67 51.67 C 9.67 50.33 13 49.33 17 49.33 C 21.34 49.33 24.67 50.33 24.67 51.67 C 24.67 53 21.34 54 17 54 Z" fill="var(--icon-primary, #dae8fc)" stroke="var(--icon-secondary, #6c8ebf)" stroke-width="0.67"/><path d="M 13.67 9 C 15.34 11.67 13.67 14 11 15.33 C 11 15.33 11 15.33 11 15.33 C 8.34 17 5.34 17.33 4 14.67 C 2 11 2 11 2 11 C 1.67 10.33 1.67 10.33 1.67 10.33 C 0 7.67 0.67 3 3.34 1.67 C 3.34 1.67 3.34 1.67 3.34 1.67 C 6 0 9.67 1.67 11.34 4.67 C 11.67 5 11.67 5 11.67 5 Z" fill="var(--icon-primary, #dae8fc)" stroke="var(--icon-secondary, #6c8ebf)" stroke-width="0.67"/><path d="M 17 52.67 C 16 52.67 15.34 52 15.34 51 C 15.34 24.33 15.34 24.33 15.34 24.33 C 15.34 23.33 16 22.67 17 22.67 C 17 22.67 17 22.67 17 22.67 C 18 22.67 18.67 23.33 18.67 24.33 C 18.67 51 18.67 51 18.67 51 C 18.67 52 18 52.67 17 52.67 Z" fill="var(--icon-primary, #dae8fc)" stroke="var(--icon-secondary, #6c8ebf)" stroke-width="0.67"/><path d="M 17.34 27.33 C 18.34 27.33 19.34 26.67 19.34 25.67 C 19.34 24.67 18.34 23.67 17.34 23.67 C 16.34 23.67 15.67 24.67 15.67 25.67 C 15.67 26.67 16.34 27.33 17.34 27.33 Z" fill="var(--icon-primary, #dae8fc)" stroke="var(--icon-secondary, #6c8ebf)" stroke-width="0.67"/><path d="M 14 9 C 15.34 12 14 14 11 15.67 C 11 15.67 11 15.67 11 15.67 C 8.34 17 5.67 17.33 4 14.67" fill="none" stroke="var(--icon-secondary, #6c8ebf)" stroke-width="0.67"/><path d="M 13 7.67 C 14.67 10.33 13 12.67 10.34 14 C 10.34 14 10.34 14 10.34 14 C 7.67 15.67 4.67 16 3.34 13.33" fill="none" stroke="var(--icon-secondary, #6c8ebf)" stroke-width="1"/><path d="M 12.34 6.67 C 13.67 9.33 12 11.33 9.67 13 C 9.67 13 9.67 13 9.67 13 C 7 14.33 4.34 14.67 2.67 12" fill="none" stroke="var(--icon-secondary, #6c8ebf)" stroke-width="1"/><path d="M 11.67 5.67 C 13 8 11.34 10 8.67 11.67 C 8.67 11.67 8.67 11.67 8.67 11.67 C 6 13 3.34 13.33 2 10.67" fill="none" stroke="var(--icon-secondary, #6c8ebf)" stroke-width="1"/><path d="M 11 4.33 C 12.34 6.67 10.67 8.67 8 10.33 C 8 10.33 8 10.33 8 10.33 C 5.34 11.67 2.67 12 1.34 9.33" fill="none" stroke="var(--icon-secondary, #6c8ebf)" stroke-width="1"/><path d="M 10 3 C 11.34 5.67 10 7.67 7.34 9 C 7.34 9 7.34 9 7.34 9 C 5 10.33 2.34 10.67 1 8.33" fill="none" stroke="var(--icon-secondary, #6c8ebf)" stroke-width="1"/><path d="M 9 2.33 C 10 4.67 8.67 6.33 6.67 7.33 C 6.67 7.33 6.67 7.33 6.67 7.33 C 4.34 8.67 2.34 9 1 6.67" fill="none" stroke="var(--icon-secondary, #6c8ebf)" stroke-width="1"/><path d="M 7.67 1.67 C 8.67 3.67 7.67 5 5.67 6 C 5.67 6 5.67 6 5.67 6 C 4 7 2 7.33 1 5.33" fill="none" stroke="var(--icon-secondary, #6c8ebf)" stroke-width="1"/><path d="M 22.67 35 C 23.67 39.67 23.67 46.67 28.67 48.67 C 30 49.33 31.67 49 33.34 49.67 C 36.67 50.67 38 54.33 41 56.67 C 43.67 58.67 47 58.67 50 57.33" fill="none" stroke="var(--icon-secondary, #6c8ebf)" stroke-width="0.67"/></svg>