<svg xmlns="http://www.w3.org/2000/svg" viewBox="0 0 65.67 44.67" width="65.67" height="44.67"><path d="M 0 5 L 0 44.67 L 60.67 44.67 L 60.67 5 Z M 0 5 L 4.67 0 L 65.67 0 L 60.67 5 Z M 60.67 5 L 65.67 0 L 65.67 39.67 L 60.67 44.67 Z" fill="var(--icon-primary, #dae8fc)" stroke="var(--icon-secondary, #6c8ebf)" stroke-width="1" stroke-linejoin="round"/><rect x="0" y="0" width="0" height="0" fill="none" stroke="var(--icon-secondary, #6c8ebf)" stroke-width="1"/><path d="M 48.67 13.67 L 48.67 11.34 L 54.34 15.34 L 48.67 19 L 48.67 16.67 L 41.34 16.67 L 41.34 13.67 Z M 18.34 33.34 L 18.34 31 L 23.67 35 L 18.34 39 L 18.34 36.67 L 4 36.67 L 4 33.34 Z M 48.67 33.67 L 48.67 31.34 L 54.34 35 L 48.67 39 L 48.67 36.67 L 41.34 36.67 L 41.34 33.67 Z" fill="var(--icon-secondary, #6c8ebf)" stroke="none" stroke-width="0"/><path d="M 48 13 L 48 10.67 L 53.67 14.34 L 48 18.34 L 48 16 L 40.67 16 L 40.67 13 Z M 17.34 32.67 L 17.34 30.34 L 23 34.34 L 17.34 38 L 17.34 35.67 L 3.34 35.67 L 3.34 32.67 Z" fill="var(--icon-secondary, #6c8ebf)" stroke="none" stroke-width="0"/><path d="M 53.67 23.67 L 53.67 21.34 L 59.34 25 L 53.67 29 L 53.67 26.67 L 41 26.67 L 41 23.67 Z" fill="var(--icon-secondary, #6c8ebf)" stroke="none" stroke-width="0"/><path d="M 53 22.67 L 53 20.34 L 58.67 24.34 L 53 28.34 L 53 26 L 40.34 26 L 40.34 22.67 Z M 48 32.67 L 48 30.34 L 53.67 34.34 L 48 38.34 L 48 36 L 40.67 36 L 40.67 32.67 Z" fill="var(--icon-secondary, #6c8ebf)" stroke="none" stroke-width="0"/><path d="M 38.67 8.34 L 38.67 41.34 L 24 41.34 L 24 8.34 Z" fill="none" stroke="var(--icon-secondary, #6c8ebf)" stroke-width="1"/><path d="M 34.67 33.67 L 34.67 38.34 L 28.34 38.34 L 28.34 33.67 Z" fill="var(--icon-secondary, #6c8ebf)" stroke="none" stroke-width="0"/><path d="M 37.67 38.34 L 37.67 39.67 L 36.34 39.67 L 36.34 38.34 Z M 37.67 35.67 L 37.67 37 L 36.34 37 L 36.34 35.67 Z M 37.67 32.67 L 37.67 34 L 36.34 34 L 36.34 32.67 Z M 37.67 30.34 L 37.67 31.34 L 36.34 31.34 L 36.34 30.34 Z M 37.67 27.34 L 37.67 28.67 L 36.34 28.67 L 36.34 27.34 Z M 37.67 24.67 L 37.67 26 L 36.34 26 L 36.34 24.67 Z M 37.67 22 L 37.67 23.34 L 36.34 23.34 L 36.34 22 Z M 37.67 19.34 L 37.67 20.67 L 36.34 20.67 L 36.34 19.34 Z M 37.67 16.67 L 37.67 18 L 36.34 18 L 36.34 16.67 Z M 37.67 14 L 37.67 15.34 L 36.34 15.34 L 36.34 14 Z M 37.67 11.34 L 37.67 12.67 L 36.34 12.67 L 36.34 11.34 Z M 26.67 38.34 L 26.67 39.67 L 25.34 39.67 L 25.34 38.34 Z M 26.67 35.67 L 26.67 37 L 25.34 37 L 25.34 35.67 Z M 26.67 32.67 L 26.67 34 L 25.34 34 L 25.34 32.67 Z M 26.67 30.34 L 26.67 31.34 L 25.34 31.34 L 25.34 30.34 Z M 26.67 27.34 L 26.67 28.67 L 25.34 28.67 L 25.34 27.34 Z M 26.67 24.67 L 26.67 26 L 25.34 26 L 25.34 24.67 Z M 26.67 22 L 26.67 23.34 L 25.34 23.34 L 25.34 22 Z M 26.67 19.34 L 26.67 20.67 L 25.34 20.67 L 25.34 19.34 Z M 26.67 16.67 L 26.67 18 L 25.34 18 L 25.34 16.67 Z M 26.67 14 L 26.67 15.34 L 25.34 15.34 L 25.34 14 Z M 26.67 11.34 L 26.67 12.67 L 25.34 12.67 L 25.34 11.34 Z M 34.67 26.67 L 34.67 31 L 28.34 31 L 28.34 26.67 Z M 34.67 19.34 L 34.67 23.67 L 28.34 23.67 L 28.34 19.34 Z M 34.67 12.34 L 34.67 16.67 L 28.34 16.67 L 28.34 12.34 Z" fill="var(--icon-secondary, #6c8ebf)" stroke="none" stroke-width="0"/><rect x="0" y="0" width="0" height="0" fill="none" stroke="var(--icon-secondary, #6c8ebf)" stroke-width="1"/><path d="M 18 17 C 18.34 16.34 19 13 19 12.34 C 19 12 19 11.34 18.67 11.34 C 18.67 11 18.67 11 18.67 11 C 18.67 11 18.67 11 18.67 11 C 18.67 11 18.67 11 18.67 11 C 18.67 11 18.67 10 19 9.67 C 19 8.67 19 8 19 8 C 19 8 19 7.67 19 7.67 C 18.34 7.67 18.34 7.67 18.34 7.67 C 18 7.67 18 7.67 18 7.67 C 18 7.67 17.67 8.34 17.34 9.34 C 17.34 9.67 17 10.34 17 10.34 C 17 10.34 17 10.34 17 10.34 C 16.67 10.34 16.34 10.34 16 10 C 15 9.67 14 9.67 13.34 9.34 C 13.34 9.34 13 9.67 13 9.67 C 13 9.67 13 9.67 13 9.67 C 12.67 9.67 12.34 10 12 10.67 C 12 11 10.67 14.34 10.67 15 C 10.34 15.67 10 17.67 10 18.34 C 9.67 19.34 9.67 20.67 9 23 C 8.67 24 8 26 8 26.67 C 7.67 26.67 7.34 27.67 8 28 C 9 28.34 10 29 10.67 29 C 11.34 29.34 12.67 29.67 13.67 29.67 C 14.34 29.67 14.34 28.67 14.67 28.34 C 14.67 27.67 15 26 15.34 24.67 C 16 22.67 16.67 21.34 17 20.34 C 17.34 19.67 18 17.67 18 17 Z" fill="none" stroke="var(--icon-secondary, #6c8ebf)" stroke-width="1"/><path d="M 18 8 C 18 8 18 8 17.67 8 C 17.34 8 17 7.67 17 7.67" fill="none" stroke="var(--icon-secondary, #6c8ebf)" stroke-width="1"/><path d="M 17 17.34 C 17.34 16.67 18 13 18.34 12.67 C 18.34 12 18 11.34 17.67 11.34 C 17.67 11.34 17.67 11 17.67 11 C 17.67 11 17.67 11 17.67 11 C 17.67 11 17.67 11 17.67 11 C 17.67 11 17.67 10.34 18 9.67 C 18 8.67 18 8 18 8 C 18 8 18 8 18 8 C 17.34 7.67 17.34 7.67 17.34 7.67 C 17.34 7.67 17 7.67 17 8 C 17 8 16.67 8.34 16.34 9.34 C 16.34 10 16 10.34 16 10.34 C 16 10.34 16 10.34 16 10.34 C 15.67 10.34 15.34 10.34 15 10 C 14 10 13.34 9.67 12.34 9.67 C 12.34 9.67 12.34 9.67 12 9.67 C 12 9.67 12 9.67 12 9.67 C 12 9.67 11.34 10.34 11.34 10.67 C 11 11 10 14.34 9.67 15 C 9.34 16 9 17.67 9 18.34 C 8.67 19.34 8.67 21 8 23 C 7.67 24 7.34 26 7 26.67 C 7 27 6.34 28 7 28.34 C 8 28.67 9.34 29 10 29 C 10.34 29.34 11.67 29.67 12.67 29.67 C 13.67 30 13.67 28.67 13.67 28.67 C 13.67 27.67 14.34 26 14.67 24.67 C 15 22.67 15.67 21.34 16 20.34 C 16.34 19.67 17 18 17 17.34 Z" fill="none" stroke="var(--icon-secondary, #6c8ebf)" stroke-width="1"/><path d="M 10.67 22 C 10.34 22.34 10 22.67 9.67 22.67 C 9.34 22.34 9.34 22 9.34 21.67 C 9.34 21.34 9.67 21 10 21.34 C 10.34 21.34 10.67 21.67 10.67 22 Z" fill="none" stroke="var(--icon-secondary, #6c8ebf)" stroke-width="1"/><path d="M 14.34 12 L 15 10" fill="none" stroke="var(--icon-secondary, #6c8ebf)" stroke-width="1"/><path d="M 12.34 22.67 C 12.34 23 11.67 23.34 11.34 23.34 C 11 23 11 22.67 11 22.34 C 11 22 11.34 22 11.67 22 C 12.34 22 12.34 22.34 12.34 22.67 Z" fill="none" stroke="var(--icon-secondary, #6c8ebf)" stroke-width="1"/><path d="M 14 23 C 14 23.34 13.67 23.67 13.34 23.67 C 13 23.34 12.67 23 12.67 22.67 C 13 22.34 13.34 22 13.67 22.34 C 14 22.34 14.34 22.67 14 23 Z" fill="none" stroke="var(--icon-secondary, #6c8ebf)" stroke-width="1"/><path d="M 10.34 23.67 C 10 24 9.67 24 9.34 24 C 9 24 8.67 23.67 9 23.34 C 9 23 9.34 22.67 9.67 22.67 C 10 22.67 10.34 23.34 10.34 23.67 Z" fill="none" stroke="var(--icon-secondary, #6c8ebf)" stroke-width="1"/><path d="M 12 24.34 C 11.67 24.67 11.34 24.67 11 24.67 C 10.67 24.67 10.34 24.34 10.67 24 C 10.67 23.67 11 23.34 11.34 23.34 C 11.67 23.67 12 24 12 24.34 Z" fill="none" stroke="var(--icon-secondary, #6c8ebf)" stroke-width="1"/><path d="M 13.67 24.67 C 13.67 25 13.34 25 13 25 C 12.67 25 12.34 24.67 12.34 24 C 12.67 23.67 13 23.67 13.34 23.67 C 13.67 23.67 13.67 24 13.67 24.67 Z" fill="none" stroke="var(--icon-secondary, #6c8ebf)" stroke-width="1"/><path d="M 9.67 25 C 9.67 25.34 9.34 25.67 9 25.34 C 8.67 25.34 8.34 25 8.34 24.67 C 8.67 24.34 9 24 9.34 24.34 C 9.67 24.34 10 24.67 9.67 25 Z" fill="none" stroke="var(--icon-secondary, #6c8ebf)" stroke-width="1"/><path d="M 11.34 25.67 C 11.34 26 11 26.34 10.67 26.34 C 10.34 26 10 25.67 10.34 25.34 C 10.34 25 10.67 24.67 11 25 C 11.34 25 11.67 25.34 11.34 25.67 Z" fill="none" stroke="var(--icon-secondary, #6c8ebf)" stroke-width="1"/><path d="M 13.34 26 C 13.34 26.34 12.67 26.67 12.34 26.34 C 12 26.34 12 26 12 25.67 C 12 25.34 12.34 25 12.67 25 C 13.34 25.34 13.34 25.67 13.34 26 Z" fill="none" stroke="var(--icon-secondary, #6c8ebf)" stroke-width="1"/><path d="M 9.34 26.34 C 9.34 27 9 27 8.67 27 C 8.34 27 8 26.34 8 26 C 8.34 25.67 8.67 25.67 9 25.67 C 9.34 25.67 9.34 26 9.34 26.34 Z M 11 27.34 C 11 27.67 10.67 27.67 10.34 27.67 C 10 27.67 9.67 27.34 9.67 27 C 10 26.34 10.34 26.34 10.67 26.34 C 11 26.34 11 27 11 27.34 Z" fill="none" stroke="var(--icon-secondary, #6c8ebf)" stroke-width="1"/><path d="M 13 27.34 C 12.67 27.67 12.34 28 12 28 C 11.67 27.67 11.34 27.34 11.67 27 C 11.67 26.67 12 26.67 12.34 26.67 C 12.67 26.67 13 27 13 27.34 Z" fill="none" stroke="var(--icon-secondary, #6c8ebf)" stroke-width="1"/><path d="M 10.34 28.34 C 10.34 28.34 10 28.34 10 28.34 C 10 28.34 10 28 10 28 C 10 28 10 28 10 28 C 10.34 28 10.34 28 10.34 28.34 Z" fill="none" stroke="var(--icon-secondary, #6c8ebf)" stroke-width="1"/><path d="M 17.67 11 C 17.67 11 17.67 10.34 18 9.67 C 18 8.67 18 8 18 8 C 18 8 18 8 18 8 C 17.34 7.67 17.34 7.67 17.34 7.67 C 17.34 7.67 17 7.67 17 8 C 17 8 16.67 8.34 16.34 9.34 C 16.34 10 16 10.34 16 10.34 M 16 18 C 16 18.34 15.67 18.34 15.67 18.34 C 10.34 17 10.34 17 10.34 17 C 10.34 16.67 10.34 16.67 10.34 16.67 C 11.34 13.34 11.34 13.34 11.34 13.34 C 11.34 13 11.34 13 11.34 13 C 16.67 14.67 16.67 14.67 16.67 14.67 C 16.67 14.67 17 14.67 16.67 14.67 Z M 17.67 10.67 C 17.34 10.67 16.67 10.34 16.34 10.34 M 12.34 9.67 C 12.34 9.67 11 12 10.34 14.67 C 9.67 17.67 9.34 18.67 9.67 20 C 9.67 20.34 10 20.67 10.34 20.67 C 10.34 21 10.67 21 10.67 21 C 10.67 21 11 21 11 21 C 11.34 21.34 11.34 21.34 11.34 21.34 C 11.67 21.34 11.67 21.67 12 21.67 C 12.34 21.67 12.34 21.67 12.34 21.67 C 12.67 21.67 12.67 21.67 13 21.67 C 13 21.67 13.34 21.67 13.34 21.67 C 13.34 21.67 13.67 21.67 13.67 21.67 C 14 22 14.34 21.67 14.67 21.34 C 15.34 20.34 16 19.34 16.67 16.34 C 17.34 13.67 17.67 11 17.67 11 M 11.67 11 C 12.67 11 13.67 11.34 14.67 11.34 C 15.67 11.67 16.67 12 17.67 12.34" fill="none" stroke="var(--icon-secondary, #6c8ebf)" stroke-width="1"/><path d="M 14 20 C 13.67 21 12.67 21.34 12 21 C 11.34 21 10.67 20 11 19.34 C 11.34 18.67 12 18 12.67 18.34 C 13.67 18.34 14 19.34 14 20 Z M 11 17.67 C 11.34 17.67 11.34 17.67 11.67 18 C 11.67 18 11.67 18 11.67 18 C 11.67 18 11.34 18 11.34 18.34 C 11.34 18.34 11.34 18.34 11 18.34 C 11 18 10.34 17.67 10.34 17.67 C 10.34 17.67 10.34 17.67 10.34 17.67 C 10.67 17.67 11 17.67 11 17.67 Z M 10 19.34 C 10.34 19.34 10.34 19.34 10.67 19.34 C 10.67 19.67 10.67 19.67 10.67 19.67 C 10.67 20 10.67 20.34 10.67 20.34 C 11 20.67 11 20.67 10.67 20.67 C 10.67 20.67 10.34 20.67 10.34 20.34 C 10 20.34 10 20.34 10 20.34 C 10 20 10 19.67 10 19.34 C 10 19.34 10 19.34 10 19.34 Z" fill="none" stroke="var(--icon-secondary, #6c8ebf)" stroke-width="1"/><path d="M 14.67 18.67 C 14.34 18.67 14.34 18.67 14 18.67 C 14 18.67 14 18.67 14 18.67 C 14 18.67 14 19 14 19 C 14.34 19 14.34 19 14.34 19 C 14.67 19 15 19 15.34 19 C 15.34 19 15.34 19 15.34 19 C 15 18.67 14.67 18.67 14.67 18.67 Z M 14.67 20.67 C 14.67 20.34 14.34 20.34 14.34 20.34 C 14 20.34 14 20.67 14 20.67 C 13.67 20.67 13.67 21 13.34 21.34 C 13.34 21.34 13.34 21.34 13.34 21.34 C 13.67 21.34 13.67 21.34 14 21.34 C 14 21.34 14 21.34 14.34 21.34 C 14.34 21.34 14.67 21 14.67 20.67 C 14.67 20.67 14.67 20.67 14.67 20.67 Z" fill="none" stroke="var(--icon-secondary, #6c8ebf)" stroke-width="1"/></svg>