<svg xmlns="http://www.w3.org/2000/svg" viewBox="0 0 62 36.66" width="62" height="36.66"><path d="M 51.34 36.66 L 14.67 36.66 L 25 30.33 L 62 30.33 L 51.34 36.66 Z" fill="none" stroke="var(--icon-secondary, #6c8ebf)" stroke-width="1" stroke-linecap="round" stroke-linejoin="round"/><path d="M 25 30.33 L 14.67 36.66 L 14.67 6 L 25 0 L 25 30.33 Z" fill="none" stroke="var(--icon-secondary, #6c8ebf)" stroke-width="1" stroke-linecap="round" stroke-linejoin="round"/><path d="M 0 22.33 L 17.34 22.33 M 17.34 19 L 1.34 19 M 20 25.66 L 4.67 25.66 M 18.34 16.33 L 7 16.33" fill="none" stroke="var(--icon-secondary, #6c8ebf)" stroke-width="1" stroke-linecap="round"/><path d="M 56.34 14 C 56.34 18 48 21.33 37.67 21.33 C 27 21.33 18.67 18 18.67 14 C 18.67 25 18.67 25 18.67 25 C 18.67 29 27 32.33 37.67 32.33 C 48 32.33 56.34 29 56.34 25 Z M 37.67 21.33 C 48 21.33 56.34 18 56.34 14 C 56.34 10 48 6.66 37.67 6.66 C 27 6.66 18.67 10 18.67 14 C 18.67 18 27 21.33 37.67 21.33 Z" fill="var(--icon-primary, #dae8fc)" stroke="var(--icon-secondary, #6c8ebf)" stroke-width="1" stroke-linejoin="round"/><path d="M 33.34 11.33 L 34.67 13.66 L 29 15 L 30.34 14 L 21 12.33 L 23.34 10.66 L 32.34 12 Z M 41.67 17 L 40.34 14.33 L 45.67 13.33 L 45 14.33 L 53.67 15.66 L 51.67 17.33 L 42.67 15.66 Z M 38.67 10 L 44.67 8.33 L 44.67 11 L 43.34 10.66 L 40.34 13 L 37.34 12.66 L 40.34 10.33 Z M 36 19 L 30.34 20 L 30.34 17.66 L 31.67 18 L 35 15.33 L 37.67 15.66 L 34.34 18.66 Z" fill="var(--icon-secondary, #6c8ebf)" stroke="none" stroke-width="0"/><path d="M 62 30.33 L 51.34 36.66 L 51.34 6 L 62 0 L 62 30.33 Z M 51.34 6 L 14.67 6 L 25 0 L 62 0 L 51.34 6 Z" fill="none" stroke="var(--icon-secondary, #6c8ebf)" stroke-width="1" stroke-linecap="round" stroke-linejoin="round"/><path d="M 51.34 36.66 L 14.67 36.66 L 14.67 6 L 51.34 6 L 51.34 36.66 Z" fill="none" stroke="var(--icon-secondary, #6c8ebf)" stroke-width="2" stroke-linecap="round" stroke-linejoin="round"/><path d="M 51.34 36.66 L 14.67 36.66 L 14.67 6 L 51.34 6 L 51.34 36.66 Z" fill="none" stroke="var(--icon-secondary, #6c8ebf)" stroke-width="1" stroke-linecap="round" stroke-linejoin="round"/></svg>