<svg xmlns="http://www.w3.org/2000/svg" viewBox="0 0 56.33 50.33" width="56.33" height="50.33"><path d="M 0 28.66 L 17.33 28.66 M 5.33 33.66 L 17 33.66 M 17.33 21.66 L 7.67 21.66 M 3.33 26 L 17 26 M 44.67 50.33 L 18.67 50.33 L 30 43.33 L 56.33 43.33 L 44.67 50.33 Z M 30 43.33 L 18.67 50.33 L 18.67 6.66 L 30 0.33 Z M 44.33 6.66 L 18.67 6.66 L 30 0.33 L 56.33 0 Z M 44.67 50.33 L 18.67 50.33 L 18.67 6.66 L 44.33 6.66 Z" fill="none" stroke="#0c719f" stroke-width="1" stroke-linecap="round" stroke-linejoin="round"/><path d="M 56.33 43.33 L 44.67 50.33 L 44.33 6.66 L 56.33 0 Z M 56.33 43.33 L 44.67 50.33 L 44.33 6.66 L 56.33 0 Z" fill="none" stroke="#0c719f" stroke-width="1" stroke-linecap="round" stroke-linejoin="round"/><rect x="0" y="0" width="0" height="0" fill="none" stroke="var(--icon-secondary, #6c8ebf)" stroke-width="1"/><path d="M 41.67 25.66 C 42.33 24.33 43.67 18 43.67 17 C 43.67 16 43.33 15 43 14.66 C 43 14.33 43 14.33 43 14.33 C 43 14 42.67 14 42.67 14 C 42.67 14 42.67 14 42.67 14 C 42.67 14 43 12.66 43.33 11.66 C 43.67 9.66 43.67 9 43.67 9 C 43.67 8.66 43.67 8.66 43.33 8.66 C 42.33 8.33 42.33 8.33 42.33 8.33 C 42 8 42 8.33 41.67 8.66 C 41.67 8.66 41.33 9.33 40.67 11.33 C 40.33 12.33 40 13 40 13 C 40 13 40 13 40 13 C 39.33 13 38.67 12.66 38 12.33 C 36.33 12 34.33 11.66 32.67 11.33 C 32.67 11.33 32.67 11.33 32.33 11.66 C 32.33 11.66 32.33 11.66 32.33 11.66 C 32 11.66 31 12.66 30.67 13.33 C 30.33 14 28.33 20.66 28 21.66 C 27.33 23 26.67 26.33 26.33 28 C 26.33 29.66 26 32.66 25 36.33 C 24.33 38.66 23.33 42 22.67 43.33 C 22.67 43.66 21.33 45.66 23 46.33 C 24.67 47 27 47.66 28 48 C 29.33 48.33 31.67 49 33.33 49 C 35 49.33 35 47.33 35 47 C 35.33 45.33 36.33 42 37 39.66 C 38 36 39.33 33.33 39.67 31.66 C 40.33 30 41.33 27 41.67 25.66 Z" fill="var(--icon-primary, #dae8fc)" stroke="var(--icon-secondary, #6c8ebf)" stroke-width="0.4"/><path d="M 40 26 C 40.33 24.66 42 18 42 17 C 42 16.33 41.67 15 41.33 15 C 41.33 14.66 41.33 14.33 41.33 14.33 C 41 14.33 41 14.33 41 14.33 C 41 14.33 41 14.33 41 14.33 C 41 14.33 41.33 12.66 41.33 11.66 C 42 10 42 9.33 42 9.33 C 42 9 42 8.66 41.67 8.66 C 40.67 8.33 40.67 8.33 40.67 8.33 C 40.33 8.33 40 8.33 40 8.66 C 40 8.66 39.67 9.66 39 11.33 C 38.67 12.33 38.33 13.33 38.33 13.33 C 38.33 13.33 38.33 13.33 38.33 13.33 C 37.67 13 37 12.66 36.33 12.66 C 34.33 12 32.67 11.66 31 11.66 C 31 11.66 31 11.66 30.67 12 C 30.67 12 30.67 12 30.67 12 C 30.33 12 29.33 12.66 29 13.66 C 28.33 14.33 26.33 20.66 26 22 C 25.67 23.33 25 26.66 24.67 28.33 C 24.33 30 24 32.66 23 36.66 C 22.33 39 21.33 42.33 21 43.66 C 20.67 44 19.67 45.66 21.33 46.33 C 23 47 25.33 47.66 26.33 48 C 27.67 48.33 30 49 31.67 49.33 C 33.33 49.66 33.33 47.33 33.33 47 C 33.67 45.66 34.67 42 35 40 C 36.33 36 37.33 33.33 38 32 C 38.67 30.33 39.67 27 40 26 Z" fill="var(--icon-primary, #dae8fc)" stroke="var(--icon-secondary, #6c8ebf)" stroke-width="0.4"/><path d="M 27 46.33 C 27 46.33 27 46.33 27 46.33 C 26.67 46.33 26.67 46.33 26.67 46.33 C 26.67 46.33 26.67 46.33 27 46.33 C 27 46.33 27 46.33 27 46.33 Z M 26.67 46.33 C 26.33 47.66 26.33 47.66 26.33 47.66 M 26.67 46.33 C 26.33 47.66 26.33 47.66 26.33 47.66 M 27 46.33 C 26.67 47.66 26.67 47.66 26.67 47.66 M 27 46.33 C 26.67 47.66 26.67 47.66 26.67 47.66 M 29.67 25.66 C 29.33 26.66 29.33 26.66 29.33 26.66 M 29.67 25.66 C 29.33 26.66 29.33 26.66 29.33 26.66 M 35.33 27.33 C 35 28.33 35 28.33 35 28.33 M 35 27.33 C 35 28.33 35 28.33 35 28.33" fill="#000000" stroke="var(--icon-secondary, #6c8ebf)" stroke-width="0.4" stroke-linejoin="round"/><path d="M 27 46.33 C 27 46.33 27 46.33 27 46.33 C 26.67 46.33 26.67 46.33 26.67 46.33 C 26.67 46.33 26.67 46.33 27 46.33 C 27 46.33 27 46.33 27 46.33 Z M 26.67 46.33 C 26.33 47.66 26.33 47.66 26.33 47.66 M 26.67 46.33 C 26.33 47.66 26.33 47.66 26.33 47.66 M 27 46.33 C 26.67 47.66 26.67 47.66 26.67 47.66 M 27 46.33 C 26.67 47.66 26.67 47.66 26.67 47.66 M 29.67 25.66 C 29.33 26.66 29.33 26.66 29.33 26.66 M 29.67 25.66 C 29.33 26.66 29.33 26.66 29.33 26.66 M 35.33 27.33 C 35 28.33 35 28.33 35 28.33 M 35 27.33 C 35 28.33 35 28.33 35 28.33" fill="#000000" stroke="var(--icon-secondary, #6c8ebf)" stroke-width="0.4" stroke-linejoin="round"/><rect x="0" y="0" width="0" height="0" fill="none" stroke="var(--icon-secondary, #6c8ebf)" stroke-width="1"/><path d="M 41 14.33 C 41 14.33 41.33 12.66 41.33 11.66 C 42 10 42 9.33 42 9.33 C 42 9 42 8.66 41.67 8.66 C 40.67 8.33 40.67 8.33 40.67 8.33 C 40.33 8.33 40 8.33 40 8.66 C 40 8.66 39.67 9.66 39 11.33 C 38.67 12.33 38.33 13.33 38.33 13.33 M 41 13.66 C 40.33 13.33 39.33 13 38.33 12.66 M 31 11.66 C 31 11.66 29 16.33 27.67 21 C 26 26.66 25.67 28.66 26 31.33 C 26 31.66 26.67 32.33 27.33 32.66 C 27.33 32.66 27.67 32.66 27.67 32.66 C 28 32.66 28.33 33 28.67 33.33 C 29 33.33 29.33 33.66 29.33 33.66 C 29.67 33.66 29.67 34 30.33 34 C 31 34.33 31 34 31.33 34 C 31.33 34.33 31.67 34 32 34 C 32.67 34 33 34.33 33 34.33 C 33.33 34.33 33.33 34.33 33.67 34.33 C 34.33 34.66 35 34.33 35.33 33.66 C 37 31.66 37.67 30 39.33 24.33 C 40.67 19.33 41 14.33 41 14.33 M 29.67 14 C 31.67 14.33 33.67 14.66 35.67 15 C 37.33 15.66 39.33 16.33 41 17" fill="none" stroke="var(--icon-secondary, #6c8ebf)" stroke-width="0.4"/><path d="M 34 30.33 C 33.67 32 32.33 32.66 30.67 32.33 C 29.33 32 28.33 30.33 28.67 29 C 29.33 27.66 30.67 26.66 32.33 27 C 33.67 27.33 34.67 29 34 30.33 Z" fill="none" stroke="var(--icon-secondary, #6c8ebf)" stroke-width="0.4"/><path d="M 35 16 L 36 12.66" fill="none" stroke="var(--icon-secondary, #6c8ebf)" stroke-width="0.4" stroke-linejoin="round"/><path d="M 35.33 16 L 36.33 12.66" fill="none" stroke="var(--icon-secondary, #6c8ebf)" stroke-width="0.4" stroke-linejoin="round"/><path d="M 38 26.33 C 38 26.66 38 26.66 37.67 26.66 C 28 24 28 24 28 24 C 27.67 24 27.67 23.66 27.67 23.33 C 29.33 17.33 29.33 17.33 29.33 17.33 C 29.33 17 29.67 17 30 17 C 39.67 19.66 39.67 19.66 39.67 19.66 C 39.67 19.66 40 20 40 20.33 Z" fill="#000000" stroke="var(--icon-secondary, #6c8ebf)" stroke-width="0.4" stroke-linejoin="round"/><path d="M 27.33 35 C 27 35.33 26.67 35.66 26 35.66 C 25.33 35.33 25 35 25.33 34.33 C 25.33 33.66 26 33.33 26.67 33.66 C 27 33.66 27.33 34.33 27.33 35 Z M 25.33 41.33 C 25.33 42 24.67 42.33 24 42 C 23.67 42 23.33 41.33 23.33 40.66 C 23.33 40.33 24 40 24.67 40 C 25.33 40.33 25.67 40.66 25.33 41.33 Z M 34.33 37 C 34.33 37.33 33.67 37.66 33 37.66 C 32.33 37.33 32 37 32.33 36.33 C 32.33 35.66 33 35.33 33.67 35.66 C 34.33 35.66 34.67 36.33 34.33 37 Z M 32.33 43.33 C 32.33 44 31.67 44.33 31 44 C 30.67 44 30.33 43.33 30.33 43 C 30.67 42.33 31 42 31.67 42 C 32.33 42.33 32.67 43 32.33 43.33 Z M 30.67 36.66 C 30.33 37.33 30 37.66 29.33 37.33 C 28.67 37.33 28.33 36.66 28.67 36 C 28.67 35.66 29.33 35.33 30 35.33 C 30.33 35.66 30.67 36 30.67 36.66 Z M 26.33 38 C 26.33 38.66 25.67 39 25 39 C 24.33 38.66 24 38 24.33 37.66 C 24.33 37 25 36.66 25.67 37 C 26.33 37 26.67 37.66 26.33 38 Z M 33.33 40.33 C 33.33 40.66 32.67 41 32 41 C 31.67 40.66 31.33 40.33 31.33 39.66 C 31.67 39 32 38.66 32.67 39 C 33.33 39 33.67 39.66 33.33 40.33 Z M 29.67 40 C 29.67 40.66 29 40.66 28.33 40.66 C 27.67 40.66 27.33 40 27.67 39.33 C 27.67 38.66 28.33 38.33 29 38.66 C 29.67 38.66 30 39.33 29.67 40 Z M 28.67 43.33 C 28.67 43.66 28 44 27.33 44 C 27 43.66 26.67 43.33 26.67 42.66 C 26.67 42 27.33 41.66 28 42 C 28.67 42 29 42.66 28.67 43.33 Z" fill="#ffffff" stroke="none" stroke-width="0"/></svg>