<svg xmlns="http://www.w3.org/2000/svg" viewBox="0 0 48 17.34" width="48" height="17.34"><path d="M 0 17.34 L 0 7.34 L 39.67 7.34 L 39.67 17.34 L 0 17.34 Z M 39.67 17.34 L 39.67 7.34 L 0 7.34 L 10 0 L 45.33 0 L 48 0 L 48 8.34 L 39.67 17.34 Z M 39.67 7.34 L 47.67 0" fill="var(--icon-primary, #dae8fc)" stroke="var(--icon-secondary, #6c8ebf)" stroke-width="1" stroke-linejoin="round"/><rect x="0" y="0" width="0" height="0" fill="none" stroke="var(--icon-secondary, #6c8ebf)" stroke-width="1"/><path d="M 7 14 C 7.67 14 8.33 13.34 8.33 12.67 C 8.33 12 7.67 11.34 7 11.34 C 6.33 11.34 5.67 12 5.67 12.67 C 5.67 13.34 6.33 14 7 14 Z M 13.33 14 C 14 14 14.67 13.34 14.67 12.67 C 14.67 12 14 11.34 13.33 11.34 C 12.67 11.34 12 12 12 12.67 C 12 13.34 12.67 14 13.33 14 Z M 19.67 14 C 20.33 14 21 13.34 21 12.67 C 21 12 20.33 11.34 19.67 11.34 C 19 11.34 18.33 12 18.33 12.67 C 18.33 13.34 19 14 19.67 14 Z M 26 14 C 26.67 14 27.33 13.34 27.33 12.67 C 27.33 12 26.67 11.34 26 11.34 C 25.33 11.34 24.67 12 24.67 12.67 C 24.67 13.34 25.33 14 26 14 Z M 32.33 14 C 33 14 33.67 13.34 33.67 12.67 C 33.67 12 33 11.34 32.33 11.34 C 31.67 11.34 31 12 31 12.67 C 31 13.34 31.67 14 32.33 14 Z" fill="var(--icon-secondary, #6c8ebf)" stroke="none" stroke-width="0"/></svg>