<svg xmlns="http://www.w3.org/2000/svg" viewBox="0 0 27.33 39.33" width="27.33" height="39.33"><path d="M 20.66 6.66 L 0 6.66 L 0 39.33 L 20.66 39.33 M 27.33 0 L 6.66 0 L 0 6.66 L 20.66 6.66 L 27.33 0 Z M 20.66 6.66 L 20.66 39.33 L 27.33 32.66 L 27.33 0 L 20.66 6.66 Z M 20.66 6.66 L 27.33 0" fill="var(--icon-primary, #dae8fc)" stroke="var(--icon-secondary, #6c8ebf)" stroke-width="1"/><rect x="0" y="0" width="0" height="0" fill="none" stroke="var(--icon-secondary, #6c8ebf)" stroke-width="1"/><path d="M 20.66 6.66 L 27.33 0 M 0.33 19.33 L 20.33 19.33 M 0.33 34.33 L 20.33 34.33 M 5 11.66 L 11 11.66 M 13 13.66 L 13 9.66 L 2.66 9.66 L 2.66 13.66 L 13 13.66 Z" fill="none" stroke="var(--icon-secondary, #6c8ebf)" stroke-width="1"/><path d="M 7 33.66 L 6.66 18.33 L 17.66 14.33 L 17.66 31.33 L 17 31.33 L 16.33 21.66 L 7.66 24.66 L 7.66 33.33 L 7 33.66 Z M 17.66 31.66 C 17.66 32.66 16.66 33.66 15 34 C 13.33 34 12 33 11.66 32 C 11.66 31 13 30 14.66 30 C 16.33 30 17.66 30.66 17.66 31.66 Z M 7.66 34 C 7.66 35 6.33 36 4.66 36 C 3 36.33 1.66 35.33 1.66 34.33 C 1.33 33.33 2.66 32.33 4.33 32.33 C 6 32.33 7.33 33 7.66 34 Z" fill="var(--icon-secondary, #6c8ebf)" stroke="none" stroke-width="0"/><path d="M 16.33 20 L 7.66 23 L 7.66 21.33 L 16.33 18.33 Z" fill="var(--icon-secondary, #6c8ebf)" stroke="none" stroke-width="0"/></svg>