<svg xmlns="http://www.w3.org/2000/svg" viewBox="0 0 61.67 34.33" width="61.67" height="34.33"><path d="M 0 15 L 18.67 0 L 61.67 0 L 46.34 15 Z M 46.34 34.33 L 61.67 18.33 L 61.67 0 L 46.34 15 Z M 46.34 34.33 L 46.34 15 L 0 15 L 0 34.33 Z" fill="var(--icon-primary, #dae8fc)" stroke="var(--icon-secondary, #6c8ebf)" stroke-width="1" stroke-linejoin="round"/><path d="M 28.34 12.33 C 31 10 34.67 9 34.67 9 C 38.67 7.67 40.34 5.67 40.34 5.67 C 44.34 1.33 36.67 1.33 36.67 1.33 C 36.67 1.33 28.67 1.33 24.67 5.33 C 24.67 5.33 22.67 7.33 24 9 C 24 9 25.34 10 23.67 12.33" fill="none" stroke="var(--icon-secondary, #6c8ebf)" stroke-width="1" stroke-linejoin="round"/><path d="M 28.34 12.33 C 28.34 12.33 28 12.67 27.67 12.67 C 23.67 12.33 23.67 12.33 23.67 12.33 C 23.34 12.33 23.34 12.33 23.67 12.33 C 23.67 12.33 23.67 12.33 23.67 12.33 C 23.67 12 24 12 24 12 C 28 12 28 12 28 12 C 28.34 12 28.34 12.33 28.34 12.33 Z" fill="none" stroke="var(--icon-secondary, #6c8ebf)" stroke-width="1" stroke-linejoin="round"/><path d="M 27.67 13 C 27.67 13 27.34 13 27.34 13 C 23.34 13 23.34 13 23.34 13 C 23 13 23 13 23 12.67 C 23 12.67 23 12.67 23 12.67 C 23 12.67 23.34 12.67 23.67 12.67 C 27.67 12.67 27.67 12.67 27.67 12.67 C 27.67 12.67 28 12.67 27.67 13 Z" fill="none" stroke="var(--icon-secondary, #6c8ebf)" stroke-width="1" stroke-linejoin="round"/><path d="M 27.34 13.33 C 27 13.67 27 13.67 26.67 13.67 C 22.67 13.67 22.67 13.67 22.67 13.67 C 22.34 13.67 22.34 13.33 22.67 13.33 C 22.67 13.33 22.67 13.33 22.67 13.33 C 22.67 13.33 23 13 23 13 C 27 13.33 27 13.33 27 13.33 C 27.34 13.33 27.34 13.33 27.34 13.33 Z" fill="none" stroke="var(--icon-secondary, #6c8ebf)" stroke-width="1" stroke-linejoin="round"/><path d="M 39.67 10 L 41.34 14 L 35.67 11.67 Z" fill="var(--icon-secondary, #6c8ebf)" stroke="none" stroke-width="0"/><path d="M 39 11.67 L 36.34 10 M 24.67 3.67 L 21.67 2.33 M 18 11 L 21.67 10 M 46.67 3.33 L 43 4 M 13 6.67 L 17 6.67 M 45 8 L 49 8" fill="none" stroke="var(--icon-secondary, #6c8ebf)" stroke-width="1" stroke-linecap="round" stroke-linejoin="round"/><path d="M 25 2 L 19 1 L 21 4 Z M 21 11.67 L 12.34 12.33 L 18 9.33 Z M 44.34 2 L 51.34 2.67 L 45 4.67 Z M 15.34 8 L 22.34 6.33 L 17.34 5.33 Z M 46.67 6.33 L 40.34 7.67 L 46.34 9.67 Z" fill="var(--icon-secondary, #6c8ebf)" stroke="none" stroke-width="0"/><path d="M 23.34 14 C 24.34 14.67 25.67 14 25.67 14" fill="none" stroke="var(--icon-secondary, #6c8ebf)" stroke-width="1" stroke-linecap="round" stroke-linejoin="round"/></svg>