<svg xmlns="http://www.w3.org/2000/svg" viewBox="0 0 35 47.67" width="35" height="47.67"><path d="M 29 47.67 L 29 35.33 L 0 35.33 L 0 47.67 Z M 17.67 35.33 L 17.67 47.67 M 29 35.33 L 29 6 L 0 6 L 0 35.33 Z M 35 0 L 35 41.33 L 29 47.67 L 29 6 Z M 29 6 L 0 6 L 7.33 0 L 35 0 Z" fill="var(--icon-primary, #dae8fc)" stroke="var(--icon-secondary, #6c8ebf)" stroke-width="1" stroke-linejoin="round"/><path d="M 29 35.67 L 29 35.67 M 0 35.67 L 0 35.67 M 4 13.33 L 27.33 13.33 M 3 20.67 L 26.33 20.67 M 2 27.33 L 25.33 27.33 M 5.33 31.33 L 10 9.33 M 20 31.33 L 25 9.33 M 12.67 31 L 17.33 9" fill="none" stroke="var(--icon-secondary, #6c8ebf)" stroke-width="1" stroke-linejoin="round"/><path d="M 11 13.33 C 11 14 10 14.67 9 14.67 C 8 14.67 7.33 14 7.33 13.33 C 7.33 12.67 8 12.33 9 12.33 C 10 12.33 11 12.67 11 13.33 Z M 18.33 13 C 18.33 13.67 17.67 14.33 16.67 14.33 C 15.67 14.33 14.67 13.67 14.67 13 C 14.67 12.33 15.67 12 16.67 12 C 17.67 12 18.33 12.33 18.33 13 Z M 26 13.67 C 26 14.33 25 14.67 24 14.67 C 23 14.67 22.33 14.33 22.33 13.67 C 22.33 13 23 12.33 24 12.33 C 25 12.33 26 13 26 13.67 Z M 9 20.67 C 9 21.33 8.33 21.67 7.33 21.67 C 6.33 21.67 5.67 21.33 5.67 20.67 C 5.67 20 6.33 19.33 7.33 19.33 C 8.33 19.33 9 20 9 20.67 Z M 16.67 20.67 C 16.67 21.33 16 22 15 22 C 14 22 13 21.33 13 20.67 C 13 20 14 19.67 15 19.67 C 16 19.67 16.67 20 16.67 20.67 Z M 24.33 20.33 C 24.33 21 23.33 21.67 22.33 21.67 C 21.33 21.67 20.67 21 20.67 20.33 C 20.67 19.67 21.33 19.33 22.33 19.33 C 23.33 19.33 24.33 19.67 24.33 20.33 Z M 7.67 27.33 C 7.67 28 6.67 28.67 5.67 28.67 C 4.67 28.67 4 28 4 27.33 C 4 26.67 4.67 26.33 5.67 26.33 C 6.67 26.33 7.67 26.67 7.67 27.33 Z M 15.33 27.33 C 15.33 28 14.33 28.67 13.33 28.67 C 12.33 28.67 11.67 28 11.67 27.33 C 11.67 26.67 12.33 26.33 13.33 26.33 C 14.33 26.33 15.33 26.67 15.33 27.33 Z M 22.67 27.33 C 22.67 28 22 28.67 21 28.67 C 20 28.67 19 28 19 27.33 C 19 26.67 20 26.33 21 26.33 C 22 26.33 22.67 26.67 22.67 27.33 Z" fill="var(--icon-secondary, #6c8ebf)" stroke="none" stroke-width="0"/><path d="M 27 38.33 C 27 39 25.33 39.67 23.33 39.67 C 21.67 39.67 20 39 20 38.33 C 20 45 20 45 20 45 C 20 45.67 21.67 46 23.33 46 C 25.33 46 27 45.67 27 45 Z M 23.33 39.67 C 25.33 39.67 27 39 27 38.33 C 27 37.67 25.33 37 23.33 37 C 21.67 37 20 37.67 20 38.33 C 20 39 21.67 39.67 23.33 39.67 Z" fill="none" stroke="var(--icon-secondary, #6c8ebf)" stroke-width="1" stroke-linejoin="round"/><path d="M 4 44.67 L 11 44.67 L 11 46.33 L 14 44.33 L 11 42 L 11 43.67 L 4 43.67 Z" fill="var(--icon-secondary, #6c8ebf)" stroke="none" stroke-width="0"/><path d="M 13.67 38.67 L 6.67 38.67 L 6.67 37.33 L 3.67 39.33 L 6.67 41.67 L 6.67 40 L 13.67 40 Z" fill="var(--icon-secondary, #6c8ebf)" stroke="none" stroke-width="0"/></svg>