<svg xmlns="http://www.w3.org/2000/svg" viewBox="0 0 63.66 40.67" width="63.66" height="40.67"><path d="M 0 15.34 L 19 0 L 63.66 0 L 47.66 15.34 Z" fill="var(--icon-primary, #dae8fc)" stroke="var(--icon-secondary, #6c8ebf)" stroke-width="1" stroke-linejoin="round"/><rect x="0" y="0" width="0" height="0" fill="none" stroke="var(--icon-secondary, #6c8ebf)" stroke-width="1"/><path d="M 35.33 5.34 L 35 5.67 L 21.66 5.67 L 20.66 7 L 17 5.67 L 24 3.34 L 22.33 5.34 Z" fill="var(--icon-secondary, #6c8ebf)" stroke="none" stroke-width="0"/><path d="M 47.66 40.67 L 63.66 24.67 L 63.66 0 L 47.66 15.34 Z" fill="var(--icon-primary, #dae8fc)" stroke="var(--icon-secondary, #6c8ebf)" stroke-width="1" stroke-linejoin="round"/><path d="M 50.33 3 L 51.66 1.67 L 55.33 3 L 48 5.34 L 50 3.34 L 36.66 3.34 L 37.33 3 Z M 28.33 12.67 L 28 13 L 14.66 13 L 13.66 14.34 L 10 13 L 17 10.67 L 15.33 12.67 Z M 43.33 10.34 L 44.66 9 L 48.33 10.34 L 41 12.67 L 43 10.67 L 29.66 10.67 L 30.33 10.34 Z" fill="var(--icon-secondary, #6c8ebf)" stroke="none" stroke-width="0"/><path d="M 47.66 40.67 L 47.66 15.34 L 0 15.34 L 0 40.67 Z" fill="var(--icon-primary, #dae8fc)" stroke="var(--icon-secondary, #6c8ebf)" stroke-width="0.67" stroke-linejoin="round"/><path d="M 14.66 26.34 L 14.66 22.67 L 7.66 22.67 L 7.66 26.34 Z M 31.33 26.34 L 31.33 22.67 L 38.33 22.67 L 38.33 26.34 Z M 14.66 35.67 L 14.66 32 L 7.66 32 L 7.66 35.67 Z M 31.33 35.67 L 31.33 32 L 38.33 32 L 38.33 35.67 Z" fill="var(--icon-secondary, #6c8ebf)" stroke="none" stroke-width="0"/><path d="M 12.33 24.34 L 34.66 24.34 M 12.33 33.67 L 34.66 33.67 M 11.33 33.67 L 34.66 24.34 M 11.33 24.34 L 34.66 33.67" fill="none" stroke="var(--icon-secondary, #6c8ebf)" stroke-width="0.67" stroke-linejoin="round"/><path d="M 55.33 18.67 L 57 10 L 58.66 8 L 58.66 6 L 61.66 6 L 59 11.67 L 59 9 L 57.66 10.67 L 56.33 19 L 55.66 21 L 53.66 30.67 L 52 32.67 L 52 34.67 L 49 35.34 L 51.66 29 L 51.66 31.34 L 52.66 30 L 55 20.67 Z M 51.33 17 L 51.33 17 L 52.66 16 L 54.66 20 L 55.66 21.34 L 57.66 25.34 L 59.66 24 L 59.66 26.34 L 62.33 21 L 59.66 21.34 L 59.66 23 L 58 24.34 L 55.66 20 L 55 18.67 L 52.66 14.67 L 51.33 16 L 51.33 13.34 L 48.66 19.34 L 51.33 18.67 Z" fill="var(--icon-secondary, #6c8ebf)" stroke="none" stroke-width="0"/></svg>