<svg xmlns="http://www.w3.org/2000/svg" viewBox="0 0 44.33 33.33" width="44.33" height="33.33"><path d="M 6.33 33.33 L 6.33 6.33 L 0 6.33 L 0 33.33 Z M 12.67 33.33 L 12.67 6.33 L 6.33 6.33 L 6.33 33.33 Z M 19 33.33 L 19 6.33 L 12.67 6.33 L 12.67 33.33 Z M 25 33.33 L 25 6.33 L 19 6.33 L 19 33.33 Z M 31.33 33.33 L 31.33 6.33 L 25 6.33 L 25 33.33 Z M 37.67 33.33 L 37.67 6.33 L 31.33 6.33 L 31.33 33.33 Z M 37.67 33.33 L 44.33 26.66 L 44.33 0 L 6.33 0 L 0 6.33 L 37.67 6.33 Z" fill="var(--icon-primary, #dae8fc)" stroke="var(--icon-secondary, #6c8ebf)" stroke-width="1" stroke-linejoin="round"/><path d="M 37.67 6.33 L 44.33 0 M 37.67 19.66 L 0 19.66 M 1 22 L 5 22 M 1 23.33 L 5 23.33 M 1 25 L 5 25 M 1 26.66 L 5 26.66 M 1 28.33 L 5 28.33 M 7.33 22 L 11.33 22 M 7.33 23.33 L 11.33 23.33 M 7.33 25 L 11.33 25 M 7.33 26.66 L 11.33 26.66 M 7.33 28.33 L 11.33 28.33" fill="none" stroke="var(--icon-secondary, #6c8ebf)" stroke-width="1" stroke-linejoin="round"/></svg>