<svg xmlns="http://www.w3.org/2000/svg" viewBox="0 0 37 38.67" width="37" height="38.67"><path d="M 33.33 38.67 L 0 38.67 L 0 3.67 L 33.33 3.67 Z M 37 35 L 33.33 38.67 L 33.33 3.67 L 37 0 Z M 37 0 L 3.66 0 L 0 3.67 L 33.33 3.67 Z" fill="var(--icon-primary, #dae8fc)" stroke="var(--icon-secondary, #6c8ebf)" stroke-width="1" stroke-linejoin="round"/><path d="M 8.66 6.33 L 2.66 12.33 L 25.66 34.33 L 31.66 28 L 8.66 6.33 Z" fill="var(--icon-primary, #dae8fc)" stroke="none" stroke-width="0"/><rect x="0" y="0" width="0" height="0" fill="none" stroke="var(--icon-secondary, #6c8ebf)" stroke-width="1"/><path d="M 31.66 28 L 9 6.67 L 8.66 6.33 L 7.66 7.33 L 3.66 11.33 L 2.66 12.33 L 25.66 34.33 Z M 8.33 7.33 L 8.66 7 L 9.33 7.33 L 8.66 7.67 Z M 9.33 8.33 L 9.66 7.67 L 10 8.33 L 9.66 8.67 Z M 10 9.33 L 10.66 8.67 L 11 9 L 10.66 9.67 Z M 11 10 L 11.66 9.67 L 12 10 L 11.66 10.67 Z M 12 11 L 12.33 10.33 L 13 11 L 12.66 11.33 Z M 13 12 L 13.33 11.33 L 14 11.67 L 13.33 12.33 Z M 14 12.67 L 14.33 12.33 L 15 12.67 L 14.33 13.33 Z M 15 13.67 L 15.33 13.33 L 15.66 13.67 L 15.33 14 Z M 15.66 14.67 L 16.33 14 L 16.66 14.67 L 16.33 15 Z M 16.66 15.33 L 17.33 15 L 17.66 15.33 L 17.33 16 Z M 17.66 16.33 L 18 16 L 18.66 16.33 L 18.33 16.67 Z M 18.66 17.33 L 19 16.67 L 19.66 17.33 L 19 17.67 Z M 19.66 18 L 20 17.67 L 20.66 18 L 20 18.67 Z M 20.66 19 L 21 18.67 L 21.33 19 L 21 19.33 Z M 21.33 20 L 22 19.33 L 22.33 20 L 22 20.33 Z M 22.33 20.67 L 23 20.33 L 23.33 20.67 L 23 21.33 Z M 23.33 21.67 L 23.66 21.33 L 24.33 21.67 L 23.66 22 Z M 24.33 22.67 L 24.66 22 L 25.33 22.67 L 24.66 23 Z M 25.33 23.33 L 25.66 23 L 26 23.33 L 25.66 24 Z M 26.33 24.33 L 26.66 24 L 27 24.33 L 26.66 25 Z M 27 25.33 L 27.66 24.67 L 28 25.33 L 27.66 25.67 Z M 28 26.33 L 28.66 25.67 L 29 26 L 28.66 26.67 Z M 29 27 L 29.33 26.67 L 30 27 L 29.33 27.67 Z M 30 28 L 30.33 27.67 L 31 28 L 30.33 28.33 Z M 4 11.67 L 8 7.67 L 13.33 12.67 L 9.33 16.67 Z M 9.66 17 L 13.66 13 L 19 18 L 15 22 Z M 15.33 22.67 L 19.33 18.33 L 24.66 23.33 L 20.66 27.33 Z M 21 28 L 25 23.67 L 30 28.67 L 26.33 32.67 Z M 3.33 12.67 L 3.66 12 L 4.33 12.33 L 4 13 Z M 4.33 13.33 L 4.66 13 L 5.33 13.33 L 4.66 14 Z M 5.33 14.33 L 5.66 14 L 6.33 14.33 L 5.66 14.67 Z M 6.33 15.33 L 6.66 14.67 L 7 15.33 L 6.66 15.67 Z M 7 16 L 7.66 15.67 L 8 16 L 7.66 16.67 Z M 8 17 L 8.66 16.67 L 9 17 L 8.66 17.33 Z M 9 18 L 9.33 17.33 L 10 18 L 9.66 18.33 Z M 10 18.67 L 10.33 18.33 L 11 18.67 L 10.33 19.33 Z M 11 19.67 L 11.33 19.33 L 12 19.67 L 11.33 20 Z M 12 20.67 L 12.33 20 L 12.66 20.67 L 12.33 21 Z M 12.66 21.33 L 13.33 21 L 13.66 21.33 L 13.33 22 Z M 13.66 22.33 L 14.33 22 L 14.66 22.33 L 14.33 22.67 Z M 14.66 23.33 L 15 22.67 L 15.66 23.33 L 15.33 23.67 Z M 15.66 24 L 16 23.67 L 16.66 24 L 16 24.67 Z M 16.66 25 L 17 24.67 L 17.66 25 L 17 25.67 Z M 17.66 26 L 18 25.33 L 18.33 26 L 18 26.33 Z M 18.33 27 L 19 26.33 L 19.33 26.67 L 19 27.33 Z M 19.33 27.67 L 20 27.33 L 20.33 27.67 L 20 28.33 Z M 20.33 28.67 L 20.66 28 L 21.33 28.67 L 21 29 Z M 21.33 29.67 L 21.66 29 L 22.33 29.67 L 21.66 30 Z M 22.33 30.33 L 22.66 30 L 23.33 30.33 L 22.66 31 Z M 23.33 31.33 L 23.66 31 L 24 31.33 L 23.66 31.67 Z M 24 32.33 L 24.66 31.67 L 25 32.33 L 24.66 32.67 Z M 25 33 L 25.66 32.67 L 26 33 L 25.66 33.67 Z" fill="var(--icon-secondary, #6c8ebf)" stroke="none" stroke-width="0"/></svg>