<svg xmlns="http://www.w3.org/2000/svg" viewBox="0 0 54.67 41.67" width="54.67" height="41.67"><path d="M 50 41.67 L 14.33 41.67 L 14.33 5 L 50 5 Z M 19 0 L 54.33 0 L 50 5 L 14.33 5 Z M 54.67 35 L 50 41.67 L 50 4.67 L 54.67 0 Z M 14.33 41.67 L 0 41.67 L 0 5 L 14.33 5 Z M 5 0 L 19.33 0 L 14.67 5 L 0 5 Z" fill="var(--icon-primary, #dae8fc)" stroke="var(--icon-secondary, #6c8ebf)" stroke-width="1" stroke-linejoin="round"/><rect x="0" y="0" width="0" height="0" fill="none" stroke="var(--icon-secondary, #6c8ebf)" stroke-width="1"/><path d="M 6.67 14.67 C 6.67 15 6.67 15 6.67 15 C 5.67 16.34 5 17 4.33 17 C 3.67 17 3 16.67 2.33 15.34 C 2.67 15.34 2.67 15.34 2.67 15.34 C 3.33 15.34 4.33 15 5.33 13.67 C 5.33 13.34 5.33 13.34 5.33 13.34 C 5 13 5 13 5 13 C 4.33 12.34 3.67 11.34 3.67 10.67 C 3.67 10.34 4.33 9.67 5.33 9 C 5.33 10 5.67 10.67 6.33 11.67 C 6.67 12 6.67 12 6.67 12 C 7 11.67 7 11.67 7 11.67 C 8 10.34 8.67 9.67 9.33 9.67 C 10 9.67 10.67 10.34 11 11.34 C 10.67 11.34 10.67 11.34 10.67 11.34 C 10.33 11.34 10 11.34 9.67 11.67 C 9 12 8.67 12.67 8.33 13 C 8 13.34 8 13.34 8 13.34 C 8.33 13.67 8.33 13.67 8.33 13.67 C 9.33 14.34 10 15 11 15 C 10.67 16 10 16.67 9.33 16.67 C 9 16.67 8 16 7 15.34 Z" fill="var(--icon-secondary, #6c8ebf)" stroke="none" stroke-width="0"/><path d="M 11 28.34 C 10 29.34 9 30.34 8 32 C 7 33.34 6.33 34.67 5.67 35.67 C 5 36.34 5 36.34 5 36.34 C 4.67 36.67 4 37 4 37 C 4 36.67 3.67 36.34 3.33 35.67 C 3.33 35 3.33 35 3.33 35 C 3 34.34 2.67 33.67 2.33 33.34 C 2 33 1.67 32.67 1.33 32.67 C 2 32 2.33 31.67 3 31.67 C 3.33 31.67 4 32.34 4.33 33.34 C 4.67 34 4.67 34 4.67 34 C 5.67 32.34 7.33 30.34 9.33 28.34 C 10 27.67 10 27.67 10 27.67 C 11.67 26.34 11.67 26.34 11.67 26.34 C 12 26 12.33 26 13 25.67 C 13 26 13 26 13 26 C 13 26.34 12.67 26.67 12 27 Z" fill="var(--icon-secondary, #6c8ebf)" stroke="none" stroke-width="0"/><path d="M 14.33 22 L 0 22" fill="none" stroke="var(--icon-secondary, #6c8ebf)" stroke-width="0.67"/><path d="M 50 30.67 L 14.33 30.67 M 50 35.67 L 14.33 35.67 M 54 29.67 L 50.33 35.67 M 25 35.67 L 25 41.34 M 38.67 35.67 L 38.67 41.34 M 32 31 L 32 35.34 M 18.33 31 L 18.33 35.34 M 45.67 31 L 45.67 35.34 M 50 30.67 L 54.33 24.34 M 52 33.34 L 52 38.67 M 53 26.67 L 53 31" fill="none" stroke="var(--icon-secondary, #6c8ebf)" stroke-width="0.67" stroke-linecap="round" stroke-linejoin="round"/><path d="M 24.33 29 C 25 29 25.67 28.67 25.67 28 C 25.67 27.34 25 26.67 24.33 26.67 C 23.67 26.67 23.33 27.34 23.33 28 C 23.33 28.67 23.67 29 24.33 29 Z" fill="var(--icon-secondary, #6c8ebf)" stroke="var(--icon-secondary, #6c8ebf)" stroke-width="0.67" stroke-linecap="round" stroke-linejoin="round"/><path d="M 23.33 26.67 L 25.67 29 L 32 22.34 L 29.67 20.34 Z" fill="var(--icon-secondary, #6c8ebf)" stroke="var(--icon-secondary, #6c8ebf)" stroke-width="0.67" stroke-linecap="round" stroke-linejoin="round"/><path d="M 29 15.34 C 29 20.34 32.67 24 37.67 24 C 42.33 24 46 20.34 46 15.34 C 46 10.67 42.33 6.67 37.67 6.67 C 32.67 6.67 29 10.67 29 15.34 Z M 30 15.34 C 30 11.34 33.33 8 37.67 8 C 41.67 8 45 11.34 45 15.34 C 45 19.67 41.67 22.67 37.67 22.67 C 33.33 22.67 30 19.67 30 15.34 Z" fill="var(--icon-secondary, #6c8ebf)" stroke="var(--icon-secondary, #6c8ebf)" stroke-width="0.67" stroke-linecap="round" stroke-linejoin="round"/><path d="M 28 16 C 28 20.67 31.67 24.67 36.33 24.67 C 41.33 24.67 45 20.67 45 16 C 45 11.34 41.33 7.34 36.33 7.34 C 31.67 7.34 28 11.34 28 16 Z M 29 16 C 29 12 32.33 8.67 36.33 8.67 C 40.67 8.67 44 12 44 16 C 44 20 40.67 23.34 36.33 23.34 C 32.33 23.34 29 20 29 16 Z" fill="var(--icon-secondary, #6c8ebf)" stroke="var(--icon-secondary, #6c8ebf)" stroke-width="0.67" stroke-linecap="round" stroke-linejoin="round"/></svg>