<svg xmlns="http://www.w3.org/2000/svg" viewBox="0 0 56.67 40.34" width="56.67" height="40.34"><path d="M 0 40.34 L 50.67 40.34 L 50.67 7 L 0 7 Z M 56.67 31.67 L 50.67 40.34 L 50.67 7 L 56.67 0 Z M 8.67 0 L 56.67 0 L 50.67 7 L 0 7 Z" fill="var(--icon-primary, #dae8fc)" stroke="var(--icon-secondary, #6c8ebf)" stroke-width="1" stroke-linejoin="round"/><rect x="0" y="0" width="0" height="0" fill="none" stroke="var(--icon-secondary, #6c8ebf)" stroke-width="1"/><path d="M 8.67 16.67 L 8.67 18.67 L 3.67 16 L 8.67 13 L 8.67 15.34 L 8.67 15 L 17.34 15 L 17.34 13 L 22.34 15.67 L 17.34 18.67 L 17.34 16.34 L 8.67 16.34 L 8.67 16.67 Z M 8.67 32 L 8.67 34.34 L 3.67 31.34 L 8.67 28.67 L 8.67 30.67 L 8.67 30.67 L 17.34 30.67 L 17.34 28.34 L 22.34 31.34 L 17.34 34 L 17.34 32 L 8.67 32 L 8.67 32 Z M 8.67 24.34 L 8.67 26.67 L 3.67 23.67 L 8.67 21 L 8.67 23 L 8.67 23 L 14.67 23 L 14.67 21 L 19.67 23.67 L 14.67 26.67 L 14.67 24.34 L 8.67 24.34 L 8.67 24.34 Z" fill="var(--icon-secondary, #6c8ebf)" stroke="none" stroke-width="0"/><path d="M 47.34 30 C 46.34 30 45.67 27.34 46 24.34 C 46 21.34 46.67 19 47.34 19 C 41 19 41 19 41 19 C 40.34 19 39.67 21.34 39.67 24.34 C 39.67 27.34 40 29.67 41 29.67 Z" fill="var(--icon-secondary, #6c8ebf)" stroke="none" stroke-width="0"/><rect x="0" y="0" width="0" height="0" fill="none" stroke="var(--icon-secondary, #6c8ebf)" stroke-width="1"/><path d="M 46 24.34 C 45.67 27.34 46.34 29.67 47.34 29.67 C 48.34 29.67 49 27.34 49 24.34 C 49 21.67 48.34 19.34 47.34 19.34 C 46.67 19.34 46 21.67 46 24.34 Z" fill="var(--icon-primary, #dae8fc)" stroke="var(--icon-secondary, #6c8ebf)" stroke-width="0.67"/><path d="M 42.34 24 C 42.34 30 37.67 34.67 31.67 34.67 C 25.67 34.67 21 29.67 21 24 C 21 18 26 13.34 32 13.34 C 37.67 13.34 42.67 18 42.34 24 Z" fill="var(--icon-secondary, #6c8ebf)" stroke="none" stroke-width="0"/><path d="M 37 24.34 C 37 27 34.67 29.34 31.67 29.34 C 29 29.34 26.67 27 26.67 24 C 26.67 21.34 29 19 32 19 C 34.67 19 37 21.34 37 24.34 Z" fill="var(--icon-primary, #dae8fc)" stroke="none" stroke-width="0"/></svg>