<svg xmlns="http://www.w3.org/2000/svg" viewBox="0 0 49.33 33.33" width="49.33" height="33.33"><path d="M 49.33 9.67 C 49.33 15 38.33 19.33 24.66 19.33 C 11 19.33 0 15 0 9.67 C 0 23.67 0 23.67 0 23.67 C 0 29 11 33.33 24.66 33.33 C 38.33 33.33 49.33 29 49.33 23.67 Z M 24.66 19.33 C 38.33 19.33 49.33 15 49.33 9.67 C 49.33 4.33 38.33 0 24.66 0 C 11 0 0 4.33 0 9.67 C 0 15 11 19.33 24.66 19.33 Z" fill="var(--icon-primary, #dae8fc)" stroke="var(--icon-secondary, #6c8ebf)" stroke-width="1" stroke-linejoin="round"/><rect x="0" y="0" width="0" height="0" fill="none" stroke="var(--icon-secondary, #6c8ebf)" stroke-width="1"/><path d="M 19 6 L 21 9 L 13.33 10.67 L 15 9.33 L 3.33 7.33 L 6.33 5 L 17.66 7 Z M 30 13.33 L 28.33 10.33 L 35.33 8.67 L 34.33 10 L 45.66 12 L 43 14 L 31.33 12 Z M 26 4.33 L 33.66 2.33 L 34 5.33 L 32 5 L 28.33 8.33 L 24.66 7.67 L 28.33 4.67 Z M 22.66 16.33 L 15.33 17.67 L 15 14 L 17.33 14.67 L 21.33 11 L 25 11.67 L 20.66 15.67 Z M 15.33 21.67 L 15.33 23 L 12.66 21.33 L 15.33 19.67 L 15.33 21 L 20 21 L 20 19.67 L 22.66 21.33 L 20 23 L 20 21.67 Z M 15.33 30.33 L 15.33 31.67 L 12.66 30 L 15.33 28.33 L 15.33 29.67 L 20 29.67 L 20 28.33 L 22.66 30 L 20 31.67 L 20 30.33 L 15.33 30.33 Z M 15.33 26.33 L 15.33 27.33 L 12.66 25.67 L 15.33 24.33 L 15.33 25.33 L 18.66 25.33 L 18.66 24.33 L 21.33 25.67 L 18.66 27.33 L 18.66 26 L 15.33 26 Z" fill="var(--icon-secondary, #6c8ebf)" stroke="none" stroke-width="0"/><path d="M 36.66 29.33 C 36.33 29 36 27.67 36 26 C 36 24.67 36.33 23 36.66 23 C 33.33 23 33.33 23 33.33 23 C 32.66 23 32.33 24.33 32.33 26 C 32.33 27.67 32.66 29 33.33 29 Z" fill="var(--icon-secondary, #6c8ebf)" stroke="none" stroke-width="0"/><path d="M 36 26 C 36 27.67 36.33 29 36.66 29 C 37.33 29 37.66 27.67 37.66 26 C 37.66 24.67 37.33 23.33 36.66 23.33 C 36.33 23.33 36 24.67 36 26 Z" fill="none" stroke="var(--icon-secondary, #6c8ebf)" stroke-width="0.67"/><path d="M 34 26 C 34 29.33 31.33 32 28 32 C 24.66 31.67 22 29 22.33 26 C 22.33 22.67 25 20 28 20 C 31.33 20 34 22.67 34 26 Z" fill="var(--icon-secondary, #6c8ebf)" stroke="none" stroke-width="0"/><path d="M 31 26 C 31 27.67 29.66 29 28 29 C 26.66 29 25.33 27.67 25.33 26 C 25.33 24.33 26.66 23 28.33 23 C 29.66 23 31 24.33 31 26 Z" fill="var(--icon-primary, #dae8fc)" stroke="none" stroke-width="0"/></svg>