<svg xmlns="http://www.w3.org/2000/svg" viewBox="0 0 48.33 31.66" width="48.33" height="31.66"><path d="M 24 18.66 C 37.33 18.66 48 14.33 48 9.33 C 48 4 37.33 0 24 0 C 10.67 0 0 4 0 9.33 C 0 14.33 10.67 18.66 24 18.66 Z M 48 8.66 C 48 13.66 37.33 18 24 18 C 10.67 18 0 13.66 0 8.66 C 0 22.33 0 22.33 0 22.33 C 0 27.33 10.67 31.66 24 31.66 C 37.33 31.66 48 27.33 48 22.33 Z" fill="var(--icon-primary, #dae8fc)" stroke="var(--icon-secondary, #6c8ebf)" stroke-width="1" stroke-linejoin="round"/><path d="M 47.33 7.33 C 40.33 5.33 38 9.33 34 9.33 C 28.33 9.33 30.33 6.66 24 6.66 C 16.33 6.66 19.33 9.33 14 9.33 C 10 9.33 8.33 6 0.33 7.33 C 0 8 0 8.66 0 10 C 7.33 8 9.67 12 14 11.66 C 20.33 11.66 17 9 24 9.33 C 30.67 9.66 27.33 12 34 12 C 39.67 12 40.33 8 48 9.66 C 48 9.66 48.33 8.66 47.33 7.33 Z" fill="var(--icon-primary, #dae8fc)" stroke="var(--icon-secondary, #6c8ebf)" stroke-width="0.4" stroke-linejoin="round"/><path d="M 41.33 2.66 C 37.33 2 38.33 4.66 34 4.66 C 28.33 4.66 30.67 2 24.33 2 C 16.67 2 19 4.66 13.67 4.66 C 10 5 9 3 5.67 3 C 4.67 3.66 3 4.66 2 5.33 C 7.67 4 10 7 13.67 7 C 20 7 17 4.33 24 4.66 C 30.67 4.66 27.33 7 34 7 C 38.33 7 38.67 3.33 45 4.66 C 45 4.66 43.33 3.66 41.33 2.66 Z" fill="var(--icon-primary, #dae8fc)" stroke="var(--icon-secondary, #6c8ebf)" stroke-width="0.4" stroke-linejoin="round"/><path d="M 47 12 C 39.67 10 39.67 14 34.33 14 C 29 14 31 11.33 24.67 11.33 C 17.33 11.33 20 13.66 14.33 14 C 10.67 14 6.33 10.33 1 12 C 1.67 13 4.33 14.66 4.33 14.66 C 7.33 13.66 9.67 16.33 14.33 16.33 C 20.67 16.33 17.67 13.66 24.67 14 C 31.33 14 27.67 16.33 34.33 16.33 C 39.33 16.66 40.33 13 44.67 14 C 44.67 14 46 13 47 12 Z" fill="var(--icon-primary, #dae8fc)" stroke="var(--icon-secondary, #6c8ebf)" stroke-width="0.4" stroke-linejoin="round"/><path d="M 30.33 2.33 L 39 2.33 L 37.67 6.33 L 36 5.33 L 28 9.33 L 24.33 7 L 32.33 3.33 Z M 20.67 5.33 L 23 8.33 L 12 9 L 14.33 8 L 6.33 4.66 L 10.33 2.33 L 18.67 6 Z M 27 14.33 L 26 10.33 L 35 10.66 L 32.67 11.33 L 41.33 15 L 37.33 16.66 L 29 13.33 Z M 19.67 16.33 L 11 16.66 L 12.33 12.66 L 14 13.33 L 22.33 9.33 L 25.67 11.33 L 17.67 15.33 Z" fill="var(--icon-secondary, #6c8ebf)" stroke="none" stroke-width="0"/></svg>