<svg xmlns="http://www.w3.org/2000/svg" viewBox="0 0 47.34 32" width="47.34" height="32"><path d="M 0 6.66 L 8 0 L 47.34 0 L 41 6.66 Z M 47.34 0 L 41 6.66 L 41 32 L 47.34 23.33 Z M 0 6.66 L 41 6.66 L 41 32 L 0 32 Z" fill="var(--icon-primary, #dae8fc)" stroke="var(--icon-secondary, #6c8ebf)" stroke-width="1" stroke-linejoin="round"/><path d="M 20 30 C 26 30 31 25.33 31 19.33 C 31 13.33 26 8.66 20 8.66 C 14.34 8.66 9.34 13.33 9.34 19.33 C 9.34 25.33 14.34 30 20 30 Z" fill="none" stroke="var(--icon-secondary, #6c8ebf)" stroke-width="1.33" stroke-linejoin="round"/><path d="M 3.34 13.66 L 33.67 13.66 L 33.67 12.33 L 36.34 14.33 L 33.67 16.33 L 33.67 15 L 3.34 15 Z" fill="var(--icon-secondary, #6c8ebf)" stroke="none" stroke-width="0"/><path d="M 36 25.33 L 5.67 25.33 L 5.67 26.66 L 3 24.66 L 5.67 22.66 L 5.67 24 L 36 24 Z" fill="var(--icon-secondary, #6c8ebf)" stroke="none" stroke-width="0"/></svg>