<svg xmlns="http://www.w3.org/2000/svg" viewBox="0 0 41.67 28" width="41.67" height="28"><path d="M 41.67 8 C 41.67 12.67 32.34 16.34 20.67 16.34 C 9.34 16.34 0 12.67 0 8 C 0 20 0 20 0 20 C 0 24.34 9.34 28 20.67 28 C 32.34 28 41.67 24.34 41.67 20 Z" fill="var(--icon-primary, #dae8fc)" stroke="var(--icon-secondary, #6c8ebf)" stroke-width="1" stroke-linejoin="round"/><path d="M 20.67 16.34 C 32.34 16.34 41.67 12.67 41.67 8 C 41.67 3.67 32.34 0 20.67 0 C 9.34 0 0 3.67 0 8 C 0 12.67 9.34 16.34 20.67 16.34 Z" fill="var(--icon-primary, #dae8fc)" stroke="var(--icon-secondary, #6c8ebf)" stroke-width="0.67" stroke-linejoin="round"/><path d="M 21 6.34 L 18 2 L 19.34 1.67 L 16.67 0.67 L 15.67 2.34 L 17 2 L 19.67 6.67 Z M 19.34 7 L 9.34 4.34 L 10 4 L 6.34 4 L 8 5.67 L 8.67 5 L 18.67 7.67 Z M 18.67 8 L 7.34 9.34 L 7 9 L 4.67 10.34 L 8 10.67 L 7.67 10 L 19.34 8.67 Z M 19.34 9 L 13.34 13.34 L 12.34 13 L 12.34 14.67 L 15.67 14 L 14.67 13.67 L 20.34 9.34 Z M 22 6.67 L 27 2.34 L 26 2.34 L 29 1.34 L 29.34 3 L 28.34 2.67 L 23.34 7 Z M 21.34 9.34 L 24.34 14.34 L 23 14.34 L 25.67 15.67 L 27 14 L 25.67 14 L 22.67 9.34 Z M 23.34 9 L 33.34 11.34 L 32.67 12 L 36.34 12 L 34.67 10.34 L 34 10.67 L 24 8.34 Z M 23.67 8.34 L 35 6.67 L 35.34 7.34 L 37.67 6.34 L 34.34 5.67 L 34.67 6 L 23.34 7.67 Z" fill="var(--icon-secondary, #6c8ebf)" stroke="none" stroke-width="0"/><rect x="0" y="0" width="0" height="0" fill="none" stroke="var(--icon-secondary, #6c8ebf)" stroke-width="1"/><path d="M 21 9.67 C 23 9.67 24.67 9 24.67 8 C 24.67 7.34 23 6.34 21.34 6.34 C 19.34 6.34 17.67 7 17.67 8 C 17.67 8.67 19.34 9.34 21 9.67 Z" fill="none" stroke="var(--icon-secondary, #6c8ebf)" stroke-width="2"/></svg>