<svg xmlns="http://www.w3.org/2000/svg" viewBox="0 0 37 34" width="37" height="34"><path d="M 29.33 34 L 29.33 6 L 0 6 L 0 34 Z M 29.33 6 L 37 0 L 10.33 0 L 0 6 Z M 37 27.66 L 37 0 L 29.33 6 L 29.33 34 Z" fill="var(--icon-primary, #dae8fc)" stroke="var(--icon-secondary, #6c8ebf)" stroke-width="1" stroke-linejoin="round"/><rect x="0" y="0" width="0" height="0" fill="none" stroke="var(--icon-secondary, #6c8ebf)" stroke-width="1"/><path d="M 3 32.66 C 3.66 32.66 4.33 32 4.33 31.33 C 4.33 30.66 3.66 30 3 30 C 2.33 30 1.66 30.66 1.66 31.33 C 1.66 32 2.33 32.66 3 32.66 Z" fill="var(--icon-secondary, #6c8ebf)" stroke="var(--icon-secondary, #6c8ebf)" stroke-width="0.4"/><path d="M 2 30 L 4.33 32.66 L 11.33 25.33 L 9 23 Z" fill="var(--icon-secondary, #6c8ebf)" stroke="var(--icon-secondary, #6c8ebf)" stroke-width="0.4"/><path d="M 8 17.66 C 8 23 12.33 27 17.33 27 C 22.66 27 27 23 27 17.66 C 27 12.33 22.66 8 17.33 8 C 12.33 8 8 12.33 8 17.66 M 9.33 17.66 C 9.33 13 13 9.33 17.33 9.33 C 22 9.33 25.66 13 25.66 17.66 C 25.66 22 22 25.66 17.33 25.66 C 13 25.66 9.33 22 9.33 17.66 Z" fill="var(--icon-secondary, #6c8ebf)" stroke="var(--icon-secondary, #6c8ebf)" stroke-width="0.4"/><path d="M 6.66 18 C 6.66 23.33 11 27.66 16.33 27.66 C 21.66 27.66 26 23.33 26 18 C 26 13 21.66 8.66 16.33 8.66 C 11 8.66 6.66 13 6.66 18 M 8 18 C 8 13.66 11.66 10 16.33 10 C 21 10 24.66 13.66 24.66 18 C 24.66 22.66 21 26.33 16.33 26.33 C 11.66 26.33 8 22.66 8 18 Z" fill="var(--icon-secondary, #6c8ebf)" stroke="var(--icon-secondary, #6c8ebf)" stroke-width="0.4"/><rect x="13" y="14.33" width="7.67" height="7" fill="none" stroke="var(--icon-secondary, #6c8ebf)" stroke-width="1.67"/></svg>