<svg xmlns="http://www.w3.org/2000/svg" viewBox="0 0 63.67 31" width="63.67" height="31"><path d="M 0 15.66 L 19.33 0 L 63.67 0 L 47.67 15.66 L 0 15.66 Z M 47.67 31 L 63.67 14.66 L 63.67 0 L 47.67 15.66 Z" fill="var(--icon-primary, #dae8fc)" stroke="var(--icon-secondary, #6c8ebf)" stroke-width="1" stroke-linejoin="round"/><rect x="0" y="0" width="0" height="0" fill="none" stroke="var(--icon-secondary, #6c8ebf)" stroke-width="1"/><path d="M 43.67 8.33 L 45 7 L 48.67 8.66 L 42 10.66 L 43.67 8.66 L 31.67 8.66 L 32.33 8.33 Z M 36.67 4.33 L 36.33 4.66 L 24 4.66 L 22.33 6 L 19.33 4.66 L 26.33 2.66 L 24.67 4.33 Z M 30 11 L 29.67 11.33 L 17.33 11.33 L 15.67 12.66 L 12.33 11.33 L 19.67 9.33 L 18 11 Z M 50.67 2.66 L 51.67 1.33 L 55.33 3 L 49 5 L 50.33 3 L 38.33 3 L 39 2.66 Z" fill="var(--icon-secondary, #6c8ebf)" stroke="none" stroke-width="0"/><path d="M 43.67 8.66 L 45 7.33 L 48.33 9 L 41.67 10.66 L 43.33 9 L 31.33 9 L 32 8.66 Z M 36.33 4.66 L 35.67 5 L 24 5 L 22.67 6.33 L 19.33 5 L 26 3 L 24.33 4.66 Z" fill="var(--icon-secondary, #6c8ebf)" stroke="none" stroke-width="0"/><path d="M 29.33 11.33 L 29 11.66 L 17.33 11.66 L 16 13 L 12.67 11.66 L 19.33 9.66 L 17.67 11.33 Z M 50.67 3 L 51.67 2 L 55 3.33 L 48.33 5 L 50 3.33 L 38.33 3.33 L 38.67 3 Z" fill="var(--icon-secondary, #6c8ebf)" stroke="none" stroke-width="0"/><path d="M 47.67 31 L 47.67 15.66 L 0 15.66 L 0 31 Z" fill="var(--icon-primary, #dae8fc)" stroke="var(--icon-secondary, #6c8ebf)" stroke-width="0.67" stroke-linejoin="round"/><path d="M 17.67 23.33 L 9 23.33 L 9 22.66 L 5.33 23.66 L 9 25 L 9 24.33 L 17.67 24.33 Z M 22.67 26 L 22.67 29 L 20.33 29 L 24 30.33 L 27.33 29 L 25 29 L 25 26 Z M 22.67 21.66 L 22.67 18.66 L 20.33 18.66 L 24 17.33 L 27.33 18.66 L 25 18.66 L 25 21.66 Z M 30 24.33 L 39 24.33 L 39 25 L 42.33 23.66 L 39 22.66 L 39 23.33 L 30 23.33 Z" fill="var(--icon-secondary, #6c8ebf)" stroke="none" stroke-width="0"/><path d="M 38.33 29 C 36.67 29.66 29 27.66 21 25 C 13.33 22.33 8.33 19.66 10 19 C 11.67 18.33 19.33 20 27 22.66 C 35 25.66 40 28.33 38.33 29 Z" fill="none" stroke="var(--icon-secondary, #6c8ebf)" stroke-width="0.67" stroke-linejoin="round"/><path d="M 37.67 19 C 39.67 19.33 34.67 22.33 27 25 C 19.33 27.66 11.33 29.33 9.67 29 C 8 28.33 12.67 25.66 20.67 22.66 C 28.33 20 36 18.33 37.67 19 Z" fill="none" stroke="var(--icon-secondary, #6c8ebf)" stroke-width="0.67" stroke-linejoin="round"/><path d="M 27.67 25.66 C 30.33 25 31.33 23.33 29 22.33 C 27 21.33 23 21 20 22 C 17 22.66 16.33 24 18.33 25 C 20.67 26 24.67 26.33 27.67 25.66 Z" fill="var(--icon-secondary, #6c8ebf)" stroke="none" stroke-width="0"/></svg>