<svg xmlns="http://www.w3.org/2000/svg" viewBox="0 0 32 43.67" width="32" height="43.67"><rect x="0" y="0" width="0" height="0" fill="none" stroke="var(--icon-secondary, #6c8ebf)" stroke-width="1"/><path d="M 26.67 43.67 L 26.67 17.67 L 0 17.67 L 0 43.67 Z M 32 39 L 32 12.67 L 26.67 17.67 L 26.67 43.67 Z" fill="var(--icon-primary, #dae8fc)" stroke="var(--icon-secondary, #6c8ebf)" stroke-width="0.67" stroke-linejoin="round"/><path d="M 9.67 30 L 4 30 L 4 28.34 L 1.67 30.67 L 4 33 L 4 31.34 L 9.67 31.34 Z M 12.67 34.67 L 12.67 40.34 L 11.33 40.34 L 13.33 42.34 L 15.67 40.34 L 14.33 40.34 L 14.33 34.67 Z M 12.67 27 L 12.67 21.34 L 11.33 21.34 L 13.33 19 L 15.67 21.34 L 14.33 21.34 L 14.33 27 Z M 17.33 31.34 L 23 31.34 L 23 33 L 25.33 30.67 L 23 28.34 L 23 30 L 17.33 30 Z" fill="var(--icon-secondary, #6c8ebf)" stroke="none" stroke-width="0"/><path d="M 22.67 40 C 21.67 41 16.67 38 11.67 33 C 6.67 28 3.33 23 4.67 22 C 5.67 20.67 10.67 23.67 15.67 28.67 C 20.67 33.67 23.67 38.67 22.67 40 Z M 22.33 21.67 C 23.67 22.67 20.33 27.67 15.33 32.67 C 10.33 37.67 5.67 41 4.33 40 C 3.33 38.67 6.33 34 11.33 29 C 16.33 24 21.33 20.67 22.33 21.67 Z" fill="none" stroke="var(--icon-secondary, #6c8ebf)" stroke-width="0.67" stroke-linejoin="round"/><path d="M 16 34 C 17.67 32.67 18.33 30 17 28.34 C 15.67 26.34 13 26 11 27 C 9.33 28.34 8.67 31 10 33 C 11.33 35 14 35.34 16 34 Z" fill="var(--icon-secondary, #6c8ebf)" stroke="none" stroke-width="0"/><path d="M 32 0 L 26.67 5 L 0 5 L 7 0 Z M 26.67 17.67 L 26.67 5 L 0 5 L 0 17.67 Z M 32 12.67 L 32 0.34 L 26.67 5 L 26.67 17.67 Z" fill="var(--icon-secondary, #6c8ebf)" stroke="var(--icon-secondary, #6c8ebf)" stroke-width="1" stroke-linejoin="round"/><rect x="2.67" y="7" width="5" height="2.67" fill="var(--icon-secondary, #6c8ebf)" stroke="none" stroke-width="0"/><rect x="19.67" y="7" width="5" height="2.67" fill="var(--icon-secondary, #6c8ebf)" stroke="none" stroke-width="0"/><rect x="2.67" y="13.67" width="5" height="2.67" fill="var(--icon-secondary, #6c8ebf)" stroke="none" stroke-width="0"/><rect x="19.67" y="13.67" width="5" height="2.67" fill="var(--icon-secondary, #6c8ebf)" stroke="none" stroke-width="0"/><path d="M 6 8.34 L 22 8.34 M 6 15.34 L 22 15.34 M 5 15.34 L 22 8.34 M 5 8.34 L 22 15.34" fill="none" stroke="var(--icon-secondary, #6c8ebf)" stroke-width="0.67" stroke-linejoin="round"/></svg>