<svg xmlns="http://www.w3.org/2000/svg" viewBox="0 0 56.66 40.67" width="56.66" height="40.67"><path d="M 0 40.67 L 50.66 40.67 L 50.66 7 L 0 7 Z M 56.66 32 L 50.66 40.67 L 50.66 7 L 56.66 0 Z M 8.66 0 L 56.66 0 L 50.66 7 L 0 7 Z" fill="var(--icon-primary, #dae8fc)" stroke="var(--icon-secondary, #6c8ebf)" stroke-width="1" stroke-linejoin="round"/><path d="M 31.33 22.34 C 31.33 25.67 28.33 28.34 25 28.34 C 21.66 28.34 19 25.67 19 22.34 C 19 18.67 21.66 16 25 16 C 28.33 16 31.33 18.67 31.33 22.34 Z" fill="none" stroke="var(--icon-secondary, #6c8ebf)" stroke-width="1.2" stroke-linejoin="round"/><rect x="0" y="0" width="0" height="0" fill="none" stroke="var(--icon-secondary, #6c8ebf)" stroke-width="1"/><path d="M 24.33 34 L 24.33 29.67 L 25.66 29.67 L 25.66 34 L 28 34 L 25 39 L 22.33 34 Z M 8.66 33 L 12 26.67 L 10.66 26 L 7.33 32 L 5 30.67 L 5 37.67 L 10.66 34.34 Z M 42 33 L 38.33 26.67 L 40 26 L 43.33 32 L 45.66 30.67 L 45.66 37.67 L 39.66 34.34 Z M 33.33 33.67 L 32 29 L 33.33 28.67 L 34.66 33.34 L 36.66 32.67 L 35 38 L 31.33 34 Z M 17 33.67 L 18.33 29 L 17 28.67 L 16 33.34 L 13.66 32.67 L 15.33 38 L 19.33 34 Z M 14 15.34 L 14 22.34 L 12.33 22.34 L 12.33 15.34 L 10 15.34 L 13.33 9.34 L 16.66 15.34 Z M 37.33 15.34 L 37.33 22.34 L 35.66 22.34 L 35.66 15.34 L 33 15.34 L 36.33 9.34 L 39.66 15.34 Z" fill="var(--icon-secondary, #6c8ebf)" stroke="none" stroke-width="0"/></svg>