<svg xmlns="http://www.w3.org/2000/svg" viewBox="0 0 63.67 31.67" width="63.67" height="31.67"><path d="M 47.67 31.67 L 47.67 15.67 L 0 15.67 L 0 31.67 Z M 0 15.67 L 19 0 L 63.67 0 L 47.67 15.67 Z M 47.67 31.67 L 63.67 14.33 L 63.67 0 L 47.67 15.67 Z" fill="var(--icon-primary, #dae8fc)" stroke="var(--icon-secondary, #6c8ebf)" stroke-width="1" stroke-linejoin="round"/><path d="M 13.67 13.67 L 28.67 1.67 M 25.67 13.67 L 40.33 1.67 M 37.33 13.67 L 52.33 1.67 M 19.67 4 L 55 4" fill="none" stroke="var(--icon-secondary, #6c8ebf)" stroke-width="0.67" stroke-linejoin="round"/><rect x="0" y="0" width="0" height="0" fill="none" stroke="var(--icon-secondary, #6c8ebf)" stroke-width="1"/><path d="M 18 23 L 9.33 23 L 9.33 22 L 6 23.33 L 9.33 24.67 L 9.33 23.67 L 18 23.67 Z M 23.33 25.67 L 23.33 28.67 L 21 28.67 L 24.33 30 L 27.67 28.67 L 25.33 28.67 L 25.33 25.67 Z M 23.33 21.33 L 23.33 18 L 21 18 L 24.33 17 L 27.67 18 L 25.33 18 L 25.33 21.33 Z M 30.33 23.67 L 39.33 23.67 L 39.33 24.67 L 42.67 23.33 L 39.33 22 L 39.33 23 L 30.33 23 Z" fill="var(--icon-secondary, #6c8ebf)" stroke="none" stroke-width="0"/><path d="M 38.67 28.33 C 37 29 29.33 27.33 21.33 24.67 C 13.67 22 8.67 19 10.33 18.33 C 12 18 19.67 19.67 27.67 22.33 C 35.33 25 40.33 27.67 38.67 28.33 Z M 38.33 18.33 C 40 19 35 21.67 27.33 24.67 C 19.67 27.33 12 29 10 28.33 C 8.33 28 13.33 25 21 22.33 C 28.67 19.67 36.33 18 38.33 18.33 Z" fill="none" stroke="var(--icon-secondary, #6c8ebf)" stroke-width="0.67"/><path d="M 28 25.33 C 31 24.33 31.67 23 29.67 22 C 27.33 21 23.33 20.67 20.33 21.33 C 17.67 22 16.67 23.67 19 24.67 C 21 25.67 25 26 28 25.33 Z" fill="var(--icon-secondary, #6c8ebf)" stroke="none" stroke-width="0"/><path d="M 28.67 4 C 28.33 5 23.33 5 23.33 4 C 23.33 3 28.33 2.67 28.67 4 M 40.33 4 C 40 5 35.33 5 35.33 4 C 35.33 3 40.33 2.67 40.33 4 M 52.33 4 C 52 5 47 5 47 4 C 47 3 52 2.67 52.33 4" fill="var(--icon-secondary, #6c8ebf)" stroke="none" stroke-width="0"/><path d="M 15.33 7.67 L 50.33 7.67" fill="none" stroke="var(--icon-secondary, #6c8ebf)" stroke-width="0.67"/><path d="M 24 7.67 C 23.67 8.67 19 9 19 7.67 C 19 6.67 24 6.67 24 7.67 M 36 7.67 C 35.67 8.67 30.67 9 30.67 7.67 C 30.67 6.67 35.67 6.67 36 7.67 M 47.67 7.67 C 47.33 8.67 42.67 9 42.67 7.67 C 42.67 6.67 47.67 6.67 47.67 7.67" fill="var(--icon-secondary, #6c8ebf)" stroke="none" stroke-width="0"/><path d="M 10.67 11.67 L 46 11.67" fill="none" stroke="var(--icon-secondary, #6c8ebf)" stroke-width="0.67"/><path d="M 19 11.67 C 18.67 12.67 13.67 13 13.67 11.67 C 13.67 10.67 18.67 10.67 19 11.67 M 30.67 11.67 C 30.33 12.67 25.67 13 25.67 11.67 C 25.67 10.67 30.67 10.67 30.67 11.67" fill="var(--icon-secondary, #6c8ebf)" stroke="none" stroke-width="0"/><path d="M 42.67 11.67 C 42.33 12.67 37.33 13 37.33 11.67 C 37.33 10.67 42.33 10.67 42.67 11.67" fill="var(--icon-secondary, #6c8ebf)" stroke="none" stroke-width="0"/></svg>