<svg xmlns="http://www.w3.org/2000/svg" viewBox="0 0 46 38.67" width="46" height="38.67"><path d="M 34 30.33 C 34 25 29 21.33 22.33 21.33 C 16.66 21.33 11.66 25 11.66 30.33 C 11.66 34.67 16.66 38.67 22.33 38.67 C 29 38.67 34 34.67 34 30.33 Z" fill="var(--icon-primary, #dae8fc)" stroke="none" stroke-width="0"/><path d="M 30 30 L 34.66 30 L 37.66 30.67 L 42.33 30.67 L 43.66 30 L 44.33 28.67 L 45 27.33 L 44.33 25.33 L 40.33 21.67 L 37.66 18.33 L 34.66 15.33 L 32.66 12.67 L 30.66 9.33 L 29 7 L 27 3.67 L 26.33 1 L 23.66 0 L 21.66 0 L 19.33 1 L 18.66 3 L 17.33 5.67 L 15.33 8.33 L 14 10.67 L 10.33 16 L 7.66 19 L 1.33 25.33 L 0.66 26.67 L 0.66 27.33 L 2 30 L 3.33 30 L 4.66 30.67 L 7 30.67 L 9.66 30 L 19.33 30 L 30 30 Z" fill="var(--icon-primary, #dae8fc)" stroke="none" stroke-width="0"/><path d="M 34.66 19 C 34.66 14 29 10 22.33 10 C 16 10 11 14 11 19 C 11 24.33 16 28 22.33 28 C 29 28 34.66 24.33 34.66 19 Z" fill="none" stroke="var(--icon-secondary, #6c8ebf)" stroke-width="0.67"/><path d="M 23.66 4.33 L 24.33 4.33 L 24.33 0 L 23.66 0 Z M 22.33 4.33 L 23 4.33 L 23 0 L 22.33 0 Z M 21 4.33 L 21.66 4.33 L 21.66 0 L 21 0 Z M 1.33 30 L 1.66 30.67 L 5.33 28 L 5 27.67 Z M 0.66 29 L 1 29.67 L 4.66 27 L 4.33 26.67 Z M 0 28 L 0.33 28.67 L 4 26 L 3.66 25.33 Z M 44.33 30 L 44 30.67 L 40.33 28 L 40.66 27.67 Z M 45.33 29 L 44.66 29.67 L 41.33 27 L 41.66 26.67 Z M 46 28 L 45.66 28.67 L 42 26 L 42.33 25.33 Z" fill="var(--icon-secondary, #6c8ebf)" stroke="none" stroke-width="0"/><rect x="19" y="30.67" width="2" height="1" fill="var(--icon-secondary, #6c8ebf)" stroke="var(--icon-secondary, #6c8ebf)" stroke-width="0.25"/><rect x="21.5" y="30.67" width="2" height="1" fill="var(--icon-secondary, #6c8ebf)" stroke="var(--icon-secondary, #6c8ebf)" stroke-width="0.25"/><rect x="24" y="30.67" width="2" height="1" fill="var(--icon-secondary, #6c8ebf)" stroke="var(--icon-secondary, #6c8ebf)" stroke-width="0.25"/><rect x="19" y="32.67" width="2" height="1" fill="var(--icon-secondary, #6c8ebf)" stroke="var(--icon-secondary, #6c8ebf)" stroke-width="0.25"/><rect x="21.5" y="32.67" width="2" height="1" fill="var(--icon-secondary, #6c8ebf)" stroke="var(--icon-secondary, #6c8ebf)" stroke-width="0.25"/><rect x="24" y="32.67" width="2" height="1" fill="var(--icon-secondary, #6c8ebf)" stroke="var(--icon-secondary, #6c8ebf)" stroke-width="0.25"/><rect x="19" y="34.33" width="2" height="1" fill="var(--icon-secondary, #6c8ebf)" stroke="var(--icon-secondary, #6c8ebf)" stroke-width="0.25"/><rect x="21.5" y="34.33" width="2" height="1" fill="var(--icon-secondary, #6c8ebf)" stroke="var(--icon-secondary, #6c8ebf)" stroke-width="0.25"/><rect x="24" y="34.33" width="2" height="1" fill="var(--icon-secondary, #6c8ebf)" stroke="var(--icon-secondary, #6c8ebf)" stroke-width="0.25"/></svg>