<svg xmlns="http://www.w3.org/2000/svg" viewBox="0 0 49 45.66" width="49" height="45.66"><path d="M 49 0 L 41 7.66 L 0 7.66 L 10 0 Z M 41 45.66 L 41 7.66 L 0 7.66 L 0 45.66 Z M 49 38 L 49 0 L 41 7.66 L 41 45.66 Z" fill="var(--icon-primary, #dae8fc)" stroke="var(--icon-secondary, #6c8ebf)" stroke-width="1" stroke-linejoin="round"/><path d="M 17 25 L 4 29.33" fill="none" stroke="var(--icon-secondary, #6c8ebf)" stroke-width="0.67" stroke-dasharray="4 2" stroke-linecap="square" stroke-linejoin="round"/><rect x="0" y="0" width="0" height="0" fill="none" stroke="var(--icon-secondary, #6c8ebf)" stroke-width="1"/><path d="M 38.67 10.66 L 2 10.66 L 2 42.66 L 38.67 42.66 Z M 23 21.66 L 38.67 16 L 38.67 19.33 L 23 21.66 Z M 23 21.66 L 38.67 23 L 38.67 26.66 L 23 21.66" fill="none" stroke="var(--icon-secondary, #6c8ebf)" stroke-width="1"/><path d="M 33.34 39.66 L 8.34 39.66 L 21 15 L 21 15 L 33.34 39.66 Z" fill="var(--icon-secondary, #6c8ebf)" stroke="none" stroke-width="0"/><rect x="0" y="0" width="0" height="0" fill="none" stroke="var(--icon-secondary, #6c8ebf)" stroke-width="1"/><path d="M 19.34 29.33 L 16.67 27 L 17.34 26.66 L 15.67 26.33 L 16 27.66 L 16.34 27.33 L 19 29.66 Z M 18.34 31 L 15 31 L 15 30.33 L 13.67 31.33 L 15 32 L 15 31.66 L 18.34 31.66 Z M 19 32.66 L 16.34 35.33 L 16 34.66 L 15.67 36.33 L 17.34 36 L 16.67 35.66 L 19.34 33 Z M 20.34 33.66 L 20.34 37 L 20 37 L 20.67 38.33 L 21.67 37 L 21 37 L 21 33.66 Z M 20.34 29 L 20.34 25.66 L 20 25.66 L 20.67 24.33 L 21.67 25.66 L 21 25.66 L 21 29 Z M 22.34 33 L 24.67 35.66 L 24.34 36 L 25.67 36.33 L 25.34 34.66 L 25 35.33 L 22.67 32.66 Z" fill="var(--icon-primary, #dae8fc)" stroke="none" stroke-width="0"/><path d="M 23 31.66 L 26.67 31.66 L 26.67 32 L 28 31.33 L 26.67 30.33 L 26.67 31 L 23 31 Z" fill="var(--icon-primary, #dae8fc)" stroke="none" stroke-width="0"/><path d="M 22.67 29.66 L 25 27.33 L 25.34 27.66 L 25.67 26.33 L 24.34 26.66 L 24.67 27 L 22.34 29.33 Z" fill="var(--icon-primary, #dae8fc)" stroke="none" stroke-width="0"/><path d="M 23 34.33 C 24.34 33 25 30.66 23.67 29.33 C 22.67 27.66 20.34 27 18.67 28.33 C 17 29.33 16.67 31.66 17.67 33.33 C 19 35 21.34 35.33 23 34.33 Z" fill="var(--icon-primary, #dae8fc)" stroke="var(--icon-secondary, #6c8ebf)" stroke-width="0.67"/></svg>