<svg xmlns="http://www.w3.org/2000/svg" viewBox="0 0 46 40.33" width="46" height="40.33"><path d="M 46 8.66 L 46 31.33 L 35 40.33 L 11.66 40.33 L 0 31.33 L 0 8.66 Z" fill="var(--icon-primary, #dae8fc)" stroke="var(--icon-secondary, #6c8ebf)" stroke-width="1" stroke-linejoin="round"/><path d="M 34.66 0 L 12 0 L 0 8.66 L 11.66 17.66 L 35 17.66 L 46 8.66 Z M 11.33 40 L 11.33 17.66 M 35 40 L 35 17.66" fill="var(--icon-primary, #dae8fc)" stroke="var(--icon-secondary, #6c8ebf)" stroke-width="1" stroke-linejoin="round"/><path d="M 34 8.66 L 12 8.66 M 12 3 L 17 3 L 29 14.67 L 34 14.67 M 34 3 L 29 3 L 17 14.67 L 12 14.67 M 23 3 L 23 14.67" fill="none" stroke="var(--icon-secondary, #6c8ebf)" stroke-width="0.67" stroke-linejoin="round"/><path d="M 25 30.66 L 20.66 30.66 L 20.66 26.66 L 25 26.66 Z" fill="var(--icon-secondary, #6c8ebf)" stroke="none" stroke-width="0"/><path d="M 30 28.33 L 24 28.33" fill="none" stroke="var(--icon-secondary, #6c8ebf)" stroke-width="1.33" stroke-linejoin="round"/><path d="M 33.33 28.33 L 27.66 30.66 L 29 28.33 L 27.66 26 Z" fill="var(--icon-secondary, #6c8ebf)" stroke="none" stroke-width="0"/><path d="M 16 28.33 L 21 28.33" fill="none" stroke="var(--icon-secondary, #6c8ebf)" stroke-width="1.33" stroke-linejoin="round"/><path d="M 18.33 26 L 17 28.33 L 18.33 30.66 L 12.66 28.33 Z" fill="var(--icon-secondary, #6c8ebf)" stroke="none" stroke-width="0"/><path d="M 23 22 L 23 28" fill="none" stroke="var(--icon-secondary, #6c8ebf)" stroke-width="1.33" stroke-linejoin="round"/><path d="M 23 19 L 25.33 24.66 L 23 23.33 L 20.66 24.66 Z" fill="var(--icon-secondary, #6c8ebf)" stroke="none" stroke-width="0"/><path d="M 23 35.66 L 23 30" fill="none" stroke="var(--icon-secondary, #6c8ebf)" stroke-width="1.33" stroke-linejoin="round"/><path d="M 20.66 33.33 L 23 34.66 L 25 33.33 L 23 39 Z" fill="var(--icon-secondary, #6c8ebf)" stroke="none" stroke-width="0"/></svg>