<svg xmlns="http://www.w3.org/2000/svg" viewBox="0 0 48.33 48.67" width="48.33" height="48.67"><path d="M 48.33 9.33 C 48.33 14.67 37.33 18.67 24 18.67 C 10.67 18.67 0 14.67 0 9.33 C 0 39.33 0 39.33 0 39.33 C 0 44.67 10.67 48.67 24 48.67 C 37.33 48.67 48.33 44.67 48.33 39.33 Z" fill="var(--icon-primary, #dae8fc)" stroke="var(--icon-secondary, #6c8ebf)" stroke-width="1" stroke-linejoin="round"/><path d="M 24 19 C 37.33 19 48.33 14.67 48.33 9.33 C 48.33 4.33 37.33 0 24 0 C 10.67 0 0 4.33 0 9.33 C 0 14.67 10.67 19 24 19 Z" fill="var(--icon-primary, #dae8fc)" stroke="var(--icon-secondary, #6c8ebf)" stroke-width="0.67" stroke-linejoin="round"/><path d="M 18.33 4 L 28.33 3 L 26.33 6 L 24 5.67 L 9 11.33 L 6.33 10.33 L 21 5 Z M 30 7.33 L 39.67 6.33 L 38 9.67 L 35.33 9 L 20.67 14.67 L 18 14 L 32.33 8.33 Z M 14.33 45.33 L 14.33 39 L 10.33 42 Z M 32.67 20.67 L 32.67 27 L 36.67 24 Z M 14.33 27.33 L 14.33 21 L 10.33 24 Z" fill="var(--icon-secondary, #6c8ebf)" stroke="none" stroke-width="0"/><path d="M 35.33 42 L 28.67 42 L 19.67 24 L 12.67 24 M 13 42 L 19.33 42 L 28 24 L 35 24" fill="none" stroke="var(--icon-secondary, #6c8ebf)" stroke-width="2" stroke-linejoin="round"/><path d="M 32.67 38.67 L 32.67 45.33 L 36.67 42 Z" fill="var(--icon-secondary, #6c8ebf)" stroke="none" stroke-width="0"/></svg>