<svg xmlns="http://www.w3.org/2000/svg" viewBox="0 0 36.67 36.67" width="36.67" height="36.67"><path d="M 30.33 36.67 L 30.33 6 L 0 6 L 0 36.67 Z M 30.33 6 L 0 6 L 7.67 0 L 36.67 0 L 36.67 0 L 36.67 0 L 30.33 6 L 30.33 6 L 30.33 6 Z M 36.67 30.67 L 36.67 0 L 30.33 6 L 30.33 36.67 L 36.67 30.67 Z" fill="var(--icon-primary, #dae8fc)" stroke="var(--icon-secondary, #6c8ebf)" stroke-width="1" stroke-linejoin="round"/><rect x="0" y="0" width="0" height="0" fill="none" stroke="var(--icon-secondary, #6c8ebf)" stroke-width="1"/><path d="M 25.33 17 L 25.33 23.67 L 29.33 20.34 Z M 13 11.34 L 19.67 11.34 L 16.33 7.34 Z M 19.67 30.67 L 13 30.67 L 16.33 34.67 Z M 6.33 24.34 L 6.33 17.67 L 2.33 21 Z" fill="var(--icon-secondary, #6c8ebf)" stroke="none" stroke-width="0"/><path d="M 24.67 17.67 L 24.67 24.34 L 28.67 21 Z M 12.33 12 L 19 12 L 15.67 8 Z M 19 31.34 L 12.33 31.34 L 15.67 35.67 Z M 5.67 25 L 5.67 18.34 L 1.67 21.67 Z" fill="var(--icon-secondary, #6c8ebf)" stroke="none" stroke-width="0"/><path d="M 20.33 17 C 20.33 19.67 20.33 19.67 20.33 19.67 C 23.67 19.67 23.67 19.67 23.67 19.67 C 23.67 18 23.67 18 23.67 18 C 23.67 15 20 13.67 15.67 13.67 C 15.67 13.67 15.67 13.67 15.67 13.67 C 11.33 13.67 7.67 15 7.67 18 C 7.67 19.67 7.67 19.67 7.67 19.67 C 11 19.67 11 19.67 11 19.67 C 11 17 11 17 11 17 C 15.33 11.34 20.33 17 20.33 17 Z M 16.33 16.34 L 19 16.34 L 19 19.34 L 22.33 22 L 22.33 28.34 L 16.33 28.34 L 15 28.34 L 9 28.34 L 9 22 L 12.33 19.34 L 12.33 16.34 L 15 16.34 Z" fill="var(--icon-secondary, #6c8ebf)" stroke="none" stroke-width="0"/><path d="M 20.33 18 C 20.33 20.34 20.33 20.34 20.33 20.34 C 23.67 20.34 23.67 20.34 23.67 20.34 C 23.67 18.67 23.67 18.67 23.67 18.67 C 23.67 15.67 20 14.34 15.67 14.34 C 15.67 14.34 15.67 14.34 15.67 14.34 C 11.33 14.34 7.67 15.67 7.67 18.67 C 7.67 20.34 7.67 20.34 7.67 20.34 C 11 20.34 11 20.34 11 20.34 C 11 18 11 18 11 18 C 15.33 12.34 20.33 18 20.33 18 Z M 16.33 17 L 19 17 L 19 20.34 L 22.33 23 L 22.33 29 L 16.33 29 L 15 29 L 9 29 L 9 23 L 12.33 20.34 L 12.33 17 L 15 17 Z" fill="var(--icon-secondary, #6c8ebf)" stroke="none" stroke-width="0"/></svg>