<svg xmlns="http://www.w3.org/2000/svg" viewBox="0 0 49 44" width="49" height="44"><rect x="0" y="0" width="0" height="0" fill="none" stroke="var(--icon-secondary, #6c8ebf)" stroke-width="1"/><path d="M 42 37.67 L 42 29.67 L 0 29.67 L 0 37.67 Z" fill="var(--icon-primary, #dae8fc)" stroke="var(--icon-secondary, #6c8ebf)" stroke-width="1" stroke-linejoin="round"/><path d="M 29 34 L 39.66 34" fill="none" stroke="var(--icon-secondary, #6c8ebf)" stroke-width="1" stroke-linejoin="round"/><path d="M 49 23 L 7 23 L 0 29.67 L 42 29.67 Z" fill="var(--icon-primary, #dae8fc)" stroke="var(--icon-secondary, #6c8ebf)" stroke-width="1" stroke-linejoin="round"/><path d="M 49 30 L 49 23 L 42 29.67 L 42 37.67 Z M 34.66 44 L 34.66 42.33 L 38.33 37 L 38.33 40.33 Z M 34.66 42.33 L 34.66 44 L 1 44 L 1 42.33 Z M 34.66 42.33 L 1 42.33 L 4.66 37 L 38.33 37 Z M 36.33 25.67 L 36.33 4.67 L 7.66 4.67 L 7.66 25.67 Z" fill="var(--icon-primary, #dae8fc)" stroke="var(--icon-secondary, #6c8ebf)" stroke-width="1" stroke-linejoin="round"/><path d="M 10 9.33 C 10 7 12 6.67 12 6.67 C 12 6.67 29.33 6.67 31.33 6.67 C 34 6.67 34 9.33 34 9.33 C 34 9.33 34 19.67 34 21.33 C 34 22.67 31.66 23.33 31.66 23.33 C 31.66 23.33 14.33 23.33 12.33 23.33 C 10.66 23.33 10 21.33 10 21.33 Z" fill="none" stroke="var(--icon-secondary, #6c8ebf)" stroke-width="1" stroke-linejoin="round"/><path d="M 41.33 0 L 12.33 0 L 7.66 4.67 L 36.33 4.67 Z" fill="var(--icon-primary, #dae8fc)" stroke="var(--icon-secondary, #6c8ebf)" stroke-width="1" stroke-linejoin="round"/><path d="M 41.33 21.33 L 41.33 0 L 36.33 4.67 L 36.33 25.67 Z" fill="var(--icon-primary, #dae8fc)" stroke="var(--icon-secondary, #6c8ebf)" stroke-width="1" stroke-linejoin="round"/></svg>