<svg xmlns="http://www.w3.org/2000/svg" viewBox="0 0 40 54" width="40" height="54"><path d="M 19 51 L 19 36.34 L 15.67 39.67 L 15.67 54 Z" fill="var(--icon-primary, #dae8fc)" stroke="var(--icon-secondary, #6c8ebf)" stroke-width="1"/><path d="M 15.67 54 L 15.67 39.67 L 0 39.67 L 0 54 Z M 33 54 L 33 39.67 L 17 39.67 L 17 54 Z M 40 32.67 L 40 0 L 33 6.34 L 33 39.34 Z M 40 47.67 L 40 33 L 33 39.67 L 33 54 Z M 40 0 L 33 6.34 L 0 6.34 L 8.33 0 Z M 33 39.34 L 33 6.34 L 0 6.34 L 0 39.34 Z" fill="var(--icon-primary, #dae8fc)" stroke="var(--icon-secondary, #6c8ebf)" stroke-width="1" stroke-linejoin="round"/><path d="M 13.33 19 L 8.33 14 L 9.33 13 L 6 12.34 L 6.67 15.67 L 7.67 14.67 L 12.67 19.67 Z M 11.67 22.34 L 4.67 22.34 L 4.67 21 L 1.67 22.67 L 4.67 24.67 L 4.67 23.34 L 11.67 23.34 Z M 12.67 26 L 7.67 31 L 6.67 30 L 6 33.34 L 9.33 32.67 L 8.33 31.67 L 13.33 26.67 Z M 16 27.67 L 16 35 L 14.67 35 L 16.67 37.67 L 18.33 35 L 17 35 L 17 27.67 Z M 16 18 L 16 11 L 14.67 11 L 16.67 8.34 L 18.33 11 L 17 11 L 17 18 Z M 19.67 26.67 L 24.67 31.67 L 23.67 32.67 L 27 33.34 L 26.33 30 L 25.33 31 L 20.33 26 Z M 21.33 23.34 L 28.67 23.34 L 28.67 24.67 L 31.33 22.67 L 28.67 21 L 28.67 22.34 L 21.33 22.34 Z M 20.33 19.67 L 25.33 14.67 L 26.33 15.67 L 27 12.34 L 23.67 13 L 24.67 14 L 19.67 19 Z M 3 43.34 L 4 43.34 L 2.33 41 L 1 43.34 L 2 43.34 L 2 50.67 L 1 50.67 L 2.33 53 L 4 50.67 L 3 50.67 Z M 6.67 43.34 L 7.67 43.34 L 6 41 L 4.67 43.34 L 5.67 43.34 L 5.67 50.67 L 4.67 50.67 L 6 53 L 7.67 50.67 L 6.67 50.67 Z M 10 43.34 L 11.33 43.34 L 9.67 41 L 8 43.34 L 9.33 43.34 L 9.33 50.67 L 8 50.67 L 9.67 53 L 11 50.67 L 10 50.67 Z M 13.67 43.34 L 14.67 43.34 L 13.33 41 L 11.67 43.34 L 12.67 43.34 L 12.67 50.67 L 11.67 50.67 L 13.33 53 L 14.67 50.67 L 13.67 50.67 Z M 20 43.34 L 21 43.34 L 19.67 41 L 18 43.34 L 19 43.34 L 19 50.67 L 18 50.67 L 19.67 53 L 21 50.67 L 20 50.67 Z M 23.67 43.34 L 24.67 43.34 L 23.33 41 L 21.67 43.34 L 22.67 43.34 L 22.67 50.67 L 21.67 50.67 L 23.33 53 L 24.67 50.67 L 23.67 50.67 Z M 27.33 43.34 L 28.33 43.34 L 27 41 L 25.33 43.34 L 26.33 43.34 L 26.33 50.67 L 25.33 50.67 L 27 53 L 28.33 50.67 L 27.33 50.67 Z M 31 43.34 L 32 43.34 L 30.67 41 L 29 43.34 L 30 43.34 L 30 50.67 L 29 50.67 L 30.67 53 L 32 50.67 L 31 50.67 Z" fill="var(--icon-secondary, #6c8ebf)" stroke="none" stroke-width="0"/></svg>