<svg xmlns="http://www.w3.org/2000/svg" viewBox="0 0 49.34 44" width="49.34" height="44"><path d="M 42 37.33 L 42 29.66 L 0 29.66 L 0 37.33 Z" fill="var(--icon-primary, #dae8fc)" stroke="var(--icon-secondary, #6c8ebf)" stroke-width="1" stroke-linejoin="round"/><path d="M 29.34 33.66 L 40 33.66" fill="none" stroke="var(--icon-secondary, #6c8ebf)" stroke-width="1" stroke-linejoin="round"/><path d="M 49.34 23 L 7.34 23 L 0 29.66 L 42 29.66 Z" fill="var(--icon-primary, #dae8fc)" stroke="var(--icon-secondary, #6c8ebf)" stroke-width="1" stroke-linejoin="round"/><path d="M 49.34 30 L 49.34 23 L 42 29.66 L 42 37.33 Z M 34.67 44 L 34.67 42 L 38.34 36.66 L 38.34 40 Z M 34.67 42 L 34.67 44 L 1 44 L 1 42 Z M 34.67 42 L 1 42 L 5 36.66 L 38.34 36.66 Z M 36.67 25.66 L 36.67 4.33 L 7.67 4.33 L 7.67 25.66 Z" fill="var(--icon-primary, #dae8fc)" stroke="var(--icon-secondary, #6c8ebf)" stroke-width="1" stroke-linejoin="round"/><path d="M 10 9 C 10 7 12.34 6.66 12.34 6.66 C 12.34 6.66 29.34 6.66 31.34 6.66 C 34 6.66 34 9.33 34 9.33 C 34 9.33 34 19.66 34 21 C 34 22.66 32 23.33 32 23.33 C 32 23.33 14.67 23.33 12.67 23.33 C 10.67 23.33 10 21.33 10 21.33 Z" fill="none" stroke="var(--icon-secondary, #6c8ebf)" stroke-width="1" stroke-linejoin="round"/><path d="M 41.34 0 L 12.67 0 L 7.67 4.33 L 36.67 4.33 Z" fill="var(--icon-primary, #dae8fc)" stroke="var(--icon-secondary, #6c8ebf)" stroke-width="1" stroke-linejoin="round"/><path d="M 41.34 21 L 41.34 0 L 36.67 4.33 L 36.67 25.66 Z" fill="var(--icon-primary, #dae8fc)" stroke="var(--icon-secondary, #6c8ebf)" stroke-width="1" stroke-linejoin="round"/><rect x="0" y="0" width="0" height="0" fill="none" stroke="var(--icon-secondary, #6c8ebf)" stroke-width="1"/><path d="M 21.67 15.33 L 21.67 19.33 L 19.67 19.33 L 22.34 22.33 L 25 19.33 L 23 19.33 L 23 15.33 Z M 21.67 14.33 L 21.67 10.33 L 19.67 10.33 L 22.34 7.33 L 25 10.33 L 23 10.33 L 23 14.33 Z M 31.34 16.33 L 27.34 16.33 L 27.34 18.33 L 24.34 15.33 L 27.34 12.66 L 27.34 14.66 L 31.34 14.66 Z M 13 16.33 L 17 16.33 L 17 18.33 L 20 15.33 L 17 12.66 L 17 14.66 L 13 14.66 Z" fill="var(--icon-secondary, #6c8ebf)" stroke="none" stroke-width="0"/><path d="M 21 15.33 L 21 19.33 L 19 19.33 L 21.67 22.33 L 24.67 19.33 L 22.67 19.33 L 22.67 15.33 Z M 21 14.33 L 21 10.66 L 19 10.66 L 21.67 7.33 L 24.67 10.66 L 22.67 10.66 L 22.67 14.33 Z M 30.67 15.66 L 27 15.66 L 27 17.66 L 23.67 15 L 27 12 L 27 14.33 L 30.67 14.33 Z M 13 15.66 L 17 15.66 L 17 17.66 L 20 15 L 17 12 L 17 14.33 L 13 14.33 Z" fill="var(--icon-secondary, #6c8ebf)" stroke="none" stroke-width="0"/></svg>