<svg xmlns="http://www.w3.org/2000/svg" viewBox="0 0 57.34 54.33" width="57.34" height="54.33"><rect x="0" y="0" width="0" height="0" fill="none" stroke="var(--icon-secondary, #6c8ebf)" stroke-width="1"/><path d="M 50.34 48 L 50.34 40 L 8.34 40 L 8.34 48 Z" fill="var(--icon-primary, #dae8fc)" stroke="var(--icon-secondary, #6c8ebf)" stroke-width="1" stroke-linejoin="round"/><path d="M 37.34 44 L 48 44" fill="none" stroke="var(--icon-secondary, #6c8ebf)" stroke-width="1" stroke-linejoin="round"/><path d="M 57.34 40.33 L 57.34 33.33 L 50.34 40 L 50.34 48 Z M 43 54.33 L 43 52.67 L 46.67 47.33 L 46.67 50.33 Z M 43 52.67 L 43 54.33 L 9.34 54.33 L 9.34 52.67 Z M 43 52.67 L 9.34 52.67 L 13 47.33 L 46.67 47.33 Z M 57.34 33.33 L 15.34 33.33 L 8.34 40 L 50.34 40 Z M 49.34 33.33 L 21.34 33.33 L 16.67 37.67 L 44.67 37.67 Z" fill="var(--icon-primary, #dae8fc)" stroke="var(--icon-secondary, #6c8ebf)" stroke-width="1" stroke-linejoin="round"/><path d="M 44.67 36 L 44.67 15 L 16 15 L 16 36 Z" fill="var(--icon-primary, #dae8fc)" stroke="var(--icon-secondary, #6c8ebf)" stroke-width="1" stroke-linejoin="round"/><path d="M 18.34 19.67 C 18.34 17.33 20.34 17 20.34 17 C 20.34 17 37.67 17 39.67 17 C 42.34 17 42.34 19.67 42.34 19.67 C 42.34 19.67 42.34 30 42.34 31.67 C 42.34 33 40 33.67 40 33.67 C 40 33.67 37 33.67 33 33.67 C 28 33.67 22 33.67 20.67 33.67 C 19 33.67 18.34 31.67 18.34 31.67 Z" fill="var(--icon-primary, #dae8fc)" stroke="var(--icon-secondary, #6c8ebf)" stroke-width="1" stroke-linejoin="round"/><path d="M 49.67 10.33 L 20.67 10.33 L 16 15 L 44.67 15 Z" fill="var(--icon-primary, #dae8fc)" stroke="var(--icon-secondary, #6c8ebf)" stroke-width="1" stroke-linejoin="round"/><path d="M 49.67 31.67 L 49.67 10.33 L 44.67 14.67 L 44.67 36 Z" fill="var(--icon-primary, #dae8fc)" stroke="var(--icon-secondary, #6c8ebf)" stroke-width="1" stroke-linejoin="round"/><path d="M 26.67 25.67 L 26.67 0 L 26 0.67 L 26 26.33 Z M 1 26.33 L 26 26.33 L 26 0.33 L 0 0.33 L 0 25.33 Z" fill="var(--icon-primary, #dae8fc)" stroke="var(--icon-secondary, #6c8ebf)" stroke-width="1" stroke-linejoin="round"/><path d="M 24 0.33 C 24 15.33 24 15.33 24 15.33 C 24 16.67 23 16.33 23 16.33 C 2.67 16.33 2.67 16.33 2.67 16.33 C 2.67 16.33 2 16.33 2 15.67 C 2 0.33 2 0.33 2 0.33" fill="var(--icon-primary, #dae8fc)" stroke="var(--icon-secondary, #6c8ebf)" stroke-width="1" stroke-linejoin="round"/><path d="M 24 0.33 C 24 15.33 24 15.33 24 15.33 C 24 16.67 23 16.33 23 16.33 C 2.67 16.33 2.67 16.33 2.67 16.33 C 2.67 16.33 2 16.33 2 15.67 C 2 0.33 2 0.33 2 0.33" fill="var(--icon-primary, #dae8fc)" stroke="var(--icon-secondary, #6c8ebf)" stroke-width="1" stroke-linejoin="round"/><rect x="0.34" y="2" width="1" height="1" fill="none" stroke="var(--icon-secondary, #6c8ebf)" stroke-width="1" stroke-linejoin="round"/><rect x="24.34" y="2" width="1" height="1" fill="none" stroke="var(--icon-secondary, #6c8ebf)" stroke-width="1" stroke-linejoin="round"/><path d="M 19.67 19 C 19.67 26 19.67 26 19.67 26 C 4.34 26 4.34 26 4.34 26 C 4.34 18.67 4.34 18.67 4.34 18.67 C 4.34 18 5 18 5 18 C 19 18 19 18 19 18 C 19.67 18 19.67 19 19.67 19 Z" fill="var(--icon-secondary, #6c8ebf)" stroke="none" stroke-width="0"/><path d="M 24 26.33 C 24 19 24 19 24 19 C 24 19 24 18 23 18 C 5 18 5 18 5 18 C 5 18 4.34 18 4.34 18.67 C 4.34 26 4.34 26 4.34 26" fill="none" stroke="var(--icon-secondary, #6c8ebf)" stroke-width="1" stroke-linejoin="round"/><path d="M 10.34 25.67 L 10.34 18.67 L 7.34 18.67 L 7.34 25.67 L 10.34 25.67 Z" fill="var(--icon-secondary, #6c8ebf)" stroke="none" stroke-width="0"/></svg>