<svg xmlns="http://www.w3.org/2000/svg" viewBox="0 0 38.34 33.34" width="38.34" height="33.34"><path d="M 0 33.34 C 3.34 13 3.34 13 3.34 13 C 3.34 21.67 10.67 28.67 19.34 28.67 C 28 28.67 35.34 21.67 35.34 13 C 38.34 33.34 38.34 33.34 38.34 33.34 Z M 19.34 26.34 C 26.34 26.34 32.34 20.67 32.34 13.34 C 32.34 6 26.34 0 19.34 0 C 12 0 6 6 6 13.34 C 6 20.67 12 26.34 19.34 26.34 Z" fill="var(--icon-primary, #dae8fc)" stroke="var(--icon-secondary, #6c8ebf)" stroke-width="1" stroke-linejoin="round"/><rect x="0" y="0" width="0" height="0" fill="none" stroke="var(--icon-secondary, #6c8ebf)" stroke-width="1"/><path d="M 28 16.67 L 28 10.67 L 10 10.67 L 10 16.67 Z" fill="var(--icon-primary, #dae8fc)" stroke="var(--icon-secondary, #6c8ebf)" stroke-width="1"/></svg>