<svg xmlns="http://www.w3.org/2000/svg" viewBox="0 0 45.34 63.33" width="45.34" height="63.33"><path d="M 32 12.66 C 32.67 11.66 32.67 11.33 35 7.66 C 37.67 2.66 34 0.33 30.34 5.33 C 26.67 10.66 26 12 24 14.33 C 22 16.66 18 25.66 15.67 28.33 C 14.34 30 16.34 23.33 16.34 21.66 C 15.67 17.66 15.67 18 15.34 16.66 C 14.67 15 12 12.66 11.34 14.66 C 11 16 11 16 11.34 17.33 C 11.34 18 11 17.66 11 21 C 11.34 22.66 8.34 28 7.34 30.33 C 5.67 35.66 7.67 35.66 7 40 C 6 44.66 7 43.66 6.34 45.66 C 5.34 47.66 0.67 55 0 56.33 M 17.34 30.33 C 20 32 17.34 40.66 17.34 40.66 M 16 30 C 15.34 29 15.34 28.33 15.34 28.33 M 14.67 63.33 C 16 61.66 21.67 53 22.34 53 C 28.34 51.33 35 38 38 34.33 C 39 33.33 39.34 31.66 39.67 31 C 40 30.66 41.34 27.66 42 26.33 C 43.34 21 43.34 21 43.34 21 C 43.34 16.33 43.34 16.33 43.34 16.33 C 43.34 16.33 41.34 11.66 40.34 17.66 C 39.67 21.33 39.67 21.33 39.67 21.33 C 39.34 22 38 23.66 37.67 24.66 C 37.34 25.33 35.34 28 35.34 29.33 M 14.67 63.33 C 16 61.66 21.67 53 22.34 53 C 28.34 51.33 35 38 38 34.33 C 39 33.33 39.34 31.66 39.67 31 C 40 30.66 41.34 27.66 42 26.33 C 43.34 21 43.34 21 43.34 21 C 43.34 16.33 43.34 16.33 43.34 16.33 C 43.34 16.33 41.34 11.66 40.34 17.66 C 39.67 21.33 39.67 21.33 39.67 21.33 C 39.34 22 38 23.66 37.67 24.66 C 37.34 25.33 35.34 28 35.34 29.33 M 35.34 6.66 C 36.34 5.33 36.34 5.33 36.67 5 C 40 0 43.34 2.33 41 7 C 39 11 39 11.33 38 12.33 C 37 14.66 35.67 17.33 34.67 19 M 38.67 11.66 C 42 6.66 45.34 9 43.34 13.66 C 41.34 17.33 41 17.66 40.34 19 C 39 21.66 39.67 21 38.67 23" fill="none" stroke="var(--icon-secondary, #6c8ebf)" stroke-width="1"/><path d="M 7.67 36.66 L 28.67 36.66 L 42.34 11.66 L 22 11.66 Z M 7.67 36.66 L 7.67 40.66 L 28.67 40.66 L 28.67 36.66 Z M 42.34 11.66 L 42.34 15.66 L 28.67 40.66 L 28.67 36.66 Z" fill="var(--icon-primary, #dae8fc)" stroke="var(--icon-secondary, #6c8ebf)" stroke-width="1" stroke-linecap="round" stroke-linejoin="round"/><path d="M 38.67 14.33 L 29.67 31 L 13.34 31 L 23 14.33 Z M 14 33 L 13 35 L 11.34 35 L 12.34 33 Z M 28.67 33 L 27.67 35 L 26 35 L 27 33 Z M 25 33 L 24 35 L 22.34 35 L 23.34 33 Z M 21.34 33 L 20.34 35 L 18.34 35 L 19.34 33 Z M 17.67 33 L 16.67 35 L 14.67 35 L 15.67 33 Z" fill="var(--icon-secondary, #6c8ebf)" stroke="none" stroke-width="0"/></svg>