<svg xmlns="http://www.w3.org/2000/svg" viewBox="0 0 66.66 29.66" width="66.66" height="29.66"><path d="M 0 29.66 L 0 23 L 54.66 23 L 54.66 29.66 Z M 54.66 23 L 0 23 L 13.33 3.66 L 66.66 3.66 Z M 66.66 3.66 L 66.66 16 L 54.66 29.66 L 54.66 23 Z M 3.66 21 L 7.66 15.33 L 36 15.33 L 32 21 Z" fill="var(--icon-primary, #dae8fc)" stroke="var(--icon-secondary, #6c8ebf)" stroke-width="1" stroke-linejoin="round"/><path d="M 7.66 15.33 L 11.33 9.66 M 36 15.33 L 40 9.66 M 54.66 23 L 66.66 3.66" fill="none" stroke="var(--icon-secondary, #6c8ebf)" stroke-width="1" stroke-linejoin="round"/><path d="M 49 7.33 C 47.33 9.33 45 11.66 43.66 13.66 C 43.66 15.33 43.66 15.33 43.66 15.33 C 39.66 21.66 39.66 21.66 39.66 21.66 C 39 17.66 39 17.66 39 17.66 C 40 14.33 50 1.66 52.33 0 C 52.66 4.33 52.66 4.33 52.66 4.33 C 49 8.66 49 8.66 49 8.66 Z" fill="var(--icon-primary, #dae8fc)" stroke="var(--icon-secondary, #6c8ebf)" stroke-width="1" stroke-linejoin="round"/><path d="M 34 17.66 L 33.66 21.66 L 39.66 21.66 L 39 17.66 Z" fill="none" stroke="var(--icon-secondary, #6c8ebf)" stroke-width="0.67" stroke-linejoin="round"/><path d="M 52.33 0 C 50 1.66 40 14.33 39 17.66 C 34 17.66 34 17.66 34 17.66 C 35 14.33 45 1.66 47.33 0 Z" fill="var(--icon-primary, #dae8fc)" stroke="var(--icon-secondary, #6c8ebf)" stroke-width="0.67" stroke-linejoin="round"/><rect x="0" y="0" width="0" height="0" fill="none" stroke="var(--icon-secondary, #6c8ebf)" stroke-width="1"/><path d="M 43.66 21 L 49.33 12.33 L 58.33 12.33 L 53 21 Z" fill="none" stroke="var(--icon-secondary, #6c8ebf)" stroke-width="1"/><path d="M 50 21 L 55.33 12.33 M 46.66 21 L 52.33 12.33 M 54.33 18.66 L 45 18.66 M 55.66 16.66 L 46.66 16.66 M 57 14.66 L 48 14.66" fill="none" stroke="var(--icon-secondary, #6c8ebf)" stroke-width="1"/></svg>