<svg xmlns="http://www.w3.org/2000/svg" viewBox="0 0 40.33 29.66" width="40.33" height="29.66"><path d="M 0 29.66 L 0 23 L 28.33 23 L 28.33 29.66 Z M 28.33 23 L 0 23 L 13.33 3.66 L 40.33 3.66 Z M 40.33 3.66 L 40.33 16 L 28.33 29.66 L 28.33 23 Z" fill="var(--icon-primary, #dae8fc)" stroke="var(--icon-secondary, #6c8ebf)" stroke-width="1" stroke-linejoin="round"/><path d="M 22.33 7.33 C 20.66 9.33 18.33 11.66 17 13.66 C 17.33 15.33 17.33 15.33 17.33 15.33 C 13 21.66 13 21.66 13 21.66 C 12.66 17.66 12.66 17.66 12.66 17.66 C 13.33 14.33 23.33 1.66 25.66 0 C 26 4.33 26 4.33 26 4.33 C 22.33 8.66 22.33 8.66 22.33 8.66 Z" fill="var(--icon-primary, #dae8fc)" stroke="var(--icon-secondary, #6c8ebf)" stroke-width="1" stroke-linejoin="round"/><path d="M 7.33 17.66 L 7 21.66 L 13 21.66 L 12.66 17.66 Z" fill="var(--icon-primary, #dae8fc)" stroke="var(--icon-secondary, #6c8ebf)" stroke-width="1" stroke-linejoin="round"/><path d="M 25.66 0 C 23.33 1.66 13.33 14.33 12.66 17.66 C 7.33 17.66 7.33 17.66 7.33 17.66 C 8.33 14.33 18.33 1.66 20.66 0 Z" fill="var(--icon-primary, #dae8fc)" stroke="var(--icon-secondary, #6c8ebf)" stroke-width="1" stroke-linejoin="round"/><rect x="0" y="0" width="0" height="0" fill="none" stroke="var(--icon-secondary, #6c8ebf)" stroke-width="1"/><path d="M 17 21 L 23 12.33 L 31.66 12.33 L 26.66 21 Z" fill="var(--icon-primary, #dae8fc)" stroke="var(--icon-secondary, #6c8ebf)" stroke-width="1"/><path d="M 23.33 21 L 28.66 12.33 M 20 21 L 26 12.33 M 28 18.66 L 18.67 18.66 M 29 16.66 L 20 16.66 M 30.33 14.66 L 21.33 14.66" fill="none" stroke="var(--icon-secondary, #6c8ebf)" stroke-width="1"/></svg>