<svg xmlns="http://www.w3.org/2000/svg" viewBox="0 0 48 32.67" width="48" height="32.67"><path d="M 48 9.33 C 48 14.67 37.34 18.67 24 18.67 C 10.67 18.67 0 14.67 0 9.33 C 0 23 0 23 0 23 C 0 28.33 10.67 32.67 24 32.67 C 37.34 32.67 48 28.33 48 23 Z M 24 18.67 C 37.34 18.67 48 14.67 48 9.33 C 48 4.33 37.34 0 24 0 C 10.67 0 0 4.33 0 9.33 C 0 14.67 10.67 18.67 24 18.67 Z" fill="var(--icon-primary, #dae8fc)" stroke="var(--icon-secondary, #6c8ebf)" stroke-width="1" stroke-linejoin="round"/><path d="M 17 14.67 L 17 2.33 L 28.34 8.33 Z" fill="var(--icon-secondary, #6c8ebf)" stroke="none" stroke-width="0"/><rect x="28.67" y="3" width="3.67" height="11" fill="var(--icon-secondary, #6c8ebf)" stroke="none" stroke-width="0"/></svg>