<svg xmlns="http://www.w3.org/2000/svg" viewBox="0 0 76 48" width="76" height="48"><rect x="0" y="0" width="0" height="0" fill="none" stroke="var(--icon-secondary, #6c8ebf)" stroke-width="1"/><path d="M 69.67 30.67 L 74.34 6.33 L 39 6.33 L 33.67 30.67 Z M 74.34 6.33 L 76 8 L 71.67 32 L 69.67 30.67 Z M 33.67 30.67 L 35.34 32 L 71.67 32 L 69.67 30.67 Z" fill="var(--icon-primary, #dae8fc)" stroke="var(--icon-secondary, #6c8ebf)" stroke-width="1" stroke-linejoin="round"/><path d="M 70 32.33 C 70 36 70 36 70 36 C 69.34 37 69.34 37 69.34 37 C 69.34 37 67 37.67 67.34 39 C 57.67 48 57.67 48 57.67 48 C 57.67 44 57.67 44 57.67 44 Z" fill="var(--icon-primary, #dae8fc)" stroke="var(--icon-secondary, #6c8ebf)" stroke-width="1" stroke-linejoin="round"/><path d="M 18.67 44 L 18.67 48 L 57.67 48 L 57.67 44 Z" fill="var(--icon-primary, #dae8fc)" stroke="var(--icon-secondary, #6c8ebf)" stroke-width="1" stroke-linejoin="round"/><path d="M 34 32.67 L 70 32.33 L 57.67 44 L 18.67 44 Z M 66.67 28.33 L 70.67 9.33 L 41.67 9.33 L 38 28.33 Z" fill="var(--icon-primary, #dae8fc)" stroke="var(--icon-secondary, #6c8ebf)" stroke-width="1" stroke-linejoin="round"/><path d="M 35 33 L 26 40.33 M 38 33 L 28.67 40.33 M 40.67 33 L 31.67 40.33 M 43.67 33 L 34.67 40.33 M 46.67 33 L 37.67 40.33 M 49.67 33 L 40.34 40.33 M 52.34 33 L 43.34 40.33 M 55.34 33 L 46.34 40.33 M 58.34 33 L 49.34 40.33 M 61.34 33 L 52 40.33 M 64 33 L 55 40.33 M 67 33 L 58 40.33 M 27 39.67 L 59.34 39.67 M 29 38 L 61 38 M 31.34 36.33 L 63 36.33 M 33.34 34.67 L 65.34 34.67" fill="none" stroke="var(--icon-secondary, #6c8ebf)" stroke-width="1" stroke-linejoin="round"/><path d="M 56.34 14 C 58.67 16 61.34 19.33 61.67 21.33 C 61.67 23 60.67 23.67 60 24.33 C 59 25 57.34 25 57.34 25 C 55.34 22.67 55.34 22.67 55.34 22.67 C 55.34 22.67 59.34 22.33 58.67 20 C 58 18 54 12 56.34 14" fill="var(--icon-secondary, #6c8ebf)" stroke="none" stroke-width="0"/><path d="M 57 20 L 58.67 27 L 54.34 24.67 L 57 20 Z" fill="var(--icon-secondary, #6c8ebf)" stroke="none" stroke-width="0"/><path d="M 52 25 C 49.34 23 46.67 19.67 46.67 17.67 C 46.34 16 47.34 15.33 48.34 14.67 C 49 14 50.67 14 50.67 14 C 52.67 16.33 52.67 16.33 52.67 16.33 C 52.67 16.33 49 16.67 49.34 19 C 50 21 54.34 27 52 25" fill="var(--icon-secondary, #6c8ebf)" stroke="none" stroke-width="0"/><path d="M 51.34 19 L 49.34 12 L 54 14.67" fill="var(--icon-secondary, #6c8ebf)" stroke="none" stroke-width="0"/><path d="M 55.34 5.67 C 57 5.67 58.34 4.33 58.34 3 C 58.34 1.33 57 0 55.34 0 C 54 0 52.67 1.33 52.67 3 C 52.67 4.33 54 5.67 55.34 5.67 Z" fill="var(--icon-primary, #dae8fc)" stroke="var(--icon-secondary, #6c8ebf)" stroke-width="1"/><path d="M 51.34 7.33 C 52 2.67 52 2.67 52 2.67 C 52 4.67 53.67 6.33 55.67 6.33 C 57.34 6.33 59 4.67 59 2.67 C 59.67 7.33 59.67 7.33 59.67 7.33 Z" fill="var(--icon-primary, #dae8fc)" stroke="none" stroke-width="0"/><path d="M 57.34 3.67 L 57.34 2.33 L 53.67 2.33 L 53.67 3.67 Z" fill="var(--icon-secondary, #6c8ebf)" stroke="none" stroke-width="0"/><path d="M 3.34 39 C 3.67 39.67 3.34 40.67 2.34 41 C 1.67 41.33 0.67 41 0.34 40.33 C 0 39.33 0.34 38.67 1.34 38.33 C 2 38 3 38.33 3.34 39 Z" fill="var(--icon-secondary, #6c8ebf)" stroke="none" stroke-width="0"/><path d="M 31 29.67 C 31.67 31 31 32.67 29.67 33.33 C 28.34 33.67 27 33 26.34 32 C 25.67 30.67 26.34 29 27.67 28.33 C 29 28 30.34 28.67 31 29.67 Z" fill="var(--icon-secondary, #6c8ebf)" stroke="none" stroke-width="0"/><path d="M 10.34 30.33 C 10.67 31 10.34 32 9.67 32.33 C 8.67 32.67 8 32.33 7.67 31.33 C 7.34 30.67 7.67 30 8.34 29.67 C 9 29.33 10 29.67 10.34 30.33 Z" fill="var(--icon-secondary, #6c8ebf)" stroke="none" stroke-width="0"/><path d="M 28 30.67 C 24.67 34 17 37.67 10.34 39.33 C 6 40.67 3 40.67 1.67 39.67" fill="none" stroke="var(--icon-secondary, #6c8ebf)" stroke-width="0.67" stroke-linejoin="round"/><path d="M 9 31 C 9 28.33 9.67 25.33 11 22.33 C 14.67 15 22 10.67 27.34 12.33 C 32.34 14.33 33.67 21.67 30 28.67 C 29.34 29.67 29 30.33 28.67 30.67" fill="none" stroke="var(--icon-secondary, #6c8ebf)" stroke-width="1.33" stroke-linejoin="round"/></svg>