<svg xmlns="http://www.w3.org/2000/svg" viewBox="0 0 34.67 35.34" width="34.67" height="35.34"><path d="M 28.67 35.34 L 28.67 6 L 0 6 L 0 35.34 Z M 28.67 6 L 0 6 L 7.34 0 L 34.67 0 L 34.67 0.34 L 34.67 29.34 L 28.67 35.34 L 28.67 6 L 28.67 6 Z M 28.67 6 L 34.67 0" fill="var(--icon-primary, #dae8fc)" stroke="var(--icon-secondary, #6c8ebf)" stroke-width="1" stroke-linejoin="round"/><path d="M 14.34 15.34 L 23.34 15.34" fill="none" stroke="var(--icon-secondary, #6c8ebf)" stroke-width="1.67" stroke-linejoin="round"/><path d="M 23.67 12.67 L 23.67 18 L 26.67 15.34 Z M 23.67 23 L 23.67 28 L 26.67 25.67 Z M 6.67 11.34 L 11.67 11.34 L 9.34 8.34 Z M 16.67 11.34 L 22 11.34 L 19.34 8.34 Z M 22 29.67 L 17 29.67 L 19.34 32.67 Z M 12 29.67 L 7 29.67 L 9.34 32.67 L 12 29.67 Z M 5.34 28.34 L 5.34 23.34 L 2.34 25.67 Z M 5.34 18 L 5.34 13 L 2.34 15.34 Z" fill="var(--icon-secondary, #6c8ebf)" stroke="none" stroke-width="0"/><path d="M 14.34 25.67 L 23.34 25.67 M 9.34 20.67 L 9.34 11.67 M 19.34 20.67 L 19.34 11.67 M 19.34 20.67 L 19.34 29.34 M 9.34 20.67 L 9.34 29.34 M 14.34 25.67 L 5.67 25.67 M 14.34 15.34 L 5.67 15.34" fill="none" stroke="var(--icon-secondary, #6c8ebf)" stroke-width="1.67" stroke-linejoin="round"/><rect x="0" y="0" width="0" height="0" fill="none" stroke="var(--icon-secondary, #6c8ebf)" stroke-width="1"/><path d="M 14.34 26.67 C 17.67 26.67 20.34 24 20.34 20.67 C 20.34 17.34 17.67 14.34 14.34 14.34 C 11 14.34 8.34 17.34 8.34 20.67 C 8.34 24 11 26.67 14.34 26.67 Z" fill="var(--icon-primary, #dae8fc)" stroke="var(--icon-secondary, #6c8ebf)" stroke-width="0.67"/></svg>