<svg xmlns="http://www.w3.org/2000/svg" viewBox="0 0 30.67 47.33" width="30.67" height="47.33"><path d="M 0 47.33 L 0 5 L 24.67 5 L 24.67 47.33 Z M 7.33 0 L 0 5 L 24.67 5 L 30.67 0 Z M 30.67 39.67 L 30.67 0 L 24.67 5 L 24.67 47.33 Z" fill="var(--icon-primary, #dae8fc)" stroke="var(--icon-secondary, #6c8ebf)" stroke-width="1" stroke-linejoin="round"/><path d="M 18.67 14.67 L 18.67 29.33 L 17.67 29.33 L 17.67 14.67 L 15.67 14.67 L 18 11.67 L 20.33 14.67 Z M 6.33 26.33 L 6.33 11.67 L 5.33 11.67 L 5.33 26.33 L 3.67 26.33 L 6 29.33 L 8 26.33 Z" fill="var(--icon-secondary, #6c8ebf)" stroke="none" stroke-width="0"/><path d="M 17 38.33 C 15.33 38.33 15.33 38.33 15.33 38.33 C 17.67 35.33 17.67 35.33 17.67 35.33 C 20 38.33 20 38.33 20 38.33 C 18.33 38.33 18.33 38.33 18.33 38.33 C 17.67 41 14.67 43 12 43 C 9 43 5.67 40.33 5.67 36.67 C 6.67 36.67 6.67 36.67 6.67 36.67 C 6.67 39.67 9.33 41.67 12 41.67 C 14 41.67 16.33 40.33 17 38.33 Z" fill="var(--icon-secondary, #6c8ebf)" stroke="none" stroke-width="0"/></svg>