<svg xmlns="http://www.w3.org/2000/svg" viewBox="0 0 40 51.33" width="40" height="51.33"><path d="M 0 51.33 L 0 19 L 35.66 19 L 35.66 51.33 Z M 40 47 L 40 14.33 L 35.66 19 L 35.66 51.33 Z M 6.33 0 L 0 4.33 L 35.66 4.33 L 40 0 Z M 0 19 L 0 4.33 L 35.66 4.33 L 35.66 19 Z M 40 14.33 L 40 0 L 35.66 4.33 L 35.66 19 Z" fill="var(--icon-primary, #dae8fc)" stroke="var(--icon-secondary, #6c8ebf)" stroke-width="1" stroke-linejoin="round"/><rect x="0" y="0" width="0" height="0" fill="none" stroke="var(--icon-secondary, #6c8ebf)" stroke-width="1"/><path d="M 12.33 8.66 L 12.33 5.66 L 6.33 5.66 L 6.33 8.66 Z M 25.33 8.66 L 25.33 5.66 L 31.33 5.66 L 31.33 8.66 Z M 12.33 16 L 12.33 13 L 6.33 13 L 6.33 16 Z M 25.33 16 L 25.33 13 L 31.33 13 L 31.33 16 Z" fill="var(--icon-secondary, #6c8ebf)" stroke="none" stroke-width="0"/><path d="M 10.33 7.33 L 28 7.33 M 10.33 15 L 28 15 M 9.33 15 L 28 7.33 M 9.33 7.33 L 28 15" fill="none" stroke="var(--icon-secondary, #6c8ebf)" stroke-width="1"/><path d="M 11.33 9.33 L 11.33 6.33 L 5.66 6.33 L 5.66 9.33 Z M 24.66 9.33 L 24.66 6.33 L 30.33 6.33 L 30.33 9.33 Z M 11.33 16.66 L 11.33 13.66 L 5.66 13.66 L 5.66 16.66 Z M 24.66 16.66 L 24.66 13.66 L 30.33 13.66 L 30.33 16.66 Z" fill="var(--icon-secondary, #6c8ebf)" stroke="none" stroke-width="0"/><path d="M 9.66 7.66 L 27.33 7.66 M 9.66 15.33 L 27.33 15.33 M 8.66 15.33 L 27.33 7.66 M 8.66 7.66 L 27.33 15.33" fill="none" stroke="var(--icon-secondary, #6c8ebf)" stroke-width="1"/><path d="M 18.33 30 L 18.33 22.66 L 19.66 22.66 L 17.66 20 L 15.66 22.66 L 17 22.66 L 17 30 Z M 12.33 34.33 L 5 34.33 L 5 33 L 2.33 34.66 L 5 36.66 L 5 35.33 L 12.33 35.33 Z M 17 39.66 L 17 46.66 L 15.66 46.66 L 17.66 49.66 L 19.66 46.66 L 18.33 46.66 L 18.33 39.66 Z M 22.66 35.33 L 30.33 35.33 L 30.33 36.66 L 33 34.66 L 30.33 33 L 30.33 34.33 L 22.66 34.33 Z" fill="var(--icon-secondary, #6c8ebf)" stroke="none" stroke-width="0"/><rect x="0" y="0" width="0" height="0" fill="none" stroke="var(--icon-secondary, #6c8ebf)" stroke-width="1"/><path d="M 24.66 42 L 10.66 42 L 10.66 27.66 L 24.66 27.66 Z" fill="var(--icon-primary, #dae8fc)" stroke="var(--icon-secondary, #6c8ebf)" stroke-width="0.67"/><path d="M 14.33 27.33 L 14.33 42 M 17.66 27.33 L 17.66 42 M 21 27.66 L 21 42 M 10.66 31.33 L 24.66 31.33 M 10.66 34.66 L 24.33 34.66 M 10.66 38.33 L 24.66 38.33" fill="none" stroke="var(--icon-secondary, #6c8ebf)" stroke-width="0.67"/></svg>