<svg xmlns="http://www.w3.org/2000/svg" viewBox="0 0 23 63.34" width="23" height="63.34"><path d="M 5.67 33.67 L 5.67 3.67 M 14 33.67 L 14 3.67" fill="var(--icon-primary, #dae8fc)" stroke="var(--icon-secondary, #6c8ebf)" stroke-width="1"/><path d="M 0 63.34 L 5.67 33.34 L 14 33.34 L 19 63.34 M 0 63.34 L 17.34 54.67 L 3.34 46.67 L 15 39.34 L 5.67 33.67 L 14 23.34 L 5.67 17 L 14 9.67 L 5.67 4 M 19 63.34 L 1.67 54.67 L 16 46.67 L 4.67 39.34 L 14 33.67 L 6 23.34 L 14 17 L 5.67 9.67 L 14 4 M 13.67 3.67 L 6 3.67 L 8 0 L 11.67 0 L 13.67 3.67 Z" fill="none" stroke="var(--icon-secondary, #6c8ebf)" stroke-width="1" stroke-linejoin="round"/><path d="M 17.34 4.67 C 18 3.67 18 3.67 18 3.67 C 18.34 3.67 18.34 3.67 18.34 3.67 C 18.34 8 18.34 8 18.34 8 C 21.34 8 21.34 8 21.34 8 C 21.67 8.34 21.67 8.34 21.67 8.34 C 22 8.34 22 8.34 22 8.34 C 22.34 8 22.34 8 22.34 8 C 22.67 7.67 23 8.67 23 8.67 C 23 9 23 9 23 9 C 23 9 22.67 9.67 22.34 9.67 C 22 9 22 9 22 9 C 21.67 9 21.67 9 21.67 9 C 21.34 9.34 21.34 9.34 21.34 9.34 C 18.34 9.34 18.34 9.34 18.34 9.34 C 18.34 14 18.34 14 18.34 14 C 18 14 18 14 18 14 C 17.34 13 17.34 13 17.34 13 Z" fill="var(--icon-primary, #dae8fc)" stroke="var(--icon-secondary, #6c8ebf)" stroke-width="1"/><path d="M 17.34 13 C 15.67 13 15.67 13 15.67 13 C 15 12 15 10.34 15 10.34 C 13.67 10.34 13.67 10.34 13.67 10.34 C 13.67 9 13.67 9 13.67 9 C 13.67 8.67 13.67 8.67 13.67 8.67 C 13.67 7.34 13.67 7.34 13.67 7.34 C 15 7.34 15 7.34 15 7.34 C 15 7.34 15 5.34 15.67 4.67 C 17.34 4.67 17.34 4.67 17.34 4.67 Z" fill="var(--icon-primary, #dae8fc)" stroke="var(--icon-secondary, #6c8ebf)" stroke-width="1"/><path d="M 17.34 18.34 C 18 17.34 18 17.34 18 17.34 C 18.34 17.34 18.34 17.34 18.34 17.34 C 18.34 22 18.34 22 18.34 22 C 21.34 22 21.34 22 21.34 22 C 21.67 22 21.67 22 21.67 22 C 22 22 22 22 22 22 C 22.34 21.67 22.34 21.67 22.34 21.67 C 22.67 21.67 23 22.34 23 22.34 C 23 22.67 23 22.67 23 22.67 C 23 22.67 22.67 23.67 22.34 23.34 C 22 23 22 23 22 23 C 21.67 23 21.67 23 21.67 23 C 21.34 23.34 21.34 23.34 21.34 23.34 C 18.34 23.34 18.34 23.34 18.34 23.34 C 18.34 27.67 18.34 27.67 18.34 27.67 C 18 27.67 18 27.67 18 27.67 C 17.34 26.67 17.34 26.67 17.34 26.67 Z" fill="var(--icon-primary, #dae8fc)" stroke="var(--icon-secondary, #6c8ebf)" stroke-width="1"/><path d="M 17.34 26.67 C 15.67 26.67 15.67 26.67 15.67 26.67 C 15 26 15 24 15 24 C 13.67 24 13.67 24 13.67 24 C 13.67 22.67 13.67 22.67 13.67 22.67 C 13.67 22.34 13.67 22.34 13.67 22.34 C 13.67 21 13.67 21 13.67 21 C 15 21 15 21 15 21 C 15 21 15 19.34 15.67 18.34 C 17.34 18.34 17.34 18.34 17.34 18.34 Z" fill="var(--icon-primary, #dae8fc)" stroke="var(--icon-secondary, #6c8ebf)" stroke-width="1"/></svg>