<svg xmlns="http://www.w3.org/2000/svg" viewBox="0 0 46 35.33" width="46" height="35.33"><path d="M 39.33 6 L 46 0 L 46 0 L 6.67 0 L 0 6 Z M 39.67 35.33 L 39.67 6 L 0 6 L 0 35.33 Z M 46 29.33 L 46 0 L 39.67 6 L 39.67 35.33 Z" fill="var(--icon-primary, #dae8fc)" stroke="var(--icon-secondary, #6c8ebf)" stroke-width="1" stroke-linejoin="round"/><path d="M 14.33 35.33 L 14.33 6 M 25.67 35.33 L 25.67 6" fill="none" stroke="var(--icon-secondary, #6c8ebf)" stroke-width="1" stroke-linejoin="round"/><path d="M 21.67 9.33 L 15 9.33 M 21.67 15 L 15 15 M 21.67 20.33 L 15 20.33 M 21.67 26 L 15 26 M 22 32.33 L 15 32.33" fill="none" stroke="var(--icon-secondary, #6c8ebf)" stroke-width="1.33" stroke-linejoin="round"/><path d="M 24.33 9.33 L 20.67 11 L 21.67 9.33 L 20.67 7.66 Z M 24.33 15 L 20.67 16.33 L 21.67 15 L 20.67 13.33 Z M 24.33 20.33 L 20.67 22 L 21.67 20.33 L 20.67 19 Z M 24.33 26 L 20.67 27.66 L 21.67 26 L 20.67 24.33 Z M 24.33 32.33 L 20.67 33.66 L 21.67 32.33 L 20.67 30.66 Z M 0.67 14.33 L 9.33 14.33 L 9 15.33 L 13 12.33 L 9 9.66 L 9.33 10.66 L 0.67 10.66 Z M 0.67 22.33 L 9.33 22.33 L 9 23.33 L 13 20.66 L 9 17.66 L 9.33 18.66 L 0.67 18.66 Z M 26.33 19 L 35 19 L 35 20.33 L 39 16.66 L 35 13.33 L 35 14.66 L 26.33 14.66 Z M 26.33 29.66 L 35 29.66 L 35 31 L 39 27.33 L 35 23.66 L 35 25 L 26.33 25 Z M 0.67 30.33 L 9.33 30.33 L 9 31.33 L 13 28.66 L 9 26 L 9.33 27 L 0.67 27 Z" fill="var(--icon-secondary, #6c8ebf)" stroke="none" stroke-width="0"/></svg>