<svg xmlns="http://www.w3.org/2000/svg" viewBox="0 0 41.33 33.34" width="41.33" height="33.34"><path d="M 41.33 7.67 C 41.33 12 32 15.34 20.67 15.34 C 9.33 15.34 0 12 0 7.67 C 0 25.67 0 25.67 0 25.67 C 0 29.67 9.33 33.34 20.67 33.34 C 32 33.34 41.33 29.67 41.33 25.67 Z M 20.67 15.34 C 32 15.34 41.33 12 41.33 7.67 C 41.33 3.67 32 0 20.67 0 C 9.33 0 0 3.67 0 7.67 C 0 12 9.33 15.34 20.67 15.34 Z" fill="var(--icon-primary, #dae8fc)" stroke="var(--icon-secondary, #6c8ebf)" stroke-width="1" stroke-linejoin="round"/></svg>