<svg xmlns="http://www.w3.org/2000/svg" viewBox="0 0 51 26.34" width="51" height="26.34"><path d="M 0 17.34 L 0 7.67 L 39.67 7.67 L 39.67 17.34 Z M 39.67 17.34 L 39.67 7.67 L 0 7.67 L 10 0 L 45.33 0 L 48 0 L 48 8.34 Z" fill="var(--icon-primary, #dae8fc)" stroke="var(--icon-secondary, #6c8ebf)" stroke-width="1" stroke-linejoin="round"/><path d="M 39.67 7.67 L 48 0" fill="none" stroke="var(--icon-secondary, #6c8ebf)" stroke-width="1" stroke-linejoin="round"/><rect x="0" y="0" width="0" height="0" fill="none" stroke="var(--icon-secondary, #6c8ebf)" stroke-width="1"/><path d="M 10.33 13.67 L 4 13.67 L 4 11.67 L 10.33 11.67 Z M 18.67 13.67 L 12.33 13.67 L 12.33 11.67 L 18.67 11.67 Z M 27 13.67 L 20.67 13.67 L 20.67 11.67 L 27 11.67 Z M 35.33 13.67 L 29 13.67 L 29 11.67 L 35.33 11.67 Z" fill="var(--icon-secondary, #6c8ebf)" stroke="none" stroke-width="0"/><path d="M 50.67 17.34 C 51 19.34 50.33 21.67 48.33 23.67 C 46.67 25.67 44.33 26.34 42 26.34 M 49.67 17 C 50 19 49.33 21 47.67 23 C 46 24.67 43.67 25.67 41.67 25.34 M 48.67 16.67 C 49 18.67 48.33 20.67 47 22.34 C 45.33 24 43.33 24.67 41.33 24.67 M 48 16.67 C 48 18.34 47.67 20 46.33 21.67 C 44.67 23 42.67 24 41 23.67 M 47 16.34 C 47.33 17.67 46.67 19.67 45.33 21 C 44 22.34 42.33 23 40.67 22.67 M 46 16 C 46.33 17.34 45.67 19 44.67 20.34 C 43.33 21.67 42 22 40.33 22 M 45 16 C 45.33 17 45 18.34 44 19.67 C 43 20.67 41.33 21.34 40 21 M 44.33 15.67 C 44.33 16.67 44 18 43 19 C 42.33 20 41 20.34 40 20.34" fill="none" stroke="var(--icon-secondary, #6c8ebf)" stroke-width="0.67" stroke-linecap="round"/></svg>