<svg xmlns="http://www.w3.org/2000/svg" viewBox="0 0 45.33 30.33" width="45.33" height="30.33"><path d="M 45.33 8.66 C 45.33 13.66 35.33 17.66 22.66 17.66 C 10 17.66 0 13.66 0 8.66 C 0 21.66 0 21.66 0 21.66 C 0 26.66 10 30.33 22.66 30.33 C 35.33 30.33 45.33 26.66 45.33 21.66 Z M 22.66 17.66 C 35.33 17.66 45.33 13.66 45.33 8.66 C 45.33 3.66 35.33 0 22.66 0 C 10 0 0 3.66 0 8.66 C 0 13.66 10 17.66 22.66 17.66 Z" fill="var(--icon-primary, #dae8fc)" stroke="var(--icon-secondary, #6c8ebf)" stroke-width="1" stroke-linejoin="round"/><rect x="0" y="0" width="0" height="0" fill="none" stroke="var(--icon-secondary, #6c8ebf)" stroke-width="1"/><path d="M 15.66 6.33 L 18.33 7.66 L 12.66 9 L 14 7.66 L 4 6 L 4.66 5.33 L 14.66 7 Z M 29.66 10.66 L 27 9.33 L 32.66 8.33 L 31.33 9.33 L 41.66 11.33 L 40.66 12 L 30.66 10 Z M 26.66 3.33 L 31.66 1.33 L 31 4 L 29.33 3.66 L 25.66 7 L 24.33 6.66 L 28.33 3.66 Z M 19.66 13.66 L 14.33 15.66 L 15 13.33 L 16.66 13.33 L 20.33 10.33 L 21.66 10.33 L 18 13.33 Z" fill="var(--icon-secondary, #6c8ebf)" stroke="none" stroke-width="0"/><path d="M 22.33 29.33 C 25.33 29.33 27.66 27 27.66 24 C 27.66 21 25.33 18.66 22.33 18.66 C 19.66 18.66 17.33 21 17.33 24 C 17.33 27 19.66 29.33 22.33 29.33 Z" fill="var(--icon-secondary, #6c8ebf)" stroke="var(--icon-secondary, #6c8ebf)" stroke-width="0.67"/></svg>