<svg xmlns="http://www.w3.org/2000/svg" viewBox="0 0 49.33 39.33" width="49.33" height="39.33"><path d="M 49.33 15.66 C 49.33 21 38.33 25.33 24.66 25.33 C 11 25.33 0 21 0 15.66 C 0 29.66 0 29.66 0 29.66 C 0 35 11 39.33 24.66 39.33 C 38.33 39.33 49.33 35 49.33 29.66 Z" fill="var(--icon-primary, #dae8fc)" stroke="var(--icon-secondary, #6c8ebf)" stroke-width="1" stroke-linejoin="round"/><path d="M 24.66 19 C 38 19 49 14.66 49 9.66 C 49 4.33 38 0 24.66 0 C 11.33 0 0.33 4.33 0.33 9.66 C 0.33 14.66 11.33 19 24.66 19 Z" fill="var(--icon-primary, #dae8fc)" stroke="var(--icon-secondary, #6c8ebf)" stroke-width="1" stroke-linejoin="round"/><path d="M 49 9.66 C 49 14.66 38 19 24.66 19 C 11.33 19 0.33 14.66 0.33 9.66 C 0.33 16.33 0.33 16.33 0.33 16.33 C 0.33 21.66 11.33 25.66 24.66 25.66 C 38 25.66 49 21.66 49 16.33 Z" fill="var(--icon-primary, #dae8fc)" stroke="var(--icon-secondary, #6c8ebf)" stroke-width="1" stroke-linejoin="round"/><rect x="0" y="0" width="0" height="0" fill="none" stroke="var(--icon-secondary, #6c8ebf)" stroke-width="1"/><path d="M 19 10 L 25.66 10.33 M 5.33 9 L 12 9.66 M 2.33 6 L 7.66 6.66 M 8.33 6.33 L 1.66 12 M 15 7 L 5.66 15 M 22.33 7.33 L 11 17 M 8.33 12.66 L 15.33 13 M 38 13.33 L 44.66 13.66 M 24.33 12.66 L 31 13 M 27.33 9.66 L 17 18.33 M 34.66 10 L 24.33 18.66 M 41.33 10.66 L 32 18.66 M 49 9.66 L 42.66 16 M 13.66 15 L 20.33 15.66 M 27.66 16 L 34.33 16.33 M 14.33 1 L 8 6.66 M 23.33 0 L 15 7.33 M 41 4.33 L 45.66 5 M 31 0.33 L 19.66 10 M 37.33 1.33 L 26.33 10.33 M 42.33 3.33 L 33.66 10.66 M 47 6 L 41 11.33 M 16.66 6.33 L 23.66 6.66 M 30.66 7 L 37.33 7.66 M 44.33 8 L 48.33 8.33" fill="none" stroke="var(--icon-secondary, #6c8ebf)" stroke-width="1"/><path d="M 19 5.33 L 21 8.33 L 13.33 10.33 L 15 8.66 L 3.33 6.66 L 6.33 4.66 L 17.66 6.33 Z M 30 12.66 L 28.33 9.66 L 35.33 8.33 L 34.33 9.33 L 45.66 11.33 L 43 13.66 L 31.33 11.33 Z M 26 3.66 L 33.66 1.66 L 34 5 L 32 4.66 L 28.33 7.66 L 24.66 7.33 L 28.33 4 Z M 22.66 15.66 L 15.33 17 L 15 13.66 L 17.33 14 L 21.33 10.66 L 25 11.33 L 20.66 15 Z" fill="var(--icon-secondary, #6c8ebf)" stroke="none" stroke-width="0"/></svg>