<svg xmlns="http://www.w3.org/2000/svg" viewBox="0 0 40 54.66" width="40" height="54.66"><path d="M 0 54.66 L 0 19 L 35.67 19 L 35.67 54.66 Z M 40 50.33 L 40 14.33 L 35.67 19 L 35.67 54.66 Z M 6.33 0 L 0 4.33 L 35.67 4.33 L 40 0 Z M 0 19 L 0 4.33 L 35.67 4.33 L 35.67 19 Z M 40 14.33 L 40 0 L 35.67 4.33 L 35.67 19 Z" fill="var(--icon-primary, #dae8fc)" stroke="var(--icon-secondary, #6c8ebf)" stroke-width="1" stroke-linejoin="round"/><rect x="0" y="0" width="0" height="0" fill="none" stroke="var(--icon-secondary, #6c8ebf)" stroke-width="1"/><path d="M 11.33 9.33 L 11.33 6.33 L 5.67 6.33 L 5.67 9.33 Z M 24.67 9.33 L 24.67 6.33 L 30.33 6.33 L 30.33 9.33 Z M 11.33 17 L 11.33 14 L 5.67 14 L 5.67 17 Z M 24.67 17 L 24.67 14 L 30.33 14 L 30.33 17 Z" fill="var(--icon-secondary, #6c8ebf)" stroke="none" stroke-width="0"/><path d="M 9.67 8 L 27.33 8 M 9.67 15.33 L 27.33 15.33 M 8.67 15.33 L 27.33 8 M 8.67 8 L 27.33 15.33" fill="none" stroke="var(--icon-secondary, #6c8ebf)" stroke-width="0.67"/><path d="M 18.67 31.66 L 18.67 24 L 19.67 24 L 18 21 L 16 24 L 17.33 24 L 17.33 31.66 Z M 14.67 32.66 L 9 27.33 L 10 26.33 L 6.67 25.66 L 7.33 29 L 8.33 28 L 13.67 33.66 Z M 12.67 36.33 L 5 36.33 L 5 35 L 2 37 L 5 39 L 5 37.66 L 12.67 37.66 Z M 13.67 40.33 L 8.33 45.66 L 7.33 44.66 L 6.67 48.33 L 10 47.66 L 9 46.66 L 14.67 41 Z M 17.33 42.33 L 17.33 50 L 16 50 L 18 53 L 19.67 50 L 18.67 50 L 18.67 42.33 Z M 21.33 41 L 26.67 46.66 L 25.67 47.66 L 29.33 48.33 L 28.33 44.66 L 27.67 45.66 L 22 40.33 Z M 23.33 37.66 L 31 37.66 L 31 39 L 34 37 L 31 35 L 31 36.33 L 23.33 36.33 Z M 22 33.66 L 27.67 28 L 28.33 29 L 29.33 25.66 L 25.67 26.33 L 26.67 27.33 L 21.33 32.66 Z" fill="var(--icon-secondary, #6c8ebf)" stroke="none" stroke-width="0"/><path d="M 22.67 43.33 C 26.33 41 27 36 24.67 32.33 C 22 28.66 17 27.66 13.33 30.33 C 9.67 33 9 37.66 11.33 41.33 C 14 45 19 46 22.67 43.33 Z" fill="var(--icon-secondary, #6c8ebf)" stroke="none" stroke-width="0"/></svg>