<svg xmlns="http://www.w3.org/2000/svg" viewBox="0 0 57.33 86.67" width="57.33" height="86.67"><path d="M 11.66 52.34 L 0 52.34 L 0 86.67 L 11.66 86.67 Z" fill="var(--icon-primary, #dae8fc)" stroke="var(--icon-secondary, #6c8ebf)" stroke-width="1" stroke-linejoin="round"/><path d="M 11.66 86.67 L 18 80.34 L 18 46 L 6.33 46 L 0 52.34 L 11.66 52.34 Z" fill="var(--icon-primary, #dae8fc)" stroke="var(--icon-secondary, #6c8ebf)" stroke-width="1" stroke-linejoin="round"/><path d="M 35 9.67 L 11.66 9.67 L 11.66 86.67 L 35 86.67 Z" fill="var(--icon-primary, #dae8fc)" stroke="var(--icon-secondary, #6c8ebf)" stroke-width="1" stroke-linejoin="round"/><path d="M 35 86.67 L 44.66 77 L 44.66 0 L 21 0 L 11.66 9.67 L 35 9.67 Z" fill="var(--icon-primary, #dae8fc)" stroke="var(--icon-secondary, #6c8ebf)" stroke-width="1" stroke-linejoin="round"/><path d="M 35 9.67 L 44.66 0" fill="none" stroke="var(--icon-secondary, #6c8ebf)" stroke-width="1" stroke-linejoin="round"/><path d="M 48 21.67 L 35 21.67 L 35 86.67 L 48 86.67 Z" fill="var(--icon-primary, #dae8fc)" stroke="var(--icon-secondary, #6c8ebf)" stroke-width="1" stroke-linejoin="round"/><path d="M 48 86.67 L 57.33 77.34 L 57.33 12.34 L 44.33 12.34 L 35 21.67 L 48 21.67 Z" fill="var(--icon-primary, #dae8fc)" stroke="var(--icon-secondary, #6c8ebf)" stroke-width="1" stroke-linejoin="round"/><path d="M 48 21.67 L 57.33 12.34" fill="none" stroke="var(--icon-secondary, #6c8ebf)" stroke-width="1" stroke-linejoin="round"/><rect x="0" y="0" width="0" height="0" fill="none" stroke="var(--icon-secondary, #6c8ebf)" stroke-width="1"/><path d="M 23.66 41.34 L 23.66 44.67 L 27.33 44.67 M 28.66 41.34 L 28.66 44.67 L 32.33 44.67 M 13.66 41.34 L 13.66 45 L 17.33 45 M 18.66 41.34 L 18.66 45 L 22.33 45 M 23.66 48.67 L 23.66 52.34 L 27.33 52.34 M 28.66 48.67 L 28.66 52.34 L 32.33 52.34 M 13.66 48.67 L 13.66 52.34 L 17.33 52.34 M 18.66 48.67 L 18.66 52.34 L 22.33 52.34 M 23.66 56 L 23.66 59.34 L 27.33 59.34 M 28.66 56 L 28.66 59.34 L 32.33 59.34 M 13.66 56 L 13.66 59.67 L 17.33 59.67 M 18.66 56 L 18.66 59.67 L 22.33 59.67 M 1.66 55 L 1.66 58.67 L 5.33 58.67 M 6.66 55 L 6.66 58.67 L 10.33 58.67 M 2 62 L 2 65.34 L 5.66 65.34 M 7 62 L 7 65.34 L 10.66 65.34 M 2 68 L 2 71.67 L 5.66 71.67 M 7 68 L 7 71.67 L 10.66 71.67 M 24 13.34 L 24 17 L 27.33 17 M 29 13.34 L 29 17 L 32.33 17 M 13.66 13.67 L 13.66 17 L 17.33 17 M 18.66 13.67 L 18.66 17 L 22.33 17 M 24 21 L 24 24.67 L 27.33 24.67 M 29 21 L 29 24.67 L 32.33 24.67 M 13.66 21 L 13.66 24.67 L 17.33 24.67 M 18.66 21 L 18.66 24.67 L 22.33 24.67 M 24 28 L 24 31.67 L 27.33 31.67 M 29 28 L 29 31.67 L 32.33 31.67 M 13.66 28.34 L 13.66 31.67 L 17.33 31.67 M 18.66 28.34 L 18.66 31.67 L 22.33 31.67 M 24 34.67 L 24 38.34 L 27.33 38.34 M 29 34.67 L 29 38.34 L 32.33 38.34 M 13.66 34.67 L 13.66 38.34 L 17.33 38.34 M 18.66 34.67 L 18.66 38.34 L 22.33 38.34 M 37.33 24.67 L 37.33 28.34 L 41 28.34 M 42.33 24.67 L 42.33 28.34 L 46 28.34 M 37.33 31.67 L 37.33 35 L 41 35 M 42.33 31.67 L 42.33 35 L 46 35 M 37.33 37.67 L 37.33 41.34 L 41 41.34 M 42.33 37.67 L 42.33 41.34 L 46 41.34 M 37.33 44 L 37.33 47.67 L 41 47.67 M 42.33 44 L 42.33 47.67 L 46 47.67 M 37.33 50 L 37.33 53.67 L 41 53.67 M 42.33 50 L 42.33 53.67 L 46 53.67" fill="none" stroke="var(--icon-secondary, #6c8ebf)" stroke-width="0.67"/><path d="M 43 69.34 C 43 72.34 37 74.67 29.33 74.67 C 22 74.67 15.66 72.34 15.66 69.34 C 15.66 77.34 15.66 77.34 15.66 77.34 C 15.66 80.34 22 82.67 29.33 82.67 C 37 82.67 43 80.34 43 77.34 Z" fill="var(--icon-secondary, #6c8ebf)" stroke="var(--icon-secondary, #6c8ebf)" stroke-width="0.67" stroke-linejoin="round"/><path d="M 29.33 74.67 C 37 74.67 43 72.34 43 69.34 C 43 66.67 37 64.34 29.33 64.34 C 22 64.34 15.66 66.67 15.66 69.34 C 15.66 72.34 22 74.67 29.33 74.67 Z" fill="var(--icon-secondary, #6c8ebf)" stroke="var(--icon-secondary, #6c8ebf)" stroke-width="0.67" stroke-linejoin="round"/><path d="M 25.33 68 L 26.66 69 L 23.33 69.67 L 24 69 L 18 68 L 18.66 67.67 L 24.66 68.34 Z M 33.66 70.67 L 32 70 L 35.33 69.34 L 34.66 70 L 40.66 71 L 40.33 71.34 L 34 70.34 Z M 31.66 66.34 L 34.66 65 L 34.33 66.67 L 33.33 66.67 L 31 68.34 L 30.33 68.34 L 32.66 66.34 Z M 27.33 72.34 L 24.33 73.67 L 24.66 72.34 L 25.66 72.34 L 28 70.34 L 28.66 70.67 L 26.66 72.34 Z" fill="var(--icon-primary, #dae8fc)" stroke="none" stroke-width="0"/></svg>