<svg xmlns="http://www.w3.org/2000/svg" viewBox="0 0 49.66 32.33" width="49.66" height="32.33"><path d="M 0 32.33 L 44.33 32.33 L 44.33 6.33 L 0 6.33 Z M 49.66 24.66 L 44.33 32.33 L 44.33 6.33 L 49.66 0 Z M 8 0 L 49.66 0 L 44.33 6.33 L 0 6.33 Z" fill="var(--icon-primary, #dae8fc)" stroke="var(--icon-secondary, #6c8ebf)" stroke-width="1" stroke-linejoin="round"/><rect x="0" y="0" width="0" height="0" fill="none" stroke="var(--icon-secondary, #6c8ebf)" stroke-width="1"/><path d="M 22 24.66 C 22 24.66 27.66 24.33 27.66 24.33 C 27.66 24.33 20.66 21.66 19.33 21 C 19.33 21 25.66 21 25.66 21 C 6.33 15.66 6.33 15.66 6.33 15.66 C 19 20.33 19 20.33 19 20.33 C 19 20.33 14.33 20.66 14.33 20.66 C 14.33 20.66 19.33 23 20.33 23.33 C 20.33 23.33 16.33 24.66 16.33 24.66 C 39 31 39 31 39 31 Z" fill="var(--icon-secondary, #6c8ebf)" stroke="none" stroke-width="0"/></svg>