<svg xmlns="http://www.w3.org/2000/svg" viewBox="0 0 62.33 46.34" width="62.33" height="46.34"><path d="M 31.33 23.34 C 48.33 23.34 62.33 20.67 62.33 17.34 C 62.33 14.34 48.33 11.67 31.33 11.67 C 14 11.67 0 14.34 0 17.34 C 0 20.67 14 23.34 31.33 23.34 Z" fill="#ffffff" stroke="var(--icon-secondary, #6c8ebf)" stroke-width="1"/><path d="M 31.33 33.67 C 48.67 33.67 62.33 20.67 62.33 17.34 C 62.33 14.34 48.33 11.67 31.33 11.67 C 14 11.67 0 14.34 0 17.34 C 0 20.67 14.33 33.67 31.33 33.67 Z" fill="var(--icon-primary, #dae8fc)" stroke="none" stroke-width="0"/><path d="M 31.33 23.34 C 48.33 23.34 62.33 20.67 62.33 17.34 C 62.33 14.34 48.33 11.67 31.33 11.67 C 14 11.67 0 14.34 0 17.34 C 0 20.67 14 23.34 31.33 23.34 Z" fill="#ffffff" stroke="#126d99" stroke-width="0.67"/><path d="M 23 13 C 18.33 13.34 14 14 10.33 14.67 M 23.33 14.34 C 18.67 14.67 14.67 15.34 11.33 16 M 23.67 15.67 C 19 16 15 16.67 12.33 17.67 M 24.33 17.34 C 20 17.67 16 18.34 13.33 19.34 M 24.67 18.67 C 20.33 19 17 20 14.33 21 M 25.33 20.34 C 22 20.67 19 21.34 17 22.34 M 25.67 22 C 24.33 22 23 22.34 21.67 22.67 M 0 18 L 31.67 2.34 L 62.33 17.34" fill="none" stroke="#126d99" stroke-width="0.67"/><path d="M 31.67 6.34 C 32.67 6.34 33.67 6 33.67 5.34 C 33.67 4.67 32.67 4.34 31.67 4.34 C 30.33 4.34 29.33 4.67 29.33 5.34 C 29.33 6 30.33 6.34 31.67 6.34 Z" fill="var(--icon-primary, #dae8fc)" stroke="none" stroke-width="0"/><path d="M 31.67 0 L 31 22 L 32.33 22 Z M 39.67 37.34 L 39.67 34 L 24.67 34 L 24.67 37.34 Z" fill="var(--icon-primary, #dae8fc)" stroke="none" stroke-width="0"/><path d="M 27.67 37 C 37 37 37 37 37 37 C 37 43.34 37 43.34 37 43.34 C 37 43.34 27.33 46.34 27.67 46.34 C 27.67 46.34 27.67 37 27.67 37 Z" fill="var(--icon-primary, #dae8fc)" stroke="none" stroke-width="0"/></svg>