<svg xmlns="http://www.w3.org/2000/svg" viewBox="0 0 84.67 28.33" width="84.67" height="28.33"><rect x="0" y="0" width="0" height="0" fill="none" stroke="var(--icon-secondary, #6c8ebf)" stroke-width="1"/><path d="M 84.67 2.33 L 84.67 4 L 66.67 10.67 L 58.67 9.33 L 53.67 8.33 L 50.34 7.67 L 50.34 5.33 Z" fill="var(--icon-primary, #dae8fc)" stroke="var(--icon-secondary, #6c8ebf)" stroke-width="1" stroke-linejoin="round"/><path d="M 42.67 28.33 C 45 28.33 47 27.67 47 26.67 C 47 25.67 45 24.67 42.67 24.67 C 40.34 24.67 38.67 25.67 38.67 26.67 C 38.67 27.67 40.34 28.33 42.67 28.33 Z" fill="var(--icon-primary, #dae8fc)" stroke="var(--icon-secondary, #6c8ebf)" stroke-width="1" stroke-linejoin="round"/><path d="M 55.67 6.33 C 50.34 5.33 50.34 5.33 50.34 5.33 C 69 0 69 0 69 0 C 84.67 2.33 84.67 2.33 84.67 2.33 C 66.67 8.33 66.67 8.33 66.67 8.33 C 59 7.33 59 7.33 59 7.33 C 63.34 6 64.34 4.67 64.34 4.67 C 62.67 3.67 56.67 6 56.67 6 C 56.67 6 56.67 6 56.67 6 C 51.34 7.67 51.34 7.67 51.34 7.67 C 51.34 10.67 51.34 10.67 51.34 10.67 C 58.34 8.33 58.34 8.33 58.34 8.33 C 58.34 8.33 58.34 8.33 58.34 8.33 C 58.34 8.33 58.67 7.33 58.67 7.33" fill="var(--icon-primary, #dae8fc)" stroke="var(--icon-secondary, #6c8ebf)" stroke-width="1" stroke-linejoin="round"/><path d="M 34.34 0.33 C 34.34 22.67 34.34 22.67 34.34 22.67 C 34.34 24.67 38 26.33 42.67 26.33 C 47.34 26.33 51.34 24.67 51.34 22.67 C 51.34 0 51.34 0 51.34 0 Z" fill="var(--icon-primary, #dae8fc)" stroke="var(--icon-secondary, #6c8ebf)" stroke-width="1" stroke-linejoin="round"/><path d="M 35.34 18 L 35.34 20 L 16.67 26.67 L 0 22.67 L 0 20.33 Z" fill="var(--icon-primary, #dae8fc)" stroke="var(--icon-secondary, #6c8ebf)" stroke-width="1" stroke-linejoin="round"/><path d="M 29.34 17 L 35.34 18 L 16.67 24 L 0 20.33 L 19.67 14.67 L 24 15.67 Z" fill="var(--icon-primary, #dae8fc)" stroke="var(--icon-secondary, #6c8ebf)" stroke-width="1" stroke-linejoin="round"/><path d="M 24 15.33 C 20 16.67 18.34 18.67 18.34 18.67 C 24.67 18.67 29 17 29 17" fill="var(--icon-primary, #dae8fc)" stroke="var(--icon-secondary, #6c8ebf)" stroke-width="1" stroke-linejoin="round"/><path d="M 23.67 15.67 C 37.34 11.67 37.34 11.67 37.34 11.67 C 39.34 11.67 39.34 13.33 39.34 13.33 C 39.34 14.33 37.67 14.67 37.67 14.67 C 28.67 17 28.67 17 28.67 17" fill="var(--icon-primary, #dae8fc)" stroke="var(--icon-secondary, #6c8ebf)" stroke-width="1" stroke-linejoin="round"/></svg>