<svg xmlns="http://www.w3.org/2000/svg" viewBox="0 0 50.34 47.34" width="50.34" height="47.34"><path d="M 16.34 18.67 L 43.67 18.67 L 47.67 0 L 21.67 0 Z" fill="var(--icon-primary, #dae8fc)" stroke="var(--icon-secondary, #6c8ebf)" stroke-width="1" stroke-linejoin="round"/><path d="M 16.34 18.67 L 19.34 24 L 46.67 24 L 43.67 18.67 Z" fill="var(--icon-primary, #dae8fc)" stroke="var(--icon-secondary, #6c8ebf)" stroke-width="1" stroke-linejoin="round"/><path d="M 47.67 0 L 50.34 5 L 46.67 24 L 43.67 18.67 Z" fill="var(--icon-primary, #dae8fc)" stroke="var(--icon-secondary, #6c8ebf)" stroke-width="1" stroke-linejoin="round"/><path d="M 0 42 L 21 42 L 40.67 19 L 21 19 Z" fill="var(--icon-primary, #dae8fc)" stroke="var(--icon-secondary, #6c8ebf)" stroke-width="1" stroke-linejoin="round"/><path d="M 0 42 L 2.67 47.34 L 23.67 47.34 L 21 42 Z" fill="var(--icon-primary, #dae8fc)" stroke="var(--icon-secondary, #6c8ebf)" stroke-width="1" stroke-linejoin="round"/><path d="M 40.67 19 L 43.34 24.34 L 23.67 47.34 L 21 42 Z" fill="var(--icon-primary, #dae8fc)" stroke="var(--icon-secondary, #6c8ebf)" stroke-width="1" stroke-linejoin="round"/><path d="M 20.34 21.34 L 22.34 21.34 L 21 22.67 L 19 22.67 Z M 17 26.34 L 19.67 25.67 L 18 27.34 L 16.67 26.34 Z M 24 21.34 L 26.34 21.34 L 24.67 22.67 L 22.67 22.67 Z M 27.67 21.34 L 30 21.34 L 28.67 22.67 L 26.34 22.67 Z M 31.67 21.34 L 33.67 21.34 L 32.67 22.67 L 30.34 22.67 Z M 16 30.34 L 18.34 30.34 L 16.67 32 L 14.67 32 Z M 20 30.34 L 22 30.34 L 20.67 32 L 18.34 32 Z M 23.67 30.34 L 25.67 30.34 L 24.67 32 L 22.34 32 Z M 12 34.67 L 14 34.67 L 12.67 36.34 L 10.67 36.34 Z M 15.67 34.67 L 17.67 34.67 L 16.67 36.34 L 14.34 36.34 Z M 19.34 34.67 L 21.67 34.67 L 20.34 36.34 L 18.34 36.34 Z M 35.67 21.34 L 37.67 21.34 L 36.34 22.67 L 34 22.67 Z M 30.34 26 L 31.67 26.67 L 31.67 26.67 L 29 27.34 Z M 26.67 26.34 C 26.34 27 24.67 27.67 23 27.67 C 21.67 27.67 20.67 27 21 26.34 C 21.34 25.67 23 25 24.67 25 C 26.34 25 27 25.67 26.67 26.34 Z M 39.67 14.67 C 39.34 15.34 38.34 16 37.67 16 C 23.34 16 23.34 16 23.34 16 C 22.34 16 22 15.34 22 14.67 C 25 4 25 4 25 4 C 25 3.34 26 2.67 27 2.67 C 41.34 2.67 41.34 2.67 41.34 2.67 C 42 2.67 42.67 3.34 42.34 4 Z" fill="var(--icon-secondary, #6c8ebf)" stroke="none" stroke-width="0"/></svg>