<svg xmlns="http://www.w3.org/2000/svg" viewBox="0 0 35 34.34" width="35" height="34.34"><path d="M 31 3 L 0 3 L 3.67 0 L 34.67 0 Z" fill="var(--icon-primary, #dae8fc)" stroke="var(--icon-secondary, #6c8ebf)" stroke-width="1" stroke-linejoin="round"/><path d="M 35 31.34 L 31 34.34 L 31 3 L 35 0 Z M 31 34.34 L 0 34.34 L 0 3 L 31 3 Z" fill="var(--icon-primary, #dae8fc)" stroke="var(--icon-secondary, #6c8ebf)" stroke-width="1" stroke-linejoin="round"/><rect x="0" y="0" width="0" height="0" fill="none" stroke="var(--icon-secondary, #6c8ebf)" stroke-width="1"/><path d="M 15.67 18 C 15.67 18 15.34 18.34 15.34 18.34 C 11 18.34 11 18.34 11 18.34 C 11 18.34 10.67 18 10.67 18 C 10.67 13.67 10.67 13.67 10.67 13.67 C 10.67 13.34 11 13.34 11 13.34 C 15.34 13.34 15.34 13.34 15.34 13.34 C 15.34 13.34 15.67 13.34 15.67 13.67 Z" fill="var(--icon-secondary, #6c8ebf)" stroke="none" stroke-width="0"/><path d="M 21.34 18 C 21.34 18 21.34 18 21 18 C 18 18 18 18 18 18 C 17.67 18 17.67 18 17.67 18 C 17.67 14.67 17.67 14.67 17.67 14.67 C 17.67 14.67 17.67 14.67 18 14.67 C 21 14.67 21 14.67 21 14.67 C 21.34 14.67 21.34 14.67 21.34 14.67 Z" fill="var(--icon-secondary, #6c8ebf)" stroke="none" stroke-width="0"/><path d="M 14.34 23 C 14.34 23 14.34 23.34 14.34 23.34 C 11 23.34 11 23.34 11 23.34 C 11 23.34 11 23 11 23 C 11 20 11 20 11 20 C 11 19.67 11 19.67 11 19.67 C 14.34 19.67 14.34 19.67 14.34 19.67 C 14.34 19.67 14.34 19.67 14.34 20 Z" fill="var(--icon-secondary, #6c8ebf)" stroke="none" stroke-width="0"/><path d="M 20.67 24 C 20.67 24 20.67 24 20.67 24 C 16.67 24 16.67 24 16.67 24 C 16.67 24 16.67 24 16.67 24 C 16.67 20 16.67 20 16.67 20 C 16.67 20 16.67 19.67 16.67 19.67 C 20.67 19.67 20.67 19.67 20.67 19.67 C 20.67 19.67 20.67 20 20.67 20 Z" fill="var(--icon-secondary, #6c8ebf)" stroke="none" stroke-width="0"/><path d="M 11.67 8.67 L 5.67 8.67 L 5.67 22.34 L 8.67 22.34 L 8.67 11.67 L 11.67 11.67 Z M 16 8.67 L 16 11.67 L 23.34 11.67 L 23.34 19.67 L 26.34 19.67 L 26.34 8.67 Z M 23.34 23.67 L 23.34 26.34 L 5.67 26.34 L 5.67 29.34 L 26.34 29.34 L 26.34 23.67 Z" fill="var(--icon-secondary, #6c8ebf)" stroke="none" stroke-width="0"/><path d="M 15 17.67 C 15 17.67 15 17.67 15 17.67 C 10.67 17.67 10.67 17.67 10.67 17.67 C 10.34 17.67 10.34 17.67 10.34 17.67 C 10.34 13 10.34 13 10.34 13 C 10.34 13 10.34 13 10.67 13 C 15 13 15 13 15 13 C 15 13 15 13 15 13 Z" fill="var(--icon-secondary, #6c8ebf)" stroke="none" stroke-width="0"/><path d="M 20.67 17.67 C 20.67 17.67 20.67 17.67 20.67 17.67 C 17.34 17.67 17.34 17.67 17.34 17.67 C 17.34 17.67 17.34 17.67 17.34 17.67 C 17.34 14.34 17.34 14.34 17.34 14.34 C 17.34 14.34 17.34 14.34 17.34 14.34 C 20.67 14.34 20.67 14.34 20.67 14.34 C 20.67 14.34 20.67 14.34 20.67 14.34 Z" fill="var(--icon-secondary, #6c8ebf)" stroke="none" stroke-width="0"/><path d="M 14 22.67 C 14 22.67 14 22.67 14 22.67 C 10.67 22.67 10.67 22.67 10.67 22.67 C 10.67 22.67 10.67 22.67 10.67 22.67 C 10.67 19.34 10.67 19.34 10.67 19.34 C 10.67 19.34 10.67 19.34 10.67 19.34 C 14 19.34 14 19.34 14 19.34 C 14 19.34 14 19.34 14 19.34 Z" fill="var(--icon-secondary, #6c8ebf)" stroke="none" stroke-width="0"/><path d="M 20.34 23.34 C 20.34 23.67 20.34 23.67 20.34 23.67 C 16.34 23.67 16.34 23.67 16.34 23.67 C 16.34 23.67 16 23.67 16 23.34 C 16 19.67 16 19.67 16 19.67 C 16 19.34 16.34 19.34 16.34 19.34 C 20.34 19.34 20.34 19.34 20.34 19.34 C 20.34 19.34 20.34 19.34 20.34 19.67 Z" fill="var(--icon-secondary, #6c8ebf)" stroke="none" stroke-width="0"/><path d="M 18.67 21 C 18.67 21.34 18.67 21.34 18.67 21.34 C 13.67 21.34 13.67 21.34 13.67 21.34 C 13.67 21.34 13.34 21.34 13.34 21 C 13.34 16.34 13.34 16.34 13.34 16.34 C 13.34 16.34 13.67 16 13.67 16 C 18.67 16 18.67 16 18.67 16 C 18.67 16 18.67 16.34 18.67 16.34 Z" fill="var(--icon-secondary, #6c8ebf)" stroke="none" stroke-width="0"/><path d="M 18.34 20.67 C 18.34 20.67 18.34 21 18 21 C 13.34 21 13.34 21 13.34 21 C 13 21 13 20.67 13 20.67 C 13 16 13 16 13 16 C 13 15.67 13 15.67 13.34 15.67 C 18 15.67 18 15.67 18 15.67 C 18.34 15.67 18.34 15.67 18.34 16 Z" fill="var(--icon-secondary, #6c8ebf)" stroke="var(--icon-secondary, #6c8ebf)" stroke-width="1"/><path d="M 11.34 8.34 L 5.34 8.34 L 5.34 22 L 8 22 L 8 11 L 11.34 11 Z M 15.34 8.34 L 15.34 11 L 23 11 L 23 19.34 L 26 19.34 L 26 8.34 Z M 23 23.34 L 23 26 L 5.34 26 L 5.34 28.67 L 26 28.67 L 26 23.34 Z" fill="var(--icon-secondary, #6c8ebf)" stroke="none" stroke-width="0"/></svg>