<svg xmlns="http://www.w3.org/2000/svg" viewBox="0 0 49 33" width="49" height="33"><path d="M 49 9.34 C 49 14.67 38 19 24.34 19 C 11 19 0 14.67 0 9.34 C 0 23.34 0 23.34 0 23.34 C 0 28.67 11 33 24.34 33 C 38 33 49 28.67 49 23.34 Z M 24.34 19 C 38 19 49 14.67 49 9.34 C 49 4 38 0 24.34 0 C 11 0 0 4 0 9.34 C 0 14.67 11 19 24.34 19 Z" fill="var(--icon-primary, #dae8fc)" stroke="var(--icon-secondary, #6c8ebf)" stroke-width="1" stroke-linejoin="round"/><rect x="0" y="0" width="0" height="0" fill="none" stroke="var(--icon-secondary, #6c8ebf)" stroke-width="1"/><path d="M 19 5.67 L 21 8.67 L 13.34 10.34 L 15 9 L 3 7 L 6 4.67 L 17.34 6.67 Z M 29.67 13 L 28.34 10 L 35 8.67 L 34 9.67 L 45.34 11.67 L 42.67 13.67 L 31.34 11.67 Z M 25.67 4 L 33.67 2 L 33.67 5.34 L 31.67 4.67 L 28 8 L 24.34 7.34 L 28.34 4.34 Z M 22.67 16 L 15 17.34 L 15 14 L 17 14.34 L 21 11 L 24.67 11.34 L 20.34 15.34 Z" fill="var(--icon-secondary, #6c8ebf)" stroke="none" stroke-width="0"/><path d="M 13.67 20.67 L 35.67 20.67 L 35.67 30.67 L 13.67 30.67 Z" fill="var(--icon-secondary, #6c8ebf)" stroke="var(--icon-secondary, #6c8ebf)" stroke-width="1"/><path d="M 30.34 23.34 L 33.34 23.34 L 33.34 27.67 L 30.34 27.67 Z M 33.34 21.34 L 34.34 21.34 L 34.34 22.34 L 33.34 22.34 Z M 31.67 21.34 L 32.67 21.34 L 32.67 22.34 L 31.67 22.34 Z M 29.67 21.34 L 30.67 21.34 L 30.67 22.34 L 29.67 22.34 Z M 28 21.34 L 29 21.34 L 29 22.34 L 28 22.34 Z M 26.34 21.34 L 27 21.34 L 27 22.34 L 26.34 22.34 Z M 24.34 21.34 L 25.34 21.34 L 25.34 22.34 L 24.34 22.34 Z M 22.67 21.34 L 23.67 21.34 L 23.67 22.34 L 22.67 22.34 Z M 20.67 21.34 L 21.67 21.34 L 21.67 22.34 L 20.67 22.34 Z M 19 21.34 L 20 21.34 L 20 22.34 L 19 22.34 Z M 17.34 21.34 L 18 21.34 L 18 22.34 L 17.34 22.34 Z M 15.34 21.34 L 16.34 21.34 L 16.34 22.34 L 15.34 22.34 Z M 33.34 28.67 L 34.34 28.67 L 34.34 29.67 L 33.34 29.67 Z M 31.67 28.67 L 32.67 28.67 L 32.67 29.67 L 31.67 29.67 Z M 29.67 28.67 L 30.67 28.67 L 30.67 29.67 L 29.67 29.67 Z M 28 28.67 L 29 28.67 L 29 29.67 L 28 29.67 Z M 26.34 28.67 L 27 28.67 L 27 29.67 L 26.34 29.67 Z M 24.34 28.67 L 25.34 28.67 L 25.34 29.67 L 24.34 29.67 Z M 22.67 28.67 L 23.67 28.67 L 23.67 29.67 L 22.67 29.67 Z M 20.67 28.67 L 21.67 28.67 L 21.67 29.67 L 20.67 29.67 Z M 19 28.67 L 20 28.67 L 20 29.67 L 19 29.67 Z M 17.34 28.67 L 18 28.67 L 18 29.67 L 17.34 29.67 Z M 15.34 28.67 L 16.34 28.67 L 16.34 29.67 L 15.34 29.67 Z M 25.67 23.34 L 28.67 23.34 L 28.67 27.67 L 25.67 27.67 Z M 20.67 23.34 L 23.67 23.34 L 23.67 27.67 L 20.67 27.67 Z M 16 23.34 L 19 23.34 L 19 27.67 L 16 27.67 Z" fill="var(--icon-secondary, #6c8ebf)" stroke="none" stroke-width="0"/></svg>