<svg xmlns="http://www.w3.org/2000/svg" viewBox="0 0 46 30.66" width="46" height="30.66"><path d="M 40.66 30.66 L 40.66 5.33 L 0 5.33 L 0 30.66 Z M 40.66 5.33 L 0 5.33 L 6.33 0 L 46 0 L 46 0 L 46 25.33 L 40.66 30.66 Z" fill="var(--icon-primary, #dae8fc)" stroke="var(--icon-secondary, #6c8ebf)" stroke-width="1" stroke-linejoin="round"/><path d="M 40.66 5.33 L 46 0" fill="none" stroke="var(--icon-secondary, #6c8ebf)" stroke-width="1" stroke-linejoin="round"/><rect x="0" y="0" width="0" height="0" fill="none" stroke="var(--icon-secondary, #6c8ebf)" stroke-width="1"/><path d="M 6 28.33 L 10.66 28.33 L 16 22.66 L 21 22.66 L 26.33 28 L 35.33 28 L 35.33 24.33 L 28.33 24.33 L 23 19 L 16 19 L 11 13.66 L 6 13.66 L 6 13 L 3.66 15 L 5.66 17 L 5.66 16.33 L 10 16.33 L 10 19.66 L 6 19.66 L 6 19 L 4 21 L 6 23 L 6 22.33 L 10 22.33 L 10 25.66 L 6 25.66 L 6 25 L 4 27 L 6 29 Z" fill="var(--icon-secondary, #6c8ebf)" stroke="none" stroke-width="0"/><path d="M 34.33 7.33 L 29.66 7.33 L 24.33 12.66 L 19.33 12.66 L 14.33 7.33 L 5 7.33 L 5 11 L 12 11 L 17.33 16.33 L 24.33 16.33 L 29.66 21.66 L 34.66 21.66 L 34.66 22.33 L 36.66 20.33 L 34.66 18.33 L 34.66 19 L 30.33 19 L 30.66 15.66 L 34.33 15.66 L 34.33 16.33 L 36.66 14.33 L 34.66 12.33 L 34.66 13 L 30.66 13 L 30.66 9.66 L 34.33 9.66 L 34.33 10.33 L 36.66 8.33 L 34.66 6.33 L 34.66 7.33 Z" fill="var(--icon-secondary, #6c8ebf)" stroke="none" stroke-width="0"/></svg>