<svg xmlns="http://www.w3.org/2000/svg" viewBox="0 0 24.66 40.67" width="24.66" height="40.67"><path d="M 21.33 40.67 L 21.33 3.34 L 0 3.34 L 0 40.67 Z M 0 3.34 L 4 0 L 24.66 0 L 21.33 3.34 Z M 21.33 40.67 L 24.66 36.67 L 24.66 0 L 21.33 3.34 Z" fill="var(--icon-primary, #dae8fc)" stroke="var(--icon-secondary, #6c8ebf)" stroke-width="1" stroke-linejoin="round"/><path d="M 0 18 L 21.33 18" fill="none" stroke="var(--icon-secondary, #6c8ebf)" stroke-width="1" stroke-linejoin="round"/><path d="M 0 38.34 L 21.33 38.34" fill="none" stroke="var(--icon-secondary, #6c8ebf)" stroke-width="1" stroke-linejoin="round"/><path d="M 9 30 L 9 33 L 7.66 33 L 10.33 36 L 12.66 33 L 11.66 33 L 11.66 30 Z M 9 27.34 L 9 24.34 L 7.66 24.34 L 10.33 21.34 L 12.66 24.34 L 11.66 24.34 L 11.66 27.34 Z M 2.66 27.67 L 5.66 27.67 L 5.66 26.34 L 9 29 L 5.66 31.34 L 5.66 30 L 2.66 30 Z M 17.66 27.67 L 14.66 27.67 L 14.66 26.34 L 11.66 29 L 14.66 31.34 L 14.66 30 L 17.66 30 Z" fill="var(--icon-secondary, #6c8ebf)" stroke="none" stroke-width="0"/><rect x="0" y="0" width="0" height="0" fill="none" stroke="var(--icon-secondary, #6c8ebf)" stroke-width="1"/><rect x="1.66" y="6" width="10" height="4" fill="none" stroke="var(--icon-secondary, #6c8ebf)" stroke-width="1"/><path d="M 2.66 8 L 10.66 8" fill="none" stroke="var(--icon-secondary, #6c8ebf)" stroke-width="1"/></svg>