<svg xmlns="http://www.w3.org/2000/svg" viewBox="0 0 35 35" width="35" height="35"><path d="M 29 35 L 29 5.67 L 0 5.67 L 0 35 Z M 29 5.67 L 0.33 5.67 L 7.33 0 L 35 0 L 35 0 L 35 29 L 29 35 Z M 29 5.67 L 35 0" fill="var(--icon-primary, #dae8fc)" stroke="var(--icon-secondary, #6c8ebf)" stroke-width="1" stroke-linejoin="round"/><path d="M 4 13.34 L 27.33 13.34 M 3 20.34 L 26.33 20.34 M 2 27.34 L 25.33 27.34 M 5.33 31 L 10 9 M 20 31 L 25 9 M 12.66 31 L 17.33 9" fill="none" stroke="var(--icon-secondary, #6c8ebf)" stroke-width="0.67" stroke-linejoin="round"/><path d="M 11 13.34 C 11 14 10 14.34 9 14.34 C 8 14.34 7.33 14 7.33 13.34 C 7.33 12.67 8 12 9 12 C 10 12 11 12.67 11 13.34 Z M 18.33 13 C 18.33 13.67 17.66 14.34 16.66 14.34 C 15.66 14.34 14.66 13.67 14.66 13 C 14.66 12.34 15.66 11.67 16.66 11.67 C 17.66 11.67 18.33 12.34 18.33 13 Z M 26 13.67 C 26 14.34 25 14.67 24 14.67 C 23 14.67 22.33 14.34 22.33 13.67 C 22.33 13 23 12.34 24 12.34 C 25 12.34 26 13 26 13.67 Z M 9 20.34 C 9 21 8.33 21.67 7.33 21.67 C 6.33 21.67 5.66 21 5.66 20.34 C 5.66 19.67 6.33 19.34 7.33 19.34 C 8.33 19.34 9 19.67 9 20.34 Z M 16.66 20.67 C 16.66 21.34 16 22 15 22 C 14 22 13 21.34 13 20.67 C 13 20 14 19.34 15 19.34 C 16 19.34 16.66 20 16.66 20.67 Z M 24.33 20.34 C 24.33 21 23.33 21.67 22.33 21.67 C 21.33 21.67 20.66 21 20.66 20.34 C 20.66 19.67 21.33 19 22.33 19 C 23.33 19 24.33 19.67 24.33 20.34 Z M 7.66 27.34 C 7.66 28 6.66 28.67 5.66 28.67 C 4.66 28.67 4 28 4 27.34 C 4 26.67 4.66 26 5.66 26 C 6.66 26 7.66 26.67 7.66 27.34 Z M 15.33 27.34 C 15.33 28 14.33 28.67 13.33 28.67 C 12.33 28.67 11.66 28 11.66 27.34 C 11.66 26.67 12.33 26 13.33 26 C 14.33 26 15.33 26.67 15.33 27.34 Z M 22.66 27.34 C 22.66 28 22 28.67 21 28.67 C 20 28.67 19 28 19 27.34 C 19 26.67 20 26 21 26 C 22 26 22.66 26.67 22.66 27.34 Z" fill="var(--icon-secondary, #6c8ebf)" stroke="none" stroke-width="0"/></svg>