<svg xmlns="http://www.w3.org/2000/svg" viewBox="0 0 71.67 26.34" width="71.67" height="26.34"><path d="M 55.67 26.34 L 55.67 15.34 L 0 15.34 L 0 26.34 Z" fill="var(--icon-primary, #dae8fc)" stroke="var(--icon-secondary, #6c8ebf)" stroke-width="1" stroke-linejoin="round"/><path d="M 54.33 25.34 L 54.33 17 L 1 17 L 1 25.34 Z M 0 15.34 L 19 0 L 71.67 0 L 55.67 15.34 Z M 55.67 26.34 L 71.67 10.34 L 71.67 0 L 55.67 15.34 Z" fill="var(--icon-primary, #dae8fc)" stroke="var(--icon-secondary, #6c8ebf)" stroke-width="1" stroke-linejoin="round"/><rect x="0" y="0" width="0" height="0" fill="none" stroke="var(--icon-secondary, #6c8ebf)" stroke-width="1"/><path d="M 41.67 16.67 C 43.67 17.67 45 19 45 20.67 C 45 23.34 41.67 25.67 37.67 25.67 C 33.67 25.67 30.67 23.34 30.67 20.67 C 30.67 18 33.67 16 37.67 16 C 39.33 16 40.67 16.34 41.67 16.67" fill="var(--icon-primary, #dae8fc)" stroke="var(--icon-secondary, #6c8ebf)" stroke-width="1"/><path d="M 6.67 22.34 L 3.33 22.34 L 3.33 19.67 L 6.67 19.67 Z M 28 22.34 L 24.67 22.34 L 24.67 19.67 L 28 19.67 Z M 53 22.34 L 49.67 22.34 L 49.67 19.67 L 53 19.67 Z" fill="var(--icon-secondary, #6c8ebf)" stroke="none" stroke-width="0"/><path d="M 43.33 20.67 C 43.33 22.67 40.67 24.34 38 24.34 C 35 24.34 32.33 22.67 32.33 20.67 C 32.33 18.67 35 17 38 17 C 40.67 17 43.33 18.67 43.33 20.67 Z" fill="var(--icon-secondary, #6c8ebf)" stroke="none" stroke-width="0"/></svg>