<svg xmlns="http://www.w3.org/2000/svg" viewBox="0 0 36.66 36.66" width="36.66" height="36.66"><path d="M 30.33 36.66 L 30.33 6 L 0 6 L 0 36.66 Z M 36.66 0 L 30.33 6 L 0 6 L 6.66 0 Z M 36.66 29.33 L 36.66 0 L 30.33 6 L 30.33 36.66 Z" fill="var(--icon-primary, #dae8fc)" stroke="var(--icon-secondary, #6c8ebf)" stroke-width="1" stroke-linejoin="round"/><rect x="0" y="0" width="0" height="0" fill="none" stroke="var(--icon-secondary, #6c8ebf)" stroke-width="1"/><path d="M 15.33 15 C 18.66 15 21.66 18 21.66 21.33 C 21.66 24.66 18.66 27.33 15.33 27.33 C 12 27.33 9.33 24.66 9.33 21.33 C 9.33 18 12 15 15.33 15 Z" fill="var(--icon-secondary, #6c8ebf)" stroke="none" stroke-width="0"/><path d="M 15.33 15 L 15.33 9 M 11 17 L 6.66 12.66 M 9.33 21.33 L 3 21.33 M 11 25.66 L 6.66 30 M 15.33 27.33 L 15.33 33.66 M 19.66 25.66 L 24 30 M 21.66 21.33 L 27.66 21.33 M 19.66 17 L 24 12.66" fill="none" stroke="var(--icon-secondary, #6c8ebf)" stroke-width="0.67"/><path d="M 15.33 7.33 L 17.66 12 L 13.33 12 Z M 5.66 11.33 L 10.33 13 L 7.33 16 Z M 1.66 21.33 L 6 19 L 6 23.33 Z M 5.66 31 L 7 26.33 L 10.33 29.33 L 5.66 31 Z M 15.33 35 L 13 30.66 L 17.66 30.66 Z M 25 31 L 20.33 29.33 L 23.66 26.33 Z M 29.33 21.33 L 24.66 23.66 L 24.66 19 Z M 25.33 11.66 L 23.66 16.33 L 20.33 13 Z" fill="var(--icon-secondary, #6c8ebf)" stroke="none" stroke-width="0"/></svg>