<svg xmlns="http://www.w3.org/2000/svg" viewBox="0 0 28 44.33" width="28" height="44.33"><path d="M 21.33 6.67 L 0 6.67 L 0 44.33 L 21.33 44.33 Z M 21.33 44.33 L 28 37.67 L 28 0 L 6.67 0 L 0 6.67 L 21.33 6.67 Z M 21.33 6.67 L 28 0 M 0 19.33 L 21.33 19.33 M 0 39.33 L 21.33 39.33" fill="var(--icon-primary, #dae8fc)" stroke="var(--icon-secondary, #6c8ebf)" stroke-width="1" stroke-linejoin="round"/><path d="M 14 13.67 L 14 9.67 L 3.67 9.67 L 3.67 13.67 Z" fill="none" stroke="var(--icon-secondary, #6c8ebf)" stroke-width="1" stroke-linejoin="round"/><path d="M 19 23.67 C 4.67 23.67 4.67 23.67 4.67 23.67 C 3 23.67 1.67 25 1.67 26.33 C 1.67 28 3.33 29.33 4.67 29.33 C 7.33 29.33 7.33 29.33 7.33 29.33 C 9 29.33 10 30.67 10 32.33 C 10 34 8.67 35.33 7 35.33 C 2.67 35.33 2.67 35.33 2.67 35.33" fill="none" stroke="var(--icon-secondary, #6c8ebf)" stroke-width="1.67" stroke-linejoin="round"/><path d="M 18.33 21.67 L 18.33 25.33 L 20.67 23.67 Z M 2.67 37.33 L 2.67 33.67 L 0.67 35.33 Z" fill="var(--icon-secondary, #6c8ebf)" stroke="none" stroke-width="0"/></svg>