<svg xmlns="http://www.w3.org/2000/svg" viewBox="0 0 56.34 28" width="56.34" height="28"><path d="M 49.67 13.33 L 56.34 0 L 10.34 0 L 0 13.33 Z M 56.34 12.33 L 56.34 0 L 49.67 13.33 L 49.67 28 Z M 49.67 28 L 49.67 13.33 L 0 13.33 L 0 28 Z" fill="var(--icon-primary, #dae8fc)" stroke="var(--icon-secondary, #6c8ebf)" stroke-width="1" stroke-linejoin="round"/><rect x="0" y="0" width="0" height="0" fill="none" stroke="var(--icon-secondary, #6c8ebf)" stroke-width="1"/><path d="M 8.34 26 L 8.34 23 L 5.34 23 L 5.34 26 Z M 12.67 26 L 12.67 23 L 9.67 23 L 9.67 26 Z M 17 26 L 17 23 L 14 23 L 14 26 Z M 21.34 26 L 21.34 23 L 18.34 23 L 18.34 26 Z M 25.67 26 L 25.67 23 L 22.67 23 L 22.67 26 Z M 30 26 L 30 23 L 27 23 L 27 26 Z M 34.34 26 L 34.34 23 L 31.34 23 L 31.34 26 Z M 38.67 26 L 38.67 23 L 35.67 23 L 35.67 26 Z M 43 26 L 43 23 L 40 23 L 40 26 Z" fill="none" stroke="var(--icon-secondary, #6c8ebf)" stroke-width="1"/><path d="M 41.67 6 L 43.34 4.33 L 46.67 6.33 L 40 8 L 41.34 6.66 L 28.34 6.66 L 28.67 6 Z M 29.34 6 L 29 6.66 L 16 6.66 L 14.67 8 L 11 6.33 L 18.34 4 L 16.34 6 Z" fill="var(--icon-secondary, #6c8ebf)" stroke="none" stroke-width="0"/></svg>