<svg xmlns="http://www.w3.org/2000/svg" viewBox="0 0 42 48.66" width="42" height="48.66"><path d="M 20.67 16 L 0 16 L 0 48.66 L 20.67 48.66 Z M 20.67 48.66 L 27 42 L 27 9.33 L 6.67 9.33 L 0 16 L 20.67 16 Z" fill="var(--icon-primary, #dae8fc)" stroke="var(--icon-secondary, #6c8ebf)" stroke-width="1" stroke-linejoin="round"/><rect x="0" y="0" width="0" height="0" fill="none" stroke="var(--icon-secondary, #6c8ebf)" stroke-width="1"/><path d="M 20.67 16 L 27 9.33 M 0 28.66 L 20.67 28.66 M 0 43.66 L 20.67 43.66" fill="none" stroke="var(--icon-secondary, #6c8ebf)" stroke-width="1"/><path d="M 13 23 L 13 18.66 L 2.67 18.66 L 2.67 23 Z" fill="none" stroke="var(--icon-secondary, #6c8ebf)" stroke-width="1"/><path d="M 42 0 L 41.33 0.33 L 15.33 0.33 L 16 0 Z M 42 25.66 L 42 0 L 41.33 0.66 L 41.33 26.33 Z" fill="var(--icon-primary, #dae8fc)" stroke="var(--icon-secondary, #6c8ebf)" stroke-width="1" stroke-linejoin="round"/><path d="M 16.33 26.33 L 41.33 26.33 L 41.33 0.33 L 15.33 0.33 L 15.33 25.33 Z" fill="var(--icon-primary, #dae8fc)" stroke="var(--icon-secondary, #6c8ebf)" stroke-width="1" stroke-linejoin="round"/><path d="M 39.33 0.33 C 39.33 15.33 39.33 15.33 39.33 15.33 C 39.33 16.66 38.33 16.33 38.33 16.33 C 18 16.33 18 16.33 18 16.33 C 18 16.33 17.33 16.33 17.33 15.66 C 17.33 0.33 17.33 0.33 17.33 0.33" fill="none" stroke="var(--icon-secondary, #6c8ebf)" stroke-width="1" stroke-linejoin="round"/><path d="M 17 3 L 17 2 L 15.67 2 L 15.67 3 Z M 41 3 L 41 2 L 39.67 2 L 39.67 3 Z" fill="none" stroke="var(--icon-secondary, #6c8ebf)" stroke-width="1" stroke-linejoin="round"/><path d="M 35 19 C 35 26.33 35 26.33 35 26.33 C 19.67 26.33 19.67 26.33 19.67 26.33 C 19.67 18.66 19.67 18.66 19.67 18.66 C 19.67 18 20.67 18 20.67 18 C 34.33 18 34.33 18 34.33 18 C 35.33 18 35 19 35 19 Z" fill="var(--icon-secondary, #6c8ebf)" stroke="var(--icon-secondary, #6c8ebf)" stroke-width="0.67" stroke-linejoin="round"/><path d="M 39.33 26.33 C 39.33 19 39.33 19 39.33 19 C 39.33 19 39.33 18 38.33 18 C 20.67 18 20.67 18 20.67 18 C 20.67 18 19.67 18 19.67 18.66 C 19.67 26 19.67 26 19.67 26" fill="none" stroke="var(--icon-secondary, #6c8ebf)" stroke-width="1" stroke-linejoin="round"/><path d="M 25.67 25.66 L 25.67 18.66 L 22.67 18.66 L 22.67 25.66 Z" fill="var(--icon-primary, #dae8fc)" stroke="none" stroke-width="0"/><path d="M 33.33 13.66 C 36 10.66 36 6.33 33.33 3.33 C 30.67 0.66 26 0.66 23.33 3.33 C 20.67 6.33 20.67 10.66 23.33 13.66 C 26 16.33 30.67 16.33 33.33 13.66 Z" fill="var(--icon-secondary, #6c8ebf)" stroke="none" stroke-width="0"/><rect x="0" y="0" width="0" height="0" fill="none" stroke="var(--icon-secondary, #6c8ebf)" stroke-width="1"/><path d="M 29 11.33 L 31 9 L 28.67 8.66 Z M 25.67 7.66 L 27.67 5.66 L 28 8 Z" fill="var(--icon-primary, #dae8fc)" stroke="none" stroke-width="0"/><path d="M 30.33 4.33 L 32.33 6.33 L 32.67 4 Z M 24 10.33 L 26.33 12.66 L 24 13 Z" fill="var(--icon-primary, #dae8fc)" stroke="none" stroke-width="0"/><path d="M 27.33 7.33 L 24 4" fill="none" stroke="var(--icon-secondary, #6c8ebf)" stroke-width="1"/><path d="M 33 13 L 29.67 9.66 M 29 7.66 L 31.33 5.33" fill="none" stroke="var(--icon-secondary, #6c8ebf)" stroke-width="1"/><path d="M 25 11.66 L 27.67 9" fill="none" stroke="var(--icon-secondary, #6c8ebf)" stroke-width="1"/></svg>