<svg xmlns="http://www.w3.org/2000/svg" viewBox="0 0 35.66 40.67" width="35.66" height="40.67"><path d="M 30 35 L 34.66 35 L 34.66 30.33 L 30 30.33" fill="var(--icon-secondary, #6c8ebf)" stroke="var(--icon-secondary, #6c8ebf)" stroke-width="0.67" stroke-linejoin="round"/><path d="M 6.33 9.67 L 5.66 9.67 L 0.66 9.67 L 0.66 14 L 5.66 14 L 6 14" fill="var(--icon-secondary, #6c8ebf)" stroke="var(--icon-secondary, #6c8ebf)" stroke-width="0.67" stroke-linejoin="round"/><path d="M 29.33 14 C 30 14 30 14 30 14 C 35 14 35.66 18.33 35.66 18.33 C 35.66 14 35.66 14 35.66 14 C 35.66 14 35 9.67 30 9.67 C 29 9.67 29 9.67 29 9.67" fill="var(--icon-secondary, #6c8ebf)" stroke="var(--icon-secondary, #6c8ebf)" stroke-width="0.67" stroke-linejoin="round"/><path d="M 6.33 30.67 C 5.33 30.67 5.33 30.67 5.33 30.67 C 0.66 30.67 0 26.33 0 26.33 C 0 30.67 0 30.67 0 30.67 C 0 30.67 0.66 35 5.33 35 C 6.33 35 6.33 35 6.33 35" fill="var(--icon-secondary, #6c8ebf)" stroke="var(--icon-secondary, #6c8ebf)" stroke-width="0.67" stroke-linejoin="round"/><path d="M 6.33 30.67 C 5.33 30.67 5.33 30.67 5.33 30.67 C 0.66 30.67 0 26.33 0 26.33 C 0 30.67 0 30.67 0 30.67 C 0 30.67 0.66 35 5.33 35 C 6.33 35 6.33 35 6.33 35" fill="var(--icon-secondary, #6c8ebf)" stroke="var(--icon-secondary, #6c8ebf)" stroke-width="0.67" stroke-linejoin="round"/><path d="M 27 40.67 L 27 3.33 L 5.33 3.33 L 5.33 40.67 L 27 40.67 Z M 5.33 3.33 L 9.33 0 L 30.33 0 L 27 3.33 L 5.33 3.33 Z M 27 40.67 L 30.33 36.67 L 30.33 0 L 27 3.33 L 27 40.67 Z" fill="var(--icon-primary, #dae8fc)" stroke="var(--icon-secondary, #6c8ebf)" stroke-width="1" stroke-linejoin="round"/><path d="M 35.66 13.67 C 35.66 19 35.66 19 35.66 19 C 35 25.33 24 25 24 25 C 24 25.33 24 25.33 24 25.33 C 24 29.67 24 29.67 24 29.67 C 16.66 22.33 16.66 22.33 16.66 22.33 C 24 15 24 15 24 15 C 24 19.67 24 19.67 24 19.67 C 24 19.67 35.33 20 35.66 13.67" fill="var(--icon-secondary, #6c8ebf)" stroke="var(--icon-secondary, #6c8ebf)" stroke-width="0.67" stroke-linejoin="round"/><path d="M 0 31 C 0 25.67 0 25.67 0 25.67 C 0.33 19.33 8 19.67 8 19.67 C 8 19.33 8 19.33 8 19.33 C 8 15 8 15 8 15 C 15.33 22.33 15.33 22.33 15.33 22.33 C 8 29.67 8 29.67 8 29.67 C 8 25 8 25 8 25 C 8 25 0.33 24.67 0 31" fill="var(--icon-secondary, #6c8ebf)" stroke="var(--icon-secondary, #6c8ebf)" stroke-width="0.67" stroke-linejoin="round"/></svg>