<svg xmlns="http://www.w3.org/2000/svg" viewBox="0 0 38.33 35" width="38.33" height="35"><path d="M 5.67 31 L 5.67 26 L 33.33 26 L 33.33 31 L 5.67 31 Z" fill="var(--icon-primary, #dae8fc)" stroke="var(--icon-secondary, #6c8ebf)" stroke-width="1" stroke-linejoin="round"/><path d="M 38.33 21 L 38.33 26.34 L 33.33 31 L 33.33 26 L 5.33 26 Z" fill="var(--icon-primary, #dae8fc)" stroke="var(--icon-secondary, #6c8ebf)" stroke-width="1" stroke-linejoin="round"/><path d="M 38.33 21 L 38.33 26.34 L 33.33 31 L 33.33 26 L 5.33 26" fill="none" stroke="var(--icon-secondary, #6c8ebf)" stroke-width="1" stroke-linejoin="round"/><path d="M 5.67 21 L 38.33 21 M 33.33 26 L 38.33 21" fill="none" stroke="var(--icon-secondary, #6c8ebf)" stroke-width="1" stroke-linejoin="round"/><path d="M 33.33 25.67 L 33.33 4.67 L 5.33 4.67 L 5.33 25.67 Z M 33.33 25.67 L 38.33 21 L 38.33 0 L 10.33 0 L 5.33 4.67 L 33.33 4.67 Z M 31 23.34 L 31 7 L 8 7 L 8 23.34 Z" fill="var(--icon-primary, #dae8fc)" stroke="var(--icon-secondary, #6c8ebf)" stroke-width="1" stroke-linejoin="round"/><path d="M 33.33 4.67 L 38.33 0" fill="none" stroke="var(--icon-secondary, #6c8ebf)" stroke-width="1" stroke-linejoin="round"/><path d="M 32 35 L 32 31.67 L 0 31.67 L 3.67 28 L 35.67 28 L 35.67 31.34 Z M 32 31.67 L 32 35 L 0 35 L 0 31.67 Z" fill="var(--icon-primary, #dae8fc)" stroke="var(--icon-secondary, #6c8ebf)" stroke-width="1" stroke-linejoin="round"/><path d="M 32 31.67 L 35.67 28" fill="none" stroke="var(--icon-secondary, #6c8ebf)" stroke-width="1" stroke-linejoin="round"/><path d="M 18.67 12 C 18.67 12 21 10.67 23 11 C 23.33 12.34 23.33 12.34 23.33 12.34 C 24.67 14.34 24.67 14.34 24.67 14.34 C 29.67 11.67 29.67 11.67 29.67 11.67 C 28.33 9.34 28.33 9.34 28.33 9.34 C 26.67 8.67 26.67 8.67 26.67 8.67 C 26.67 8.67 22.33 8.34 17.33 10.67 C 16.67 11 16.67 11 16.67 11 C 12.33 13.67 10 17.67 10 17.67 C 9.67 19.34 9.67 19.34 9.67 19.34 C 11 21.67 11 21.67 11 21.67 C 16 19 16 19 16 19 C 14.67 17 14.67 17 14.67 17 C 14 16 14 16 14 16 C 14.67 14 17.33 12.67 17.33 12.67 Z" fill="none" stroke="var(--icon-secondary, #6c8ebf)" stroke-width="1" stroke-linejoin="round"/><path d="M 15 16.67 L 9.67 19.67 M 28.33 9.34 L 23 12.34" fill="none" stroke="var(--icon-secondary, #6c8ebf)" stroke-width="1" stroke-linejoin="round"/></svg>