<svg xmlns="http://www.w3.org/2000/svg" viewBox="0 0 84.67 44.33" width="84.67" height="44.33"><path d="M 58.67 35.67 C 59 37.67 58 40 56 41.67 C 54 43.67 51.33 44.33 49.33 44" fill="none" stroke="var(--icon-secondary, #6c8ebf)" stroke-width="0.67" stroke-linecap="round" stroke-linejoin="round"/><path d="M 57.67 35.33 C 58 37.33 57 39.33 55.33 41 C 53.33 42.67 51 43.33 49 43" fill="none" stroke="var(--icon-secondary, #6c8ebf)" stroke-width="0.67" stroke-linecap="round" stroke-linejoin="round"/><path d="M 57 35 C 57 37 56.33 39 54.67 40.33 C 53 42 50.67 42.67 49 42" fill="none" stroke="var(--icon-secondary, #6c8ebf)" stroke-width="0.67" stroke-linecap="round" stroke-linejoin="round"/><path d="M 56 34.67 C 56 36.33 55.33 38.33 54 39.67 C 52.33 41 50.33 41.67 48.67 41.33" fill="none" stroke="var(--icon-secondary, #6c8ebf)" stroke-width="0.67" stroke-linecap="round" stroke-linejoin="round"/><path d="M 55 34.33 C 55.33 36 54.67 37.67 53.33 39 C 51.67 40.33 50 40.67 48.33 40.33" fill="none" stroke="var(--icon-secondary, #6c8ebf)" stroke-width="0.67" stroke-linecap="round" stroke-linejoin="round"/><path d="M 54.33 34.33 C 54.33 35.67 53.67 37 52.33 38 C 51.33 39.33 49.67 39.67 48 39.33" fill="none" stroke="var(--icon-secondary, #6c8ebf)" stroke-width="0.67" stroke-linecap="round" stroke-linejoin="round"/><path d="M 53.33 34 C 53.33 35 53 36.33 51.67 37.33 C 50.67 38.33 49 39 48 38.67" fill="none" stroke="var(--icon-secondary, #6c8ebf)" stroke-width="0.67" stroke-linecap="round" stroke-linejoin="round"/><path d="M 52.33 33.67 C 52.67 34.67 52 35.67 51 36.67 C 50 37.67 48.67 38 47.67 37.67" fill="none" stroke="var(--icon-secondary, #6c8ebf)" stroke-width="0.67" stroke-linecap="round" stroke-linejoin="round"/><path d="M 0 26 L 0 24 L 18 17.67 L 26 19 L 31 20 L 34.33 20.67 L 34.33 23 Z" fill="var(--icon-primary, #dae8fc)" stroke="var(--icon-secondary, #6c8ebf)" stroke-width="1" stroke-linejoin="round"/><path d="M 42 0 C 39.67 0 37.67 0.67 37.67 1.67 C 37.67 2.67 39.67 3.67 42 3.67 C 44 3.67 46 2.67 46 1.67 C 46 0.67 44 0 42 0 Z" fill="var(--icon-primary, #dae8fc)" stroke="var(--icon-secondary, #6c8ebf)" stroke-width="1" stroke-linejoin="round"/><path d="M 29 22 C 34.33 23 34.33 23 34.33 23 C 15.67 28.33 15.67 28.33 15.67 28.33 C 0 26 0 26 0 26 C 18 20 18 20 18 20 C 25.67 21 25.67 21 25.67 21 C 21.33 22.33 20.33 23.67 20.33 23.67 C 22 24.67 28 22.33 28 22.33 C 28 22.33 28 22.33 28 22.33 C 33.33 20.67 33.33 20.67 33.33 20.67 C 33.33 17.67 33.33 17.67 33.33 17.67 C 26.33 20 26.33 20 26.33 20 C 26.33 20 26.33 20 26.33 20 C 26.33 20 26 21 26 21" fill="var(--icon-primary, #dae8fc)" stroke="var(--icon-secondary, #6c8ebf)" stroke-width="1" stroke-linejoin="round"/><path d="M 50.33 28 C 50.33 5.67 50.33 5.67 50.33 5.67 C 50.33 3.67 46.67 2 42 2 C 37.33 2 33.33 3.67 33.33 5.67 C 33.33 28 33.33 28 33.33 28" fill="var(--icon-primary, #dae8fc)" stroke="var(--icon-secondary, #6c8ebf)" stroke-width="1" stroke-linejoin="round"/><path d="M 49.33 10.33 L 49.33 8.33 L 68 1.67 L 84.67 5.67 L 84.67 8 Z" fill="var(--icon-primary, #dae8fc)" stroke="var(--icon-secondary, #6c8ebf)" stroke-width="1" stroke-linejoin="round"/><path d="M 55.33 11.33 L 49.33 10.33 L 68 4.33 L 84.67 8 L 65 13.67 L 60.33 12.67 Z" fill="var(--icon-primary, #dae8fc)" stroke="var(--icon-secondary, #6c8ebf)" stroke-width="1" stroke-linejoin="round"/><path d="M 60.67 12.67 C 64.67 11.67 66.33 9.67 66.33 9.67 C 60 9.67 55.67 11.33 55.67 11.33" fill="var(--icon-primary, #dae8fc)" stroke="var(--icon-secondary, #6c8ebf)" stroke-width="1" stroke-linejoin="round"/><path d="M 61 12.67 C 47 16.67 47 16.67 47 16.67 C 45.33 16.67 45.33 15 45.33 15 C 45.33 14 47 13.67 47 13.67 C 56 11.33 56 11.33 56 11.33" fill="var(--icon-primary, #dae8fc)" stroke="var(--icon-secondary, #6c8ebf)" stroke-width="1" stroke-linejoin="round"/><path d="M 32.33 34 C 32.33 32 36.67 30.33 42 30.33 C 47.33 30.33 51.67 32 51.67 34 C 51.67 28.67 51.67 28.67 51.67 28.67 C 51.67 26.33 47.33 24.67 42 24.67 C 36.67 24.67 32.33 26.33 32.33 28.67 Z" fill="var(--icon-primary, #dae8fc)" stroke="var(--icon-secondary, #6c8ebf)" stroke-width="1" stroke-linejoin="round"/><path d="M 42 30.33 C 36.67 30.33 32.33 32 32.33 34 C 32.33 36 36.67 38 42 38 C 47.33 38 51.67 36 51.67 34 C 51.67 32 47.33 30.33 42 30.33 Z" fill="var(--icon-primary, #dae8fc)" stroke="var(--icon-secondary, #6c8ebf)" stroke-width="1" stroke-linejoin="round"/><path d="M 44.33 35.67 L 43.33 34.33 L 46.33 33.67 L 45.67 34.33 L 50.33 35 L 49.33 36 L 44.67 35 Z M 40 32.67 L 40.33 34 L 37.67 34.33 L 38.33 34 L 33.67 33.33 L 34.67 32.33 L 39.33 33.33 Z M 41.33 36.33 L 38.33 37 L 38.33 35.67 L 39 36 L 40.67 34.67 L 42 35 L 40.33 36 Z M 42.67 31.67 L 45.67 31 L 45.67 32.33 L 45 32 L 43.33 33.33 L 42 33.33 L 43.67 31.67 Z" fill="var(--icon-secondary, #6c8ebf)" stroke="none" stroke-width="0"/></svg>