<svg xmlns="http://www.w3.org/2000/svg" viewBox="0 0 33.33 59.34" width="33.33" height="59.34"><path d="M 9 24.34 C 6.33 25 0 27.34 0 30.67 C 0 30.67 0 30.67 0 30.67 C 0 34 6.67 36.67 9.33 37.34" fill="var(--icon-primary, #dae8fc)" stroke="var(--icon-secondary, #6c8ebf)" stroke-width="1"/><path d="M 23.67 0.67 C 21.33 0.67 12.33 9 10 18.34 C 8.67 22.67 9.33 27.67 9.33 31.67 C 9.33 35 8.67 38.67 10 42.67 C 12.33 51.34 21.67 59 24.33 59" fill="var(--icon-primary, #dae8fc)" stroke="var(--icon-secondary, #6c8ebf)" stroke-width="1"/><path d="M 25 59.34 C 29.67 59.34 33.33 46 33.33 29.67 C 33.33 13.34 29.67 0 25 0 C 20.33 0 16.67 13.34 16.67 29.67 C 16.67 46 20.33 59.34 25 59.34 Z" fill="var(--icon-primary, #dae8fc)" stroke="var(--icon-secondary, #6c8ebf)" stroke-width="1"/><path d="M 32 25.67 C 32 24.34 30.33 23.67 28.67 23.67 C 28.67 23.67 28.67 23.67 28.67 23.67 C 26.67 23.67 25.33 22.34 25.33 24.34 C 25.33 36.34 25.33 36.34 25.33 36.34 C 25.33 38.34 27 36.67 28.67 36.67 C 28.67 36.67 28.67 36.67 28.67 36.67 C 30.67 36.67 32 35.67 32 34.67 Z" fill="none" stroke="var(--icon-secondary, #6c8ebf)" stroke-width="1"/><path d="M 19.67 50.67 C 25 41.67 25 41.67 25 41.67 C 26 40 26.67 42 28.33 43 C 28.33 43 28.33 43 28.33 43 C 30.33 44 31 45.67 30.33 47 C 26 54.34 26 54.34 26 54.34 C 25.33 55.34 23.33 55.34 21.67 54.34 C 21.67 54.34 21.67 54.34 21.67 54.34 C 21.33 54.34 21 54 20.67 54" fill="none" stroke="var(--icon-secondary, #6c8ebf)" stroke-width="1"/><path d="M 17.67 42.34 C 18.33 43.34 18.67 44 19.67 44 C 22 44 24.33 38 24.33 30.67 C 24.33 23.34 22 17.34 19.67 17.34 C 18.67 17.34 18 18.34 17 20" fill="none" stroke="var(--icon-secondary, #6c8ebf)" stroke-width="1"/><path d="M 17 37.34 C 19 37.34 19 37.34 19 37.34 C 22.67 37.34 22.67 34.34 22.67 30.67 C 22.67 30.67 22.67 30.67 22.67 30.67 C 22.67 27 22.67 24 19 24 C 17 24 17 24 17 24" fill="none" stroke="var(--icon-secondary, #6c8ebf)" stroke-width="1"/><path d="M 20 7.67 C 25 16.34 25 16.34 25 16.34 C 26 18 26.67 16 28.33 14.67 C 28.33 14.67 28.33 14.67 28.33 14.67 C 30.33 13.67 31 12 30.33 11 C 26 3.34 26 3.34 26 3.34 C 25.33 2.34 23.67 2.34 22 3.34" fill="none" stroke="var(--icon-secondary, #6c8ebf)" stroke-width="1"/></svg>