<svg xmlns="http://www.w3.org/2000/svg" viewBox="0 0 57.67 42" width="57.67" height="42"><path d="M 56.33 0 L 57.67 2 L 53 25.67 L 51.33 24.67 Z" fill="var(--icon-primary, #dae8fc)" stroke="var(--icon-secondary, #6c8ebf)" stroke-width="1" stroke-linejoin="round"/><path d="M 51.67 26.33 C 51.67 30 51.67 30 51.67 30 C 50.67 31 50.67 31 50.67 31 C 50.67 31 48.33 31.67 49 32.67 C 39 42 39 42 39 42 C 39 38 39 38 39 38 Z" fill="var(--icon-primary, #dae8fc)" stroke="var(--icon-secondary, #6c8ebf)" stroke-width="1" stroke-linejoin="round"/><path d="M 0 38 L 0 42 L 39 42 L 39 38 Z" fill="var(--icon-primary, #dae8fc)" stroke="var(--icon-secondary, #6c8ebf)" stroke-width="1" stroke-linejoin="round"/><path d="M 15.67 26.67 L 51.67 26.33 L 39 38 L 0 38 Z M 51.33 24.67 L 56.33 0 L 21 0 L 15.33 24.67 Z" fill="var(--icon-primary, #dae8fc)" stroke="var(--icon-secondary, #6c8ebf)" stroke-width="1" stroke-linejoin="round"/><rect x="0" y="0" width="0" height="0" fill="none" stroke="var(--icon-secondary, #6c8ebf)" stroke-width="1"/><path d="M 48.33 22.33 L 52.33 3 L 23.67 3 L 19.33 22.33 L 48.33 22.33 Z" fill="var(--icon-secondary, #6c8ebf)" stroke="none" stroke-width="0"/><path d="M 16.33 27 L 7.33 34.33 M 19.33 27 L 10.33 34.33 M 22.33 27 L 13.33 34.33 M 25.33 27 L 16 34.33 M 28 27 L 19 34.33 M 31 27 L 22 34.33 M 34 27 L 25 34.33 M 37 27 L 27.67 34.33 M 39.67 27 L 30.67 34.33 M 42.67 27 L 33.67 34.33 M 45.67 27 L 36.67 34.33 M 48.67 27 L 39.33 34.33 M 8.33 33.33 L 40.67 33.33 M 10.67 31.67 L 42.33 31.67 M 12.67 30 L 44.67 30 M 14.67 28.33 L 46.67 28.33" fill="none" stroke="var(--icon-secondary, #6c8ebf)" stroke-width="1"/></svg>