<svg xmlns="http://www.w3.org/2000/svg" viewBox="0 0 40.66 37.33" width="40.66" height="37.33"><path d="M 0 37.33 L 10 32.66 L 40.66 32.66 L 30.66 37.33 Z M 0 4.66 L 10 0 L 10 32.66 L 0 37.33 Z M 10 0 L 40.66 0 L 40.66 32.66 L 10 32.66 Z M 0 4.66 L 10 0 L 40.66 0 L 30.66 4.66 Z" fill="var(--icon-primary, #dae8fc)" stroke="var(--icon-secondary, #6c8ebf)" stroke-width="1" stroke-linejoin="round"/><path d="M 14.33 9.66 L 31.33 9.66 M 14.33 30.33 L 31.33 30.33" fill="none" stroke="var(--icon-secondary, #6c8ebf)" stroke-width="1" stroke-linejoin="round"/><path d="M 30.66 4.66 L 40.66 0 L 40.66 32.66 L 30.66 37.33 Z" fill="var(--icon-primary, #dae8fc)" stroke="var(--icon-secondary, #6c8ebf)" stroke-width="1" stroke-linejoin="round"/><path d="M 35.66 10 C 36.66 10 39 14 39 19.66 C 39 25 36.66 29.33 35.66 29.33 C 34.33 29.33 32.66 25 32.66 19.66 C 32.66 14 34.33 10 35.66 10" fill="none" stroke="var(--icon-secondary, #6c8ebf)" stroke-width="1" stroke-linejoin="round"/><path d="M 14.33 9.66 C 15.33 9.66 18 14 18 20 C 18 25.66 15.33 30.33 14.33 30.33 C 13.33 30.33 11 25.66 11 20 C 11 14 13.33 9.66 14.33 9.66" fill="none" stroke="var(--icon-secondary, #6c8ebf)" stroke-width="1" stroke-linejoin="round"/><rect x="0" y="0" width="0" height="0" fill="none" stroke="var(--icon-secondary, #6c8ebf)" stroke-width="1"/><path d="M 29.66 23.33 L 22.66 23.33 M 15.66 16.33 L 22.66 16.33" fill="none" stroke="var(--icon-secondary, #6c8ebf)" stroke-width="1.33"/><path d="M 23 21.33 L 16.33 23.66 L 23 25.66 Z" fill="var(--icon-secondary, #6c8ebf)" stroke="var(--icon-secondary, #6c8ebf)" stroke-width="0.67"/><path d="M 22.66 18.33 L 29.33 16.33 L 22.66 14.33 Z" fill="var(--icon-secondary, #6c8ebf)" stroke="var(--icon-secondary, #6c8ebf)" stroke-width="0.67"/></svg>