<svg xmlns="http://www.w3.org/2000/svg" viewBox="0 0 27.67 39.33" width="27.67" height="39.33"><path d="M 21 6.33 L 0 6.33 L 0 39.33 L 21 39.33 Z M 21 39.33 L 27.67 32.67 L 27.67 0 L 8.33 0 L 0 6.33 L 21 6.33 Z" fill="var(--icon-primary, #dae8fc)" stroke="var(--icon-secondary, #6c8ebf)" stroke-width="1" stroke-linejoin="round"/><path d="M 21 6.33 L 27.67 0 M 10.33 6.33 L 10.33 39.33 M 10.33 6.33 L 18 0" fill="none" stroke="var(--icon-secondary, #6c8ebf)" stroke-width="1" stroke-linejoin="round"/><rect x="0" y="0" width="0" height="0" fill="none" stroke="var(--icon-secondary, #6c8ebf)" stroke-width="1"/><rect x="1.67" y="9.33" width="7.33" height="4.33" fill="none" stroke="var(--icon-secondary, #6c8ebf)" stroke-width="1"/><rect x="12" y="9.33" width="7.33" height="4.33" fill="none" stroke="var(--icon-secondary, #6c8ebf)" stroke-width="1"/><rect x="1.67" y="25.33" width="7.33" height="4.33" fill="none" stroke="var(--icon-secondary, #6c8ebf)" stroke-width="1"/><rect x="12" y="25.33" width="7.33" height="4.33" fill="none" stroke="var(--icon-secondary, #6c8ebf)" stroke-width="1"/><rect x="1.67" y="32.33" width="7.33" height="4.33" fill="none" stroke="var(--icon-secondary, #6c8ebf)" stroke-width="1"/><rect x="12" y="32.33" width="7.33" height="4.33" fill="none" stroke="var(--icon-secondary, #6c8ebf)" stroke-width="1"/></svg>