<svg xmlns="http://www.w3.org/2000/svg" viewBox="0 0 43.33 32.66" width="43.33" height="32.66"><path d="M 32.67 21 L 32.67 10.66 L 0 10.66 L 0 21 Z M 0 10.66 L 13 0 L 43.33 0 L 32.67 10.66 Z M 32.67 21.33 L 43.33 10.33 L 43.33 0 L 32.67 10.66 Z M 32.67 32.66 L 32.67 21 L 0 21 L 0 32.66 Z M 32.67 32.66 L 43.33 21.66 L 43.33 10.33 L 32.67 21 Z" fill="var(--icon-primary, #dae8fc)" stroke="var(--icon-secondary, #6c8ebf)" stroke-width="1" stroke-linejoin="round"/><path d="M 23.33 4.66 L 25.33 5 L 31 3.66 L 33 4 L 32 2.66 L 25.33 2.66 L 28.33 3 Z M 12 3 L 14 2.66 L 19.33 4 L 21.33 3.66 L 20.33 5 L 14 5 L 17 4.66 Z M 32.33 8 L 30.33 8.66 L 25.33 7 L 23 7.66 L 24 6 L 30.33 6 L 28 6.66 Z M 21 6.66 L 19 6 L 14 7.66 L 11.33 7 L 12.33 8.66 L 19 8.66 L 16 8 Z" fill="var(--icon-secondary, #6c8ebf)" stroke="none" stroke-width="0"/><path d="M 16.33 19.66 C 18.67 19.66 20.33 19 20.33 18.33 C 20.33 17.66 18.67 17.33 16.33 17.33 C 14.33 17.33 12.33 17.66 12.33 18.33 C 12.33 19 14.33 19.66 16.33 19.66 Z" fill="var(--icon-secondary, #6c8ebf)" stroke="var(--icon-secondary, #6c8ebf)" stroke-width="1" stroke-linejoin="round"/><path d="M 20.33 13 C 20.33 13.66 18.67 14 16.33 14 C 14.33 14 12.33 13.66 12.33 13 C 12.33 18 12.33 18 12.33 18 C 12.33 18.66 14.33 19 16.33 19 C 18.67 19 20.33 18.66 20.33 18 Z" fill="var(--icon-secondary, #6c8ebf)" stroke="var(--icon-secondary, #6c8ebf)" stroke-width="1" stroke-linejoin="round"/><path d="M 16.33 14 C 18.67 14 20.33 13.66 20.33 13 C 20.33 12.33 18.67 11.66 16.33 11.66 C 14.33 11.66 12.33 12.33 12.33 13 C 12.33 13.66 14.33 14 16.33 14 Z" fill="var(--icon-secondary, #6c8ebf)" stroke="var(--icon-secondary, #6c8ebf)" stroke-width="1" stroke-linejoin="round"/><rect x="0" y="0" width="0" height="0" fill="none" stroke="var(--icon-secondary, #6c8ebf)" stroke-width="1"/><path d="M 12.67 26.33 L 6.67 26.33 L 6.67 26 L 4.33 26.66 L 6.67 27.33 L 6.67 27 L 12.67 27 Z M 16 28 L 16 30.33 L 14.33 30.33 L 16.67 31 L 19 30.33 L 17.33 30.33 L 17.33 28 Z M 16 25.33 L 16 23 L 14.33 23 L 16.67 22.33 L 19 23 L 17.33 23 L 17.33 25.33 Z M 21 27 L 27 27 L 27 27.33 L 29.33 26.66 L 27 26 L 27 26.33 L 21 26.33 Z" fill="var(--icon-secondary, #6c8ebf)" stroke="none" stroke-width="0"/><path d="M 26.33 30 C 25.33 30.66 20 29.33 14.67 27.66 C 9.67 25.66 6 23.66 7.33 23.33 C 8.33 23 13.67 24 19 26 C 24.33 28 27.67 29.66 26.33 30 Z" fill="none" stroke="var(--icon-secondary, #6c8ebf)" stroke-width="0.67"/><path d="M 26.33 23.33 C 27.33 23.66 24 25.66 18.67 27.33 C 13.67 29.33 8.33 30.66 7 30 C 6 29.66 9.33 28 14.33 26 C 19.67 24 25 23 26.33 23.33 Z" fill="none" stroke="var(--icon-secondary, #6c8ebf)" stroke-width="0.67"/><path d="M 19.33 28 C 21.33 27.33 21.67 26.33 20.33 25.66 C 19 25 16 25 14 25.33 C 12 26 11.67 26.66 13 27.66 C 14.33 28.33 17.33 28.33 19.33 28 Z" fill="var(--icon-secondary, #6c8ebf)" stroke="var(--icon-secondary, #6c8ebf)" stroke-width="0.67"/></svg>