<svg xmlns="http://www.w3.org/2000/svg" viewBox="0 0 34.67 52.34" width="34.67" height="52.34"><path d="M 28 6.67 L 7.67 6.67 L 7.67 52.34 L 28 52.34 Z M 28 52.34 L 34.67 45.67 L 34.67 0 L 14 0 L 7.67 6.67 L 28 6.67 Z M 28 6.67 L 34.67 0" fill="var(--icon-primary, #dae8fc)" stroke="var(--icon-secondary, #6c8ebf)" stroke-width="1" stroke-linejoin="round"/><rect x="0" y="0" width="0" height="0" fill="none" stroke="var(--icon-secondary, #6c8ebf)" stroke-width="1"/><rect x="9.34" y="26" width="10.33" height="1.67" fill="none" stroke="var(--icon-secondary, #6c8ebf)" stroke-width="1"/><rect x="9.34" y="29" width="10.33" height="1.67" fill="none" stroke="var(--icon-secondary, #6c8ebf)" stroke-width="1"/><rect x="9.34" y="32.34" width="10.33" height="1.67" fill="none" stroke="var(--icon-secondary, #6c8ebf)" stroke-width="1"/><rect x="9.34" y="35.34" width="10.33" height="1.67" fill="none" stroke="var(--icon-secondary, #6c8ebf)" stroke-width="1"/><rect x="9.34" y="38.34" width="10.33" height="1.67" fill="none" stroke="var(--icon-secondary, #6c8ebf)" stroke-width="1"/><rect x="9.34" y="41.67" width="10.33" height="1.67" fill="none" stroke="var(--icon-secondary, #6c8ebf)" stroke-width="1"/><rect x="9.34" y="44.67" width="10.33" height="1.67" fill="none" stroke="var(--icon-secondary, #6c8ebf)" stroke-width="1"/><rect x="9.34" y="47.67" width="10.33" height="1.67" fill="none" stroke="var(--icon-secondary, #6c8ebf)" stroke-width="1"/><path d="M 21 12 C 21 14 16.34 16 10.34 16 C 4.67 16 0 14 0 12 C 0 21 0 21 0 21 C 0 23 4.67 24.67 10.34 24.67 C 16.34 24.67 21 23 21 21 Z" fill="var(--icon-primary, #dae8fc)" stroke="var(--icon-secondary, #6c8ebf)" stroke-width="1" stroke-linejoin="round"/><path d="M 10.34 16 C 16.34 16 21 14 21 12 C 21 10 16.34 8 10.34 8 C 4.67 8 0 10 0 12 C 0 14 4.67 16 10.34 16 Z" fill="var(--icon-primary, #dae8fc)" stroke="var(--icon-secondary, #6c8ebf)" stroke-width="1" stroke-linejoin="round"/><path d="M 32 20 C 32 22 27.34 24 21.67 24 C 16 24 11.34 22 11.34 20 C 11.34 29 11.34 29 11.34 29 C 11.34 31 16 32.67 21.67 32.67 C 27.34 32.67 32 31 32 29 Z" fill="var(--icon-primary, #dae8fc)" stroke="var(--icon-secondary, #6c8ebf)" stroke-width="1" stroke-linejoin="round"/><path d="M 21.67 24 C 27.34 24 32 22 32 20 C 32 18 27.34 16 21.67 16 C 16 16 11.34 18 11.34 20 C 11.34 22 16 24 21.67 24 Z" fill="var(--icon-primary, #dae8fc)" stroke="var(--icon-secondary, #6c8ebf)" stroke-width="1" stroke-linejoin="round"/></svg>