<svg xmlns="http://www.w3.org/2000/svg" viewBox="0 0 58.33 40.66" width="58.33" height="40.66"><path d="M 0 40.66 L 51 40.66 L 51 7 L 0 7 L 0 40.66 Z M 58.33 34 L 51 40.66 L 51 7 L 58.33 0 L 58.33 34 Z M 9 0 L 58.33 0 L 51 7 L 0 7 L 9 0 Z" fill="var(--icon-primary, #dae8fc)" stroke="var(--icon-secondary, #6c8ebf)" stroke-width="1" stroke-linejoin="round"/><rect x="0" y="0" width="0" height="0" fill="none" stroke="var(--icon-secondary, #6c8ebf)" stroke-width="1"/><path d="M 10.33 25.33 L 3 25.33 L 3 24 L 10.33 24 L 10.33 22 L 15.33 24.66 L 10.33 27.33 Z M 40.33 16 L 35.33 16 L 35.33 14.66 L 40.33 14.66 L 40.33 12.33 L 45.33 15.33 L 40.33 18 Z M 44.33 24.33 L 35.33 24.33 L 35.33 23 L 44.33 23 L 44.33 21 L 49.33 23.66 L 44.33 26.33 Z M 40.33 32.66 L 35.33 32.66 L 35.33 31.33 L 40.33 31.33 L 40.33 29.33 L 45.33 32 L 40.33 35 Z" fill="var(--icon-secondary, #6c8ebf)" stroke="none" stroke-width="0"/><path d="M 31.33 9.66 L 31.33 38 L 18.33 38 L 18.33 9.66 Z" fill="var(--icon-secondary, #6c8ebf)" stroke="var(--icon-secondary, #6c8ebf)" stroke-width="0.4"/><rect x="21.66" y="31.33" width="5.67" height="3.67" fill="var(--icon-secondary, #6c8ebf)" stroke="var(--icon-secondary, #6c8ebf)" stroke-width="0.67"/><rect x="29.33" y="35.33" width="1" height="1" fill="var(--icon-secondary, #6c8ebf)" stroke="var(--icon-secondary, #6c8ebf)" stroke-width="0.67"/><rect x="29.33" y="33" width="1" height="1" fill="var(--icon-secondary, #6c8ebf)" stroke="var(--icon-secondary, #6c8ebf)" stroke-width="0.67"/><rect x="29.33" y="30.66" width="1" height="1" fill="var(--icon-secondary, #6c8ebf)" stroke="var(--icon-secondary, #6c8ebf)" stroke-width="0.67"/><rect x="29.33" y="28.33" width="1" height="1" fill="var(--icon-secondary, #6c8ebf)" stroke="var(--icon-secondary, #6c8ebf)" stroke-width="0.67"/><rect x="29.33" y="26" width="1" height="1" fill="var(--icon-secondary, #6c8ebf)" stroke="var(--icon-secondary, #6c8ebf)" stroke-width="0.67"/><rect x="29.33" y="23.66" width="1" height="1" fill="var(--icon-secondary, #6c8ebf)" stroke="var(--icon-secondary, #6c8ebf)" stroke-width="0.67"/><rect x="29.33" y="21.33" width="1" height="1" fill="var(--icon-secondary, #6c8ebf)" stroke="var(--icon-secondary, #6c8ebf)" stroke-width="0.67"/><rect x="29.33" y="19" width="1" height="1" fill="var(--icon-secondary, #6c8ebf)" stroke="var(--icon-secondary, #6c8ebf)" stroke-width="0.67"/><rect x="29.33" y="16.66" width="1" height="1" fill="var(--icon-secondary, #6c8ebf)" stroke="var(--icon-secondary, #6c8ebf)" stroke-width="0.67"/><rect x="29.33" y="14.33" width="1" height="1" fill="var(--icon-secondary, #6c8ebf)" stroke="var(--icon-secondary, #6c8ebf)" stroke-width="0.67"/><rect x="29.33" y="12" width="1" height="1" fill="var(--icon-secondary, #6c8ebf)" stroke="var(--icon-secondary, #6c8ebf)" stroke-width="0.67"/><rect x="19" y="35.33" width="1" height="1" fill="var(--icon-secondary, #6c8ebf)" stroke="var(--icon-secondary, #6c8ebf)" stroke-width="0.67"/><rect x="19" y="33" width="1" height="1" fill="var(--icon-secondary, #6c8ebf)" stroke="var(--icon-secondary, #6c8ebf)" stroke-width="0.67"/><rect x="19" y="30.66" width="1" height="1" fill="var(--icon-secondary, #6c8ebf)" stroke="var(--icon-secondary, #6c8ebf)" stroke-width="0.67"/><rect x="19" y="28.33" width="1" height="1" fill="var(--icon-secondary, #6c8ebf)" stroke="var(--icon-secondary, #6c8ebf)" stroke-width="0.67"/><rect x="19" y="26" width="1" height="1" fill="var(--icon-secondary, #6c8ebf)" stroke="var(--icon-secondary, #6c8ebf)" stroke-width="0.67"/><rect x="19" y="23.66" width="1" height="1" fill="var(--icon-secondary, #6c8ebf)" stroke="var(--icon-secondary, #6c8ebf)" stroke-width="0.67"/><rect x="19" y="21.33" width="1" height="1" fill="var(--icon-secondary, #6c8ebf)" stroke="var(--icon-secondary, #6c8ebf)" stroke-width="0.67"/><rect x="19" y="19" width="1" height="1" fill="var(--icon-secondary, #6c8ebf)" stroke="var(--icon-secondary, #6c8ebf)" stroke-width="0.67"/><rect x="19" y="16.66" width="1" height="1" fill="var(--icon-secondary, #6c8ebf)" stroke="var(--icon-secondary, #6c8ebf)" stroke-width="0.67"/><rect x="19" y="14.33" width="1" height="1" fill="var(--icon-secondary, #6c8ebf)" stroke="var(--icon-secondary, #6c8ebf)" stroke-width="0.67"/><rect x="19" y="12" width="1" height="1" fill="var(--icon-secondary, #6c8ebf)" stroke="var(--icon-secondary, #6c8ebf)" stroke-width="0.67"/><rect x="21.66" y="25.33" width="5.67" height="3.67" fill="var(--icon-secondary, #6c8ebf)" stroke="var(--icon-secondary, #6c8ebf)" stroke-width="0.67"/><rect x="21.66" y="19" width="5.67" height="3.67" fill="var(--icon-secondary, #6c8ebf)" stroke="var(--icon-secondary, #6c8ebf)" stroke-width="0.67"/><rect x="21.66" y="13" width="5.67" height="3.67" fill="var(--icon-secondary, #6c8ebf)" stroke="var(--icon-secondary, #6c8ebf)" stroke-width="0.67"/></svg>