<svg xmlns="http://www.w3.org/2000/svg" viewBox="0 0 53 42.66" width="53" height="42.66"><path d="M 6 34 L 6 28.33 L 36.66 28.33 L 36.66 34 Z" fill="var(--icon-primary, #dae8fc)" stroke="var(--icon-secondary, #6c8ebf)" stroke-width="1" stroke-linejoin="round"/><path d="M 41.66 23 L 41.66 29 L 36.66 34 L 36.66 28.33 L 6 28.33 Z" fill="var(--icon-primary, #dae8fc)" stroke="var(--icon-secondary, #6c8ebf)" stroke-width="1" stroke-linejoin="round"/><path d="M 35 38.33 L 35 35 L 0 35 L 4 31 L 39 31 L 39 34.33 L 35 38.33 Z M 35 35 L 35 38.33 L 0 38.33 L 0 35 Z" fill="var(--icon-primary, #dae8fc)" stroke="var(--icon-secondary, #6c8ebf)" stroke-width="1" stroke-linejoin="round"/><path d="M 35 35 L 39 31" fill="none" stroke="var(--icon-secondary, #6c8ebf)" stroke-width="1" stroke-linejoin="round"/><path d="M 36.33 28.33 L 36.33 5.33 L 6 5.33 L 6 28.33 Z M 36.33 28.33 L 41.66 23 L 41.66 0 L 11.33 0 L 6 5.33 L 36.33 5.33 Z" fill="var(--icon-primary, #dae8fc)" stroke="var(--icon-secondary, #6c8ebf)" stroke-width="1" stroke-linejoin="round"/><path d="M 36.33 5.33 L 41.66 0" fill="none" stroke="var(--icon-secondary, #6c8ebf)" stroke-width="1" stroke-linejoin="round"/><path d="M 53 39.33 L 47.66 32 L 42.66 35.33 L 48 42.66 Z" fill="var(--icon-primary, #dae8fc)" stroke="var(--icon-secondary, #6c8ebf)" stroke-width="1" stroke-linejoin="round"/><rect x="0" y="0" width="0" height="0" fill="none" stroke="var(--icon-secondary, #6c8ebf)" stroke-width="1"/><path d="M 33.66 25.66 L 33.66 8 L 8.66 8 L 8.66 25.66 Z" fill="none" stroke="var(--icon-secondary, #6c8ebf)" stroke-width="1"/><path d="M 45.33 33.66 C 44.33 32 43 33 43.33 30.66 C 43.66 28 41.66 26.33 38.66 27.66" fill="none" stroke="var(--icon-secondary, #6c8ebf)" stroke-width="1"/></svg>