<svg xmlns="http://www.w3.org/2000/svg" viewBox="0 0 52.33 62.34" width="52.33" height="62.34"><path d="M 26.33 44.67 C 40.67 44.67 52.33 41.34 52.33 37.34 C 52.33 33.34 40.67 30 26.33 30 C 12 30 0.33 33.34 0.33 37.34 C 0.33 41.34 12 44.67 26.33 44.67 Z" fill="var(--icon-primary, #dae8fc)" stroke="var(--icon-secondary, #6c8ebf)" stroke-width="1" stroke-linejoin="round"/><path d="M 26 10.34 C 36 10.34 44 8 44 5 C 44 2.34 36 0 26 0 C 16 0 7.67 2.34 7.67 5 C 7.67 8 16 10.34 26 10.34 Z" fill="var(--icon-primary, #dae8fc)" stroke="var(--icon-secondary, #6c8ebf)" stroke-width="1" stroke-linejoin="round"/><path d="M 26 33.34 C 26 39 26 39 26 39 C 16 39 7.67 36.67 7.67 34 C 7.67 5 7.67 5 7.67 5 C 7.67 8 16 10.34 26 10.34 C 36 10.34 44 8 44 5 C 44 34 44 34 44 34 C 44 35.67 40.33 37.34 35.33 38.34" fill="var(--icon-primary, #dae8fc)" stroke="var(--icon-secondary, #6c8ebf)" stroke-width="1" stroke-linejoin="round"/><path d="M 48.33 54.67 L 48.33 41.34 L 41.33 36.67 L 41.33 8 M 12 57 L 12 44 L 16 38.34 L 16 9.67 M 3.67 54.34 L 3.67 41.34 L 10.33 36.34 L 10.33 7.67 M 26 10.34 L 26 39" fill="none" stroke="var(--icon-secondary, #6c8ebf)" stroke-width="1" stroke-linejoin="round"/><path d="M 52.33 50.67 C 52 53.34 47.33 55.67 40 57 C 40 43.67 40 43.67 40 43.67 C 47.33 42.34 52 40 52.33 37.34 Z" fill="var(--icon-primary, #dae8fc)" stroke="var(--icon-secondary, #6c8ebf)" stroke-width="1" stroke-linejoin="round"/><path d="M 0.33 50.34 C 0.33 55 12.33 58 26.67 58 C 26.67 44.67 26.67 44.67 26.67 44.67 C 12 45 0 41.67 0.33 37 Z" fill="var(--icon-primary, #dae8fc)" stroke="var(--icon-secondary, #6c8ebf)" stroke-width="1" stroke-linejoin="round"/><path d="M 26 10.34 C 26 6.67 26 6.67 26 6.67 C 27 6.67 28 6.67 29 6.67 C 35 9.67 35 9.67 35 9.67 C 35 38.34 35 38.34 35 38.34 C 40 43.67 40 43.67 40 43.67 C 40 57 40 57 40 57 C 28.67 52 28.67 52 28.67 52 C 28.33 52 26.67 52.34 26.67 52.34 C 26.67 44.67 26.67 44.67 26.67 44.67 C 26 39 26 39 26 39 Z" fill="var(--icon-primary, #dae8fc)" stroke="var(--icon-secondary, #6c8ebf)" stroke-width="1" stroke-linejoin="round"/><path d="M 28.67 6.67 L 28.67 52 M 0.33 37 L 7.67 34.34 M 52 36.67 L 44 34.34" fill="none" stroke="var(--icon-secondary, #6c8ebf)" stroke-width="1" stroke-linejoin="round"/><path d="M 30.33 11.34 C 33.33 11 33.33 11 33.33 11 C 39.67 13.67 39.67 13.67 39.67 13.67 C 37.33 14.34 31.67 15 30.67 14.67 Z" fill="var(--icon-primary, #dae8fc)" stroke="var(--icon-secondary, #6c8ebf)" stroke-width="1" stroke-linejoin="round"/><path d="M 30.33 11.34 L 30.67 14.67 L 30.67 43.34 L 31.33 49.34 L 31.33 62.34 L 30.33 57 Z" fill="var(--icon-primary, #dae8fc)" stroke="var(--icon-secondary, #6c8ebf)" stroke-width="1" stroke-linejoin="round"/><path d="M 30.67 14.67 C 32.33 14.67 38.33 14 39.67 13.67 C 39.67 42.34 39.67 42.34 39.67 42.34 C 37.33 42.67 32.67 43.34 30.67 43.34 Z" fill="var(--icon-primary, #dae8fc)" stroke="var(--icon-secondary, #6c8ebf)" stroke-width="1" stroke-linejoin="round"/><path d="M 39.67 42.34 C 44.67 47.34 44.67 47.34 44.67 47.34 C 42 48 33 49 31.33 49 C 30.67 43.34 30.67 43.34 30.67 43.34 C 31.67 43.34 39.33 42.67 39.67 42.34 Z" fill="var(--icon-primary, #dae8fc)" stroke="var(--icon-secondary, #6c8ebf)" stroke-width="1" stroke-linejoin="round"/><path d="M 44.67 47.34 C 44.67 60.67 44.67 60.67 44.67 60.67 C 42.67 61.34 33.67 62.34 31.33 62.34 C 31.33 49.34 31.33 49.34 31.33 49.34 C 33 49.34 41.33 48.34 44.67 47.34 Z" fill="var(--icon-primary, #dae8fc)" stroke="var(--icon-secondary, #6c8ebf)" stroke-width="1" stroke-linejoin="round"/></svg>