<svg xmlns="http://www.w3.org/2000/svg" viewBox="0 0 34.67 35.33" width="34.67" height="35.33"><path d="M 28.67 35.33 L 28.67 6 L 0 6 L 0 35.33 Z" fill="var(--icon-primary, #dae8fc)" stroke="var(--icon-secondary, #6c8ebf)" stroke-width="1" stroke-linejoin="round"/><path d="M 34.67 0 L 34.67 0 L 34.67 29.33 L 28.67 35.33 L 28.67 6 L 34.67 0 Z M 28.67 6 L 28.67 6 L 0 6 L 7.34 0 L 34.67 0 L 28.67 6 Z" fill="var(--icon-primary, #dae8fc)" stroke="var(--icon-secondary, #6c8ebf)" stroke-width="1" stroke-linejoin="round"/><rect x="0" y="0" width="0" height="0" fill="none" stroke="var(--icon-secondary, #6c8ebf)" stroke-width="1"/><path d="M 20 20.66 L 20 29.66" fill="none" stroke="var(--icon-secondary, #6c8ebf)" stroke-width="1.33"/><path d="M 14.67 15.33 L 24 15.33" fill="none" stroke="var(--icon-secondary, #6c8ebf)" stroke-width="1.33"/><path d="M 23.67 12.66 L 23.67 18 L 27 15.33 Z" fill="var(--icon-secondary, #6c8ebf)" stroke="var(--icon-secondary, #6c8ebf)" stroke-width="0.67"/><path d="M 14.67 25.66 L 24.67 25.66" fill="none" stroke="var(--icon-secondary, #6c8ebf)" stroke-width="1.33"/><path d="M 23.67 23 L 23.67 28 L 27 25.66 Z" fill="var(--icon-secondary, #6c8ebf)" stroke="var(--icon-secondary, #6c8ebf)" stroke-width="0.67"/><path d="M 12 20.66 L 12 12.33 M 17.34 21 L 17.34 12" fill="none" stroke="var(--icon-secondary, #6c8ebf)" stroke-width="1.33"/><path d="M 17 20.66 L 17 12.33" fill="none" stroke="var(--icon-secondary, #6c8ebf)" stroke-width="0.67"/><path d="M 19.67 20.66 L 19.67 30" fill="none" stroke="var(--icon-secondary, #6c8ebf)" stroke-width="0.67"/><path d="M 22.34 29.66 L 17.34 29.66 L 19.67 32.66 Z" fill="var(--icon-secondary, #6c8ebf)" stroke="var(--icon-secondary, #6c8ebf)" stroke-width="0.67"/><path d="M 9.67 20.66 L 9.67 30" fill="none" stroke="var(--icon-secondary, #6c8ebf)" stroke-width="1.33"/><path d="M 12.34 29.66 L 7 29.66 L 9.67 32.66 Z" fill="var(--icon-secondary, #6c8ebf)" stroke="var(--icon-secondary, #6c8ebf)" stroke-width="0.67"/><path d="M 14.67 25.66 L 5.34 25.66" fill="none" stroke="var(--icon-secondary, #6c8ebf)" stroke-width="1.33"/><path d="M 5.67 28.33 L 5.67 23.33 L 2.34 25.66 Z" fill="var(--icon-secondary, #6c8ebf)" stroke="var(--icon-secondary, #6c8ebf)" stroke-width="0.67"/><path d="M 14.67 15.33 L 5.34 15.33" fill="none" stroke="var(--icon-secondary, #6c8ebf)" stroke-width="1.33"/><path d="M 5.67 18 L 5.67 13 L 2.34 15.33 Z" fill="var(--icon-secondary, #6c8ebf)" stroke="var(--icon-secondary, #6c8ebf)" stroke-width="0.67"/><path d="M 14.67 26.66 C 18 26.66 20.67 24 20.67 20.66 C 20.67 17.33 18 14.33 14.67 14.33 C 11.34 14.33 8.67 17.33 8.67 20.66 C 8.67 24 11.34 26.66 14.67 26.66 Z" fill="var(--icon-primary, #dae8fc)" stroke="var(--icon-secondary, #6c8ebf)" stroke-width="0.67"/><path d="M 23 12 C 23.34 12 23.34 12 23.34 11.66 C 23.34 8.66 23.34 8.66 23.34 8.66 C 23.34 8.33 23.34 8.33 23 8.33 C 6.67 8.33 6.67 8.33 6.67 8.33 C 6.34 8.33 6.34 8.33 6.34 8.66 C 6.34 11.66 6.34 11.66 6.34 11.66 C 6.34 12 6.34 12 6.67 12 C 9.67 12 9.67 12 9.67 12 C 9.67 11 9.67 11 9.67 11 C 19.34 11 19.34 11 19.34 11 C 19.34 12 19.34 12 19.34 12 Z" fill="var(--icon-secondary, #6c8ebf)" stroke="none" stroke-width="0"/><rect x="11.67" y="17.66" width="1" height="1" fill="var(--icon-secondary, #6c8ebf)" stroke="var(--icon-secondary, #6c8ebf)" stroke-width="0.33"/><rect x="11.67" y="19.33" width="1" height="1" fill="var(--icon-secondary, #6c8ebf)" stroke="var(--icon-secondary, #6c8ebf)" stroke-width="0.33"/><rect x="11.67" y="21" width="1" height="1" fill="var(--icon-secondary, #6c8ebf)" stroke="var(--icon-secondary, #6c8ebf)" stroke-width="0.33"/><rect x="11.67" y="22.66" width="1" height="1" fill="var(--icon-secondary, #6c8ebf)" stroke="var(--icon-secondary, #6c8ebf)" stroke-width="0.33"/><rect x="13.34" y="17.66" width="1" height="1" fill="var(--icon-secondary, #6c8ebf)" stroke="var(--icon-secondary, #6c8ebf)" stroke-width="0.33"/><rect x="13.34" y="19.33" width="1" height="1" fill="var(--icon-secondary, #6c8ebf)" stroke="var(--icon-secondary, #6c8ebf)" stroke-width="0.33"/><rect x="13.34" y="21" width="1" height="1" fill="var(--icon-secondary, #6c8ebf)" stroke="var(--icon-secondary, #6c8ebf)" stroke-width="0.33"/><rect x="13.34" y="22.66" width="1" height="1" fill="var(--icon-secondary, #6c8ebf)" stroke="var(--icon-secondary, #6c8ebf)" stroke-width="0.33"/><rect x="15" y="17.66" width="1" height="1" fill="var(--icon-secondary, #6c8ebf)" stroke="var(--icon-secondary, #6c8ebf)" stroke-width="0.33"/><rect x="15" y="19.33" width="1" height="1" fill="var(--icon-secondary, #6c8ebf)" stroke="var(--icon-secondary, #6c8ebf)" stroke-width="0.33"/><rect x="15" y="21" width="1" height="1" fill="var(--icon-secondary, #6c8ebf)" stroke="var(--icon-secondary, #6c8ebf)" stroke-width="0.33"/><rect x="15" y="22.66" width="1" height="1" fill="var(--icon-secondary, #6c8ebf)" stroke="var(--icon-secondary, #6c8ebf)" stroke-width="0.33"/><rect x="16.67" y="17.66" width="1" height="1" fill="var(--icon-secondary, #6c8ebf)" stroke="var(--icon-secondary, #6c8ebf)" stroke-width="0.33"/><rect x="16.67" y="19.33" width="1" height="1" fill="var(--icon-secondary, #6c8ebf)" stroke="var(--icon-secondary, #6c8ebf)" stroke-width="0.33"/><rect x="16.67" y="21" width="1" height="1" fill="var(--icon-secondary, #6c8ebf)" stroke="var(--icon-secondary, #6c8ebf)" stroke-width="0.33"/><rect x="16.67" y="22.66" width="1" height="1" fill="var(--icon-secondary, #6c8ebf)" stroke="var(--icon-secondary, #6c8ebf)" stroke-width="0.33"/></svg>