<svg xmlns="http://www.w3.org/2000/svg" viewBox="0 0 57 31.34" width="57" height="31.34"><path d="M 52 0 L 53.33 2 L 48.33 31.34 L 46.33 30 Z M 0 30 L 1.67 31.34 L 48.33 31.34 L 46.33 30 Z M 46.33 30 L 52 0 L 6 0 L 0 30 Z M 43 24.67 L 46.33 6 L 20.67 6 L 17.33 24.67 Z" fill="var(--icon-primary, #dae8fc)" stroke="var(--icon-secondary, #6c8ebf)" stroke-width="1" stroke-linejoin="round"/><path d="M 16.67 0 L 10.67 30" fill="none" stroke="var(--icon-secondary, #6c8ebf)" stroke-width="1" stroke-linejoin="round"/><rect x="0" y="0" width="0" height="0" fill="none" stroke="var(--icon-secondary, #6c8ebf)" stroke-width="1"/><path d="M 4.33 24 C 7.33 24.67 10.67 20.34 12.33 14.67 C 13.67 8.67 12.33 3.34 9.67 2.67 Z" fill="none" stroke="var(--icon-secondary, #6c8ebf)" stroke-width="1"/><path d="M 29.67 3.34 L 21.33 3.34 L 21.33 2.34 L 29.67 2.34 Z M 46.33 3.34 L 38 3.34 L 38 2.34 L 46.33 2.34 Z" fill="none" stroke="var(--icon-secondary, #6c8ebf)" stroke-width="1"/><path d="M 54 25.34 C 54 25.67 53.67 26 53.33 26 C 53.33 26 53.33 26 53.33 26 C 53 25.67 52.67 25.34 52.67 25 C 55.67 1.34 55.67 1.34 55.67 1.34 C 55.67 1 56 0.67 56.33 0.67 C 56.33 0.67 56.33 0.67 56.33 0.67 C 56.67 0.67 57 1 57 1.34 Z" fill="var(--icon-secondary, #6c8ebf)" stroke="none" stroke-width="0"/></svg>