<svg xmlns="http://www.w3.org/2000/svg" viewBox="0 0 27 39.33" width="27" height="39.33"><path d="M 20.67 6.33 L 0 6.33 L 0 39.33 L 20.67 39.33 Z" fill="var(--icon-primary, #dae8fc)" stroke="var(--icon-secondary, #6c8ebf)" stroke-width="1" stroke-linejoin="round"/><path d="M 20.67 39.33 L 27 32.67 L 27 0 L 6.67 0 L 0 6.33 L 20.67 6.33 Z M 20.67 6.33 L 27 0" fill="var(--icon-primary, #dae8fc)" stroke="var(--icon-secondary, #6c8ebf)" stroke-width="1" stroke-linejoin="round"/><rect x="0" y="0" width="0" height="0" fill="none" stroke="var(--icon-secondary, #6c8ebf)" stroke-width="1"/><path d="M 17.67 16 L 17.67 10.33 L 3.67 10.33 L 3.67 16 Z" fill="none" stroke="var(--icon-secondary, #6c8ebf)" stroke-width="0.67"/><path d="M 8.67 13 C 8.67 14 8 14.67 7.33 14.67 C 6.33 14.67 5.67 14 5.67 13 C 5.67 12.33 6.33 11.67 7.33 11.67 C 8 11.67 8.67 12.33 8.67 13 Z" fill="var(--icon-secondary, #6c8ebf)" stroke="var(--icon-secondary, #6c8ebf)" stroke-width="0.67"/><path d="M 15 13 C 15 14 14.33 14.67 13.67 14.67 C 13 14.67 12.33 14 12.33 13 C 12.33 12.33 13 11.67 13.67 11.67 C 14.33 11.67 15 12.33 15 13 Z" fill="var(--icon-secondary, #6c8ebf)" stroke="var(--icon-secondary, #6c8ebf)" stroke-width="0.67"/><path d="M 17.67 26 L 17.67 20.33 L 3.67 20.33 L 3.67 26 Z" fill="none" stroke="var(--icon-secondary, #6c8ebf)" stroke-width="0.67"/><path d="M 8.67 23 C 8.67 24 8 24.67 7.33 24.67 C 6.33 24.67 5.67 24 5.67 23 C 5.67 22.33 6.33 21.67 7.33 21.67 C 8 21.67 8.67 22.33 8.67 23 Z" fill="var(--icon-secondary, #6c8ebf)" stroke="var(--icon-secondary, #6c8ebf)" stroke-width="0.67"/><path d="M 15 23 C 15 24 14.33 24.67 13.67 24.67 C 13 24.67 12.33 24 12.33 23 C 12.33 22.33 13 21.67 13.67 21.67 C 14.33 21.67 15 22.33 15 23 Z" fill="var(--icon-secondary, #6c8ebf)" stroke="var(--icon-secondary, #6c8ebf)" stroke-width="0.67"/><path d="M 17.67 36 L 17.67 30.33 L 3.67 30.33 L 3.67 36 Z" fill="none" stroke="var(--icon-secondary, #6c8ebf)" stroke-width="0.67"/><path d="M 8.67 33 C 8.67 34 8 34.67 7.33 34.67 C 6.33 34.67 5.67 34 5.67 33 C 5.67 32.33 6.33 31.67 7.33 31.67 C 8 31.67 8.67 32.33 8.67 33 Z" fill="var(--icon-secondary, #6c8ebf)" stroke="var(--icon-secondary, #6c8ebf)" stroke-width="0.67"/><path d="M 15 33 C 15 34 14.33 34.67 13.67 34.67 C 13 34.67 12.33 34 12.33 33 C 12.33 32.33 13 31.67 13.67 31.67 C 14.33 31.67 15 32.33 15 33 Z" fill="var(--icon-secondary, #6c8ebf)" stroke="var(--icon-secondary, #6c8ebf)" stroke-width="0.67"/><path d="M 7.33 11.67 L 13.67 11.67 M 7.33 21.67 L 13.67 21.67 M 7.33 31.67 L 13.67 31.67" fill="none" stroke="var(--icon-secondary, #6c8ebf)" stroke-width="0.67"/></svg>