<svg xmlns="http://www.w3.org/2000/svg" viewBox="0 0 49 33" width="49" height="33"><path d="M 49 9.33 C 49 14.66 38 19 24.33 19 C 11 19 0 14.66 0 9.33 C 0 23.33 0 23.33 0 23.33 C 0 28.66 11 33 24.33 33 C 38 33 49 28.66 49 23.33 Z" fill="var(--icon-primary, #dae8fc)" stroke="var(--icon-secondary, #6c8ebf)" stroke-width="1" stroke-linejoin="round"/><path d="M 24.33 19 C 38 19 49 14.66 49 9.33 C 49 4.33 38 0 24.33 0 C 11 0 0 4.33 0 9.33 C 0 14.66 11 19 24.33 19 Z" fill="var(--icon-primary, #dae8fc)" stroke="var(--icon-secondary, #6c8ebf)" stroke-width="1" stroke-linejoin="round"/><path d="M 19 5.66 L 21 8.66 L 13.33 10.66 L 15 9 L 3 7 L 6 5 L 17.33 6.66 Z M 29.67 13 L 28.33 10 L 35 8.66 L 34 9.66 L 45.33 11.66 L 42.67 13.66 L 31.33 11.66 Z M 26 4 L 33.67 2 L 33.67 5.33 L 31.67 5 L 28 8 L 24.33 7.66 L 28.33 4.33 Z M 22.67 16 L 15 17.33 L 15 14 L 17 14.33 L 21 11 L 24.67 11.66 L 20.33 15.33 Z" fill="var(--icon-secondary, #6c8ebf)" stroke="none" stroke-width="0"/><path d="M 23.33 26.66 L 23.33 28.66 L 21 28.33 L 24.33 32.66 L 28 28.33 L 25.33 28.66 L 25.33 26.66 Z" fill="var(--icon-secondary, #6c8ebf)" stroke="none" stroke-width="0"/><path d="M 28.67 24.66 L 19 24.66 L 19 22.66 L 15 25.66 L 19 29.33 L 19 26.66 L 28.67 26.66" fill="var(--icon-secondary, #6c8ebf)" stroke="none" stroke-width="0"/><path d="M 20.33 26.66 L 30 26.66 L 30 29 L 34 25.66 L 30 22.33 L 30 24.66 L 20.33 24.66 Z" fill="var(--icon-secondary, #6c8ebf)" stroke="none" stroke-width="0"/></svg>