<svg xmlns="http://www.w3.org/2000/svg" viewBox="0 0 39 33.34" width="39" height="33.34"><path d="M 21.33 5.34 L 12 5 L 7.33 10 L 10.33 12.34 L 12.67 9.67 L 18.33 9.67 L 12 17.67 L 14.33 19.67 L 10.67 24.34 L 5 24.34 L 1 26 L 3.67 32 L 7.33 32.34 L 7.33 31 L 5.33 31 L 5.67 28.34 L 14 28.67 L 19 22.67 L 30.33 33.34 L 36.33 26.67 L 35 25.34 L 32.33 28 L 23 19.34 L 27 14 L 30.67 16.67 L 38.67 16.67 L 39 13.67 L 33 13.34 Z M 25 0 L 32 0.34 L 31.67 7.67 L 25 7.34 Z M 4.33 9 L 12.33 15.34 L 7.67 20.67 L 0 14.34 Z" fill="var(--icon-primary, #dae8fc)" stroke="var(--icon-secondary, #6c8ebf)" stroke-width="1"/></svg>