<svg xmlns="http://www.w3.org/2000/svg" viewBox="0 0 86.67 31" width="86.67" height="31"><path d="M 56.67 29.34 L 56.67 8 L 29.67 8 L 29.67 29.34 Z" fill="var(--icon-primary, #dae8fc)" stroke="var(--icon-secondary, #6c8ebf)" stroke-width="1" stroke-linejoin="round"/><path d="M 54 26.67 L 54 10.34 L 32.33 10.34 L 32.33 26.67 Z" fill="var(--icon-secondary, #6c8ebf)" stroke="none" stroke-width="0"/><path d="M 29.67 8 L 27 6 L 59.33 6 L 56.67 8 Z M 83.67 31 L 83.67 9.67 L 56.67 8 L 56.67 29.34 Z" fill="var(--icon-primary, #dae8fc)" stroke="var(--icon-secondary, #6c8ebf)" stroke-width="1" stroke-linejoin="round"/><path d="M 81 28.34 L 81 12 L 59.33 10.67 L 59.33 27 Z" fill="var(--icon-secondary, #6c8ebf)" stroke="none" stroke-width="0"/><path d="M 56.67 8 L 59.33 6 L 86.33 7.67 L 83.67 9.67 Z M 83.67 31 L 86.67 27.67 L 86.67 7.67 L 83.67 9.67 Z M 2.67 31 L 2.67 9.67 L 29.67 8 L 29.67 29.34 Z" fill="var(--icon-primary, #dae8fc)" stroke="var(--icon-secondary, #6c8ebf)" stroke-width="1" stroke-linejoin="round"/><path d="M 5.33 28.34 L 5.33 12 L 27 10.67 L 27 27 Z" fill="var(--icon-secondary, #6c8ebf)" stroke="none" stroke-width="0"/><path d="M 29.67 8 L 27 6 L 0 7.67 L 2.67 9.67 Z M 2.67 31 L 0 27.67 L 0 7.67 L 2.67 9.67 Z" fill="var(--icon-primary, #dae8fc)" stroke="var(--icon-secondary, #6c8ebf)" stroke-width="1" stroke-linejoin="round"/><path d="M 47 8.67 L 47 0 L 39.67 0 L 39.67 8.67 Z" fill="var(--icon-primary, #dae8fc)" stroke="var(--icon-secondary, #6c8ebf)" stroke-width="1" stroke-linejoin="round"/><path d="M 45.67 5.34 C 45.67 6.34 44.67 7.34 43.67 7.34 C 42.33 7.34 41.33 6.34 41.33 5.34 C 41.33 4 42.33 3 43.67 3 C 44.67 3 45.67 4 45.67 5.34 Z" fill="none" stroke="var(--icon-secondary, #6c8ebf)" stroke-width="1" stroke-linejoin="round"/><path d="M 54.33 8.67 L 54.33 0 L 47 0 L 47 8.67 Z" fill="var(--icon-primary, #dae8fc)" stroke="var(--icon-secondary, #6c8ebf)" stroke-width="1" stroke-linejoin="round"/><path d="M 53 5.34 C 53 6.34 52 7.34 50.67 7.34 C 49.67 7.34 48.67 6.34 48.67 5.34 C 48.67 4 49.67 3 50.67 3 C 52 3 53 4 53 5.34 Z" fill="none" stroke="var(--icon-secondary, #6c8ebf)" stroke-width="1" stroke-linejoin="round"/><path d="M 39.67 8.67 L 39.67 0 L 32.67 0 L 32.67 8.67 Z" fill="var(--icon-primary, #dae8fc)" stroke="var(--icon-secondary, #6c8ebf)" stroke-width="1" stroke-linejoin="round"/><path d="M 38.33 5.34 C 38.33 6.34 37.33 7.34 36.33 7.34 C 35 7.34 34 6.34 34 5.34 C 34 4 35 3 36.33 3 C 37.33 3 38.33 4 38.33 5.34 Z" fill="none" stroke="var(--icon-secondary, #6c8ebf)" stroke-width="1" stroke-linejoin="round"/><path d="M 45.67 18.34 C 45.67 21.34 45.67 21.34 45.67 21.34 C 40.33 21.34 40.33 21.34 40.33 21.34 C 40.33 18.34 40.33 18.34 40.33 18.34 C 43 16.67 45.67 18.34 45.67 18.34 Z" fill="var(--icon-primary, #dae8fc)" stroke="var(--icon-secondary, #6c8ebf)" stroke-width="1" stroke-linejoin="round"/><path d="M 44.67 16 C 44.67 17 44 17.67 43 17.67 C 42.33 17.67 41.33 17 41.33 16 C 41.33 15 42.33 14.34 43 14.34 C 44 14.34 44.67 15 44.67 16 Z" fill="var(--icon-primary, #dae8fc)" stroke="var(--icon-secondary, #6c8ebf)" stroke-width="1" stroke-linejoin="round"/><path d="M 42.33 20.34 C 42.33 23.34 42.33 23.34 42.33 23.34 C 36.67 23.34 36.67 23.34 36.67 23.34 C 36.67 20.34 36.67 20.34 36.67 20.34 C 39.67 18.67 42.33 20.34 42.33 20.34 Z" fill="var(--icon-primary, #dae8fc)" stroke="var(--icon-secondary, #6c8ebf)" stroke-width="1" stroke-linejoin="round"/><path d="M 41.33 18 C 41.33 19 40.67 19.67 39.67 19.67 C 38.67 19.67 38 19 38 18 C 38 17 38.67 16.34 39.67 16.34 C 40.67 16.34 41.33 17 41.33 18 Z" fill="var(--icon-primary, #dae8fc)" stroke="var(--icon-secondary, #6c8ebf)" stroke-width="1" stroke-linejoin="round"/><path d="M 49.33 20.34 C 49.33 23.34 49.33 23.34 49.33 23.34 C 44 23.34 44 23.34 44 23.34 C 44 20.34 44 20.34 44 20.34 C 46.67 18.67 49.33 20.34 49.33 20.34 Z" fill="var(--icon-primary, #dae8fc)" stroke="var(--icon-secondary, #6c8ebf)" stroke-width="1" stroke-linejoin="round"/><path d="M 48.33 18 C 48.33 19 47.67 19.67 46.67 19.67 C 45.67 19.67 45 19 45 18 C 45 17 45.67 16.34 46.67 16.34 C 47.67 16.34 48.33 17 48.33 18 Z" fill="var(--icon-primary, #dae8fc)" stroke="var(--icon-secondary, #6c8ebf)" stroke-width="1" stroke-linejoin="round"/><path d="M 39 22.34 C 39 26.34 39 26.34 39 26.34 C 33.33 26.34 33.33 26.34 33.33 26.34 C 33.33 22.34 33.33 22.34 33.33 22.34 C 36.33 20.67 39 22.34 39 22.34 Z" fill="var(--icon-primary, #dae8fc)" stroke="var(--icon-secondary, #6c8ebf)" stroke-width="1" stroke-linejoin="round"/><path d="M 38 20 C 38 21 37 21.67 36.33 21.67 C 35.33 21.67 34.67 21 34.67 20 C 34.67 19 35.33 18.34 36.33 18.34 C 37 18.34 38 19 38 20 Z" fill="var(--icon-primary, #dae8fc)" stroke="var(--icon-secondary, #6c8ebf)" stroke-width="1" stroke-linejoin="round"/><path d="M 46 22.34 C 46 26.34 46 26.34 46 26.34 C 40.67 26.34 40.67 26.34 40.67 26.34 C 40.67 22.34 40.67 22.34 40.67 22.34 C 43.33 20.67 46 22.34 46 22.34 Z" fill="var(--icon-primary, #dae8fc)" stroke="var(--icon-secondary, #6c8ebf)" stroke-width="1" stroke-linejoin="round"/><path d="M 45 20 C 45 21 44.33 21.67 43.33 21.67 C 42.33 21.67 41.67 21 41.67 20 C 41.67 19 42.33 18.34 43.33 18.34 C 44.33 18.34 45 19 45 20 Z" fill="var(--icon-primary, #dae8fc)" stroke="var(--icon-secondary, #6c8ebf)" stroke-width="1" stroke-linejoin="round"/><path d="M 53 22.34 C 53 26.34 53 26.34 53 26.34 C 47.67 26.34 47.67 26.34 47.67 26.34 C 47.67 22.34 47.67 22.34 47.67 22.34 C 50.33 20.67 53 22.34 53 22.34 Z" fill="var(--icon-primary, #dae8fc)" stroke="var(--icon-secondary, #6c8ebf)" stroke-width="1" stroke-linejoin="round"/><path d="M 52 20 C 52 21 51.33 21.67 50.33 21.67 C 49.33 21.67 48.67 21 48.67 20 C 48.67 19 49.33 18.34 50.33 18.34 C 51.33 18.34 52 19 52 20 Z" fill="var(--icon-primary, #dae8fc)" stroke="var(--icon-secondary, #6c8ebf)" stroke-width="1" stroke-linejoin="round"/><path d="M 13 19.67 C 13 23 13 23 13 23 C 19.33 22.67 19.33 22.67 19.33 22.67 C 19.33 19 19.33 19 19.33 19 C 16 17.34 13 19.67 13 19.67 Z" fill="var(--icon-primary, #dae8fc)" stroke="var(--icon-secondary, #6c8ebf)" stroke-width="1" stroke-linejoin="round"/><path d="M 14.33 17 C 14.33 18 15 18.67 16 18.67 C 17 18.67 18 17.67 18 16.67 C 18 15.67 17 15 16 15 C 15 15 14.33 16 14.33 17 Z" fill="var(--icon-primary, #dae8fc)" stroke="var(--icon-secondary, #6c8ebf)" stroke-width="1" stroke-linejoin="round"/><path d="M 9.67 21.67 C 9.67 26 9.67 26 9.67 26 C 15.67 25.67 15.67 25.67 15.67 25.67 C 15.67 21 15.67 21 15.67 21 C 12.67 19.34 9.67 21.67 9.67 21.67 Z" fill="var(--icon-primary, #dae8fc)" stroke="var(--icon-secondary, #6c8ebf)" stroke-width="1" stroke-linejoin="round"/><path d="M 10.67 19 C 10.67 20 11.67 20.67 12.67 20.67 C 13.67 20.67 14.67 19.67 14.67 18.67 C 14.67 17.67 13.67 17 12.67 17 C 11.67 17 10.67 18 10.67 19 Z" fill="var(--icon-primary, #dae8fc)" stroke="var(--icon-secondary, #6c8ebf)" stroke-width="1" stroke-linejoin="round"/><path d="M 16.33 21 C 16.33 25.67 16.33 25.67 16.33 25.67 C 22.67 24.34 22.67 24.34 22.67 24.34 C 22.67 20.67 22.67 20.67 22.67 20.67 C 19.67 19 16.33 21 16.33 21 Z" fill="var(--icon-primary, #dae8fc)" stroke="var(--icon-secondary, #6c8ebf)" stroke-width="1" stroke-linejoin="round"/><path d="M 17.67 18.34 C 17.67 19.67 18.33 20.34 19.33 20.34 C 20.33 20.34 21.33 19.34 21.33 18.34 C 21.33 17.34 20.33 16.34 19.33 16.67 C 18.33 16.67 17.67 17.34 17.67 18.34 Z" fill="var(--icon-primary, #dae8fc)" stroke="var(--icon-secondary, #6c8ebf)" stroke-width="1" stroke-linejoin="round"/><path d="M 6.33 23.34 C 6.33 27.67 6.33 27.67 6.33 27.67 C 12.33 27.34 12.33 27.34 12.33 27.34 C 12.33 23 12.33 23 12.33 23 C 9.33 21.34 6.33 23.34 6.33 23.34 Z" fill="var(--icon-primary, #dae8fc)" stroke="var(--icon-secondary, #6c8ebf)" stroke-width="1" stroke-linejoin="round"/><path d="M 7.33 20.67 C 7.33 21.67 8.33 22.34 9.33 22.34 C 10.33 22.34 11 21.34 11 20.34 C 11 19.34 10.33 18.67 9.33 18.67 C 8.33 18.67 7.33 19.67 7.33 20.67 Z" fill="var(--icon-primary, #dae8fc)" stroke="var(--icon-secondary, #6c8ebf)" stroke-width="1" stroke-linejoin="round"/><path d="M 13.33 23 C 13.33 27.34 13.33 27.34 13.33 27.34 C 19.67 27 19.67 27 19.67 27 C 19.67 22.67 19.67 22.67 19.67 22.67 C 16.67 21 13.33 23 13.33 23 Z" fill="var(--icon-primary, #dae8fc)" stroke="var(--icon-secondary, #6c8ebf)" stroke-width="1" stroke-linejoin="round"/><path d="M 14.67 20.34 C 14.67 21.34 15.33 22 16.33 22 C 17.33 22 18.33 21 18.33 20 C 18.33 19 17.33 18.34 16.33 18.34 C 15.33 18.34 14.67 19.34 14.67 20.34 Z" fill="var(--icon-primary, #dae8fc)" stroke="var(--icon-secondary, #6c8ebf)" stroke-width="1" stroke-linejoin="round"/><path d="M 20.33 22.67 C 20.33 27 20.33 27 20.33 27 C 26.33 26.67 26.33 26.67 26.33 26.67 C 26.33 22 26.33 22 26.33 22 C 23.33 20.34 20.33 22.67 20.33 22.67 Z" fill="var(--icon-primary, #dae8fc)" stroke="var(--icon-secondary, #6c8ebf)" stroke-width="1" stroke-linejoin="round"/><path d="M 21.33 20 C 21.33 21 22.33 21.67 23.33 21.67 C 24.33 21.67 25 20.67 25 19.67 C 25 18.67 24.33 18 23.33 18 C 22.33 18 21.33 19 21.33 20 Z" fill="var(--icon-primary, #dae8fc)" stroke="var(--icon-secondary, #6c8ebf)" stroke-width="1" stroke-linejoin="round"/><path d="M 73.33 19.67 C 73.33 23 73.33 23 73.33 23 C 67.33 22.67 67.33 22.67 67.33 22.67 C 67.33 19 67.33 19 67.33 19 C 70.33 17.34 73.33 19.67 73.33 19.67 Z" fill="var(--icon-primary, #dae8fc)" stroke="var(--icon-secondary, #6c8ebf)" stroke-width="1" stroke-linejoin="round"/><path d="M 72.33 17 C 72.33 18 71.33 18.67 70.33 18.67 C 69.33 18.67 68.33 17.67 68.33 16.67 C 68.33 15.67 69.33 15 70.33 15 C 71.33 15 72.33 16 72.33 17 Z" fill="var(--icon-primary, #dae8fc)" stroke="var(--icon-secondary, #6c8ebf)" stroke-width="1" stroke-linejoin="round"/><path d="M 76.67 21.67 C 76.67 25.67 76.67 25.67 76.67 25.67 C 70.67 24.67 70.67 24.67 70.67 24.67 C 70.67 21 70.67 21 70.67 21 C 73.67 19.34 76.67 21.67 76.67 21.67 Z" fill="var(--icon-primary, #dae8fc)" stroke="var(--icon-secondary, #6c8ebf)" stroke-width="1" stroke-linejoin="round"/><path d="M 75.67 19 C 75.67 20 74.67 20.67 73.67 20.67 C 72.67 20.67 72 19.67 72 18.67 C 72 17.67 72.67 17 73.67 17 C 74.67 17 75.67 18 75.67 19 Z" fill="var(--icon-primary, #dae8fc)" stroke="var(--icon-secondary, #6c8ebf)" stroke-width="1" stroke-linejoin="round"/><path d="M 70 21 C 70 24.67 70 24.67 70 24.67 C 63.67 24.34 63.67 24.34 63.67 24.34 C 63.67 20.67 63.67 20.67 63.67 20.67 C 67 19 70 21 70 21 Z" fill="var(--icon-primary, #dae8fc)" stroke="var(--icon-secondary, #6c8ebf)" stroke-width="1" stroke-linejoin="round"/><path d="M 68.67 18.34 C 68.67 19.67 68 20.34 67 20.34 C 66 20.34 65 19.34 65 18.34 C 65 17.34 66 16.34 67 16.67 C 68 16.67 68.67 17.34 68.67 18.34 Z" fill="var(--icon-primary, #dae8fc)" stroke="var(--icon-secondary, #6c8ebf)" stroke-width="1" stroke-linejoin="round"/><path d="M 80.33 23.34 C 80.33 27.67 80.33 27.67 80.33 27.67 C 74 27 74 27 74 27 C 74 23 74 23 74 23 C 77 21.34 80.33 23.34 80.33 23.34 Z" fill="var(--icon-primary, #dae8fc)" stroke="var(--icon-secondary, #6c8ebf)" stroke-width="1" stroke-linejoin="round"/><path d="M 79 20.67 C 79 21.67 78.33 22.34 77 22.34 C 76 22.34 75.33 21.34 75.33 20.34 C 75.33 19.34 76 18.67 77 18.67 C 78.33 18.67 79 19.67 79 20.67 Z" fill="var(--icon-primary, #dae8fc)" stroke="var(--icon-secondary, #6c8ebf)" stroke-width="1" stroke-linejoin="round"/><path d="M 73 23 C 73 27 73 27 73 27 C 66.67 26.67 66.67 26.67 66.67 26.67 C 66.67 22.67 66.67 22.67 66.67 22.67 C 70 21 73 23 73 23 Z" fill="var(--icon-primary, #dae8fc)" stroke="var(--icon-secondary, #6c8ebf)" stroke-width="1" stroke-linejoin="round"/><path d="M 71.67 20.34 C 71.67 21.34 71 22 70 22 C 69 22 68 21 68 20 C 68 19 69 18.34 70 18.34 C 71 18.34 71.67 19.34 71.67 20.34 Z" fill="var(--icon-primary, #dae8fc)" stroke="var(--icon-secondary, #6c8ebf)" stroke-width="1" stroke-linejoin="round"/><path d="M 66.33 22.34 C 66.33 26.67 66.33 26.67 66.33 26.67 C 60 26.34 60 26.34 60 26.34 C 60 22 60 22 60 22 C 63 20.34 66.33 22.34 66.33 22.34 Z" fill="var(--icon-primary, #dae8fc)" stroke="var(--icon-secondary, #6c8ebf)" stroke-width="1" stroke-linejoin="round"/><path d="M 65 20 C 65 21 64.33 21.67 63 21.67 C 62 21.67 61.33 20.67 61.33 19.67 C 61.33 18.67 62 18 63 18 C 64.33 18 65 19 65 20 Z" fill="var(--icon-primary, #dae8fc)" stroke="var(--icon-secondary, #6c8ebf)" stroke-width="1" stroke-linejoin="round"/></svg>