<svg xmlns="http://www.w3.org/2000/svg" viewBox="0 0 38.33 34.67" width="38.33" height="34.67"><path d="M 5.67 31 L 5.67 25.67 L 33.33 25.67 L 33.33 31 Z" fill="var(--icon-primary, #dae8fc)" stroke="var(--icon-secondary, #6c8ebf)" stroke-width="1" stroke-linejoin="round"/><path d="M 38.33 21 L 38.33 26.34 L 33.33 31 L 33.33 25.67 L 5.67 25.67 Z" fill="var(--icon-primary, #dae8fc)" stroke="var(--icon-secondary, #6c8ebf)" stroke-width="1" stroke-linejoin="round"/><path d="M 33.33 25.67 L 33.33 4.67 L 5.67 4.67 L 5.67 25.67 Z M 33.33 25.67 L 38.33 21 L 38.33 0 L 10.33 0 L 5.67 4.67 L 33.33 4.67 Z M 33.33 4.67 L 38.33 0" fill="var(--icon-primary, #dae8fc)" stroke="var(--icon-secondary, #6c8ebf)" stroke-width="1" stroke-linejoin="round"/><path d="M 32 34.67 L 32 31.67 L 0 31.67 L 3.67 28 L 35.67 28 L 35.67 31 Z M 32 31.67 L 32 34.67 L 0 34.67 L 0 31.67 Z M 32 31.67 L 35.67 28" fill="var(--icon-primary, #dae8fc)" stroke="var(--icon-secondary, #6c8ebf)" stroke-width="1" stroke-linejoin="round"/><rect x="0" y="0" width="0" height="0" fill="none" stroke="var(--icon-secondary, #6c8ebf)" stroke-width="1"/><path d="M 31 23.34 L 31 7 L 8 7 L 8 23.34 Z" fill="none" stroke="var(--icon-secondary, #6c8ebf)" stroke-width="1"/></svg>