<svg xmlns="http://www.w3.org/2000/svg" viewBox="0 0 45.33 54.33" width="45.33" height="54.33"><path d="M 6.33 13.33 L 5.33 13.33 L 0 13.33 L 0 18.33 L 5.33 18.33 L 6 18.33" fill="var(--icon-primary, #dae8fc)" stroke="var(--icon-secondary, #6c8ebf)" stroke-width="1"/><path d="M 38.33 18.66 C 39 18.66 39 18.66 39 18.66 C 44.33 18.66 45.33 23.33 45.33 23.33 C 45.33 18.33 45.33 18.33 45.33 18.33 C 45.33 18.33 44.33 13.33 39 13.33 C 37.67 13.33 37.67 13.33 37.67 13.33" fill="var(--icon-secondary, #6c8ebf)" stroke="var(--icon-secondary, #6c8ebf)" stroke-width="1"/><path d="M 34 54.33 L 34 4.33 L 5.33 4.33 L 5.33 54.33 Z M 5.33 4.33 L 11 0 L 38.67 0 L 34 4.33 Z M 34 54.33 L 38.67 49 L 38.67 0 L 34 4.33 Z" fill="var(--icon-primary, #dae8fc)" stroke="var(--icon-secondary, #6c8ebf)" stroke-width="1" stroke-linejoin="round"/><rect x="0" y="0" width="0" height="0" fill="none" stroke="var(--icon-secondary, #6c8ebf)" stroke-width="1"/><path d="M 45.33 20 C 45.33 26 45.33 26 45.33 26 C 44.67 33 32 32.66 32 32.66 C 32 33 32 33 32 33 C 32 38 32 38 32 38 C 23.67 29.66 23.67 29.66 23.67 29.66 C 32 21.33 32 21.33 32 21.33 C 32 26.66 32 26.66 32 26.66 C 32 26.66 45 27 45.33 20" fill="var(--icon-secondary, #6c8ebf)" stroke="var(--icon-secondary, #6c8ebf)" stroke-width="0.67"/><path d="M 9.67 12.66 L 8 14 L 8 7.66 L 14.67 7.66 L 13 9 L 13 9.33 L 22.33 18.66 L 19.33 22 L 9.67 12.33 Z M 10 46.33 L 8.67 45 L 8.67 51.33 L 15 51.33 L 13.67 50 L 13.33 49.66 L 23 40 L 20 37 L 10.33 46.33 Z" fill="var(--icon-secondary, #6c8ebf)" stroke="none" stroke-width="0"/><path d="M 14.33 28.33 C 14.33 34.66 14.33 34.66 14.33 34.66 C 7.33 34.66 7.33 34.66 7.33 34.66 C 7.33 28.33 7.33 28.33 7.33 28.33 C 11 26.33 14.33 28.33 14.33 28.33 Z" fill="var(--icon-secondary, #6c8ebf)" stroke="none" stroke-width="0"/><path d="M 13 25.66 C 13 26.66 12 27.66 11 27.66 C 9.67 27.66 9 26.66 9 25.66 C 9 24.33 9.67 23.66 11 23.66 C 12 23.66 13 24.33 13 25.66 Z" fill="var(--icon-secondary, #6c8ebf)" stroke="none" stroke-width="0"/><path d="M 22.67 28.33 C 22.67 34.66 22.67 34.66 22.67 34.66 C 15.67 34.66 15.67 34.66 15.67 34.66 C 15.67 28.33 15.67 28.33 15.67 28.33 C 19.33 26.33 22.67 28.33 22.67 28.33 Z" fill="var(--icon-secondary, #6c8ebf)" stroke="none" stroke-width="0"/><path d="M 21.33 25.66 C 21.33 26.66 20.33 27.66 19.33 27.66 C 18 27.66 17.33 26.66 17.33 25.66 C 17.33 24.33 18 23.66 19.33 23.66 C 20.33 23.66 21.33 24.33 21.33 25.66 Z" fill="var(--icon-secondary, #6c8ebf)" stroke="none" stroke-width="0"/></svg>