<svg xmlns="http://www.w3.org/2000/svg" viewBox="0 0 43.66 40.67" width="43.66" height="40.67"><path d="M 40.33 40.67 L 40.33 3.34 L 0 3.34 L 0 40.67 Z M 0 3.34 L 4.33 0 L 43.66 0 L 40.33 3.34 Z M 40.33 40.67 L 43.66 36.67 L 43.66 0 L 40.33 3.34 Z" fill="var(--icon-primary, #dae8fc)" stroke="var(--icon-secondary, #6c8ebf)" stroke-width="1" stroke-linejoin="round"/><path d="M 40 16 C 32.33 16 32.33 16 32.33 16 C 29.66 16 29.66 13.34 29.66 13.34 C 33.66 4.34 26.33 5.67 26.33 5.67 C 26.33 5.67 19.33 4.34 23.33 13.34 C 23.33 13.34 23.33 16 20.66 16 C 2.33 16 2.33 16 2.33 16 C 2.33 16 0.66 16.34 0.33 18.34" fill="none" stroke="var(--icon-secondary, #6c8ebf)" stroke-width="1" stroke-linejoin="round"/><path d="M 0 27.67 C 7.66 27.67 7.66 27.67 7.66 27.67 C 10.33 27.67 10.33 30.34 10.33 30.34 C 6 39.34 13.33 38 13.33 38 C 13.33 38 20.66 39.34 16.66 30.34 C 16.66 30.34 16.66 27.67 19.33 27.67 C 37.66 27.67 37.66 27.67 37.66 27.67 C 37.66 27.67 39 27.34 39.66 25.34" fill="none" stroke="var(--icon-secondary, #6c8ebf)" stroke-width="1" stroke-linejoin="round"/><path d="M 9.33 20.34 L 10.33 22 L 6.66 22.67 L 7.33 22 L 1.66 21 L 3 20 L 8.66 21 Z M 14.66 24 L 14 22.34 L 17.66 21.67 L 17 22.34 L 22.66 23.34 L 21.33 24.34 L 15.66 23.34 Z M 13 19.67 L 16.66 18.34 L 17 20 L 16 20 L 14 21.67 L 12.33 21.34 L 14 19.67 Z M 11.33 25.34 L 7.66 26.34 L 7.33 24.34 L 8.66 24.67 L 10.66 23 L 12.33 23.34 L 10 25 Z M 31.33 22 L 34 24 L 35 24 L 35.33 23.34 L 38 24.34 L 35.33 25.34 L 35 24.67 L 33.66 24.67 L 30.66 22.67 L 28 24.67 L 26.33 24.67 L 26.33 25.34 L 23.66 24.34 L 26.33 23.34 L 26.33 24 L 27.33 24 L 30 22 L 27.33 20 L 26.33 20 L 26.33 20.67 L 23.66 19.67 L 26.33 18.67 L 26.33 19 L 28 19 L 30.66 21.34 L 33.66 19 L 35 19 L 35.33 18.67 L 38 19.67 L 35.33 20.67 L 35 20 L 34 20 Z" fill="var(--icon-secondary, #6c8ebf)" stroke="none" stroke-width="0"/></svg>