<svg xmlns="http://www.w3.org/2000/svg" viewBox="0 0 86.33 33" width="86.33" height="33"><path d="M 53 31 L 53 9.67 L 51 11.67 L 51 33 Z M 51 33 L 51 11.67 L 0 11.67 L 0 33 Z M 53 9.67 L 2.33 9.67 L 0 11.67 L 51 11.67 Z" fill="var(--icon-primary, #dae8fc)" stroke="var(--icon-secondary, #6c8ebf)" stroke-width="1" stroke-linejoin="round"/><path d="M 53 9.67 L 51 11.67 M 10.67 33 L 10.67 11.67 M 20.33 33 L 20.33 11.67 M 30 33 L 30 11.67 M 40 33 L 40 11.67" fill="none" stroke="var(--icon-secondary, #6c8ebf)" stroke-width="1" stroke-linejoin="round"/><path d="M 57.33 14 L 59.33 16.67 L 53 20.34 L 53 16.34 Z M 60.33 19 L 62 22 L 53 27.34 L 53 23.34 Z M 80 19.34 L 69.33 0.67 L 68.67 3.34 L 79.33 22 Z M 79 22 L 68.67 3.67 L 55.67 11 L 66.33 29.34 Z M 69.33 0.67 L 56.67 8.34 L 55.67 11 L 68.67 3.67 Z" fill="var(--icon-primary, #dae8fc)" stroke="var(--icon-secondary, #6c8ebf)" stroke-width="1" stroke-linejoin="round"/><path d="M 69.33 0.67 L 68.67 3.67" fill="none" stroke="var(--icon-secondary, #6c8ebf)" stroke-width="1" stroke-linejoin="round"/><line x1="0" y1="0" x2="0" y2="0" fill="var(--icon-primary, #dae8fc)" stroke="var(--icon-secondary, #6c8ebf)" stroke-width="1" stroke-linejoin="round"/></svg>