<svg xmlns="http://www.w3.org/2000/svg" viewBox="0 0 103.33 41" width="103.33" height="41"><path d="M 92 32.67 C 92 33.34 91.67 33.67 91.33 33.67 C 9.67 33.67 9.67 33.67 9.67 33.67 C 9 33.67 8.67 33.34 8.67 32.67 C 13.33 5.34 13.33 5.34 13.33 5.34 C 13.33 5 13.67 4.67 14 4.67 C 94.33 4.67 94.33 4.67 94.33 4.67 C 95 4.67 95.33 5 95.33 5.34 Z" fill="var(--icon-primary, #dae8fc)" stroke="var(--icon-secondary, #6c8ebf)" stroke-width="1" stroke-linejoin="round"/><path d="M 103.33 29 C 103.33 29.34 102.67 29.67 102.33 29.67 C 91 33.67 91 33.67 91 33.67 C 90.67 33.67 90 33.34 90 32.67 C 93.33 5.34 93.33 5.34 93.33 5.34 C 93.33 5 93.67 4.67 94 4.67 C 102.33 4.67 102.33 4.67 102.33 4.67 C 103 4.67 103.33 5 103.33 5.34 Z" fill="var(--icon-primary, #dae8fc)" stroke="var(--icon-secondary, #6c8ebf)" stroke-width="1" stroke-linejoin="round"/><path d="M 84.33 37.34 L 56 37.34 L 64 27 L 90.67 27 Z" fill="var(--icon-primary, #dae8fc)" stroke="var(--icon-secondary, #6c8ebf)" stroke-width="1" stroke-linejoin="round"/><path d="M 84.33 41 L 56 41 L 56 37.34 L 84.33 37.34 Z" fill="var(--icon-primary, #dae8fc)" stroke="var(--icon-secondary, #6c8ebf)" stroke-width="1" stroke-linejoin="round"/><path d="M 90.67 27 L 90.67 33.67 L 84 41 L 84 37.34 Z" fill="var(--icon-primary, #dae8fc)" stroke="var(--icon-secondary, #6c8ebf)" stroke-width="1" stroke-linejoin="round"/><path d="M 37.33 5 L 33.33 33.67 M 66.67 4.67 L 63.67 27.34" fill="none" stroke="var(--icon-secondary, #6c8ebf)" stroke-width="1" stroke-linejoin="round"/><path d="M 91 15 C 91 16.67 89.33 18.34 87.67 18.34 C 85.67 18.34 84.33 16.67 84.33 15 C 84.33 13 85.67 11.67 87.67 11.67 C 89.33 11.67 91 13 91 15 Z" fill="none" stroke="var(--icon-secondary, #6c8ebf)" stroke-width="1" stroke-linejoin="round"/><path d="M 27.33 11 C 27.33 12.67 25.67 14.34 24 14.34 C 22 14.34 20.67 12.67 20.67 11 C 20.67 9 22 7.67 24 7.67 C 25.67 7.67 27.33 9 27.33 11 Z" fill="none" stroke="var(--icon-secondary, #6c8ebf)" stroke-width="1" stroke-linejoin="round"/><path d="M 71.67 32.67 C 70.67 34 68.33 35.34 66.33 35 C 64 35 63 33.67 63.67 32 C 64.67 30.67 67 29.34 69 29.67 C 71.33 29.67 72.33 31 71.67 32.67 Z" fill="none" stroke="var(--icon-secondary, #6c8ebf)" stroke-width="1" stroke-linejoin="round"/><path d="M 48.33 22.34 C 47.67 25.34 45.33 26 42.33 26 C 42.33 26 42.33 26 42.33 26 C 39.33 26 37.33 25.34 37.67 22.34 C 39 13.67 39 13.67 39 13.67 C 39.67 10.67 42 10 45 10 C 45 10 45 10 45 10 C 48 10 50 10.67 49.67 13.67 Z" fill="none" stroke="var(--icon-secondary, #6c8ebf)" stroke-width="1" stroke-linejoin="round"/><path d="M 60 22.34 C 59.33 25.34 57 26 54 26 C 54 26 54 26 54 26 C 51 26 49 25.34 49.33 22.34 C 50.67 13.67 50.67 13.67 50.67 13.67 C 51.33 10.67 53.67 10 56.67 10 C 56.67 10 56.67 10 56.67 10 C 59.67 10 61.67 10.67 61.33 13.67 Z" fill="none" stroke="var(--icon-secondary, #6c8ebf)" stroke-width="1" stroke-linejoin="round"/><path d="M 80.33 22 C 79.67 24.34 76.67 25 73.33 25 C 73.33 25 73.33 25 73.33 25 C 69.67 25 67 24.34 67.67 22 C 68.67 14.34 68.67 14.34 68.67 14.34 C 69.33 11.67 72.33 11.34 75.67 11.34 C 75.67 11.34 75.67 11.34 75.67 11.34 C 79.33 11.34 82 11.67 81.67 14.34 Z" fill="none" stroke="var(--icon-secondary, #6c8ebf)" stroke-width="1" stroke-linejoin="round"/><rect x="0" y="0" width="0" height="0" fill="none" stroke="var(--icon-secondary, #6c8ebf)" stroke-width="1"/><path d="M 32 19.67 L 15.33 19.67 L 16 17 L 32.33 17 Z M 31 23.67 L 14.67 23.67 L 15 21 L 31.33 21 Z M 30 27.67 L 13.67 27.67 L 14 25 L 30.67 25 Z M 29.33 31.67 L 12.67 31.67 L 13.33 29 L 29.67 29 Z M 82.67 35 L 73.67 35 L 76.67 30.67 L 85.67 30.67 Z" fill="none" stroke="var(--icon-secondary, #6c8ebf)" stroke-width="1"/><path d="M 25 9.34 C 31.67 0 44.67 2.34 44.67 2.34" fill="none" stroke="var(--icon-secondary, #6c8ebf)" stroke-width="1"/><path d="M 47.67 1.67 C 47.67 2.67 46.33 3.67 44.67 3.67 C 43 3.67 41.67 2.67 41.67 1.67 C 41.67 0.67 43 0 44.67 0 C 46.33 0 47.67 0.67 47.67 1.67 Z" fill="var(--icon-primary, #dae8fc)" stroke="var(--icon-secondary, #6c8ebf)" stroke-width="1"/><path d="M 19.33 15.67 L 15.67 33 M 29.67 15.67 L 26 33 M 24.33 15.67 L 20.67 33" fill="none" stroke="var(--icon-secondary, #6c8ebf)" stroke-width="1"/><path d="M 10 14.34 C 9.33 16.67 8.33 19 8 21.67 C 8.67 23 8.67 23 8.67 23 C 7.67 30.34 7.67 30.34 7.67 30.34 C 5.33 25.67 5.33 25.67 5.33 25.67 C 4.67 22 8.33 8.34 9.67 6.67 C 12 11.34 12 11.34 12 11.34 C 10.67 16 10.67 16 10.67 16 Z" fill="var(--icon-primary, #dae8fc)" stroke="var(--icon-secondary, #6c8ebf)" stroke-width="1" stroke-linejoin="round"/><path d="M 0.67 25.67 L 2.33 30.34 L 7.67 30.34 L 5.33 25.67 Z" fill="var(--icon-primary, #dae8fc)" stroke="var(--icon-secondary, #6c8ebf)" stroke-width="1" stroke-linejoin="round"/><path d="M 9.67 6.67 C 8.33 8.34 4.67 22 5.33 25.67 C 0.67 25.67 0.67 25.67 0.67 25.67 C 0 22.34 3.67 8.34 5 6.67 Z" fill="var(--icon-primary, #dae8fc)" stroke="var(--icon-secondary, #6c8ebf)" stroke-width="1" stroke-linejoin="round"/></svg>