<svg xmlns="http://www.w3.org/2000/svg" viewBox="0 0 33.67 33.33" width="33.67" height="33.33"><path d="M 33.67 23 L 30.34 28 L 0 28 L 5 23 L 33.67 23 Z" fill="var(--icon-primary, #dae8fc)" stroke="var(--icon-secondary, #6c8ebf)" stroke-width="1" stroke-linejoin="round"/><path d="M 0 33.33 L 0 28 L 29 28 L 29 33.33 Z" fill="var(--icon-primary, #dae8fc)" stroke="var(--icon-secondary, #6c8ebf)" stroke-width="1" stroke-linejoin="round"/><path d="M 0 5 L 28.67 5 L 28.67 26.67 L 0 26.67 Z" fill="var(--icon-primary, #dae8fc)" stroke="var(--icon-secondary, #6c8ebf)" stroke-width="1" stroke-linejoin="round"/><path d="M 28.67 26.67 L 33.67 21.67 L 33.67 0 L 28.67 5 Z" fill="var(--icon-primary, #dae8fc)" stroke="var(--icon-secondary, #6c8ebf)" stroke-width="1" stroke-linejoin="round"/><path d="M 29 33.33 L 29 28 L 33.67 23 L 33.67 28.33 Z" fill="var(--icon-primary, #dae8fc)" stroke="var(--icon-secondary, #6c8ebf)" stroke-width="1" stroke-linejoin="round"/><path d="M 4.67 7.33 C 24 7.33 24 7.33 24 7.33 C 25.34 7.33 26.34 8.33 26.34 9.67 C 26.34 22 26.34 22 26.34 22 C 26.34 23 25.34 24 24 24 C 4.67 24 4.67 24 4.67 24 C 3.34 24 2.34 23 2.34 22 C 2.34 9.67 2.34 9.67 2.34 9.67 C 2.34 8.33 3.34 7.33 4.67 7.33 Z" fill="var(--icon-secondary, #6c8ebf)" stroke="var(--icon-secondary, #6c8ebf)" stroke-width="1" stroke-linejoin="round"/><rect x="0" y="0" width="0" height="0" fill="none" stroke="var(--icon-secondary, #6c8ebf)" stroke-width="1"/><path d="M 33.67 0 L 5.67 0 L 0 5 L 28.67 5 Z" fill="var(--icon-primary, #dae8fc)" stroke="var(--icon-secondary, #6c8ebf)" stroke-width="1" stroke-linejoin="round"/><path d="M 5 30.67 C 5 31.67 4.34 32.33 3.34 32.33 C 2.34 32.33 1.67 31.67 1.67 30.67 C 1.67 29.67 2.34 29 3.34 29 C 4.34 29 5 29.67 5 30.67 Z" fill="var(--icon-primary, #dae8fc)" stroke="var(--icon-secondary, #6c8ebf)" stroke-width="1" stroke-linejoin="round"/><path d="M 27.67 30.67 C 27.67 31.67 26.67 32.33 25.67 32.33 C 25 32.33 24 31.67 24 30.67 C 24 29.67 25 29 25.67 29 C 26.67 29 27.67 29.67 27.67 30.67 Z" fill="var(--icon-primary, #dae8fc)" stroke="var(--icon-secondary, #6c8ebf)" stroke-width="1" stroke-linejoin="round"/><path d="M 11.34 31 C 11.34 31.67 11 32 10.67 32 C 10 32 9.67 31.67 9.67 31 C 9.67 30.67 10 30.33 10.67 30.33 C 11 30.33 11.34 30.67 11.34 31 Z" fill="var(--icon-primary, #dae8fc)" stroke="var(--icon-secondary, #6c8ebf)" stroke-width="1" stroke-linejoin="round"/><path d="M 15 31 C 15 31.67 14.67 32 14 32 C 13.67 32 13.34 31.67 13.34 31 C 13.34 30.67 13.67 30.33 14 30.33 C 14.67 30.33 15 30.67 15 31 Z" fill="var(--icon-primary, #dae8fc)" stroke="var(--icon-secondary, #6c8ebf)" stroke-width="1" stroke-linejoin="round"/><path d="M 18.34 31 C 18.34 31.67 18 32 17.67 32 C 17 32 16.67 31.67 16.67 31 C 16.67 30.67 17 30.33 17.67 30.33 C 18 30.33 18.34 30.67 18.34 31 Z" fill="var(--icon-primary, #dae8fc)" stroke="var(--icon-secondary, #6c8ebf)" stroke-width="1" stroke-linejoin="round"/><path d="M 9.67 9.67 C 10 10 10 10 10 10.33 C 10 10.67 10 11.33 9.67 12 C 9.67 12.33 9.67 12.67 9.34 12.33 C 9.34 12.33 9 12 8.67 12 C 8.67 12 8.34 12 8 12.33 C 8.34 13 9 13.67 8.67 14.67 C 8 13.67 7.34 12.67 7 11.67 C 6.67 11 7 10.33 7.34 9.67 C 7.67 9 8.34 8.33 9.34 8.33 C 10.67 8 11.67 7.67 13 7.67 C 12 8.33 10.67 8.67 9.67 9.33 C 9.67 9.67 9.67 9.67 9.67 9.67 Z" fill="var(--icon-primary, #dae8fc)" stroke="none" stroke-width="0"/><path d="M 14 9.67 C 13.67 10.33 13.34 11 13 11.33 C 13 11.33 13 11.33 13 11.33 C 13 11.33 12.67 11.33 12.67 11.33 C 12.67 11 12.67 11 12.67 10.67 C 12.67 10.67 13 10.67 13 10.67 C 13.67 10 12.67 9.33 12.34 8.33 C 13 8.33 13.67 9 14.34 9 C 14.34 9.33 14 9.67 14 9.67 Z" fill="var(--icon-primary, #dae8fc)" stroke="none" stroke-width="0"/><path d="M 11 11.33 C 11 11.33 10.67 11.33 10.67 11.33 C 10.34 10.67 11.34 11 12 10.67 C 11.67 11 11.67 11.33 11 11.33 Z" fill="var(--icon-primary, #dae8fc)" stroke="none" stroke-width="0"/><path d="M 12.34 12.67 C 12.34 12.67 12 12.67 12 12.67 C 12 12.67 12.34 12.33 12.67 12.33 C 12.67 12.67 12.67 12.67 12.67 12.67 C 12.67 12.67 12.67 12.67 12.34 12.67 Z" fill="var(--icon-primary, #dae8fc)" stroke="none" stroke-width="0"/><path d="M 12.34 13.67 C 12 13.67 11.67 13.67 11.34 13.67 C 11.34 13.67 11.67 13.67 11.67 13.67 C 12 13.67 12.34 13.33 12.67 13.67 C 12.67 13.67 12.34 13.67 12.34 13.67 Z" fill="var(--icon-primary, #dae8fc)" stroke="none" stroke-width="0"/><path d="M 12.34 14 C 12.34 14.33 12 14.33 12 14.33 C 12 14.33 12 14 11.67 14 C 12 14 12 14 12.34 14 Z" fill="var(--icon-primary, #dae8fc)" stroke="none" stroke-width="0"/><path d="M 17.67 21.67 C 17.67 21.33 18 20.67 18 20 C 18 19.67 18.34 19 18.34 19 C 18 18.33 17.34 18 17 18 C 15.67 17.33 14.34 17 12.67 16.33 C 12.67 16.33 12.67 16.33 12.67 16.33 C 13 19.67 13 19.67 13 19.67 C 11.67 23.67 11.67 23.67 11.67 23.67" fill="var(--icon-primary, #dae8fc)" stroke="none" stroke-width="0"/><path d="M 11.67 23.67 C 9 20 9 20 9 20 C 8 16.33 8 16.33 8 16.33 C 7.67 16.67 7.67 16.67 7.34 17 C 5.67 17.67 4.34 18 2.67 19 C 2.67 22.33 4 21 3.67 24.33" fill="var(--icon-primary, #dae8fc)" stroke="none" stroke-width="0"/><path d="M 11.34 24 C 13 19.67 13 19.67 13 19.67 C 12.67 16.33 12.67 16.33 12.67 16.33 C 12 16 12 16 12 16 C 11.34 17.33 11.34 17.33 11.34 17.33 C 8.67 15.33 8.67 15.33 8.67 15.33 C 8.67 15.67 8 16.33 8 16.33 C 9 20 9 20 9 20 C 11.67 23.67 11.67 23.67 11.67 23.67" fill="var(--icon-secondary, #6c8ebf)" stroke="none" stroke-width="0"/><path d="M 10.67 23.67 L 11 18.33 L 10.67 18 L 11 17.33 L 11.34 17.67 L 11.67 17.33 L 12 17.67 L 11.67 18.33 L 12 23 Z" fill="var(--icon-primary, #dae8fc)" stroke="none" stroke-width="0"/><path d="M 15.34 18.33 C 15 18 14.67 18 14.67 17.67 C 14.67 17.67 15 17.67 15.34 17.67 C 15 17.33 14.67 17 14.67 16.33 C 14.67 16.33 14.67 16.33 14.67 16.33 C 15 16.33 15 16.67 15 16.67 C 15.34 16.67 15.34 16.67 15.34 16.67 C 15.34 16.33 15.34 16 15.34 16 C 15.34 16 16 16 16 15.67 C 16 15.33 15.34 15 15.67 14.67 C 16 14.67 16.34 15 16.34 14.67 C 16.34 14.33 16 14 16 14 C 16 13.67 16.34 13.67 16.34 13.33 C 16.67 13 16.34 12.67 16.34 12.33 C 16.67 11.33 17.34 10.33 17.67 9.33 C 19 9.33 19.34 8.33 21.34 9.33 C 21.34 9.33 21 9.33 21.34 9.33 C 21.34 9.33 21.34 9.33 21.34 9.67 C 21.67 9.67 22 9.33 22.34 9.67 C 22.34 10 22 10.33 22 10.33 C 22 10.67 22.67 10.67 22.67 11 C 23 11.33 22.34 12 22.34 12.33 C 22.34 12.67 23 12.67 23.34 13 C 23.34 13.33 23 14 23.34 14.33 C 23.67 14 23.67 14 24 13.67 C 24 14 24 14.33 24.34 14.67 C 24.34 14.33 24.67 14.33 25 14 C 25 14 25 14.33 25 14.33 C 24.67 14.67 24.34 15 23.67 15.33 C 23.67 15.33 23.67 15.33 23.67 15.33 C 23 15 23 15 23 15 C 23 15.33 23.67 15.33 23.34 15.33 C 23.34 15.67 23.34 15.67 23.34 15.67 C 23.67 16 24 16 24.34 15.67 C 24.34 16.33 23.67 16.33 23.67 16.67 C 23.67 17 24 17 24.34 17 C 24.34 17.33 24 17.33 23.67 17.67" fill="var(--icon-primary, #dae8fc)" stroke="none" stroke-width="0"/><path d="M 11.67 24 C 12 22.33 12 21.33 12 19.67 C 13 19 14 18.67 15.34 18.33 C 20 17.33 20 17.33 20 17.33 C 23.67 17.67 23.67 17.67 23.67 17.67 C 24.34 18 25 18 26 18 C 26.67 20 24.67 22 25.34 23.67 C 25 24 25 24 25 24" fill="var(--icon-primary, #dae8fc)" stroke="none" stroke-width="0"/><path d="M 21.67 19.67 C 21.67 19.67 21.67 19.33 21.67 19.33 C 21.67 19.33 21.34 19.33 21.67 19.33 C 21.67 19 21.67 19 21.67 19 C 21.67 19.33 22 19.33 22 19.33 C 22 18.67 22 18.33 22 17.67 C 21.67 17.33 21.34 17.33 21.34 17.33 C 21 17 21 16 21.34 16 C 22 16 22 14.33 22.34 13.33 C 22.34 13 22.34 13 22 12.33 C 22 12.67 22 12.67 22 12.67 C 21.67 12.67 21.67 13 21.34 12.67 C 21.34 12.67 21.34 12.33 21.34 12.33 C 21.67 12.33 22 12 22 12 C 22.34 11.67 22 11.33 21.67 11 C 21.67 11.33 21.34 11.33 21.34 11.33 C 21.34 11 21.34 10.67 21 10.67 C 20.67 11 21 11.67 20.34 11.67 C 20.34 11.33 20.34 11 20.34 11 C 20 11.33 19.67 11.33 19.67 11.33 C 19.34 11.33 19.34 11 19.34 11 C 19 11.33 19.34 11.67 19.34 12 C 19 12.67 19 13.33 18.67 14 C 18.67 14.33 18.67 14.33 18.67 14.67 C 18.67 14.67 19 14.67 19 14.67 C 19 15 18.67 15 18.67 15 C 18.67 15 18.67 15.33 18.67 15.33 C 19 15.67 19 15.67 19.34 15.67 C 19.34 16 18.67 16 18.34 16 C 18.34 16.33 18.67 16.67 19 17 C 19 17.33 18.67 17 18.34 17 C 18 17.33 18.34 17.67 18.34 18 C 18.34 18 18 18 18 18 C 18 18.33 18 18.67 18.34 19 C 18.34 19 18.34 19 18.34 19 C 18.67 19 18.67 19.33 18.67 19.33 C 18.34 19.33 18.34 19.33 18.34 19.33 C 18 19.33 18.34 19.67 18.34 19.67 C 19 20 20 20.33 20.67 20.33 C 21 20.33 21.34 20 21.34 20 C 21.34 19.67 20.67 20 21 19.67 C 21 19.33 21.34 19.33 21.34 19.33 C 21.34 19.67 21.34 19.67 21.34 20 C 21.34 20 21.34 20 21.67 20 C 21.67 19.67 22 19.67 22 19.33 C 22 19.33 22 19.33 22 19.33 C 21.67 19.33 22 19.67 21.67 19.67 Z" fill="var(--icon-secondary, #6c8ebf)" stroke="none" stroke-width="0"/><path d="M 20.67 12.67 C 20.67 13 20.67 13 20.67 13 C 20.34 13 20 13 19.67 12.67 C 20 12.33 20.67 12.33 21 12.67 C 21 12.67 20.67 12.67 20.67 12.67 Z" fill="var(--icon-primary, #dae8fc)" stroke="none" stroke-width="0"/><path d="M 21.67 14 C 21.67 14 21.34 14 21 14 C 21.34 13.67 21.34 13.67 21.67 13.67 C 21.67 13.67 21.67 13.67 21.67 14 Z" fill="var(--icon-primary, #dae8fc)" stroke="none" stroke-width="0"/><path d="M 21.34 14.67 C 21.34 14.67 21 14.67 20.67 14.67 C 21 14.33 21.67 14.67 22 14.33 C 22 14.33 22 14.67 22 14.67 C 21.67 14.67 21.67 14.67 21.34 14.67 Z" fill="var(--icon-primary, #dae8fc)" stroke="none" stroke-width="0"/><path d="M 20.67 20 C 20.67 20.33 20.34 20 20.34 19.67 C 20.34 19.67 20.67 19.67 20.67 19.67 C 20.67 19.67 21 20 20.67 20 Z" fill="var(--icon-primary, #dae8fc)" stroke="none" stroke-width="0"/><path d="M 20 20 C 20 20 20 20 19.67 20 C 19.67 20 19.67 19.67 20 19.67 C 20 19.67 20 19.67 20.34 19.67 C 20.34 20 20 20 20 20 Z" fill="var(--icon-primary, #dae8fc)" stroke="none" stroke-width="0"/><path d="M 19.34 20 C 19.34 20 19.34 20 19.34 19.67 C 19 19.67 19 19.67 19.34 19.33 C 19.34 19.33 19.67 19.67 19.67 19.67 C 19.67 19.67 19.34 20 19.34 20 Z" fill="var(--icon-primary, #dae8fc)" stroke="none" stroke-width="0"/><path d="M 19 19.67 C 19 19.67 18.67 19.67 18.67 19.33 C 18.67 19.33 19 19 19 19.33 C 19 19.33 19 19.33 19 19.67 Z" fill="var(--icon-primary, #dae8fc)" stroke="none" stroke-width="0"/><path d="M 21.34 15 C 21.34 15 21.34 15 21 15 C 21.34 15 21.67 14.67 21.67 14.67 C 21.67 15 21.67 15 21.34 15 Z" fill="var(--icon-primary, #dae8fc)" stroke="none" stroke-width="0"/><path d="M 25 24 L 4 24 L 4 23 L 25 23 L 25 24 Z" fill="var(--icon-primary, #dae8fc)" stroke="none" stroke-width="0"/></svg>