<svg xmlns="http://www.w3.org/2000/svg" viewBox="0 0 63.66 31.33" width="63.66" height="31.33"><path d="M 0 15.66 L 19.33 0 L 63.66 0 L 47.66 15.66 Z M 47.66 31.33 L 63.66 14 L 63.66 0.33 L 47.66 15.66 Z M 47.66 31.33 L 47.66 15.66 L 0 15.66 L 0 31.33 Z" fill="var(--icon-primary, #dae8fc)" stroke="var(--icon-secondary, #6c8ebf)" stroke-width="1" stroke-linejoin="round"/><path d="M 28.33 22 L 28.33 18.33 L 20 23 L 28.33 28 L 28.33 24.33 Z" fill="var(--icon-secondary, #6c8ebf)" stroke="none" stroke-width="0"/><path d="M 26.66 6.66 L 29.33 4.33 L 17.66 8 L 22.33 10.66 L 25 8.33 Z" fill="var(--icon-secondary, #6c8ebf)" stroke="none" stroke-width="0"/><path d="M 39.33 8.33 L 23 8.33 L 24.66 6.66 L 41 6.66 L 43.66 4.33 L 48.33 7.66 L 36.66 10.66 Z" fill="var(--icon-secondary, #6c8ebf)" stroke="none" stroke-width="0"/></svg>