<svg xmlns="http://www.w3.org/2000/svg" viewBox="0 0 63.66 31" width="63.66" height="31"><path d="M 0 15.66 L 19.33 0 L 63.66 0 L 47.66 15.66 Z M 47.66 31 L 63.66 13.66 L 63.66 0 L 47.66 15.66 Z M 47.66 31 L 47.66 15.66 L 0 15.66 L 0 31 Z" fill="var(--icon-primary, #dae8fc)" stroke="var(--icon-secondary, #6c8ebf)" stroke-width="1" stroke-linejoin="round"/><path d="M 24 31 L 24 15.66" fill="none" stroke="var(--icon-secondary, #6c8ebf)" stroke-width="1.33" stroke-linejoin="round"/><path d="M 32.66 28 L 41 23.33 L 32.66 18.66 Z" fill="var(--icon-secondary, #6c8ebf)" stroke="none" stroke-width="0"/><path d="M 18.33 8 L 18.33 8 L 39.33 8 L 36.66 10.66 L 48.33 7.33 L 43.66 4 L 41 6.66 L 20 6.66 Z M 13.66 20.33 L 3.66 20.33 L 3.66 19 L 13.66 19 L 13.66 17 L 19.66 19.66 L 13.66 22.33 Z M 13.66 27.33 L 3.66 27.33 L 3.66 26 L 13.66 26 L 13.66 24 L 19.66 26.66 L 13.66 29.33 Z" fill="var(--icon-secondary, #6c8ebf)" stroke="none" stroke-width="0"/></svg>