<svg xmlns="http://www.w3.org/2000/svg" viewBox="0 0 31 43.67" width="31" height="43.67"><path d="M 24.33 6.67 L 0 6.67 L 0 43.67 L 24.33 43.67 Z" fill="var(--icon-primary, #dae8fc)" stroke="var(--icon-secondary, #6c8ebf)" stroke-width="1" stroke-linejoin="round"/><path d="M 24.33 43.67 L 31 37 L 31 0 L 6.67 0 L 0 6.67 L 24.33 6.67 Z" fill="var(--icon-primary, #dae8fc)" stroke="var(--icon-secondary, #6c8ebf)" stroke-width="1" stroke-linejoin="round"/><rect x="0" y="0" width="0" height="0" fill="none" stroke="var(--icon-secondary, #6c8ebf)" stroke-width="1"/><path d="M 24.33 6.67 L 31 0 M 0 17 L 24.33 17 M 0 40 L 24.33 40 M 5 11.67 L 10.67 11.67 M 13 13.67 L 13 9.34 L 2.67 9.34 L 2.67 13.67 L 13 13.67 Z" fill="none" stroke="var(--icon-secondary, #6c8ebf)" stroke-width="1"/><path d="M 14 29.34 C 14 30.67 13 31.34 11.67 31.34 C 11.33 31.34 10.33 31.34 10 30.67 C 9.67 30.34 9.67 30 9.67 29.34 C 9.67 26 9.67 26 9.67 26 C 10.67 26 10.67 26 10.67 26 C 10.67 29.34 10.67 29.34 10.67 29.34 C 10.67 30 11 30.34 11.67 30.34 C 12.33 30.34 12.67 30 12.67 29.34 C 12.67 26 12.67 26 12.67 26 C 14 26 14 26 14 26 Z" fill="var(--icon-secondary, #6c8ebf)" stroke="none" stroke-width="0"/><path d="M 11.67 32.34 C 14 32.34 16 30.67 16 28.34 C 16 26 14 24.34 11.67 24.34 C 9.67 24.34 7.67 26 7.67 28.34 C 7.67 30.67 9.67 32.34 11.67 32.34 Z" fill="none" stroke="var(--icon-secondary, #6c8ebf)" stroke-width="1"/><path d="M 11.67 24.34 L 19 24.34" fill="none" stroke="var(--icon-secondary, #6c8ebf)" stroke-width="1"/><path d="M 19.33 22 L 19.33 26.34 L 21.67 24.34 Z" fill="var(--icon-secondary, #6c8ebf)" stroke="var(--icon-secondary, #6c8ebf)" stroke-width="1"/><path d="M 7.67 28.34 L 7.67 21.34" fill="none" stroke="var(--icon-secondary, #6c8ebf)" stroke-width="1"/><path d="M 5.67 21 L 9.67 21 L 7.67 18.34 Z" fill="var(--icon-secondary, #6c8ebf)" stroke="var(--icon-secondary, #6c8ebf)" stroke-width="1"/><path d="M 16 28.34 L 16 35.34" fill="none" stroke="var(--icon-secondary, #6c8ebf)" stroke-width="1"/><path d="M 18 35.67 L 14 35.67 L 15.67 38.34 Z" fill="var(--icon-secondary, #6c8ebf)" stroke="var(--icon-secondary, #6c8ebf)" stroke-width="1"/><path d="M 12 32.34 L 4.67 32.34" fill="none" stroke="var(--icon-secondary, #6c8ebf)" stroke-width="1"/><path d="M 4.67 34.67 L 4.67 30.34 L 2.33 32.34 Z" fill="var(--icon-secondary, #6c8ebf)" stroke="var(--icon-secondary, #6c8ebf)" stroke-width="1"/></svg>