<svg xmlns="http://www.w3.org/2000/svg" viewBox="0 0 34.67 35" width="34.67" height="35"><path d="M 28.67 35 L 28.67 5.67 L 0 5.67 L 0 35 Z" fill="var(--icon-primary, #dae8fc)" stroke="var(--icon-secondary, #6c8ebf)" stroke-width="1" stroke-linejoin="round"/><path d="M 14.34 26.67 C 18 26.67 20.67 23.67 20.67 20.33 C 20.67 16.67 18 14 14.34 14 C 11 14 8 16.67 8 20.33 C 8 23.67 11 26.67 14.34 26.67 Z" fill="none" stroke="var(--icon-secondary, #6c8ebf)" stroke-width="1.33" stroke-linejoin="round"/><path d="M 14.34 14 L 24 14" fill="none" stroke="var(--icon-secondary, #6c8ebf)" stroke-width="1.33" stroke-linejoin="round"/><path d="M 24 10.33 L 24 17.33 L 28.34 14 Z" fill="var(--icon-secondary, #6c8ebf)" stroke="none" stroke-width="0"/><path d="M 8 20.33 L 8 10.67" fill="none" stroke="var(--icon-secondary, #6c8ebf)" stroke-width="1.33"/><path d="M 4.34 10.67 L 11.34 10.67 L 8 6.67 Z" fill="var(--icon-secondary, #6c8ebf)" stroke="none" stroke-width="0"/><path d="M 20.67 20.33 L 20.67 30" fill="none" stroke="var(--icon-secondary, #6c8ebf)" stroke-width="1.33"/><path d="M 24.34 30 L 17.34 30 L 20.67 34 Z" fill="var(--icon-secondary, #6c8ebf)" stroke="none" stroke-width="0"/><path d="M 14.34 26.67 L 5 26.67" fill="none" stroke="var(--icon-secondary, #6c8ebf)" stroke-width="1.33"/><path d="M 4.67 30.33 L 4.67 23.33 L 0.67 26.67 Z" fill="var(--icon-secondary, #6c8ebf)" stroke="none" stroke-width="0"/><path d="M 28.67 5.67 L 0 5.67 L 7.34 0 L 34.67 0 L 34.67 0 L 34.67 29 L 28.67 35 Z M 34.67 0 L 28.67 5.67" fill="var(--icon-primary, #dae8fc)" stroke="var(--icon-secondary, #6c8ebf)" stroke-width="1" stroke-linejoin="round"/><path d="M 17.67 17.33 C 17.67 21.33 17.67 21.33 17.67 21.33 C 17.67 23.33 16.67 24.67 14.34 24.67 C 12 24.67 11 23.33 11 21.67 C 11 17.33 11 17.33 11 17.33 C 12 17.33 12 17.33 12 17.33 C 12 21.33 12 21.33 12 21.33 C 12 23 13.34 23.67 14.34 23.67 C 15.34 23.67 16.67 23 16.67 21.33 C 16.67 17.33 16.67 17.33 16.67 17.33 Z" fill="var(--icon-secondary, #6c8ebf)" stroke="none" stroke-width="0"/></svg>