<svg xmlns="http://www.w3.org/2000/svg" viewBox="0 0 57.33 54.99" width="57.33" height="54.99"><path d="M 51.33 37.66 L 56 12.33 L 20.33 12.33 L 15.33 37.66 Z M 56 12.33 L 57.33 14 L 53 38.66 L 51.33 37.66 Z M 15.33 37.66 L 16.66 38.66 L 53 38.66 L 51.33 37.66 Z" fill="var(--icon-primary, #dae8fc)" stroke="var(--icon-secondary, #6c8ebf)" stroke-width="1" stroke-linejoin="round"/><path d="M 51.66 39.33 C 51.66 43 51.66 43 51.66 43 C 50.66 44 50.66 44 50.66 44 C 50.66 44 48.66 44.33 49 45.66 C 39.33 54.99 39.33 54.99 39.33 54.99 C 39.33 51 39.33 51 39.33 51 Z" fill="var(--icon-primary, #dae8fc)" stroke="var(--icon-secondary, #6c8ebf)" stroke-width="1" stroke-linejoin="round"/><path d="M 0 51 L 0 54.99 L 39.33 54.99 L 39.33 51 Z" fill="var(--icon-primary, #dae8fc)" stroke="var(--icon-secondary, #6c8ebf)" stroke-width="1" stroke-linejoin="round"/><path d="M 15.66 39.66 L 51.66 39.33 L 39.33 51 L 0 51 Z" fill="var(--icon-primary, #dae8fc)" stroke="var(--icon-secondary, #6c8ebf)" stroke-width="1" stroke-linejoin="round"/><path d="M 48.33 35.33 L 52 15.33 L 23.33 15.33 L 19.33 35.33 Z" fill="none" stroke="var(--icon-secondary, #6c8ebf)" stroke-width="1"/><path d="M 16.66 40 L 7.33 47.33 M 19.33 40 L 10.33 47.33 M 22.33 40 L 13.33 47.33 M 25.33 40 L 16.33 47.33 M 28.33 40 L 19 47.33 M 31 40 L 22 47.33 M 34 40 L 25 47.33 M 37 40 L 28 47.33 M 40 40 L 30.66 47.33 M 42.66 40 L 33.66 47.33 M 45.66 40 L 36.66 47.33 M 48.66 40 L 39.66 47.33 M 8.33 46.33 L 40.66 46.33 M 10.66 44.66 L 42.33 44.66 M 13 43 L 44.66 43 M 15 41.33 L 47 41.33" fill="none" stroke="var(--icon-secondary, #6c8ebf)" stroke-width="1" stroke-linejoin="round"/><path d="M 39.33 9 C 41.66 9 43.66 7 43.66 4.66 C 43.66 2 41.66 0 39.33 0 C 36.66 0 34.66 2 34.66 4.66 C 34.66 7 36.66 9 39.33 9 Z" fill="var(--icon-primary, #dae8fc)" stroke="var(--icon-secondary, #6c8ebf)" stroke-width="1" stroke-linejoin="round"/><path d="M 32.66 11.33 C 34 4.33 34 4.33 34 4.33 C 34 7.33 36.33 10 39.33 10 C 42.33 10 44.66 7.33 44.66 4.33 C 45.66 11.33 45.66 11.33 45.66 11.33 Z" fill="var(--icon-primary, #dae8fc)" stroke="var(--icon-secondary, #6c8ebf)" stroke-width="1" stroke-linejoin="round"/><rect x="36.33" y="3.66" width="6" height="2" fill="var(--icon-secondary, #6c8ebf)" stroke="none" stroke-width="0"/><path d="M 35.33 18 C 40.33 18 40.33 18 40.33 18 C 38 18.66 37 21.33 37 21.33 C 39 22.66 39 22.66 39 22.66 C 34.66 25.66 34.66 25.66 34.66 25.66 C 32.33 19 32.33 19 32.33 19 C 34 20 34 20 34 20 C 34.33 19 35.33 18 35.33 18 Z" fill="var(--icon-secondary, #6c8ebf)" stroke="none" stroke-width="0"/><path d="M 39.33 33.66 C 40.33 31.33 38.33 29.33 38.33 29.33 C 36.33 30.33 36.33 30.33 36.33 30.33 C 36 25 36 25 36 25 C 42.66 26.66 42.66 26.66 42.66 26.66 C 41 27.66 41 27.66 41 27.66 C 42.66 30 42.33 32.66 42.33 32.66 C 41.33 34 39.33 33.66 39.33 33.66 Z" fill="var(--icon-secondary, #6c8ebf)" stroke="none" stroke-width="0"/><path d="M 27.33 26.33 C 29 27 31 26.66 31 26.66 C 31 24.33 31 24.33 31 24.33 C 35.66 27 35.66 27 35.66 27 C 31 32 31 32 31 32 C 30.66 30 30.66 30 30.66 30 C 29.33 30 28.33 29.66 27.33 29.33 Z" fill="var(--icon-secondary, #6c8ebf)" stroke="none" stroke-width="0"/></svg>