<svg xmlns="http://www.w3.org/2000/svg" viewBox="0 0 49.67 32.33" width="49.67" height="32.33"><path d="M 0 32.33 L 44.67 32.33 L 44.67 6.33 L 0 6.33 Z M 49.67 24.67 L 44.67 32.33 L 44.67 6.33 L 49.67 0 Z M 8 0 L 49.67 0 L 44.67 6.33 L 0 6.33 Z" fill="var(--icon-primary, #dae8fc)" stroke="var(--icon-secondary, #6c8ebf)" stroke-width="1" stroke-linejoin="round"/><rect x="0" y="0" width="0" height="0" fill="none" stroke="var(--icon-secondary, #6c8ebf)" stroke-width="1"/><path d="M 22 24.67 C 22 24.67 27.67 24.33 27.67 24.33 C 27.67 24.33 20.67 21.67 19.33 21 C 19.33 21 25.67 21 25.67 21 C 6.67 15.67 6.67 15.67 6.67 15.67 C 19.33 20.33 19.33 20.33 19.33 20.33 C 19 20.33 14.67 20.67 14.67 20.67 C 14.67 20.67 19.33 23 20.67 23.33 C 20.33 23.33 16.33 24.67 16.33 24.67 C 39.33 31 39.33 31 39.33 31 Z" fill="var(--icon-secondary, #6c8ebf)" stroke="none" stroke-width="0"/></svg>