<svg xmlns="http://www.w3.org/2000/svg" viewBox="0 0 58.33 40.67" width="58.33" height="40.67"><path d="M 0 40.67 L 51 40.67 L 51 7.33 L 0 7.33 Z M 58.33 34 L 51 40.67 L 51 7.33 L 58.33 0 Z" fill="var(--icon-primary, #dae8fc)" stroke="var(--icon-secondary, #6c8ebf)" stroke-width="1" stroke-linejoin="round"/><path d="M 8.66 0 L 58.33 0 L 51 7.33 L 0 7.33 Z" fill="var(--icon-primary, #dae8fc)" stroke="var(--icon-secondary, #6c8ebf)" stroke-width="1" stroke-linejoin="round"/><path d="M 44 15.33 L 39.66 15.33 L 39.66 14 L 44 14 L 44 12 L 49 14.67 L 44 17.33 Z M 44 32.33 L 39.66 32.33 L 39.66 31 L 44 31 L 44 28.67 L 49 31.67 L 44 34.33 Z M 7 24 L 2 24 L 2 22.67 L 7 22.67 L 7 20.33 L 12 23.33 L 7 26 Z" fill="var(--icon-secondary, #6c8ebf)" stroke="none" stroke-width="0"/><rect x="0" y="0" width="0" height="0" fill="none" stroke="var(--icon-secondary, #6c8ebf)" stroke-width="1"/><path d="M 36.66 18.67 C 36.66 21 31.33 22.67 25 22.67 C 18.66 22.67 13.33 21 13.33 18.67 C 13.33 28.33 13.33 28.33 13.33 28.33 C 13.33 30.67 18.66 32.67 25 32.67 C 31.33 32.67 36.66 30.67 36.66 28.33 Z" fill="none" stroke="var(--icon-secondary, #6c8ebf)" stroke-width="1" stroke-linejoin="round"/><path d="M 25 22.67 C 31.33 22.67 36.66 21 36.66 18.67 C 36.66 16 31.33 14.33 25 14.33 C 18.66 14.33 13.33 16 13.33 18.67 C 13.33 21 18.66 22.67 25 22.67 Z" fill="none" stroke="var(--icon-secondary, #6c8ebf)" stroke-width="1" stroke-linejoin="round"/></svg>