<svg xmlns="http://www.w3.org/2000/svg" viewBox="0 0 42.34 61.67" width="42.34" height="61.67"><path d="M 19.34 16.34 L 19.34 61.67 M 19.34 16.34 L 38.67 54.34 M 19.34 16.34 L 0 54.34" fill="none" stroke="var(--icon-secondary, #6c8ebf)" stroke-width="1.33"/><path d="M 25 21.67 L 25 11 L 13.67 11 L 13.67 21.67 Z" fill="var(--icon-primary, #dae8fc)" stroke="var(--icon-secondary, #6c8ebf)" stroke-width="1" stroke-linejoin="round"/><path d="M 2.67 10.67 C 2 10.67 1.67 9.34 1.67 7.67 C 1.67 5.67 2 4.34 2.67 4.34 C 8.34 4.34 8.34 4.34 8.34 4.34 C 9 4.34 9.67 5.67 9.67 7.67 C 9.67 9.34 9 10.67 8.34 10.67 Z" fill="var(--icon-primary, #dae8fc)" stroke="var(--icon-secondary, #6c8ebf)" stroke-width="1" stroke-linejoin="round"/><path d="M 7 15.34 L 7 4 L 31.67 4 L 31.67 15.34 Z" fill="var(--icon-primary, #dae8fc)" stroke="var(--icon-secondary, #6c8ebf)" stroke-width="1" stroke-linejoin="round"/><path d="M 31.67 15.34 L 31.67 4 L 7 4 L 10 0.67 L 32 0.67 L 35 0.67 L 35 12 Z" fill="var(--icon-primary, #dae8fc)" stroke="var(--icon-secondary, #6c8ebf)" stroke-width="1" stroke-linejoin="round"/><path d="M 31.67 4 L 35 0.67 M 31.67 12.34 L 7 12.34 M 35 9 L 31.67 12.34" fill="none" stroke="var(--icon-secondary, #6c8ebf)" stroke-width="1" stroke-linejoin="round"/><path d="M 42.34 0 L 41.67 2.67 L 33 8 L 32.67 3.67 Z" fill="var(--icon-primary, #dae8fc)" stroke="var(--icon-secondary, #6c8ebf)" stroke-width="1" stroke-linejoin="round"/></svg>