<svg xmlns="http://www.w3.org/2000/svg" viewBox="0 0 40 54" width="40" height="54"><path d="M 40 47.66 L 40 0 L 33 6.33 L 33 54 Z M 40 0 L 33 6.33 L 0 6.33 L 8.34 0 Z M 33 39.33 L 33 6.33 L 0 6.33 L 0 39.33 Z M 33 54 L 33 39.66 L 0 39.66 L 0 54 Z" fill="var(--icon-primary, #dae8fc)" stroke="var(--icon-secondary, #6c8ebf)" stroke-width="1" stroke-linejoin="round"/><path d="M 13.67 19 L 8.34 14 L 9.34 13 L 6 12.33 L 6.67 15.66 L 7.67 14.66 L 12.67 19.66 Z M 11.67 22.33 L 4.67 22.33 L 4.67 21 L 2 22.66 L 4.67 24.66 L 4.67 23.33 L 11.67 23.33 Z M 12.67 26 L 7.67 31 L 6.67 30 L 6 33.33 L 9.34 32.66 L 8.34 31.66 L 13.67 26.66 Z M 16 27.66 L 16 35 L 14.67 35 L 16.67 37.66 L 18.34 35 L 17.34 35 L 17.34 27.66 Z M 16 18 L 16 11 L 14.67 11 L 16.67 8.33 L 18.34 11 L 17.34 11 L 17.34 18 Z M 19.67 26.66 L 24.67 31.66 L 24 32.66 L 27 33.33 L 26.34 30 L 25.67 31 L 20.34 26 Z M 21.67 23.33 L 28.67 23.33 L 28.67 24.66 L 31.34 22.66 L 28.67 21 L 28.67 22.33 L 21.67 22.33 Z M 20.34 19.66 L 25.67 14.66 L 26.34 15.66 L 27 12.33 L 24 13 L 24.67 14 L 19.67 19 Z" fill="var(--icon-secondary, #6c8ebf)" stroke="none" stroke-width="0"/><path d="M 21 29 C 24.34 26.66 25.34 22 22.67 18.33 C 20.34 15 15.67 14.33 12.34 16.66 C 9 19 8.34 23.66 10.67 27 C 13 30.33 17.67 31.33 21 29 Z" fill="var(--icon-secondary, #6c8ebf)" stroke="none" stroke-width="0"/><path d="M 17.34 44 L 18.34 44 L 16.67 41.33 L 14.67 44 L 16 44 L 16 49.66 L 14.67 49.66 L 16.67 52.33 L 18.34 49.66 L 17.34 49.66 Z M 8 44 L 9 44 L 7.34 41.33 L 5.67 44 L 6.67 44 L 6.67 49.66 L 5.67 49.66 L 7.34 52.33 L 9 49.66 L 8 49.66 Z M 26 44 L 27.34 44 L 25.34 41.33 L 23.67 44 L 25 44 L 25 49.66 L 23.67 49.66 L 25.34 52.33 L 27.34 49.66 L 26 49.66 Z" fill="var(--icon-secondary, #6c8ebf)" stroke="none" stroke-width="0"/></svg>