<svg xmlns="http://www.w3.org/2000/svg" viewBox="0 0 40.33 54.66" width="40.33" height="54.66"><path d="M 0 54.66 L 0 19 L 35.66 19 L 35.66 54.66 Z M 40.33 50.33 L 40.33 14.66 L 35.66 19 L 35.66 54.66 Z M 6.66 0 L 0 4.66 L 35.66 4.66 L 40.33 0 Z M 0 19 L 0 4.66 L 35.66 4.66 L 35.66 19 Z M 40.33 14.66 L 40.33 0 L 35.66 4.66 L 35.66 19 Z" fill="var(--icon-primary, #dae8fc)" stroke="var(--icon-secondary, #6c8ebf)" stroke-width="1" stroke-linejoin="round"/><path d="M 40.33 14.66 L 35.66 19 L 0 19" fill="none" stroke="var(--icon-secondary, #6c8ebf)" stroke-width="1" stroke-linejoin="round"/><path d="M 11.66 9.66 L 11.66 6.66 L 6 6.66 L 6 9.66 Z M 24.66 9.66 L 24.66 6.66 L 30.66 6.66 L 30.66 9.66 Z M 11.66 17 L 11.66 14 L 6 14 L 6 17 L 11.66 17 Z M 24.66 17 L 24.66 14 L 30.66 14 L 30.66 17 L 24.66 17 Z" fill="var(--icon-secondary, #6c8ebf)" stroke="none" stroke-width="0"/><path d="M 27.66 15.66 L 27.66 15.66 M 9.66 8 L 27.66 8 M 9.66 15.66 L 27.66 15.66 M 8.66 15.66 L 27.66 8 M 8.66 8 L 27.66 15.66" fill="none" stroke="var(--icon-secondary, #6c8ebf)" stroke-width="0.67" stroke-linejoin="round"/><path d="M 9.66 27 L 9.66 24 L 10.33 24 L 9.66 23 L 8.66 24 L 9.33 24 L 9.33 27 Z M 8.33 27.66 L 6 25.33 L 6.33 25 L 5 24.66 L 5.33 26 L 5.66 25.66 L 8 28 Z M 7.33 29 L 4.33 29 L 4.33 28.66 L 3 29.33 L 4.33 30 L 4.33 29.66 L 7.33 29.66 Z M 8 30.66 L 5.66 32.66 L 5.33 32.33 L 5 33.66 L 6.33 33.66 L 6 33 L 8.33 31 Z M 9.33 31.33 L 9.33 34.66 L 8.66 34.66 L 9.66 35.66 L 10.33 34.66 L 9.66 34.66 L 9.66 31.33 Z M 11.66 29.66 L 14.66 29.66 L 14.66 30 L 16 29.33 L 14.66 28.66 L 14.66 29 L 11.66 29 Z M 11.33 28 L 13.33 25.66 L 13.66 26 L 14 24.66 L 12.66 25 L 13 25.33 L 11 27.66 Z" fill="var(--icon-secondary, #6c8ebf)" stroke="none" stroke-width="0"/><path d="M 11.33 32 C 13 31 13.33 29 12.33 27.33 C 11.33 26 9.33 25.66 7.66 26.66 C 6.33 27.66 6 29.66 7 31 C 8 32.66 10 33 11.33 32 Z" fill="var(--icon-secondary, #6c8ebf)" stroke="none" stroke-width="0"/><path d="M 9.66 44 L 9.66 41 L 10.33 41 L 9.66 39.66 L 8.66 41 L 9.33 41 L 9.33 44 Z M 8.33 44.33 L 6 42.33 L 6.33 42 L 5 41.66 L 5.33 43 L 5.66 42.66 L 8 45 Z M 7.33 46 L 4.33 46 L 4.33 45.33 L 3 46.33 L 4.33 47 L 4.33 46.33 L 7.33 46.33 Z M 8 47.66 L 5.66 49.66 L 5.33 49.33 L 5 50.66 L 6.33 50.33 L 6 50 L 8.33 48 Z M 9.33 48.33 L 9.33 51.33 L 8.66 51.33 L 9.66 52.66 L 10.33 51.33 L 9.66 51.33 L 9.66 48.33 Z M 11 48 L 13 50 L 12.66 50.33 L 14 50.66 L 13.66 49.33 L 13.33 49.66 L 11.33 47.66 Z M 11.66 46.33 L 14.66 46.33 L 14.66 47 L 16 46.33 L 14.66 45.33 L 14.66 46 L 11.66 46 Z" fill="var(--icon-secondary, #6c8ebf)" stroke="none" stroke-width="0"/><path d="M 11.33 48.66 C 13 47.66 13.33 45.66 12.33 44.33 C 11.33 43 9.33 42.66 7.66 43.66 C 6.33 44.66 6 46.66 7 48 C 8 49.33 10 49.66 11.33 48.66 Z" fill="var(--icon-secondary, #6c8ebf)" stroke="none" stroke-width="0"/><path d="M 26.66 27 L 26.66 24 L 27.33 24 L 26.33 23 L 25.66 24 L 26.33 24 L 26.33 27 Z M 25 27.66 L 23 25.33 L 23.33 25 L 22 24.66 L 22.33 26 L 22.66 25.66 L 24.66 28 Z M 24.33 29 L 21.33 29 L 21.33 28.66 L 20 29.33 L 21.33 30 L 21.33 29.66 L 24.33 29.66 Z M 26.33 31.33 L 26.33 34.66 L 25.66 34.66 L 26.33 35.66 L 27.33 34.66 L 26.66 34.66 L 26.66 31.33 Z M 27.66 31 L 30 33 L 29.66 33.66 L 31 33.66 L 30.66 32.33 L 30.33 32.66 L 28 30.66 Z M 28.66 29.66 L 31.66 29.66 L 31.66 30 L 32.66 29.33 L 31.66 28.66 L 31.66 29 L 28.66 29 Z M 28 28 L 30.33 25.66 L 30.66 26 L 31 24.66 L 29.66 25 L 30 25.33 L 27.66 27.66 Z" fill="var(--icon-secondary, #6c8ebf)" stroke="none" stroke-width="0"/><path d="M 28.33 32 C 29.66 31 30 29 29 27.33 C 28 26 26 25.66 24.66 26.66 C 23.33 27.66 23 29.66 24 31 C 25 32.66 27 33 28.33 32 Z" fill="var(--icon-secondary, #6c8ebf)" stroke="none" stroke-width="0"/><path d="M 26.66 44 L 26.66 41 L 27.33 41 L 26.33 39.66 L 25.66 41 L 26.33 41 L 26.33 44 Z M 24.33 46 L 21.33 46 L 21.33 45.33 L 20 46.33 L 21.33 47 L 21.33 46.33 L 24.33 46.33 Z M 24.66 47.66 L 22.66 49.66 L 22.33 49.33 L 22 50.66 L 23.33 50.33 L 23 50 L 25 48 Z M 26.33 48.33 L 26.33 51.33 L 25.66 51.33 L 26.33 52.66 L 27.33 51.33 L 26.66 51.33 L 26.66 48.33 Z M 27.66 48 L 30 50 L 29.66 50.33 L 31 50.66 L 30.66 49.33 L 30.33 49.66 L 28 47.66 Z M 28.66 46.33 L 31.66 46.33 L 31.66 47 L 32.66 46.33 L 31.66 45.33 L 31.66 46 L 28.66 46 Z M 28 45 L 30.33 42.66 L 30.66 43 L 31 41.66 L 29.66 42 L 30 42.33 L 27.66 44.33 Z" fill="var(--icon-secondary, #6c8ebf)" stroke="none" stroke-width="0"/><path d="M 28.33 48.66 C 29.66 47.66 30 45.66 29 44.33 C 28 43 26 42.66 24.66 43.66 C 23.33 44.66 23 46.66 24 48 C 25 49.33 27 49.66 28.33 48.66 Z" fill="var(--icon-secondary, #6c8ebf)" stroke="none" stroke-width="0"/><path d="M 11.33 31 L 25 44.66 M 11 44.66 L 25.33 30.66" fill="none" stroke="var(--icon-secondary, #6c8ebf)" stroke-width="1.33" stroke-linejoin="round"/></svg>