<svg xmlns="http://www.w3.org/2000/svg" viewBox="0 0 49 33.33" width="49" height="33.33"><path d="M 49 9.67 C 49 15 38 19.33 24.67 19.33 C 11 19.33 0 15 0 9.67 C 0 23.67 0 23.67 0 23.67 C 0 29 11 33.33 24.67 33.33 C 38 33.33 49 29 49 23.67 Z" fill="var(--icon-primary, #dae8fc)" stroke="var(--icon-secondary, #6c8ebf)" stroke-width="1" stroke-linejoin="round"/><path d="M 24.67 19.33 C 38 19.33 49 15 49 9.67 C 49 4.33 38 0 24.67 0 C 11 0 0 4.33 0 9.67 C 0 15 11 19.33 24.67 19.33 Z" fill="var(--icon-primary, #dae8fc)" stroke="var(--icon-secondary, #6c8ebf)" stroke-width="1" stroke-linejoin="round"/><rect x="0" y="0" width="0" height="0" fill="none" stroke="var(--icon-secondary, #6c8ebf)" stroke-width="1"/><path d="M 19 6 L 21 9 L 13.34 10.67 L 15 9.33 L 3 7.33 L 6 5 L 17.67 7 Z M 29.67 13.33 L 28.34 10.33 L 35.34 8.67 L 34 10 L 45.67 12 L 42.67 14 L 31.34 12 Z M 26 4.33 L 33.67 2.33 L 33.67 5.33 L 31.67 5 L 28 8.33 L 24.34 7.67 L 28.34 4.67 Z M 22.67 16.33 L 15.34 17.67 L 15 14 L 17 14.67 L 21 11 L 24.67 11.67 L 20.34 15.67 Z" fill="var(--icon-secondary, #6c8ebf)" stroke="none" stroke-width="0"/><rect x="19" y="20.33" width="11.34" height="11.34" fill="var(--icon-secondary, #6c8ebf)" stroke="var(--icon-secondary, #6c8ebf)" stroke-width="1"/></svg>