<svg xmlns="http://www.w3.org/2000/svg" viewBox="0 0 63.67 31.67" width="63.67" height="31.67"><path d="M 47.67 31.67 L 47.67 15.67 L 0 15.67 L 0 31.67 Z M 0 15.67 L 19.34 0 L 63.67 0 L 47.67 15.67 Z M 47.67 31.67 L 63.67 14.34 L 63.67 0 L 47.67 15.67 Z" fill="var(--icon-primary, #dae8fc)" stroke="var(--icon-secondary, #6c8ebf)" stroke-width="1" stroke-linejoin="round"/><path d="M 28 11.67 L 27 12.34 L 15 12.34 L 14 13.67 L 10.67 12.34 L 17.34 10.34 L 16 11.67 Z M 37.34 6 L 36.34 6.67 L 24.34 6.67 L 23.34 7.67 L 20 6.34 L 26.67 4.67 L 25.34 6 Z M 30 9.67 L 31 9 L 43 9 L 44 7.67 L 47.34 9 L 40.67 11 L 42 9.67 Z M 36.34 3.67 L 37 3 L 49 3 L 50.34 2 L 53.34 3.34 L 47 5 L 48 3.67 Z" fill="var(--icon-secondary, #6c8ebf)" stroke="none" stroke-width="0"/><path d="M 29 29.34 L 29 18.34 L 17.67 18.34 L 17.67 29.34 Z" fill="var(--icon-secondary, #6c8ebf)" stroke="var(--icon-secondary, #6c8ebf)" stroke-width="1"/></svg>