<svg xmlns="http://www.w3.org/2000/svg" viewBox="0 0 34.66 35" width="34.66" height="35"><path d="M 28.66 35 L 28.66 5.66 L 0 5.66 L 0 35 Z" fill="var(--icon-primary, #dae8fc)" stroke="var(--icon-secondary, #6c8ebf)" stroke-width="1" stroke-linejoin="round"/><path d="M 28.66 5.66 L 0 5.66 L 7.33 0 L 34.66 0 L 34.66 0 L 34.66 29 L 28.66 35 L 28.66 6 Z M 28.66 5.66 L 34.66 0" fill="var(--icon-primary, #dae8fc)" stroke="var(--icon-secondary, #6c8ebf)" stroke-width="1" stroke-linejoin="round"/><path d="M 14.33 26.66 C 17.66 26.66 20.66 24 20.66 20.33 C 20.66 17 17.66 14.33 14.33 14.33 C 11 14.33 8.33 17 8.33 20.33 C 8.33 24 11 26.66 14.33 26.66 Z" fill="none" stroke="var(--icon-secondary, #6c8ebf)" stroke-width="1" stroke-linejoin="round"/><path d="M 14.33 14.33 L 25 14.33 M 8.33 20.33 L 8.33 9.66 M 20.66 20.33 L 20.66 31.33 M 14.66 26.66 L 3.66 26.66" fill="none" stroke="var(--icon-secondary, #6c8ebf)" stroke-width="1" stroke-linejoin="round"/><path d="M 23.33 11 L 23.33 17.33 L 27.33 14.33 Z M 5 11.66 L 11.33 11.66 L 8.33 7.66 Z M 24 29.33 L 17.33 29.33 L 20.66 33 Z M 5.66 29.66 L 5.66 23.33 L 1.66 26.33 Z" fill="var(--icon-secondary, #6c8ebf)" stroke="none" stroke-width="0"/></svg>