<svg xmlns="http://www.w3.org/2000/svg" viewBox="0 0 34.66 35.34" width="34.66" height="35.34"><path d="M 28.66 35.34 L 28.66 6 L 0 6 L 0 35.34 Z M 28.66 6 L 0 6 L 7.33 0 L 34.66 0 L 34.66 0 L 34.66 29.34 L 28.66 35.34 Z" fill="var(--icon-primary, #dae8fc)" stroke="var(--icon-secondary, #6c8ebf)" stroke-width="1" stroke-linejoin="round"/><path d="M 28.66 6 L 34.66 0" fill="none" stroke="var(--icon-secondary, #6c8ebf)" stroke-width="1" stroke-linejoin="round"/><path d="M 25 29.34 L 18.66 29.34 L 10 12 L 4.33 12 M 4 29.34 L 10 29.34 L 18.66 12 L 25 12" fill="none" stroke="var(--icon-secondary, #6c8ebf)" stroke-width="2" stroke-linejoin="round"/><path d="M 23 9 L 23 15 L 26.66 12 Z M 23 26 L 23 32.34 L 26.66 29.34 Z M 5.33 15.34 L 5.33 9 L 1.66 12 Z M 5.33 32.34 L 5.33 26.34 L 1.66 29.34 Z" fill="var(--icon-secondary, #6c8ebf)" stroke="none" stroke-width="0"/><rect x="0" y="0" width="0" height="0" fill="none" stroke="var(--icon-secondary, #6c8ebf)" stroke-width="1"/><path d="M 20 26 L 20 14.67 L 9 14.67 L 9 26 Z" fill="var(--icon-primary, #dae8fc)" stroke="var(--icon-secondary, #6c8ebf)" stroke-width="1"/></svg>