<svg xmlns="http://www.w3.org/2000/svg" viewBox="0 0 40.67 37.33" width="40.67" height="37.33"><path d="M 0 37.33 L 10 32.66 L 40.67 32.66 L 30.67 37.33 Z" fill="var(--icon-primary, #dae8fc)" stroke="var(--icon-secondary, #6c8ebf)" stroke-width="1" stroke-linejoin="round"/><path d="M 0 4.66 L 10 0 L 10 32.66 L 0 37.33 Z" fill="var(--icon-primary, #dae8fc)" stroke="var(--icon-secondary, #6c8ebf)" stroke-width="1" stroke-linejoin="round"/><path d="M 10 0 L 40.67 0 L 40.67 32.66 L 10 32.66 Z" fill="var(--icon-primary, #dae8fc)" stroke="var(--icon-secondary, #6c8ebf)" stroke-width="1" stroke-linejoin="round"/><path d="M 0 4.66 L 10 0 L 40.67 0 L 30.67 4.66 Z" fill="var(--icon-primary, #dae8fc)" stroke="var(--icon-secondary, #6c8ebf)" stroke-width="1" stroke-linejoin="round"/><path d="M 5.34 9.33 C 6.34 9.33 7.34 11 7.34 13.66 C 7.34 15.66 6.34 17.66 5.34 17.66 C 4.34 17.66 3.67 15.66 3.67 13.66 C 3.67 11 4.34 9.33 5.34 9.33" fill="var(--icon-primary, #dae8fc)" stroke="var(--icon-secondary, #6c8ebf)" stroke-width="1" stroke-linejoin="round"/><path d="M 5.34 9.33 L 30.67 9.33 L 30.67 17.66 L 5.34 17.66 Z" fill="var(--icon-primary, #dae8fc)" stroke="none" stroke-width="0"/><path d="M 5.34 21.33 C 6.34 21.33 7.34 23 7.34 25.66 C 7.34 28 6.34 29.66 5.34 29.66 C 4.34 29.66 3.67 28 3.67 25.66 C 3.67 23 4.34 21.33 5.34 21.33" fill="var(--icon-primary, #dae8fc)" stroke="var(--icon-secondary, #6c8ebf)" stroke-width="1" stroke-linejoin="round"/><path d="M 5.34 21.33 L 30.67 21.33 L 30.67 29.66 L 5.34 29.66 Z" fill="var(--icon-primary, #dae8fc)" stroke="none" stroke-width="0"/><path d="M 5.34 9.33 L 31.34 9.33 M 5.34 17.66 L 31.34 17.66 M 5.34 21.33 L 31.34 21.33 M 5.34 29.66 L 31.34 29.66" fill="none" stroke="var(--icon-secondary, #6c8ebf)" stroke-width="1" stroke-linejoin="round"/><path d="M 6.67 13.66 L 22.67 13.66 M 29 25.66 L 13.34 25.66" fill="none" stroke="var(--icon-secondary, #6c8ebf)" stroke-width="1" stroke-linejoin="round"/><path d="M 22.34 15.66 L 29 13.66 L 22.34 11.66 Z M 13.67 23.66 L 7 25.66 L 13.67 27.66" fill="var(--icon-secondary, #6c8ebf)" stroke="none" stroke-width="0"/><path d="M 30.67 4.66 L 40.67 0 L 40.67 32.66 L 30.67 37.33 Z" fill="var(--icon-primary, #dae8fc)" stroke="var(--icon-secondary, #6c8ebf)" stroke-width="1" stroke-linejoin="round"/><path d="M 36 9.33 C 37 9.33 38 11 38 13.66 C 38 15.66 37 17.66 36 17.66 C 35 17.66 34.34 15.66 34.34 13.66 C 34.34 11 35 9.33 36 9.33" fill="none" stroke="var(--icon-secondary, #6c8ebf)" stroke-width="1" stroke-linejoin="round"/><path d="M 36 21.33 C 37 21.33 38 23 38 25.66 C 38 28 37 29.66 36 29.66 C 35 29.66 34.34 28 34.34 25.66 C 34.34 23 35 21.33 36 21.33" fill="none" stroke="var(--icon-secondary, #6c8ebf)" stroke-width="1" stroke-linejoin="round"/></svg>