<svg xmlns="http://www.w3.org/2000/svg" viewBox="0 0 57.67 30.34" width="57.67" height="30.34"><path d="M 0 30.34 L 0 9 L 47.67 9 L 47.67 30.34 Z M 47.67 9 L 0 9 L 12 0 L 57.67 0 Z M 57.67 0 L 57.67 20.67 L 47.67 30.34 L 47.67 9 Z" fill="var(--icon-primary, #dae8fc)" stroke="var(--icon-secondary, #6c8ebf)" stroke-width="1" stroke-linejoin="round"/><rect x="0" y="0" width="0" height="0" fill="none" stroke="var(--icon-secondary, #6c8ebf)" stroke-width="1"/><path d="M 25.33 17.34 C 27 17.34 27 17.34 27 17.34 C 27.33 17.67 27.33 17.67 27.33 17.67 C 28.67 17.67 28.67 17.67 28.67 17.67 C 30 16.67 30 16.67 30 16.67 C 31.33 16.67 31.33 16.67 31.33 16.67 C 32.67 18 32.67 18 32.67 18 C 34 18 34 18 34 18 C 35.67 16.67 35.67 16.67 35.67 16.67 C 37 16.67 37 16.67 37 16.67 C 38 17.67 38 17.67 38 17.67 C 39.33 17.67 39.33 17.67 39.33 17.67 C 40 16.67 40 16.67 40 16.67 C 43.67 19 43.67 19 43.67 19 C 41 21.34 41 21.34 41 21.34 C 25.33 21.34 25.33 21.34 25.33 21.34 C 25.33 22 25.33 22 25.33 22 C 23 22 23 22 23 22 C 22.33 22 21.67 22.34 21.33 22.67 C 20.33 24.67 18.33 26 16 26 C 12.33 26 9.33 23 9.33 19.34 C 9.33 15.67 12.33 12.67 16 12.67 C 18.33 12.67 20.33 13.67 21.33 15.67 C 21.67 16.34 22.33 16.67 23 16.67 C 25.33 16.67 25.33 16.67 25.33 16.67 C 25.33 17.34 25.33 17.34 25.33 17.34" fill="var(--icon-secondary, #6c8ebf)" stroke="var(--icon-secondary, #6c8ebf)" stroke-width="1"/><path d="M 42.33 20.34 C 25.33 20.34 25.33 20.34 25.33 20.34 C 24.67 20.34 23.67 20.34 23 21 C 23.67 21.34 24.67 21.34 25.33 21.34" fill="none" stroke="var(--icon-secondary, #6c8ebf)" stroke-width="1"/><path d="M 43 18.67 C 26 18.67 26 18.67 26 18.67 C 25.33 18.67 23.67 18.67 23.33 18.34" fill="none" stroke="var(--icon-secondary, #6c8ebf)" stroke-width="1"/><path d="M 16 25 C 19.33 25 21.67 22.34 21.67 19.34 C 21.67 16 19.33 13.34 16 13.34 C 12.67 13.34 10 16 10 19.34 C 10 22.67 12.67 25 16 25 Z" fill="none" stroke="var(--icon-secondary, #6c8ebf)" stroke-width="1"/><path d="M 12.67 20.67 C 13.33 20.67 14 20 14 19.34 C 14 18.34 13.33 17.67 12.67 17.67 C 11.67 17.67 11 18.34 11 19.34 C 11 20 11.67 20.67 12.67 20.67 Z" fill="none" stroke="var(--icon-secondary, #6c8ebf)" stroke-width="1"/></svg>