<svg xmlns="http://www.w3.org/2000/svg" viewBox="0 0 40.33 54.67" width="40.33" height="54.67"><path d="M 0 54.67 L 0 19 L 35.66 19 L 35.66 54.67 Z M 40.33 50.34 L 40.33 14.34 L 35.66 19 L 35.66 54.67 Z M 6.66 0 L 0 4.34 L 35.66 4.34 L 40.33 0 Z M 0 19 L 0 4.34 L 35.66 4.34 L 35.66 19 Z M 40.33 14.34 L 40.33 0 L 35.66 4.34 L 35.66 19 Z" fill="var(--icon-primary, #dae8fc)" stroke="var(--icon-secondary, #6c8ebf)" stroke-width="1" stroke-linejoin="round"/><path d="M 8.66 8 L 8.66 8 M 27.66 8 L 27.66 8 M 8.66 15.34 L 8.66 15.34" fill="none" stroke="var(--icon-secondary, #6c8ebf)" stroke-width="1"/><path d="M 11.66 9.34 L 11.66 6.34 L 6 6.34 L 6 9.34 Z M 24.66 9.34 L 24.66 6.34 L 30.66 6.34 L 30.66 9.34 Z M 11.66 17 L 11.66 14 L 6 14 L 6 17 Z M 24.66 17 L 24.66 14 L 30.66 14 L 30.66 17 Z" fill="var(--icon-secondary, #6c8ebf)" stroke="none" stroke-width="0"/><path d="M 27.66 15.34 L 27.66 15.34 M 9.66 8 L 27.33 8 M 9.66 15.34 L 27.33 15.34 M 8.66 15.34 L 27.33 8 M 8.66 8 L 27.33 15.34" fill="none" stroke="var(--icon-secondary, #6c8ebf)" stroke-width="0.67"/><path d="M 11.33 35 L 11.33 32 L 11.66 32 L 11 31 L 10.33 32 L 10.66 32 L 10.66 35 Z M 9.66 35.34 L 7.66 33.34 L 8 33 L 6.66 32.67 L 7 34 L 7.33 33.67 L 9.33 35.67 Z M 9 36.67 L 6 36.67 L 6 36.34 L 4.66 37 L 6 37.67 L 6 37.34 L 9 37.34 Z M 9.33 38.34 L 7.33 40.34 L 7 40 L 6.66 41.34 L 8 41.34 L 7.66 40.67 L 9.66 38.67 Z M 10.66 39 L 10.66 42 L 10.33 42 L 11 43.34 L 11.66 42 L 11.33 42 L 11.33 39 Z M 12.66 35.67 L 14.66 33.67 L 15 34 L 15.33 32.67 L 14 33 L 14.33 33.34 L 12.33 35.34 Z" fill="var(--icon-secondary, #6c8ebf)" stroke="none" stroke-width="0"/><path d="M 13 39.67 C 14.33 38.67 14.66 36.67 13.66 35.34 C 12.66 33.67 10.66 33.34 9.33 34.34 C 8 35.34 7.66 37.34 8.33 38.67 C 9.33 40.34 11.33 40.67 13 39.67 Z" fill="var(--icon-secondary, #6c8ebf)" stroke="none" stroke-width="0"/><path d="M 12.66 38.67 L 14.66 40.67 L 14.33 41.34 L 15.66 41.34 L 15.33 40 L 15 40.34 L 13 38.34 Z M 24.66 35 L 24.66 32 L 24 32 L 24.66 31 L 25.66 32 L 25 32 L 25 35 Z M 26 35.34 L 28.33 33.34 L 27.66 33 L 29 32.67 L 29 34 L 28.66 33.67 L 26.33 35.67 Z M 26.66 36.67 L 30 36.67 L 30 36.34 L 31 37 L 30 37.67 L 30 37.34 L 26.66 37.34 Z M 26.33 38.34 L 28.66 40.34 L 29 40 L 29 41.34 L 27.66 41.34 L 28.33 40.67 L 26 38.67 Z M 25 39 L 25 42 L 25.66 42 L 24.66 43.34 L 24 42 L 24.66 42 L 24.66 39 Z M 23 35.67 L 21 33.67 L 20.66 34 L 20.33 32.67 L 21.66 33 L 21.33 33.34 L 23.33 35.34 Z" fill="var(--icon-secondary, #6c8ebf)" stroke="none" stroke-width="0"/><path d="M 23 39.67 C 21.66 38.67 21 36.67 22 35.34 C 23 33.67 25 33.34 26.33 34.34 C 28 35.34 28.33 37.34 27.33 38.67 C 26.33 40.34 24.33 40.67 23 39.67 Z" fill="var(--icon-secondary, #6c8ebf)" stroke="none" stroke-width="0"/><path d="M 23.33 38.67 L 21 40.67 L 21.33 41.34 L 20 41.34 L 20.33 40 L 20.66 40.34 L 23 38.34 Z" fill="var(--icon-secondary, #6c8ebf)" stroke="none" stroke-width="0"/><path d="M 12.66 37 L 23 37" fill="none" stroke="var(--icon-secondary, #6c8ebf)" stroke-width="1.33"/><path d="M 18.66 37 C 18.66 39.34 18.33 41 17.66 41 C 17.33 41 17 39.34 17 37 C 17 35 17.33 33 17.66 33 C 18.33 33 18.66 35 18.66 37 Z" fill="none" stroke="var(--icon-secondary, #6c8ebf)" stroke-width="0.67"/><path d="M 32 48 L 3.33 48 L 3.33 25.67 L 32 25.67 Z" fill="none" stroke="var(--icon-secondary, #6c8ebf)" stroke-width="0.67" stroke-dasharray="4 2"/></svg>