<svg xmlns="http://www.w3.org/2000/svg" viewBox="0 0 56.66 40.67" width="56.66" height="40.67"><path d="M 0 40.67 L 51 40.67 L 51 7.33 L 0 7.33 Z M 56.66 32 L 51 40.67 L 51 7.33 L 56.66 0 Z M 8.66 0 L 56.66 0 L 51 7.33 L 0 7.33 Z" fill="var(--icon-primary, #dae8fc)" stroke="var(--icon-secondary, #6c8ebf)" stroke-width="1" stroke-linejoin="round"/><rect x="0" y="0" width="0" height="0" fill="none" stroke="var(--icon-secondary, #6c8ebf)" stroke-width="1"/><path d="M 41.66 23.67 L 47.33 23.67 L 47.33 25 L 41.66 25 L 41.66 27 L 36.66 24.33 L 41.66 21.33 Z M 45 24.67 L 39.33 24.67 L 39.33 23.33 L 45 23.33 L 45 21.33 L 50 24 L 45 27 Z M 34.66 24 L 20 17.33 L 20 31 L 34.66 24 Z M 12.66 24.33 L 12.66 26.33 L 17.33 23.67 L 12.66 21.33 L 12.66 23.33 Z M 5.66 24.33 L 13.33 24.33 L 13.33 23.33 L 5.66 23.33 L 5.66 21.33 L 1.33 23.67 L 5.66 26.33 Z M 13.66 18 L 12.66 19.67 L 17.66 20 L 15.33 15.67 L 14.33 17 Z M 8 14 L 14.33 18.33 L 15 17.33 L 8.66 13 L 9.66 11.33 L 4.66 11 L 7 15.67 L 8 14 Z M 13.66 29.67 L 12.66 28.33 L 17.66 27.67 L 15.33 32.33 L 14.33 30.67 Z M 8 33.67 L 14.33 29.33 L 15 30.33 L 8.66 34.67 L 9.66 36.33 L 4.66 36.67 L 7 32.33 L 8 33.67 Z" fill="var(--icon-secondary, #6c8ebf)" stroke="none" stroke-width="0"/></svg>