<svg xmlns="http://www.w3.org/2000/svg" viewBox="0 0 48 31.34" width="48" height="31.34"><path d="M 48 9.34 L 48 22 L 36.33 31.34 L 12.33 31.34 L 0 22 L 0 9.34 Z" fill="var(--icon-primary, #dae8fc)" stroke="var(--icon-secondary, #6c8ebf)" stroke-width="1" stroke-linejoin="round"/><path d="M 36 0 L 12.33 0 L 0 9.34 L 12.33 18.67 L 36.33 18.67 L 48 9.34 Z" fill="var(--icon-primary, #dae8fc)" stroke="var(--icon-secondary, #6c8ebf)" stroke-width="1" stroke-linejoin="round"/><rect x="0" y="0" width="0" height="0" fill="none" stroke="var(--icon-secondary, #6c8ebf)" stroke-width="1"/><path d="M 19.33 5.67 L 21.33 8.67 L 14.33 10 L 15.67 9 L 6.67 7 L 9.67 5 L 18 6.67 Z M 29.33 12.34 L 28 9.67 L 34.33 8.34 L 33 9.34 L 42.33 11 L 40 13 L 30.67 11.34 Z M 26.33 3.67 L 33.33 1.67 L 33.33 4.67 L 31.67 4.34 L 28.33 7.34 L 25 6.67 L 28.33 4 Z M 22 15.67 L 15.33 17 L 15 13.67 L 17 14.34 L 20.67 11 L 24 11.67 L 20 15 Z" fill="var(--icon-secondary, #6c8ebf)" stroke="none" stroke-width="0"/><path d="M 12.33 31.33 L 12.33 18.67 M 36.33 31.33 L 36.33 18.67" fill="none" stroke="var(--icon-secondary, #6c8ebf)" stroke-width="1"/></svg>