<svg xmlns="http://www.w3.org/2000/svg" viewBox="0 0 39.33 40.67" width="39.33" height="40.67"><path d="M 5 33 L 5.33 27 L 34.33 27 L 34.33 33 Z M 33.66 40.67 L 33.66 39 L 37.33 33.67 L 37.33 37 Z M 33.66 39 L 33.66 40.67 L 0 40.67 L 0 39 Z M 5.33 5 L 34.33 5 L 34.33 27 L 5.33 27 Z M 34.33 27 L 39.33 22 L 39.33 0 L 34.33 5 Z M 33.66 39 L 0 39 L 4 33.67 L 37.33 33.67 Z M 34.33 33 L 34.33 27 L 39.33 22 L 39.33 28.67 Z" fill="var(--icon-primary, #dae8fc)" stroke="var(--icon-secondary, #6c8ebf)" stroke-width="1" stroke-linejoin="round"/><path d="M 10 7.33 C 29.33 7.33 29.33 7.33 29.33 7.33 C 30.66 7.33 31.66 8.67 31.66 9.67 C 31.66 22 31.66 22 31.66 22 C 31.66 23.33 30.66 24.33 29.33 24.33 C 10 24.33 10 24.33 10 24.33 C 8.66 24.33 7.66 23.33 7.66 22 C 7.66 9.67 7.66 9.67 7.66 9.67 C 7.66 8.67 8.66 7.33 10 7.33 Z" fill="var(--icon-secondary, #6c8ebf)" stroke="none" stroke-width="0"/><rect x="0" y="0" width="0" height="0" fill="none" stroke="var(--icon-secondary, #6c8ebf)" stroke-width="1"/><path d="M 39.33 0 L 11 0 L 5.33 5 L 34.33 5 L 39.33 0 Z" fill="var(--icon-primary, #dae8fc)" stroke="var(--icon-secondary, #6c8ebf)" stroke-width="1" stroke-linejoin="round"/><path d="M 16.33 11.33 C 12.66 10.67 11 12.67 11.33 14 C 11.33 14.33 11.33 14.33 11.33 14.33 C 8.33 14.67 9.33 18 10.66 18 C 10.66 18 10.66 18 10.66 18 C 10.33 20.33 13.66 21.67 15.33 20.33 C 15.33 20 15.33 20 15.33 20 C 16 22.33 23.33 22.33 24.66 21 C 24.66 21 24.66 21 24.66 21 C 28 21 29.33 19 28.66 17.33 C 28.66 17.33 28.66 17.33 28.66 17.33 C 30 17 30 14.67 28 14.33 C 28.33 14 28.33 14 28.33 14 C 29 12.67 27 11 24.66 11.33 C 24.33 11.33 24.33 11.33 24.33 11.33 C 22.33 9.67 17 9.67 16.33 11.33 Z" fill="var(--icon-primary, #dae8fc)" stroke="none" stroke-width="0"/></svg>