<svg xmlns="http://www.w3.org/2000/svg" viewBox="0 0 116.33 66.67" width="116.33" height="66.67"><path d="M 42.67 10.34 C 23.33 6.67 13.33 16.34 14.67 25 C 15 25.34 15 25.34 15 25.34 C 0 28 4 45.67 11 45.67 C 11.67 45.34 11.67 45.34 11.67 45.34 C 10 53.67 27.33 62.34 37.33 58 C 37.67 57.34 37.67 57.34 37.67 57.34 C 41.33 64.67 53.67 66 66 66.34 C 76.33 66.67 82.67 65.67 87 61 C 88 61.34 88 61.34 88 61.34 C 104.67 62.67 112.67 51 108.67 42.67 C 109.67 42.34 109.67 42.34 109.67 42.34 C 115.67 40.67 116.33 27.34 106.33 25.67 C 106.33 25 106.33 25 106.33 25 C 110.67 16.34 100.67 8 86.67 9.67 C 85.67 9.34 85.67 9.34 85.67 9.34 C 75.33 0 46.33 1.67 43 10.67 Z" fill="var(--icon-secondary, #6c8ebf)" stroke="var(--icon-secondary, #6c8ebf)" stroke-width="1"/><path d="M 72.67 49 L 70 52.34 L 48.67 52.34 L 52.33 49 Z" fill="var(--icon-primary, #dae8fc)" stroke="var(--icon-secondary, #6c8ebf)" stroke-width="1" stroke-linejoin="round"/><path d="M 48.67 56.34 L 48.67 52.34 L 69.33 52.34 L 69.33 56.34 Z" fill="var(--icon-primary, #dae8fc)" stroke="var(--icon-secondary, #6c8ebf)" stroke-width="1" stroke-linejoin="round"/><path d="M 68.67 61.34 L 68.67 60 L 71.33 56.34 L 71.33 58.67 Z" fill="var(--icon-primary, #dae8fc)" stroke="var(--icon-secondary, #6c8ebf)" stroke-width="1" stroke-linejoin="round"/><path d="M 68.67 60 L 68.67 61.34 L 45 61.34 L 45 60 Z" fill="var(--icon-primary, #dae8fc)" stroke="var(--icon-secondary, #6c8ebf)" stroke-width="1" stroke-linejoin="round"/><path d="M 48.67 36.34 L 69 36.34 L 69 51.67 L 48.67 51.67 Z" fill="var(--icon-primary, #dae8fc)" stroke="var(--icon-secondary, #6c8ebf)" stroke-width="1" stroke-linejoin="round"/><path d="M 69 51.67 L 72.67 48 L 72.67 32.67 L 69 36.34 Z" fill="var(--icon-primary, #dae8fc)" stroke="var(--icon-secondary, #6c8ebf)" stroke-width="1" stroke-linejoin="round"/><path d="M 68.67 60 L 45 60 L 47.67 56.34 L 71.33 56.34 Z" fill="var(--icon-primary, #dae8fc)" stroke="var(--icon-secondary, #6c8ebf)" stroke-width="1" stroke-linejoin="round"/><path d="M 69 56.34 L 69 52.34 L 72.67 49 L 72.67 53 Z" fill="var(--icon-primary, #dae8fc)" stroke="var(--icon-secondary, #6c8ebf)" stroke-width="1" stroke-linejoin="round"/><path d="M 52 38 C 65.67 38 65.67 38 65.67 38 C 66.67 38 67.33 38.67 67.33 39.67 C 67.33 48.34 67.33 48.34 67.33 48.34 C 67.33 49 66.67 49.67 65.67 49.67 C 52 49.67 52 49.67 52 49.67 C 51 49.67 50.33 49 50.33 48.34 C 50.33 39.67 50.33 39.67 50.33 39.67 C 50.33 38.67 51 38 52 38 Z" fill="none" stroke="var(--icon-secondary, #6c8ebf)" stroke-width="1" stroke-linejoin="round"/><path d="M 72.67 32.67 L 52.67 32.67 L 48.67 36.34 L 69 36.34 Z" fill="var(--icon-primary, #dae8fc)" stroke="var(--icon-secondary, #6c8ebf)" stroke-width="1" stroke-linejoin="round"/><path d="M 57 40.67 C 54.67 40.34 53.33 41.67 53.67 42.67 C 53.67 42.67 53.67 42.67 53.67 42.67 C 51.67 43 52 45.34 53 45.34 C 53 45.34 53 45.34 53 45.34 C 53 47 55.33 48 56.33 47 C 56.67 47 56.67 47 56.67 47 C 57 48.34 62 48.34 63 47.34 C 63 47.34 63 47.34 63 47.34 C 65.33 47.67 66.33 46 65.67 45 C 66 45 66 45 66 45 C 66.67 44.67 66.67 43 65.33 42.67 C 65.33 42.67 65.33 42.67 65.33 42.67 C 66 41.67 64.67 40.34 63 40.67 C 62.67 40.67 62.67 40.67 62.67 40.67 C 61.33 39.34 57.67 39.67 57.33 40.67 Z" fill="var(--icon-secondary, #6c8ebf)" stroke="none" stroke-width="0"/><path d="M 103.33 31.67 L 100.67 35 L 79.33 35 L 83 31.67 Z" fill="var(--icon-primary, #dae8fc)" stroke="var(--icon-secondary, #6c8ebf)" stroke-width="1" stroke-linejoin="round"/><path d="M 79.33 39 L 79.33 35 L 100 35 L 100 39 Z" fill="var(--icon-primary, #dae8fc)" stroke="var(--icon-secondary, #6c8ebf)" stroke-width="1" stroke-linejoin="round"/><path d="M 99.33 44 L 99.33 42.67 L 102 39 L 102 41.34 Z" fill="var(--icon-primary, #dae8fc)" stroke="var(--icon-secondary, #6c8ebf)" stroke-width="1" stroke-linejoin="round"/><path d="M 99.33 42.67 L 99.33 44 L 75.67 44 L 75.67 42.67 Z" fill="var(--icon-primary, #dae8fc)" stroke="var(--icon-secondary, #6c8ebf)" stroke-width="1" stroke-linejoin="round"/><path d="M 79.33 19 L 99.67 19 L 99.67 34.34 L 79.33 34.34 Z" fill="var(--icon-primary, #dae8fc)" stroke="var(--icon-secondary, #6c8ebf)" stroke-width="1" stroke-linejoin="round"/><path d="M 99.67 34.34 L 103.33 30.67 L 103.33 15.34 L 99.67 19 Z" fill="var(--icon-primary, #dae8fc)" stroke="var(--icon-secondary, #6c8ebf)" stroke-width="1" stroke-linejoin="round"/><path d="M 99.33 42.67 L 75.67 42.67 L 78.33 39 L 102 39 Z" fill="var(--icon-primary, #dae8fc)" stroke="var(--icon-secondary, #6c8ebf)" stroke-width="1" stroke-linejoin="round"/><path d="M 99.67 39 L 99.67 35 L 103.33 31.67 L 103.33 35.67 Z" fill="var(--icon-primary, #dae8fc)" stroke="var(--icon-secondary, #6c8ebf)" stroke-width="1" stroke-linejoin="round"/><path d="M 82.67 20.67 C 96.33 20.67 96.33 20.67 96.33 20.67 C 97.33 20.67 98 21.34 98 22.34 C 98 31 98 31 98 31 C 98 31.67 97.33 32.34 96.33 32.34 C 82.67 32.34 82.67 32.34 82.67 32.34 C 81.67 32.34 81 31.67 81 31 C 81 22.34 81 22.34 81 22.34 C 81 21.34 81.67 20.67 82.67 20.67 Z" fill="var(--icon-primary, #dae8fc)" stroke="var(--icon-secondary, #6c8ebf)" stroke-width="1" stroke-linejoin="round"/><path d="M 103.33 15.34 L 83.33 15.34 L 79.33 19 L 99.67 19 Z" fill="var(--icon-primary, #dae8fc)" stroke="var(--icon-secondary, #6c8ebf)" stroke-width="1" stroke-linejoin="round"/><path d="M 87.67 23.34 C 85.33 23 84 24.34 84.33 25.34 C 84.33 25.34 84.33 25.34 84.33 25.34 C 82.33 25.67 82.67 28 83.67 28 C 83.67 28 83.67 28 83.67 28 C 83.67 29.67 86 30.67 87 29.67 C 87.33 29.67 87.33 29.67 87.33 29.67 C 87.67 31 92.67 31 93.67 30 C 93.67 30 93.67 30 93.67 30 C 96 30.34 97 28.67 96.33 27.67 C 96.67 27.67 96.67 27.67 96.67 27.67 C 97.33 27.34 97.33 25.67 96 25.34 C 96 25.34 96 25.34 96 25.34 C 96.67 24.34 95.33 23 93.67 23.34 C 93.33 23.34 93.33 23.34 93.33 23.34 C 92 22 88.33 22.34 88 23.34 Z" fill="var(--icon-secondary, #6c8ebf)" stroke="none" stroke-width="0"/><path d="M 44 30.34 L 41.33 33.67 L 20 33.67 L 23.67 30.34 Z" fill="var(--icon-primary, #dae8fc)" stroke="var(--icon-secondary, #6c8ebf)" stroke-width="1" stroke-linejoin="round"/><path d="M 20 37.67 L 20 33.67 L 40.67 33.67 L 40.67 37.67 Z" fill="var(--icon-primary, #dae8fc)" stroke="var(--icon-secondary, #6c8ebf)" stroke-width="1" stroke-linejoin="round"/><path d="M 40 42.67 L 40 41.34 L 42.67 37.67 L 42.67 40 Z" fill="var(--icon-primary, #dae8fc)" stroke="var(--icon-secondary, #6c8ebf)" stroke-width="1" stroke-linejoin="round"/><path d="M 40 41.34 L 40 42.67 L 16.33 42.67 L 16.33 41.34 Z" fill="var(--icon-primary, #dae8fc)" stroke="var(--icon-secondary, #6c8ebf)" stroke-width="1" stroke-linejoin="round"/><path d="M 20 17.67 L 40.33 17.67 L 40.33 33 L 20 33 Z" fill="var(--icon-primary, #dae8fc)" stroke="var(--icon-secondary, #6c8ebf)" stroke-width="1" stroke-linejoin="round"/><path d="M 40.33 33 L 44 29.34 L 44 14 L 40.33 17.67 Z" fill="var(--icon-primary, #dae8fc)" stroke="var(--icon-secondary, #6c8ebf)" stroke-width="1" stroke-linejoin="round"/><path d="M 40 41.34 L 16.33 41.34 L 19 37.67 L 42.67 37.67 Z" fill="var(--icon-primary, #dae8fc)" stroke="var(--icon-secondary, #6c8ebf)" stroke-width="1" stroke-linejoin="round"/><path d="M 40.33 37.67 L 40.33 33.67 L 44 30.34 L 44 34.34 Z" fill="var(--icon-primary, #dae8fc)" stroke="var(--icon-secondary, #6c8ebf)" stroke-width="1" stroke-linejoin="round"/><path d="M 23.33 19.34 C 37 19.34 37 19.34 37 19.34 C 38 19.34 38.67 20 38.67 21 C 38.67 29.67 38.67 29.67 38.67 29.67 C 38.67 30.34 38 31 37 31 C 23.33 31 23.33 31 23.33 31 C 22.33 31 21.67 30.34 21.67 29.67 C 21.67 21 21.67 21 21.67 21 C 21.67 20 22.33 19.34 23.33 19.34 Z" fill="var(--icon-primary, #dae8fc)" stroke="var(--icon-secondary, #6c8ebf)" stroke-width="1" stroke-linejoin="round"/><path d="M 44 14 L 24 14 L 20 17.67 L 40.33 17.67 L 44 14 Z" fill="var(--icon-primary, #dae8fc)" stroke="var(--icon-secondary, #6c8ebf)" stroke-width="1" stroke-linejoin="round"/><path d="M 27.67 22 C 25.33 21.67 24 23 24.33 24 C 24.33 24 24.33 24 24.33 24 C 22.33 24.34 22.67 26.67 23.67 26.67 C 23.67 26.67 23.67 26.67 23.67 26.67 C 23.67 28.34 26 29.34 27 28.34 C 27.33 28.34 27.33 28.34 27.33 28.34 C 27.67 29.67 32.67 29.67 33.67 28.67 C 33.67 28.67 33.67 28.67 33.67 28.67 C 36 29 37 27.34 36.33 26.34 C 36.67 26.34 36.67 26.34 36.67 26.34 C 37.33 26 37.33 24.34 36 24 C 36 24 36 24 36 24 C 36.67 23 35.33 21.67 33.67 22 C 33.33 22 33.33 22 33.33 22 C 32 20.67 28.33 21 28 22 Z" fill="var(--icon-secondary, #6c8ebf)" stroke="none" stroke-width="0"/><path d="M 50.33 50.67 L 37.67 42.34 M 70.67 48.67 L 78.67 43.34 M 42.33 22.67 L 80.33 22.67" fill="none" stroke="var(--icon-secondary, #6c8ebf)" stroke-width="1" stroke-linejoin="round"/></svg>