<svg xmlns="http://www.w3.org/2000/svg" viewBox="0 0 61.67 34.33" width="61.67" height="34.33"><path d="M 0 15 L 18.67 0 L 61.67 0 L 46.34 15 Z M 46.34 34.33 L 61.67 18.33 L 61.67 0 L 46.34 15 Z M 46.34 34.33 L 46.34 15 L 0 15 L 0 34.33 Z" fill="var(--icon-primary, #dae8fc)" stroke="var(--icon-secondary, #6c8ebf)" stroke-width="1" stroke-linejoin="round"/><rect x="0" y="0" width="0" height="0" fill="none" stroke="var(--icon-secondary, #6c8ebf)" stroke-width="1"/><path d="M 34 7.33 C 33.34 8 32 8.33 31 8.33 C 29.67 8.33 29.34 8 29.67 7.33 C 30.34 7 31.67 6.66 32.67 6.66 C 33.67 6.66 34.34 7 34 7.33 Z" fill="var(--icon-secondary, #6c8ebf)" stroke="none" stroke-width="0"/><path d="M 31.34 7 L 35.67 4 L 33 7 Z M 31.34 7 L 35.67 4 L 33 7 M 30.67 7.66 L 28 10.66 L 32.34 7.66 Z" fill="var(--icon-secondary, #6c8ebf)" stroke="none" stroke-width="0"/><path d="M 30.67 7.66 L 22.34 7.33 L 31.34 7 Z" fill="var(--icon-secondary, #6c8ebf)" stroke="none" stroke-width="0"/><path d="M 32 7.66 L 41 7.33 L 32.67 7 Z" fill="var(--icon-secondary, #6c8ebf)" stroke="none" stroke-width="0"/><path d="M 31.34 8 L 26.67 8.66 L 30.67 7.33 Z" fill="var(--icon-secondary, #6c8ebf)" stroke="none" stroke-width="0"/><path d="M 32.67 7.66 L 37 6 L 32 7" fill="var(--icon-secondary, #6c8ebf)" stroke="none" stroke-width="0"/><path d="M 33 7.33 L 34 9 L 31.34 8 Z" fill="var(--icon-secondary, #6c8ebf)" stroke="none" stroke-width="0"/><path d="M 32.34 7 L 29.67 6 L 30.67 7.66 Z" fill="var(--icon-secondary, #6c8ebf)" stroke="none" stroke-width="0"/><path d="M 39 6.33 C 39.34 7.66 36.34 9.33 32.34 10 C 28.34 11 24.67 10.33 24.34 9 C 23.67 7.66 26.67 6 30.67 5 C 35 4.33 38.67 5 39 6.33 Z" fill="none" stroke="var(--icon-secondary, #6c8ebf)" stroke-width="1"/></svg>