<svg xmlns="http://www.w3.org/2000/svg" viewBox="0 0 47.67 38.66" width="47.67" height="38.66"><path d="M 10.67 1.66 C 0 7.33 0 7.33 0 7.33 C 26 23.66 41 6.33 41 6.33 C 25.67 15.33 10.67 1.66 10.67 1.66 Z" fill="var(--icon-primary, #dae8fc)" stroke="var(--icon-secondary, #6c8ebf)" stroke-width="1" stroke-linejoin="round"/><path d="M 47.67 0 C 45.67 3.66 40.67 6.33 40.67 6.33 C 40.67 38.66 40.67 38.66 40.67 38.66 C 47.67 33.33 47.67 33.33 47.67 33.33 Z" fill="var(--icon-primary, #dae8fc)" stroke="var(--icon-secondary, #6c8ebf)" stroke-width="0.67" stroke-linejoin="round"/><path d="M 40.67 6.33 C 40.67 6.33 26 23.66 0 7.33 C 0 38.66 0 38.66 0 38.66 C 40.67 38.66 40.67 38.66 40.67 38.66 Z" fill="var(--icon-primary, #dae8fc)" stroke="var(--icon-secondary, #6c8ebf)" stroke-width="0.67" stroke-linejoin="round"/><path d="M 38 26 C 38 26 35.34 32.66 32 26 C 29 19.33 26.34 26 26.34 26 C 26.34 26 23.67 32.66 20.67 26 C 17.67 19.33 15 26 15 26 C 15 26 12.34 32.66 9 26 C 6 19.33 3.34 26 3.34 26" fill="none" stroke="var(--icon-secondary, #6c8ebf)" stroke-width="0.67" stroke-linecap="round" stroke-linejoin="round"/><path d="M 3.34 26 C 3.34 26 6 32.66 9.34 26 C 12.34 19.33 15 26 15 26 C 15 26 17.67 32.66 20.67 26 C 23.67 19.33 26.34 26 26.34 26 C 26.34 26 29 32.66 32 26 C 35.34 19.33 38 26 38 26" fill="none" stroke="var(--icon-secondary, #6c8ebf)" stroke-width="1.33" stroke-linecap="round" stroke-linejoin="round"/><path d="M 37.34 26 C 37.34 26 34.67 32.66 31.67 26 C 28.34 19.33 25.67 26 25.67 26 C 25.67 26 23.34 32.66 20 26 C 17 19.33 14.34 26 14.34 26 C 14.34 26 11.67 32.66 8.67 26 C 5.34 19.33 2.67 26 2.67 26" fill="none" stroke="var(--icon-secondary, #6c8ebf)" stroke-width="0.67" stroke-linecap="round" stroke-linejoin="round"/><path d="M 2.67 26 C 2.67 26 5.34 32.66 8.67 26 C 11.67 19.33 14.34 26 14.34 26 C 14.34 26 17 32.66 20 26 C 23.34 19.33 25.67 26 25.67 26 C 25.67 26 28.34 32.66 31.67 26 C 34.67 19.33 37.34 26 37.34 26" fill="none" stroke="var(--icon-secondary, #6c8ebf)" stroke-width="1.33" stroke-linecap="round" stroke-linejoin="round"/></svg>