<svg xmlns="http://www.w3.org/2000/svg" viewBox="0 0 23 42.33" width="23" height="42.33"><path d="M 1.67 0 L 23 0 L 21 2.33 L 0 2.33 Z M 0 2.33 L 21 2.33 L 21 42.33 L 0 42.33 Z M 23 0 L 23 40 L 21 42.33 L 21 2.33 Z" fill="var(--icon-primary, #dae8fc)" stroke="var(--icon-secondary, #6c8ebf)" stroke-width="1" stroke-linejoin="round"/><path d="M 16.33 40 C 18.67 40 19 37.67 19 37.67 C 19 37.67 19 14.67 19 12.67 C 19 10 16.33 10 16.33 10 C 16.33 10 6 10 4.67 10 C 3 10 2.33 12 2.33 12 C 2.33 12 2.33 35.33 2.33 37.33 C 2.33 39.33 4.33 40 4.33 40 Z" fill="none" stroke="var(--icon-secondary, #6c8ebf)" stroke-width="1" stroke-linejoin="round"/><path d="M 16.67 5 C 16.33 5 16 5.67 16 6 C 16 6.67 16.33 7.33 16.67 7.33 C 17 7.33 17.33 6.67 17.33 6 C 17.33 5.67 17 5 16.67 5 Z" fill="none" stroke="var(--icon-secondary, #6c8ebf)" stroke-width="1" stroke-linejoin="round"/><path d="M 12.33 5 C 12 5 11.67 5.67 11.67 6 C 11.67 6.67 12 7.33 12.33 7.33 C 12.67 7.33 13 6.67 13 6 C 13 5.67 12.67 5 12.33 5 Z" fill="none" stroke="var(--icon-secondary, #6c8ebf)" stroke-width="1" stroke-linejoin="round"/><path d="M 8 5 C 7.67 5 7.33 5.67 7.33 6 C 7.33 6.67 7.67 7.33 8 7.33 C 8.33 7.33 8.33 6.67 8.33 6 C 8.33 5.67 8.33 5 8 5 Z" fill="none" stroke="var(--icon-secondary, #6c8ebf)" stroke-width="1" stroke-linejoin="round"/><path d="M 3.33 5 C 3 5 2.67 5.67 2.67 6 C 2.67 6.67 3 7.33 3.33 7.33 C 3.67 7.33 4 6.67 4 6 C 4 5.67 3.67 5 3.33 5 Z" fill="none" stroke="var(--icon-secondary, #6c8ebf)" stroke-width="1" stroke-linejoin="round"/></svg>