<svg xmlns="http://www.w3.org/2000/svg" viewBox="0 0 48.33 34.33" width="48.33" height="34.33"><path d="M 45 34.33 L 45 3.33 L 0 3.33 L 0 34.33 Z M 0 3.33 L 3.33 0 L 48.33 0 L 45 3.33 Z M 45 34.33 L 48.33 31 L 48.33 0 L 45 3.33 Z" fill="var(--icon-primary, #dae8fc)" stroke="var(--icon-secondary, #6c8ebf)" stroke-width="1" stroke-linejoin="round"/><rect x="0" y="0" width="0" height="0" fill="none" stroke="var(--icon-secondary, #6c8ebf)" stroke-width="1"/><path d="M 26.33 22 C 27.33 21 27.66 19.33 27.66 17.67 C 27.66 16 27.33 14.33 26.33 13.33 C 27.66 11 27.66 11 27.66 11 C 29 12.67 29.66 15 29.33 17.67 C 29.33 20.33 29 22.67 27.66 24.33 Z" fill="var(--icon-secondary, #6c8ebf)" stroke="none" stroke-width="0"/><path d="M 33.66 23.67 C 34.66 22.33 35 20.33 35 18 C 35 16 34.66 13.67 33.66 12.33 C 35 9.67 35 9.67 35 9.67 C 36.33 12 37 15 37 18 C 37 21 36.33 24 35 26.67 Z" fill="var(--icon-secondary, #6c8ebf)" stroke="none" stroke-width="0"/><path d="M 18.33 22 C 17.66 21 17 19.33 17 17.67 C 17 16 17.66 14.33 18.33 13.33 C 17 11 17 11 17 11 C 15.66 12.67 15 15 15 17.67 C 15 20.33 15.66 22.67 17 24.33 Z" fill="var(--icon-secondary, #6c8ebf)" stroke="none" stroke-width="0"/><path d="M 11.66 23.67 C 11 22.33 10.33 20.33 10.33 18 C 10.33 16 11 13.67 11.66 12.33 C 10.33 9.67 10.33 9.67 10.33 9.67 C 9 12 8.33 15 8.33 18 C 8.33 21 9 24 10.33 26.67 Z" fill="var(--icon-secondary, #6c8ebf)" stroke="none" stroke-width="0"/><path d="M 22 18.67 L 22 29" fill="none" stroke="var(--icon-secondary, #6c8ebf)" stroke-width="1"/><path d="M 23 17.67 C 23 18.33 22.66 18.67 22 18.67 C 21.66 18.67 21.33 18.33 21.33 17.67 C 21.33 17.33 21.66 17 22 17 C 22.66 17 23 17.33 23 17.67 Z" fill="var(--icon-secondary, #6c8ebf)" stroke="none" stroke-width="0"/></svg>