<svg xmlns="http://www.w3.org/2000/svg" viewBox="0 0 49.33 48.67" width="49.33" height="48.67"><path d="M 49.33 25 C 49.33 30.34 38.33 34.67 24.66 34.67 C 11 34.67 0 30.34 0 25 C 0 39 0 39 0 39 C 0 44.34 11 48.67 24.66 48.67 C 38.33 48.67 49.33 44.34 49.33 39 Z" fill="var(--icon-primary, #dae8fc)" stroke="var(--icon-secondary, #6c8ebf)" stroke-width="1" stroke-linejoin="round"/><path d="M 40 22.34 L 40 0.67" fill="var(--icon-primary, #dae8fc)" stroke="var(--icon-secondary, #6c8ebf)" stroke-width="1" stroke-linejoin="round"/><path d="M 40 22 L 40 7" fill="var(--icon-primary, #dae8fc)" stroke="var(--icon-secondary, #6c8ebf)" stroke-width="2.67" stroke-linejoin="round"/><path d="M 40.66 2.67 L 39.33 2.67 L 39.33 0 L 40.66 0 Z" fill="var(--icon-primary, #dae8fc)" stroke="var(--icon-secondary, #6c8ebf)" stroke-width="1.33" stroke-linejoin="round"/><path d="M 7.66 22.34 L 7.66 0.67" fill="none" stroke="var(--icon-secondary, #6c8ebf)" stroke-width="0.67" stroke-linejoin="round"/><path d="M 7.66 22 L 7.66 7" fill="none" stroke="var(--icon-secondary, #6c8ebf)" stroke-width="2.67" stroke-linejoin="round"/><path d="M 8.33 2.67 L 7 2.67 L 7 0 L 8.33 0 Z" fill="var(--icon-primary, #dae8fc)" stroke="var(--icon-secondary, #6c8ebf)" stroke-width="1.33" stroke-linejoin="round"/><path d="M 24.66 34.67 C 38.33 34.67 49.33 30.34 49.33 25 C 49.33 20 38.33 15.67 24.66 15.67 C 11 15.67 0 20 0 25 C 0 30.34 11 34.67 24.66 34.67 Z" fill="var(--icon-primary, #dae8fc)" stroke="var(--icon-secondary, #6c8ebf)" stroke-width="1"/><path d="M 19 21.34 L 21 24.34 L 13.33 26.34 L 15 24.67 L 3.33 22.67 L 6.33 20.67 L 17.66 22.34 Z M 30 28.67 L 28.33 25.67 L 35.33 24.34 L 34.33 25.34 L 45.66 27.34 L 43 29.34 L 31.33 27.34 Z M 26 19.67 L 33.66 17.67 L 34 21 L 32 20.67 L 28.33 23.67 L 24.66 23.34 L 28.33 20 Z M 22.66 31.67 L 15.33 33 L 15 29.67 L 17.33 30 L 21.33 26.67 L 25 27.34 L 20.66 31 Z" fill="var(--icon-secondary, #6c8ebf)" stroke="none" stroke-width="0"/></svg>