<svg xmlns="http://www.w3.org/2000/svg" viewBox="0 0 50.67 60" width="50.67" height="60"><path d="M 0 24 L 10 16.33 L 50.67 13 L 40.34 24 Z" fill="var(--icon-primary, #dae8fc)" stroke="var(--icon-secondary, #6c8ebf)" stroke-width="1" stroke-linejoin="round"/><path d="M 40.34 60 L 50.67 49.33 L 50.67 13.33 L 40.34 24 Z" fill="var(--icon-primary, #dae8fc)" stroke="var(--icon-secondary, #6c8ebf)" stroke-width="1" stroke-linejoin="round"/><path d="M 40.34 60 L 40.34 24 L 0 24 L 0 60 Z" fill="var(--icon-primary, #dae8fc)" stroke="var(--icon-secondary, #6c8ebf)" stroke-width="1" stroke-linejoin="round"/><path d="M 0 10.67 L 13.34 0 L 50.67 0 L 40.34 10.67 Z" fill="var(--icon-primary, #dae8fc)" stroke="var(--icon-secondary, #6c8ebf)" stroke-width="1" stroke-linejoin="round"/><path d="M 40.34 24 L 50.67 13.33 L 50.67 0 L 40.34 10.67 Z" fill="var(--icon-primary, #dae8fc)" stroke="var(--icon-secondary, #6c8ebf)" stroke-width="1" stroke-linejoin="round"/><path d="M 40.34 24 L 40.34 10.67 L 0 10.67 L 0 24 Z" fill="var(--icon-primary, #dae8fc)" stroke="var(--icon-secondary, #6c8ebf)" stroke-width="1" stroke-linejoin="round"/><rect x="0" y="0" width="0" height="0" fill="none" stroke="var(--icon-secondary, #6c8ebf)" stroke-width="1"/><path d="M 37.67 17.33 C 37.67 17.33 35 24 32 17.33 C 28.67 10.67 26 17.33 26 17.33 C 26 17.33 23.34 24 20.34 17.33 C 17.34 10.67 14.67 17.33 14.67 17.33 C 14.67 17.33 12 24 9 17.33 C 5.67 10.67 3 17.33 3 17.33" fill="none" stroke="var(--icon-secondary, #6c8ebf)" stroke-width="0.67" stroke-linecap="round"/><path d="M 3 17.33 C 3 17.33 5.67 24 9 17.33 C 12 10.67 14.67 17.33 14.67 17.33 C 14.67 17.33 17.34 24 20.34 17.33 C 23.67 10.67 26 17.33 26 17.33 C 26 17.33 28.67 24 32 17.33 C 35 10.67 37.67 17.33 37.67 17.33" fill="none" stroke="var(--icon-secondary, #6c8ebf)" stroke-width="1.33" stroke-linecap="round"/><path d="M 37 17.33 C 37 17.33 34.34 24 31.34 17.33 C 28 10.67 25.34 17.33 25.34 17.33 C 25.34 17.33 23 24 19.67 17.33 C 16.67 10.67 14 17.33 14 17.33 C 14 17.33 11.34 24 8.34 17.33 C 5 10.67 2.67 17.33 2.67 17.33" fill="none" stroke="var(--icon-secondary, #6c8ebf)" stroke-width="0.67" stroke-linecap="round"/><path d="M 2.67 17.33 C 2.67 17.33 5 24 8.34 17.33 C 11.34 10.67 14 17.33 14 17.33 C 14 17.33 16.67 24 19.67 17.33 C 23 10.67 25.67 17.33 25.67 17.33 C 25.67 17.33 28 24 31.34 17.33 C 34.34 10.67 37 17.33 37 17.33" fill="none" stroke="var(--icon-secondary, #6c8ebf)" stroke-width="1.33" stroke-linecap="round"/><path d="M 21.34 36.67 L 21.34 29 L 22.67 29 L 20.67 26 L 18.67 29 L 20 29 L 20 36.67 Z M 17.34 38 L 12 32.33 L 12.67 31.33 L 9.34 30.67 L 10 34.33 L 11 33.33 L 16.34 38.67 Z M 15.34 41.33 L 7.67 41.33 L 7.67 40 L 4.67 42 L 7.67 44 L 7.67 42.67 L 15.34 42.67 Z M 16.34 45.33 L 11 50.67 L 10 50 L 9.34 53.33 L 12.67 52.67 L 12 51.67 L 17.34 46.33 Z M 20 47.33 L 20 55 L 18.67 55 L 20.67 58 L 22.67 55 L 21.34 55 L 21.34 47.33 Z M 24 46.33 L 29.34 51.67 L 28.34 52.67 L 32 53.33 L 31 50 L 30.34 50.67 L 24.67 45.33 Z M 26 42.67 L 33.67 42.67 L 33.67 44 L 36.34 42 L 33.67 40 L 33.67 41.33 L 26 41.33 Z M 24.67 38.67 L 30.34 33.33 L 31 34.33 L 32 30.67 L 28.34 31.33 L 29.34 32.33 L 24 38 Z" fill="var(--icon-secondary, #6c8ebf)" stroke="none" stroke-width="0"/><path d="M 25.34 48.67 C 29 46 29.67 41 27.34 37.33 C 24.67 33.67 19.67 33 16 35.33 C 12.34 38 11.67 43 14 46.67 C 16.67 50.33 21.67 51 25.34 48.67 Z" fill="var(--icon-secondary, #6c8ebf)" stroke="none" stroke-width="0"/><path d="M 15 6.67 L 19 6.33 L 18.34 7.33 L 17.34 7.33 L 12.67 9 L 11.34 8.67 L 16 7 Z M 33 6.67 L 29.34 6 L 29.67 7.33 L 30.67 7.33 L 34 8.67 L 35.34 8.33 L 32 7 Z M 26.67 2.67 L 24.67 2.67 L 30.67 1.33 L 33.34 3 L 31.34 3 L 31 3 L 27.67 5 L 23.34 5 L 27 2.67 Z M 23 7.67 L 21.67 7.67 L 25 6 L 25.34 7.67 L 23.67 7.67 L 24 7.67 L 22.34 9.33 L 21 9.33 L 22.67 7.67 Z" fill="var(--icon-secondary, #6c8ebf)" stroke="none" stroke-width="0"/><path d="M 14.67 6.33 L 19 6 L 18.34 7.33 L 17 7 L 12.34 9 L 11.34 8.67 L 15.67 7 Z M 33 6.33 L 29.34 6 L 29.67 7.33 L 30.67 7 L 34 8.67 L 35 8.33 L 31.67 7 Z M 26.34 2.67 L 24.67 2.67 L 30.67 1.33 L 33.34 3 L 31.34 3 L 31 3 L 27.67 5 L 23.34 5 Z M 22.67 7.67 L 21.34 7.67 L 24.67 5.67 L 25 7.67 L 23.67 7.67 L 23.67 7.67 L 22 9.33 L 21 9.33 Z" fill="var(--icon-secondary, #6c8ebf)" stroke="none" stroke-width="0"/></svg>