<svg xmlns="http://www.w3.org/2000/svg" viewBox="0 0 63.66 35.33" width="63.66" height="35.33"><path d="M 0 15.66 L 19 0 L 63.66 0 L 47.66 15.66 Z M 47.66 35.33 L 63.66 19.33 L 63.66 0 L 47.66 15.66 Z M 47.66 35.33 L 47.66 15.66 L 0 15.66 L 0 35.33 Z" fill="var(--icon-primary, #dae8fc)" stroke="var(--icon-secondary, #6c8ebf)" stroke-width="1" stroke-linejoin="round"/><rect x="0" y="0" width="0" height="0" fill="none" stroke="var(--icon-secondary, #6c8ebf)" stroke-width="1"/><path d="M 14.33 10 L 20.33 9.33 L 19.33 12 L 17.66 11 L 11 13.66 L 9.66 13.33 L 16 10.66 Z M 39.66 10 L 34.66 9.33 L 35 12 L 36.66 11 L 41.33 13.33 L 42.66 13 L 38.33 10.66 Z" fill="var(--icon-secondary, #6c8ebf)" stroke="none" stroke-width="0"/><path d="M 45.66 26 C 45.66 26 42.66 34.33 38.66 26 C 35 18 31.66 26 31.66 26 C 31.66 26 28.66 34.33 24.66 26 C 21 18 17.66 26 17.66 26 C 17.66 26 14.66 34.33 10.66 26 C 7 18 3.66 26 3.66 26" fill="none" stroke="var(--icon-secondary, #6c8ebf)" stroke-width="0.67" stroke-linecap="round"/><path d="M 3.66 26 C 3.66 26 7 34.33 10.66 26 C 14.66 18 17.66 26 17.66 26 C 17.66 26 21 34.33 24.66 26 C 28.66 18 31.66 26 31.66 26 C 31.66 26 35 34.33 38.66 26 C 42.66 18 45.66 26 45.66 26" fill="none" stroke="var(--icon-secondary, #6c8ebf)" stroke-width="1.33" stroke-linecap="round"/><path d="M 45 26 C 45 26 41.66 34.33 38 26 C 34 18 31 26 31 26 C 31 26 27.66 34.33 24 26 C 20.33 18 17 26 17 26 C 17 26 14 34.33 10 26 C 6.33 18 3 26 3 26" fill="none" stroke="var(--icon-secondary, #6c8ebf)" stroke-width="0.67" stroke-linecap="round"/><path d="M 3 26 C 3 26 6.33 34.33 10 26 C 14 18 17 26 17 26 C 17 26 20.33 34.33 24 26 C 28 18 31 26 31 26 C 31 26 34 34.33 38 26 C 41.66 18 45 26 45 26" fill="none" stroke="var(--icon-secondary, #6c8ebf)" stroke-width="1.33" stroke-linecap="round"/><path d="M 30.66 4 L 28.33 3.66 L 36.66 1.66 L 40.33 4.33 L 37.66 4.33 L 37 4.33 L 32.33 7.66 L 26.33 7.66 L 31.33 4 Z M 25.66 11.66 L 23.66 11.66 L 28.33 8.66 L 28.66 11.66 L 27 11.66 L 27 11.66 L 24.66 14.33 L 23 14.33 L 25.33 11.66 Z" fill="var(--icon-secondary, #6c8ebf)" stroke="none" stroke-width="0"/></svg>