<svg xmlns="http://www.w3.org/2000/svg" viewBox="0 0 52.67 39.34" width="52.67" height="39.34"><path d="M 43 33.67 C 43.67 33 40.67 32 44 31.67 C 46 31.34 52.67 27.34 37.33 27.34" fill="none" stroke="var(--icon-secondary, #6c8ebf)" stroke-width="1"/><path d="M 8.33 32.67 L 8.33 29 L 33 29 L 33 32.67 Z M 33 32.67 L 33 29 L 37.67 24 L 37.67 27.67 Z M 8.33 33.34 L 8.33 29 L 33 29 L 33 33.34 Z M 33 33.34 L 33 29 L 37.67 24 L 37.67 28.34 Z M 39.67 23.34 L 36 28.34 L 5.67 28.34 L 10.33 23.34 Z M 5.67 30 L 5.67 28.34 L 34.67 28.34 L 34.67 30 Z" fill="var(--icon-primary, #dae8fc)" stroke="var(--icon-secondary, #6c8ebf)" stroke-width="1" stroke-linejoin="round"/><path d="M 39.67 23.34 L 36 28.34 L 5.67 28.34 L 10.33 23.34 Z" fill="var(--icon-primary, #dae8fc)" stroke="var(--icon-secondary, #6c8ebf)" stroke-width="1" stroke-linejoin="round"/><path d="M 5.67 30 L 5.67 28.34 L 34.67 28.34 L 34.67 30 Z" fill="var(--icon-primary, #dae8fc)" stroke="var(--icon-secondary, #6c8ebf)" stroke-width="1" stroke-linejoin="round"/><path d="M 34.67 30 L 34.67 28.34 L 39.67 23.34 L 39.67 25 Z M 39.67 0 L 13.33 0 L 5.67 2 L 36 2 Z M 34.67 26 L 33.33 25 L 8.67 25 L 10 26 Z M 35 26 L 33.33 24.67 L 39.67 21.34 L 35.67 25.34 Z" fill="var(--icon-primary, #dae8fc)" stroke="var(--icon-secondary, #6c8ebf)" stroke-width="1" stroke-linejoin="round"/><path d="M 36 2 L 36 24.67 L 39.67 21.34 L 39.67 0 L 36 2 Z" fill="var(--icon-primary, #dae8fc)" stroke="var(--icon-secondary, #6c8ebf)" stroke-width="1" stroke-linejoin="round"/><path d="M 36 25 L 36 2 L 5.67 2 L 5.67 25 Z M 33.67 39.34 L 33.67 37.34 L 37.33 32 L 37.33 35.34 Z M 33.67 37.34 L 33.67 39.34 L 0 39.34 L 0 37.34 Z M 43 37.67 L 45.33 33.34 L 40.33 33.34 L 38 37.67 Z M 38 37.67 L 43 37.67 L 43 39.34 L 38 39.34 Z M 43 39.34 L 43 37.67 L 45.33 33.34 L 45.33 36.34 Z M 33.67 37.34 L 0 37.34 L 4 32 L 37.33 32 Z" fill="var(--icon-primary, #dae8fc)" stroke="var(--icon-secondary, #6c8ebf)" stroke-width="1" stroke-linejoin="round"/><path d="M 10 4.34 C 31.33 4.34 31.33 4.34 31.33 4.34 C 33 4.34 34 5.34 34 6.67 C 34 20.34 34 20.34 34 20.34 C 34 21.67 33 23 31.33 23 C 10 23 10 23 10 23 C 8.67 23 7.67 21.67 7.67 20.34 C 7.67 6.67 7.67 6.67 7.67 6.67 C 7.67 5.34 8.67 4.34 10 4.34 Z" fill="none" stroke="var(--icon-secondary, #6c8ebf)" stroke-width="1" stroke-linejoin="round"/></svg>