<svg xmlns="http://www.w3.org/2000/svg" viewBox="0 0 63.67 31.66" width="63.67" height="31.66"><path d="M 48 31.66 L 48 15.66 L 0 15.66 L 0 31.66 Z M 0 15.66 L 19.33 0 L 63.67 0 L 47.67 15.66 Z M 48 31.66 L 63.67 14.33 L 63.67 0 L 48 15.66 Z" fill="var(--icon-primary, #dae8fc)" stroke="var(--icon-secondary, #6c8ebf)" stroke-width="1" stroke-linejoin="round"/><rect x="0" y="0" width="0" height="0" fill="none" stroke="var(--icon-secondary, #6c8ebf)" stroke-width="1"/><path d="M 28 11.66 L 27 12.33 L 15.33 12.33 L 14 13.66 L 10.67 12.33 L 17.33 10.33 L 16 11.66 Z M 37.33 5.66 L 36.33 6.66 L 24.67 6.66 L 23.33 7.66 L 20 6.33 L 26.67 4.66 L 25.33 5.66 Z M 30 9.66 L 31 9 L 43 9 L 44 7.66 L 47.33 9 L 41 11 L 42 9.66 Z M 36.33 3.66 L 37.33 3 L 49 3 L 50.33 1.66 L 53.67 3.33 L 47 5 L 48.33 3.66 Z" fill="var(--icon-secondary, #6c8ebf)" stroke="none" stroke-width="0"/></svg>