<svg xmlns="http://www.w3.org/2000/svg" viewBox="0 0 41.34 42.33" width="41.34" height="42.33"><path d="M 41.34 24.33 L 37.34 29.33 L 5.67 29.33 L 10.67 24 Z" fill="var(--icon-primary, #dae8fc)" stroke="var(--icon-secondary, #6c8ebf)" stroke-width="1" stroke-linejoin="round"/><path d="M 5.67 35 L 5.67 29.33 L 36 29.33 L 36 35 Z" fill="var(--icon-primary, #dae8fc)" stroke="var(--icon-secondary, #6c8ebf)" stroke-width="1" stroke-linejoin="round"/><path d="M 5.34 5.33 L 36 5.33 L 36 28 L 5.34 28 Z" fill="var(--icon-primary, #dae8fc)" stroke="var(--icon-secondary, #6c8ebf)" stroke-width="1" stroke-linejoin="round"/><path d="M 36 28 L 41.34 23 L 41.34 0 L 36 5.33 Z" fill="var(--icon-primary, #dae8fc)" stroke="var(--icon-secondary, #6c8ebf)" stroke-width="1" stroke-linejoin="round"/><path d="M 36 35 L 36 29.33 L 41.34 24.33 L 41.34 30 L 36 35 Z" fill="var(--icon-primary, #dae8fc)" stroke="var(--icon-secondary, #6c8ebf)" stroke-width="0.67" stroke-linejoin="round"/><path d="M 10.34 7.66 C 30.67 7.66 30.67 7.66 30.67 7.66 C 32 7.66 33.34 9 33.34 10.33 C 33.34 23 33.34 23 33.34 23 C 33.34 24.33 32 25.33 30.67 25.33 C 10.34 25.33 10.34 25.33 10.34 25.33 C 9 25.33 8 24.33 8 23 C 8 10.33 8 10.33 8 10.33 C 8 9 9 7.66 10.34 7.66 Z" fill="none" stroke="var(--icon-secondary, #6c8ebf)" stroke-width="0.67" stroke-linejoin="round"/><path d="M 41.34 0 L 11.34 0 L 5.34 5.33 L 36 5.33 Z M 35 42.33 L 35 40.66 L 39 35 L 39 38.66 Z M 35 40.66 L 0 40.66 L 4 35 L 39 35 Z M 35 40.66 L 35 42.33 L 0 42.33 L 0 40.66 Z" fill="var(--icon-primary, #dae8fc)" stroke="var(--icon-secondary, #6c8ebf)" stroke-width="0.67" stroke-linejoin="round"/><path d="M 17.67 11.66 C 14 11 12 13 12.34 14.33 C 12.34 14.66 12.34 14.66 12.34 14.66 C 9.67 15 10.34 18.33 11.67 18.33 C 11.67 18.33 11.67 18.33 11.67 18.33 C 11.34 20.66 14.67 22 16.67 20.66 C 16.67 20.33 16.67 20.33 16.67 20.33 C 17 22.66 24.34 22.66 25.67 21.33 C 26 21.33 26 21.33 26 21.33 C 29 21.33 30.34 19.33 29.67 17.66 C 30 17.66 30 17.66 30 17.66 C 31 17.33 31 15 29.34 14.66 C 29.34 14.33 29.34 14.33 29.34 14.33 C 30 13 28.34 11.33 25.67 11.66 C 25.34 11.66 25.34 11.66 25.34 11.66 C 23.67 10 18.34 10 17.67 11.66 Z" fill="var(--icon-primary, #dae8fc)" stroke="var(--icon-secondary, #6c8ebf)" stroke-width="0.67" stroke-linejoin="round"/></svg>