<svg xmlns="http://www.w3.org/2000/svg" viewBox="0 0 58 100" width="58" height="100"><rect x="3" y="10" width="28" height="28" rx="5.001" ry="5.001" fill="var(--icon-primary, #dae8fc)" stroke="var(--icon-secondary, #6c8ebf)" stroke-width="2"/><ellipse cx="17" cy="24" rx="10" ry="10" fill="#ffffff" stroke="none" stroke-width="0"/><rect x="0" y="0" width="0" height="0" fill="none" stroke="var(--icon-secondary, #6c8ebf)" stroke-width="2"/><path d="M 17 0 L 17 10" fill="var(--icon-primary, #dae8fc)" stroke="var(--icon-secondary, #6c8ebf)" stroke-width="2"/><path d="M 0 75 A 25 30 0 0 0 23 100 L 48 100 A 20 20 0 0 0 58 85 L 58 40 A 5 5 0 1 0 48 40 L 48 55 L 46 55 L 46 40 A 5 5 0 1 0 36 40 L 36 55 L 34 55 L 34 40 A 5 5 0 1 0 24 40 L 24 55 L 22 55 L 22 25 A 5 5 0 1 0 12 25 L 12 75 L 10 75 L 10 55 A 5 5 0 1 0 0 55 L 0 75 Z" fill="var(--icon-primary, #dae8fc)" stroke="var(--icon-secondary, #6c8ebf)" stroke-width="2"/></svg>