<svg xmlns="http://www.w3.org/2000/svg" viewBox="0 0 87 100" width="87" height="100"><path d="M 0 100 L 0 26 L 7 26 L 7 20 L 12 20 L 12 14 L 16 14 L 19 0 L 22 14 L 26 14 L 26 20 L 31 20 L 31 26 L 38 26 L 38 100 Z M 49 100 L 49 64 L 61 64 L 61 41 L 87 41 L 87 100 Z" fill="var(--icon-primary, #dae8fc)" stroke="var(--icon-secondary, #6c8ebf)" stroke-width="2"/><rect x="77" y="45" width="6" height="4" fill="#ffffff" stroke="none" stroke-width="0"/><rect x="77" y="52.5" width="6" height="4" fill="#ffffff" stroke="none" stroke-width="0"/><rect x="77" y="60" width="6" height="4" fill="#ffffff" stroke="none" stroke-width="0"/><rect x="77" y="67.5" width="6" height="4" fill="#ffffff" stroke="none" stroke-width="0"/><rect x="77" y="75" width="6" height="4" fill="#ffffff" stroke="none" stroke-width="0"/><rect x="77" y="82.5" width="6" height="4" fill="#ffffff" stroke="none" stroke-width="0"/><rect x="77" y="90" width="6" height="4" fill="#ffffff" stroke="none" stroke-width="0"/><rect x="65" y="45" width="6" height="4" fill="#ffffff" stroke="none" stroke-width="0"/><rect x="65" y="52.5" width="6" height="4" fill="#ffffff" stroke="none" stroke-width="0"/><rect x="65" y="60" width="6" height="4" fill="#ffffff" stroke="none" stroke-width="0"/><rect x="65" y="67.5" width="6" height="4" fill="#ffffff" stroke="none" stroke-width="0"/><rect x="65" y="75" width="6" height="4" fill="#ffffff" stroke="none" stroke-width="0"/><rect x="65" y="82.5" width="6" height="4" fill="#ffffff" stroke="none" stroke-width="0"/><rect x="65" y="90" width="6" height="4" fill="#ffffff" stroke="none" stroke-width="0"/><rect x="53" y="67.5" width="6" height="4" fill="#ffffff" stroke="none" stroke-width="0"/><rect x="53" y="75" width="6" height="4" fill="#ffffff" stroke="none" stroke-width="0"/><rect x="53" y="82.5" width="6" height="4" fill="#ffffff" stroke="none" stroke-width="0"/><rect x="53" y="90" width="6" height="4" fill="#ffffff" stroke="none" stroke-width="0"/><rect x="28" y="30" width="6" height="4" fill="#ffffff" stroke="none" stroke-width="0"/><rect x="28" y="37.5" width="6" height="4" fill="#ffffff" stroke="none" stroke-width="0"/><rect x="28" y="45" width="6" height="4" fill="#ffffff" stroke="none" stroke-width="0"/><rect x="28" y="52.5" width="6" height="4" fill="#ffffff" stroke="none" stroke-width="0"/><rect x="28" y="60" width="6" height="4" fill="#ffffff" stroke="none" stroke-width="0"/><rect x="28" y="67.5" width="6" height="4" fill="#ffffff" stroke="none" stroke-width="0"/><rect x="28" y="75" width="6" height="4" fill="#ffffff" stroke="none" stroke-width="0"/><rect x="28" y="82.5" width="6" height="4" fill="#ffffff" stroke="none" stroke-width="0"/><rect x="16" y="30" width="6" height="4" fill="#ffffff" stroke="none" stroke-width="0"/><rect x="16" y="37.5" width="6" height="4" fill="#ffffff" stroke="none" stroke-width="0"/><rect x="16" y="45" width="6" height="4" fill="#ffffff" stroke="none" stroke-width="0"/><rect x="16" y="52.5" width="6" height="4" fill="#ffffff" stroke="none" stroke-width="0"/><rect x="16" y="60" width="6" height="4" fill="#ffffff" stroke="none" stroke-width="0"/><rect x="16" y="67.5" width="6" height="4" fill="#ffffff" stroke="none" stroke-width="0"/><rect x="16" y="75" width="6" height="4" fill="#ffffff" stroke="none" stroke-width="0"/><rect x="16" y="82.5" width="6" height="4" fill="#ffffff" stroke="none" stroke-width="0"/><rect x="4" y="30" width="6" height="4" fill="#ffffff" stroke="none" stroke-width="0"/><rect x="4" y="37.5" width="6" height="4" fill="#ffffff" stroke="none" stroke-width="0"/><rect x="4" y="45" width="6" height="4" fill="#ffffff" stroke="none" stroke-width="0"/><rect x="4" y="52.5" width="6" height="4" fill="#ffffff" stroke="none" stroke-width="0"/><rect x="4" y="60" width="6" height="4" fill="#ffffff" stroke="none" stroke-width="0"/><rect x="4" y="67.5" width="6" height="4" fill="#ffffff" stroke="none" stroke-width="0"/><rect x="4" y="75" width="6" height="4" fill="#ffffff" stroke="none" stroke-width="0"/><rect x="4" y="82.5" width="6" height="4" fill="#ffffff" stroke="none" stroke-width="0"/><rect x="16" y="90" width="6" height="9" fill="#ffffff" stroke="none" stroke-width="0"/><rect x="4" y="90" width="6" height="4" fill="#ffffff" stroke="none" stroke-width="0"/><rect x="28" y="90" width="6" height="4" fill="#ffffff" stroke="none" stroke-width="0"/><rect x="0" y="0" width="0" height="0" fill="none" stroke="var(--icon-secondary, #6c8ebf)" stroke-width="2"/><path d="M 70 41 L 74 37 L 78 41" fill="none" stroke="var(--icon-secondary, #6c8ebf)" stroke-width="2"/><path d="M 72 33 A 4 4 0 0 0 78 37 Z" fill="var(--icon-primary, #dae8fc)" stroke="var(--icon-secondary, #6c8ebf)" stroke-width="2"/></svg>