<svg xmlns="http://www.w3.org/2000/svg" viewBox="0 0 96.5 71.66" width="96.5" height="71.66"><path d="M 0 35.66 L 0 71.66 L 5 71.66 A 5 5 0 0 0 10 66.66 L 10 56.66 L 35 56.66 L 45 41.66 L 75 61.66 L 81.8 51.66 L 73 55.66 L 20 20.36 L 17.8 23.46 L 40.2 38.46 L 32 50.66 L 10 50.66 L 10 40.66 A 5 5 0 0 0 5 35.66 Z M 18.7 13.46 L 73.3 50.26 L 93 41.66 L 33 1.66 A 5 5 0 0 0 26 2.66 Z M 90.5 47.66 L 80.9 62.46 L 86.8 66.36 L 96.5 51.66 Z" fill="var(--icon-primary, #dae8fc)" stroke="var(--icon-secondary, #6c8ebf)" stroke-width="2"/></svg>