<svg xmlns="http://www.w3.org/2000/svg" viewBox="0 0 82 85" width="82" height="85"><path d="M 0 85 L 0 10 L 19 0 L 38 10 L 38 85 Z M 44 85 L 44 10 L 63 0 L 82 10 L 82 85 Z" fill="var(--icon-primary, #dae8fc)" stroke="var(--icon-secondary, #6c8ebf)" stroke-width="2"/><rect x="28" y="15" width="6" height="4" fill="#ffffff" stroke="none" stroke-width="0"/><rect x="28" y="22.5" width="6" height="4" fill="#ffffff" stroke="none" stroke-width="0"/><rect x="28" y="30" width="6" height="4" fill="#ffffff" stroke="none" stroke-width="0"/><rect x="28" y="37.5" width="6" height="4" fill="#ffffff" stroke="none" stroke-width="0"/><rect x="28" y="45" width="6" height="4" fill="#ffffff" stroke="none" stroke-width="0"/><rect x="28" y="52.5" width="6" height="4" fill="#ffffff" stroke="none" stroke-width="0"/><rect x="28" y="60" width="6" height="4" fill="#ffffff" stroke="none" stroke-width="0"/><rect x="28" y="67.5" width="6" height="4" fill="#ffffff" stroke="none" stroke-width="0"/><rect x="16" y="15" width="6" height="4" fill="#ffffff" stroke="none" stroke-width="0"/><rect x="16" y="22.5" width="6" height="4" fill="#ffffff" stroke="none" stroke-width="0"/><rect x="16" y="30" width="6" height="4" fill="#ffffff" stroke="none" stroke-width="0"/><rect x="16" y="37.5" width="6" height="4" fill="#ffffff" stroke="none" stroke-width="0"/><rect x="16" y="45" width="6" height="4" fill="#ffffff" stroke="none" stroke-width="0"/><rect x="16" y="52.5" width="6" height="4" fill="#ffffff" stroke="none" stroke-width="0"/><rect x="16" y="60" width="6" height="4" fill="#ffffff" stroke="none" stroke-width="0"/><rect x="16" y="67.5" width="6" height="4" fill="#ffffff" stroke="none" stroke-width="0"/><rect x="4" y="15" width="6" height="4" fill="#ffffff" stroke="none" stroke-width="0"/><rect x="4" y="22.5" width="6" height="4" fill="#ffffff" stroke="none" stroke-width="0"/><rect x="4" y="30" width="6" height="4" fill="#ffffff" stroke="none" stroke-width="0"/><rect x="4" y="37.5" width="6" height="4" fill="#ffffff" stroke="none" stroke-width="0"/><rect x="4" y="45" width="6" height="4" fill="#ffffff" stroke="none" stroke-width="0"/><rect x="4" y="52.5" width="6" height="4" fill="#ffffff" stroke="none" stroke-width="0"/><rect x="4" y="60" width="6" height="4" fill="#ffffff" stroke="none" stroke-width="0"/><rect x="4" y="67.5" width="6" height="4" fill="#ffffff" stroke="none" stroke-width="0"/><rect x="16" y="75" width="6" height="9" fill="#ffffff" stroke="none" stroke-width="0"/><rect x="4" y="75" width="6" height="4" fill="#ffffff" stroke="none" stroke-width="0"/><rect x="28" y="75" width="6" height="4" fill="#ffffff" stroke="none" stroke-width="0"/><rect x="72" y="15" width="6" height="4" fill="#ffffff" stroke="none" stroke-width="0"/><rect x="72" y="22.5" width="6" height="4" fill="#ffffff" stroke="none" stroke-width="0"/><rect x="72" y="30" width="6" height="4" fill="#ffffff" stroke="none" stroke-width="0"/><rect x="72" y="37.5" width="6" height="4" fill="#ffffff" stroke="none" stroke-width="0"/><rect x="72" y="45" width="6" height="4" fill="#ffffff" stroke="none" stroke-width="0"/><rect x="72" y="52.5" width="6" height="4" fill="#ffffff" stroke="none" stroke-width="0"/><rect x="72" y="60" width="6" height="4" fill="#ffffff" stroke="none" stroke-width="0"/><rect x="72" y="67.5" width="6" height="4" fill="#ffffff" stroke="none" stroke-width="0"/><rect x="60" y="15" width="6" height="4" fill="#ffffff" stroke="none" stroke-width="0"/><rect x="60" y="22.5" width="6" height="4" fill="#ffffff" stroke="none" stroke-width="0"/><rect x="60" y="30" width="6" height="4" fill="#ffffff" stroke="none" stroke-width="0"/><rect x="60" y="37.5" width="6" height="4" fill="#ffffff" stroke="none" stroke-width="0"/><rect x="60" y="45" width="6" height="4" fill="#ffffff" stroke="none" stroke-width="0"/><rect x="60" y="52.5" width="6" height="4" fill="#ffffff" stroke="none" stroke-width="0"/><rect x="60" y="60" width="6" height="4" fill="#ffffff" stroke="none" stroke-width="0"/><rect x="60" y="67.5" width="6" height="4" fill="#ffffff" stroke="none" stroke-width="0"/><rect x="48" y="15" width="6" height="4" fill="#ffffff" stroke="none" stroke-width="0"/><rect x="48" y="22.5" width="6" height="4" fill="#ffffff" stroke="none" stroke-width="0"/><rect x="48" y="30" width="6" height="4" fill="#ffffff" stroke="none" stroke-width="0"/><rect x="48" y="37.5" width="6" height="4" fill="#ffffff" stroke="none" stroke-width="0"/><rect x="48" y="45" width="6" height="4" fill="#ffffff" stroke="none" stroke-width="0"/><rect x="48" y="52.5" width="6" height="4" fill="#ffffff" stroke="none" stroke-width="0"/><rect x="48" y="60" width="6" height="4" fill="#ffffff" stroke="none" stroke-width="0"/><rect x="48" y="67.5" width="6" height="4" fill="#ffffff" stroke="none" stroke-width="0"/><rect x="60" y="75" width="6" height="9" fill="#ffffff" stroke="none" stroke-width="0"/><rect x="48" y="75" width="6" height="4" fill="#ffffff" stroke="none" stroke-width="0"/><rect x="72" y="75" width="6" height="4" fill="#ffffff" stroke="none" stroke-width="0"/></svg>