<svg xmlns="http://www.w3.org/2000/svg" viewBox="0 0 100 100" width="100" height="100"><path d="M 20 94 A 4 4 0 0 1 16 90 L 16 46.5 L 0 36 L 0 33 L 16 42 L 16 30 L 5 23 L 5 20 L 16 26 L 16 18 L 33 18 L 37 20.5 L 45 20.5 L 45 6 L 65 0 L 65 11 L 84 4 L 84 2 L 97 2 L 97 5 L 100 8 L 100 90 A 4 4 0 0 1 96 94 Z" fill="var(--icon-primary, #dae8fc)" stroke="var(--icon-secondary, #6c8ebf)" stroke-width="2"/><ellipse cx="92" cy="97" rx="3" ry="3" fill="var(--icon-primary, #dae8fc)" stroke="var(--icon-secondary, #6c8ebf)" stroke-width="2"/><ellipse cx="22" cy="97" rx="3" ry="3" fill="var(--icon-primary, #dae8fc)" stroke="var(--icon-secondary, #6c8ebf)" stroke-width="2"/><path d="M 45 94 L 45 20.5 M 45 25 L 37 20.5 M 45 25 L 82 25 M 45 54 L 100 54 M 45 64 L 100 64 M 63 54 L 63 64 M 45 74 L 100 74 M 45 84 L 100 84 M 82 29 L 82 17 L 100 17 M 45 29 L 100 29 M 16 25 L 16 50" fill="none" stroke="var(--icon-secondary, #6c8ebf)" stroke-width="2"/><rect x="53" y="15" width="24" height="7" fill="none" stroke="var(--icon-secondary, #6c8ebf)" stroke-width="2"/><rect x="66" y="87" width="10" height="3" fill="#ffffff" stroke="none" stroke-width="0"/><rect x="66" y="77" width="10" height="3" fill="#ffffff" stroke="none" stroke-width="0"/><rect x="66" y="67" width="10" height="3" fill="#ffffff" stroke="none" stroke-width="0"/><rect x="66" y="57" width="10" height="3" fill="#ffffff" stroke="none" stroke-width="0"/><rect x="55" y="17" width="12" height="3" fill="#ffffff" stroke="none" stroke-width="0"/></svg>