<svg xmlns="http://www.w3.org/2000/svg" viewBox="0 0 87 100" width="87" height="100"><rect x="0" y="20" width="60" height="80" rx="4.998" ry="4.998" fill="var(--icon-primary, #dae8fc)" stroke="var(--icon-secondary, #6c8ebf)" stroke-width="2"/><rect x="78" y="54" width="8" height="7" fill="var(--icon-primary, #dae8fc)" stroke="var(--icon-secondary, #6c8ebf)" stroke-width="2"/><rect x="80" y="55" width="1" height="3" fill="#ffffff" stroke="none" stroke-width="0"/><rect x="83" y="55" width="1" height="3" fill="#ffffff" stroke="none" stroke-width="0"/><rect x="35" y="92" width="20" height="4" rx="2" ry="2" fill="#ffffff" stroke="none" stroke-width="0"/><rect x="0" y="0" width="0" height="0" fill="none" stroke="var(--icon-secondary, #6c8ebf)" stroke-width="2"/><path d="M 35 19 L 35 14 L 34 14 L 33 11 L 32 11 L 32 6 A 2 2 0 0 1 34 4 L 78 4 A 2 2 0 0 1 80 6 L 80 44 L 79 44 L 78 46 L 77 46 L 77 53 L 87 53 L 87 46 L 86 46 L 85 44 L 84 44 L 84 6 A 6 6 0 0 0 78 0 L 34 0 A 6 6 0 0 0 28 6 L 28 11 L 27 11 L 26 14 L 25 14 L 25 19 Z" fill="var(--icon-primary, #dae8fc)" stroke="var(--icon-secondary, #6c8ebf)" stroke-width="2"/></svg>