<svg xmlns="http://www.w3.org/2000/svg" viewBox="0 0 100 100" width="100" height="100"><rect x="0" y="0" width="10.5" height="8" fill="var(--icon-primary, #dae8fc)" stroke="var(--icon-secondary, #6c8ebf)" stroke-width="2"/><rect x="13.3" y="0" width="23" height="8" fill="var(--icon-primary, #dae8fc)" stroke="var(--icon-secondary, #6c8ebf)" stroke-width="2"/><rect x="38.5" y="0" width="23" height="8" fill="var(--icon-primary, #dae8fc)" stroke="var(--icon-secondary, #6c8ebf)" stroke-width="2"/><rect x="64.3" y="0" width="23" height="8" fill="var(--icon-primary, #dae8fc)" stroke="var(--icon-secondary, #6c8ebf)" stroke-width="2"/><rect x="89.5" y="0" width="10.5" height="8" fill="var(--icon-primary, #dae8fc)" stroke="var(--icon-secondary, #6c8ebf)" stroke-width="2"/><rect x="0" y="10.25" width="23" height="8" fill="var(--icon-primary, #dae8fc)" stroke="var(--icon-secondary, #6c8ebf)" stroke-width="2"/><rect x="25.7" y="10.25" width="23" height="8" fill="var(--icon-primary, #dae8fc)" stroke="var(--icon-secondary, #6c8ebf)" stroke-width="2"/><rect x="51.4" y="10.25" width="23" height="8" fill="var(--icon-primary, #dae8fc)" stroke="var(--icon-secondary, #6c8ebf)" stroke-width="2"/><rect x="77" y="10.25" width="23" height="8" fill="var(--icon-primary, #dae8fc)" stroke="var(--icon-secondary, #6c8ebf)" stroke-width="2"/><rect x="0" y="20.5" width="10.5" height="8" fill="var(--icon-primary, #dae8fc)" stroke="var(--icon-secondary, #6c8ebf)" stroke-width="2"/><rect x="13.3" y="20.5" width="23" height="8" fill="var(--icon-primary, #dae8fc)" stroke="var(--icon-secondary, #6c8ebf)" stroke-width="2"/><rect x="38.5" y="20.5" width="23" height="8" fill="var(--icon-primary, #dae8fc)" stroke="var(--icon-secondary, #6c8ebf)" stroke-width="2"/><rect x="64.3" y="20.5" width="23" height="8" fill="var(--icon-primary, #dae8fc)" stroke="var(--icon-secondary, #6c8ebf)" stroke-width="2"/><rect x="89.5" y="20.5" width="10.5" height="8" fill="var(--icon-primary, #dae8fc)" stroke="var(--icon-secondary, #6c8ebf)" stroke-width="2"/><rect x="0" y="30.75" width="23" height="8" fill="var(--icon-primary, #dae8fc)" stroke="var(--icon-secondary, #6c8ebf)" stroke-width="2"/><rect x="25.7" y="30.75" width="23" height="8" fill="var(--icon-primary, #dae8fc)" stroke="var(--icon-secondary, #6c8ebf)" stroke-width="2"/><rect x="51.4" y="30.75" width="23" height="8" fill="var(--icon-primary, #dae8fc)" stroke="var(--icon-secondary, #6c8ebf)" stroke-width="2"/><rect x="77" y="30.75" width="23" height="8" fill="var(--icon-primary, #dae8fc)" stroke="var(--icon-secondary, #6c8ebf)" stroke-width="2"/><rect x="0" y="41" width="10.5" height="8" fill="var(--icon-primary, #dae8fc)" stroke="var(--icon-secondary, #6c8ebf)" stroke-width="2"/><rect x="13.3" y="41" width="23" height="8" fill="var(--icon-primary, #dae8fc)" stroke="var(--icon-secondary, #6c8ebf)" stroke-width="2"/><rect x="39" y="41" width="23" height="8" fill="var(--icon-primary, #dae8fc)" stroke="var(--icon-secondary, #6c8ebf)" stroke-width="2"/><rect x="64.3" y="41" width="23" height="8" fill="var(--icon-primary, #dae8fc)" stroke="var(--icon-secondary, #6c8ebf)" stroke-width="2"/><rect x="89.5" y="41" width="10.5" height="8" fill="var(--icon-primary, #dae8fc)" stroke="var(--icon-secondary, #6c8ebf)" stroke-width="2"/><rect x="0" y="51.5" width="23" height="8" fill="var(--icon-primary, #dae8fc)" stroke="var(--icon-secondary, #6c8ebf)" stroke-width="2"/><rect x="25.7" y="51.5" width="23" height="8" fill="var(--icon-primary, #dae8fc)" stroke="var(--icon-secondary, #6c8ebf)" stroke-width="2"/><rect x="51.4" y="51.5" width="23" height="8" fill="var(--icon-primary, #dae8fc)" stroke="var(--icon-secondary, #6c8ebf)" stroke-width="2"/><rect x="77" y="51.5" width="23" height="8" fill="var(--icon-primary, #dae8fc)" stroke="var(--icon-secondary, #6c8ebf)" stroke-width="2"/><rect x="0" y="61.75" width="10.5" height="8" fill="var(--icon-primary, #dae8fc)" stroke="var(--icon-secondary, #6c8ebf)" stroke-width="2"/><rect x="13.3" y="61.75" width="23" height="8" fill="var(--icon-primary, #dae8fc)" stroke="var(--icon-secondary, #6c8ebf)" stroke-width="2"/><rect x="39" y="61.75" width="23" height="8" fill="var(--icon-primary, #dae8fc)" stroke="var(--icon-secondary, #6c8ebf)" stroke-width="2"/><rect x="64.3" y="61.75" width="23" height="8" fill="var(--icon-primary, #dae8fc)" stroke="var(--icon-secondary, #6c8ebf)" stroke-width="2"/><rect x="89.5" y="61.75" width="10.5" height="8" fill="var(--icon-primary, #dae8fc)" stroke="var(--icon-secondary, #6c8ebf)" stroke-width="2"/><rect x="0" y="72" width="23" height="8" fill="var(--icon-primary, #dae8fc)" stroke="var(--icon-secondary, #6c8ebf)" stroke-width="2"/><rect x="25.7" y="72" width="23" height="8" fill="var(--icon-primary, #dae8fc)" stroke="var(--icon-secondary, #6c8ebf)" stroke-width="2"/><rect x="51.4" y="72" width="23" height="8" fill="var(--icon-primary, #dae8fc)" stroke="var(--icon-secondary, #6c8ebf)" stroke-width="2"/><rect x="77" y="72" width="23" height="8" fill="var(--icon-primary, #dae8fc)" stroke="var(--icon-secondary, #6c8ebf)" stroke-width="2"/><rect x="0" y="82" width="10.5" height="8" fill="var(--icon-primary, #dae8fc)" stroke="var(--icon-secondary, #6c8ebf)" stroke-width="2"/><rect x="13.3" y="82" width="23" height="8" fill="var(--icon-primary, #dae8fc)" stroke="var(--icon-secondary, #6c8ebf)" stroke-width="2"/><rect x="38.5" y="82" width="23" height="8" fill="var(--icon-primary, #dae8fc)" stroke="var(--icon-secondary, #6c8ebf)" stroke-width="2"/><rect x="64.3" y="82" width="23" height="8" fill="var(--icon-primary, #dae8fc)" stroke="var(--icon-secondary, #6c8ebf)" stroke-width="2"/><rect x="89.5" y="82" width="10.5" height="8" fill="var(--icon-primary, #dae8fc)" stroke="var(--icon-secondary, #6c8ebf)" stroke-width="2"/><rect x="0" y="92" width="23" height="8" fill="var(--icon-primary, #dae8fc)" stroke="var(--icon-secondary, #6c8ebf)" stroke-width="2"/><rect x="25.7" y="92" width="23" height="8" fill="var(--icon-primary, #dae8fc)" stroke="var(--icon-secondary, #6c8ebf)" stroke-width="2"/><rect x="51.4" y="92" width="23" height="8" fill="var(--icon-primary, #dae8fc)" stroke="var(--icon-secondary, #6c8ebf)" stroke-width="2"/><rect x="77" y="92" width="23" height="8" fill="var(--icon-primary, #dae8fc)" stroke="var(--icon-secondary, #6c8ebf)" stroke-width="2"/><path d="M 43.4 81.6 A 30 30 0 0 1 47.9 69.4 A 30 30 0 0 0 49.9 65.7 A 5 5 0 0 0 50.4 61.7 A 6 6 0 0 1 52.2 66.2 A 20 20 0 0 0 53.4 76.2 A 15 15 0 0 0 58.9 82.1 A 25 25 0 0 0 72.1 74.4 A 15 15 0 0 0 75.1 60.2 A 65 65 0 0 0 68.3 46.3 A 15 15 0 0 1 65.7 38.2 A 5 5 0 0 1 68 35.2 A 7 7 0 0 0 63.4 36.8 A 15 15 0 0 0 59 46.7 A 15 15 0 0 1 58.6 37.8 A 17 17 0 0 0 57.3 26.1 A 25 25 0 0 0 52.9 21 A 15 15 0 0 1 49.4 17 A 15 15 0 0 0 49.9 22.7 A 12 12 0 0 1 48.7 31.4 A 50 50 0 0 1 45.4 36.2 A 20 20 0 0 0 42.2 44.6 A 30 30 0 0 0 39.2 34.7 A 20 20 0 0 0 32.8 27.2 A 20 20 0 0 1 34.2 36.4 A 35 35 0 0 1 32.2 44.2 A 50 50 0 0 0 27.6 59.8 A 20 20 0 0 0 32.4 74.5 A 22 22 0 0 0 43.4 81.6 Z" fill="#ffffff" stroke="var(--icon-secondary, #6c8ebf)" stroke-width="2"/></svg>