<svg xmlns="http://www.w3.org/2000/svg" viewBox="0 0 100.2 71.13" width="100.2" height="71.13"><path d="M 23 2.82 A 12 12 0 0 1 35.5 2.16 L 43.34 5.16 A 20 20 0 0 0 57.34 5.36 L 64.5 2.16 A 13 13 0 0 1 77.34 2.49 A 30 30 0 0 1 89.17 14.99 A 80 80 0 0 1 97.67 35.16 A 60 60 0 0 1 100 52.99 A 30 30 0 0 1 97.34 66.66 A 8 8 0 0 1 87.34 69.49 A 40 40 0 0 1 77.5 63.56 A 0 0 0 1 0 64 53.82 A 30 30 0 0 0 50 49.96 A 30 30 0 0 0 35.34 53.86 A 50 50 0 0 0 26.84 60.66 A 50 50 0 0 1 17.37 68.46 A 20 20 0 0 1 8.17 70.36 A 8 10 0 0 1 1.17 61.16 A 50 50 0 0 1 1.5 41.66 A 80 80 0 0 1 8.67 19.82 A 35 35 0 0 1 23 2.82 Z M 29.17 12.56 A 14 14 0 0 0 15.37 26.66 A 14 14 0 0 0 29.17 39.96 A 14 14 0 0 0 42.87 26.66 A 14 14 0 0 0 29.17 12.56 Z M 29.17 18.96 A 7.5 7.5 0 0 1 36.67 26.66 A 7.5 7.5 0 0 1 29.17 33.96 A 7.5 7.5 0 0 1 21.57 26.66 A 7.5 7.5 0 0 1 29.17 18.96 Z M 71.37 20.46 A 3 3 0 0 0 74.47 23.46 A 3 3 0 0 0 77.67 20.46 A 3 3 0 0 0 74.47 17.16 A 3 3 0 0 0 71.37 20.46 Z M 65.07 26.46 A 3 3 0 0 0 62.07 29.46 A 3 3 0 0 0 65.07 32.66 A 3 3 0 0 0 68.47 29.46 A 3 3 0 0 0 65.07 26.46 Z M 74.47 35.26 A 3 3 0 0 0 71.57 38.46 A 3 3 0 0 0 74.47 41.46 A 3 3 0 0 0 77.47 38.46 A 3 3 0 0 0 74.47 35.26 Z M 83.57 26.16 A 3 3 0 0 0 80.47 29.46 A 3 3 0 0 0 83.57 32.56 A 3 3 0 0 0 86.67 29.46 A 3 3 0 0 0 83.57 26.16 Z" fill="var(--icon-primary, #dae8fc)" stroke="var(--icon-secondary, #6c8ebf)" stroke-width="2"/></svg>