<svg xmlns="http://www.w3.org/2000/svg" viewBox="0 0 103 107" width="103" height="107"><rect x="0" y="85" width="90" height="15" rx="1.999" ry="1.999" fill="var(--icon-primary, #dae8fc)" stroke="var(--icon-secondary, #6c8ebf)" stroke-width="2"/><rect x="0" y="67.5" width="90" height="15" rx="1.999" ry="1.999" fill="var(--icon-primary, #dae8fc)" stroke="var(--icon-secondary, #6c8ebf)" stroke-width="2"/><rect x="0" y="50" width="90" height="15" rx="1.999" ry="1.999" fill="var(--icon-primary, #dae8fc)" stroke="var(--icon-secondary, #6c8ebf)" stroke-width="2"/><rect x="0" y="32.5" width="90" height="15" rx="1.999" ry="1.999" fill="var(--icon-primary, #dae8fc)" stroke="var(--icon-secondary, #6c8ebf)" stroke-width="2"/><rect x="0" y="15" width="90" height="15" rx="1.999" ry="1.999" fill="var(--icon-primary, #dae8fc)" stroke="var(--icon-secondary, #6c8ebf)" stroke-width="2"/><path d="M 4 13 L 25 0 L 65 0 L 86 13 Z" fill="var(--icon-primary, #dae8fc)" stroke="var(--icon-secondary, #6c8ebf)" stroke-width="2"/><ellipse cx="82" cy="92.5" rx="4" ry="4" fill="#ffffff" stroke="none" stroke-width="0"/><ellipse cx="81.67" cy="75" rx="4" ry="4" fill="#ffffff" stroke="none" stroke-width="0"/><ellipse cx="82" cy="57.5" rx="4" ry="4" fill="#ffffff" stroke="none" stroke-width="0"/><ellipse cx="82" cy="40" rx="4" ry="4" fill="#ffffff" stroke="none" stroke-width="0"/><ellipse cx="82" cy="22.5" rx="4" ry="4" fill="#ffffff" stroke="none" stroke-width="0"/><path d="M 5 98 L 10 87 L 15 87 L 10 98 Z M 15 98 L 20 87 L 25 87 L 20 98 Z M 25 98 L 30 87 L 35 87 L 30 98 Z M 35 98 L 40 87 L 45 87 L 40 98 Z M 45 98 L 50 87 L 55 87 L 50 98 Z M 55 98 L 60 87 L 65 87 L 60 98 Z M 5 80.5 L 10 69.5 L 15 69.5 L 10 80.5 Z M 15 80.5 L 20 69.5 L 25 69.5 L 20 80.5 Z M 25 80.5 L 30 69.5 L 35 69.5 L 30 80.5 Z M 35 80.5 L 40 69.5 L 45 69.5 L 40 80.5 Z M 45 80.5 L 50 69.5 L 55 69.5 L 50 80.5 Z M 55 80.5 L 60 69.5 L 65 69.5 L 60 80.5 Z M 5 63 L 10 52 L 15 52 L 10 63 Z M 15 63 L 20 52 L 25 52 L 20 63 Z M 25 63 L 29.5 52 L 34.5 52 L 29.5 63 Z M 35 63 L 40 52 L 45 52 L 40 63 Z M 45 63 L 50 52 L 55 52 L 50 63 Z M 55 63 L 60 52 L 65 52 L 60 63 Z M 5 45.5 L 10 34.5 L 15 34.5 L 10 45.5 Z M 15 45.5 L 20 34.5 L 25 34.5 L 20 45.5 Z M 25 45.5 L 30 34.5 L 35 34.5 L 30 45.5 Z M 35 45.5 L 40 34.5 L 45 34.5 L 40 45.5 Z M 45 45.5 L 50 34.5 L 55 34.5 L 50 45.5 Z M 55 45.5 L 60 34.5 L 65 34.5 L 60 45.5 Z M 5 28 L 10 17 L 15 17 L 10 28 Z M 15 28 L 20 17 L 25 17 L 20 28 Z M 25 28 L 30 17 L 35 17 L 30 28 Z M 35 28 L 40 17 L 45 17 L 40 28 Z M 45 28 L 50 17 L 55 17 L 50 28 Z M 55 28 L 60 17 L 65 17 L 60 28 Z" fill="#ffffff" stroke="none" stroke-width="0"/><rect x="0" y="0" width="0" height="0" fill="none" stroke="var(--icon-secondary, #6c8ebf)" stroke-width="2"/><ellipse cx="85" cy="89" rx="18" ry="18" fill="var(--icon-primary, #dae8fc)" stroke="var(--icon-secondary, #6c8ebf)" stroke-width="2"/><path d="M 73 81 L 97 81 L 85.4 87 Z M 73 83 L 85 89 L 97 83 L 97 97 L 73 97 Z" fill="#ffffff" stroke="none" stroke-width="0"/></svg>