<svg xmlns="http://www.w3.org/2000/svg" viewBox="0 0 100 34" width="100" height="34"><rect x="0" y="16" width="100" height="18" fill="var(--icon-primary, #dae8fc)" stroke="var(--icon-secondary, #6c8ebf)" stroke-width="2"/><path d="M 4 13 L 25 0 L 75 0 L 96 13 Z" fill="var(--icon-primary, #dae8fc)" stroke="var(--icon-secondary, #6c8ebf)" stroke-width="2"/><path d="M 4 34 L 4 16 L 9 16 L 9 18 L 17 20.5 L 21 20.5 L 21 16 L 23.5 16 L 23.5 20.5 L 39 20.5 L 39 16 L 41.5 16 L 41.5 20.5 L 57.5 20.5 L 57.5 16 L 60 16 L 60 20.5 L 76 20.5 L 76 16 L 78.5 16 L 78.5 20.5 L 82.5 20.5 L 90.5 18 L 90.5 16 L 95.5 16 L 95.5 34 L 90.5 34 L 90.5 32 L 82.5 29.5 L 78.5 29.5 L 78.5 34 L 76 34 L 76 29.5 L 60 29.5 L 60 34 L 57.5 34 L 57.5 29.5 L 41.5 29.5 L 41.5 34 L 39 34 L 39 29.5 L 23.5 29.5 L 23.5 34 L 21 34 L 21 29.5 L 17 29.5 L 9 32 L 9 34 Z" fill="#ffffff" stroke="var(--icon-secondary, #6c8ebf)" stroke-width="2"/></svg>