<svg xmlns="http://www.w3.org/2000/svg" viewBox="0 0 90 30" width="90" height="30"><path d="M 4 13 L 25 0 L 65 0 L 86 13 Z" fill="var(--icon-primary, #dae8fc)" stroke="var(--icon-secondary, #6c8ebf)" stroke-width="2"/><rect x="0" y="15" width="90" height="15" rx="1.999" ry="1.999" fill="var(--icon-primary, #dae8fc)" stroke="var(--icon-secondary, #6c8ebf)" stroke-width="2"/><rect x="4" y="18" width="4" height="2" fill="#ffffff" stroke="none" stroke-width="0"/><rect x="11" y="18" width="4" height="2" fill="#ffffff" stroke="none" stroke-width="0"/><rect x="18" y="18" width="4" height="2" fill="#ffffff" stroke="none" stroke-width="0"/><rect x="25" y="18" width="4" height="2" fill="#ffffff" stroke="none" stroke-width="0"/><rect x="32" y="18" width="4" height="2" fill="#ffffff" stroke="none" stroke-width="0"/><rect x="39" y="18" width="4" height="2" fill="#ffffff" stroke="none" stroke-width="0"/><rect x="46" y="18" width="4" height="2" fill="#ffffff" stroke="none" stroke-width="0"/><rect x="53" y="18" width="4" height="2" fill="#ffffff" stroke="none" stroke-width="0"/><rect x="4.12" y="23" width="4" height="2" fill="#ffffff" stroke="none" stroke-width="0"/><rect x="11" y="23" width="4" height="2" fill="#ffffff" stroke="none" stroke-width="0"/><rect x="18" y="23" width="4" height="2" fill="#ffffff" stroke="none" stroke-width="0"/><rect x="25" y="23" width="4" height="2" fill="#ffffff" stroke="none" stroke-width="0"/><rect x="32" y="23" width="4" height="2" fill="#ffffff" stroke="none" stroke-width="0"/><rect x="39" y="23" width="4" height="2" fill="#ffffff" stroke="none" stroke-width="0"/><rect x="46" y="23" width="4" height="2" fill="#ffffff" stroke="none" stroke-width="0"/><rect x="53" y="23" width="4" height="2" fill="#ffffff" stroke="none" stroke-width="0"/><rect x="60" y="18" width="4" height="2" fill="#ffffff" stroke="none" stroke-width="0"/><rect x="60" y="23" width="4" height="2" fill="#ffffff" stroke="none" stroke-width="0"/><rect x="67" y="18" width="4" height="2" fill="#ffffff" stroke="none" stroke-width="0"/><rect x="67" y="23" width="4" height="2" fill="#ffffff" stroke="none" stroke-width="0"/><rect x="74" y="18" width="4" height="2" fill="#ffffff" stroke="none" stroke-width="0"/><rect x="74" y="23" width="4" height="2" fill="#ffffff" stroke="none" stroke-width="0"/><rect x="81" y="18" width="4" height="2" fill="#ffffff" stroke="none" stroke-width="0"/><rect x="81" y="23" width="4" height="2" fill="#ffffff" stroke="none" stroke-width="0"/></svg>