<svg xmlns="http://www.w3.org/2000/svg" viewBox="0 0 100 70" width="100" height="70"><rect x="0" y="0" width="30" height="60" rx="2.001" ry="2.001" fill="var(--icon-primary, #dae8fc)" stroke="var(--icon-secondary, #6c8ebf)" stroke-width="2" stroke-linejoin="round"/><path d="M 0 10 L 30 10 M 0 30 L 30 30" fill="none" stroke="var(--icon-secondary, #6c8ebf)" stroke-width="2" stroke-linejoin="round"/><rect x="20" y="5" width="80" height="45" fill="var(--icon-primary, #dae8fc)" stroke="var(--icon-secondary, #6c8ebf)" stroke-width="2" stroke-linejoin="round"/><rect x="50" y="50" width="20" height="10" fill="var(--icon-primary, #dae8fc)" stroke="var(--icon-secondary, #6c8ebf)" stroke-width="2" stroke-linejoin="round"/><path d="M 35 59 L 85 59 L 95 70 L 25 70 Z" fill="var(--icon-primary, #dae8fc)" stroke="var(--icon-secondary, #6c8ebf)" stroke-width="2" stroke-linejoin="round"/><path d="M 49 67.5 L 67 67.5 M 36 64.5 L 75 64.5 M 38 61.5 L 74 61.5 M 77 61.5 L 84 61.5 M 79 64.5 L 86 64.5 M 81 67.5 L 88 67.5" fill="none" stroke="var(--icon-secondary, #6c8ebf)" stroke-width="2" stroke-linejoin="round"/><rect x="23" y="8" width="73" height="39" fill="#ffffff" stroke="none" stroke-width="0"/><ellipse cx="5" cy="35" rx="2" ry="2" fill="#ffffff" stroke="none" stroke-width="0"/></svg>