<svg xmlns="http://www.w3.org/2000/svg" viewBox="0 0 100 90" width="100" height="90"><path d="M 91 10 L 95 10 A 5 5 0 0 1 100 15 L 100 85 A 5 5 0 0 1 95 90 L 5 90 A 5 5 0 0 1 0 85 L 0 15 A 5 5 0 0 1 5 10 L 61 10 L 61 75 A 6 6 0 0 0 67 81 L 85 81 A 6 6 0 0 0 91 75 Z" fill="var(--icon-primary, #dae8fc)" stroke="var(--icon-secondary, #6c8ebf)" stroke-width="2"/><rect x="64" y="0" width="24" height="78" rx="4.001" ry="4.001" fill="var(--icon-primary, #dae8fc)" stroke="var(--icon-secondary, #6c8ebf)" stroke-width="2"/><rect x="12" y="24" width="40" height="10" fill="#ffffff" stroke="var(--icon-secondary, #6c8ebf)" stroke-width="2"/><rect x="12" y="42" width="8" height="8" fill="#ffffff" stroke="var(--icon-secondary, #6c8ebf)" stroke-width="2"/><rect x="28" y="42" width="8" height="8" fill="#ffffff" stroke="var(--icon-secondary, #6c8ebf)" stroke-width="2"/><rect x="44" y="42" width="8" height="8" fill="#ffffff" stroke="var(--icon-secondary, #6c8ebf)" stroke-width="2"/><rect x="12" y="58" width="8" height="8" fill="#ffffff" stroke="var(--icon-secondary, #6c8ebf)" stroke-width="2"/><rect x="28" y="58" width="8" height="8" fill="#ffffff" stroke="var(--icon-secondary, #6c8ebf)" stroke-width="2"/><rect x="44" y="58" width="8" height="8" fill="#ffffff" stroke="var(--icon-secondary, #6c8ebf)" stroke-width="2"/><rect x="12" y="74" width="8" height="8" fill="#ffffff" stroke="var(--icon-secondary, #6c8ebf)" stroke-width="2"/><rect x="28" y="74" width="8" height="8" fill="#ffffff" stroke="var(--icon-secondary, #6c8ebf)" stroke-width="2"/><rect x="44" y="74" width="8" height="8" fill="#ffffff" stroke="var(--icon-secondary, #6c8ebf)" stroke-width="2"/></svg>