<svg xmlns="http://www.w3.org/2000/svg" viewBox="0 0 101.14 71.6" width="101.14" height="71.6"><path d="M 3.47 27.2 A 14 14 0 0 1 1.77 13.8 A 15 15 0 0 1 9.87 5.8 A 200 200 0 0 1 50.47 0 A 200 200 0 0 1 91.67 6 A 14 14 0 0 1 99.47 22.2 A 14 14 0 0 1 88.87 33 L 71.87 21.5 A 15 15 0 0 1 73.17 12.7 A 200 200 0 0 0 50.47 11.4 A 200 200 0 0 0 27.67 12.7 A 15 15 0 0 1 29.07 21.4 Z M 10.27 48.6 A 60 60 0 0 0 33.37 13.8 L 39.07 13.3 L 39.07 19.3 L 61.87 19.3 L 61.87 13.4 L 67.67 13.8 A 60 60 0 0 0 90.47 48.4 L 90.57 71.6 L 10.27 71.6 Z M 32.87 43.2 A 18 18 0 0 0 50.47 60.2 A 18 18 0 0 0 68.07 43.2 A 18 18 0 0 0 50.47 25 A 18 18 0 0 0 32.87 43.2 Z M 39.17 43.2 A 11.5 11.5 0 0 1 50.47 31.2 A 11.5 11.5 0 0 1 61.87 43.2 A 11.5 11.5 0 0 1 50.47 54 A 11.5 11.5 0 0 1 39.17 43.2 Z" fill="var(--icon-primary, #dae8fc)" stroke="var(--icon-secondary, #6c8ebf)" stroke-width="2"/></svg>