<svg xmlns="http://www.w3.org/2000/svg" viewBox="0 0 50 100" width="50" height="100"><rect x="0" y="0" width="50" height="100" fill="var(--icon-primary, #dae8fc)" stroke="var(--icon-secondary, #6c8ebf)" stroke-width="2"/><rect x="3" y="3" width="44" height="94" fill="none" stroke="var(--icon-secondary, #6c8ebf)" stroke-width="2"/><path d="M 3 12 L 47 12 M 3 21 L 47 21 M 3 30 L 47 30 M 3 39 L 47 39 M 3 48 L 47 48 M 3 66 L 47 66 M 3 75 L 47 75 M 3 93 L 47 93" fill="var(--icon-primary, #dae8fc)" stroke="var(--icon-secondary, #6c8ebf)" stroke-width="2"/><rect x="7" y="6" width="3" height="2" fill="#ffffff" stroke="none" stroke-width="0"/><rect x="12" y="6" width="3" height="2" fill="#ffffff" stroke="none" stroke-width="0"/><rect x="17" y="6" width="3" height="2" fill="#ffffff" stroke="none" stroke-width="0"/><ellipse cx="41" cy="7.5" rx="1.5" ry="1.5" fill="#ffffff" stroke="none" stroke-width="0"/><rect x="7" y="15" width="3" height="2" fill="#ffffff" stroke="none" stroke-width="0"/><rect x="12" y="15" width="3" height="2" fill="#ffffff" stroke="none" stroke-width="0"/><rect x="17" y="15" width="3" height="2" fill="#ffffff" stroke="none" stroke-width="0"/><ellipse cx="41" cy="16.5" rx="1.5" ry="1.5" fill="#ffffff" stroke="none" stroke-width="0"/><rect x="7" y="24" width="3" height="2" fill="#ffffff" stroke="none" stroke-width="0"/><rect x="12" y="24" width="3" height="2" fill="#ffffff" stroke="none" stroke-width="0"/><rect x="17" y="24" width="3" height="2" fill="#ffffff" stroke="none" stroke-width="0"/><ellipse cx="41" cy="25.5" rx="1.5" ry="1.5" fill="#ffffff" stroke="none" stroke-width="0"/><rect x="7" y="33" width="3" height="2" fill="#ffffff" stroke="none" stroke-width="0"/><rect x="12" y="33" width="3" height="2" fill="#ffffff" stroke="none" stroke-width="0"/><rect x="17" y="33" width="3" height="2" fill="#ffffff" stroke="none" stroke-width="0"/><ellipse cx="41" cy="34.5" rx="1.5" ry="1.5" fill="#ffffff" stroke="none" stroke-width="0"/><rect x="7" y="42" width="3" height="2" fill="#ffffff" stroke="none" stroke-width="0"/><rect x="12" y="42" width="3" height="2" fill="#ffffff" stroke="none" stroke-width="0"/><rect x="17" y="42" width="3" height="2" fill="#ffffff" stroke="none" stroke-width="0"/><ellipse cx="41" cy="43.5" rx="1.5" ry="1.5" fill="#ffffff" stroke="none" stroke-width="0"/><rect x="7" y="51" width="3" height="12" fill="#ffffff" stroke="none" stroke-width="0"/><rect x="12" y="51" width="3" height="12" fill="#ffffff" stroke="none" stroke-width="0"/><rect x="17" y="51" width="3" height="12" fill="#ffffff" stroke="none" stroke-width="0"/><ellipse cx="41" cy="52.5" rx="1.5" ry="1.5" fill="#ffffff" stroke="none" stroke-width="0"/><rect x="7" y="69" width="3" height="2" fill="#ffffff" stroke="none" stroke-width="0"/><rect x="12" y="69" width="3" height="2" fill="#ffffff" stroke="none" stroke-width="0"/><rect x="17" y="69" width="3" height="2" fill="#ffffff" stroke="none" stroke-width="0"/><ellipse cx="41" cy="70.5" rx="1.5" ry="1.5" fill="#ffffff" stroke="none" stroke-width="0"/><rect x="7" y="78" width="3" height="12" fill="#ffffff" stroke="none" stroke-width="0"/><rect x="12" y="78" width="3" height="12" fill="#ffffff" stroke="none" stroke-width="0"/><rect x="17" y="78" width="3" height="12" fill="#ffffff" stroke="none" stroke-width="0"/><ellipse cx="41" cy="79.5" rx="1.5" ry="1.5" fill="#ffffff" stroke="none" stroke-width="0"/><rect x="22" y="51" width="3" height="12" fill="#ffffff" stroke="none" stroke-width="0"/><rect x="27" y="51" width="3" height="12" fill="#ffffff" stroke="none" stroke-width="0"/><rect x="22" y="78" width="3" height="12" fill="#ffffff" stroke="none" stroke-width="0"/><rect x="27" y="78" width="3" height="12" fill="#ffffff" stroke="none" stroke-width="0"/></svg>