<svg xmlns="http://www.w3.org/2000/svg" viewBox="0 0 53.34 98.8" width="53.34" height="98.8"><path d="M 4.67 98.8 L 26.67 16.3 L 48.67 98.8" fill="none" stroke="var(--icon-secondary, #6c8ebf)" stroke-width="2" stroke-linejoin="round"/><path d="M 47.67 93.3 L 10.67 76.8 L 39.67 65.8 L 17.17 54.8 L 33.67 44.3 L 22.17 34.8" fill="none" stroke="var(--icon-secondary, #6c8ebf)" stroke-width="2" stroke-linejoin="round"/><rect x="0" y="0" width="0" height="0" fill="none" stroke="var(--icon-secondary, #6c8ebf)" stroke-width="2"/><ellipse cx="26.67" cy="18.3" rx="4" ry="4" fill="var(--icon-primary, #dae8fc)" stroke="var(--icon-secondary, #6c8ebf)" stroke-width="2"/><path d="M 33.47 11.5 L 34.87 9.8 A 12 12 0 0 1 34.87 26.6 L 33.47 25 A 10 10 0 0 0 33.47 11.5 Z M 38.47 6.5 L 39.87 5.1 A 19 19 0 0 1 39.87 31.5 L 38.47 30.1 A 17 17 0 0 0 38.47 6.5 Z M 43.47 1.5 L 44.87 0 A 24 24 0 0 1 44.87 36.6 L 43.47 35.1 A 21.5 21.5 0 0 0 43.47 1.5 Z M 19.87 11.5 L 18.47 9.8 A 12 12 0 0 0 18.47 26.6 L 19.87 25 A 10 10 0 0 1 19.87 11.5 Z M 14.87 6.5 L 13.47 5.1 A 19 19 0 0 0 13.47 31.5 L 14.87 30.1 A 17 17 0 0 1 14.87 6.5 Z M 9.87 1.5 L 8.47 0 A 24 24 0 0 0 8.47 36.6 L 9.87 35.1 A 21.5 21.5 0 0 1 9.87 1.5 Z" fill="var(--icon-primary, #dae8fc)" stroke="var(--icon-secondary, #6c8ebf)" stroke-width="2"/></svg>