<svg xmlns="http://www.w3.org/2000/svg" viewBox="0 0 100 29" width="100" height="29"><rect x="0" y="0" width="100" height="25" rx="5" ry="5" fill="var(--icon-primary, #dae8fc)" stroke="var(--icon-secondary, #6c8ebf)" stroke-width="2"/><rect x="10" y="25" width="80" height="4" fill="var(--icon-primary, #dae8fc)" stroke="var(--icon-secondary, #6c8ebf)" stroke-width="2"/><path d="M 3 7 L 9 7 L 9 10 L 7 10 L 7 11 L 5 11 L 5 10 L 3 10 Z M 11.5 7 L 17.5 7 L 17.5 10 L 15.5 10 L 15.5 11 L 13.5 11 L 13.5 10 L 11.5 10 Z M 20 7 L 26 7 L 26 10 L 24 10 L 24 11 L 22 11 L 22 10 L 20 10 Z M 28.5 7 L 34.5 7 L 34.5 10 L 32.5 10 L 32.5 11 L 30.5 11 L 30.5 10 L 28.5 10 Z M 37 7 L 43 7 L 43 10 L 41 10 L 41 11 L 39 11 L 39 10 L 37 10 Z M 45.5 7 L 51.5 7 L 51.5 10 L 49.5 10 L 49.5 11 L 47.5 11 L 47.5 10 L 45.5 10 Z M 54 7 L 60 7 L 60 10 L 58 10 L 58 11 L 56 11 L 56 10 L 54 10 Z M 62.5 7 L 68.5 7 L 68.5 10 L 66.5 10 L 66.5 11 L 64.5 11 L 64.5 10 L 62.5 10 Z" fill="#ffffff" stroke="none" stroke-width="0"/><ellipse cx="88" cy="12.5" rx="8" ry="8" fill="#ffffff" stroke="none" stroke-width="0"/><ellipse cx="75" cy="5" rx="2" ry="2" fill="#ffffff" stroke="none" stroke-width="0"/><ellipse cx="75" cy="20" rx="2" ry="2" fill="#ffffff" stroke="none" stroke-width="0"/><ellipse cx="75" cy="12.5" rx="2" ry="2" fill="#ffffff" stroke="none" stroke-width="0"/><ellipse cx="65.5" cy="17" rx="2" ry="2" fill="#ffffff" stroke="none" stroke-width="0"/><ellipse cx="57" cy="17" rx="2" ry="2" fill="#ffffff" stroke="none" stroke-width="0"/><ellipse cx="48.5" cy="17" rx="2" ry="2" fill="#ffffff" stroke="none" stroke-width="0"/><ellipse cx="40" cy="17" rx="2" ry="2" fill="#ffffff" stroke="none" stroke-width="0"/><ellipse cx="31.5" cy="17" rx="2" ry="2" fill="#ffffff" stroke="none" stroke-width="0"/><ellipse cx="23" cy="17" rx="2" ry="2" fill="#ffffff" stroke="none" stroke-width="0"/><ellipse cx="14.5" cy="17" rx="2" ry="2" fill="#ffffff" stroke="none" stroke-width="0"/><ellipse cx="6" cy="17" rx="2" ry="2" fill="#ffffff" stroke="none" stroke-width="0"/><path d="M 88 7 L 88 18 M 81.5 12.5 L 85.5 12.5 M 90.5 12.5 L 94.5 12.5 M 86 9 L 88 7 L 90 9 M 86 16 L 88 18 L 90 16 M 83.5 10.5 L 85.5 12.5 L 83.5 14.5 M 92.5 10.5 L 90.5 12.5 L 92.5 14.5" fill="none" stroke="var(--icon-secondary, #6c8ebf)" stroke-width="1"/></svg>