<svg xmlns="http://www.w3.org/2000/svg" viewBox="0 0 100 100" width="100" height="100"><path d="M 28 60 L 58 30 A 10 10 0 0 1 70 42 L 40 72 A 20 20 0 0 1 40 85 A 30 30 0 0 1 15 60 A 20 20 0 0 1 28 60 Z M 15 0 L 45 30 L 30 45 L 0 15 Z M 70 55 L 100 85 L 85 100 L 55 70 Z M 92.5 77.12 L 77.25 92.88 M 85 70 L 70 85 M 77.5 62.5 L 62.5 77.5 M 22.5 7.5 L 7.5 22.5 M 30 15 L 15 30 M 37.5 22.5 L 22.5 37.5" fill="var(--icon-primary, #dae8fc)" stroke="var(--icon-secondary, #6c8ebf)" stroke-width="2"/><path d="M 16.7 66 L 19.5 80.5 L 38.5 80 M 7.5 7.5 L 37.5 37.5 M 62.5 62.5 L 92.5 92.5" fill="none" stroke="var(--icon-secondary, #6c8ebf)" stroke-width="2"/><rect x="0" y="0" width="0" height="0" fill="none" stroke="var(--icon-secondary, #6c8ebf)" stroke-width="2"/><path d="M 39.5 35.5 L 46 42 L 42 46 L 35.5 39.5 Z M 56 52 L 64.5 60.5 L 60.5 64.5 L 52 56 A 4 4 0 0 1 56 52 Z" fill="var(--icon-primary, #dae8fc)" stroke="var(--icon-secondary, #6c8ebf)" stroke-width="2"/><path d="M 51 37 A 15 15 0 0 1 63 49 M 38 50 A 15 15 0 0 1 50 62 M 36 52 A 15 15 0 0 1 48 64 M 28 60 A 20 20 0 0 1 40 72 M 15 60 A 30 30 0 0 1 40 85" fill="none" stroke="var(--icon-secondary, #6c8ebf)" stroke-width="2"/><path d="M 54 38 L 41 51 M 56.5 39.5 L 43.5 52.5" fill="none" stroke="var(--icon-secondary, #6c8ebf)" stroke-width="2"/><ellipse cx="19" cy="81" rx="2" ry="2" fill="var(--icon-primary, #dae8fc)" stroke="var(--icon-secondary, #6c8ebf)" stroke-width="2"/><path d="M 14 81 A 5 5 0 0 0 19 86 L 19 88 A 7 7 0 0 1 12 81 Z M 9 81 A 10 10 0 0 0 19 91 L 19 93 A 12 12 0 0 1 7 81 Z M 4 81 A 15 15 0 0 0 19 96 L 19 98 A 17 17 0 0 1 2 81 Z" fill="var(--icon-primary, #dae8fc)" stroke="var(--icon-secondary, #6c8ebf)" stroke-width="2"/></svg>