<svg xmlns="http://www.w3.org/2000/svg" viewBox="0 0 87.43 100" width="87.43" height="100"><path d="M 7.43 15 A 100 100 0 0 1 72.43 80 A 50 50 0 0 1 7.43 15 Z M 2.43 100 L 5.43 55 A 50 50 0 0 0 32.43 82 L 37.43 100 Z M 57.43 15 A 15 15 0 0 1 72.43 30 L 70.43 30 A 13 13 0 0 0 57.43 17 Z M 57.43 7 A 23 23 0 0 1 80.43 30 L 78.43 30 A 21 21 0 0 0 57.43 9 Z M 57.43 0 A 30 30 0 0 1 87.43 30 L 85.43 30 A 28 28 0 0 0 57.43 2 Z" fill="var(--icon-primary, #dae8fc)" stroke="var(--icon-secondary, #6c8ebf)" stroke-width="2"/><path d="M 7.43 15 A 100 100 0 0 0 72.43 80.29" fill="none" stroke="var(--icon-secondary, #6c8ebf)" stroke-width="2"/><path d="M 28.93 51.5 L 57.43 30 L 35.93 58.5 Z" fill="var(--icon-primary, #dae8fc)" stroke="var(--icon-secondary, #6c8ebf)" stroke-width="2" stroke-linejoin="round"/><ellipse cx="57.43" cy="30" rx="3" ry="3" fill="var(--icon-primary, #dae8fc)" stroke="var(--icon-secondary, #6c8ebf)" stroke-width="2" stroke-linejoin="round"/></svg>