<svg xmlns="http://www.w3.org/2000/svg" viewBox="0 0 99.6 74.07" width="99.6" height="74.07"><path d="M 99.6 48.67 A 11.58 11.58 0 0 1 96.13 55.04 L 62.54 72.42 A 11.58 11.58 0 0 1 52.12 72.42 L 2.32 49.25 A 8.11 8.11 0 0 1 0 44.62 A 11.58 11.58 0 0 1 3.47 37.67 L 34.74 11.03 A 23.16 23.16 0 0 1 41.69 7.56 L 67.17 0.61 A 6.95 6.95 0 0 1 74.12 2.93 L 39.38 28.41 L 99.6 48.67 Z" fill="var(--icon-primary, #dae8fc)" stroke="var(--icon-secondary, #6c8ebf)" stroke-width="2"/><path d="M 39.38 31.88 L 91.49 49.25 L 56.75 66.62 L 8.11 44.62 Z" fill="#ffffff" stroke="none" stroke-width="0"/><path d="M 73 2.97 L 39 11.97 L 1 44.57 L 56.7 69.97 L 99 48.97 M 40 27.97 L 2 43.97" fill="none" stroke="var(--icon-secondary, #6c8ebf)" stroke-width="2"/></svg>