<svg xmlns="http://www.w3.org/2000/svg" viewBox="0 0 100 100" width="100" height="100"><path d="M 0 65 A 50 15 0 0 1 100 65 L 100 85 A 50 15 0 1 1 0 85 Z" fill="var(--icon-primary, #dae8fc)" stroke="var(--icon-secondary, #6c8ebf)" stroke-width="2"/><path d="M 0 40 A 50 15 0 0 1 100 40 L 100 60 A 50 15 0 1 1 0 60 Z" fill="var(--icon-primary, #dae8fc)" stroke="var(--icon-secondary, #6c8ebf)" stroke-width="2"/><path d="M 0 15 A 50 15 0 0 1 100 15 L 100 35 A 50 15 0 1 1 0 35 Z" fill="var(--icon-primary, #dae8fc)" stroke="var(--icon-secondary, #6c8ebf)" stroke-width="2"/><path d="M 0 65 A 50 15 0 1 0 100 65 M 0 40 A 50 15 0 1 0 100 40 M 0 15 A 50 15 0 1 0 100 15" fill="none" stroke="var(--icon-secondary, #6c8ebf)" stroke-width="2"/></svg>