<svg xmlns="http://www.w3.org/2000/svg" viewBox="0 0 100 100" width="100" height="100"><path d="M 50 100 L 22 97 L 0 84 L 0 65 L 22 52 L 25 51.5 L 25 8 L 37 1 L 50 0 L 63 1 L 75 8 L 75 51.5 L 78 52 L 100 65 L 100 84 L 78 97 Z" fill="var(--icon-primary, #dae8fc)" stroke="var(--icon-secondary, #6c8ebf)" stroke-width="2"/><path d="M 25 8 L 25 65 L 0 65 M 37 15 L 37 72 L 22 78 L 22 97 M 50 16 L 50 100 M 63 15 L 63 72 L 78 78 L 78 97 M 75 8 L 75 65 L 100 65 M 25 65 L 37 72 L 50 73 L 63 72 L 75 65 M 0 65 L 22 78 L 50 81 L 78 78 L 100 65 M 22 52 L 25 53.5 M 78 52 L 75 53.5 M 25 8 L 37 15 L 50 16 L 63 15 L 75 8" fill="none" stroke="var(--icon-secondary, #6c8ebf)" stroke-width="2"/></svg>