<svg xmlns="http://www.w3.org/2000/svg" viewBox="0 0 70 100" width="70" height="100"><rect x="0" y="0" width="70" height="100" fill="var(--icon-primary, #dae8fc)" stroke="var(--icon-secondary, #6c8ebf)" stroke-width="2"/><path d="M 5 0 L 5 100 M 65 0 L 65 100 M 65 15 L 5 15" fill="none" stroke="var(--icon-secondary, #6c8ebf)" stroke-width="2"/><path d="M 27 30 A 12 12 0 1 0 43 30 M 35 25 L 35 40" fill="none" stroke="#ffffff" stroke-width="4"/><path d="M 12 63 L 16 63 L 16 80 A 3 3 0 1 0 22 80 L 22 63 L 26 63 L 26 80 A 7 7 0 0 1 12 80 Z M 28 63 L 35 63 A 7 7 0 0 1 35 77 L 32 77 L 32 87 L 28 87 Z M 32 73 L 35 73 A 3 3 0 1 0 35 67 L 32 67 Z M 43 87 L 50 87 A 7 7 0 0 0 50 73 A 3 3 0 0 1 50 67 L 56 67 L 56 63 L 50 63 A 7 7 0 0 0 50 77 A 3 3 0 0 1 50 83 L 43 83 Z" fill="#ffffff" stroke="none" stroke-width="0"/></svg>