<svg xmlns="http://www.w3.org/2000/svg" viewBox="0 0 42.5 98.51" width="42.5" height="98.51"><path d="M 42.5 32.5 L 42.5 86 A 13 13 0 0 1 29.5 98.5 L 11.5 98.5 A 13 13 0 0 1 0 86 L 0 32.5 Z M 36.5 51 L 27 51 L 27 60 L 29.5 60 A 3.5 3.5 0 0 1 28 63 L 23.5 65.5 L 23.5 47.5 L 27.5 47.5 L 21 38 L 14 47.5 L 18.5 47.5 L 18.5 71 L 14.5 68.5 A 4 4 0 0 1 12.5 65 L 12.5 61.5 A 4.4 4.4 0 1 0 8 61.5 L 8 66.5 A 8 8 0 0 0 11.5 72.5 L 18.5 77 L 18.5 79.5 A 6.7 6.7 0 1 0 23.5 79.5 L 23.5 70.5 L 29 68 A 8 8 0 0 0 34 62.5 L 34 60 L 36.5 60 Z M 9 29.5 A 3.5 3.5 0 0 1 6 26 L 6 2.5 A 3.5 3.5 0 0 1 9 0 L 33 0 A 3.5 3.5 0 0 1 36 3.5 L 36 26.5 A 3.5 3.5 0 0 1 33 29.5 Z M 16.5 23.5 L 16.5 17 L 10.5 17 L 10.5 23.5 Z M 25.5 23.5 L 31.5 23.5 L 31.5 17 L 25.5 17 Z" fill="var(--icon-primary, #dae8fc)" stroke="var(--icon-secondary, #6c8ebf)" stroke-width="2"/></svg>