<svg xmlns="http://www.w3.org/2000/svg" viewBox="0 0 88.5 99.25" width="88.5" height="99.25"><path d="M 17.75 0.25 A 13.31 13.31 0 0 1 31.06 13.56 A 13.31 13.31 0 0 1 17.75 26.88 A 13.31 13.31 0 0 1 4.44 13.56 A 14.8 14.8 0 0 1 17.75 0.25 Z M 26.62 31.31 A 8.88 8.88 0 0 1 35.5 40.19 L 35.5 53.5 A 8.88 8.88 0 0 1 26.62 62.38 L 26.62 84.56 A 4.44 4.44 0 0 1 22.19 89 L 13.31 89 A 4.44 4.44 0 0 1 8.88 84.56 L 8.88 62.38 A 8.88 8.88 0 0 1 0 53.5 L 0 40.19 A 9.64 9.64 0 0 1 8.88 31.31 Z M 70.75 0 A 13.31 13.31 0 0 1 84.06 13.31 A 13.31 13.31 0 0 1 70.75 26.62 A 13.31 13.31 0 0 1 57.44 13.31 A 14.8 14.8 0 0 1 70.75 0 Z M 79.62 31.06 A 8.88 8.88 0 0 1 88.5 39.94 L 88.5 53.25 A 8.88 8.88 0 0 1 79.62 62.12 L 79.62 84.31 A 4.44 4.44 0 0 1 75.19 88.75 L 66.31 88.75 A 4.44 4.44 0 0 1 61.88 84.31 L 61.88 62.12 A 8.88 8.88 0 0 1 53 53.25 L 53 39.94 A 9.64 9.64 0 0 1 61.88 31.06 Z" fill="var(--icon-primary, #dae8fc)" stroke="var(--icon-secondary, #6c8ebf)" stroke-width="2"/><path d="M 44.25 10.5 A 13.31 13.31 0 0 1 57.56 23.81 A 13.31 13.31 0 0 1 44.25 37.12 A 13.31 13.31 0 0 1 30.94 23.81 A 14.8 14.8 0 0 1 44.25 10.5 Z M 53.12 41.56 A 8.88 8.88 0 0 1 62 50.44 L 62 63.75 A 8.88 8.88 0 0 1 53.12 72.62 L 53.12 94.81 A 4.44 4.44 0 0 1 48.69 99.25 L 39.81 99.25 A 4.44 4.44 0 0 1 35.38 94.81 L 35.38 72.62 A 8.88 8.88 0 0 1 26.5 63.75 L 26.5 50.44 A 9.64 9.64 0 0 1 35.38 41.56 Z" fill="var(--icon-primary, #dae8fc)" stroke="var(--icon-secondary, #6c8ebf)" stroke-width="2"/></svg>