<svg xmlns="http://www.w3.org/2000/svg" viewBox="0 0 41.05 100" width="41.05" height="100"><path d="M 20.53 0 A 15 15 0 0 1 35.53 15 A 30 30 0 0 0 35.53 30 A 40 40 0 0 1 5.53 30 A 30 30 0 0 0 5.53 15 A 15 15 0 0 1 20.53 0 Z M 30.53 35 A 10 10 0 0 1 40.53 45 L 40.53 60 A 10 10 0 0 1 35.53 70 L 40.53 80 L 30.53 80 L 30.53 95 A 5 5 0 0 1 25.53 100 L 15.53 100 A 5 5 0 0 1 10.53 95 L 10.53 80 L 0.53 80 L 5.53 70 A 10 10 0 0 1 0.53 60 L 0.53 45 A 10 10 0 0 1 10.53 35 L 12.53 35 A 8 8 0 0 0 28.53 35 Z" fill="var(--icon-primary, #dae8fc)" stroke="var(--icon-secondary, #6c8ebf)" stroke-width="2"/></svg>