<svg xmlns="http://www.w3.org/2000/svg" viewBox="0 0 110 120" width="110" height="120"><rect x="10" y="95" width="90" height="15" rx="1.999" ry="1.999" fill="var(--icon-primary, #dae8fc)" stroke="var(--icon-secondary, #6c8ebf)" stroke-width="2"/><rect x="10" y="77.5" width="90" height="15" rx="1.999" ry="1.999" fill="var(--icon-primary, #dae8fc)" stroke="var(--icon-secondary, #6c8ebf)" stroke-width="2"/><rect x="10" y="60" width="90" height="15" rx="1.999" ry="1.999" fill="var(--icon-primary, #dae8fc)" stroke="var(--icon-secondary, #6c8ebf)" stroke-width="2"/><rect x="10" y="42.5" width="90" height="15" rx="1.999" ry="1.999" fill="var(--icon-primary, #dae8fc)" stroke="var(--icon-secondary, #6c8ebf)" stroke-width="2"/><rect x="10" y="25" width="90" height="15" rx="1.999" ry="1.999" fill="var(--icon-primary, #dae8fc)" stroke="var(--icon-secondary, #6c8ebf)" stroke-width="2"/><path d="M 14 23 L 35 10 L 75 10 L 96 23 Z" fill="var(--icon-primary, #dae8fc)" stroke="var(--icon-secondary, #6c8ebf)" stroke-width="2"/><ellipse cx="92" cy="102.5" rx="4" ry="4" fill="#ffffff" stroke="none" stroke-width="0"/><ellipse cx="92" cy="85" rx="4" ry="4" fill="#ffffff" stroke="none" stroke-width="0"/><ellipse cx="92" cy="67.5" rx="4" ry="4" fill="#ffffff" stroke="none" stroke-width="0"/><ellipse cx="92" cy="50" rx="4" ry="4" fill="#ffffff" stroke="none" stroke-width="0"/><ellipse cx="92" cy="32.5" rx="4" ry="4" fill="#ffffff" stroke="none" stroke-width="0"/><path d="M 15 108 L 20 97 L 25 97 L 20 108 Z M 25 108 L 30 97 L 35 97 L 30 108 Z M 35 108 L 40 97 L 45 97 L 40 108 Z M 45 108 L 50 97 L 55 97 L 50 108 Z M 55 108 L 60 97 L 65 97 L 60 108 Z M 65 108 L 70 97 L 75 97 L 70 108 Z M 15 90.5 L 20 79.5 L 25 79.5 L 20 90.5 Z M 25 90.5 L 30 79.5 L 35 79.5 L 30 90.5 Z M 35 90.5 L 40 79.5 L 45 79.5 L 40 90.5 Z M 45 90.5 L 50 79.5 L 55 79.5 L 50 90.5 Z M 55 90.5 L 60 79.5 L 65 79.5 L 60 90.5 Z M 65 90.5 L 70 79.5 L 75 79.5 L 70 90.5 Z M 15 73 L 20 62 L 25 62 L 20 73 Z M 25 73 L 30 62 L 35 62 L 30 73 Z M 35 73 L 39.5 62 L 44.5 62 L 39.5 73 Z M 45 73 L 50 62 L 55 62 L 50 73 Z M 55 73 L 60 62 L 65 62 L 60 73 Z M 65 73 L 70 62 L 75 62 L 70 73 Z M 15 55.5 L 20 44.5 L 25 44.5 L 20 55.5 Z M 25 55.5 L 30 44.5 L 35 44.5 L 30 55.5 Z M 35 55.5 L 40 44.5 L 45 44.5 L 40 55.5 Z M 45 55.5 L 50 44.5 L 55 44.5 L 50 55.5 Z M 55 55.5 L 60 44.5 L 65 44.5 L 60 55.5 Z M 65 55.5 L 70 44.5 L 75 44.5 L 70 55.5 Z M 15 38 L 20 27 L 25 27 L 20 38 Z M 25 38 L 30 27 L 35 27 L 30 38 Z M 35 38 L 40 27 L 45 27 L 40 38 Z M 45 38 L 50 27 L 55 27 L 50 38 Z M 55 38 L 60 27 L 65 27 L 60 38 Z M 65 38 L 70 27 L 75 27 L 70 38 Z" fill="#ffffff" stroke="none" stroke-width="0"/><rect x="0" y="0" width="110" height="120" rx="5.005" ry="5.005" fill="none" stroke="var(--icon-secondary, #6c8ebf)" stroke-width="2" stroke-dasharray="5 5"/></svg>