<svg xmlns="http://www.w3.org/2000/svg" viewBox="0 0 116 86" width="116" height="86"><rect x="8" y="8" width="30" height="60" rx="2.001" ry="2.001" fill="var(--icon-primary, #dae8fc)" stroke="var(--icon-secondary, #6c8ebf)" stroke-width="2" stroke-linejoin="round"/><path d="M 8 18 L 38 18 M 8 38 L 38 38" fill="none" stroke="var(--icon-secondary, #6c8ebf)" stroke-width="2" stroke-linejoin="round"/><rect x="28" y="13" width="80" height="45" fill="var(--icon-primary, #dae8fc)" stroke="var(--icon-secondary, #6c8ebf)" stroke-width="2" stroke-linejoin="round"/><rect x="58" y="58" width="20" height="10" fill="var(--icon-primary, #dae8fc)" stroke="var(--icon-secondary, #6c8ebf)" stroke-width="2" stroke-linejoin="round"/><path d="M 43 67 L 93 67 L 103 78 L 33 78 Z" fill="var(--icon-primary, #dae8fc)" stroke="var(--icon-secondary, #6c8ebf)" stroke-width="2" stroke-linejoin="round"/><path d="M 57 75.5 L 75 75.5 M 44 72.5 L 83 72.5 M 46 69.5 L 82 69.5 M 85 69.5 L 92 69.5 M 87 72.5 L 94 72.5 M 89 75.5 L 96 75.5" fill="var(--icon-primary, #dae8fc)" stroke="var(--icon-secondary, #6c8ebf)" stroke-width="2" stroke-linejoin="round"/><rect x="31" y="16" width="73" height="39" fill="#ffffff" stroke="none" stroke-width="0"/><ellipse cx="13" cy="43" rx="2" ry="2" fill="#ffffff" stroke="none" stroke-width="0"/><rect x="0" y="0" width="116" height="86" rx="4.997" ry="4.997" fill="none" stroke="var(--icon-secondary, #6c8ebf)" stroke-width="2" stroke-dasharray="5 5" stroke-linejoin="round"/></svg>