<svg xmlns="http://www.w3.org/2000/svg" viewBox="0 0 106.43 97.95" width="106.43" height="97.95"><path d="M 54.79 0 C 65.67 0.87 74.24 10.07 74.24 21.26 C 74.24 32.66 65.35 41.95 54.18 42.53 L 54.18 46.9 C 57.23 47.39 59.56 50.05 59.56 53.26 C 59.56 54.04 59.42 54.8 59.16 55.49 L 63.12 57.8 C 69.24 48.48 81.58 45.44 91.31 51.1 C 101.02 56.75 104.6 69.01 99.71 78.99 C 106.43 65.81 101.76 49.48 88.89 41.99 C 85.67 40.12 82.24 38.98 78.77 38.5 C 80.1 35.24 80.83 31.66 80.83 27.92 C 80.85 13.06 69.32 0.89 54.79 0 L 54.79 0 Z M 51.25 0.02 C 36.79 0.98 25.34 13.12 25.34 27.93 C 25.34 31.57 26.03 35.05 27.29 38.24 C 23.92 38.74 20.59 39.87 17.47 41.69 C 4.69 49.12 0 65.28 6.52 78.41 C 1.81 68.47 5.42 56.38 15.04 50.78 C 24.83 45.08 37.26 48.2 43.34 57.66 L 47.16 55.44 C 46.92 54.76 46.8 54.03 46.8 53.27 C 46.8 50.2 48.94 47.63 51.79 46.99 L 51.79 42.53 C 40.73 41.85 31.95 32.59 31.95 21.27 C 31.95 10.12 40.44 0.96 51.25 0.02 L 51.25 0.02 Z M 52.48 26.8 C 46.9 26.93 41.75 28.85 37.52 31.96 C 37.86 32.46 38.22 32.95 38.6 33.42 C 38.98 33.89 39.39 34.34 39.81 34.76 C 40.23 35.18 40.68 35.6 41.14 35.98 C 41.48 36.26 41.85 36.52 42.21 36.78 C 45.33 34.71 49.06 33.5 53.09 33.5 C 57.11 33.5 60.84 34.71 63.96 36.78 C 64.32 36.52 64.69 36.27 65.03 35.98 C 65.49 35.59 65.94 35.19 66.36 34.76 C 66.78 34.33 67.19 33.88 67.57 33.42 C 67.95 32.95 68.32 32.46 68.65 31.96 C 64.27 28.73 58.9 26.8 53.09 26.8 C 52.95 26.8 52.81 26.8 52.68 26.8 C 52.62 26.8 52.55 26.8 52.48 26.8 L 52.48 26.8 Z M 27.03 50.3 C 26.44 55.74 27.47 61.39 30.38 66.47 C 33.29 71.55 37.63 75.28 42.6 77.48 C 42.87 76.93 43.1 76.37 43.31 75.8 C 43.52 75.23 43.7 74.66 43.86 74.07 C 44.02 73.48 44.15 72.89 44.25 72.29 C 44.32 71.85 44.36 71.41 44.4 70.96 C 41.07 69.27 38.16 66.61 36.15 63.1 C 34.13 59.6 33.31 55.74 33.52 51.98 C 33.12 51.79 32.71 51.61 32.3 51.45 C 31.74 51.24 31.17 51.05 30.59 50.9 C 30.01 50.74 29.42 50.62 28.83 50.52 C 28.23 50.42 27.63 50.34 27.03 50.3 L 27.03 50.3 Z M 79.34 50.62 C 78.74 50.66 78.14 50.74 77.55 50.84 C 76.96 50.94 76.37 51.07 75.79 51.22 C 75.21 51.38 74.63 51.56 74.07 51.77 C 73.66 51.93 73.26 52.12 72.85 52.31 C 73.07 56.06 72.24 59.93 70.22 63.44 C 68.21 66.95 65.3 69.6 61.97 71.29 C 62.01 71.73 62.05 72.18 62.13 72.62 C 62.23 73.22 62.36 73.81 62.51 74.4 C 62.67 74.98 62.85 75.57 63.06 76.13 C 63.27 76.7 63.5 77.26 63.77 77.8 C 68.73 75.59 73.08 71.87 75.98 66.79 C 78.9 61.72 79.93 56.05 79.34 50.62 L 79.34 50.62 Z M 48.38 57.49 L 44.53 59.74 C 49.47 69.74 45.92 82.04 36.19 87.7 C 26.51 93.34 14.23 90.37 8.08 81.16 C 16.06 93.56 32.38 97.62 45.22 90.15 C 48.33 88.34 50.95 86.01 53.06 83.33 C 55.21 86.14 57.92 88.58 61.16 90.47 C 74.01 97.95 90.35 93.87 98.32 81.45 C 92.18 90.7 79.88 93.69 70.18 88.05 C 60.39 82.35 56.85 69.94 61.94 59.9 L 57.94 57.57 C 56.77 58.87 55.07 59.7 53.19 59.7 C 51.27 59.7 49.55 58.84 48.38 57.49 L 48.38 57.49 Z" fill="var(--icon-primary, #dae8fc)" stroke="var(--icon-secondary, #6c8ebf)" stroke-width="2"/></svg>