<svg xmlns="http://www.w3.org/2000/svg" viewBox="0 0 100 85.6" width="100" height="85.6"><rect x="0" y="56.6" width="100" height="25" rx="5" ry="5" fill="var(--icon-primary, #dae8fc)" stroke="var(--icon-secondary, #6c8ebf)" stroke-width="1"/><rect x="10" y="81.6" width="80" height="4" fill="var(--icon-primary, #dae8fc)" stroke="var(--icon-secondary, #6c8ebf)" stroke-width="1"/><ellipse cx="88" cy="69.1" rx="8" ry="8" fill="#ffffff" stroke="none" stroke-width="0"/><ellipse cx="10" cy="66.6" rx="2" ry="2" fill="#ffffff" stroke="none" stroke-width="0"/><rect x="0" y="0" width="0" height="0" fill="none" stroke="var(--icon-secondary, #6c8ebf)" stroke-width="1"/><path d="M 88 63.6 L 88 74.6" fill="var(--icon-primary, #dae8fc)" stroke="var(--icon-secondary, #6c8ebf)" stroke-width="1"/><path d="M 86 65.6 L 88 63.6 L 90 65.6" fill="none" stroke="var(--icon-secondary, #6c8ebf)" stroke-width="1"/><ellipse cx="20" cy="66.6" rx="2" ry="2" fill="#ffffff" stroke="none" stroke-width="0"/><ellipse cx="30" cy="66.6" rx="2" ry="2" fill="#ffffff" stroke="none" stroke-width="0"/><ellipse cx="40" cy="66.6" rx="2" ry="2" fill="#ffffff" stroke="none" stroke-width="0"/><rect x="0" y="0" width="0" height="0" fill="none" stroke="var(--icon-secondary, #6c8ebf)" stroke-width="1"/><path d="M 86 72.6 L 88 74.6 L 90 72.6" fill="none" stroke="var(--icon-secondary, #6c8ebf)" stroke-width="1"/><rect x="0" y="0" width="0" height="0" fill="none" stroke="var(--icon-secondary, #6c8ebf)" stroke-width="1"/><path d="M 67 56.6 L 67.5 11.6 A 1.5 1.5 0 0 1 70 11.6 L 70.5 56.6 Z" fill="var(--icon-primary, #dae8fc)" stroke="var(--icon-secondary, #6c8ebf)" stroke-width="1"/><path d="M 73.8 5.9 A 10 10 0 0 1 73.8 16.9 L 72.3 15.9 A 8 8 0 0 0 72.3 7.3 Z" fill="var(--icon-primary, #dae8fc)" stroke="var(--icon-secondary, #6c8ebf)" stroke-width="1"/><path d="M 77.8 2.9 A 14 14 0 0 1 77.8 20.2 L 76.3 19 A 12 12 0 0 0 76.3 4.2 Z" fill="var(--icon-primary, #dae8fc)" stroke="var(--icon-secondary, #6c8ebf)" stroke-width="1"/><path d="M 81.8 0 A 17 17 0 0 1 81.8 23.1 L 80.3 21.9 A 15 15 0 0 0 80.3 1.2 Z" fill="var(--icon-primary, #dae8fc)" stroke="var(--icon-secondary, #6c8ebf)" stroke-width="1"/><path d="M 63.8 5.9 A 10 10 0 0 0 63.8 16.9 L 65.3 15.9 A 8 8 0 0 1 65.3 7.3 Z" fill="var(--icon-primary, #dae8fc)" stroke="var(--icon-secondary, #6c8ebf)" stroke-width="1"/><path d="M 59.8 2.9 A 14 14 0 0 0 59.8 20.3 L 61.3 18.9 A 12 12 0 0 1 61.3 4.3 Z" fill="var(--icon-primary, #dae8fc)" stroke="var(--icon-secondary, #6c8ebf)" stroke-width="1"/><path d="M 55.8 0.1 A 17 17 0 0 0 55.8 23.1 L 57.3 21.9 A 15 15 0 0 1 57.3 1.3 Z" fill="var(--icon-primary, #dae8fc)" stroke="var(--icon-secondary, #6c8ebf)" stroke-width="1"/></svg>