<svg xmlns="http://www.w3.org/2000/svg" viewBox="0 0 100 85.6" width="100" height="85.6"><rect x="0" y="56.6" width="100" height="25" rx="5" ry="5" fill="var(--icon-primary, #dae8fc)" stroke="var(--icon-secondary, #6c8ebf)" stroke-width="2"/><rect x="10" y="81.6" width="80" height="4" fill="var(--icon-primary, #dae8fc)" stroke="var(--icon-secondary, #6c8ebf)" stroke-width="2"/><path d="M 67 56.6 L 67.5 11.6 A 1.5 1.5 0 0 1 70 11.6 L 70.5 56.6 Z" fill="var(--icon-primary, #dae8fc)" stroke="var(--icon-secondary, #6c8ebf)" stroke-width="2"/><ellipse cx="88" cy="69.1" rx="8" ry="8" fill="#ffffff" stroke="none" stroke-width="0"/><ellipse cx="75" cy="61.6" rx="2" ry="2" fill="#ffffff" stroke="none" stroke-width="0"/><ellipse cx="75" cy="76.6" rx="2" ry="2" fill="#ffffff" stroke="none" stroke-width="0"/><ellipse cx="75" cy="69.1" rx="2" ry="2" fill="#ffffff" stroke="none" stroke-width="0"/><ellipse cx="65.5" cy="73.6" rx="2" ry="2" fill="#ffffff" stroke="none" stroke-width="0"/><ellipse cx="57" cy="73.6" rx="2" ry="2" fill="#ffffff" stroke="none" stroke-width="0"/><ellipse cx="48.5" cy="73.6" rx="2" ry="2" fill="#ffffff" stroke="none" stroke-width="0"/><ellipse cx="40" cy="73.6" rx="2" ry="2" fill="#ffffff" stroke="none" stroke-width="0"/><ellipse cx="31.5" cy="73.6" rx="2" ry="2" fill="#ffffff" stroke="none" stroke-width="0"/><ellipse cx="23" cy="73.6" rx="2" ry="2" fill="#ffffff" stroke="none" stroke-width="0"/><ellipse cx="14.5" cy="73.6" rx="2" ry="2" fill="#ffffff" stroke="none" stroke-width="0"/><ellipse cx="6" cy="73.6" rx="2" ry="2" fill="#ffffff" stroke="none" stroke-width="0"/><path d="M 3 63.6 L 9 63.6 L 9 66.6 L 7 66.6 L 7 67.6 L 5 67.6 L 5 66.6 L 3 66.6 Z M 11.5 63.6 L 17.5 63.6 L 17.5 66.6 L 15.5 66.6 L 15.5 67.6 L 13.5 67.6 L 13.5 66.6 L 11.5 66.6 Z M 20 63.6 L 26 63.6 L 26 66.6 L 24 66.6 L 24 67.6 L 22 67.6 L 22 66.6 L 20 66.6 Z M 28.5 63.6 L 34.5 63.6 L 34.5 66.6 L 32.5 66.6 L 32.5 67.6 L 30.5 67.6 L 30.5 66.6 L 28.5 66.6 Z M 37 63.6 L 43 63.6 L 43 66.6 L 41 66.6 L 41 67.6 L 39 67.6 L 39 66.6 L 37 66.6 Z M 45.5 63.6 L 51.5 63.6 L 51.5 66.6 L 49.5 66.6 L 49.5 67.6 L 47.5 67.6 L 47.5 66.6 L 45.5 66.6 Z M 54 63.6 L 60 63.6 L 60 66.6 L 58 66.6 L 58 67.6 L 56 67.6 L 56 66.6 L 54 66.6 Z M 62.5 63.6 L 68.5 63.6 L 68.5 66.6 L 66.5 66.6 L 66.5 67.6 L 64.5 67.6 L 64.5 66.6 L 62.5 66.6 Z" fill="#ffffff" stroke="none" stroke-width="0"/><rect x="0" y="0" width="0" height="0" fill="none" stroke="var(--icon-secondary, #6c8ebf)" stroke-width="2"/><path d="M 90 67.1 L 92 69.1 L 90 71.1 M 83 69.1 L 92 69.1" fill="none" stroke="var(--icon-secondary, #6c8ebf)" stroke-width="2"/><path d="M 73.8 5.9 A 10 10 0 0 1 73.8 16.9 L 72.3 15.9 A 8 8 0 0 0 72.3 7.3 Z M 77.8 2.9 A 14 14 0 0 1 77.8 20.2 L 76.3 19 A 12 12 0 0 0 76.3 4.2 Z M 81.8 0 A 17 17 0 0 1 81.8 23.1 L 80.3 21.9 A 15 15 0 0 0 80.3 1.2 Z M 63.8 5.9 A 10 10 0 0 0 63.8 16.9 L 65.3 15.9 A 8 8 0 0 1 65.3 7.3 Z M 59.8 2.9 A 14 14 0 0 0 59.8 20.3 L 61.3 18.9 A 12 12 0 0 1 61.3 4.3 Z M 55.8 0.1 A 17 17 0 0 0 55.8 23.1 L 57.3 21.9 A 15 15 0 0 1 57.3 1.3 Z" fill="var(--icon-primary, #dae8fc)" stroke="var(--icon-secondary, #6c8ebf)" stroke-width="2"/></svg>